  0
SECTION
  2
HEADER
  9
$ACADVER
  1
AC1024
  9
$ACADMAINTVER
 70
     6
  9
$DWGCODEPAGE
  3
ANSI_1252
  9
$INSBASE
 10
0.0
 20
0.0
 30
0.0
  9
$EXTMIN
 10
1.000000000000000E+20
 20
1.000000000000000E+20
 30
1.000000000000000E+20
  9
$EXTMAX
 10
-1.000000000000000E+20
 20
-1.000000000000000E+20
 30
-1.000000000000000E+20
  9
$LIMMIN
 10
0.0
 20
0.0
  9
$LIMMAX
 10
12.0
 20
9.0
  9
$ORTHOMODE
 70
     0
  9
$REGENMODE
 70
     1
  9
$FILLMODE
 70
     1
  9
$QTEXTMODE
 70
     0
  9
$MIRRTEXT
 70
     1
  9
$LTSCALE
 40
1.0
  9
$ATTMODE
 70
     1
  9
$TEXTSIZE
 40
0.2
  9
$TRACEWID
 40
0.05
  9
$TEXTSTYLE
  7
Standard
  9
$CLAYER
  8
0
  9
$CELTYPE
  6
ByLayer
  9
$CECOLOR
 62
   256
  9
$CELTSCALE
 40
1.0
  9
$DISPSILH
 70
     0
  9
$DIMSCALE
 40
1.0
  9
$DIMASZ
 40
0.18
  9
$DIMEXO
 40
0.0625
  9
$DIMDLI
 40
0.38
  9
$DIMRND
 40
0.0
  9
$DIMDLE
 40
0.0
  9
$DIMEXE
 40
0.18
  9
$DIMTP
 40
0.0
  9
$DIMTM
 40
0.0
  9
$DIMTXT
 40
0.18
  9
$DIMCEN
 40
0.09
  9
$DIMTSZ
 40
0.0
  9
$DIMTOL
 70
     0
  9
$DIMLIM
 70
     0
  9
$DIMTIH
 70
     1
  9
$DIMTOH
 70
     1
  9
$DIMSE1
 70
     0
  9
$DIMSE2
 70
     0
  9
$DIMTAD
 70
     0
  9
$DIMZIN
 70
     0
  9
$DIMBLK
  1

  9
$DIMASO
 70
     1
  9
$DIMSHO
 70
     1
  9
$DIMPOST
  1

  9
$DIMAPOST
  1

  9
$DIMALT
 70
     0
  9
$DIMALTD
 70
     2
  9
$DIMALTF
 40
25.4
  9
$DIMLFAC
 40
1.0
  9
$DIMTOFL
 70
     0
  9
$DIMTVP
 40
0.0
  9
$DIMTIX
 70
     0
  9
$DIMSOXD
 70
     0
  9
$DIMSAH
 70
     0
  9
$DIMBLK1
  1

  9
$DIMBLK2
  1

  9
$DIMSTYLE
  2
Standard
  9
$DIMCLRD
 70
     0
  9
$DIMCLRE
 70
     0
  9
$DIMCLRT
 70
     0
  9
$DIMTFAC
 40
1.0
  9
$DIMGAP
 40
0.09
  9
$DIMJUST
 70
     0
  9
$DIMSD1
 70
     0
  9
$DIMSD2
 70
     0
  9
$DIMTOLJ
 70
     1
  9
$DIMTZIN
 70
     0
  9
$DIMALTZ
 70
     0
  9
$DIMALTTZ
 70
     0
  9
$DIMUPT
 70
     0
  9
$DIMDEC
 70
     4
  9
$DIMTDEC
 70
     4
  9
$DIMALTU
 70
     2
  9
$DIMALTTD
 70
     2
  9
$DIMTXSTY
  7
Standard
  9
$DIMAUNIT
 70
     0
  9
$DIMADEC
 70
     0
  9
$DIMALTRND
 40
0.0
  9
$DIMAZIN
 70
     0
  9
$DIMDSEP
 70
    46
  9
$DIMATFIT
 70
     3
  9
$DIMFRAC
 70
     0
  9
$DIMLDRBLK
  1

  9
$DIMLUNIT
 70
     2
  9
$DIMLWD
 70
    -2
  9
$DIMLWE
 70
    -2
  9
$DIMTMOVE
 70
     0
  9
$DIMFXL
 40
1.0
  9
$DIMFXLON
 70
     0
  9
$DIMJOGANG
 40
0.7853981633974483
  9
$DIMTFILL
 70
     0
  9
$DIMTFILLCLR
 70
     0
  9
$DIMARCSYM
 70
     0
  9
$DIMLTYPE
  6

  9
$DIMLTEX1
  6

  9
$DIMLTEX2
  6

  9
$DIMTXTDIRECTION
 70
     0
  9
$LUNITS
 70
     2
  9
$LUPREC
 70
     4
  9
$SKETCHINC
 40
0.1
  9
$FILLETRAD
 40
0.5
  9
$AUNITS
 70
     0
  9
$AUPREC
 70
     0
  9
$MENU
  1
.
  9
$ELEVATION
 40
0.0
  9
$PELEVATION
 40
0.0
  9
$THICKNESS
 40
0.0
  9
$LIMCHECK
 70
     0
  9
$CHAMFERA
 40
0.5
  9
$CHAMFERB
 40
0.5
  9
$CHAMFERC
 40
1.0
  9
$CHAMFERD
 40
0.0
  9
$SKPOLY
 70
     0
  9
$TDCREATE
 40
2459964.588151169
  9
$TDUCREATE
 40
2459964.546484502
  9
$TDUPDATE
 40
2459964.588151192
  9
$TDUUPDATE
 40
2459964.546484525
  9
$TDINDWG
 40
0.0000000116
  9
$TDUSRTIMER
 40
0.0000000116
  9
$USRTIMER
 70
     1
  9
$ANGBASE
 50
0.0
  9
$ANGDIR
 70
     0
  9
$PDMODE
 70
     0
  9
$PDSIZE
 40
0.0
  9
$PLINEWID
 40
0.0
  9
$SPLFRAME
 70
     0
  9
$SPLINETYPE
 70
     6
  9
$SPLINESEGS
 70
     8
  9
$HANDSEED
  5
4E
  9
$SURFTAB1
 70
     6
  9
$SURFTAB2
 70
     6
  9
$SURFTYPE
 70
     6
  9
$SURFU
 70
     6
  9
$SURFV
 70
     6
  9
$UCSBASE
  2

  9
$UCSNAME
  2

  9
$UCSORG
 10
0.0
 20
0.0
 30
0.0
  9
$UCSXDIR
 10
1.0
 20
0.0
 30
0.0
  9
$UCSYDIR
 10
0.0
 20
1.0
 30
0.0
  9
$UCSORTHOREF
  2

  9
$UCSORTHOVIEW
 70
     0
  9
$UCSORGTOP
 10
0.0
 20
0.0
 30
0.0
  9
$UCSORGBOTTOM
 10
0.0
 20
0.0
 30
0.0
  9
$UCSORGLEFT
 10
0.0
 20
0.0
 30
0.0
  9
$UCSORGRIGHT
 10
0.0
 20
0.0
 30
0.0
  9
$UCSORGFRONT
 10
0.0
 20
0.0
 30
0.0
  9
$UCSORGBACK
 10
0.0
 20
0.0
 30
0.0
  9
$PUCSBASE
  2

  9
$PUCSNAME
  2

  9
$PUCSORG
 10
0.0
 20
0.0
 30
0.0
  9
$PUCSXDIR
 10
1.0
 20
0.0
 30
0.0
  9
$PUCSYDIR
 10
0.0
 20
1.0
 30
0.0
  9
$PUCSORTHOREF
  2

  9
$PUCSORTHOVIEW
 70
     0
  9
$PUCSORGTOP
 10
0.0
 20
0.0
 30
0.0
  9
$PUCSORGBOTTOM
 10
0.0
 20
0.0
 30
0.0
  9
$PUCSORGLEFT
 10
0.0
 20
0.0
 30
0.0
  9
$PUCSORGRIGHT
 10
0.0
 20
0.0
 30
0.0
  9
$PUCSORGFRONT
 10
0.0
 20
0.0
 30
0.0
  9
$PUCSORGBACK
 10
0.0
 20
0.0
 30
0.0
  9
$USERI1
 70
     0
  9
$USERI2
 70
     0
  9
$USERI3
 70
     0
  9
$USERI4
 70
     0
  9
$USERI5
 70
     0
  9
$USERR1
 40
0.0
  9
$USERR2
 40
0.0
  9
$USERR3
 40
0.0
  9
$USERR4
 40
0.0
  9
$USERR5
 40
0.0
  9
$WORLDVIEW
 70
     1
  9
$SHADEDGE
 70
     3
  9
$SHADEDIF
 70
    70
  9
$TILEMODE
 70
     1
  9
$MAXACTVP
 70
    64
  9
$PINSBASE
 10
0.0
 20
0.0
 30
0.0
  9
$PLIMCHECK
 70
     0
  9
$PEXTMIN
 10
1.000000000000000E+20
 20
1.000000000000000E+20
 30
1.000000000000000E+20
  9
$PEXTMAX
 10
-1.000000000000000E+20
 20
-1.000000000000000E+20
 30
-1.000000000000000E+20
  9
$PLIMMIN
 10
0.0
 20
0.0
  9
$PLIMMAX
 10
12.0
 20
9.0
  9
$UNITMODE
 70
     0
  9
$VISRETAIN
 70
     1
  9
$PLINEGEN
 70
     0
  9
$PSLTSCALE
 70
     1
  9
$TREEDEPTH
 70
  3020
  9
$CMLSTYLE
  2
Standard
  9
$CMLJUST
 70
     0
  9
$CMLSCALE
 40
1.0
  9
$PROXYGRAPHICS
 70
     1
  9
$MEASUREMENT
 70
     0
  9
$CELWEIGHT
370
    -1
  9
$ENDCAPS
280
     0
  9
$JOINSTYLE
280
     0
  9
$LWDISPLAY
290
     1
  9
$INSUNITS
 70
     1
  9
$HYPERLINKBASE
  1

  9
$STYLESHEET
  1

  9
$XEDIT
290
     1
  9
$CEPSNTYPE
380
     0
  9
$PSTYLEMODE
290
     1
  9
$FINGERPRINTGUID
  2
{466C9188-865D-413C-9C10-09D7161C59EF}
  9
$VERSIONGUID
  2
{FAEB1C32-E019-11D5-929B-00C0DF256EC4}
  9
$EXTNAMES
290
     1
  9
$PSVPSCALE
 40
0.0
  9
$OLESTARTUP
290
     0
  9
$SORTENTS
280
   127
  9
$INDEXCTL
280
     0
  9
$HIDETEXT
280
     1
  9
$XCLIPFRAME
280
     2
  9
$HALOGAP
280
     0
  9
$OBSCOLOR
 70
   257
  9
$OBSLTYPE
280
     0
  9
$INTERSECTIONDISPLAY
280
     0
  9
$INTERSECTIONCOLOR
 70
   257
  9
$DIMASSOC
280
     2
  9
$PROJECTNAME
  1

  9
$CAMERADISPLAY
290
     0
  9
$LENSLENGTH
 40
50.0
  9
$CAMERAHEIGHT
 40
0.0
  9
$STEPSPERSEC
 40
2.0
  9
$STEPSIZE
 40
6.0
  9
$3DDWFPREC
 40
2.0
  9
$PSOLWIDTH
 40
0.25
  9
$PSOLHEIGHT
 40
4.0
  9
$LOFTANG1
 40
1.570796326794897
  9
$LOFTANG2
 40
1.570796326794897
  9
$LOFTMAG1
 40
0.0
  9
$LOFTMAG2
 40
0.0
  9
$LOFTPARAM
 70
     7
  9
$LOFTNORMALS
280
     1
  9
$LATITUDE
 40
37.795
  9
$LONGITUDE
 40
-122.394
  9
$NORTHDIRECTION
 40
0.0
  9
$TIMEZONE
 70
 -8000
  9
$LIGHTGLYPHDISPLAY
280
     1
  9
$TILEMODELIGHTSYNCH
280
     1
  9
$CMATERIAL
347
3C
  9
$SOLIDHIST
280
     1
  9
$SHOWHIST
280
     1
  9
$DWFFRAME
280
     2
  9
$DGNFRAME
280
     2
  9
$REALWORLDSCALE
290
     1
  9
$INTERFERECOLOR
 62
   256
  9
$CSHADOW
280
     0
  9
$SHADOWPLANELOCATION
 40
0.0
  0
ENDSEC
  0
SECTION
  2
CLASSES
  0
CLASS
  1
ACDBDICTIONARYWDFLT
  2
AcDbDictionaryWithDefault
  3
ObjectDBX Classes
 90
        0
 91
        4
280
     0
281
     0
  0
CLASS
  1
VISUALSTYLE
  2
AcDbVisualStyle
  3
ObjectDBX Classes
 90
     4095
 91
        4
280
     0
281
     0
  0
CLASS
  1
MATERIAL
  2
AcDbMaterial
  3
ObjectDBX Classes
 90
     1153
 91
        4
280
     0
281
     0
  0
CLASS
  1
SUN
  2
AcDbSun
  3
SCENEOE
 90
     1024
 91
        4
280
     0
281
     0
  0
ENDSEC
  0
SECTION
  2
TABLES
  0
TABLE
  2
VPORT
  5
8
330
0
100
AcDbSymbolTable
 70
     1
  0
VPORT
  5
29
330
8
100
AcDbSymbolTableRecord
100
AcDbViewportTableRecord
  2
*Active
 70
     0
 10
0.0
 20
0.0
 11
1.0
 21
1.0
 12
0.0
 22
0.0
 13
0.0
 23
0.0
 14
0.5
 24
0.5
 15
0.5
 25
0.5
 16
0.0
 26
0.0
 36
1.0
 17
12.50068055243053
 27
-12.50068055243053
 37
0.0
 40
25.00136110486105
 41
1.0
 42
50.0
 43
0.0
 44
0.0
 50
0.0
 51
0.0
 71
     0
 72
   100
 73
     1
 74
     3
 75
     0
 76
     0
 77
     0
 78
     0
281
     0
 65
     1
110
0.0
120
0.0
130
0.0
111
1.0
121
0.0
131
0.0
112
0.0
122
1.0
132
0.0
 79
     0
146
0.0
 60
     3
 61
     5
292
     1
282
     1
141
0.0
142
0.0
 63
   250
361
3F
  0
ENDTAB
  0
TABLE
  2
LTYPE
  5
5
330
0
100
AcDbSymbolTable
 70
     1
  0
LTYPE
  5
14
330
5
100
AcDbSymbolTableRecord
100
AcDbLinetypeTableRecord
  2
ByBlock
 70
     0
  3

 72
    65
 73
     0
 40
0.0
  0
LTYPE
  5
15
330
5
100
AcDbSymbolTableRecord
100
AcDbLinetypeTableRecord
  2
ByLayer
 70
     0
  3

 72
    65
 73
     0
 40
0.0
  0
LTYPE
  5
16
330
5
100
AcDbSymbolTableRecord
100
AcDbLinetypeTableRecord
  2
Continuous
 70
     0
  3
Solid line
 72
    65
 73
     0
 40
0.0
  0
ENDTAB
  0
TABLE
  2
LAYER
  5
2
330
0
100
AcDbSymbolTable
 70
     3
  0
LAYER
  5
10
330
2
100
AcDbSymbolTableRecord
100
AcDbLayerTableRecord
  2
0
 70
     0
 62
     7
  6
Continuous
370
    -3
390
F
347
3E
  0
LAYER
  5
40
330
2
100
AcDbSymbolTableRecord
100
AcDbLayerTableRecord
  2
Dial
 70
     1
 62
     7
  6
Continuous
370
    -3
390
F
347
3E
  0
LAYER
  5
41
330
2
100
AcDbSymbolTableRecord
100
AcDbLayerTableRecord
  2
Icons
 70
     0
 62
     7
  6
Continuous
370
    -3
390
F
347
3E
  0
ENDTAB
  0
TABLE
  2
STYLE
  5
3
330
0
100
AcDbSymbolTable
 70
     1
  0
STYLE
  5
11
330
3
100
AcDbSymbolTableRecord
100
AcDbTextStyleTableRecord
  2
Standard
 70
     0
 40
0.0
 41
1.0
 50
0.0
 71
     0
 42
0.2
  3
txt
  4

  0
ENDTAB
  0
TABLE
  2
VIEW
  5
6
330
0
100
AcDbSymbolTable
 70
     0
  0
ENDTAB
  0
TABLE
  2
UCS
  5
7
330
0
100
AcDbSymbolTable
 70
     0
  0
ENDTAB
  0
TABLE
  2
APPID
  5
9
330
0
100
AcDbSymbolTable
 70
     1
  0
APPID
  5
12
330
9
100
AcDbSymbolTableRecord
100
AcDbRegAppTableRecord
  2
ACAD
 70
     0
  0
ENDTAB
  0
TABLE
  2
DIMSTYLE
  5
A
330
0
100
AcDbSymbolTable
 70
     1
100
AcDbDimStyleTable
  0
DIMSTYLE
105
27
330
A
100
AcDbSymbolTableRecord
100
AcDbDimStyleTableRecord
  2
Standard
 70
     0
178
     0
340
11
  0
ENDTAB
  0
TABLE
  2
BLOCK_RECORD
  5
1
330
0
100
AcDbSymbolTable
 70
     1
  0
BLOCK_RECORD
  5
1F
330
1
100
AcDbSymbolTableRecord
100
AcDbBlockTableRecord
  2
*Model_Space
340
22
 70
     0
280
     1
281
     0
  0
BLOCK_RECORD
  5
1B
330
1
100
AcDbSymbolTableRecord
100
AcDbBlockTableRecord
  2
*Paper_Space
340
1E
 70
     0
280
     1
281
     0
  0
BLOCK_RECORD
  5
23
330
1
100
AcDbSymbolTableRecord
100
AcDbBlockTableRecord
  2
*Paper_Space0
340
26
 70
     0
280
     1
281
     0
  0
ENDTAB
  0
ENDSEC
  0
SECTION
  2
BLOCKS
  0
BLOCK
  5
20
330
1F
100
AcDbEntity
  8
0
100
AcDbBlockBegin
  2
*Model_Space
 70
     0
 10
0.0
 20
0.0
 30
0.0
  3
*Model_Space
  1

  0
ENDBLK
  5
21
330
1F
100
AcDbEntity
  8
0
100
AcDbBlockEnd
  0
BLOCK
  5
1C
330
1B
100
AcDbEntity
 67
     1
  8
0
100
AcDbBlockBegin
  2
*Paper_Space
 70
     0
 10
0.0
 20
0.0
 30
0.0
  3
*Paper_Space
  1

  0
ENDBLK
  5
1D
330
1B
100
AcDbEntity
 67
     1
  8
0
100
AcDbBlockEnd
  0
BLOCK
  5
24
330
23
100
AcDbEntity
  8
0
100
AcDbBlockBegin
  2
*Paper_Space0
 70
     0
 10
0.0
 20
0.0
 30
0.0
  3
*Paper_Space0
  1

  0
ENDBLK
  5
25
330
23
100
AcDbEntity
  8
0
100
AcDbBlockEnd
  0
ENDSEC
  0
SECTION
  2
ENTITIES
  0
SPLINE
  5
42
330
1F
100
AcDbEntity
  8
Icons
370
     0
100
AcDbSpline
210
0.0
220
0.0
230
1.0
 70
    11
 71
     3
 72
   254
 73
   250
 74
     0
 42
0.0000000001
 43
0.0000000001
 12
1.0
 22
0.0
 32
0.0
 13
1.0
 23
0.0
 33
0.0
 40
0.0
 40
0.0
 40
0.0
 40
0.0
 40
1.0
 40
1.0
 40
1.0
 40
2.0
 40
2.0
 40
2.0
 40
3.0
 40
3.0
 40
3.0
 40
4.0
 40
4.0
 40
4.0
 40
5.0
 40
5.0
 40
5.0
 40
6.0
 40
6.0
 40
6.0
 40
7.0
 40
7.0
 40
7.0
 40
8.0
 40
8.0
 40
8.0
 40
9.0
 40
9.0
 40
9.0
 40
10.0
 40
10.0
 40
10.0
 40
11.0
 40
11.0
 40
11.0
 40
12.0
 40
12.0
 40
12.0
 40
13.0
 40
13.0
 40
13.0
 40
14.0
 40
14.0
 40
14.0
 40
15.0
 40
15.0
 40
15.0
 40
16.0
 40
16.0
 40
16.0
 40
17.0
 40
17.0
 40
17.0
 40
18.0
 40
18.0
 40
18.0
 40
19.0
 40
19.0
 40
19.0
 40
20.0
 40
20.0
 40
20.0
 40
21.0
 40
21.0
 40
21.0
 40
22.0
 40
22.0
 40
22.0
 40
23.0
 40
23.0
 40
23.0
 40
24.0
 40
24.0
 40
24.0
 40
25.0
 40
25.0
 40
25.0
 40
26.0
 40
26.0
 40
26.0
 40
27.0
 40
27.0
 40
27.0
 40
28.0
 40
28.0
 40
28.0
 40
29.0
 40
29.0
 40
29.0
 40
30.0
 40
30.0
 40
30.0
 40
31.0
 40
31.0
 40
31.0
 40
32.0
 40
32.0
 40
32.0
 40
33.0
 40
33.0
 40
33.0
 40
34.0
 40
34.0
 40
34.0
 40
35.0
 40
35.0
 40
35.0
 40
36.0
 40
36.0
 40
36.0
 40
37.0
 40
37.0
 40
37.0
 40
38.0
 40
38.0
 40
38.0
 40
39.0
 40
39.0
 40
39.0
 40
40.0
 40
40.0
 40
40.0
 40
41.0
 40
41.0
 40
41.0
 40
42.0
 40
42.0
 40
42.0
 40
43.0
 40
43.0
 40
43.0
 40
44.0
 40
44.0
 40
44.0
 40
45.0
 40
45.0
 40
45.0
 40
46.0
 40
46.0
 40
46.0
 40
47.0
 40
47.0
 40
47.0
 40
48.0
 40
48.0
 40
48.0
 40
49.0
 40
49.0
 40
49.0
 40
50.0
 40
50.0
 40
50.0
 40
51.0
 40
51.0
 40
51.0
 40
52.0
 40
52.0
 40
52.0
 40
53.0
 40
53.0
 40
53.0
 40
54.0
 40
54.0
 40
54.0
 40
55.0
 40
55.0
 40
55.0
 40
56.0
 40
56.0
 40
56.0
 40
57.0
 40
57.0
 40
57.0
 40
58.0
 40
58.0
 40
58.0
 40
59.0
 40
59.0
 40
59.0
 40
60.0
 40
60.0
 40
60.0
 40
61.0
 40
61.0
 40
61.0
 40
62.0
 40
62.0
 40
62.0
 40
63.0
 40
63.0
 40
63.0
 40
64.0
 40
64.0
 40
64.0
 40
65.0
 40
65.0
 40
65.0
 40
66.0
 40
66.0
 40
66.0
 40
67.0
 40
67.0
 40
67.0
 40
68.0
 40
68.0
 40
68.0
 40
69.0
 40
69.0
 40
69.0
 40
70.0
 40
70.0
 40
70.0
 40
71.0
 40
71.0
 40
71.0
 40
72.0
 40
72.0
 40
72.0
 40
73.0
 40
73.0
 40
73.0
 40
74.0
 40
74.0
 40
74.0
 40
75.0
 40
75.0
 40
75.0
 40
76.0
 40
76.0
 40
76.0
 40
77.0
 40
77.0
 40
77.0
 40
78.0
 40
78.0
 40
78.0
 40
79.0
 40
79.0
 40
79.0
 40
80.0
 40
80.0
 40
80.0
 40
81.0
 40
81.0
 40
81.0
 40
82.0
 40
82.0
 40
82.0
 40
83.0
 40
83.0
 40
83.0
 40
83.0
 10
13.52586584933265
 20
-14.93261139705765
 30
0.0
 10
13.59995739773088
 20
-15.07952814602419
 30
0.0
 10
13.67192539566561
 20
-15.22223481735889
 30
0.0
 10
13.74675400988107
 20
-15.37061285314145
 30
0.0
 10
12.91388361507453
 20
-15.37061285314145
 30
0.0
 10
12.08962075874419
 20
-15.37061285314145
 30
0.0
 10
11.25482968602195
 20
-15.37061285314145
 30
0.0
 10
11.32939347033605
 20
-15.22245469040051
 30
0.0
 10
11.40175550191806
 20
-15.07867056560314
 30
0.0
 10
11.47195544858509
 20
-14.93918340984572
 30
0.0
 10
11.30611337307184
 20
-14.88881434931658
 30
0.0
 10
11.1405519945859
 20
-14.84662139253406
 30
0.0
 10
10.98088770931778
 20
-14.78828778994918
 30
0.0
 10
10.68405211322309
 20
-14.67983900086445
 30
0.0
 10
10.41847494573645
 20
-14.52205629237933
 30
0.0
 10
10.22818880587374
 20
-14.26013687539916
 30
0.0
 10
10.05482684564218
 20
-14.02151266723194
 30
0.0
 10
9.990481302066419
 20
-13.75100120111308
 30
0.0
 10
10.00780291544496
 20
-13.46068038281173
 30
0.0
 10
10.03578138227913
 20
-12.99174029628181
 30
0.0
 10
10.21159802479856
 20
-12.57320478242051
 30
0.0
 10
10.46225121509675
 20
-12.18362073027449
 30
0.0
 10
10.69559790356611
 20
-11.82093599144798
 30
0.0
 10
10.91562527248807
 20
-11.45179370981997
 30
0.0
 10
11.05629301803356
 20
-11.04161563829605
 30
0.0
 10
11.09279232083146
 20
-10.93518612998571
 30
0.0
 10
11.11632251423704
 20
-10.82430891492961
 30
0.0
 10
11.14843455648611
 20
-10.70578676708596
 30
0.0
 10
11.01868830540483
 20
-10.70578676708596
 30
0.0
 10
10.90178554896252
 20
-10.70578884492413
 30
0.0
 10
10.78488279251957
 20
-10.70578487814248
 30
0.0
 10
10.7663178764238
 20
-10.70578431145934
 30
0.0
 10
10.74774521565815
 20
-10.7054099228256
 30
0.0
 10
10.72918955538569
 20
-10.70581585681846
 30
0.0
 10
10.69326449146086
 20
-10.70660127959266
 30
0.0
 10
10.66758619132373
 20
-10.69360988066486
 30
0.0
 10
10.66700288552109
 20
-10.65410186840238
 30
0.0
 10
10.66639559013387
 20
-10.61295066404866
 30
0.0
 10
10.6956388936442
 20
-10.60253993995147
 30
0.0
 10
10.72948630843493
 20
-10.60232195585268
 30
0.0
 10
10.84293475360364
 20
-10.60159112355029
 30
0.0
 10
10.95638962118061
 20
-10.60188787659953
 30
0.0
 10
11.06984203313064
 20
-10.60179852956447
 30
0.0
 10
11.09197516380344
 20
-10.60178115128285
 30
0.0
 10
11.11410829447687
 20
-10.60179588504284
 30
0.0
 10
11.14023880772661
 20
-10.60179588504284
 30
0.0
 10
11.14307713447313
 20
-10.4515931296826
 30
0.0
 10
11.1012449659287
 20
-10.33301204679673
 30
0.0
 10
10.98001180614224
 20
-10.24644289214587
 30
0.0
 10
10.899884516061
 20
-10.18922584415989
 30
0.0
 10
10.81885525538115
 20
-10.13042397244272
 30
0.0
 10
10.75030700105178
 20
-10.06049338914184
 30
0.0
 10
10.64242489506623
 20
-9.950435408951929
 30
0.0
 10
10.63694148051051
 20
-9.825042039644355
 30
0.0
 10
10.72236083515426
 20
-9.735383328740292
 30
0.0
 10
10.83431361473116
 20
-9.617874410276718
 30
0.0
 10
10.99765491773116
 20
-9.59578699204022
 30
0.0
 10
11.11135874808291
 20
-9.687237932689985
 30
0.0
 10
11.24866795179716
 20
-9.7976742682956
 30
0.0
 10
11.32153093123878
 20
-9.951387247662865
 30
0.0
 10
11.37066008914727
 20
-10.11410501036029
 30
0.0
 10
11.41331810386053
 20
-10.25539157384887
 30
0.0
 10
11.44120571250492
 20
-10.4013906739849
 30
0.0
 10
11.47015301854321
 20
-10.5463988342757
 30
0.0
 10
11.47812284964095
 20
-10.58632316972127
 30
0.0
 10
11.48753545590712
 20
-10.60340262052173
 30
0.0
 10
11.53058599311327
 20
-10.60261020865581
 30
0.0
 10
11.65803377754692
 20
-10.60026489620561
 30
0.0
 10
11.78555183068523
 20
-10.60177132877544
 30
0.0
 10
11.92982859199081
 20
-10.60177132877544
 30
0.0
 10
11.91737403085151
 20
-10.54455654752265
 30
0.0
 10
11.90347518338841
 20
-10.49717844038804
 30
0.0
 10
11.8980913161636
 20
-10.44885151685193
 30
0.0
 10
11.89549590757268
 20
-10.42555347462263
 30
0.0
 10
11.90160890705014
 20
-10.39104738517636
 30
0.0
 10
11.91722442651326
 20
-10.3788993995934
 30
0.0
 10
11.93220337196196
 20
-10.36724631724991
 30
0.0
 10
11.97259087639318
 20
-10.36875784996766
 30
0.0
 10
11.98705111791283
 20
-10.38138657171293
 30
0.0
 10
12.00168023099519
 20
-10.39416263106357
 30
0.0
 10
12.00434024145939
 20
-10.4284411027977
 30
0.0
 10
12.00137006644596
 20
-10.45192520597823
 30
0.0
 10
11.99544747248885
 20
-10.49875136377494
 30
0.0
 10
11.98207866261692
 20
-10.54463569426186
 30
0.0
 10
11.97030752129527
 20
-10.59755142863555
 30
0.0
 10
12.02264637227426
 20
-10.59755142863555
 30
0.0
 10
12.06058996139564
 20
-10.59755142863555
 30
0.0
 10
12.11443278931881
 20
-10.59755142863555
 30
0.0
 10
12.10189927033404
 20
-10.54314531771301
 30
0.0
 10
12.0873502484628
 20
-10.49588035830334
 30
0.0
 10
12.08148394502723
 20
-10.44756117943646
 30
0.0
 10
12.07871022015398
 20
-10.42471365027036
 30
0.0
 10
12.08569553381538
 20
-10.39244671464075
 30
0.0
 10
12.10103337855998
 20
-10.37821900208647
 30
0.0
 10
12.11348680633236
 20
-10.36666754491174
 30
0.0
 10
12.15339300791878
 20
-10.36645768327094
 30
0.0
 10
12.16594541633989
 20
-10.37788711468489
 30
0.0
 10
12.18163989364784
 20
-10.39217716238022
 30
0.0
 10
12.18956098999921
 20
-10.42438384070696
 30
0.0
 10
12.18704907271693
 20
-10.44734735101402
 30
0.0
 10
12.18173736314122
 20
-10.49589943663438
 30
0.0
 10
12.16747054945264
 20
-10.54347172717758
 30
0.0
 10
12.15543571159462
 20
-10.59797341864906
 30
0.0
 10
12.20678475609529
 20
-10.59797341864906
 30
0.0
 10
12.24272115368193
 20
-10.59797341864906
 30
0.0
 10
12.29618505950657
 20
-10.59797341864906
 30
0.0
 10
12.28420122312779
 20
-10.54339616943125
 30
0.0
 10
12.27036093291815
 20
-10.49610514259947
 30
0.0
 10
12.26473868100349
 20
-10.44785661022505
 30
0.0
 10
12.26208471515846
 20
-10.4250818053899
 30
0.0
 10
12.26825853862226
 20
-10.39307648845784
 30
0.0
 10
12.28329830805728
 20
-10.37898100195954
 30
0.0
 10
12.29580802635184
 20
-10.367256139757
 30
0.0
 10
12.33506858699395
 20
-10.36629976758064
 30
0.0
 10
12.34808907565426
 20
-10.37742149007262
 30
0.0
 10
12.3641296074416
 20
-10.39112275402863
 30
0.0
 10
12.37345494451025
 20
-10.42313090437638
 30
0.0
 10
12.37113683284845
 20
-10.44573532649314
 30
0.0
 10
12.3661141316521
 20
-10.49470165745842
 30
0.0
 10
12.35183220641445
 20
-10.54271841644531
 30
0.0
 10
12.33991599421901
 20
-10.59767798786079
 30
0.0
 10
12.38887401383223
 20
-10.59767798786079
 30
0.0
 10
12.42299022530661
 20
-10.59767798786079
 30
0.0
 10
12.47296411882123
 20
-10.59767798786079
 30
0.0
 10
12.4651389808082
 20
-10.54840508133887
 30
0.0
 10
12.45511813468258
 20
-10.50241742563345
 30
0.0
 10
12.45153443076773
 20
-10.45593354442822
 30
0.0
 10
12.44957521840151
 20
-10.43052460765692
 30
0.0
 10
12.45033117365509
 20
-10.3966054130065
 30
0.0
 10
12.46512198031534
 20
-10.38084142257205
 30
0.0
 10
12.47688858817349
 20
-10.36830053670745
 30
0.0
 10
12.52160819599796
 20
-10.367466756975
 30
0.0
 10
12.53395508734868
 20
-10.37955637419856
 30
0.0
 10
12.54930766585327
 20
-10.39458953233063
 30
0.0
 10
12.5522003941769
 20
-10.42874975619253
 30
0.0
 10
12.55011915605087
 20
-10.45378846000611
 30
0.0
 10
12.54634655776941
 20
-10.49916844253522
 30
0.0
 10
12.53491202620754
 20
-10.54391147326211
 30
0.0
 10
12.52533168174397
 20
-10.59626770252273
 30
0.0
 10
12.57322244818844
 20
-10.59626770252273
 30
0.0
 10
12.60860160739519
 20
-10.59626770252273
 30
0.0
 10
12.65996576344494
 20
-10.59626770252273
 30
0.0
 10
12.64899402307933
 20
-10.54424109393081
 30
0.0
 10
12.63534300502537
 20
-10.49668467051484
 30
0.0
 10
12.63032710402571
 20
-10.4482343989573
 30
0.0
 10
12.62793985702649
 20
-10.42517134131966
 30
0.0
 10
12.63487945825095
 20
-10.39096956069749
 30
0.0
 10
12.65062455924906
 20
-10.37910340550875
 30
0.0
 10
12.66594615907799
 20
-10.36755610401038
 30
0.0
 10
12.7056619551431
 20
-10.36898924556675
 30
0.0
 10
12.72037682626826
 20
-10.38151294204347
 30
0.0
 10
12.73490204744931
 20
-10.39387475604888
 30
0.0
 10
12.73757263599844
 20
-10.4279987121925
 30
0.0
 10
12.73473884271702
 20
-10.45127182036595
 30
0.0
 10
12.72906030028146
 20
-10.49790568369723
 30
0.0
 10
12.71607834607135
 20
-10.54365004345925
 30
0.0
 10
12.70451801086079
 20
-10.59713340540305
 30
0.0
 10
12.75584854371453
 20
-10.59713340540305
 30
0.0
 10
12.79175169589262
 20
-10.59713340540305
 30
0.0
 10
12.84423108427997
 20
-10.59713340540305
 30
0.0
 10
12.83341461508559
 20
-10.54546947399431
 30
0.0
 10
12.82015196384688
 20
-10.49820810357753
 30
0.0
 10
12.81488558891646
 20
-10.45007177445744
 30
0.0
 10
12.81231549217205
 20
-10.42657614872105
 30
0.0
 10
12.81709754194568
 20
-10.39217187333823
 30
0.0
 10
12.83239836339351
 20
-10.37971920114241
 30
0.0
 10
12.84716574715359
 20
-10.36770060820006
 30
0.0
 10
12.88758574141584
 20
-10.3681643438695
 30
0.0
 10
12.90230476821607
 20
-10.38044398882563
 30
0.0
 10
12.91722024515808
 20
-10.3928872163028
 30
0.0
 10
12.92101022172148
 20
-10.42733607075595
 30
0.0
 10
12.91806989201648
 20
-10.4506856811473
 30
0.0
 10
12.91217638779252
 20
-10.49748482704968
 30
0.0
 10
12.89837236530212
 20
-10.54328793295954
 30
0.0
 10
12.88612558796417
 20
-10.59699381246659
 30
0.0
 10
12.93828310035205
 20
-10.59699381246659
 30
0.0
 10
12.97607519619235
 20
-10.59699381246659
 30
0.0
 10
13.03012240781996
 20
-10.59699381246659
 30
0.0
 10
13.01812610441117
 20
-10.54404691052254
 30
0.0
 10
13.0039261593297
 20
-10.49694194464167
 30
0.0
 10
12.99808101206303
 20
-10.44882186043628
 30
0.0
 10
12.99527857524603
 20
-10.42575105812941
 30
0.0
 10
13.0012793714711
 20
-10.39355873577454
 30
0.0
 10
13.01633916370873
 20
-10.37890903320579
 30
0.0
 10
13.02846618201654
 20
-10.36711201335544
 30
0.0
 10
13.06839996218076
 20
-10.36609897286941
 30
0.0
 10
13.08115902103726
 20
-10.37726149654447
 30
0.0
 10
13.09709754986772
 20
-10.39120435639445
 30
0.0
 10
13.10595027323206
 20
-10.42341783491885
 30
0.0
 10
13.10345611202178
 20
-10.44616336112679
 30
0.0
 10
13.09810171231695
 20
-10.49499009915593
 30
0.0
 10
13.0835088669532
 20
-10.54280360780402
 30
0.0
 10
13.07037504167357
 20
-10.60139580677606
 30
0.0
 10
13.22143839976622
 20
-10.60139580677606
 30
0.0
 10
13.35701090867815
 20
-10.6027858804165
 30
0.0
 10
13.49244590249083
 20
-10.59911188499437
 30
0.0
 10
13.50512184782807
 20
-10.59876809724786
 30
0.0
 10
13.5248658425572
 20
-10.56771707465334
 30
0.0
 10
13.52792139782468
 20
-10.54876228058568
 30
0.0
 10
13.56076559463776
 20
-10.34500230558345
 30
0.0
 10
13.59902879302701
 20
-10.14173496708878
 30
0.0
 10
13.6940071470704
 20
-9.957076179288974
 30
0.0
 10
13.74126700633214
 20
-9.865193237223268
 30
0.0
 10
13.80222435166326
 20
-9.775276685509882
 30
0.0
 10
13.87521200138505
 20
-9.702834940505207
 30
0.0
 10
14.00073797453801
 20
-9.578248527929805
 30
0.0
 10
14.23715022967664
 20
-9.629121180838906
 30
0.0
 10
14.31625163445469
 20
-9.788328341740554
 30
0.0
 10
14.35376907788654
 20
-9.863840564667399
 30
0.0
 10
14.3385268136912
 20
-9.937126667488808
 30
0.0
 10
14.29454313831672
 20
-10.00522856443036
 30
0.0
 10
14.22913506393041
 20
-10.10650408995962
 30
0.0
 10
14.13444496268951
 20
-10.17599511607035
 30
0.0
 10
14.03436986085815
 20
-10.23881401537897
 30
0.0
 10
13.90361075818427
 20
-10.32089409541785
 30
0.0
 10
13.85878612509157
 20
-10.44386168327472
 30
0.0
 10
13.86015825376756
 20
-10.60179834067041
 30
0.0
 10
13.92239630290015
 20
-10.60179834067041
 30
0.0
 10
13.98112620586421
 20
-10.6017947516772
 30
0.0
 10
14.03985648661704
 20
-10.60179928514199
 30
0.0
 10
14.11824235953712
 20
-10.60180532976149
 30
0.0
 10
14.19663163255474
 20
-10.60136709483199
 30
0.0
 10
14.2750122164322
 20
-10.60202331385996
 30
0.0
 10
14.31237249975061
 20
-10.60233593403612
 30
0.0
 10
14.35587789458972
 20
-10.59989315209254
 30
0.0
 10
14.35639395399842
 20
-10.65356748624048
 30
0.0
 10
14.35690699109704
 20
-10.70692598900814
 30
0.0
 10
14.3153751645957
 20
-10.70597471698034
 30
0.0
 10
14.27671226572651
 20
-10.70589368129702
 30
0.0
 10
14.14079974695725
 20
-10.70560826190958
 30
0.0
 10
14.00488609481916
 20
-10.70578280030431
 30
0.0
 10
13.86412125756969
 20
-10.70578280030431
 30
0.0
 10
13.88444478021515
 20
-10.88557226913296
 30
0.0
 10
13.94135525264352
 20
-11.04960246988633
 30
0.0
 10
14.00758426194512
 20
-11.21093790361192
 30
0.0
 10
14.14740311620909
 20
-11.55154126882143
 30
0.0
 10
14.33276024647996
 20
-11.86725855686504
 30
0.0
 10
14.53354211290515
 20
-12.1747060495569
 30
0.0
 10
14.74860741572238
 20
-12.50402637648562
 30
0.0
 10
14.90578641781509
 20
-12.85859583555314
 30
0.0
 10
14.97064972084832
 20
-13.247927902614
 30
0.0
 10
15.05455130926043
 20
-13.75153388322524
 30
0.0
 10
14.93945041617718
 20
-14.19010693366143
 30
0.0
 10
14.5217702160063
 20
-14.51787568226684
 30
0.0
 10
14.3062100099483
 20
-14.68703360948415
 30
0.0
 10
14.05741535131883
 20
-14.78934484282272
 30
0.0
 10
13.79623413352216
 20
-14.8637503336584
 30
0.0
 10
13.70930985746331
 20
-14.88851438506385
 30
0.0
 10
13.62103234216513
 20
-14.90852660979318
 30
0.0
 10
13.52586584933265
 20
-14.93261139705765
 30
0.0
  0
SPLINE
  5
43
330
1F
100
AcDbEntity
  8
Icons
370
     0
100
AcDbSpline
210
0.0
220
0.0
230
1.0
 70
    11
 71
     3
 72
    26
 73
    22
 74
     0
 42
0.0000000001
 43
0.0000000001
 12
1.0
 22
0.0
 32
0.0
 13
1.0
 23
0.0
 33
0.0
 40
0.0
 40
0.0
 40
0.0
 40
0.0
 40
1.0
 40
1.0
 40
1.0
 40
2.0
 40
2.0
 40
2.0
 40
3.0
 40
3.0
 40
3.0
 40
4.0
 40
4.0
 40
4.0
 40
5.0
 40
5.0
 40
5.0
 40
6.0
 40
6.0
 40
6.0
 40
7.0
 40
7.0
 40
7.0
 40
7.0
 10
11.49745089897607
 20
-10.70918932130408
 30
0.0
 10
11.49642746930046
 20
-10.72044005864759
 30
0.0
 10
11.49464279532865
 20
-10.72838155559033
 30
0.0
 10
11.49514978780745
 20
-10.73617420377234
 30
0.0
 10
11.51483144739618
 20
-11.03871610977508
 30
0.0
 10
11.45910118696681
 20
-11.33057868389201
 30
0.0
 10
11.37162798388013
 20
-11.61817677879839
 30
0.0
 10
11.26637415410464
 20
-11.96423239099294
 30
0.0
 10
11.15163669378144
 20
-12.30785655490604
 30
0.0
 10
11.06051896279326
 20
-12.65761714119869
 30
0.0
 10
10.98568562621928
 20
-12.94486918162536
 30
0.0
 10
10.94722578879419
 20
-13.23937136561608
 30
0.0
 10
11.00152649666039
 20
-13.5386691997751
 30
0.0
 10
11.08109371494574
 20
-13.97723016097101
 30
0.0
 10
11.47411677792287
 20
-14.31815842448973
 30
0.0
 10
11.91519003418948
 20
-14.32506138020619
 30
0.0
 10
11.91519003418948
 20
-13.11986394475857
 30
0.0
 10
11.91519003418948
 20
-11.91468879884452
 30
0.0
 10
11.91519003418948
 20
-10.70918932130408
 30
0.0
 10
11.77362617377146
 20
-10.70918932130408
 30
0.0
 10
11.63636910490176
 20
-10.70918932130408
 30
0.0
 10
11.49745089897607
 20
-10.70918932130408
 30
0.0
  0
SPLINE
  5
44
330
1F
100
AcDbEntity
  8
Icons
370
     0
100
AcDbSpline
210
0.0
220
0.0
230
1.0
 70
    11
 71
     3
 72
    29
 73
    25
 74
     0
 42
0.0000000001
 43
0.0000000001
 12
1.0
 22
0.0
 32
0.0
 13
1.0
 23
0.0
 33
0.0
 40
0.0
 40
0.0
 40
0.0
 40
0.0
 40
1.0
 40
1.0
 40
1.0
 40
2.0
 40
2.0
 40
2.0
 40
3.0
 40
3.0
 40
3.0
 40
4.0
 40
4.0
 40
4.0
 40
5.0
 40
5.0
 40
5.0
 40
6.0
 40
6.0
 40
6.0
 40
7.0
 40
7.0
 40
7.0
 40
8.0
 40
8.0
 40
8.0
 40
8.0
 10
13.08651190958705
 20
-10.70946491818411
 30
0.0
 10
13.08651190958705
 20
-11.9182906366182
 30
0.0
 10
13.08651190958705
 20
-13.12299316882762
 30
0.0
 10
13.08651190958705
 20
-14.32921705626251
 30
0.0
 10
13.10983054130114
 20
-14.326580090911
 30
0.0
 10
13.12819258484911
 20
-14.32432620333467
 30
0.0
 10
13.14659240726913
 20
-14.32245010448899
 30
0.0
 10
13.54150214717527
 20
-14.28218235908502
 30
0.0
 10
13.86630978769586
 20
-14.01010760319165
 30
0.0
 10
13.97657951847197
 20
-13.62865960918412
 30
0.0
 10
14.05205490699642
 20
-13.36757246078328
 30
0.0
 10
14.02388055670458
 20
-13.10625788356243
 30
0.0
 10
13.98061808001946
 20
-12.84485377041343
 30
0.0
 10
13.92464527922389
 20
-12.50665351933069
 30
0.0
 10
13.8166728817301
 20
-12.18285419693599
 30
0.0
 10
13.70759998565999
 20
-11.85924868016144
 30
0.0
 10
13.61818797079846
 20
-11.59397336587229
 30
0.0
 10
13.53177219837441
 20
-11.32724469832945
 30
0.0
 10
13.51181210848932
 20
-11.04567157812646
 30
0.0
 10
13.5039903705748
 20
-10.93533327869703
 30
0.0
 10
13.51053140468528
 20
-10.82397683863398
 30
0.0
 10
13.51053140468528
 20
-10.70946491818411
 30
0.0
 10
13.36521270205843
 20
-10.70946491818411
 30
0.0
 10
13.22792616566682
 20
-10.70946491818411
 30
0.0
 10
13.08651190958705
 20
-10.70946491818411
 30
0.0
  0
SPLINE
  5
45
330
1F
100
AcDbEntity
  8
Icons
370
     0
100
AcDbSpline
210
0.0
220
0.0
230
1.0
 70
    11
 71
     3
 72
    17
 73
    13
 74
     0
 42
0.0000000001
 43
0.0000000001
 12
1.0
 22
0.0
 32
0.0
 13
1.0
 23
0.0
 33
0.0
 40
0.0
 40
0.0
 40
0.0
 40
0.0
 40
1.0
 40
1.0
 40
1.0
 40
2.0
 40
2.0
 40
2.0
 40
3.0
 40
3.0
 40
3.0
 40
4.0
 40
4.0
 40
4.0
 40
4.0
 10
12.09977269755983
 20
-14.32416148744607
 30
0.0
 10
12.09977269755983
 20
-13.11239997277433
 30
0.0
 10
12.09977269755983
 20
-11.91065288181674
 30
0.0
 10
12.09977269755983
 20
-10.70933080318401
 30
0.0
 10
12.05895035829762
 20
-10.70933080318401
 30
0.0
 10
12.02269888490758
 20
-10.70933080318401
 30
0.0
 10
11.98512099527912
 20
-10.70933080318401
 30
0.0
 10
11.98512099527912
 20
-11.91857171143523
 30
0.0
 10
11.98512099527912
 20
-13.124267072434
 30
0.0
 10
11.98512099527912
 20
-14.33512113857108
 30
0.0
 10
12.0259796022593
 20
-14.33121555865709
 30
0.0
 10
12.06230738897286
 20
-14.32774292462933
 30
0.0
 10
12.09977269755983
 20
-14.32416148744607
 30
0.0
  0
SPLINE
  5
46
330
1F
100
AcDbEntity
  8
Icons
370
     0
100
AcDbSpline
210
0.0
220
0.0
230
1.0
 70
    11
 71
     3
 72
    17
 73
    13
 74
     0
 42
0.0000000001
 43
0.0000000001
 12
1.0
 22
0.0
 32
0.0
 13
1.0
 23
0.0
 33
0.0
 40
0.0
 40
0.0
 40
0.0
 40
0.0
 40
1.0
 40
1.0
 40
1.0
 40
2.0
 40
2.0
 40
2.0
 40
3.0
 40
3.0
 40
3.0
 40
4.0
 40
4.0
 40
4.0
 40
4.0
 10
13.01566103293403
 20
-14.33546794862799
 30
0.0
 10
13.01566103293403
 20
-13.12016239785691
 30
0.0
 10
13.01566103293403
 20
-11.91453541661901
 30
0.0
 10
13.01566103293403
 20
-10.70931229153643
 30
0.0
 10
12.97482207096771
 20
-10.70931229153643
 30
0.0
 10
12.93853961890136
 20
-10.70931229153643
 30
0.0
 10
12.89968895903441
 20
-10.70931229153643
 30
0.0
 10
12.89968895903441
 20
-11.91481913595703
 30
0.0
 10
12.89968895903441
 20
-13.11680310044847
 30
0.0
 10
12.89968895903441
 20
-14.3236635618978
 30
0.0
 10
12.93824909936632
 20
-14.32758803124845
 30
0.0
 10
12.97467019989691
 20
-14.33129564986884
 30
0.0
 10
13.01566103293403
 20
-14.33546794862799
 30
0.0
  0
SPLINE
  5
47
330
1F
100
AcDbEntity
  8
Icons
370
     0
100
AcDbSpline
210
0.0
220
0.0
230
1.0
 70
    11
 71
     3
 72
    17
 73
    13
 74
     0
 42
0.0000000001
 43
0.0000000001
 12
1.0
 22
0.0
 32
0.0
 13
1.0
 23
0.0
 33
0.0
 40
0.0
 40
0.0
 40
0.0
 40
0.0
 40
1.0
 40
1.0
 40
1.0
 40
2.0
 40
2.0
 40
2.0
 40
3.0
 40
3.0
 40
3.0
 40
4.0
 40
4.0
 40
4.0
 40
4.0
 10
12.16853553588884
 20
-10.70786347174752
 30
0.0
 10
12.16853553588884
 20
-11.91144208247853
 30
0.0
 10
12.16853553588884
 20
-13.10935839568836
 30
0.0
 10
12.16853553588884
 20
-14.31401408209617
 30
0.0
 10
12.20957925934836
 20
-14.30592411418146
 30
0.0
 10
12.24654173113255
 20
-14.29863808069046
 30
0.0
 10
12.28261488824027
 20
-14.29152809674697
 30
0.0
 10
12.28261488824027
 20
-13.09287131762107
 30
0.0
 10
12.28261488824027
 20
-11.90140008018402
 30
0.0
 10
12.28261488824027
 20
-10.70786347174752
 30
0.0
 10
12.24369962649876
 20
-10.70786347174752
 30
0.0
 10
12.2090310878974
 20
-10.70786347174752
 30
0.0
 10
12.16853553588884
 20
-10.70786347174752
 30
0.0
  0
SPLINE
  5
48
330
1F
100
AcDbEntity
  8
Icons
370
     0
100
AcDbSpline
210
0.0
220
0.0
230
1.0
 70
    11
 71
     3
 72
    17
 73
    13
 74
     0
 42
0.0000000001
 43
0.0000000001
 12
1.0
 22
0.0
 32
0.0
 13
1.0
 23
0.0
 33
0.0
 40
0.0
 40
0.0
 40
0.0
 40
0.0
 40
1.0
 40
1.0
 40
1.0
 40
2.0
 40
2.0
 40
2.0
 40
3.0
 40
3.0
 40
3.0
 40
4.0
 40
4.0
 40
4.0
 40
4.0
 10
12.83114070470505
 20
-14.31349726710996
 30
0.0
 10
12.83114070470505
 20
-13.10777130522525
 30
0.0
 10
12.83114070470505
 20
-11.90836952671818
 30
0.0
 10
12.83114070470505
 20
-10.71028396415592
 30
0.0
 10
12.79076000046987
 20
-10.71028396415592
 30
0.0
 10
12.75484022558767
 20
-10.71028396415592
 30
0.0
 10
12.71823023069048
 20
-10.71028396415592
 30
0.0
 10
12.71823023069048
 20
-11.90648398315513
 30
0.0
 10
12.71823023069048
 20
-13.09806326817049
 30
0.0
 10
12.71823023069048
 20
-14.29241287795738
 30
0.0
 10
12.7572690293478
 20
-14.29970268933661
 30
0.0
 10
12.79293795251208
 20
-14.30636386026664
 30
0.0
 10
12.83114070470505
 20
-14.31349726710996
 30
0.0
  0
SPLINE
  5
49
330
1F
100
AcDbEntity
  8
Icons
370
     0
100
AcDbSpline
210
0.0
220
0.0
230
1.0
 70
    11
 71
     3
 72
    20
 73
    16
 74
     0
 42
0.0000000001
 43
0.0000000001
 12
1.0
 22
0.0
 32
0.0
 13
1.0
 23
0.0
 33
0.0
 40
0.0
 40
0.0
 40
0.0
 40
0.0
 40
1.0
 40
1.0
 40
1.0
 40
2.0
 40
2.0
 40
2.0
 40
3.0
 40
3.0
 40
3.0
 40
4.0
 40
4.0
 40
4.0
 40
5.0
 40
5.0
 40
5.0
 40
5.0
 10
12.35277932276622
 20
-10.7075729522128
 30
0.0
 10
12.35277932276622
 20
-11.8969512400723
 30
0.0
 10
12.35277932276622
 20
-13.08025392953761
 30
0.0
 10
12.35277932276622
 20
-14.26412632441184
 30
0.0
 10
12.46079969942886
 20
-14.24052586230288
 30
0.0
 10
12.46783714793481
 20
-14.2324147382196
 30
0.0
 10
12.46783752572389
 20
-14.13359276161289
 30
0.0
 10
12.46784168139895
 20
-13.01754893353241
 30
0.0
 10
12.4678397924558
 20
-11.90150510545161
 30
0.0
 10
12.4678397924558
 20
-10.78546127737144
 30
0.0
 10
12.4678397924558
 20
-10.75985759050874
 30
0.0
 10
12.46783941466704
 20
-10.73425390364572
 30
0.0
 10
12.46783941466704
 20
-10.7075729522128
 30
0.0
 10
12.42440995536301
 20
-10.7075729522128
 30
0.0
 10
12.39184532221258
 20
-10.7075729522128
 30
0.0
 10
12.35277932276622
 20
-10.7075729522128
 30
0.0
  0
SPLINE
  5
4A
330
1F
100
AcDbEntity
  8
Icons
370
     0
100
AcDbSpline
210
0.0
220
0.0
230
1.0
 70
    11
 71
     3
 72
    20
 73
    16
 74
     0
 42
0.0000000001
 43
0.0000000001
 12
1.0
 22
0.0
 32
0.0
 13
1.0
 23
0.0
 33
0.0
 40
0.0
 40
0.0
 40
0.0
 40
0.0
 40
1.0
 40
1.0
 40
1.0
 40
2.0
 40
2.0
 40
2.0
 40
3.0
 40
3.0
 40
3.0
 40
4.0
 40
4.0
 40
4.0
 40
5.0
 40
5.0
 40
5.0
 40
5.0
 10
12.64652252919329
 20
-14.26303527055385
 30
0.0
 10
12.64652252919329
 20
-13.07834345191936
 30
0.0
 10
12.64652252919329
 20
-11.89390021826961
 30
0.0
 10
12.64652252919329
 20
-10.70923125585278
 30
0.0
 10
12.60776480535299
 20
-10.70923125585278
 30
0.0
 10
12.57363688242773
 20
-10.70923125585278
 30
0.0
 10
12.53336347019334
 20
-10.70923125585278
 30
0.0
 10
12.53336347019334
 20
-10.73889088254653
 30
0.0
 10
12.53336347019334
 20
-10.76518157821912
 30
0.0
 10
12.53336347019334
 20
-10.79147208499734
 30
0.0
 10
12.53336347019334
 20
-11.90525390304254
 30
0.0
 10
12.53336158125019
 20
-13.0190359099834
 30
0.0
 10
12.53336573692622
 20
-14.13281753913358
 30
0.0
 10
12.5333661147153
 20
-14.23259834354358
 30
0.0
 10
12.5409453122633
 20
-14.24137664252756
 30
0.0
 10
12.64652252919329
 20
-14.26303527055385
 30
0.0
  0
HATCH
  5
4B
330
1F
100
AcDbEntity
  8
Icons
 62
     7
420
 16777215
100
AcDbHatch
 10
0.0
 20
0.0
 30
0.0
210
0.0
220
0.0
230
1.0
  2
SOLID
 70
     1
 71
     0
 91
        9
 92
        1
 93
        1
 72
     4
 94
        3
 73
     0
 74
     1
 95
      254
 96
      250
 40
0.0
 40
0.0
 40
0.0
 40
0.0
 40
1.0
 40
1.0
 40
1.0
 40
2.0
 40
2.0
 40
2.0
 40
3.0
 40
3.0
 40
3.0
 40
4.0
 40
4.0
 40
4.0
 40
5.0
 40
5.0
 40
5.0
 40
6.0
 40
6.0
 40
6.0
 40
7.0
 40
7.0
 40
7.0
 40
8.0
 40
8.0
 40
8.0
 40
9.0
 40
9.0
 40
9.0
 40
10.0
 40
10.0
 40
10.0
 40
11.0
 40
11.0
 40
11.0
 40
12.0
 40
12.0
 40
12.0
 40
13.0
 40
13.0
 40
13.0
 40
14.0
 40
14.0
 40
14.0
 40
15.0
 40
15.0
 40
15.0
 40
16.0
 40
16.0
 40
16.0
 40
17.0
 40
17.0
 40
17.0
 40
18.0
 40
18.0
 40
18.0
 40
19.0
 40
19.0
 40
19.0
 40
20.0
 40
20.0
 40
20.0
 40
21.0
 40
21.0
 40
21.0
 40
22.0
 40
22.0
 40
22.0
 40
23.0
 40
23.0
 40
23.0
 40
24.0
 40
24.0
 40
24.0
 40
25.0
 40
25.0
 40
25.0
 40
26.0
 40
26.0
 40
26.0
 40
27.0
 40
27.0
 40
27.0
 40
28.0
 40
28.0
 40
28.0
 40
29.0
 40
29.0
 40
29.0
 40
30.0
 40
30.0
 40
30.0
 40
31.0
 40
31.0
 40
31.0
 40
32.0
 40
32.0
 40
32.0
 40
33.0
 40
33.0
 40
33.0
 40
34.0
 40
34.0
 40
34.0
 40
35.0
 40
35.0
 40
35.0
 40
36.0
 40
36.0
 40
36.0
 40
37.0
 40
37.0
 40
37.0
 40
38.0
 40
38.0
 40
38.0
 40
39.0
 40
39.0
 40
39.0
 40
40.0
 40
40.0
 40
40.0
 40
41.0
 40
41.0
 40
41.0
 40
42.0
 40
42.0
 40
42.0
 40
43.0
 40
43.0
 40
43.0
 40
44.0
 40
44.0
 40
44.0
 40
45.0
 40
45.0
 40
45.0
 40
46.0
 40
46.0
 40
46.0
 40
47.0
 40
47.0
 40
47.0
 40
48.0
 40
48.0
 40
48.0
 40
49.0
 40
49.0
 40
49.0
 40
50.0
 40
50.0
 40
50.0
 40
51.0
 40
51.0
 40
51.0
 40
52.0
 40
52.0
 40
52.0
 40
53.0
 40
53.0
 40
53.0
 40
54.0
 40
54.0
 40
54.0
 40
55.0
 40
55.0
 40
55.0
 40
56.0
 40
56.0
 40
56.0
 40
57.0
 40
57.0
 40
57.0
 40
58.0
 40
58.0
 40
58.0
 40
59.0
 40
59.0
 40
59.0
 40
60.0
 40
60.0
 40
60.0
 40
61.0
 40
61.0
 40
61.0
 40
62.0
 40
62.0
 40
62.0
 40
63.0
 40
63.0
 40
63.0
 40
64.0
 40
64.0
 40
64.0
 40
65.0
 40
65.0
 40
65.0
 40
66.0
 40
66.0
 40
66.0
 40
67.0
 40
67.0
 40
67.0
 40
68.0
 40
68.0
 40
68.0
 40
69.0
 40
69.0
 40
69.0
 40
70.0
 40
70.0
 40
70.0
 40
71.0
 40
71.0
 40
71.0
 40
72.0
 40
72.0
 40
72.0
 40
73.0
 40
73.0
 40
73.0
 40
74.0
 40
74.0
 40
74.0
 40
75.0
 40
75.0
 40
75.0
 40
76.0
 40
76.0
 40
76.0
 40
77.0
 40
77.0
 40
77.0
 40
78.0
 40
78.0
 40
78.0
 40
79.0
 40
79.0
 40
79.0
 40
80.0
 40
80.0
 40
80.0
 40
81.0
 40
81.0
 40
81.0
 40
82.0
 40
82.0
 40
82.0
 40
83.0
 40
83.0
 40
83.0
 40
83.0
 10
13.52586584933265
 20
-14.93261139705765
 10
13.59995739773088
 20
-15.07952814602419
 10
13.67192539566561
 20
-15.22223481735889
 10
13.74675400988107
 20
-15.37061285314145
 10
12.91388361507453
 20
-15.37061285314145
 10
12.08962075874419
 20
-15.37061285314145
 10
11.25482968602195
 20
-15.37061285314145
 10
11.32939347033605
 20
-15.22245469040051
 10
11.40175550191806
 20
-15.07867056560314
 10
11.47195544858509
 20
-14.93918340984572
 10
11.30611337307184
 20
-14.88881434931658
 10
11.1405519945859
 20
-14.84662139253406
 10
10.98088770931778
 20
-14.78828778994918
 10
10.68405211322309
 20
-14.67983900086445
 10
10.41847494573645
 20
-14.52205629237933
 10
10.22818880587374
 20
-14.26013687539916
 10
10.05482684564218
 20
-14.02151266723194
 10
9.990481302066419
 20
-13.75100120111308
 10
10.00780291544496
 20
-13.46068038281173
 10
10.03578138227913
 20
-12.99174029628181
 10
10.21159802479856
 20
-12.57320478242051
 10
10.46225121509675
 20
-12.18362073027449
 10
10.69559790356611
 20
-11.82093599144798
 10
10.91562527248807
 20
-11.45179370981997
 10
11.05629301803356
 20
-11.04161563829605
 10
11.09279232083146
 20
-10.93518612998571
 10
11.11632251423704
 20
-10.82430891492961
 10
11.14843455648611
 20
-10.70578676708596
 10
11.01868830540483
 20
-10.70578676708596
 10
10.90178554896252
 20
-10.70578884492413
 10
10.78488279251957
 20
-10.70578487814248
 10
10.7663178764238
 20
-10.70578431145934
 10
10.74774521565815
 20
-10.7054099228256
 10
10.72918955538569
 20
-10.70581585681846
 10
10.69326449146086
 20
-10.70660127959266
 10
10.66758619132373
 20
-10.69360988066486
 10
10.66700288552109
 20
-10.65410186840238
 10
10.66639559013387
 20
-10.61295066404866
 10
10.6956388936442
 20
-10.60253993995147
 10
10.72948630843493
 20
-10.60232195585268
 10
10.84293475360364
 20
-10.60159112355029
 10
10.95638962118061
 20
-10.60188787659953
 10
11.06984203313064
 20
-10.60179852956447
 10
11.09197516380344
 20
-10.60178115128285
 10
11.11410829447687
 20
-10.60179588504284
 10
11.14023880772661
 20
-10.60179588504284
 10
11.14307713447313
 20
-10.4515931296826
 10
11.1012449659287
 20
-10.33301204679673
 10
10.98001180614224
 20
-10.24644289214587
 10
10.899884516061
 20
-10.18922584415989
 10
10.81885525538115
 20
-10.13042397244272
 10
10.75030700105178
 20
-10.06049338914184
 10
10.64242489506623
 20
-9.950435408951929
 10
10.63694148051051
 20
-9.825042039644355
 10
10.72236083515426
 20
-9.735383328740292
 10
10.83431361473116
 20
-9.617874410276718
 10
10.99765491773116
 20
-9.59578699204022
 10
11.11135874808291
 20
-9.687237932689985
 10
11.24866795179716
 20
-9.7976742682956
 10
11.32153093123878
 20
-9.951387247662865
 10
11.37066008914727
 20
-10.11410501036029
 10
11.41331810386053
 20
-10.25539157384887
 10
11.44120571250492
 20
-10.4013906739849
 10
11.47015301854321
 20
-10.5463988342757
 10
11.47812284964095
 20
-10.58632316972127
 10
11.48753545590712
 20
-10.60340262052173
 10
11.53058599311327
 20
-10.60261020865581
 10
11.65803377754692
 20
-10.60026489620561
 10
11.78555183068523
 20
-10.60177132877544
 10
11.92982859199081
 20
-10.60177132877544
 10
11.91737403085151
 20
-10.54455654752265
 10
11.90347518338841
 20
-10.49717844038804
 10
11.8980913161636
 20
-10.44885151685193
 10
11.89549590757268
 20
-10.42555347462263
 10
11.90160890705014
 20
-10.39104738517636
 10
11.91722442651326
 20
-10.3788993995934
 10
11.93220337196196
 20
-10.36724631724991
 10
11.97259087639318
 20
-10.36875784996766
 10
11.98705111791283
 20
-10.38138657171293
 10
12.00168023099519
 20
-10.39416263106357
 10
12.00434024145939
 20
-10.4284411027977
 10
12.00137006644596
 20
-10.45192520597823
 10
11.99544747248885
 20
-10.49875136377494
 10
11.98207866261692
 20
-10.54463569426186
 10
11.97030752129527
 20
-10.59755142863555
 10
12.02264637227426
 20
-10.59755142863555
 10
12.06058996139564
 20
-10.59755142863555
 10
12.11443278931881
 20
-10.59755142863555
 10
12.10189927033404
 20
-10.54314531771301
 10
12.0873502484628
 20
-10.49588035830334
 10
12.08148394502723
 20
-10.44756117943646
 10
12.07871022015398
 20
-10.42471365027036
 10
12.08569553381538
 20
-10.39244671464075
 10
12.10103337855998
 20
-10.37821900208647
 10
12.11348680633236
 20
-10.36666754491174
 10
12.15339300791878
 20
-10.36645768327094
 10
12.16594541633989
 20
-10.37788711468489
 10
12.18163989364784
 20
-10.39217716238022
 10
12.18956098999921
 20
-10.42438384070696
 10
12.18704907271693
 20
-10.44734735101402
 10
12.18173736314122
 20
-10.49589943663438
 10
12.16747054945264
 20
-10.54347172717758
 10
12.15543571159462
 20
-10.59797341864906
 10
12.20678475609529
 20
-10.59797341864906
 10
12.24272115368193
 20
-10.59797341864906
 10
12.29618505950657
 20
-10.59797341864906
 10
12.28420122312779
 20
-10.54339616943125
 10
12.27036093291815
 20
-10.49610514259947
 10
12.26473868100349
 20
-10.44785661022505
 10
12.26208471515846
 20
-10.4250818053899
 10
12.26825853862226
 20
-10.39307648845784
 10
12.28329830805728
 20
-10.37898100195954
 10
12.29580802635184
 20
-10.367256139757
 10
12.33506858699395
 20
-10.36629976758064
 10
12.34808907565426
 20
-10.37742149007262
 10
12.3641296074416
 20
-10.39112275402863
 10
12.37345494451025
 20
-10.42313090437638
 10
12.37113683284845
 20
-10.44573532649314
 10
12.3661141316521
 20
-10.49470165745842
 10
12.35183220641445
 20
-10.54271841644531
 10
12.33991599421901
 20
-10.59767798786079
 10
12.38887401383223
 20
-10.59767798786079
 10
12.42299022530661
 20
-10.59767798786079
 10
12.47296411882123
 20
-10.59767798786079
 10
12.4651389808082
 20
-10.54840508133887
 10
12.45511813468258
 20
-10.50241742563345
 10
12.45153443076773
 20
-10.45593354442822
 10
12.44957521840151
 20
-10.43052460765692
 10
12.45033117365509
 20
-10.3966054130065
 10
12.46512198031534
 20
-10.38084142257205
 10
12.47688858817349
 20
-10.36830053670745
 10
12.52160819599796
 20
-10.367466756975
 10
12.53395508734868
 20
-10.37955637419856
 10
12.54930766585327
 20
-10.39458953233063
 10
12.5522003941769
 20
-10.42874975619253
 10
12.55011915605087
 20
-10.45378846000611
 10
12.54634655776941
 20
-10.49916844253522
 10
12.53491202620754
 20
-10.54391147326211
 10
12.52533168174397
 20
-10.59626770252273
 10
12.57322244818844
 20
-10.59626770252273
 10
12.60860160739519
 20
-10.59626770252273
 10
12.65996576344494
 20
-10.59626770252273
 10
12.64899402307933
 20
-10.54424109393081
 10
12.63534300502537
 20
-10.49668467051484
 10
12.63032710402571
 20
-10.4482343989573
 10
12.62793985702649
 20
-10.42517134131966
 10
12.63487945825095
 20
-10.39096956069749
 10
12.65062455924906
 20
-10.37910340550875
 10
12.66594615907799
 20
-10.36755610401038
 10
12.7056619551431
 20
-10.36898924556675
 10
12.72037682626826
 20
-10.38151294204347
 10
12.73490204744931
 20
-10.39387475604888
 10
12.73757263599844
 20
-10.4279987121925
 10
12.73473884271702
 20
-10.45127182036595
 10
12.72906030028146
 20
-10.49790568369723
 10
12.71607834607135
 20
-10.54365004345925
 10
12.70451801086079
 20
-10.59713340540305
 10
12.75584854371453
 20
-10.59713340540305
 10
12.79175169589262
 20
-10.59713340540305
 10
12.84423108427997
 20
-10.59713340540305
 10
12.83341461508559
 20
-10.54546947399431
 10
12.82015196384688
 20
-10.49820810357753
 10
12.81488558891646
 20
-10.45007177445744
 10
12.81231549217205
 20
-10.42657614872105
 10
12.81709754194568
 20
-10.39217187333823
 10
12.83239836339351
 20
-10.37971920114241
 10
12.84716574715359
 20
-10.36770060820006
 10
12.88758574141584
 20
-10.3681643438695
 10
12.90230476821607
 20
-10.38044398882563
 10
12.91722024515808
 20
-10.3928872163028
 10
12.92101022172148
 20
-10.42733607075595
 10
12.91806989201648
 20
-10.4506856811473
 10
12.91217638779252
 20
-10.49748482704968
 10
12.89837236530212
 20
-10.54328793295954
 10
12.88612558796417
 20
-10.59699381246659
 10
12.93828310035205
 20
-10.59699381246659
 10
12.97607519619235
 20
-10.59699381246659
 10
13.03012240781996
 20
-10.59699381246659
 10
13.01812610441117
 20
-10.54404691052254
 10
13.0039261593297
 20
-10.49694194464167
 10
12.99808101206303
 20
-10.44882186043628
 10
12.99527857524603
 20
-10.42575105812941
 10
13.0012793714711
 20
-10.39355873577454
 10
13.01633916370873
 20
-10.37890903320579
 10
13.02846618201654
 20
-10.36711201335544
 10
13.06839996218076
 20
-10.36609897286941
 10
13.08115902103726
 20
-10.37726149654447
 10
13.09709754986772
 20
-10.39120435639445
 10
13.10595027323206
 20
-10.42341783491885
 10
13.10345611202178
 20
-10.44616336112679
 10
13.09810171231695
 20
-10.49499009915593
 10
13.0835088669532
 20
-10.54280360780402
 10
13.07037504167357
 20
-10.60139580677606
 10
13.22143839976622
 20
-10.60139580677606
 10
13.35701090867815
 20
-10.6027858804165
 10
13.49244590249083
 20
-10.59911188499437
 10
13.50512184782807
 20
-10.59876809724786
 10
13.5248658425572
 20
-10.56771707465334
 10
13.52792139782468
 20
-10.54876228058568
 10
13.56076559463776
 20
-10.34500230558345
 10
13.59902879302701
 20
-10.14173496708878
 10
13.6940071470704
 20
-9.957076179288974
 10
13.74126700633214
 20
-9.865193237223268
 10
13.80222435166326
 20
-9.775276685509882
 10
13.87521200138505
 20
-9.702834940505207
 10
14.00073797453801
 20
-9.578248527929805
 10
14.23715022967664
 20
-9.629121180838906
 10
14.31625163445469
 20
-9.788328341740554
 10
14.35376907788654
 20
-9.863840564667399
 10
14.3385268136912
 20
-9.937126667488808
 10
14.29454313831672
 20
-10.00522856443036
 10
14.22913506393041
 20
-10.10650408995962
 10
14.13444496268951
 20
-10.17599511607035
 10
14.03436986085815
 20
-10.23881401537897
 10
13.90361075818427
 20
-10.32089409541785
 10
13.85878612509157
 20
-10.44386168327472
 10
13.86015825376756
 20
-10.60179834067041
 10
13.92239630290015
 20
-10.60179834067041
 10
13.98112620586421
 20
-10.6017947516772
 10
14.03985648661704
 20
-10.60179928514199
 10
14.11824235953712
 20
-10.60180532976149
 10
14.19663163255474
 20
-10.60136709483199
 10
14.2750122164322
 20
-10.60202331385996
 10
14.31237249975061
 20
-10.60233593403612
 10
14.35587789458972
 20
-10.59989315209254
 10
14.35639395399842
 20
-10.65356748624048
 10
14.35690699109704
 20
-10.70692598900814
 10
14.3153751645957
 20
-10.70597471698034
 10
14.27671226572651
 20
-10.70589368129702
 10
14.14079974695725
 20
-10.70560826190958
 10
14.00488609481916
 20
-10.70578280030431
 10
13.86412125756969
 20
-10.70578280030431
 10
13.88444478021515
 20
-10.88557226913296
 10
13.94135525264352
 20
-11.04960246988633
 10
14.00758426194512
 20
-11.21093790361192
 10
14.14740311620909
 20
-11.55154126882143
 10
14.33276024647996
 20
-11.86725855686504
 10
14.53354211290515
 20
-12.1747060495569
 10
14.74860741572238
 20
-12.50402637648562
 10
14.90578641781509
 20
-12.85859583555314
 10
14.97064972084832
 20
-13.247927902614
 10
15.05455130926043
 20
-13.75153388322524
 10
14.93945041617718
 20
-14.19010693366143
 10
14.5217702160063
 20
-14.51787568226684
 10
14.3062100099483
 20
-14.68703360948415
 10
14.05741535131883
 20
-14.78934484282272
 10
13.79623413352216
 20
-14.8637503336584
 10
13.70930985746331
 20
-14.88851438506385
 10
13.62103234216513
 20
-14.90852660979318
 10
13.52586584933265
 20
-14.93261139705765
 97
        0
 97
        0
 92
        1
 93
        1
 72
     4
 94
        3
 73
     0
 74
     1
 95
       26
 96
       22
 40
0.0
 40
0.0
 40
0.0
 40
0.0
 40
1.0
 40
1.0
 40
1.0
 40
2.0
 40
2.0
 40
2.0
 40
3.0
 40
3.0
 40
3.0
 40
4.0
 40
4.0
 40
4.0
 40
5.0
 40
5.0
 40
5.0
 40
6.0
 40
6.0
 40
6.0
 40
7.0
 40
7.0
 40
7.0
 40
7.0
 10
11.49745089897607
 20
-10.70918932130408
 10
11.49642746930046
 20
-10.72044005864759
 10
11.49464279532865
 20
-10.72838155559033
 10
11.49514978780745
 20
-10.73617420377234
 10
11.51483144739618
 20
-11.03871610977508
 10
11.45910118696681
 20
-11.33057868389201
 10
11.37162798388013
 20
-11.61817677879839
 10
11.26637415410464
 20
-11.96423239099294
 10
11.15163669378144
 20
-12.30785655490604
 10
11.06051896279326
 20
-12.65761714119869
 10
10.98568562621928
 20
-12.94486918162536
 10
10.94722578879419
 20
-13.23937136561608
 10
11.00152649666039
 20
-13.5386691997751
 10
11.08109371494574
 20
-13.97723016097101
 10
11.47411677792287
 20
-14.31815842448973
 10
11.91519003418948
 20
-14.32506138020619
 10
11.91519003418948
 20
-13.11986394475857
 10
11.91519003418948
 20
-11.91468879884452
 10
11.91519003418948
 20
-10.70918932130408
 10
11.77362617377146
 20
-10.70918932130408
 10
11.63636910490176
 20
-10.70918932130408
 10
11.49745089897607
 20
-10.70918932130408
 97
        0
 97
        0
 92
        1
 93
        1
 72
     4
 94
        3
 73
     0
 74
     1
 95
       29
 96
       25
 40
0.0
 40
0.0
 40
0.0
 40
0.0
 40
1.0
 40
1.0
 40
1.0
 40
2.0
 40
2.0
 40
2.0
 40
3.0
 40
3.0
 40
3.0
 40
4.0
 40
4.0
 40
4.0
 40
5.0
 40
5.0
 40
5.0
 40
6.0
 40
6.0
 40
6.0
 40
7.0
 40
7.0
 40
7.0
 40
8.0
 40
8.0
 40
8.0
 40
8.0
 10
13.08651190958705
 20
-10.70946491818411
 10
13.08651190958705
 20
-11.9182906366182
 10
13.08651190958705
 20
-13.12299316882762
 10
13.08651190958705
 20
-14.32921705626251
 10
13.10983054130114
 20
-14.326580090911
 10
13.12819258484911
 20
-14.32432620333467
 10
13.14659240726913
 20
-14.32245010448899
 10
13.54150214717527
 20
-14.28218235908502
 10
13.86630978769586
 20
-14.01010760319165
 10
13.97657951847197
 20
-13.62865960918412
 10
14.05205490699642
 20
-13.36757246078328
 10
14.02388055670458
 20
-13.10625788356243
 10
13.98061808001946
 20
-12.84485377041343
 10
13.92464527922389
 20
-12.50665351933069
 10
13.8166728817301
 20
-12.18285419693599
 10
13.70759998565999
 20
-11.85924868016144
 10
13.61818797079846
 20
-11.59397336587229
 10
13.53177219837441
 20
-11.32724469832945
 10
13.51181210848932
 20
-11.04567157812646
 10
13.5039903705748
 20
-10.93533327869703
 10
13.51053140468528
 20
-10.82397683863398
 10
13.51053140468528
 20
-10.70946491818411
 10
13.36521270205843
 20
-10.70946491818411
 10
13.22792616566682
 20
-10.70946491818411
 10
13.08651190958705
 20
-10.70946491818411
 97
        0
 97
        0
 92
        1
 93
        1
 72
     4
 94
        3
 73
     0
 74
     1
 95
       17
 96
       13
 40
0.0
 40
0.0
 40
0.0
 40
0.0
 40
1.0
 40
1.0
 40
1.0
 40
2.0
 40
2.0
 40
2.0
 40
3.0
 40
3.0
 40
3.0
 40
4.0
 40
4.0
 40
4.0
 40
4.0
 10
12.09977269755983
 20
-14.32416148744607
 10
12.09977269755983
 20
-13.11239997277433
 10
12.09977269755983
 20
-11.91065288181674
 10
12.09977269755983
 20
-10.70933080318401
 10
12.05895035829762
 20
-10.70933080318401
 10
12.02269888490758
 20
-10.70933080318401
 10
11.98512099527912
 20
-10.70933080318401
 10
11.98512099527912
 20
-11.91857171143523
 10
11.98512099527912
 20
-13.124267072434
 10
11.98512099527912
 20
-14.33512113857108
 10
12.0259796022593
 20
-14.33121555865709
 10
12.06230738897286
 20
-14.32774292462933
 10
12.09977269755983
 20
-14.32416148744607
 97
        0
 97
        0
 92
        1
 93
        1
 72
     4
 94
        3
 73
     0
 74
     1
 95
       17
 96
       13
 40
0.0
 40
0.0
 40
0.0
 40
0.0
 40
1.0
 40
1.0
 40
1.0
 40
2.0
 40
2.0
 40
2.0
 40
3.0
 40
3.0
 40
3.0
 40
4.0
 40
4.0
 40
4.0
 40
4.0
 10
13.01566103293403
 20
-14.33546794862799
 10
13.01566103293403
 20
-13.12016239785691
 10
13.01566103293403
 20
-11.91453541661901
 10
13.01566103293403
 20
-10.70931229153643
 10
12.97482207096771
 20
-10.70931229153643
 10
12.93853961890136
 20
-10.70931229153643
 10
12.89968895903441
 20
-10.70931229153643
 10
12.89968895903441
 20
-11.91481913595703
 10
12.89968895903441
 20
-13.11680310044847
 10
12.89968895903441
 20
-14.3236635618978
 10
12.93824909936632
 20
-14.32758803124845
 10
12.97467019989691
 20
-14.33129564986884
 10
13.01566103293403
 20
-14.33546794862799
 97
        0
 97
        0
 92
        1
 93
        1
 72
     4
 94
        3
 73
     0
 74
     1
 95
       17
 96
       13
 40
0.0
 40
0.0
 40
0.0
 40
0.0
 40
1.0
 40
1.0
 40
1.0
 40
2.0
 40
2.0
 40
2.0
 40
3.0
 40
3.0
 40
3.0
 40
4.0
 40
4.0
 40
4.0
 40
4.0
 10
12.16853553588884
 20
-10.70786347174752
 10
12.16853553588884
 20
-11.91144208247853
 10
12.16853553588884
 20
-13.10935839568836
 10
12.16853553588884
 20
-14.31401408209617
 10
12.20957925934836
 20
-14.30592411418146
 10
12.24654173113255
 20
-14.29863808069046
 10
12.28261488824027
 20
-14.29152809674697
 10
12.28261488824027
 20
-13.09287131762107
 10
12.28261488824027
 20
-11.90140008018402
 10
12.28261488824027
 20
-10.70786347174752
 10
12.24369962649876
 20
-10.70786347174752
 10
12.2090310878974
 20
-10.70786347174752
 10
12.16853553588884
 20
-10.70786347174752
 97
        0
 97
        0
 92
        1
 93
        1
 72
     4
 94
        3
 73
     0
 74
     1
 95
       17
 96
       13
 40
0.0
 40
0.0
 40
0.0
 40
0.0
 40
1.0
 40
1.0
 40
1.0
 40
2.0
 40
2.0
 40
2.0
 40
3.0
 40
3.0
 40
3.0
 40
4.0
 40
4.0
 40
4.0
 40
4.0
 10
12.83114070470505
 20
-14.31349726710996
 10
12.83114070470505
 20
-13.10777130522525
 10
12.83114070470505
 20
-11.90836952671818
 10
12.83114070470505
 20
-10.71028396415592
 10
12.79076000046987
 20
-10.71028396415592
 10
12.75484022558767
 20
-10.71028396415592
 10
12.71823023069048
 20
-10.71028396415592
 10
12.71823023069048
 20
-11.90648398315513
 10
12.71823023069048
 20
-13.09806326817049
 10
12.71823023069048
 20
-14.29241287795738
 10
12.7572690293478
 20
-14.29970268933661
 10
12.79293795251208
 20
-14.30636386026664
 10
12.83114070470505
 20
-14.31349726710996
 97
        0
 97
        0
 92
        1
 93
        1
 72
     4
 94
        3
 73
     0
 74
     1
 95
       20
 96
       16
 40
0.0
 40
0.0
 40
0.0
 40
0.0
 40
1.0
 40
1.0
 40
1.0
 40
2.0
 40
2.0
 40
2.0
 40
3.0
 40
3.0
 40
3.0
 40
4.0
 40
4.0
 40
4.0
 40
5.0
 40
5.0
 40
5.0
 40
5.0
 10
12.35277932276622
 20
-10.7075729522128
 10
12.35277932276622
 20
-11.8969512400723
 10
12.35277932276622
 20
-13.08025392953761
 10
12.35277932276622
 20
-14.26412632441184
 10
12.46079969942886
 20
-14.24052586230288
 10
12.46783714793481
 20
-14.2324147382196
 10
12.46783752572389
 20
-14.13359276161289
 10
12.46784168139895
 20
-13.01754893353241
 10
12.4678397924558
 20
-11.90150510545161
 10
12.4678397924558
 20
-10.78546127737144
 10
12.4678397924558
 20
-10.75985759050874
 10
12.46783941466704
 20
-10.73425390364572
 10
12.46783941466704
 20
-10.7075729522128
 10
12.42440995536301
 20
-10.7075729522128
 10
12.39184532221258
 20
-10.7075729522128
 10
12.35277932276622
 20
-10.7075729522128
 97
        0
 97
        0
 92
        1
 93
        1
 72
     4
 94
        3
 73
     0
 74
     1
 95
       20
 96
       16
 40
0.0
 40
0.0
 40
0.0
 40
0.0
 40
1.0
 40
1.0
 40
1.0
 40
2.0
 40
2.0
 40
2.0
 40
3.0
 40
3.0
 40
3.0
 40
4.0
 40
4.0
 40
4.0
 40
5.0
 40
5.0
 40
5.0
 40
5.0
 10
12.64652252919329
 20
-14.26303527055385
 10
12.64652252919329
 20
-13.07834345191936
 10
12.64652252919329
 20
-11.89390021826961
 10
12.64652252919329
 20
-10.70923125585278
 10
12.60776480535299
 20
-10.70923125585278
 10
12.57363688242773
 20
-10.70923125585278
 10
12.53336347019334
 20
-10.70923125585278
 10
12.53336347019334
 20
-10.73889088254653
 10
12.53336347019334
 20
-10.76518157821912
 10
12.53336347019334
 20
-10.79147208499734
 10
12.53336347019334
 20
-11.90525390304254
 10
12.53336158125019
 20
-13.0190359099834
 10
12.53336573692622
 20
-14.13281753913358
 10
12.5333661147153
 20
-14.23259834354358
 10
12.5409453122633
 20
-14.24137664252756
 10
12.64652252919329
 20
-14.26303527055385
 97
        0
 97
        0
 75
     2
 76
     1
 98
        0
  0
ENDSEC
  0
SECTION
  2
OBJECTS
  0
DICTIONARY
  5
C
330
0
100
AcDbDictionary
281
     1
  3
ACAD_GROUP
350
D
  3
ACAD_LAYOUT
350
1A
  3
ACAD_MATERIAL
350
3B
  3
ACAD_MLEADERSTYLE
350
4D
  3
ACAD_MLINESTYLE
350
17
  3
ACAD_PLOTSETTINGS
350
19
  3
ACAD_PLOTSTYLENAME
350
E
  3
ACAD_TABLESTYLE
350
4C
  3
ACAD_VISUALSTYLE
350
2A
  0
SUN
  5
3F
330
29
100
AcDbSun
 90
        1
290
     0
 63
     7
421
 16777215
 40
1.0
291
     1
 91
  2455826
 92
 54000000
292
     0
 70
     2
 71
   256
280
     1
  0
DICTIONARY
  5
D
102
{ACAD_REACTORS
330
C
102
}
330
C
100
AcDbDictionary
281
     1
  0
DICTIONARY
  5
1A
102
{ACAD_REACTORS
330
C
102
}
330
C
100
AcDbDictionary
281
     1
  3
Layout1
350
1E
  3
Layout2
350
26
  3
Model
350
22
  0
DICTIONARY
  5
3B
102
{ACAD_REACTORS
330
C
102
}
330
C
100
AcDbDictionary
281
     1
  3
ByBlock
350
3D
  3
ByLayer
350
3C
  3
Global
350
3E
  0
DICTIONARY
  5
4D
102
{ACAD_REACTORS
330
C
102
}
330
C
100
AcDbDictionary
281
     1
  0
DICTIONARY
  5
17
102
{ACAD_REACTORS
330
C
102
}
330
C
100
AcDbDictionary
281
     1
  3
Standard
350
18
  0
DICTIONARY
  5
19
102
{ACAD_REACTORS
330
C
102
}
330
C
100
AcDbDictionary
281
     1
  0
ACDBDICTIONARYWDFLT
  5
E
102
{ACAD_REACTORS
330
C
102
}
330
C
100
AcDbDictionary
281
     1
  3
Normal
350
F
100
AcDbDictionaryWithDefault
340
F
  0
DICTIONARY
  5
4C
102
{ACAD_REACTORS
330
C
102
}
330
C
100
AcDbDictionary
281
     1
  0
DICTIONARY
  5
2A
102
{ACAD_REACTORS
330
C
102
}
330
C
100
AcDbDictionary
281
     1
  3
2dWireframe
350
2F
  3
3D Hidden
350
31
  3
3dWireframe
350
30
  3
Basic
350
32
  3
Brighten
350
36
  3
ColorChange
350
3A
  3
Conceptual
350
34
  3
Dim
350
35
  3
Facepattern
350
39
  3
Flat
350
2B
  3
FlatWithEdges
350
2C
  3
Gouraud
350
2D
  3
GouraudWithEdges
350
2E
  3
Linepattern
350
38
  3
Realistic
350
33
  3
Thicken
350
37
  0
LAYOUT
  5
1E
102
{ACAD_REACTORS
330
1A
102
}
330
1A
100
AcDbPlotSettings
  1

  2
none_device
  4

  6

 40
0.0
 41
0.0
 42
0.0
 43
0.0
 44
0.0
 45
0.0
 46
0.0
 47
0.0
 48
0.0
 49
0.0
140
0.0
141
0.0
142
1.0
143
1.0
 70
   688
 72
     0
 73
     0
 74
     5
  7

 75
    16
 76
     0
 77
     2
 78
   300
147
1.0
148
0.0
149
0.0
100
AcDbLayout
  1
Layout1
 70
     1
 71
     1
 10
0.0
 20
0.0
 11
12.0
 21
9.0
 12
0.0
 22
0.0
 32
0.0
 14
1.000000000000000E+20
 24
1.000000000000000E+20
 34
1.000000000000000E+20
 15
-1.000000000000000E+20
 25
-1.000000000000000E+20
 35
-1.000000000000000E+20
146
0.0
 13
0.0
 23
0.0
 33
0.0
 16
1.0
 26
0.0
 36
0.0
 17
0.0
 27
1.0
 37
0.0
 76
     0
330
1B
  0
LAYOUT
  5
26
102
{ACAD_REACTORS
330
1A
102
}
330
1A
100
AcDbPlotSettings
  1

  2
none_device
  4

  6

 40
0.0
 41
0.0
 42
0.0
 43
0.0
 44
0.0
 45
0.0
 46
0.0
 47
0.0
 48
0.0
 49
0.0
140
0.0
141
0.0
142
1.0
143
1.0
 70
   688
 72
     0
 73
     0
 74
     5
  7

 75
    16
 76
     0
 77
     2
 78
   300
147
1.0
148
0.0
149
0.0
100
AcDbLayout
  1
Layout2
 70
     1
 71
     2
 10
0.0
 20
0.0
 11
0.0
 21
0.0
 12
0.0
 22
0.0
 32
0.0
 14
0.0
 24
0.0
 34
0.0
 15
0.0
 25
0.0
 35
0.0
146
0.0
 13
0.0
 23
0.0
 33
0.0
 16
1.0
 26
0.0
 36
0.0
 17
0.0
 27
1.0
 37
0.0
 76
     0
330
23
  0
LAYOUT
  5
22
102
{ACAD_REACTORS
330
1A
102
}
330
1A
100
AcDbPlotSettings
  1

  2
none_device
  4

  6

 40
0.0
 41
0.0
 42
0.0
 43
0.0
 44
0.0
 45
0.0
 46
0.0
 47
0.0
 48
0.0
 49
0.0
140
0.0
141
0.0
142
1.0
143
1.0
 70
  1712
 72
     0
 73
     0
 74
     0
  7

 75
     0
 76
     0
 77
     2
 78
   300
147
1.0
148
0.0
149
0.0
100
AcDbLayout
  1
Model
 70
     1
 71
     0
 10
0.0
 20
0.0
 11
12.0
 21
9.0
 12
0.0
 22
0.0
 32
0.0
 14
1.000000000000000E+20
 24
1.000000000000000E+20
 34
1.000000000000000E+20
 15
-1.000000000000000E+20
 25
-1.000000000000000E+20
 35
-1.000000000000000E+20
146
0.0
 13
0.0
 23
0.0
 33
0.0
 16
1.0
 26
0.0
 36
0.0
 17
0.0
 27
1.0
 37
0.0
 76
     0
330
1F
331
29
  0
MATERIAL
  5
3D
102
{ACAD_REACTORS
330
3B
102
}
330
3B
100
AcDbMaterial
  1
ByBlock
 72
     1
 94
      127
  0
MATERIAL
  5
3C
102
{ACAD_REACTORS
330
3B
102
}
330
3B
100
AcDbMaterial
  1
ByLayer
 72
     1
 94
      127
  0
MATERIAL
  5
3E
102
{ACAD_REACTORS
330
3B
102
}
330
3B
100
AcDbMaterial
  1
Global
 72
     1
 94
      127
  0
MLINESTYLE
  5
18
102
{ACAD_REACTORS
330
17
102
}
330
17
100
AcDbMlineStyle
  2
Standard
 70
     0
  3

 62
   256
 51
90.0
 52
90.0
 71
     2
 49
0.5
 62
   256
  6
BYLAYER
 49
-0.5
 62
   256
  6
BYLAYER
  0
ACDBPLACEHOLDER
  5
F
102
{ACAD_REACTORS
330
E
102
}
330
E
  0
VISUALSTYLE
  5
2F
102
{ACAD_REACTORS
330
2A
102
}
330
2A
100
AcDbVisualStyle
  2
2dWireframe
 70
     4
177
     2
291
     0
 71
     0
176
     1
 72
     2
176
     1
 73
     0
176
     1
 90
        0
176
     1
 40
-0.6
176
     1
 41
-30.0
176
     1
 62
     5
 63
     7
421
 16777215
176
     1
 74
     1
176
     1
 91
        4
176
     1
 64
     7
176
     1
 65
   257
176
     1
 75
     1
176
     1
175
     1
176
     1
 42
1.0
176
     1
 92
        0
176
     1
 66
   257
176
     1
 43
1.0
176
     1
 76
     1
176
     1
 77
     6
176
     1
 78
     2
176
     1
 67
     7
176
     1
 79
     5
176
     1
170
     0
176
     1
171
     0
176
     1
290
     0
176
     1
 93
        1
176
     1
 44
0.0
176
     1
173
     0
176
     1
  0
VISUALSTYLE
  5
31
102
{ACAD_REACTORS
330
2A
102
}
330
2A
100
AcDbVisualStyle
  2
3D Hidden
 70
     6
177
     2
291
     0
 71
     1
176
     1
 72
     2
176
     1
 73
     2
176
     1
 90
        0
176
     1
 40
-0.6
176
     1
 41
-30.0
176
     1
 62
     5
 63
     7
421
 16777215
176
     1
 74
     2
176
     1
 91
        2
176
     1
 64
     7
176
     1
 65
   257
176
     1
 75
     2
176
     1
175
     1
176
     1
 42
40.0
176
     1
 92
        0
176
     1
 66
   257
176
     1
 43
1.0
176
     1
 76
     1
176
     1
 77
     6
176
     1
 78
     2
176
     1
 67
     7
176
     1
 79
     3
176
     1
170
     0
176
     1
171
     0
176
     1
290
     0
176
     1
 93
        1
176
     1
 44
0.0
176
     1
173
     0
176
     1
  0
VISUALSTYLE
  5
30
102
{ACAD_REACTORS
330
2A
102
}
330
2A
100
AcDbVisualStyle
  2
3dWireframe
 70
     5
177
     2
291
     0
 71
     0
176
     1
 72
     2
176
     1
 73
     0
176
     1
 90
        0
176
     1
 40
-0.6
176
     1
 41
-30.0
176
     1
 62
     5
 63
     7
421
 16777215
176
     1
 74
     1
176
     1
 91
        4
176
     1
 64
     7
176
     1
 65
   257
176
     1
 75
     1
176
     1
175
     1
176
     1
 42
1.0
176
     1
 92
        0
176
     1
 66
   257
176
     1
 43
1.0
176
     1
 76
     1
176
     1
 77
     6
176
     1
 78
     2
176
     1
 67
     7
176
     1
 79
     5
176
     1
170
     0
176
     1
171
     0
176
     1
290
     0
176
     1
 93
        1
176
     1
 44
0.0
176
     1
173
     0
176
     1
  0
VISUALSTYLE
  5
32
102
{ACAD_REACTORS
330
2A
102
}
330
2A
100
AcDbVisualStyle
  2
Basic
 70
     7
177
     2
291
     1
 71
     1
176
     1
 72
     0
176
     1
 73
     1
176
     1
 90
        0
176
     1
 40
-0.6
176
     1
 41
-30.0
176
     1
 62
     5
 63
     7
421
 16777215
176
     1
 74
     0
176
     1
 91
        4
176
     1
 64
     7
176
     1
 65
   257
176
     1
 75
     1
176
     1
175
     1
176
     1
 42
1.0
176
     1
 92
        8
176
     1
 66
     7
176
     1
 43
1.0
176
     1
 76
     1
176
     1
 77
     6
176
     1
 78
     2
176
     1
 67
     7
176
     1
 79
     5
176
     1
170
     0
176
     1
171
     0
176
     1
290
     0
176
     1
 93
        1
176
     1
 44
0.0
176
     1
173
     0
176
     1
  0
VISUALSTYLE
  5
36
102
{ACAD_REACTORS
330
2A
102
}
330
2A
100
AcDbVisualStyle
  2
Brighten
 70
    12
177
     2
291
     1
 71
     2
176
     1
 72
     2
176
     1
 73
     0
176
     1
 90
        0
176
     1
 40
-0.6
176
     1
 41
-30.0
176
     1
 62
     5
 63
     7
421
 16777215
176
     1
 74
     1
176
     1
 91
        4
176
     1
 64
     7
176
     1
 65
   257
176
     1
 75
     1
176
     1
175
     1
176
     1
 42
1.0
176
     1
 92
        8
176
     1
 66
     7
176
     1
 43
1.0
176
     1
 76
     1
176
     1
 77
     6
176
     1
 78
     2
176
     1
 67
     7
176
     1
 79
     5
176
     1
170
     0
176
     1
171
     0
176
     1
290
     0
176
     1
 93
        1
176
     1
 44
50.0
176
     1
173
     0
176
     1
  0
VISUALSTYLE
  5
3A
102
{ACAD_REACTORS
330
2A
102
}
330
2A
100
AcDbVisualStyle
  2
ColorChange
 70
    16
177
     2
291
     1
 71
     2
176
     1
 72
     2
176
     1
 73
     3
176
     1
 90
        0
176
     1
 40
-0.6
176
     1
 41
-30.0
176
     1
 62
     5
 63
     8
421
  8421504
176
     1
 74
     1
176
     1
 91
        4
176
     1
 64
     7
176
     1
 65
   257
176
     1
 75
     1
176
     1
175
     1
176
     1
 42
1.0
176
     1
 92
        8
176
     1
 66
     8
424
  8421504
176
     1
 43
1.0
176
     1
 76
     1
176
     1
 77
     6
176
     1
 78
     2
176
     1
 67
     7
176
     1
 79
     5
176
     1
170
     0
176
     1
171
     0
176
     1
290
     0
176
     1
 93
        1
176
     1
 44
0.0
176
     1
173
     0
176
     1
  0
VISUALSTYLE
  5
34
102
{ACAD_REACTORS
330
2A
102
}
330
2A
100
AcDbVisualStyle
  2
Conceptual
 70
     9
177
     2
291
     0
 71
     3
176
     1
 72
     2
176
     1
 73
     0
176
     1
 90
        0
176
     1
 40
-0.6
176
     1
 41
-30.0
176
     1
 62
     5
 63
     7
421
 16777215
176
     1
 74
     2
176
     1
 91
        2
176
     1
 64
     7
176
     1
 65
   257
176
     1
 75
     1
176
     1
175
     1
176
     1
 42
40.0
176
     1
 92
        8
176
     1
 66
     7
176
     1
 43
1.0
176
     1
 76
     1
176
     1
 77
     6
176
     1
 78
     2
176
     1
 67
     7
176
     1
 79
     3
176
     1
170
     0
176
     1
171
     0
176
     1
290
     0
176
     1
 93
        1
176
     1
 44
0.0
176
     1
173
     0
176
     1
  0
VISUALSTYLE
  5
35
102
{ACAD_REACTORS
330
2A
102
}
330
2A
100
AcDbVisualStyle
  2
Dim
 70
    11
177
     2
291
     1
 71
     2
176
     1
 72
     2
176
     1
 73
     0
176
     1
 90
        0
176
     1
 40
-0.6
176
     1
 41
-30.0
176
     1
 62
     5
 63
     7
421
 16777215
176
     1
 74
     1
176
     1
 91
        4
176
     1
 64
     7
176
     1
 65
   257
176
     1
 75
     1
176
     1
175
     1
176
     1
 42
1.0
176
     1
 92
        8
176
     1
 66
     7
176
     1
 43
1.0
176
     1
 76
     1
176
     1
 77
     6
176
     1
 78
     2
176
     1
 67
     7
176
     1
 79
     5
176
     1
170
     0
176
     1
171
     0
176
     1
290
     0
176
     1
 93
        1
176
     1
 44
-50.0
176
     1
173
     0
176
     1
  0
VISUALSTYLE
  5
39
102
{ACAD_REACTORS
330
2A
102
}
330
2A
100
AcDbVisualStyle
  2
Facepattern
 70
    15
177
     2
291
     1
 71
     2
176
     1
 72
     2
176
     1
 73
     0
176
     1
 90
        0
176
     1
 40
-0.6
176
     1
 41
-30.0
176
     1
 62
     5
 63
     7
421
 16777215
176
     1
 74
     1
176
     1
 91
        4
176
     1
 64
     7
176
     1
 65
   257
176
     1
 75
     1
176
     1
175
     1
176
     1
 42
1.0
176
     1
 92
        8
176
     1
 66
     7
176
     1
 43
1.0
176
     1
 76
     1
176
     1
 77
     6
176
     1
 78
     2
176
     1
 67
     7
176
     1
 79
     5
176
     1
170
     0
176
     1
171
     0
176
     1
290
     0
176
     1
 93
        1
176
     1
 44
0.0
176
     1
173
     0
176
     1
  0
VISUALSTYLE
  5
2B
102
{ACAD_REACTORS
330
2A
102
}
330
2A
100
AcDbVisualStyle
  2
Flat
 70
     0
177
     2
291
     1
 71
     2
176
     1
 72
     1
176
     1
 73
     1
176
     1
 90
        2
176
     1
 40
-0.6
176
     1
 41
30.0
176
     1
 62
     5
 63
     7
421
 16777215
176
     1
 74
     0
176
     1
 91
        4
176
     1
 64
     7
176
     1
 65
   257
176
     1
 75
     1
176
     1
175
     1
176
     1
 42
1.0
176
     1
 92
        8
176
     1
 66
     7
176
     1
 43
1.0
176
     1
 76
     1
176
     1
 77
     6
176
     1
 78
     2
176
     1
 67
     7
176
     1
 79
     5
176
     1
170
     0
176
     1
171
     0
176
     1
290
     0
176
     1
 93
       13
176
     1
 44
0.0
176
     1
173
     0
176
     1
  0
VISUALSTYLE
  5
2C
102
{ACAD_REACTORS
330
2A
102
}
330
2A
100
AcDbVisualStyle
  2
FlatWithEdges
 70
     1
177
     2
291
     1
 71
     2
176
     1
 72
     1
176
     1
 73
     1
176
     1
 90
        2
176
     1
 40
-0.6
176
     1
 41
30.0
176
     1
 62
     5
 63
     7
421
 16777215
176
     1
 74
     1
176
     1
 91
        4
176
     1
 64
     7
176
     1
 65
   257
176
     1
 75
     1
176
     1
175
     1
176
     1
 42
1.0
176
     1
 92
        0
176
     1
 66
   257
176
     1
 43
1.0
176
     1
 76
     1
176
     1
 77
     6
176
     1
 78
     2
176
     1
 67
     7
176
     1
 79
     5
176
     1
170
     0
176
     1
171
     0
176
     1
290
     0
176
     1
 93
       13
176
     1
 44
0.0
176
     1
173
     0
176
     1
  0
VISUALSTYLE
  5
2D
102
{ACAD_REACTORS
330
2A
102
}
330
2A
100
AcDbVisualStyle
  2
Gouraud
 70
     2
177
     2
291
     1
 71
     2
176
     1
 72
     2
176
     1
 73
     1
176
     1
 90
        2
176
     1
 40
-0.6
176
     1
 41
30.0
176
     1
 62
     5
 63
     7
421
 16777215
176
     1
 74
     0
176
     1
 91
        4
176
     1
 64
     7
176
     1
 65
   257
176
     1
 75
     1
176
     1
175
     1
176
     1
 42
1.0
176
     1
 92
        0
176
     1
 66
     7
176
     1
 43
1.0
176
     1
 76
     1
176
     1
 77
     6
176
     1
 78
     2
176
     1
 67
     7
176
     1
 79
     5
176
     1
170
     0
176
     1
171
     0
176
     1
290
     0
176
     1
 93
       13
176
     1
 44
0.0
176
     1
173
     0
176
     1
  0
VISUALSTYLE
  5
2E
102
{ACAD_REACTORS
330
2A
102
}
330
2A
100
AcDbVisualStyle
  2
GouraudWithEdges
 70
     3
177
     2
291
     1
 71
     2
176
     1
 72
     2
176
     1
 73
     1
176
     1
 90
        2
176
     1
 40
-0.6
176
     1
 41
30.0
176
     1
 62
     5
 63
     7
421
 16777215
176
     1
 74
     1
176
     1
 91
        4
176
     1
 64
     7
176
     1
 65
   257
176
     1
 75
     1
176
     1
175
     1
176
     1
 42
1.0
176
     1
 92
        0
176
     1
 66
   257
176
     1
 43
1.0
176
     1
 76
     1
176
     1
 77
     6
176
     1
 78
     2
176
     1
 67
     7
176
     1
 79
     5
176
     1
170
     0
176
     1
171
     0
176
     1
290
     0
176
     1
 93
       13
176
     1
 44
0.0
176
     1
173
     0
176
     1
  0
VISUALSTYLE
  5
38
102
{ACAD_REACTORS
330
2A
102
}
330
2A
100
AcDbVisualStyle
  2
Linepattern
 70
    14
177
     2
291
     1
 71
     2
176
     1
 72
     2
176
     1
 73
     0
176
     1
 90
        0
176
     1
 40
-0.6
176
     1
 41
-30.0
176
     1
 62
     5
 63
     7
421
 16777215
176
     1
 74
     1
176
     1
 91
        4
176
     1
 64
     7
176
     1
 65
   257
176
     1
 75
     7
176
     1
175
     7
176
     1
 42
1.0
176
     1
 92
        8
176
     1
 66
     7
176
     1
 43
1.0
176
     1
 76
     1
176
     1
 77
     6
176
     1
 78
     2
176
     1
 67
     7
176
     1
 79
     5
176
     1
170
     0
176
     1
171
     0
176
     1
290
     0
176
     1
 93
        1
176
     1
 44
0.0
176
     1
173
     0
176
     1
  0
VISUALSTYLE
  5
33
102
{ACAD_REACTORS
330
2A
102
}
330
2A
100
AcDbVisualStyle
  2
Realistic
 70
     8
177
     2
291
     0
 71
     2
176
     1
 72
     2
176
     1
 73
     0
176
     1
 90
        0
176
     1
 40
-0.6
176
     1
 41
-30.0
176
     1
 62
     5
 63
     7
421
 16777215
176
     1
 74
     1
176
     1
 91
        0
176
     1
 64
     7
176
     1
 65
   257
176
     1
 75
     1
176
     1
175
     1
176
     1
 42
1.0
176
     1
 92
        8
176
     1
 66
     8
424
  7895160
176
     1
 43
1.0
176
     1
 76
     1
176
     1
 77
     6
176
     1
 78
     2
176
     1
 67
     7
176
     1
 79
     5
176
     1
170
     0
176
     1
171
     0
176
     1
290
     0
176
     1
 93
       13
176
     1
 44
0.0
176
     1
173
     0
176
     1
  0
VISUALSTYLE
  5
37
102
{ACAD_REACTORS
330
2A
102
}
330
2A
100
AcDbVisualStyle
  2
Thicken
 70
    13
177
     2
291
     1
 71
     2
176
     1
 72
     2
176
     1
 73
     0
176
     1
 90
        0
176
     1
 40
-0.6
176
     1
 41
-30.0
176
     1
 62
     5
 63
     7
421
 16777215
176
     1
 74
     1
176
     1
 91
        4
176
     1
 64
     7
176
     1
 65
   257
176
     1
 75
     1
176
     1
175
     1
176
     1
 42
1.0
176
     1
 92
       12
176
     1
 66
     7
176
     1
 43
1.0
176
     1
 76
     1
176
     1
 77
     6
176
     1
 78
     2
176
     1
 67
     7
176
     1
 79
     5
176
     1
170
     0
176
     1
171
     0
176
     1
290
     0
176
     1
 93
        1
176
     1
 44
0.0
176
     1
173
     0
176
     1
  0
ENDSEC
  0
EOF
