  0
SECTION
  2
HEADER
  9
$ACADVER
  1
AC1024
  9
$ACADMAINTVER
 70
     6
  9
$DWGCODEPAGE
  3
ANSI_1252
  9
$INSBASE
 10
0.0
 20
0.0
 30
0.0
  9
$EXTMIN
 10
1.000000000000000E+20
 20
1.000000000000000E+20
 30
1.000000000000000E+20
  9
$EXTMAX
 10
-1.000000000000000E+20
 20
-1.000000000000000E+20
 30
-1.000000000000000E+20
  9
$LIMMIN
 10
0.0
 20
0.0
  9
$LIMMAX
 10
12.0
 20
9.0
  9
$ORTHOMODE
 70
     0
  9
$REGENMODE
 70
     1
  9
$FILLMODE
 70
     1
  9
$QTEXTMODE
 70
     0
  9
$MIRRTEXT
 70
     1
  9
$LTSCALE
 40
1.0
  9
$ATTMODE
 70
     1
  9
$TEXTSIZE
 40
0.2
  9
$TRACEWID
 40
0.05
  9
$TEXTSTYLE
  7
Standard
  9
$CLAYER
  8
0
  9
$CELTYPE
  6
ByLayer
  9
$CECOLOR
 62
   256
  9
$CELTSCALE
 40
1.0
  9
$DISPSILH
 70
     0
  9
$DIMSCALE
 40
1.0
  9
$DIMASZ
 40
0.18
  9
$DIMEXO
 40
0.0625
  9
$DIMDLI
 40
0.38
  9
$DIMRND
 40
0.0
  9
$DIMDLE
 40
0.0
  9
$DIMEXE
 40
0.18
  9
$DIMTP
 40
0.0
  9
$DIMTM
 40
0.0
  9
$DIMTXT
 40
0.18
  9
$DIMCEN
 40
0.09
  9
$DIMTSZ
 40
0.0
  9
$DIMTOL
 70
     0
  9
$DIMLIM
 70
     0
  9
$DIMTIH
 70
     1
  9
$DIMTOH
 70
     1
  9
$DIMSE1
 70
     0
  9
$DIMSE2
 70
     0
  9
$DIMTAD
 70
     0
  9
$DIMZIN
 70
     0
  9
$DIMBLK
  1

  9
$DIMASO
 70
     1
  9
$DIMSHO
 70
     1
  9
$DIMPOST
  1

  9
$DIMAPOST
  1

  9
$DIMALT
 70
     0
  9
$DIMALTD
 70
     2
  9
$DIMALTF
 40
25.4
  9
$DIMLFAC
 40
1.0
  9
$DIMTOFL
 70
     0
  9
$DIMTVP
 40
0.0
  9
$DIMTIX
 70
     0
  9
$DIMSOXD
 70
     0
  9
$DIMSAH
 70
     0
  9
$DIMBLK1
  1

  9
$DIMBLK2
  1

  9
$DIMSTYLE
  2
Standard
  9
$DIMCLRD
 70
     0
  9
$DIMCLRE
 70
     0
  9
$DIMCLRT
 70
     0
  9
$DIMTFAC
 40
1.0
  9
$DIMGAP
 40
0.09
  9
$DIMJUST
 70
     0
  9
$DIMSD1
 70
     0
  9
$DIMSD2
 70
     0
  9
$DIMTOLJ
 70
     1
  9
$DIMTZIN
 70
     0
  9
$DIMALTZ
 70
     0
  9
$DIMALTTZ
 70
     0
  9
$DIMUPT
 70
     0
  9
$DIMDEC
 70
     4
  9
$DIMTDEC
 70
     4
  9
$DIMALTU
 70
     2
  9
$DIMALTTD
 70
     2
  9
$DIMTXSTY
  7
Standard
  9
$DIMAUNIT
 70
     0
  9
$DIMADEC
 70
     0
  9
$DIMALTRND
 40
0.0
  9
$DIMAZIN
 70
     0
  9
$DIMDSEP
 70
    46
  9
$DIMATFIT
 70
     3
  9
$DIMFRAC
 70
     0
  9
$DIMLDRBLK
  1

  9
$DIMLUNIT
 70
     2
  9
$DIMLWD
 70
    -2
  9
$DIMLWE
 70
    -2
  9
$DIMTMOVE
 70
     0
  9
$DIMFXL
 40
1.0
  9
$DIMFXLON
 70
     0
  9
$DIMJOGANG
 40
0.7853981633974483
  9
$DIMTFILL
 70
     0
  9
$DIMTFILLCLR
 70
     0
  9
$DIMARCSYM
 70
     0
  9
$DIMLTYPE
  6

  9
$DIMLTEX1
  6

  9
$DIMLTEX2
  6

  9
$DIMTXTDIRECTION
 70
     0
  9
$LUNITS
 70
     2
  9
$LUPREC
 70
     4
  9
$SKETCHINC
 40
0.1
  9
$FILLETRAD
 40
0.5
  9
$AUNITS
 70
     0
  9
$AUPREC
 70
     0
  9
$MENU
  1
.
  9
$ELEVATION
 40
0.0
  9
$PELEVATION
 40
0.0
  9
$THICKNESS
 40
0.0
  9
$LIMCHECK
 70
     0
  9
$CHAMFERA
 40
0.5
  9
$CHAMFERB
 40
0.5
  9
$CHAMFERC
 40
1.0
  9
$CHAMFERD
 40
0.0
  9
$SKPOLY
 70
     0
  9
$TDCREATE
 40
2459964.586987674
  9
$TDUCREATE
 40
2459964.545321007
  9
$TDUPDATE
 40
2459964.586987685
  9
$TDUUPDATE
 40
2459964.545321018
  9
$TDINDWG
 40
0.0000000116
  9
$TDUSRTIMER
 40
0.0000000116
  9
$USRTIMER
 70
     1
  9
$ANGBASE
 50
0.0
  9
$ANGDIR
 70
     0
  9
$PDMODE
 70
     0
  9
$PDSIZE
 40
0.0
  9
$PLINEWID
 40
0.0
  9
$SPLFRAME
 70
     0
  9
$SPLINETYPE
 70
     6
  9
$SPLINESEGS
 70
     8
  9
$HANDSEED
  5
50
  9
$SURFTAB1
 70
     6
  9
$SURFTAB2
 70
     6
  9
$SURFTYPE
 70
     6
  9
$SURFU
 70
     6
  9
$SURFV
 70
     6
  9
$UCSBASE
  2

  9
$UCSNAME
  2

  9
$UCSORG
 10
0.0
 20
0.0
 30
0.0
  9
$UCSXDIR
 10
1.0
 20
0.0
 30
0.0
  9
$UCSYDIR
 10
0.0
 20
1.0
 30
0.0
  9
$UCSORTHOREF
  2

  9
$UCSORTHOVIEW
 70
     0
  9
$UCSORGTOP
 10
0.0
 20
0.0
 30
0.0
  9
$UCSORGBOTTOM
 10
0.0
 20
0.0
 30
0.0
  9
$UCSORGLEFT
 10
0.0
 20
0.0
 30
0.0
  9
$UCSORGRIGHT
 10
0.0
 20
0.0
 30
0.0
  9
$UCSORGFRONT
 10
0.0
 20
0.0
 30
0.0
  9
$UCSORGBACK
 10
0.0
 20
0.0
 30
0.0
  9
$PUCSBASE
  2

  9
$PUCSNAME
  2

  9
$PUCSORG
 10
0.0
 20
0.0
 30
0.0
  9
$PUCSXDIR
 10
1.0
 20
0.0
 30
0.0
  9
$PUCSYDIR
 10
0.0
 20
1.0
 30
0.0
  9
$PUCSORTHOREF
  2

  9
$PUCSORTHOVIEW
 70
     0
  9
$PUCSORGTOP
 10
0.0
 20
0.0
 30
0.0
  9
$PUCSORGBOTTOM
 10
0.0
 20
0.0
 30
0.0
  9
$PUCSORGLEFT
 10
0.0
 20
0.0
 30
0.0
  9
$PUCSORGRIGHT
 10
0.0
 20
0.0
 30
0.0
  9
$PUCSORGFRONT
 10
0.0
 20
0.0
 30
0.0
  9
$PUCSORGBACK
 10
0.0
 20
0.0
 30
0.0
  9
$USERI1
 70
     0
  9
$USERI2
 70
     0
  9
$USERI3
 70
     0
  9
$USERI4
 70
     0
  9
$USERI5
 70
     0
  9
$USERR1
 40
0.0
  9
$USERR2
 40
0.0
  9
$USERR3
 40
0.0
  9
$USERR4
 40
0.0
  9
$USERR5
 40
0.0
  9
$WORLDVIEW
 70
     1
  9
$SHADEDGE
 70
     3
  9
$SHADEDIF
 70
    70
  9
$TILEMODE
 70
     1
  9
$MAXACTVP
 70
    64
  9
$PINSBASE
 10
0.0
 20
0.0
 30
0.0
  9
$PLIMCHECK
 70
     0
  9
$PEXTMIN
 10
1.000000000000000E+20
 20
1.000000000000000E+20
 30
1.000000000000000E+20
  9
$PEXTMAX
 10
-1.000000000000000E+20
 20
-1.000000000000000E+20
 30
-1.000000000000000E+20
  9
$PLIMMIN
 10
0.0
 20
0.0
  9
$PLIMMAX
 10
12.0
 20
9.0
  9
$UNITMODE
 70
     0
  9
$VISRETAIN
 70
     1
  9
$PLINEGEN
 70
     0
  9
$PSLTSCALE
 70
     1
  9
$TREEDEPTH
 70
  3020
  9
$CMLSTYLE
  2
Standard
  9
$CMLJUST
 70
     0
  9
$CMLSCALE
 40
1.0
  9
$PROXYGRAPHICS
 70
     1
  9
$MEASUREMENT
 70
     0
  9
$CELWEIGHT
370
    -1
  9
$ENDCAPS
280
     0
  9
$JOINSTYLE
280
     0
  9
$LWDISPLAY
290
     1
  9
$INSUNITS
 70
     1
  9
$HYPERLINKBASE
  1

  9
$STYLESHEET
  1

  9
$XEDIT
290
     1
  9
$CEPSNTYPE
380
     0
  9
$PSTYLEMODE
290
     1
  9
$FINGERPRINTGUID
  2
{2F0DBC25-50C8-4997-8C72-7C4CAB45D108}
  9
$VERSIONGUID
  2
{FAEB1C32-E019-11D5-929B-00C0DF256EC4}
  9
$EXTNAMES
290
     1
  9
$PSVPSCALE
 40
0.0
  9
$OLESTARTUP
290
     0
  9
$SORTENTS
280
   127
  9
$INDEXCTL
280
     0
  9
$HIDETEXT
280
     1
  9
$XCLIPFRAME
280
     2
  9
$HALOGAP
280
     0
  9
$OBSCOLOR
 70
   257
  9
$OBSLTYPE
280
     0
  9
$INTERSECTIONDISPLAY
280
     0
  9
$INTERSECTIONCOLOR
 70
   257
  9
$DIMASSOC
280
     2
  9
$PROJECTNAME
  1

  9
$CAMERADISPLAY
290
     0
  9
$LENSLENGTH
 40
50.0
  9
$CAMERAHEIGHT
 40
0.0
  9
$STEPSPERSEC
 40
2.0
  9
$STEPSIZE
 40
6.0
  9
$3DDWFPREC
 40
2.0
  9
$PSOLWIDTH
 40
0.25
  9
$PSOLHEIGHT
 40
4.0
  9
$LOFTANG1
 40
1.570796326794897
  9
$LOFTANG2
 40
1.570796326794897
  9
$LOFTMAG1
 40
0.0
  9
$LOFTMAG2
 40
0.0
  9
$LOFTPARAM
 70
     7
  9
$LOFTNORMALS
280
     1
  9
$LATITUDE
 40
37.795
  9
$LONGITUDE
 40
-122.394
  9
$NORTHDIRECTION
 40
0.0
  9
$TIMEZONE
 70
 -8000
  9
$LIGHTGLYPHDISPLAY
280
     1
  9
$TILEMODELIGHTSYNCH
280
     1
  9
$CMATERIAL
347
3C
  9
$SOLIDHIST
280
     1
  9
$SHOWHIST
280
     1
  9
$DWFFRAME
280
     2
  9
$DGNFRAME
280
     2
  9
$REALWORLDSCALE
290
     1
  9
$INTERFERECOLOR
 62
   256
  9
$CSHADOW
280
     0
  9
$SHADOWPLANELOCATION
 40
0.0
  0
ENDSEC
  0
SECTION
  2
CLASSES
  0
CLASS
  1
ACDBDICTIONARYWDFLT
  2
AcDbDictionaryWithDefault
  3
ObjectDBX Classes
 90
        0
 91
        4
280
     0
281
     0
  0
CLASS
  1
VISUALSTYLE
  2
AcDbVisualStyle
  3
ObjectDBX Classes
 90
     4095
 91
        4
280
     0
281
     0
  0
CLASS
  1
MATERIAL
  2
AcDbMaterial
  3
ObjectDBX Classes
 90
     1153
 91
        4
280
     0
281
     0
  0
CLASS
  1
SUN
  2
AcDbSun
  3
SCENEOE
 90
     1024
 91
        4
280
     0
281
     0
  0
ENDSEC
  0
SECTION
  2
TABLES
  0
TABLE
  2
VPORT
  5
8
330
0
100
AcDbSymbolTable
 70
     1
  0
VPORT
  5
29
330
8
100
AcDbSymbolTableRecord
100
AcDbViewportTableRecord
  2
*Active
 70
     0
 10
0.0
 20
0.0
 11
1.0
 21
1.0
 12
0.0
 22
0.0
 13
0.0
 23
0.0
 14
0.5
 24
0.5
 15
0.5
 25
0.5
 16
0.0
 26
0.0
 36
1.0
 17
12.50068055243053
 27
-12.50068055243053
 37
0.0
 40
25.00136110486105
 41
1.0
 42
50.0
 43
0.0
 44
0.0
 50
0.0
 51
0.0
 71
     0
 72
   100
 73
     1
 74
     3
 75
     0
 76
     0
 77
     0
 78
     0
281
     0
 65
     1
110
0.0
120
0.0
130
0.0
111
1.0
121
0.0
131
0.0
112
0.0
122
1.0
132
0.0
 79
     0
146
0.0
 60
     3
 61
     5
292
     1
282
     1
141
0.0
142
0.0
 63
   250
361
3F
  0
ENDTAB
  0
TABLE
  2
LTYPE
  5
5
330
0
100
AcDbSymbolTable
 70
     1
  0
LTYPE
  5
14
330
5
100
AcDbSymbolTableRecord
100
AcDbLinetypeTableRecord
  2
ByBlock
 70
     0
  3

 72
    65
 73
     0
 40
0.0
  0
LTYPE
  5
15
330
5
100
AcDbSymbolTableRecord
100
AcDbLinetypeTableRecord
  2
ByLayer
 70
     0
  3

 72
    65
 73
     0
 40
0.0
  0
LTYPE
  5
16
330
5
100
AcDbSymbolTableRecord
100
AcDbLinetypeTableRecord
  2
Continuous
 70
     0
  3
Solid line
 72
    65
 73
     0
 40
0.0
  0
ENDTAB
  0
TABLE
  2
LAYER
  5
2
330
0
100
AcDbSymbolTable
 70
     3
  0
LAYER
  5
10
330
2
100
AcDbSymbolTableRecord
100
AcDbLayerTableRecord
  2
0
 70
     0
 62
     7
  6
Continuous
370
    -3
390
F
347
3E
  0
LAYER
  5
40
330
2
100
AcDbSymbolTableRecord
100
AcDbLayerTableRecord
  2
Dial
 70
     1
 62
     7
  6
Continuous
370
    -3
390
F
347
3E
  0
LAYER
  5
41
330
2
100
AcDbSymbolTableRecord
100
AcDbLayerTableRecord
  2
Icons
 70
     0
 62
     7
  6
Continuous
370
    -3
390
F
347
3E
  0
ENDTAB
  0
TABLE
  2
STYLE
  5
3
330
0
100
AcDbSymbolTable
 70
     1
  0
STYLE
  5
11
330
3
100
AcDbSymbolTableRecord
100
AcDbTextStyleTableRecord
  2
Standard
 70
     0
 40
0.0
 41
1.0
 50
0.0
 71
     0
 42
0.2
  3
txt
  4

  0
ENDTAB
  0
TABLE
  2
VIEW
  5
6
330
0
100
AcDbSymbolTable
 70
     0
  0
ENDTAB
  0
TABLE
  2
UCS
  5
7
330
0
100
AcDbSymbolTable
 70
     0
  0
ENDTAB
  0
TABLE
  2
APPID
  5
9
330
0
100
AcDbSymbolTable
 70
     1
  0
APPID
  5
12
330
9
100
AcDbSymbolTableRecord
100
AcDbRegAppTableRecord
  2
ACAD
 70
     0
  0
ENDTAB
  0
TABLE
  2
DIMSTYLE
  5
A
330
0
100
AcDbSymbolTable
 70
     1
100
AcDbDimStyleTable
  0
DIMSTYLE
105
27
330
A
100
AcDbSymbolTableRecord
100
AcDbDimStyleTableRecord
  2
Standard
 70
     0
178
     0
340
11
  0
ENDTAB
  0
TABLE
  2
BLOCK_RECORD
  5
1
330
0
100
AcDbSymbolTable
 70
     2
  0
BLOCK_RECORD
  5
1F
330
1
100
AcDbSymbolTableRecord
100
AcDbBlockTableRecord
  2
*Model_Space
340
22
 70
     0
280
     1
281
     0
  0
BLOCK_RECORD
  5
1B
330
1
100
AcDbSymbolTableRecord
100
AcDbBlockTableRecord
  2
*Paper_Space
340
1E
 70
     0
280
     1
281
     0
  0
BLOCK_RECORD
  5
23
330
1
100
AcDbSymbolTableRecord
100
AcDbBlockTableRecord
  2
*Paper_Space0
340
26
 70
     0
280
     1
281
     0
  0
BLOCK_RECORD
  5
42
330
1
100
AcDbSymbolTableRecord
100
AcDbBlockTableRecord
  2
block 2
340
0
102
{BLKREFS
331
43
102
}
 70
     0
280
     1
281
     0
  0
ENDTAB
  0
ENDSEC
  0
SECTION
  2
BLOCKS
  0
BLOCK
  5
20
330
1F
100
AcDbEntity
  8
0
100
AcDbBlockBegin
  2
*Model_Space
 70
     0
 10
0.0
 20
0.0
 30
0.0
  3
*Model_Space
  1

  0
ENDBLK
  5
21
330
1F
100
AcDbEntity
  8
0
100
AcDbBlockEnd
  0
BLOCK
  5
1C
330
1B
100
AcDbEntity
 67
     1
  8
0
100
AcDbBlockBegin
  2
*Paper_Space
 70
     0
 10
0.0
 20
0.0
 30
0.0
  3
*Paper_Space
  1

  0
ENDBLK
  5
1D
330
1B
100
AcDbEntity
 67
     1
  8
0
100
AcDbBlockEnd
  0
BLOCK
  5
24
330
23
100
AcDbEntity
  8
0
100
AcDbBlockBegin
  2
*Paper_Space0
 70
     0
 10
0.0
 20
0.0
 30
0.0
  3
*Paper_Space0
  1

  0
ENDBLK
  5
25
330
23
100
AcDbEntity
  8
0
100
AcDbBlockEnd
  0
BLOCK
  5
44
330
42
100
AcDbEntity
  8
0
100
AcDbBlockBegin
  2
block 2
 70
     0
 10
0.0
 20
0.0
 30
0.0
  3
block 2
  1

  0
SPLINE
  5
46
330
42
100
AcDbEntity
  8
Icons
370
     0
100
AcDbSpline
210
0.0
220
0.0
230
1.0
 70
    11
 71
     3
 72
   125
 73
   121
 74
     0
 42
0.0000000001
 43
0.0000000001
 12
1.0
 22
0.0
 32
0.0
 13
1.0
 23
0.0
 33
0.0
 40
0.0
 40
0.0
 40
0.0
 40
0.0
 40
1.0
 40
1.0
 40
1.0
 40
2.0
 40
2.0
 40
2.0
 40
3.0
 40
3.0
 40
3.0
 40
4.0
 40
4.0
 40
4.0
 40
5.0
 40
5.0
 40
5.0
 40
6.0
 40
6.0
 40
6.0
 40
7.0
 40
7.0
 40
7.0
 40
8.0
 40
8.0
 40
8.0
 40
9.0
 40
9.0
 40
9.0
 40
10.0
 40
10.0
 40
10.0
 40
11.0
 40
11.0
 40
11.0
 40
12.0
 40
12.0
 40
12.0
 40
13.0
 40
13.0
 40
13.0
 40
14.0
 40
14.0
 40
14.0
 40
15.0
 40
15.0
 40
15.0
 40
16.0
 40
16.0
 40
16.0
 40
17.0
 40
17.0
 40
17.0
 40
18.0
 40
18.0
 40
18.0
 40
19.0
 40
19.0
 40
19.0
 40
20.0
 40
20.0
 40
20.0
 40
21.0
 40
21.0
 40
21.0
 40
22.0
 40
22.0
 40
22.0
 40
23.0
 40
23.0
 40
23.0
 40
24.0
 40
24.0
 40
24.0
 40
25.0
 40
25.0
 40
25.0
 40
26.0
 40
26.0
 40
26.0
 40
27.0
 40
27.0
 40
27.0
 40
28.0
 40
28.0
 40
28.0
 40
29.0
 40
29.0
 40
29.0
 40
30.0
 40
30.0
 40
30.0
 40
31.0
 40
31.0
 40
31.0
 40
32.0
 40
32.0
 40
32.0
 40
33.0
 40
33.0
 40
33.0
 40
34.0
 40
34.0
 40
34.0
 40
35.0
 40
35.0
 40
35.0
 40
36.0
 40
36.0
 40
36.0
 40
37.0
 40
37.0
 40
37.0
 40
38.0
 40
38.0
 40
38.0
 40
39.0
 40
39.0
 40
39.0
 40
40.0
 40
40.0
 40
40.0
 40
40.0
 10
11.30589216619299
 20
-14.98143616779636
 30
0.0
 10
11.07853021082764
 20
-14.98131111712791
 30
0.0
 10
10.85217366283012
 20
-14.97098193197102
 30
0.0
 10
10.65192019122313
 20
-14.85766368459265
 30
0.0
 10
10.32686677844255
 20
-14.67372382289832
 30
0.0
 10
10.10656705953952
 20
-14.41496464607454
 30
0.0
 10
10.06212096763247
 20
-14.02145787250476
 30
0.0
 10
9.975950678338064
 20
-13.25854275618633
 30
0.0
 10
10.22199903835487
 20
-12.60846502574666
 30
0.0
 10
10.70445314307891
 20
-12.03283229210276
 30
0.0
 10
11.01942826402636
 20
-11.65702485658263
 30
0.0
 10
11.40330163435305
 20
-11.36605579569237
 30
0.0
 10
11.83164919130206
 20
-11.13147024682074
 30
0.0
 10
11.90540274127427
 20
-11.09107888113206
 30
0.0
 10
11.97415609861419
 20
-11.11313998646961
 30
0.0
 10
11.99126353016705
 20
-11.18801549103471
 30
0.0
 10
11.99768696613296
 20
-11.21612954889484
 30
0.0
 10
11.98724056681714
 20
-11.26773879315243
 30
0.0
 10
11.96756542821993
 20
-11.27895433744228
 30
0.0
 10
11.84909125844236
 20
-11.34648870087172
 30
0.0
 10
11.83780785332276
 20
-11.46262142194601
 30
0.0
 10
11.82697513080934
 20
-11.57585696914978
 30
0.0
 10
11.81998913357226
 20
-11.64888389137577
 30
0.0
 10
11.82147923732876
 20
-11.72630459386417
 30
0.0
 10
11.83819801140558
 20
-11.79727368230186
 30
0.0
 10
11.8735104859059
 20
-11.94717075060963
 30
0.0
 10
12.01272155781746
 20
-11.98483100971148
 30
0.0
 10
12.11725974771136
 20
-11.87217152925086
 30
0.0
 10
12.1678477448475
 20
-11.817653439728
 30
0.0
 10
12.20406608638567
 20
-11.74750301633
 30
0.0
 10
12.23728187802245
 20
-11.67976740469228
 30
0.0
 10
12.27547935479478
 20
-11.60187301027482
 30
0.0
 10
12.29937386965616
 20
-11.51705180926694
 30
0.0
 10
12.33614927023441
 20
-11.43835575670232
 30
0.0
 10
12.42985440414763
 20
-11.23783567707159
 30
0.0
 10
12.60240848590827
 20
-11.12843701782281
 30
0.0
 10
12.80268896846052
 20
-11.06292505715936
 30
0.0
 10
13.04410711908525
 20
-10.98395714444275
 30
0.0
 10
13.26675499774438
 20
-10.87595738532993
 30
0.0
 10
13.45681867400591
 20
-10.70473509318017
 30
0.0
 10
13.50902082516204
 20
-10.65770787212568
 30
0.0
 10
13.55401505582772
 20
-10.65588296604651
 30
0.0
 10
13.60028380289991
 20
-10.68742724709068
 30
0.0
 10
13.64561183548331
 20
-10.71833043504541
 30
0.0
 10
13.65695143003408
 20
-10.76230233481963
 30
0.0
 10
13.63620102242938
 20
-10.82772701011667
 30
0.0
 10
13.63016957862162
 20
-10.84674171445348
 30
0.0
 10
13.6186929285372
 20
-10.86553524584351
 30
0.0
 10
13.61853086287205
 20
-10.88450559887656
 30
0.0
 10
13.61834812216244
 20
-10.90582890527561
 30
0.0
 10
13.62171048451737
 20
-10.93675802040175
 30
0.0
 10
13.63537001905788
 20
-10.9459885937591
 30
0.0
 10
13.64964213513642
 20
-10.95563325156143
 30
0.0
 10
13.6835498738018
 20
-10.95217018173636
 30
0.0
 10
13.6991958798848
 20
-10.9409462173669
 30
0.0
 10
13.75371130165812
 20
-10.90183878856866
 30
0.0
 10
13.80400768063966
 20
-10.85685522889277
 30
0.0
 10
13.85595906352376
 20
-10.81416801631236
 30
0.0
 10
14.16800716517452
 20
-10.55776521090495
 30
0.0
 10
14.47946836235775
 20
-10.30063727835746
 30
0.0
 10
14.79330452182235
 20
-10.04644215912086
 30
0.0
 10
14.81759769821378
 20
-10.02676572833366
 30
0.0
 10
14.86109698983022
 20
-10.01546089786621
 30
0.0
 10
14.89134124413198
 20
-10.02159728002631
 30
0.0
 10
14.95877790130612
 20
-10.03527992809907
 30
0.0
 10
14.97496345933676
 20
-10.09154780993254
 30
0.0
 10
14.93367639739947
 20
-10.15063937752779
 30
0.0
 10
14.85973910631335
 20
-10.25646046222175
 30
0.0
 10
14.783743981437
 20
-10.36084121332516
 30
0.0
 10
14.70899369427557
 20
-10.46609731910447
 30
0.0
 10
14.37096740016877
 20
-10.94207434112409
 30
0.0
 10
14.0315925596614
 20
-11.41710648029925
 30
0.0
 10
13.6963183806525
 20
-11.89501478483322
 30
0.0
 10
13.62458865068673
 20
-11.99725971221474
 30
0.0
 10
13.56494081603828
 20
-12.10846527024393
 30
0.0
 10
13.50562978452048
 20
-12.21871794218838
 30
0.0
 10
13.47885193472719
 20
-12.26849511079371
 30
0.0
 10
13.44911588633947
 20
-12.32951666871202
 30
0.0
 10
13.5008185017621
 20
-12.38044930548961
 30
0.0
 10
13.55231036512426
 20
-12.43117402468958
 30
0.0
 10
13.61333342365129
 20
-12.40403669591193
 30
0.0
 10
13.66910702187821
 20
-12.38159376920035
 30
0.0
 10
13.69924790096221
 20
-12.36946518830212
 30
0.0
 10
13.72788417041084
 20
-12.35275291685877
 30
0.0
 10
13.7555120312755
 20
-12.33541889349694
 30
0.0
 10
13.79817331668321
 20
-12.30865304856757
 30
0.0
 10
13.84067553764255
 20
-12.29925040549233
 30
0.0
 10
13.87967233828424
 20
-12.33781069593434
 30
0.0
 10
13.91802054279551
 20
-12.37572955982029
 30
0.0
 10
13.91759003502874
 20
-12.4182903044918
 30
0.0
 10
13.89384408035989
 20
-12.46726147986034
 30
0.0
 10
13.75603624367583
 20
-12.75146463268837
 30
0.0
 10
13.56374933327554
 20
-12.98101097311724
 30
0.0
 10
13.27680106818942
 20
-13.12872115534719
 30
0.0
 10
13.09404802069903
 20
-13.22279493862906
 30
0.0
 10
12.97088078272694
 20
-13.37789678246337
 30
0.0
 10
12.90112018394324
 20
-13.57216682972019
 30
0.0
 10
12.8891139859652
 20
-13.60560171012687
 30
0.0
 10
12.88351838541686
 20
-13.64304754901826
 30
0.0
 10
12.88332830840278
 20
-13.67868532198907
 30
0.0
 10
12.88282443757965
 20
-13.77312458668758
 30
0.0
 10
12.94032340155256
 20
-13.81612667684896
 30
0.0
 10
13.03077905218016
 20
-13.78672676465611
 30
0.0
 10
13.07502031109335
 20
-13.77234793867449
 30
0.0
 10
13.11649078067666
 20
-13.74763492550737
 30
0.0
 10
13.15690582262272
 20
-13.72369922729296
 30
0.0
 10
13.22427278489243
 20
-13.68380139490872
 30
0.0
 10
13.26255229490101
 20
-13.68251687444884
 30
0.0
 10
13.31005187401236
 20
-13.72433315081122
 30
0.0
 10
13.35231366422222
 20
-13.76153789201607
 30
0.0
 10
13.35575039004037
 20
-13.80146340228199
 30
0.0
 10
13.32315284890601
 20
-13.87281931411784
 30
0.0
 10
13.20703646778462
 20
-14.12700063609676
 30
0.0
 10
13.02021677257763
 20
-14.32088019180158
 30
0.0
 10
12.79436326173543
 20
-14.47763003670315
 30
0.0
 10
12.50916770680845
 20
-14.67556390179085
 30
0.0
 10
12.20586531539306
 20
-14.84123702887483
 30
0.0
 10
11.8621275404544
 20
-14.91043539985589
 30
0.0
 10
11.67935815301047
 20
-14.9472286409964
 30
0.0
 10
11.49146985816597
 20
-14.95859324568316
 30
0.0
 10
11.30589216619299
 20
-14.98143616779636
 30
0.0
  0
HATCH
  5
47
330
42
100
AcDbEntity
  8
Icons
 62
     7
420
 16777215
100
AcDbHatch
 10
0.0
 20
0.0
 30
0.0
210
0.0
220
0.0
230
1.0
  2
SOLID
 70
     1
 71
     0
 91
        1
 92
        1
 93
        1
 72
     4
 94
        3
 73
     0
 74
     1
 95
      125
 96
      121
 40
0.0
 40
0.0
 40
0.0
 40
0.0
 40
1.0
 40
1.0
 40
1.0
 40
2.0
 40
2.0
 40
2.0
 40
3.0
 40
3.0
 40
3.0
 40
4.0
 40
4.0
 40
4.0
 40
5.0
 40
5.0
 40
5.0
 40
6.0
 40
6.0
 40
6.0
 40
7.0
 40
7.0
 40
7.0
 40
8.0
 40
8.0
 40
8.0
 40
9.0
 40
9.0
 40
9.0
 40
10.0
 40
10.0
 40
10.0
 40
11.0
 40
11.0
 40
11.0
 40
12.0
 40
12.0
 40
12.0
 40
13.0
 40
13.0
 40
13.0
 40
14.0
 40
14.0
 40
14.0
 40
15.0
 40
15.0
 40
15.0
 40
16.0
 40
16.0
 40
16.0
 40
17.0
 40
17.0
 40
17.0
 40
18.0
 40
18.0
 40
18.0
 40
19.0
 40
19.0
 40
19.0
 40
20.0
 40
20.0
 40
20.0
 40
21.0
 40
21.0
 40
21.0
 40
22.0
 40
22.0
 40
22.0
 40
23.0
 40
23.0
 40
23.0
 40
24.0
 40
24.0
 40
24.0
 40
25.0
 40
25.0
 40
25.0
 40
26.0
 40
26.0
 40
26.0
 40
27.0
 40
27.0
 40
27.0
 40
28.0
 40
28.0
 40
28.0
 40
29.0
 40
29.0
 40
29.0
 40
30.0
 40
30.0
 40
30.0
 40
31.0
 40
31.0
 40
31.0
 40
32.0
 40
32.0
 40
32.0
 40
33.0
 40
33.0
 40
33.0
 40
34.0
 40
34.0
 40
34.0
 40
35.0
 40
35.0
 40
35.0
 40
36.0
 40
36.0
 40
36.0
 40
37.0
 40
37.0
 40
37.0
 40
38.0
 40
38.0
 40
38.0
 40
39.0
 40
39.0
 40
39.0
 40
40.0
 40
40.0
 40
40.0
 40
40.0
 10
11.30589216619299
 20
-14.98143616779636
 10
11.07853021082764
 20
-14.98131111712791
 10
10.85217366283012
 20
-14.97098193197102
 10
10.65192019122313
 20
-14.85766368459265
 10
10.32686677844255
 20
-14.67372382289832
 10
10.10656705953952
 20
-14.41496464607454
 10
10.06212096763247
 20
-14.02145787250476
 10
9.975950678338064
 20
-13.25854275618633
 10
10.22199903835487
 20
-12.60846502574666
 10
10.70445314307891
 20
-12.03283229210276
 10
11.01942826402636
 20
-11.65702485658263
 10
11.40330163435305
 20
-11.36605579569237
 10
11.83164919130206
 20
-11.13147024682074
 10
11.90540274127427
 20
-11.09107888113206
 10
11.97415609861419
 20
-11.11313998646961
 10
11.99126353016705
 20
-11.18801549103471
 10
11.99768696613296
 20
-11.21612954889484
 10
11.98724056681714
 20
-11.26773879315243
 10
11.96756542821993
 20
-11.27895433744228
 10
11.84909125844236
 20
-11.34648870087172
 10
11.83780785332276
 20
-11.46262142194601
 10
11.82697513080934
 20
-11.57585696914978
 10
11.81998913357226
 20
-11.64888389137577
 10
11.82147923732876
 20
-11.72630459386417
 10
11.83819801140558
 20
-11.79727368230186
 10
11.8735104859059
 20
-11.94717075060963
 10
12.01272155781746
 20
-11.98483100971148
 10
12.11725974771136
 20
-11.87217152925086
 10
12.1678477448475
 20
-11.817653439728
 10
12.20406608638567
 20
-11.74750301633
 10
12.23728187802245
 20
-11.67976740469228
 10
12.27547935479478
 20
-11.60187301027482
 10
12.29937386965616
 20
-11.51705180926694
 10
12.33614927023441
 20
-11.43835575670232
 10
12.42985440414763
 20
-11.23783567707159
 10
12.60240848590827
 20
-11.12843701782281
 10
12.80268896846052
 20
-11.06292505715936
 10
13.04410711908525
 20
-10.98395714444275
 10
13.26675499774438
 20
-10.87595738532993
 10
13.45681867400591
 20
-10.70473509318017
 10
13.50902082516204
 20
-10.65770787212568
 10
13.55401505582772
 20
-10.65588296604651
 10
13.60028380289991
 20
-10.68742724709068
 10
13.64561183548331
 20
-10.71833043504541
 10
13.65695143003408
 20
-10.76230233481963
 10
13.63620102242938
 20
-10.82772701011667
 10
13.63016957862162
 20
-10.84674171445348
 10
13.6186929285372
 20
-10.86553524584351
 10
13.61853086287205
 20
-10.88450559887656
 10
13.61834812216244
 20
-10.90582890527561
 10
13.62171048451737
 20
-10.93675802040175
 10
13.63537001905788
 20
-10.9459885937591
 10
13.64964213513642
 20
-10.95563325156143
 10
13.6835498738018
 20
-10.95217018173636
 10
13.6991958798848
 20
-10.9409462173669
 10
13.75371130165812
 20
-10.90183878856866
 10
13.80400768063966
 20
-10.85685522889277
 10
13.85595906352376
 20
-10.81416801631236
 10
14.16800716517452
 20
-10.55776521090495
 10
14.47946836235775
 20
-10.30063727835746
 10
14.79330452182235
 20
-10.04644215912086
 10
14.81759769821378
 20
-10.02676572833366
 10
14.86109698983022
 20
-10.01546089786621
 10
14.89134124413198
 20
-10.02159728002631
 10
14.95877790130612
 20
-10.03527992809907
 10
14.97496345933676
 20
-10.09154780993254
 10
14.93367639739947
 20
-10.15063937752779
 10
14.85973910631335
 20
-10.25646046222175
 10
14.783743981437
 20
-10.36084121332516
 10
14.70899369427557
 20
-10.46609731910447
 10
14.37096740016877
 20
-10.94207434112409
 10
14.0315925596614
 20
-11.41710648029925
 10
13.6963183806525
 20
-11.89501478483322
 10
13.62458865068673
 20
-11.99725971221474
 10
13.56494081603828
 20
-12.10846527024393
 10
13.50562978452048
 20
-12.21871794218838
 10
13.47885193472719
 20
-12.26849511079371
 10
13.44911588633947
 20
-12.32951666871202
 10
13.5008185017621
 20
-12.38044930548961
 10
13.55231036512426
 20
-12.43117402468958
 10
13.61333342365129
 20
-12.40403669591193
 10
13.66910702187821
 20
-12.38159376920035
 10
13.69924790096221
 20
-12.36946518830212
 10
13.72788417041084
 20
-12.35275291685877
 10
13.7555120312755
 20
-12.33541889349694
 10
13.79817331668321
 20
-12.30865304856757
 10
13.84067553764255
 20
-12.29925040549233
 10
13.87967233828424
 20
-12.33781069593434
 10
13.91802054279551
 20
-12.37572955982029
 10
13.91759003502874
 20
-12.4182903044918
 10
13.89384408035989
 20
-12.46726147986034
 10
13.75603624367583
 20
-12.75146463268837
 10
13.56374933327554
 20
-12.98101097311724
 10
13.27680106818942
 20
-13.12872115534719
 10
13.09404802069903
 20
-13.22279493862906
 10
12.97088078272694
 20
-13.37789678246337
 10
12.90112018394324
 20
-13.57216682972019
 10
12.8891139859652
 20
-13.60560171012687
 10
12.88351838541686
 20
-13.64304754901826
 10
12.88332830840278
 20
-13.67868532198907
 10
12.88282443757965
 20
-13.77312458668758
 10
12.94032340155256
 20
-13.81612667684896
 10
13.03077905218016
 20
-13.78672676465611
 10
13.07502031109335
 20
-13.77234793867449
 10
13.11649078067666
 20
-13.74763492550737
 10
13.15690582262272
 20
-13.72369922729296
 10
13.22427278489243
 20
-13.68380139490872
 10
13.26255229490101
 20
-13.68251687444884
 10
13.31005187401236
 20
-13.72433315081122
 10
13.35231366422222
 20
-13.76153789201607
 10
13.35575039004037
 20
-13.80146340228199
 10
13.32315284890601
 20
-13.87281931411784
 10
13.20703646778462
 20
-14.12700063609676
 10
13.02021677257763
 20
-14.32088019180158
 10
12.79436326173543
 20
-14.47763003670315
 10
12.50916770680845
 20
-14.67556390179085
 10
12.20586531539306
 20
-14.84123702887483
 10
11.8621275404544
 20
-14.91043539985589
 10
11.67935815301047
 20
-14.9472286409964
 10
11.49146985816597
 20
-14.95859324568316
 10
11.30589216619299
 20
-14.98143616779636
 97
        0
 97
        0
 75
     2
 76
     1
 98
        0
  0
SPLINE
  5
48
330
42
100
AcDbEntity
  8
Icons
370
     0
100
AcDbSpline
210
0.0
220
0.0
230
1.0
 70
    11
 71
     3
 72
    29
 73
    25
 74
     0
 42
0.0000000001
 43
0.0000000001
 12
1.0
 22
0.0
 32
0.0
 13
1.0
 23
0.0
 33
0.0
 40
0.0
 40
0.0
 40
0.0
 40
0.0
 40
1.0
 40
1.0
 40
1.0
 40
2.0
 40
2.0
 40
2.0
 40
3.0
 40
3.0
 40
3.0
 40
4.0
 40
4.0
 40
4.0
 40
5.0
 40
5.0
 40
5.0
 40
6.0
 40
6.0
 40
6.0
 40
7.0
 40
7.0
 40
7.0
 40
8.0
 40
8.0
 40
8.0
 40
8.0
 10
12.23054248070044
 20
-10.7344547182493
 30
0.0
 10
12.24922238271715
 20
-10.70259881094058
 30
0.0
 10
12.26302864337551
 20
-10.6662993532035
 30
0.0
 10
12.28736800514473
 20
-10.63960345328204
 30
0.0
 10
12.4536265360901
 20
-10.45724840038336
 30
0.0
 10
12.65555401930273
 20
-10.32192465352916
 30
0.0
 10
12.87194269520367
 20
-10.20714668970643
 30
0.0
 10
12.89792322193879
 20
-10.19336581433416
 30
0.0
 10
12.9309242598953
 20
-10.18697755928901
 30
0.0
 10
12.96058427747841
 20
-10.18723462177707
 30
0.0
 10
13.01639088908224
 20
-10.18771835944428
 30
0.0
 10
13.05147877258222
 20
-10.24458410852013
 30
0.0
 10
13.0287208849227
 20
-10.29534955255414
 30
0.0
 10
13.01705682557245
 20
-10.32136859489403
 30
0.0
 10
13.00120106783651
 20
-10.34773023438006
 30
0.0
 10
12.98084548687215
 20
-10.36727953032259
 30
0.0
 10
12.8194520938411
 20
-10.5222814169895
 30
0.0
 10
12.65668080918579
 20
-10.67585189034602
 30
0.0
 10
12.49395187502433
 20
-10.82945854502953
 30
0.0
 10
12.45086341653452
 20
-10.87013160818769
 30
0.0
 10
12.40233758827566
 20
-10.89460444070432
 30
0.0
 10
12.34062908535544
 20
-10.87496073150769
 30
0.0
 10
12.28297038999517
 20
-10.85660646143065
 30
0.0
 10
12.23959648251506
 20
-10.79910341246902
 30
0.0
 10
12.23054248070044
 20
-10.7344547182493
 30
0.0
  0
HATCH
  5
49
330
42
100
AcDbEntity
  8
Icons
 62
     7
420
 16777215
100
AcDbHatch
 10
0.0
 20
0.0
 30
0.0
210
0.0
220
0.0
230
1.0
  2
SOLID
 70
     1
 71
     0
 91
        1
 92
        1
 93
        1
 72
     4
 94
        3
 73
     0
 74
     1
 95
       29
 96
       25
 40
0.0
 40
0.0
 40
0.0
 40
0.0
 40
1.0
 40
1.0
 40
1.0
 40
2.0
 40
2.0
 40
2.0
 40
3.0
 40
3.0
 40
3.0
 40
4.0
 40
4.0
 40
4.0
 40
5.0
 40
5.0
 40
5.0
 40
6.0
 40
6.0
 40
6.0
 40
7.0
 40
7.0
 40
7.0
 40
8.0
 40
8.0
 40
8.0
 40
8.0
 10
12.23054248070044
 20
-10.7344547182493
 10
12.24922238271715
 20
-10.70259881094058
 10
12.26302864337551
 20
-10.6662993532035
 10
12.28736800514473
 20
-10.63960345328204
 10
12.4536265360901
 20
-10.45724840038336
 10
12.65555401930273
 20
-10.32192465352916
 10
12.87194269520367
 20
-10.20714668970643
 10
12.89792322193879
 20
-10.19336581433416
 10
12.9309242598953
 20
-10.18697755928901
 10
12.96058427747841
 20
-10.18723462177707
 10
13.01639088908224
 20
-10.18771835944428
 10
13.05147877258222
 20
-10.24458410852013
 10
13.0287208849227
 20
-10.29534955255414
 10
13.01705682557245
 20
-10.32136859489403
 10
13.00120106783651
 20
-10.34773023438006
 10
12.98084548687215
 20
-10.36727953032259
 10
12.8194520938411
 20
-10.5222814169895
 10
12.65668080918579
 20
-10.67585189034602
 10
12.49395187502433
 20
-10.82945854502953
 10
12.45086341653452
 20
-10.87013160818769
 10
12.40233758827566
 20
-10.89460444070432
 10
12.34062908535544
 20
-10.87496073150769
 10
12.28297038999517
 20
-10.85660646143065
 10
12.23959648251506
 20
-10.79910341246902
 10
12.23054248070044
 20
-10.7344547182493
 97
        0
 97
        0
 75
     2
 76
     1
 98
        0
  0
SPLINE
  5
4A
330
42
100
AcDbEntity
  8
Icons
370
     0
100
AcDbSpline
210
0.0
220
0.0
230
1.0
 70
    11
 71
     3
 72
    32
 73
    28
 74
     0
 42
0.0000000001
 43
0.0000000001
 12
1.0
 22
0.0
 32
0.0
 13
1.0
 23
0.0
 33
0.0
 40
0.0
 40
0.0
 40
0.0
 40
0.0
 40
1.0
 40
1.0
 40
1.0
 40
2.0
 40
2.0
 40
2.0
 40
3.0
 40
3.0
 40
3.0
 40
4.0
 40
4.0
 40
4.0
 40
5.0
 40
5.0
 40
5.0
 40
6.0
 40
6.0
 40
6.0
 40
7.0
 40
7.0
 40
7.0
 40
8.0
 40
8.0
 40
8.0
 40
9.0
 40
9.0
 40
9.0
 40
9.0
 10
14.15917925496639
 20
-11.84643910304208
 30
0.0
 10
14.16473050421162
 20
-11.83363491506752
 30
0.0
 10
14.16990826879224
 20
-11.80187487993813
 30
0.0
 10
14.18822635754358
 20
-11.78260723978417
 30
0.0
 10
14.32266449556759
 20
-11.64119894427287
 30
0.0
 10
14.46685758608323
 20
-11.51188271486493
 30
0.0
 10
14.65142436845795
 20
-11.43735768563961
 30
0.0
 10
14.66316912717416
 20
-11.43261559758319
 30
0.0
 10
14.67550212423204
 20
-11.42448963845831
 30
0.0
 10
14.6870894858419
 20
-11.42523877532494
 30
0.0
 10
14.70911240904192
 20
-11.42666251886167
 30
0.0
 10
14.73680296197443
 20
-11.42694296582529
 30
0.0
 10
14.75070526154478
 20
-11.4399342295978
 30
0.0
 10
14.76173406350585
 20
-11.45024023869786
 30
0.0
 10
14.76399031102024
 20
-11.48320426165767
 30
0.0
 10
14.75585768252409
 20
-11.49852713681403
 30
0.0
 10
14.71270553156404
 20
-11.5798327467131
 30
0.0
 10
14.67255993212071
 20
-11.6645093891489
 30
0.0
 10
14.6169804125296
 20
-11.73698041947242
 30
0.0
 10
14.55216014879318
 20
-11.82150133214132
 30
0.0
 10
14.474444326729
 20
-11.89660559606115
 30
0.0
 10
14.39848221522955
 20
-11.97192144570925
 30
0.0
 10
14.35666060337067
 20
-12.01338758020229
 30
0.0
 10
14.30241429063282
 20
-12.02326841703337
 30
0.0
 10
14.24758941013815
 20
-11.99540162602537
 30
0.0
 10
14.19396534952189
 20
-11.96814558248009
 30
0.0
 10
14.16033038804775
 20
-11.92552748123531
 30
0.0
 10
14.15917925496639
 20
-11.84643910304208
 30
0.0
  0
HATCH
  5
4B
330
42
100
AcDbEntity
  8
Icons
 62
     7
420
 16777215
100
AcDbHatch
 10
0.0
 20
0.0
 30
0.0
210
0.0
220
0.0
230
1.0
  2
SOLID
 70
     1
 71
     0
 91
        1
 92
        1
 93
        1
 72
     4
 94
        3
 73
     0
 74
     1
 95
       32
 96
       28
 40
0.0
 40
0.0
 40
0.0
 40
0.0
 40
1.0
 40
1.0
 40
1.0
 40
2.0
 40
2.0
 40
2.0
 40
3.0
 40
3.0
 40
3.0
 40
4.0
 40
4.0
 40
4.0
 40
5.0
 40
5.0
 40
5.0
 40
6.0
 40
6.0
 40
6.0
 40
7.0
 40
7.0
 40
7.0
 40
8.0
 40
8.0
 40
8.0
 40
9.0
 40
9.0
 40
9.0
 40
9.0
 10
14.15917925496639
 20
-11.84643910304208
 10
14.16473050421162
 20
-11.83363491506752
 10
14.16990826879224
 20
-11.80187487993813
 10
14.18822635754358
 20
-11.78260723978417
 10
14.32266449556759
 20
-11.64119894427287
 10
14.46685758608323
 20
-11.51188271486493
 10
14.65142436845795
 20
-11.43735768563961
 10
14.66316912717416
 20
-11.43261559758319
 10
14.67550212423204
 20
-11.42448963845831
 10
14.6870894858419
 20
-11.42523877532494
 10
14.70911240904192
 20
-11.42666251886167
 10
14.73680296197443
 20
-11.42694296582529
 10
14.75070526154478
 20
-11.4399342295978
 10
14.76173406350585
 20
-11.45024023869786
 10
14.76399031102024
 20
-11.48320426165767
 10
14.75585768252409
 20
-11.49852713681403
 10
14.71270553156404
 20
-11.5798327467131
 10
14.67255993212071
 20
-11.6645093891489
 10
14.6169804125296
 20
-11.73698041947242
 10
14.55216014879318
 20
-11.82150133214132
 10
14.474444326729
 20
-11.89660559606115
 10
14.39848221522955
 20
-11.97192144570925
 10
14.35666060337067
 20
-12.01338758020229
 10
14.30241429063282
 20
-12.02326841703337
 10
14.24758941013815
 20
-11.99540162602537
 10
14.19396534952189
 20
-11.96814558248009
 10
14.16033038804775
 20
-11.92552748123531
 10
14.15917925496639
 20
-11.84643910304208
 97
        0
 97
        0
 75
     2
 76
     1
 98
        0
  0
SPLINE
  5
4C
330
42
100
AcDbEntity
  8
Icons
370
     0
100
AcDbSpline
210
0.0
220
0.0
230
1.0
 70
    11
 71
     3
 72
    26
 73
    22
 74
     0
 42
0.0000000001
 43
0.0000000001
 12
1.0
 22
0.0
 32
0.0
 13
1.0
 23
0.0
 33
0.0
 40
0.0
 40
0.0
 40
0.0
 40
0.0
 40
1.0
 40
1.0
 40
1.0
 40
2.0
 40
2.0
 40
2.0
 40
3.0
 40
3.0
 40
3.0
 40
4.0
 40
4.0
 40
4.0
 40
5.0
 40
5.0
 40
5.0
 40
6.0
 40
6.0
 40
6.0
 40
7.0
 40
7.0
 40
7.0
 40
7.0
 10
13.77103632137409
 20
-10.50361585411708
 30
0.0
 10
13.7433421002903
 20
-10.48045263555944
 30
0.0
 10
13.70929630568696
 20
-10.461817501682
 30
0.0
 10
13.68982608345123
 20
-10.43324884296093
 30
0.0
 10
13.66441111920214
 20
-10.39595831699902
 30
0.0
 10
13.66854412713851
 20
-10.34735483227574
 30
0.0
 10
13.70187396498478
 20
-10.31763133063791
 30
0.0
 10
13.76359764071965
 20
-10.26258677780325
 30
0.0
 10
13.83027432330213
 20
-10.2124419185501
 30
0.0
 10
13.89869237811627
 20
-10.16584224572652
 30
0.0
 10
13.93158537229623
 20
-10.14343904344467
 30
0.0
 10
13.97986259982691
 20
-10.14135995104311
 30
0.0
 10
14.00148536089137
 20
-10.17817169968101
 30
0.0
 10
14.01646576395398
 20
-10.20367528316936
 30
0.0
 10
14.01861896971785
 20
-10.25321556412795
 30
0.0
 10
14.00323440289667
 20
-10.27690266161546
 30
0.0
 10
13.96020296751416
 20
-10.34315675630832
 30
0.0
 10
13.90700808078863
 20
-10.4033102124908
 30
0.0
 10
13.85359610610503
 20
-10.46202525252503
 30
0.0
 10
13.83698537580604
 20
-10.48028556786824
 30
0.0
 10
13.80686517176521
 20
-10.48625673725292
 30
0.0
 10
13.77103632137409
 20
-10.50361585411708
 30
0.0
  0
HATCH
  5
4D
330
42
100
AcDbEntity
  8
Icons
 62
     7
420
 16777215
100
AcDbHatch
 10
0.0
 20
0.0
 30
0.0
210
0.0
220
0.0
230
1.0
  2
SOLID
 70
     1
 71
     0
 91
        1
 92
        1
 93
        1
 72
     4
 94
        3
 73
     0
 74
     1
 95
       26
 96
       22
 40
0.0
 40
0.0
 40
0.0
 40
0.0
 40
1.0
 40
1.0
 40
1.0
 40
2.0
 40
2.0
 40
2.0
 40
3.0
 40
3.0
 40
3.0
 40
4.0
 40
4.0
 40
4.0
 40
5.0
 40
5.0
 40
5.0
 40
6.0
 40
6.0
 40
6.0
 40
7.0
 40
7.0
 40
7.0
 40
7.0
 10
13.77103632137409
 20
-10.50361585411708
 10
13.7433421002903
 20
-10.48045263555944
 10
13.70929630568696
 20
-10.461817501682
 10
13.68982608345123
 20
-10.43324884296093
 10
13.66441111920214
 20
-10.39595831699902
 10
13.66854412713851
 20
-10.34735483227574
 10
13.70187396498478
 20
-10.31763133063791
 10
13.76359764071965
 20
-10.26258677780325
 10
13.83027432330213
 20
-10.2124419185501
 10
13.89869237811627
 20
-10.16584224572652
 10
13.93158537229623
 20
-10.14343904344467
 10
13.97986259982691
 20
-10.14135995104311
 10
14.00148536089137
 20
-10.17817169968101
 10
14.01646576395398
 20
-10.20367528316936
 10
14.01861896971785
 20
-10.25321556412795
 10
14.00323440289667
 20
-10.27690266161546
 10
13.96020296751416
 20
-10.34315675630832
 10
13.90700808078863
 20
-10.4033102124908
 10
13.85359610610503
 20
-10.46202525252503
 10
13.83698537580604
 20
-10.48028556786824
 10
13.80686517176521
 20
-10.48625673725292
 10
13.77103632137409
 20
-10.50361585411708
 97
        0
 97
        0
 75
     2
 76
     1
 98
        0
  0
ENDBLK
  5
45
330
42
100
AcDbEntity
  8
0
100
AcDbBlockEnd
  0
ENDSEC
  0
SECTION
  2
ENTITIES
  0
INSERT
  5
43
330
1F
100
AcDbEntity
  8
Icons
100
AcDbBlockReference
  2
block 2
 10
0.0
 20
0.0
 30
0.0
  0
ENDSEC
  0
SECTION
  2
OBJECTS
  0
DICTIONARY
  5
C
330
0
100
AcDbDictionary
281
     1
  3
ACAD_GROUP
350
D
  3
ACAD_LAYOUT
350
1A
  3
ACAD_MATERIAL
350
3B
  3
ACAD_MLEADERSTYLE
350
4F
  3
ACAD_MLINESTYLE
350
17
  3
ACAD_PLOTSETTINGS
350
19
  3
ACAD_PLOTSTYLENAME
350
E
  3
ACAD_TABLESTYLE
350
4E
  3
ACAD_VISUALSTYLE
350
2A
  0
SUN
  5
3F
330
29
100
AcDbSun
 90
        1
290
     0
 63
     7
421
 16777215
 40
1.0
291
     1
 91
  2455826
 92
 54000000
292
     0
 70
     2
 71
   256
280
     1
  0
DICTIONARY
  5
D
102
{ACAD_REACTORS
330
C
102
}
330
C
100
AcDbDictionary
281
     1
  0
DICTIONARY
  5
1A
102
{ACAD_REACTORS
330
C
102
}
330
C
100
AcDbDictionary
281
     1
  3
Layout1
350
1E
  3
Layout2
350
26
  3
Model
350
22
  0
DICTIONARY
  5
3B
102
{ACAD_REACTORS
330
C
102
}
330
C
100
AcDbDictionary
281
     1
  3
ByBlock
350
3D
  3
ByLayer
350
3C
  3
Global
350
3E
  0
DICTIONARY
  5
4F
102
{ACAD_REACTORS
330
C
102
}
330
C
100
AcDbDictionary
281
     1
  0
DICTIONARY
  5
17
102
{ACAD_REACTORS
330
C
102
}
330
C
100
AcDbDictionary
281
     1
  3
Standard
350
18
  0
DICTIONARY
  5
19
102
{ACAD_REACTORS
330
C
102
}
330
C
100
AcDbDictionary
281
     1
  0
ACDBDICTIONARYWDFLT
  5
E
102
{ACAD_REACTORS
330
C
102
}
330
C
100
AcDbDictionary
281
     1
  3
Normal
350
F
100
AcDbDictionaryWithDefault
340
F
  0
DICTIONARY
  5
4E
102
{ACAD_REACTORS
330
C
102
}
330
C
100
AcDbDictionary
281
     1
  0
DICTIONARY
  5
2A
102
{ACAD_REACTORS
330
C
102
}
330
C
100
AcDbDictionary
281
     1
  3
2dWireframe
350
2F
  3
3D Hidden
350
31
  3
3dWireframe
350
30
  3
Basic
350
32
  3
Brighten
350
36
  3
ColorChange
350
3A
  3
Conceptual
350
34
  3
Dim
350
35
  3
Facepattern
350
39
  3
Flat
350
2B
  3
FlatWithEdges
350
2C
  3
Gouraud
350
2D
  3
GouraudWithEdges
350
2E
  3
Linepattern
350
38
  3
Realistic
350
33
  3
Thicken
350
37
  0
LAYOUT
  5
1E
102
{ACAD_REACTORS
330
1A
102
}
330
1A
100
AcDbPlotSettings
  1

  2
none_device
  4

  6

 40
0.0
 41
0.0
 42
0.0
 43
0.0
 44
0.0
 45
0.0
 46
0.0
 47
0.0
 48
0.0
 49
0.0
140
0.0
141
0.0
142
1.0
143
1.0
 70
   688
 72
     0
 73
     0
 74
     5
  7

 75
    16
 76
     0
 77
     2
 78
   300
147
1.0
148
0.0
149
0.0
100
AcDbLayout
  1
Layout1
 70
     1
 71
     1
 10
0.0
 20
0.0
 11
12.0
 21
9.0
 12
0.0
 22
0.0
 32
0.0
 14
1.000000000000000E+20
 24
1.000000000000000E+20
 34
1.000000000000000E+20
 15
-1.000000000000000E+20
 25
-1.000000000000000E+20
 35
-1.000000000000000E+20
146
0.0
 13
0.0
 23
0.0
 33
0.0
 16
1.0
 26
0.0
 36
0.0
 17
0.0
 27
1.0
 37
0.0
 76
     0
330
1B
  0
LAYOUT
  5
26
102
{ACAD_REACTORS
330
1A
102
}
330
1A
100
AcDbPlotSettings
  1

  2
none_device
  4

  6

 40
0.0
 41
0.0
 42
0.0
 43
0.0
 44
0.0
 45
0.0
 46
0.0
 47
0.0
 48
0.0
 49
0.0
140
0.0
141
0.0
142
1.0
143
1.0
 70
   688
 72
     0
 73
     0
 74
     5
  7

 75
    16
 76
     0
 77
     2
 78
   300
147
1.0
148
0.0
149
0.0
100
AcDbLayout
  1
Layout2
 70
     1
 71
     2
 10
0.0
 20
0.0
 11
0.0
 21
0.0
 12
0.0
 22
0.0
 32
0.0
 14
0.0
 24
0.0
 34
0.0
 15
0.0
 25
0.0
 35
0.0
146
0.0
 13
0.0
 23
0.0
 33
0.0
 16
1.0
 26
0.0
 36
0.0
 17
0.0
 27
1.0
 37
0.0
 76
     0
330
23
  0
LAYOUT
  5
22
102
{ACAD_REACTORS
330
1A
102
}
330
1A
100
AcDbPlotSettings
  1

  2
none_device
  4

  6

 40
0.0
 41
0.0
 42
0.0
 43
0.0
 44
0.0
 45
0.0
 46
0.0
 47
0.0
 48
0.0
 49
0.0
140
0.0
141
0.0
142
1.0
143
1.0
 70
  1712
 72
     0
 73
     0
 74
     0
  7

 75
     0
 76
     0
 77
     2
 78
   300
147
1.0
148
0.0
149
0.0
100
AcDbLayout
  1
Model
 70
     1
 71
     0
 10
0.0
 20
0.0
 11
12.0
 21
9.0
 12
0.0
 22
0.0
 32
0.0
 14
1.000000000000000E+20
 24
1.000000000000000E+20
 34
1.000000000000000E+20
 15
-1.000000000000000E+20
 25
-1.000000000000000E+20
 35
-1.000000000000000E+20
146
0.0
 13
0.0
 23
0.0
 33
0.0
 16
1.0
 26
0.0
 36
0.0
 17
0.0
 27
1.0
 37
0.0
 76
     0
330
1F
331
29
  0
MATERIAL
  5
3D
102
{ACAD_REACTORS
330
3B
102
}
330
3B
100
AcDbMaterial
  1
ByBlock
 72
     1
 94
      127
  0
MATERIAL
  5
3C
102
{ACAD_REACTORS
330
3B
102
}
330
3B
100
AcDbMaterial
  1
ByLayer
 72
     1
 94
      127
  0
MATERIAL
  5
3E
102
{ACAD_REACTORS
330
3B
102
}
330
3B
100
AcDbMaterial
  1
Global
 72
     1
 94
      127
  0
MLINESTYLE
  5
18
102
{ACAD_REACTORS
330
17
102
}
330
17
100
AcDbMlineStyle
  2
Standard
 70
     0
  3

 62
   256
 51
90.0
 52
90.0
 71
     2
 49
0.5
 62
   256
  6
BYLAYER
 49
-0.5
 62
   256
  6
BYLAYER
  0
ACDBPLACEHOLDER
  5
F
102
{ACAD_REACTORS
330
E
102
}
330
E
  0
VISUALSTYLE
  5
2F
102
{ACAD_REACTORS
330
2A
102
}
330
2A
100
AcDbVisualStyle
  2
2dWireframe
 70
     4
177
     2
291
     0
 71
     0
176
     1
 72
     2
176
     1
 73
     0
176
     1
 90
        0
176
     1
 40
-0.6
176
     1
 41
-30.0
176
     1
 62
     5
 63
     7
421
 16777215
176
     1
 74
     1
176
     1
 91
        4
176
     1
 64
     7
176
     1
 65
   257
176
     1
 75
     1
176
     1
175
     1
176
     1
 42
1.0
176
     1
 92
        0
176
     1
 66
   257
176
     1
 43
1.0
176
     1
 76
     1
176
     1
 77
     6
176
     1
 78
     2
176
     1
 67
     7
176
     1
 79
     5
176
     1
170
     0
176
     1
171
     0
176
     1
290
     0
176
     1
 93
        1
176
     1
 44
0.0
176
     1
173
     0
176
     1
  0
VISUALSTYLE
  5
31
102
{ACAD_REACTORS
330
2A
102
}
330
2A
100
AcDbVisualStyle
  2
3D Hidden
 70
     6
177
     2
291
     0
 71
     1
176
     1
 72
     2
176
     1
 73
     2
176
     1
 90
        0
176
     1
 40
-0.6
176
     1
 41
-30.0
176
     1
 62
     5
 63
     7
421
 16777215
176
     1
 74
     2
176
     1
 91
        2
176
     1
 64
     7
176
     1
 65
   257
176
     1
 75
     2
176
     1
175
     1
176
     1
 42
40.0
176
     1
 92
        0
176
     1
 66
   257
176
     1
 43
1.0
176
     1
 76
     1
176
     1
 77
     6
176
     1
 78
     2
176
     1
 67
     7
176
     1
 79
     3
176
     1
170
     0
176
     1
171
     0
176
     1
290
     0
176
     1
 93
        1
176
     1
 44
0.0
176
     1
173
     0
176
     1
  0
VISUALSTYLE
  5
30
102
{ACAD_REACTORS
330
2A
102
}
330
2A
100
AcDbVisualStyle
  2
3dWireframe
 70
     5
177
     2
291
     0
 71
     0
176
     1
 72
     2
176
     1
 73
     0
176
     1
 90
        0
176
     1
 40
-0.6
176
     1
 41
-30.0
176
     1
 62
     5
 63
     7
421
 16777215
176
     1
 74
     1
176
     1
 91
        4
176
     1
 64
     7
176
     1
 65
   257
176
     1
 75
     1
176
     1
175
     1
176
     1
 42
1.0
176
     1
 92
        0
176
     1
 66
   257
176
     1
 43
1.0
176
     1
 76
     1
176
     1
 77
     6
176
     1
 78
     2
176
     1
 67
     7
176
     1
 79
     5
176
     1
170
     0
176
     1
171
     0
176
     1
290
     0
176
     1
 93
        1
176
     1
 44
0.0
176
     1
173
     0
176
     1
  0
VISUALSTYLE
  5
32
102
{ACAD_REACTORS
330
2A
102
}
330
2A
100
AcDbVisualStyle
  2
Basic
 70
     7
177
     2
291
     1
 71
     1
176
     1
 72
     0
176
     1
 73
     1
176
     1
 90
        0
176
     1
 40
-0.6
176
     1
 41
-30.0
176
     1
 62
     5
 63
     7
421
 16777215
176
     1
 74
     0
176
     1
 91
        4
176
     1
 64
     7
176
     1
 65
   257
176
     1
 75
     1
176
     1
175
     1
176
     1
 42
1.0
176
     1
 92
        8
176
     1
 66
     7
176
     1
 43
1.0
176
     1
 76
     1
176
     1
 77
     6
176
     1
 78
     2
176
     1
 67
     7
176
     1
 79
     5
176
     1
170
     0
176
     1
171
     0
176
     1
290
     0
176
     1
 93
        1
176
     1
 44
0.0
176
     1
173
     0
176
     1
  0
VISUALSTYLE
  5
36
102
{ACAD_REACTORS
330
2A
102
}
330
2A
100
AcDbVisualStyle
  2
Brighten
 70
    12
177
     2
291
     1
 71
     2
176
     1
 72
     2
176
     1
 73
     0
176
     1
 90
        0
176
     1
 40
-0.6
176
     1
 41
-30.0
176
     1
 62
     5
 63
     7
421
 16777215
176
     1
 74
     1
176
     1
 91
        4
176
     1
 64
     7
176
     1
 65
   257
176
     1
 75
     1
176
     1
175
     1
176
     1
 42
1.0
176
     1
 92
        8
176
     1
 66
     7
176
     1
 43
1.0
176
     1
 76
     1
176
     1
 77
     6
176
     1
 78
     2
176
     1
 67
     7
176
     1
 79
     5
176
     1
170
     0
176
     1
171
     0
176
     1
290
     0
176
     1
 93
        1
176
     1
 44
50.0
176
     1
173
     0
176
     1
  0
VISUALSTYLE
  5
3A
102
{ACAD_REACTORS
330
2A
102
}
330
2A
100
AcDbVisualStyle
  2
ColorChange
 70
    16
177
     2
291
     1
 71
     2
176
     1
 72
     2
176
     1
 73
     3
176
     1
 90
        0
176
     1
 40
-0.6
176
     1
 41
-30.0
176
     1
 62
     5
 63
     8
421
  8421504
176
     1
 74
     1
176
     1
 91
        4
176
     1
 64
     7
176
     1
 65
   257
176
     1
 75
     1
176
     1
175
     1
176
     1
 42
1.0
176
     1
 92
        8
176
     1
 66
     8
424
  8421504
176
     1
 43
1.0
176
     1
 76
     1
176
     1
 77
     6
176
     1
 78
     2
176
     1
 67
     7
176
     1
 79
     5
176
     1
170
     0
176
     1
171
     0
176
     1
290
     0
176
     1
 93
        1
176
     1
 44
0.0
176
     1
173
     0
176
     1
  0
VISUALSTYLE
  5
34
102
{ACAD_REACTORS
330
2A
102
}
330
2A
100
AcDbVisualStyle
  2
Conceptual
 70
     9
177
     2
291
     0
 71
     3
176
     1
 72
     2
176
     1
 73
     0
176
     1
 90
        0
176
     1
 40
-0.6
176
     1
 41
-30.0
176
     1
 62
     5
 63
     7
421
 16777215
176
     1
 74
     2
176
     1
 91
        2
176
     1
 64
     7
176
     1
 65
   257
176
     1
 75
     1
176
     1
175
     1
176
     1
 42
40.0
176
     1
 92
        8
176
     1
 66
     7
176
     1
 43
1.0
176
     1
 76
     1
176
     1
 77
     6
176
     1
 78
     2
176
     1
 67
     7
176
     1
 79
     3
176
     1
170
     0
176
     1
171
     0
176
     1
290
     0
176
     1
 93
        1
176
     1
 44
0.0
176
     1
173
     0
176
     1
  0
VISUALSTYLE
  5
35
102
{ACAD_REACTORS
330
2A
102
}
330
2A
100
AcDbVisualStyle
  2
Dim
 70
    11
177
     2
291
     1
 71
     2
176
     1
 72
     2
176
     1
 73
     0
176
     1
 90
        0
176
     1
 40
-0.6
176
     1
 41
-30.0
176
     1
 62
     5
 63
     7
421
 16777215
176
     1
 74
     1
176
     1
 91
        4
176
     1
 64
     7
176
     1
 65
   257
176
     1
 75
     1
176
     1
175
     1
176
     1
 42
1.0
176
     1
 92
        8
176
     1
 66
     7
176
     1
 43
1.0
176
     1
 76
     1
176
     1
 77
     6
176
     1
 78
     2
176
     1
 67
     7
176
     1
 79
     5
176
     1
170
     0
176
     1
171
     0
176
     1
290
     0
176
     1
 93
        1
176
     1
 44
-50.0
176
     1
173
     0
176
     1
  0
VISUALSTYLE
  5
39
102
{ACAD_REACTORS
330
2A
102
}
330
2A
100
AcDbVisualStyle
  2
Facepattern
 70
    15
177
     2
291
     1
 71
     2
176
     1
 72
     2
176
     1
 73
     0
176
     1
 90
        0
176
     1
 40
-0.6
176
     1
 41
-30.0
176
     1
 62
     5
 63
     7
421
 16777215
176
     1
 74
     1
176
     1
 91
        4
176
     1
 64
     7
176
     1
 65
   257
176
     1
 75
     1
176
     1
175
     1
176
     1
 42
1.0
176
     1
 92
        8
176
     1
 66
     7
176
     1
 43
1.0
176
     1
 76
     1
176
     1
 77
     6
176
     1
 78
     2
176
     1
 67
     7
176
     1
 79
     5
176
     1
170
     0
176
     1
171
     0
176
     1
290
     0
176
     1
 93
        1
176
     1
 44
0.0
176
     1
173
     0
176
     1
  0
VISUALSTYLE
  5
2B
102
{ACAD_REACTORS
330
2A
102
}
330
2A
100
AcDbVisualStyle
  2
Flat
 70
     0
177
     2
291
     1
 71
     2
176
     1
 72
     1
176
     1
 73
     1
176
     1
 90
        2
176
     1
 40
-0.6
176
     1
 41
30.0
176
     1
 62
     5
 63
     7
421
 16777215
176
     1
 74
     0
176
     1
 91
        4
176
     1
 64
     7
176
     1
 65
   257
176
     1
 75
     1
176
     1
175
     1
176
     1
 42
1.0
176
     1
 92
        8
176
     1
 66
     7
176
     1
 43
1.0
176
     1
 76
     1
176
     1
 77
     6
176
     1
 78
     2
176
     1
 67
     7
176
     1
 79
     5
176
     1
170
     0
176
     1
171
     0
176
     1
290
     0
176
     1
 93
       13
176
     1
 44
0.0
176
     1
173
     0
176
     1
  0
VISUALSTYLE
  5
2C
102
{ACAD_REACTORS
330
2A
102
}
330
2A
100
AcDbVisualStyle
  2
FlatWithEdges
 70
     1
177
     2
291
     1
 71
     2
176
     1
 72
     1
176
     1
 73
     1
176
     1
 90
        2
176
     1
 40
-0.6
176
     1
 41
30.0
176
     1
 62
     5
 63
     7
421
 16777215
176
     1
 74
     1
176
     1
 91
        4
176
     1
 64
     7
176
     1
 65
   257
176
     1
 75
     1
176
     1
175
     1
176
     1
 42
1.0
176
     1
 92
        0
176
     1
 66
   257
176
     1
 43
1.0
176
     1
 76
     1
176
     1
 77
     6
176
     1
 78
     2
176
     1
 67
     7
176
     1
 79
     5
176
     1
170
     0
176
     1
171
     0
176
     1
290
     0
176
     1
 93
       13
176
     1
 44
0.0
176
     1
173
     0
176
     1
  0
VISUALSTYLE
  5
2D
102
{ACAD_REACTORS
330
2A
102
}
330
2A
100
AcDbVisualStyle
  2
Gouraud
 70
     2
177
     2
291
     1
 71
     2
176
     1
 72
     2
176
     1
 73
     1
176
     1
 90
        2
176
     1
 40
-0.6
176
     1
 41
30.0
176
     1
 62
     5
 63
     7
421
 16777215
176
     1
 74
     0
176
     1
 91
        4
176
     1
 64
     7
176
     1
 65
   257
176
     1
 75
     1
176
     1
175
     1
176
     1
 42
1.0
176
     1
 92
        0
176
     1
 66
     7
176
     1
 43
1.0
176
     1
 76
     1
176
     1
 77
     6
176
     1
 78
     2
176
     1
 67
     7
176
     1
 79
     5
176
     1
170
     0
176
     1
171
     0
176
     1
290
     0
176
     1
 93
       13
176
     1
 44
0.0
176
     1
173
     0
176
     1
  0
VISUALSTYLE
  5
2E
102
{ACAD_REACTORS
330
2A
102
}
330
2A
100
AcDbVisualStyle
  2
GouraudWithEdges
 70
     3
177
     2
291
     1
 71
     2
176
     1
 72
     2
176
     1
 73
     1
176
     1
 90
        2
176
     1
 40
-0.6
176
     1
 41
30.0
176
     1
 62
     5
 63
     7
421
 16777215
176
     1
 74
     1
176
     1
 91
        4
176
     1
 64
     7
176
     1
 65
   257
176
     1
 75
     1
176
     1
175
     1
176
     1
 42
1.0
176
     1
 92
        0
176
     1
 66
   257
176
     1
 43
1.0
176
     1
 76
     1
176
     1
 77
     6
176
     1
 78
     2
176
     1
 67
     7
176
     1
 79
     5
176
     1
170
     0
176
     1
171
     0
176
     1
290
     0
176
     1
 93
       13
176
     1
 44
0.0
176
     1
173
     0
176
     1
  0
VISUALSTYLE
  5
38
102
{ACAD_REACTORS
330
2A
102
}
330
2A
100
AcDbVisualStyle
  2
Linepattern
 70
    14
177
     2
291
     1
 71
     2
176
     1
 72
     2
176
     1
 73
     0
176
     1
 90
        0
176
     1
 40
-0.6
176
     1
 41
-30.0
176
     1
 62
     5
 63
     7
421
 16777215
176
     1
 74
     1
176
     1
 91
        4
176
     1
 64
     7
176
     1
 65
   257
176
     1
 75
     7
176
     1
175
     7
176
     1
 42
1.0
176
     1
 92
        8
176
     1
 66
     7
176
     1
 43
1.0
176
     1
 76
     1
176
     1
 77
     6
176
     1
 78
     2
176
     1
 67
     7
176
     1
 79
     5
176
     1
170
     0
176
     1
171
     0
176
     1
290
     0
176
     1
 93
        1
176
     1
 44
0.0
176
     1
173
     0
176
     1
  0
VISUALSTYLE
  5
33
102
{ACAD_REACTORS
330
2A
102
}
330
2A
100
AcDbVisualStyle
  2
Realistic
 70
     8
177
     2
291
     0
 71
     2
176
     1
 72
     2
176
     1
 73
     0
176
     1
 90
        0
176
     1
 40
-0.6
176
     1
 41
-30.0
176
     1
 62
     5
 63
     7
421
 16777215
176
     1
 74
     1
176
     1
 91
        0
176
     1
 64
     7
176
     1
 65
   257
176
     1
 75
     1
176
     1
175
     1
176
     1
 42
1.0
176
     1
 92
        8
176
     1
 66
     8
424
  7895160
176
     1
 43
1.0
176
     1
 76
     1
176
     1
 77
     6
176
     1
 78
     2
176
     1
 67
     7
176
     1
 79
     5
176
     1
170
     0
176
     1
171
     0
176
     1
290
     0
176
     1
 93
       13
176
     1
 44
0.0
176
     1
173
     0
176
     1
  0
VISUALSTYLE
  5
37
102
{ACAD_REACTORS
330
2A
102
}
330
2A
100
AcDbVisualStyle
  2
Thicken
 70
    13
177
     2
291
     1
 71
     2
176
     1
 72
     2
176
     1
 73
     0
176
     1
 90
        0
176
     1
 40
-0.6
176
     1
 41
-30.0
176
     1
 62
     5
 63
     7
421
 16777215
176
     1
 74
     1
176
     1
 91
        4
176
     1
 64
     7
176
     1
 65
   257
176
     1
 75
     1
176
     1
175
     1
176
     1
 42
1.0
176
     1
 92
       12
176
     1
 66
     7
176
     1
 43
1.0
176
     1
 76
     1
176
     1
 77
     6
176
     1
 78
     2
176
     1
 67
     7
176
     1
 79
     5
176
     1
170
     0
176
     1
171
     0
176
     1
290
     0
176
     1
 93
        1
176
     1
 44
0.0
176
     1
173
     0
176
     1
  0
ENDSEC
  0
EOF
