  0
SECTION
  2
HEADER
  9
$ACADVER
  1
AC1024
  9
$ACADMAINTVER
 70
     6
  9
$DWGCODEPAGE
  3
ANSI_1252
  9
$INSBASE
 10
0.0
 20
0.0
 30
0.0
  9
$EXTMIN
 10
1.000000000000000E+20
 20
1.000000000000000E+20
 30
1.000000000000000E+20
  9
$EXTMAX
 10
-1.000000000000000E+20
 20
-1.000000000000000E+20
 30
-1.000000000000000E+20
  9
$LIMMIN
 10
0.0
 20
0.0
  9
$LIMMAX
 10
12.0
 20
9.0
  9
$ORTHOMODE
 70
     0
  9
$REGENMODE
 70
     1
  9
$FILLMODE
 70
     1
  9
$QTEXTMODE
 70
     0
  9
$MIRRTEXT
 70
     1
  9
$LTSCALE
 40
1.0
  9
$ATTMODE
 70
     1
  9
$TEXTSIZE
 40
0.2
  9
$TRACEWID
 40
0.05
  9
$TEXTSTYLE
  7
Standard
  9
$CLAYER
  8
0
  9
$CELTYPE
  6
ByLayer
  9
$CECOLOR
 62
   256
  9
$CELTSCALE
 40
1.0
  9
$DISPSILH
 70
     0
  9
$DIMSCALE
 40
1.0
  9
$DIMASZ
 40
0.18
  9
$DIMEXO
 40
0.0625
  9
$DIMDLI
 40
0.38
  9
$DIMRND
 40
0.0
  9
$DIMDLE
 40
0.0
  9
$DIMEXE
 40
0.18
  9
$DIMTP
 40
0.0
  9
$DIMTM
 40
0.0
  9
$DIMTXT
 40
0.18
  9
$DIMCEN
 40
0.09
  9
$DIMTSZ
 40
0.0
  9
$DIMTOL
 70
     0
  9
$DIMLIM
 70
     0
  9
$DIMTIH
 70
     1
  9
$DIMTOH
 70
     1
  9
$DIMSE1
 70
     0
  9
$DIMSE2
 70
     0
  9
$DIMTAD
 70
     0
  9
$DIMZIN
 70
     0
  9
$DIMBLK
  1

  9
$DIMASO
 70
     1
  9
$DIMSHO
 70
     1
  9
$DIMPOST
  1

  9
$DIMAPOST
  1

  9
$DIMALT
 70
     0
  9
$DIMALTD
 70
     2
  9
$DIMALTF
 40
25.4
  9
$DIMLFAC
 40
1.0
  9
$DIMTOFL
 70
     0
  9
$DIMTVP
 40
0.0
  9
$DIMTIX
 70
     0
  9
$DIMSOXD
 70
     0
  9
$DIMSAH
 70
     0
  9
$DIMBLK1
  1

  9
$DIMBLK2
  1

  9
$DIMSTYLE
  2
Standard
  9
$DIMCLRD
 70
     0
  9
$DIMCLRE
 70
     0
  9
$DIMCLRT
 70
     0
  9
$DIMTFAC
 40
1.0
  9
$DIMGAP
 40
0.09
  9
$DIMJUST
 70
     0
  9
$DIMSD1
 70
     0
  9
$DIMSD2
 70
     0
  9
$DIMTOLJ
 70
     1
  9
$DIMTZIN
 70
     0
  9
$DIMALTZ
 70
     0
  9
$DIMALTTZ
 70
     0
  9
$DIMUPT
 70
     0
  9
$DIMDEC
 70
     4
  9
$DIMTDEC
 70
     4
  9
$DIMALTU
 70
     2
  9
$DIMALTTD
 70
     2
  9
$DIMTXSTY
  7
Standard
  9
$DIMAUNIT
 70
     0
  9
$DIMADEC
 70
     0
  9
$DIMALTRND
 40
0.0
  9
$DIMAZIN
 70
     0
  9
$DIMDSEP
 70
    46
  9
$DIMATFIT
 70
     3
  9
$DIMFRAC
 70
     0
  9
$DIMLDRBLK
  1

  9
$DIMLUNIT
 70
     2
  9
$DIMLWD
 70
    -2
  9
$DIMLWE
 70
    -2
  9
$DIMTMOVE
 70
     0
  9
$DIMFXL
 40
1.0
  9
$DIMFXLON
 70
     0
  9
$DIMJOGANG
 40
0.7853981633974483
  9
$DIMTFILL
 70
     0
  9
$DIMTFILLCLR
 70
     0
  9
$DIMARCSYM
 70
     0
  9
$DIMLTYPE
  6

  9
$DIMLTEX1
  6

  9
$DIMLTEX2
  6

  9
$DIMTXTDIRECTION
 70
     0
  9
$LUNITS
 70
     2
  9
$LUPREC
 70
     4
  9
$SKETCHINC
 40
0.1
  9
$FILLETRAD
 40
0.5
  9
$AUNITS
 70
     0
  9
$AUPREC
 70
     0
  9
$MENU
  1
.
  9
$ELEVATION
 40
0.0
  9
$PELEVATION
 40
0.0
  9
$THICKNESS
 40
0.0
  9
$LIMCHECK
 70
     0
  9
$CHAMFERA
 40
0.5
  9
$CHAMFERB
 40
0.5
  9
$CHAMFERC
 40
1.0
  9
$CHAMFERD
 40
0.0
  9
$SKPOLY
 70
     0
  9
$TDCREATE
 40
2459961.835167697
  9
$TDUCREATE
 40
2459961.79350103
  9
$TDUPDATE
 40
2459961.835167894
  9
$TDUUPDATE
 40
2459961.793501227
  9
$TDINDWG
 40
0.0000000116
  9
$TDUSRTIMER
 40
0.0000000116
  9
$USRTIMER
 70
     1
  9
$ANGBASE
 50
0.0
  9
$ANGDIR
 70
     0
  9
$PDMODE
 70
     0
  9
$PDSIZE
 40
0.0
  9
$PLINEWID
 40
0.0
  9
$SPLFRAME
 70
     0
  9
$SPLINETYPE
 70
     6
  9
$SPLINESEGS
 70
     8
  9
$HANDSEED
  5
BE
  9
$SURFTAB1
 70
     6
  9
$SURFTAB2
 70
     6
  9
$SURFTYPE
 70
     6
  9
$SURFU
 70
     6
  9
$SURFV
 70
     6
  9
$UCSBASE
  2

  9
$UCSNAME
  2

  9
$UCSORG
 10
0.0
 20
0.0
 30
0.0
  9
$UCSXDIR
 10
1.0
 20
0.0
 30
0.0
  9
$UCSYDIR
 10
0.0
 20
1.0
 30
0.0
  9
$UCSORTHOREF
  2

  9
$UCSORTHOVIEW
 70
     0
  9
$UCSORGTOP
 10
0.0
 20
0.0
 30
0.0
  9
$UCSORGBOTTOM
 10
0.0
 20
0.0
 30
0.0
  9
$UCSORGLEFT
 10
0.0
 20
0.0
 30
0.0
  9
$UCSORGRIGHT
 10
0.0
 20
0.0
 30
0.0
  9
$UCSORGFRONT
 10
0.0
 20
0.0
 30
0.0
  9
$UCSORGBACK
 10
0.0
 20
0.0
 30
0.0
  9
$PUCSBASE
  2

  9
$PUCSNAME
  2

  9
$PUCSORG
 10
0.0
 20
0.0
 30
0.0
  9
$PUCSXDIR
 10
1.0
 20
0.0
 30
0.0
  9
$PUCSYDIR
 10
0.0
 20
1.0
 30
0.0
  9
$PUCSORTHOREF
  2

  9
$PUCSORTHOVIEW
 70
     0
  9
$PUCSORGTOP
 10
0.0
 20
0.0
 30
0.0
  9
$PUCSORGBOTTOM
 10
0.0
 20
0.0
 30
0.0
  9
$PUCSORGLEFT
 10
0.0
 20
0.0
 30
0.0
  9
$PUCSORGRIGHT
 10
0.0
 20
0.0
 30
0.0
  9
$PUCSORGFRONT
 10
0.0
 20
0.0
 30
0.0
  9
$PUCSORGBACK
 10
0.0
 20
0.0
 30
0.0
  9
$USERI1
 70
     0
  9
$USERI2
 70
     0
  9
$USERI3
 70
     0
  9
$USERI4
 70
     0
  9
$USERI5
 70
     0
  9
$USERR1
 40
0.0
  9
$USERR2
 40
0.0
  9
$USERR3
 40
0.0
  9
$USERR4
 40
0.0
  9
$USERR5
 40
0.0
  9
$WORLDVIEW
 70
     1
  9
$SHADEDGE
 70
     3
  9
$SHADEDIF
 70
    70
  9
$TILEMODE
 70
     1
  9
$MAXACTVP
 70
    64
  9
$PINSBASE
 10
0.0
 20
0.0
 30
0.0
  9
$PLIMCHECK
 70
     0
  9
$PEXTMIN
 10
1.000000000000000E+20
 20
1.000000000000000E+20
 30
1.000000000000000E+20
  9
$PEXTMAX
 10
-1.000000000000000E+20
 20
-1.000000000000000E+20
 30
-1.000000000000000E+20
  9
$PLIMMIN
 10
0.0
 20
0.0
  9
$PLIMMAX
 10
12.0
 20
9.0
  9
$UNITMODE
 70
     0
  9
$VISRETAIN
 70
     1
  9
$PLINEGEN
 70
     0
  9
$PSLTSCALE
 70
     1
  9
$TREEDEPTH
 70
  3020
  9
$CMLSTYLE
  2
Standard
  9
$CMLJUST
 70
     0
  9
$CMLSCALE
 40
1.0
  9
$PROXYGRAPHICS
 70
     1
  9
$MEASUREMENT
 70
     0
  9
$CELWEIGHT
370
    -1
  9
$ENDCAPS
280
     0
  9
$JOINSTYLE
280
     0
  9
$LWDISPLAY
290
     1
  9
$INSUNITS
 70
     1
  9
$HYPERLINKBASE
  1

  9
$STYLESHEET
  1

  9
$XEDIT
290
     1
  9
$CEPSNTYPE
380
     0
  9
$PSTYLEMODE
290
     1
  9
$FINGERPRINTGUID
  2
{6072B464-1FBF-4B7E-9E99-4BB02624720F}
  9
$VERSIONGUID
  2
{FAEB1C32-E019-11D5-929B-00C0DF256EC4}
  9
$EXTNAMES
290
     1
  9
$PSVPSCALE
 40
0.0
  9
$OLESTARTUP
290
     0
  9
$SORTENTS
280
   127
  9
$INDEXCTL
280
     0
  9
$HIDETEXT
280
     1
  9
$XCLIPFRAME
280
     2
  9
$HALOGAP
280
     0
  9
$OBSCOLOR
 70
   257
  9
$OBSLTYPE
280
     0
  9
$INTERSECTIONDISPLAY
280
     0
  9
$INTERSECTIONCOLOR
 70
   257
  9
$DIMASSOC
280
     2
  9
$PROJECTNAME
  1

  9
$CAMERADISPLAY
290
     0
  9
$LENSLENGTH
 40
50.0
  9
$CAMERAHEIGHT
 40
0.0
  9
$STEPSPERSEC
 40
2.0
  9
$STEPSIZE
 40
6.0
  9
$3DDWFPREC
 40
2.0
  9
$PSOLWIDTH
 40
0.25
  9
$PSOLHEIGHT
 40
4.0
  9
$LOFTANG1
 40
1.570796326794897
  9
$LOFTANG2
 40
1.570796326794897
  9
$LOFTMAG1
 40
0.0
  9
$LOFTMAG2
 40
0.0
  9
$LOFTPARAM
 70
     7
  9
$LOFTNORMALS
280
     1
  9
$LATITUDE
 40
37.795
  9
$LONGITUDE
 40
-122.394
  9
$NORTHDIRECTION
 40
0.0
  9
$TIMEZONE
 70
 -8000
  9
$LIGHTGLYPHDISPLAY
280
     1
  9
$TILEMODELIGHTSYNCH
280
     1
  9
$CMATERIAL
347
3C
  9
$SOLIDHIST
280
     1
  9
$SHOWHIST
280
     1
  9
$DWFFRAME
280
     2
  9
$DGNFRAME
280
     2
  9
$REALWORLDSCALE
290
     1
  9
$INTERFERECOLOR
 62
   256
  9
$CSHADOW
280
     0
  9
$SHADOWPLANELOCATION
 40
0.0
  0
ENDSEC
  0
SECTION
  2
CLASSES
  0
CLASS
  1
ACDBDICTIONARYWDFLT
  2
AcDbDictionaryWithDefault
  3
ObjectDBX Classes
 90
        0
 91
        4
280
     0
281
     0
  0
CLASS
  1
VISUALSTYLE
  2
AcDbVisualStyle
  3
ObjectDBX Classes
 90
     4095
 91
        4
280
     0
281
     0
  0
CLASS
  1
MATERIAL
  2
AcDbMaterial
  3
ObjectDBX Classes
 90
     1153
 91
        4
280
     0
281
     0
  0
CLASS
  1
SUN
  2
AcDbSun
  3
SCENEOE
 90
     1024
 91
        4
280
     0
281
     0
  0
ENDSEC
  0
SECTION
  2
TABLES
  0
TABLE
  2
VPORT
  5
8
330
0
100
AcDbSymbolTable
 70
     1
  0
VPORT
  5
29
330
8
100
AcDbSymbolTableRecord
100
AcDbViewportTableRecord
  2
*Active
 70
     0
 10
0.0
 20
0.0
 11
1.0
 21
1.0
 12
0.0
 22
0.0
 13
0.0
 23
0.0
 14
0.5
 24
0.5
 15
0.5
 25
0.5
 16
0.0
 26
0.0
 36
1.0
 17
13.50080555218051
 27
-13.50080555218051
 37
0.0
 40
27.00161110436102
 41
1.0
 42
50.0
 43
0.0
 44
0.0
 50
0.0
 51
0.0
 71
     0
 72
   100
 73
     1
 74
     3
 75
     0
 76
     0
 77
     0
 78
     0
281
     0
 65
     1
110
0.0
120
0.0
130
0.0
111
1.0
121
0.0
131
0.0
112
0.0
122
1.0
132
0.0
 79
     0
146
0.0
 60
     3
 61
     5
292
     1
282
     1
141
0.0
142
0.0
 63
   250
361
3F
  0
ENDTAB
  0
TABLE
  2
LTYPE
  5
5
330
0
100
AcDbSymbolTable
 70
     1
  0
LTYPE
  5
14
330
5
100
AcDbSymbolTableRecord
100
AcDbLinetypeTableRecord
  2
ByBlock
 70
     0
  3

 72
    65
 73
     0
 40
0.0
  0
LTYPE
  5
15
330
5
100
AcDbSymbolTableRecord
100
AcDbLinetypeTableRecord
  2
ByLayer
 70
     0
  3

 72
    65
 73
     0
 40
0.0
  0
LTYPE
  5
16
330
5
100
AcDbSymbolTableRecord
100
AcDbLinetypeTableRecord
  2
Continuous
 70
     0
  3
Solid line
 72
    65
 73
     0
 40
0.0
  0
ENDTAB
  0
TABLE
  2
LAYER
  5
2
330
0
100
AcDbSymbolTable
 70
     4
  0
LAYER
  5
10
330
2
100
AcDbSymbolTableRecord
100
AcDbLayerTableRecord
  2
0
 70
     0
 62
     7
  6
Continuous
370
    -3
390
F
347
3E
  0
LAYER
  5
40
330
2
100
AcDbSymbolTableRecord
100
AcDbLayerTableRecord
  2
Layer 1
 70
     0
 62
     7
  6
Continuous
370
    -3
390
F
347
3E
  0
LAYER
  5
B4
330
2
100
AcDbSymbolTableRecord
100
AcDbLayerTableRecord
  2
Middle
 70
     1
 62
     7
  6
Continuous
370
    -3
390
F
347
3E
  0
LAYER
  5
B5
330
2
100
AcDbSymbolTableRecord
100
AcDbLayerTableRecord
  2
Layer 3
 70
     0
 62
     7
  6
Continuous
370
    -3
390
F
347
3E
  0
ENDTAB
  0
TABLE
  2
STYLE
  5
3
330
0
100
AcDbSymbolTable
 70
     1
  0
STYLE
  5
11
330
3
100
AcDbSymbolTableRecord
100
AcDbTextStyleTableRecord
  2
Standard
 70
     0
 40
0.0
 41
1.0
 50
0.0
 71
     0
 42
0.2
  3
txt
  4

  0
ENDTAB
  0
TABLE
  2
VIEW
  5
6
330
0
100
AcDbSymbolTable
 70
     0
  0
ENDTAB
  0
TABLE
  2
UCS
  5
7
330
0
100
AcDbSymbolTable
 70
     0
  0
ENDTAB
  0
TABLE
  2
APPID
  5
9
330
0
100
AcDbSymbolTable
 70
     1
  0
APPID
  5
12
330
9
100
AcDbSymbolTableRecord
100
AcDbRegAppTableRecord
  2
ACAD
 70
     0
  0
ENDTAB
  0
TABLE
  2
DIMSTYLE
  5
A
330
0
100
AcDbSymbolTable
 70
     1
100
AcDbDimStyleTable
  0
DIMSTYLE
105
27
330
A
100
AcDbSymbolTableRecord
100
AcDbDimStyleTableRecord
  2
Standard
 70
     0
178
     0
340
11
  0
ENDTAB
  0
TABLE
  2
BLOCK_RECORD
  5
1
330
0
100
AcDbSymbolTable
 70
     3
  0
BLOCK_RECORD
  5
1F
330
1
100
AcDbSymbolTableRecord
100
AcDbBlockTableRecord
  2
*Model_Space
340
22
 70
     0
280
     1
281
     0
  0
BLOCK_RECORD
  5
1B
330
1
100
AcDbSymbolTableRecord
100
AcDbBlockTableRecord
  2
*Paper_Space
340
1E
 70
     0
280
     1
281
     0
  0
BLOCK_RECORD
  5
23
330
1
100
AcDbSymbolTableRecord
100
AcDbBlockTableRecord
  2
*Paper_Space0
340
26
 70
     0
280
     1
281
     0
  0
BLOCK_RECORD
  5
41
330
1
100
AcDbSymbolTableRecord
100
AcDbBlockTableRecord
  2
block 2
340
0
102
{BLKREFS
331
42
102
}
 70
     0
280
     1
281
     0
  0
BLOCK_RECORD
  5
6E
330
1
100
AcDbSymbolTableRecord
100
AcDbBlockTableRecord
  2
block 3
340
0
102
{BLKREFS
331
6F
102
}
 70
     0
280
     1
281
     0
  0
ENDTAB
  0
ENDSEC
  0
SECTION
  2
BLOCKS
  0
BLOCK
  5
20
330
1F
100
AcDbEntity
  8
0
100
AcDbBlockBegin
  2
*Model_Space
 70
     0
 10
0.0
 20
0.0
 30
0.0
  3
*Model_Space
  1

  0
ENDBLK
  5
21
330
1F
100
AcDbEntity
  8
0
100
AcDbBlockEnd
  0
BLOCK
  5
1C
330
1B
100
AcDbEntity
 67
     1
  8
0
100
AcDbBlockBegin
  2
*Paper_Space
 70
     0
 10
0.0
 20
0.0
 30
0.0
  3
*Paper_Space
  1

  0
ENDBLK
  5
1D
330
1B
100
AcDbEntity
 67
     1
  8
0
100
AcDbBlockEnd
  0
BLOCK
  5
24
330
23
100
AcDbEntity
  8
0
100
AcDbBlockBegin
  2
*Paper_Space0
 70
     0
 10
0.0
 20
0.0
 30
0.0
  3
*Paper_Space0
  1

  0
ENDBLK
  5
25
330
23
100
AcDbEntity
  8
0
100
AcDbBlockEnd
  0
BLOCK
  5
43
330
41
100
AcDbEntity
  8
0
100
AcDbBlockBegin
  2
block 2
 70
     0
 10
0.0
 20
0.0
 30
0.0
  3
block 2
  1

  0
SPLINE
  5
45
330
41
100
AcDbEntity
  8
Layer 1
 62
   250
420
  2301728
370
    35
100
AcDbSpline
210
0.0
220
0.0
230
1.0
 70
    11
 71
     3
 72
   116
 73
   112
 74
     0
 42
0.0000000001
 43
0.0000000001
 12
1.0
 22
0.0
 32
0.0
 13
1.0
 23
0.0
 33
0.0
 40
0.0
 40
0.0
 40
0.0
 40
0.0
 40
1.0
 40
1.0
 40
1.0
 40
2.0
 40
2.0
 40
2.0
 40
3.0
 40
3.0
 40
3.0
 40
4.0
 40
4.0
 40
4.0
 40
5.0
 40
5.0
 40
5.0
 40
6.0
 40
6.0
 40
6.0
 40
7.0
 40
7.0
 40
7.0
 40
8.0
 40
8.0
 40
8.0
 40
9.0
 40
9.0
 40
9.0
 40
10.0
 40
10.0
 40
10.0
 40
11.0
 40
11.0
 40
11.0
 40
12.0
 40
12.0
 40
12.0
 40
13.0
 40
13.0
 40
13.0
 40
14.0
 40
14.0
 40
14.0
 40
15.0
 40
15.0
 40
15.0
 40
16.0
 40
16.0
 40
16.0
 40
17.0
 40
17.0
 40
17.0
 40
18.0
 40
18.0
 40
18.0
 40
19.0
 40
19.0
 40
19.0
 40
20.0
 40
20.0
 40
20.0
 40
21.0
 40
21.0
 40
21.0
 40
22.0
 40
22.0
 40
22.0
 40
23.0
 40
23.0
 40
23.0
 40
24.0
 40
24.0
 40
24.0
 40
25.0
 40
25.0
 40
25.0
 40
26.0
 40
26.0
 40
26.0
 40
27.0
 40
27.0
 40
27.0
 40
28.0
 40
28.0
 40
28.0
 40
29.0
 40
29.0
 40
29.0
 40
30.0
 40
30.0
 40
30.0
 40
31.0
 40
31.0
 40
31.0
 40
32.0
 40
32.0
 40
32.0
 40
33.0
 40
33.0
 40
33.0
 40
34.0
 40
34.0
 40
34.0
 40
35.0
 40
35.0
 40
35.0
 40
36.0
 40
36.0
 40
36.0
 40
37.0
 40
37.0
 40
37.0
 40
37.0
 10
25.28482569903091
 20
-17.19533867625843
 30
0.0
 10
25.09279866855864
 20
-17.79321226219118
 30
0.0
 10
24.86034530976947
 20
-18.36697491069634
 30
0.0
 10
24.58854546195029
 20
-18.91326455662061
 30
0.0
 10
24.09253166827579
 20
-18.75024430209526
 30
0.0
 10
23.27663919960836
 20
-19.22553896925872
 30
0.0
 10
22.66783314936696
 20
-20.07120406568099
 30
0.0
 10
22.66783314936696
 20
-20.07120406568099
 30
0.0
 10
22.66675989446538
 20
-20.07454563043465
 30
0.0
 10
22.66675989446538
 20
-20.07454563043465
 30
0.0
 10
22.05798092900827
 20
-20.92019681084643
 30
0.0
 10
21.8606341408152
 20
-21.84613651298226
 30
0.0
 10
22.17533985817898
 20
-22.26215391147978
 30
0.0
 10
21.28025262308742
 20
-23.14554577553828
 30
0.0
 10
20.25976930100623
 20
-23.88859028074814
 30
0.0
 10
19.15265880817644
 20
-24.46303201071667
 30
0.0
 10
18.88663732279769
 20
-24.01077192499417
 30
0.0
 10
17.94933591518931
 20
-23.89498999086038
 30
0.0
 10
16.94316369956018
 20
-24.21282925579439
 30
0.0
 10
16.9275762607729
 20
-24.21524061333109
 30
0.0
 10
16.90755350193332
 20
-24.21991369633649
 30
0.0
 10
16.89086572346018
 20
-24.22568053463927
 30
0.0
 10
15.88037415067908
 20
-24.55696806018196
 30
0.0
 10
15.1701948199995
 20
-25.21072710386281
 30
0.0
 10
15.21170180992197
 20
-25.73907423080191
 30
0.0
 10
14.02435825039078
 20
-25.91721912688182
 30
0.0
 10
12.79837272344302
 20
-25.9273377290852
 30
0.0
 10
11.57139255799526
 20
-25.7444554318224
 30
0.0
 10
11.58459490171109
 20
-25.2188444648244
 30
0.0
 10
10.87483709836205
 20
-24.59070626134445
 30
0.0
 10
9.883991397190721
 20
-24.27246313749934
 30
0.0
 10
9.883991397190721
 20
-24.27246313749934
 30
0.0
 10
9.880629332039032
 20
-24.27138329821183
 30
0.0
 10
9.880629332039032
 20
-24.27138329821183
 30
0.0
 10
8.88644206611309
 20
-23.95206691946386
 30
0.0
 10
7.945951655910235
 20
-24.05385917935435
 30
0.0
 10
7.651696099889984
 20
-24.48551426280011
 30
0.0
 10
6.528606542712623
 20
-23.90988444448028
 30
0.0
 10
5.519803315120155
 20
-23.17459377580302
 30
0.0
 10
4.646857956755774
 20
-22.31619657762711
 30
0.0
 10
4.962488290264112
 20
-21.89882449950115
 30
0.0
 10
4.762681160793035
 20
-20.97502370643458
 30
0.0
 10
4.144272212726682
 20
-20.13168715863466
 30
0.0
 10
3.529245830209732
 20
-19.28943703450882
 30
0.0
 10
2.709657517728064
 20
-18.81870454030418
 30
0.0
 10
2.213947756950929
 20
-18.98926556132173
 30
0.0
 10
1.659664501882352
 20
-17.88860701943721
 30
0.0
 10
1.269562618012965
 20
-16.70361011705131
 30
0.0
 10
1.059739486437081
 20
-15.47646613441349
 30
0.0
 10
1.557854020365304
 20
-15.321513052579
 30
0.0
 10
1.938850049055845
 20
-14.45826731696634
 30
0.0
 10
1.937421423667897
 20
-13.41294135294757
 30
0.0
 10
1.934905627366264
 20
-12.37092986890105
 30
0.0
 10
1.548367794655771
 20
-11.5094346309886
 30
0.0
 10
1.046832257252637
 20
-11.35205866747944
 30
0.0
 10
1.143968720345147
 20
-10.74967005366316
 30
0.0
 10
1.289090386771936
 20
-10.14785792121168
 30
0.0
 10
1.481117417244209
 20
-9.549984335277657
 30
0.0
 10
1.673144447716161
 20
-8.952110749343309
 30
0.0
 10
1.904517967217492
 20
-8.381710165990482
 30
0.0
 10
2.176317815036674
 20
-7.835420520066847
 30
0.0
 10
2.675693673863182
 20
-7.999520613880674
 30
0.0
 10
3.48717132287378
 20
-7.526494256570572
 30
0.0
 10
4.099312353483223
 20
-6.681922915447268
 30
0.0
 10
4.099312353483223
 20
-6.681922915447268
 30
0.0
 10
4.100392192771696
 20
-6.678560850294938
 30
0.0
 10
4.100392192771696
 20
-6.678560850294938
 30
0.0
 10
4.71025099751696
 20
-5.829547604731792
 30
0.0
 10
4.903169797281324
 20
-4.90591721324378
 30
0.0
 10
4.588443579520152
 20
-4.489893230359045
 30
0.0
 10
5.473587666841267
 20
-3.614434467566523
 30
0.0
 10
6.48075844437319
 20
-2.878195639154097
 30
0.0
 10
7.57562306317193
 20
-2.307238521625446
 30
0.0
 10
7.883747697916633
 20
-2.732268860677417
 30
0.0
 10
8.821877265853086
 20
-2.822377160567902
 30
0.0
 10
9.807897590966911
 20
-2.498065444291558
 30
0.0
 10
10.80172188567259
 20
-2.172551341439508
 30
0.0
 10
11.50208720025456
 20
-1.537870933370142
 30
0.0
 10
11.48852215442779
 20
-1.014766786414674
 30
0.0
 10
12.69696831208865
 20
-0.8285867421792731
 30
0.0
 10
13.94525882374113
 20
-0.8182369614119239
 30
0.0
 10
15.19349121938878
 20
-1.004236229250993
 30
0.0
 10
15.18473078011407
 20
-1.527564970384813
 30
0.0
 10
15.88668461386966
 20
-2.15690556044079
 30
0.0
 10
16.88087187979689
 20
-2.476221939188116
 30
0.0
 10
16.88087187979689
 20
-2.476221939188116
 30
0.0
 10
16.88423394494761
 20
-2.477301778475948
 30
0.0
 10
16.88423394494761
 20
-2.477301778475948
 30
0.0
 10
17.87507964611861
 20
-2.795544902321053
 30
0.0
 10
18.81557664070773
 20
-2.69373214203382
 30
0.0
 10
19.11318767749502
 20
-2.263177398271356
 30
0.0
 10
20.23625673427434
 20
-2.838800632206854
 30
0.0
 10
21.24171839711283
 20
-3.5730180459819
 30
0.0
 10
22.11679634926923
 20
-4.42470502986493
 30
0.0
 10
21.79783103539189
 20
-4.840983352692876
 30
0.0
 10
21.99992039072747
 20
-5.769226050198005
 30
0.0
 10
22.6183088383961
 20
-6.612556013612318
 30
0.0
 10
23.2367177864631
 20
-7.455892561412241
 30
0.0
 10
24.05630609894445
 20
-7.926625055617528
 30
0.0
 10
24.54865379456957
 20
-7.754984195311177
 30
0.0
 10
25.10293704963719
 20
-8.85564273719634
 30
0.0
 10
25.49638049826215
 20
-10.04171289448414
 30
0.0
 10
25.70620362983868
 20
-11.26885687712196
 30
0.0
 10
25.20702975701841
 20
-11.42717860849439
 30
0.0
 10
24.82938187746938
 20
-12.29147709861188
 30
0.0
 10
24.83080391847076
 20
-13.3368235630274
 30
0.0
 10
24.833326299158
 20
-14.37881454667781
 30
0.0
 10
25.2198575474832
 20
-15.24033028498605
 30
0.0
 10
25.71803101973465
 20
-15.39662640920802
 30
0.0
 10
25.62089455664214
 20
-15.9990150230243
 30
0.0
 10
25.47685272950318
 20
-16.59746509032441
 30
0.0
 10
25.28482569903091
 20
-17.19533867625843
 30
0.0
  0
POLYLINE
  5
46
330
41
100
AcDbEntity
  8
Layer 1
 62
   250
420
  2301728
370
    35
100
AcDb2dPolyline
 66
     1
 10
0.0
 20
0.0
 30
0.0
  0
VERTEX
  5
47
330
46
100
AcDbEntity
  8
Layer 1
 62
   250
420
  2301728
370
    35
100
AcDbVertex
100
AcDb2dVertex
 10
14.91084297301023
 20
-8.611573534397015
 30
0.0
  0
VERTEX
  5
48
330
46
100
AcDbEntity
  8
Layer 1
 62
   250
420
  2301728
370
    35
100
AcDbVertex
100
AcDb2dVertex
 10
16.88136479329834
 20
-2.476380254788789
 30
0.0
  0
SEQEND
  5
49
330
46
100
AcDbEntity
  8
Layer 1
 62
   250
420
  2301728
370
    35
  0
POLYLINE
  5
4A
330
41
100
AcDbEntity
  8
Layer 1
 62
   250
420
  2301728
370
    35
100
AcDb2dPolyline
 66
     1
 10
0.0
 20
0.0
 30
0.0
  0
VERTEX
  5
4B
330
4A
100
AcDbEntity
  8
Layer 1
 62
   250
420
  2301728
370
    35
100
AcDbVertex
100
AcDb2dVertex
 10
11.83572055100188
 20
-8.643803840049985
 30
0.0
  0
VERTEX
  5
4C
330
4A
100
AcDbEntity
  8
Layer 1
 62
   250
420
  2301728
370
    35
100
AcDbVertex
100
AcDb2dVertex
 10
9.836191327067121
 20
-2.558435719902878
 30
0.0
  0
SEQEND
  5
4D
330
4A
100
AcDbEntity
  8
Layer 1
 62
   250
420
  2301728
370
    35
  0
POLYLINE
  5
4E
330
41
100
AcDbEntity
  8
Layer 1
 62
   250
420
  2301728
370
    35
100
AcDb2dPolyline
 66
     1
 10
0.0
 20
0.0
 30
0.0
  0
VERTEX
  5
4F
330
4E
100
AcDbEntity
  8
Layer 1
 62
   250
420
  2301728
370
    35
100
AcDbVertex
100
AcDb2dVertex
 10
9.328439739894032
 20
-10.45121454863171
 30
0.0
  0
VERTEX
  5
50
330
4E
100
AcDbEntity
  8
Layer 1
 62
   250
420
  2301728
370
    35
100
AcDbVertex
100
AcDb2dVertex
 10
4.099306439665408
 20
-6.681930062104657
 30
0.0
  0
SEQEND
  5
51
330
4E
100
AcDbEntity
  8
Layer 1
 62
   250
420
  2301728
370
    35
  0
POLYLINE
  5
52
330
41
100
AcDbEntity
  8
Layer 1
 62
   250
420
  2301728
370
    35
100
AcDb2dPolyline
 66
     1
 10
0.0
 20
0.0
 30
0.0
  0
VERTEX
  5
53
330
52
100
AcDbEntity
  8
Layer 1
 62
   250
420
  2301728
370
    35
100
AcDbVertex
100
AcDb2dVertex
 10
8.39690976127866
 20
-13.37491453666749
 30
0.0
  0
VERTEX
  5
54
330
52
100
AcDbEntity
  8
Layer 1
 62
   250
420
  2301728
370
    35
100
AcDbVertex
100
AcDb2dVertex
 10
1.81779598799716
 20
-13.39617840620991
 30
0.0
  0
SEQEND
  5
55
330
52
100
AcDbEntity
  8
Layer 1
 62
   250
420
  2301728
370
    35
  0
POLYLINE
  5
56
330
41
100
AcDbEntity
  8
Layer 1
 62
   250
420
  2301728
370
    35
100
AcDb2dPolyline
 66
     1
 10
0.0
 20
0.0
 30
0.0
  0
VERTEX
  5
57
330
56
100
AcDbEntity
  8
Layer 1
 62
   250
420
  2301728
370
    35
100
AcDbVertex
100
AcDb2dVertex
 10
9.373761811534523
 20
-16.31606611337488
 30
0.0
  0
VERTEX
  5
58
330
56
100
AcDbEntity
  8
Layer 1
 62
   250
420
  2301728
370
    35
100
AcDbVertex
100
AcDb2dVertex
 10
4.264759217313928
 20
-20.0550462888334
 30
0.0
  0
SEQEND
  5
59
330
56
100
AcDbEntity
  8
Layer 1
 62
   250
420
  2301728
370
    35
  0
POLYLINE
  5
5A
330
41
100
AcDbEntity
  8
Layer 1
 62
   250
420
  2301728
370
    35
100
AcDb2dPolyline
 66
     1
 10
0.0
 20
0.0
 30
0.0
  0
VERTEX
  5
5B
330
5A
100
AcDbEntity
  8
Layer 1
 62
   250
420
  2301728
370
    35
100
AcDbVertex
100
AcDb2dVertex
 10
9.87828913732605
 20
-24.28036245826898
 30
0.0
  0
VERTEX
  5
5C
330
5A
100
AcDbEntity
  8
Layer 1
 62
   250
420
  2301728
370
    35
100
AcDbVertex
100
AcDb2dVertex
 10
11.85248526876087
 20
-18.13372926014357
 30
0.0
  0
SEQEND
  5
5D
330
5A
100
AcDbEntity
  8
Layer 1
 62
   250
420
  2301728
370
    35
  0
POLYLINE
  5
5E
330
41
100
AcDbEntity
  8
Layer 1
 62
   250
420
  2301728
370
    35
100
AcDb2dPolyline
 66
     1
 10
0.0
 20
0.0
 30
0.0
  0
VERTEX
  5
5F
330
5E
100
AcDbEntity
  8
Layer 1
 62
   250
420
  2301728
370
    35
100
AcDbVertex
100
AcDb2dVertex
 10
16.89016027782834
 20
-24.07697694758632
 30
0.0
  0
VERTEX
  5
60
330
5E
100
AcDbEntity
  8
Layer 1
 62
   250
420
  2301728
370
    35
100
AcDbVertex
100
AcDb2dVertex
 10
14.92603070177678
 20
-18.09934413139136
 30
0.0
  0
SEQEND
  5
61
330
5E
100
AcDbEntity
  8
Layer 1
 62
   250
420
  2301728
370
    35
  0
POLYLINE
  5
62
330
41
100
AcDbEntity
  8
Layer 1
 62
   250
420
  2301728
370
    35
100
AcDb2dPolyline
 66
     1
 10
0.0
 20
0.0
 30
0.0
  0
VERTEX
  5
63
330
62
100
AcDbEntity
  8
Layer 1
 62
   250
420
  2301728
370
    35
100
AcDbVertex
100
AcDb2dVertex
 10
22.55506139483731
 20
-19.9636279213136
 30
0.0
  0
VERTEX
  5
64
330
62
100
AcDbEntity
  8
Layer 1
 62
   250
420
  2301728
370
    35
100
AcDbVertex
100
AcDb2dVertex
 10
17.43616973401471
 20
-16.27210824060134
 30
0.0
  0
SEQEND
  5
65
330
62
100
AcDbEntity
  8
Layer 1
 62
   250
420
  2301728
370
    35
  0
POLYLINE
  5
66
330
41
100
AcDbEntity
  8
Layer 1
 62
   250
420
  2301728
370
    35
100
AcDb2dPolyline
 66
     1
 10
0.0
 20
0.0
 30
0.0
  0
VERTEX
  5
67
330
66
100
AcDbEntity
  8
Layer 1
 62
   250
420
  2301728
370
    35
100
AcDbVertex
100
AcDb2dVertex
 10
24.83245628733311
 20
-13.35610251859036
 30
0.0
  0
VERTEX
  5
68
330
66
100
AcDbEntity
  8
Layer 1
 62
   250
420
  2301728
370
    35
100
AcDbVertex
100
AcDb2dVertex
 10
18.36713155901114
 20
-13.37699861893361
 30
0.0
  0
SEQEND
  5
69
330
66
100
AcDbEntity
  8
Layer 1
 62
   250
420
  2301728
370
    35
  0
POLYLINE
  5
6A
330
41
100
AcDbEntity
  8
Layer 1
 62
   250
420
  2301728
370
    35
100
AcDb2dPolyline
 66
     1
 10
0.0
 20
0.0
 30
0.0
  0
VERTEX
  5
6B
330
6A
100
AcDbEntity
  8
Layer 1
 62
   250
420
  2301728
370
    35
100
AcDbVertex
100
AcDb2dVertex
 10
22.62442474851197
 20
-6.599850127404193
 30
0.0
  0
VERTEX
  5
6C
330
6A
100
AcDbEntity
  8
Layer 1
 62
   250
420
  2301728
370
    35
100
AcDbVertex
100
AcDb2dVertex
 10
17.39378221609901
 20
-10.42785145896188
 30
0.0
  0
SEQEND
  5
6D
330
6A
100
AcDbEntity
  8
Layer 1
 62
   250
420
  2301728
370
    35
  0
INSERT
  5
6F
330
41
100
AcDbEntity
  8
Layer 1
100
AcDbBlockReference
  2
block 3
 10
0.0
 20
0.0
 30
0.0
  0
SPLINE
  5
B3
330
41
100
AcDbEntity
  8
Layer 1
 62
   250
420
  2301728
370
    35
100
AcDbSpline
210
0.0
220
0.0
230
1.0
 70
    11
 71
     3
 72
    41
 73
    37
 74
     0
 42
0.0000000001
 43
0.0000000001
 12
1.0
 22
0.0
 32
0.0
 13
1.0
 23
0.0
 33
0.0
 40
0.0
 40
0.0
 40
0.0
 40
0.0
 40
1.0
 40
1.0
 40
1.0
 40
2.0
 40
2.0
 40
2.0
 40
3.0
 40
3.0
 40
3.0
 40
4.0
 40
4.0
 40
4.0
 40
5.0
 40
5.0
 40
5.0
 40
6.0
 40
6.0
 40
6.0
 40
7.0
 40
7.0
 40
7.0
 40
8.0
 40
8.0
 40
8.0
 40
9.0
 40
9.0
 40
9.0
 40
10.0
 40
10.0
 40
10.0
 40
11.0
 40
11.0
 40
11.0
 40
12.0
 40
12.0
 40
12.0
 40
12.0
 10
18.14387843997035
 20
-14.90404880134654
 30
0.0
 10
17.97882763854153
 20
-15.41793225967217
 30
0.0
 10
17.73963514201238
 20
-15.88579452250922
 30
0.0
 10
17.43625068253509
 20
-16.29968198819754
 30
0.0
 10
16.81319529614282
 20
-17.16668744569873
 30
0.0
 10
15.93209545652503
 20
-17.7988844642135
 30
0.0
 10
14.94271306625951
 20
-18.12211634120233
 30
0.0
 10
13.97227359554671
 20
-18.44403720033777
 30
0.0
 10
12.90042533656108
 20
-18.47030471525597
 30
0.0
 10
11.85248602899744
 20
-18.13372407667135
 30
0.0
 10
10.80790878658581
 20
-17.79822327737552
 30
0.0
 10
9.94953545900295
 20
-17.14829187016424
 30
0.0
 10
9.346965628685227
 20
-16.32485553391763
 30
0.0
 10
8.731939246168599
 20
-15.48260540979115
 30
0.0
 10
8.387094828742105
 20
-14.45665552989754
 30
0.0
 10
8.384341269490578
 20
-13.39235956154208
 30
0.0
 10
8.378702740543536
 20
-12.87921906275445
 30
0.0
 10
8.456680112955341
 20
-12.3595771891764
 30
0.0
 10
8.621730914384157
 20
-11.8456937308511
 30
0.0
 10
8.786788300197621
 20
-11.33178977212775
 30
0.0
 10
9.025974212342126
 20
-10.86394800968713
 30
0.0
 10
9.329358671818449
 20
-10.45006054400009
 30
0.0
 10
9.949051993058708
 20
-9.58197524721011
 30
0.0
 10
10.83017891746015
 20
-8.949764312684199
 30
0.0
 10
11.82062064661674
 20
-8.623163786157745
 30
0.0
 10
12.78998027804139
 20
-8.30460499217368
 30
0.0
 10
13.86626385708093
 20
-8.27607575178901
 30
0.0
 10
14.91084109949288
 20
-8.61157655108548
 30
0.0
 10
15.9587804070562
 20
-8.948157189669784
 30
0.0
 10
16.81487150877489
 20
-9.59364669244058
 30
0.0
 10
17.41636808419135
 20
-10.42042459344213
 30
0.0
 10
18.03248822200727
 20
-11.25933973719896
 30
0.0
 10
18.37959436489991
 20
-12.28972493714745
 30
0.0
 10
18.3812680848636
 20
-13.35738297065459
 30
0.0
 10
18.38690661380968
 20
-13.8705234694419
 30
0.0
 10
18.30893582578509
 20
-14.39014484262255
 30
0.0
 10
18.14387843997035
 20
-14.90404880134654
 30
0.0
  0
ENDBLK
  5
44
330
41
100
AcDbEntity
  8
0
100
AcDbBlockEnd
  0
BLOCK
  5
70
330
6E
100
AcDbEntity
  8
0
100
AcDbBlockBegin
  2
block 3
 70
     0
 10
0.0
 20
0.0
 30
0.0
  3
block 3
  1

  0
SPLINE
  5
72
330
6E
100
AcDbEntity
  8
Layer 1
370
     0
100
AcDbSpline
210
0.0
220
0.0
230
1.0
 70
    11
 71
     3
 72
    23
 73
    19
 74
     0
 42
0.0000000001
 43
0.0000000001
 12
1.0
 22
0.0
 32
0.0
 13
1.0
 23
0.0
 33
0.0
 40
0.0
 40
0.0
 40
0.0
 40
0.0
 40
1.0
 40
1.0
 40
1.0
 40
2.0
 40
2.0
 40
2.0
 40
3.0
 40
3.0
 40
3.0
 40
4.0
 40
4.0
 40
4.0
 40
5.0
 40
5.0
 40
5.0
 40
6.0
 40
6.0
 40
6.0
 40
6.0
 10
14.14211696695058
 20
-5.429470484753744
 30
0.0
 10
14.14418402424173
 20
-5.967249890001243
 30
0.0
 10
13.87960069097455
 20
-6.23734537604483
 30
0.0
 10
13.34785020282623
 20
-6.23941243333598
 30
0.0
 10
12.81747775287202
 20
-6.24147949062713
 30
0.0
 10
12.55117187186221
 20
-5.973795571423218
 30
0.0
 10
12.54927706934532
 20
-5.435671656627194
 30
0.0
 10
12.54927706934532
 20
-5.435671656627194
 30
0.0
 10
12.53963080198662
 20
-3.084393987944179
 30
0.0
 10
12.53963080198662
 20
-3.084393987944179
 30
0.0
 10
12.53739148992121
 20
-2.54454752540553
 30
0.0
 10
12.80180256841413
 20
-2.273763020264893
 30
0.0
 10
13.33217501836835
 20
-2.271695962973743
 30
0.0
 10
13.86375325174239
 20
-2.269628905682593
 30
0.0
 10
14.13074815184926
 20
-2.53834635353208
 30
0.0
 10
14.13281520914041
 20
-3.077848306522205
 30
0.0
 10
14.13281520914041
 20
-3.077848306522205
 30
0.0
 10
14.14211696695058
 20
-5.429470484753744
 30
0.0
 10
14.14211696695058
 20
-5.429470484753744
 30
0.0
  0
SPLINE
  5
73
330
6E
100
AcDbEntity
  8
Layer 1
370
     0
100
AcDbSpline
210
0.0
220
0.0
230
1.0
 70
    11
 71
     3
 72
    26
 73
    22
 74
     0
 42
0.0000000001
 43
0.0000000001
 12
1.0
 22
0.0
 32
0.0
 13
1.0
 23
0.0
 33
0.0
 40
0.0
 40
0.0
 40
0.0
 40
0.0
 40
1.0
 40
1.0
 40
1.0
 40
2.0
 40
2.0
 40
2.0
 40
3.0
 40
3.0
 40
3.0
 40
4.0
 40
4.0
 40
4.0
 40
5.0
 40
5.0
 40
5.0
 40
6.0
 40
6.0
 40
6.0
 40
7.0
 40
7.0
 40
7.0
 40
7.0
 10
13.57815483601518
 20
-3.079915363813355
 30
0.0
 10
13.5776380716924
 20
-2.906282551356763
 30
0.0
 10
13.49702283733755
 20
-2.819466145128467
 30
0.0
 10
13.33613687817638
 20
-2.820499673774042
 30
0.0
 10
13.33613687817638
 20
-2.820499673774042
 30
0.0
 10
13.33234727314261
 20
-2.820499673774042
 30
0.0
 10
13.33234727314261
 20
-2.820499673774042
 30
0.0
 10
13.1730116069498
 20
-2.820499673774042
 30
0.0
 10
13.09360215601479
 20
-2.908005099099388
 30
0.0
 10
13.09429117511185
 20
-3.081982421104505
 30
0.0
 10
13.09429117511185
 20
-3.081982421104505
 30
0.0
 10
13.10359293292202
 20
-5.433604599336044
 30
0.0
 10
13.10359293292202
 20
-5.433604599336044
 30
0.0
 10
13.10428195201907
 20
-5.606892902244111
 30
0.0
 10
13.18506944114818
 20
-5.693364798923882
 30
0.0
 10
13.34578314553508
 20
-5.692675779826831
 30
0.0
 10
13.50770263334183
 20
-5.692331270278307
 30
0.0
 10
13.58831786769667
 20
-5.605170354501485
 30
0.0
 10
13.58762884859962
 20
-5.431193032496369
 30
0.0
 10
13.58762884859962
 20
-5.431193032496369
 30
0.0
 10
13.57815483601518
 20
-3.079915363813355
 30
0.0
 10
13.57815483601518
 20
-3.079915363813355
 30
0.0
  0
HATCH
  5
74
330
6E
100
AcDbEntity
  8
Layer 1
 62
   250
420
  2301728
100
AcDbHatch
 10
0.0
 20
0.0
 30
0.0
210
0.0
220
0.0
230
1.0
  2
SOLID
 70
     1
 71
     0
 91
        2
 92
        1
 93
        1
 72
     4
 94
        3
 73
     0
 74
     1
 95
       23
 96
       19
 40
0.0
 40
0.0
 40
0.0
 40
0.0
 40
1.0
 40
1.0
 40
1.0
 40
2.0
 40
2.0
 40
2.0
 40
3.0
 40
3.0
 40
3.0
 40
4.0
 40
4.0
 40
4.0
 40
5.0
 40
5.0
 40
5.0
 40
6.0
 40
6.0
 40
6.0
 40
6.0
 10
14.14211696695058
 20
-5.429470484753744
 10
14.14418402424173
 20
-5.967249890001243
 10
13.87960069097455
 20
-6.23734537604483
 10
13.34785020282623
 20
-6.23941243333598
 10
12.81747775287202
 20
-6.24147949062713
 10
12.55117187186221
 20
-5.973795571423218
 10
12.54927706934532
 20
-5.435671656627194
 10
12.54927706934532
 20
-5.435671656627194
 10
12.53963080198662
 20
-3.084393987944179
 10
12.53963080198662
 20
-3.084393987944179
 10
12.53739148992121
 20
-2.54454752540553
 10
12.80180256841413
 20
-2.273763020264893
 10
13.33217501836835
 20
-2.271695962973743
 10
13.86375325174239
 20
-2.269628905682593
 10
14.13074815184926
 20
-2.53834635353208
 10
14.13281520914041
 20
-3.077848306522205
 10
14.13281520914041
 20
-3.077848306522205
 10
14.14211696695058
 20
-5.429470484753744
 10
14.14211696695058
 20
-5.429470484753744
 97
        0
 97
        0
 92
        1
 93
        1
 72
     4
 94
        3
 73
     0
 74
     1
 95
       26
 96
       22
 40
0.0
 40
0.0
 40
0.0
 40
0.0
 40
1.0
 40
1.0
 40
1.0
 40
2.0
 40
2.0
 40
2.0
 40
3.0
 40
3.0
 40
3.0
 40
4.0
 40
4.0
 40
4.0
 40
5.0
 40
5.0
 40
5.0
 40
6.0
 40
6.0
 40
6.0
 40
7.0
 40
7.0
 40
7.0
 40
7.0
 10
13.57815483601518
 20
-3.079915363813355
 10
13.5776380716924
 20
-2.906282551356763
 10
13.49702283733755
 20
-2.819466145128467
 10
13.33613687817638
 20
-2.820499673774042
 10
13.33613687817638
 20
-2.820499673774042
 10
13.33234727314261
 20
-2.820499673774042
 10
13.33234727314261
 20
-2.820499673774042
 10
13.1730116069498
 20
-2.820499673774042
 10
13.09360215601479
 20
-2.908005099099388
 10
13.09429117511185
 20
-3.081982421104505
 10
13.09429117511185
 20
-3.081982421104505
 10
13.10359293292202
 20
-5.433604599336044
 10
13.10359293292202
 20
-5.433604599336044
 10
13.10428195201907
 20
-5.606892902244111
 10
13.18506944114818
 20
-5.693364798923882
 10
13.34578314553508
 20
-5.692675779826831
 10
13.50770263334183
 20
-5.692331270278307
 10
13.58831786769667
 20
-5.605170354501485
 10
13.58762884859962
 20
-5.431193032496369
 10
13.58762884859962
 20
-5.431193032496369
 10
13.57815483601518
 20
-3.079915363813355
 10
13.57815483601518
 20
-3.079915363813355
 97
        0
 97
        0
 75
     2
 76
     1
 98
        0
  0
POLYLINE
  5
75
330
6E
100
AcDbEntity
  8
Layer 1
370
     0
100
AcDb2dPolyline
 66
     1
 10
0.0
 20
0.0
 30
0.0
  0
VERTEX
  5
76
330
75
100
AcDbEntity
  8
Layer 1
370
     0
100
AcDbVertex
100
AcDb2dVertex
 10
20.03047417033961
 20
-4.556483288791435
 30
0.0
  0
VERTEX
  5
77
330
75
100
AcDbEntity
  8
Layer 1
370
     0
100
AcDbVertex
100
AcDb2dVertex
 10
18.1094889277643
 20
-7.236423066767284
 30
0.0
  0
VERTEX
  5
78
330
75
100
AcDbEntity
  8
Layer 1
370
     0
100
AcDbVertex
100
AcDb2dVertex
 10
18.53116861515888
 20
-7.539246959920744
 30
0.0
  0
VERTEX
  5
79
330
75
100
AcDbEntity
  8
Layer 1
370
     0
100
AcDbVertex
100
AcDb2dVertex
 10
18.21284179232179
 20
-7.983319767969448
 30
0.0
  0
VERTEX
  5
7A
330
75
100
AcDbEntity
  8
Layer 1
370
     0
100
AcDbVertex
100
AcDb2dVertex
 10
16.9181749089649
 20
-7.055555553791667
 30
0.0
  0
VERTEX
  5
7B
330
75
100
AcDbEntity
  8
Layer 1
370
     0
100
AcDbVertex
100
AcDb2dVertex
 10
17.23650173180199
 20
-6.610793726645913
 30
0.0
  0
VERTEX
  5
7C
330
75
100
AcDbEntity
  8
Layer 1
370
     0
100
AcDbVertex
100
AcDb2dVertex
 10
17.65852592874509
 20
-6.913962129347898
 30
0.0
  0
VERTEX
  5
7D
330
75
100
AcDbEntity
  8
Layer 1
370
     0
100
AcDbVertex
100
AcDb2dVertex
 10
19.26083983893479
 20
-4.677750649872229
 30
0.0
  0
VERTEX
  5
7E
330
75
100
AcDbEntity
  8
Layer 1
370
     0
100
AcDbVertex
100
AcDb2dVertex
 10
18.83916015154021
 20
-4.374582247170244
 30
0.0
  0
VERTEX
  5
7F
330
75
100
AcDbEntity
  8
Layer 1
370
     0
100
AcDbVertex
100
AcDb2dVertex
 10
19.1574869743773
 20
-3.930853948670065
 30
0.0
  0
VERTEX
  5
80
330
75
100
AcDbEntity
  8
Layer 1
370
     0
100
AcDbVertex
100
AcDb2dVertex
 10
20.03047417033961
 20
-4.556483288791435
 30
0.0
  0
SEQEND
  5
81
330
75
100
AcDbEntity
  8
Layer 1
370
     0
  0
HATCH
  5
82
330
6E
100
AcDbEntity
  8
Layer 1
 62
   250
420
  2301728
100
AcDbHatch
 10
0.0
 20
0.0
 30
0.0
210
0.0
220
0.0
230
1.0
  2
SOLID
 70
     1
 71
     0
 91
        1
 92
        1
 93
       10
 72
     1
 10
20.03047417033961
 20
-4.556483288791435
 11
18.1094889277643
 21
-7.236423066767284
 72
     1
 10
18.1094889277643
 20
-7.236423066767284
 11
18.53116861515888
 21
-7.539246959920744
 72
     1
 10
18.53116861515888
 20
-7.539246959920744
 11
18.21284179232179
 21
-7.983319767969448
 72
     1
 10
18.21284179232179
 20
-7.983319767969448
 11
16.9181749089649
 21
-7.055555553791667
 72
     1
 10
16.9181749089649
 20
-7.055555553791667
 11
17.23650173180199
 21
-6.610793726645913
 72
     1
 10
17.23650173180199
 20
-6.610793726645913
 11
17.65852592874509
 21
-6.913962129347898
 72
     1
 10
17.65852592874509
 20
-6.913962129347898
 11
19.26083983893479
 21
-4.677750649872229
 72
     1
 10
19.26083983893479
 20
-4.677750649872229
 11
18.83916015154021
 21
-4.374582247170244
 72
     1
 10
18.83916015154021
 20
-4.374582247170244
 11
19.1574869743773
 21
-3.930853948670065
 72
     1
 10
19.1574869743773
 20
-3.930853948670065
 11
20.03047417033961
 21
-4.556483288791435
 97
        0
 75
     2
 76
     1
 98
        0
  0
SPLINE
  5
83
330
6E
100
AcDbEntity
  8
Layer 1
370
     0
100
AcDbSpline
210
0.0
220
0.0
230
1.0
 70
    11
 71
     3
 72
    62
 73
    58
 74
     0
 42
0.0000000001
 43
0.0000000001
 12
1.0
 22
0.0
 32
0.0
 13
1.0
 23
0.0
 33
0.0
 40
0.0
 40
0.0
 40
0.0
 40
0.0
 40
1.0
 40
1.0
 40
1.0
 40
2.0
 40
2.0
 40
2.0
 40
3.0
 40
3.0
 40
3.0
 40
4.0
 40
4.0
 40
4.0
 40
5.0
 40
5.0
 40
5.0
 40
6.0
 40
6.0
 40
6.0
 40
7.0
 40
7.0
 40
7.0
 40
8.0
 40
8.0
 40
8.0
 40
9.0
 40
9.0
 40
9.0
 40
10.0
 40
10.0
 40
10.0
 40
11.0
 40
11.0
 40
11.0
 40
12.0
 40
12.0
 40
12.0
 40
13.0
 40
13.0
 40
13.0
 40
14.0
 40
14.0
 40
14.0
 40
15.0
 40
15.0
 40
15.0
 40
16.0
 40
16.0
 40
16.0
 40
17.0
 40
17.0
 40
17.0
 40
18.0
 40
18.0
 40
18.0
 40
19.0
 40
19.0
 40
19.0
 40
19.0
 10
20.72707247745712
 20
-10.0676025365456
 30
0.0
 10
21.05573458674996
 20
-9.95770399056613
 30
0.0
 10
21.39128688701329
 20
-10.02729491936818
 30
0.0
 10
21.73510741644122
 20
-10.27603081340322
 30
0.0
 10
22.07892794586916
 20
-10.5254557265353
 30
0.0
 10
22.33317599268059
 20
-10.6232964383164
 30
0.0
 10
22.49716253777849
 20
-10.56989745829503
 30
0.0
 10
22.49716253777849
 20
-10.56989745829503
 30
0.0
 10
23.21236436051635
 20
-10.33011881252164
 30
0.0
 10
23.21236436051635
 20
-10.33011881252164
 30
0.0
 10
23.3770399247113
 20
-10.27534179430616
 30
0.0
 10
23.43422850976645
 20
-10.17198892974867
 30
0.0
 10
23.3839301156818
 20
-10.0207492379462
 30
0.0
 10
23.3839301156818
 20
-10.0207492379462
 30
0.0
 10
23.38255207748769
 20
-10.01695963291243
 30
0.0
 10
23.38255207748769
 20
-10.01695963291243
 30
0.0
 10
23.331564664306
 20
-9.864686412464385
 30
0.0
 10
23.22338866606916
 20
-9.816110566122362
 30
0.0
 10
23.05871310187421
 20
-9.871576603434884
 30
0.0
 10
23.05871310187421
 20
-9.871576603434884
 30
0.0
 10
22.57019856206578
 20
-10.03487412943573
 30
0.0
 10
22.57019856206578
 20
-10.03487412943573
 30
0.0
 10
22.57019856206578
 20
-10.03487412943573
 30
0.0
 10
22.39380967322099
 20
-9.509152558386601
 30
0.0
 10
22.39380967322099
 20
-9.509152558386601
 30
0.0
 10
22.39380967322099
 20
-9.509152558386601
 30
0.0
 10
22.88232421302942
 20
-9.345855032385758
 30
0.0
 10
22.88232421302942
 20
-9.345855032385758
 30
0.0
 10
23.39426540213755
 20
-9.174289277220318
 30
0.0
 10
23.73395181698318
 20
-9.339653860512309
 30
0.0
 10
23.90276149576042
 20
-9.842637801358785
 30
0.0
 10
24.07157117453766
 20
-10.34699978039936
 30
0.0
 10
23.90000541937222
 20
-10.68461913795385
 30
0.0
 10
23.38875324936114
 20
-10.85584038357076
 30
0.0
 10
23.38875324936114
 20
-10.85584038357076
 30
0.0
 10
22.66046006377933
 20
-11.10009765347498
 30
0.0
 10
22.66046006377933
 20
-11.10009765347498
 30
0.0
 10
22.32559678261305
 20
-11.2120632567456
 30
0.0
 10
21.98591036776741
 20
-11.14350585658912
 30
0.0
 10
21.64071180014538
 20
-10.89442545300556
 30
0.0
 10
21.29654676116892
 20
-10.64465603032495
 30
0.0
 10
21.03609754248403
 20
-10.54922688538353
 30
0.0
 10
20.85867512499367
 20
-10.60848252772982
 30
0.0
 10
20.85867512499367
 20
-10.60848252772982
 30
0.0
 10
20.63956705213178
 20
-10.68186306156565
 30
0.0
 10
20.63956705213178
 20
-10.68186306156565
 30
0.0
 10
20.63956705213178
 20
-10.68186306156565
 30
0.0
 10
20.96960719961871
 20
-11.66681586079857
 30
0.0
 10
20.96960719961871
 20
-11.66681586079857
 30
0.0
 10
20.96960719961871
 20
-11.66681586079857
 30
0.0
 10
20.45112032908861
 20
-11.84079318280369
 30
0.0
 10
20.45112032908861
 20
-11.84079318280369
 30
0.0
 10
20.45112032908861
 20
-11.84079318280369
 30
0.0
 10
19.94503580230541
 20
-10.32977430297311
 30
0.0
 10
19.94503580230541
 20
-10.32977430297311
 30
0.0
 10
19.94503580230541
 20
-10.32977430297311
 30
0.0
 10
20.72707247745712
 20
-10.0676025365456
 30
0.0
 10
20.72707247745712
 20
-10.0676025365456
 30
0.0
  0
HATCH
  5
84
330
6E
100
AcDbEntity
  8
Layer 1
 62
   250
420
  2301728
100
AcDbHatch
 10
0.0
 20
0.0
 30
0.0
210
0.0
220
0.0
230
1.0
  2
SOLID
 70
     1
 71
     0
 91
        1
 92
        1
 93
        1
 72
     4
 94
        3
 73
     0
 74
     1
 95
       62
 96
       58
 40
0.0
 40
0.0
 40
0.0
 40
0.0
 40
1.0
 40
1.0
 40
1.0
 40
2.0
 40
2.0
 40
2.0
 40
3.0
 40
3.0
 40
3.0
 40
4.0
 40
4.0
 40
4.0
 40
5.0
 40
5.0
 40
5.0
 40
6.0
 40
6.0
 40
6.0
 40
7.0
 40
7.0
 40
7.0
 40
8.0
 40
8.0
 40
8.0
 40
9.0
 40
9.0
 40
9.0
 40
10.0
 40
10.0
 40
10.0
 40
11.0
 40
11.0
 40
11.0
 40
12.0
 40
12.0
 40
12.0
 40
13.0
 40
13.0
 40
13.0
 40
14.0
 40
14.0
 40
14.0
 40
15.0
 40
15.0
 40
15.0
 40
16.0
 40
16.0
 40
16.0
 40
17.0
 40
17.0
 40
17.0
 40
18.0
 40
18.0
 40
18.0
 40
19.0
 40
19.0
 40
19.0
 40
19.0
 10
20.72707247745712
 20
-10.0676025365456
 10
21.05573458674996
 20
-9.95770399056613
 10
21.39128688701329
 20
-10.02729491936818
 10
21.73510741644122
 20
-10.27603081340322
 10
22.07892794586916
 20
-10.5254557265353
 10
22.33317599268059
 20
-10.6232964383164
 10
22.49716253777849
 20
-10.56989745829503
 10
22.49716253777849
 20
-10.56989745829503
 10
23.21236436051635
 20
-10.33011881252164
 10
23.21236436051635
 20
-10.33011881252164
 10
23.3770399247113
 20
-10.27534179430616
 10
23.43422850976645
 20
-10.17198892974867
 10
23.3839301156818
 20
-10.0207492379462
 10
23.3839301156818
 20
-10.0207492379462
 10
23.38255207748769
 20
-10.01695963291243
 10
23.38255207748769
 20
-10.01695963291243
 10
23.331564664306
 20
-9.864686412464385
 10
23.22338866606916
 20
-9.816110566122362
 10
23.05871310187421
 20
-9.871576603434884
 10
23.05871310187421
 20
-9.871576603434884
 10
22.57019856206578
 20
-10.03487412943573
 10
22.57019856206578
 20
-10.03487412943573
 10
22.57019856206578
 20
-10.03487412943573
 10
22.39380967322099
 20
-9.509152558386601
 10
22.39380967322099
 20
-9.509152558386601
 10
22.39380967322099
 20
-9.509152558386601
 10
22.88232421302942
 20
-9.345855032385758
 10
22.88232421302942
 20
-9.345855032385758
 10
23.39426540213755
 20
-9.174289277220318
 10
23.73395181698318
 20
-9.339653860512309
 10
23.90276149576042
 20
-9.842637801358785
 10
24.07157117453766
 20
-10.34699978039936
 10
23.90000541937222
 20
-10.68461913795385
 10
23.38875324936114
 20
-10.85584038357076
 10
23.38875324936114
 20
-10.85584038357076
 10
22.66046006377933
 20
-11.10009765347498
 10
22.66046006377933
 20
-11.10009765347498
 10
22.32559678261305
 20
-11.2120632567456
 10
21.98591036776741
 20
-11.14350585658912
 10
21.64071180014538
 20
-10.89442545300556
 10
21.29654676116892
 20
-10.64465603032495
 10
21.03609754248403
 20
-10.54922688538353
 10
20.85867512499367
 20
-10.60848252772982
 10
20.85867512499367
 20
-10.60848252772982
 10
20.63956705213178
 20
-10.68186306156565
 10
20.63956705213178
 20
-10.68186306156565
 10
20.63956705213178
 20
-10.68186306156565
 10
20.96960719961871
 20
-11.66681586079857
 10
20.96960719961871
 20
-11.66681586079857
 10
20.96960719961871
 20
-11.66681586079857
 10
20.45112032908861
 20
-11.84079318280369
 10
20.45112032908861
 20
-11.84079318280369
 10
20.45112032908861
 20
-11.84079318280369
 10
19.94503580230541
 20
-10.32977430297311
 10
19.94503580230541
 20
-10.32977430297311
 10
19.94503580230541
 20
-10.32977430297311
 10
20.72707247745712
 20
-10.0676025365456
 10
20.72707247745712
 20
-10.0676025365456
 97
        0
 97
        0
 75
     2
 76
     1
 98
        0
  0
SPLINE
  5
85
330
6E
100
AcDbEntity
  8
Layer 1
370
     0
100
AcDbSpline
210
0.0
220
0.0
230
1.0
 70
    11
 71
     3
 72
    92
 73
    88
 74
     0
 42
0.0000000001
 43
0.0000000001
 12
1.0
 22
0.0
 32
0.0
 13
1.0
 23
0.0
 33
0.0
 40
0.0
 40
0.0
 40
0.0
 40
0.0
 40
1.0
 40
1.0
 40
1.0
 40
2.0
 40
2.0
 40
2.0
 40
3.0
 40
3.0
 40
3.0
 40
4.0
 40
4.0
 40
4.0
 40
5.0
 40
5.0
 40
5.0
 40
6.0
 40
6.0
 40
6.0
 40
7.0
 40
7.0
 40
7.0
 40
8.0
 40
8.0
 40
8.0
 40
9.0
 40
9.0
 40
9.0
 40
10.0
 40
10.0
 40
10.0
 40
11.0
 40
11.0
 40
11.0
 40
12.0
 40
12.0
 40
12.0
 40
13.0
 40
13.0
 40
13.0
 40
14.0
 40
14.0
 40
14.0
 40
15.0
 40
15.0
 40
15.0
 40
16.0
 40
16.0
 40
16.0
 40
17.0
 40
17.0
 40
17.0
 40
18.0
 40
18.0
 40
18.0
 40
19.0
 40
19.0
 40
19.0
 40
20.0
 40
20.0
 40
20.0
 40
21.0
 40
21.0
 40
21.0
 40
22.0
 40
22.0
 40
22.0
 40
23.0
 40
23.0
 40
23.0
 40
24.0
 40
24.0
 40
24.0
 40
25.0
 40
25.0
 40
25.0
 40
26.0
 40
26.0
 40
26.0
 40
27.0
 40
27.0
 40
27.0
 40
28.0
 40
28.0
 40
28.0
 40
29.0
 40
29.0
 40
29.0
 40
29.0
 10
23.11417913918674
 20
-16.69321017377809
 30
0.0
 10
23.27851019383315
 20
-16.74488660605683
 30
0.0
 10
23.3853081538759
 20
-16.69458821197219
 30
0.0
 10
23.43491752886349
 20
-16.54197048197562
 30
0.0
 10
23.43491752886349
 20
-16.54197048197562
 30
0.0
 10
23.43629556705759
 20
-16.53783636739332
 30
0.0
 10
23.43629556705759
 20
-16.53783636739332
 30
0.0
 10
23.48418239430257
 20
-16.38625216604233
 30
0.0
 10
23.42527126150479
 20
-16.28358832058188
 30
0.0
 10
23.2599066782128
 20
-16.23122286920609
 30
0.0
 10
23.2599066782128
 20
-16.23122286920609
 30
0.0
 10
22.76794704291913
 20
-16.07619357236984
 30
0.0
 10
22.76794704291913
 20
-16.07619357236984
 30
0.0
 10
22.76794704291913
 20
-16.07619357236984
 30
0.0
 10
22.93468966440522
 20
-15.54771592493252
 30
0.0
 10
22.93468966440522
 20
-15.54771592493252
 30
0.0
 10
22.93468966440522
 20
-15.54771592493252
 30
0.0
 10
23.42664929969889
 20
-15.70274522176876
 30
0.0
 10
23.42664929969889
 20
-15.70274522176876
 30
0.0
 10
23.93996852700112
 20
-15.8646647095755
 30
0.0
 10
24.11635741584591
 20
-16.19814995254768
 30
0.0
 10
23.95719400442737
 20
-16.70388996978236
 30
0.0
 10
23.79734157391178
 20
-17.21135253475966
 30
0.0
 10
23.46041123545434
 20
-17.38395181857068
 30
0.0
 10
22.94709200815212
 20
-17.22168782121541
 30
0.0
 10
22.94709200815212
 20
-17.22168782121541
 30
0.0
 10
22.3097493433809
 20
-17.02118326397387
 30
0.0
 10
22.3097493433809
 20
-17.02118326397387
 30
0.0
 10
22.06928167851046
 20
-16.94504665374985
 30
0.0
 10
21.93009982090636
 20
-16.79518500014148
 30
0.0
 10
21.89151475147157
 20
-16.57022026495467
 30
0.0
 10
21.7306287923104
 20
-16.73213975276141
 30
0.0
 10
21.52977972552033
 20
-16.77485893677851
 30
0.0
 10
21.28931206064989
 20
-16.69906683610301
 30
0.0
 10
21.28931206064989
 20
-16.69906683610301
 30
0.0
 10
20.704679356803
 20
-16.51440971809362
 30
0.0
 10
20.704679356803
 20
-16.51440971809362
 30
0.0
 10
20.1917046390493
 20
-16.35249023028688
 30
0.0
 10
20.01462673110746
 20
-16.01797145866912
 30
0.0
 10
20.17447916162305
 20
-15.51119791278887
 30
0.0
 10
20.33433159213864
 20
-15.00545789555419
 30
0.0
 10
20.67057291149903
 20
-14.83354763084023
 30
0.0
 10
21.18389213880125
 20
-14.99546711864697
 30
0.0
 10
21.18389213880125
 20
-14.99546711864697
 30
0.0
 10
21.67516275499788
 20
-15.15049641548321
 30
0.0
 10
21.67516275499788
 20
-15.15049641548321
 30
0.0
 10
21.67516275499788
 20
-15.15049641548321
 30
0.0
 10
21.50842013351178
 20
-15.67931857246906
 30
0.0
 10
21.50842013351178
 20
-15.67931857246906
 30
0.0
 10
21.50842013351178
 20
-15.67931857246906
 30
0.0
 10
21.01714951731516
 20
-15.52428927563282
 30
0.0
 10
21.01714951731516
 20
-15.52428927563282
 30
0.0
 10
20.85109591492612
 20
-15.47192382425702
 30
0.0
 10
20.74464246443189
 20
-15.52187770879314
 30
0.0
 10
20.69675563718692
 20
-15.67380641969266
 30
0.0
 10
20.69675563718692
 20
-15.67380641969266
 30
0.0
 10
20.69537759899282
 20
-15.67759602472644
 30
0.0
 10
20.69537759899282
 20
-15.67759602472644
 30
0.0
 10
20.64852430039343
 20
-15.83124728336858
 30
0.0
 10
20.70709092364267
 20
-15.9335666192805
 30
0.0
 10
20.87142197828909
 20
-15.9859320706563
 30
0.0
 10
20.87142197828909
 20
-15.9859320706563
 30
0.0
 10
21.45674370123304
 20
-16.17024467911716
 30
0.0
 10
21.45674370123304
 20
-16.17024467911716
 30
0.0
 10
21.58972438696368
 20
-16.21227484403721
 30
0.0
 10
21.67791883138608
 20
-16.20917425810049
 30
0.0
 10
21.72029350585465
 20
-16.16094292130699
 30
0.0
 10
21.74199760741172
 20
-16.13510470516761
 30
0.0
 10
21.76301268987175
 20
-16.09066297340789
 30
0.0
 10
21.78264973413767
 20
-16.0286512546734
 30
0.0
 10
21.78264973413767
 20
-16.0286512546734
 30
0.0
 10
21.83742675235315
 20
-15.85467393266828
 30
0.0
 10
21.83742675235315
 20
-15.85467393266828
 30
0.0
 10
21.83742675235315
 20
-15.85467393266828
 30
0.0
 10
22.35866969927145
 20
-16.01934949686322
 30
0.0
 10
22.35866969927145
 20
-16.01934949686322
 30
0.0
 10
22.35866969927145
 20
-16.01934949686322
 30
0.0
 10
22.29114582776055
 20
-16.23432345514281
 30
0.0
 10
22.29114582776055
 20
-16.23432345514281
 30
0.0
 10
22.2752983885284
 20
-16.28427733967893
 30
0.0
 10
22.2711642739461
 20
-16.3238959377593
 30
0.0
 10
22.2780544649166
 20
-16.35352375893245
 30
0.0
 10
22.28976778956645
 20
-16.40761175805088
 30
0.0
 10
22.35729166107734
 20
-16.45412054710175
 30
0.0
 10
22.48028156990076
 20
-16.49305012608507
 30
0.0
 10
22.48028156990076
 20
-16.49305012608507
 30
0.0
 10
23.11417913918674
 20
-16.69321017377809
 30
0.0
 10
23.11417913918674
 20
-16.69321017377809
 30
0.0
  0
HATCH
  5
86
330
6E
100
AcDbEntity
  8
Layer 1
 62
   250
420
  2301728
100
AcDbHatch
 10
0.0
 20
0.0
 30
0.0
210
0.0
220
0.0
230
1.0
  2
SOLID
 70
     1
 71
     0
 91
        1
 92
        1
 93
        1
 72
     4
 94
        3
 73
     0
 74
     1
 95
       92
 96
       88
 40
0.0
 40
0.0
 40
0.0
 40
0.0
 40
1.0
 40
1.0
 40
1.0
 40
2.0
 40
2.0
 40
2.0
 40
3.0
 40
3.0
 40
3.0
 40
4.0
 40
4.0
 40
4.0
 40
5.0
 40
5.0
 40
5.0
 40
6.0
 40
6.0
 40
6.0
 40
7.0
 40
7.0
 40
7.0
 40
8.0
 40
8.0
 40
8.0
 40
9.0
 40
9.0
 40
9.0
 40
10.0
 40
10.0
 40
10.0
 40
11.0
 40
11.0
 40
11.0
 40
12.0
 40
12.0
 40
12.0
 40
13.0
 40
13.0
 40
13.0
 40
14.0
 40
14.0
 40
14.0
 40
15.0
 40
15.0
 40
15.0
 40
16.0
 40
16.0
 40
16.0
 40
17.0
 40
17.0
 40
17.0
 40
18.0
 40
18.0
 40
18.0
 40
19.0
 40
19.0
 40
19.0
 40
20.0
 40
20.0
 40
20.0
 40
21.0
 40
21.0
 40
21.0
 40
22.0
 40
22.0
 40
22.0
 40
23.0
 40
23.0
 40
23.0
 40
24.0
 40
24.0
 40
24.0
 40
25.0
 40
25.0
 40
25.0
 40
26.0
 40
26.0
 40
26.0
 40
27.0
 40
27.0
 40
27.0
 40
28.0
 40
28.0
 40
28.0
 40
29.0
 40
29.0
 40
29.0
 40
29.0
 10
23.11417913918674
 20
-16.69321017377809
 10
23.27851019383315
 20
-16.74488660605683
 10
23.3853081538759
 20
-16.69458821197219
 10
23.43491752886349
 20
-16.54197048197562
 10
23.43491752886349
 20
-16.54197048197562
 10
23.43629556705759
 20
-16.53783636739332
 10
23.43629556705759
 20
-16.53783636739332
 10
23.48418239430257
 20
-16.38625216604233
 10
23.42527126150479
 20
-16.28358832058188
 10
23.2599066782128
 20
-16.23122286920609
 10
23.2599066782128
 20
-16.23122286920609
 10
22.76794704291913
 20
-16.07619357236984
 10
22.76794704291913
 20
-16.07619357236984
 10
22.76794704291913
 20
-16.07619357236984
 10
22.93468966440522
 20
-15.54771592493252
 10
22.93468966440522
 20
-15.54771592493252
 10
22.93468966440522
 20
-15.54771592493252
 10
23.42664929969889
 20
-15.70274522176876
 10
23.42664929969889
 20
-15.70274522176876
 10
23.93996852700112
 20
-15.8646647095755
 10
24.11635741584591
 20
-16.19814995254768
 10
23.95719400442737
 20
-16.70388996978236
 10
23.79734157391178
 20
-17.21135253475966
 10
23.46041123545434
 20
-17.38395181857068
 10
22.94709200815212
 20
-17.22168782121541
 10
22.94709200815212
 20
-17.22168782121541
 10
22.3097493433809
 20
-17.02118326397387
 10
22.3097493433809
 20
-17.02118326397387
 10
22.06928167851046
 20
-16.94504665374985
 10
21.93009982090636
 20
-16.79518500014148
 10
21.89151475147157
 20
-16.57022026495467
 10
21.7306287923104
 20
-16.73213975276141
 10
21.52977972552033
 20
-16.77485893677851
 10
21.28931206064989
 20
-16.69906683610301
 10
21.28931206064989
 20
-16.69906683610301
 10
20.704679356803
 20
-16.51440971809362
 10
20.704679356803
 20
-16.51440971809362
 10
20.1917046390493
 20
-16.35249023028688
 10
20.01462673110746
 20
-16.01797145866912
 10
20.17447916162305
 20
-15.51119791278887
 10
20.33433159213864
 20
-15.00545789555419
 10
20.67057291149903
 20
-14.83354763084023
 10
21.18389213880125
 20
-14.99546711864697
 10
21.18389213880125
 20
-14.99546711864697
 10
21.67516275499788
 20
-15.15049641548321
 10
21.67516275499788
 20
-15.15049641548321
 10
21.67516275499788
 20
-15.15049641548321
 10
21.50842013351178
 20
-15.67931857246906
 10
21.50842013351178
 20
-15.67931857246906
 10
21.50842013351178
 20
-15.67931857246906
 10
21.01714951731516
 20
-15.52428927563282
 10
21.01714951731516
 20
-15.52428927563282
 10
20.85109591492612
 20
-15.47192382425702
 10
20.74464246443189
 20
-15.52187770879314
 10
20.69675563718692
 20
-15.67380641969266
 10
20.69675563718692
 20
-15.67380641969266
 10
20.69537759899282
 20
-15.67759602472644
 10
20.69537759899282
 20
-15.67759602472644
 10
20.64852430039343
 20
-15.83124728336858
 10
20.70709092364267
 20
-15.9335666192805
 10
20.87142197828909
 20
-15.9859320706563
 10
20.87142197828909
 20
-15.9859320706563
 10
21.45674370123304
 20
-16.17024467911716
 10
21.45674370123304
 20
-16.17024467911716
 10
21.58972438696368
 20
-16.21227484403721
 10
21.67791883138608
 20
-16.20917425810049
 10
21.72029350585465
 20
-16.16094292130699
 10
21.74199760741172
 20
-16.13510470516761
 10
21.76301268987175
 20
-16.09066297340789
 10
21.78264973413767
 20
-16.0286512546734
 10
21.78264973413767
 20
-16.0286512546734
 10
21.83742675235315
 20
-15.85467393266828
 10
21.83742675235315
 20
-15.85467393266828
 10
21.83742675235315
 20
-15.85467393266828
 10
22.35866969927145
 20
-16.01934949686322
 10
22.35866969927145
 20
-16.01934949686322
 10
22.35866969927145
 20
-16.01934949686322
 10
22.29114582776055
 20
-16.23432345514281
 10
22.29114582776055
 20
-16.23432345514281
 10
22.2752983885284
 20
-16.28427733967893
 10
22.2711642739461
 20
-16.3238959377593
 10
22.2780544649166
 20
-16.35352375893245
 10
22.28976778956645
 20
-16.40761175805088
 10
22.35729166107734
 20
-16.45412054710175
 10
22.48028156990076
 20
-16.49305012608507
 10
22.48028156990076
 20
-16.49305012608507
 10
23.11417913918674
 20
-16.69321017377809
 10
23.11417913918674
 20
-16.69321017377809
 97
        0
 97
        0
 75
     2
 76
     1
 98
        0
  0
POLYLINE
  5
87
330
6E
100
AcDbEntity
  8
Layer 1
370
     0
100
AcDb2dPolyline
 66
     1
 10
0.0
 20
0.0
 30
0.0
  0
VERTEX
  5
88
330
87
100
AcDbEntity
  8
Layer 1
370
     0
100
AcDbVertex
100
AcDb2dVertex
 10
19.35282388839096
 20
-22.6614935924249
 30
0.0
  0
VERTEX
  5
89
330
87
100
AcDbEntity
  8
Layer 1
370
     0
100
AcDbVertex
100
AcDb2dVertex
 10
17.85386284275876
 20
-20.63336588025832
 30
0.0
  0
VERTEX
  5
8A
330
87
100
AcDbEntity
  8
Layer 1
370
     0
100
AcDbVertex
100
AcDb2dVertex
 10
17.68229708759332
 20
-20.76014539411552
 30
0.0
  0
VERTEX
  5
8B
330
87
100
AcDbEntity
  8
Layer 1
370
     0
100
AcDbVertex
100
AcDb2dVertex
 10
17.35708007378573
 20
-20.32055121019764
 30
0.0
  0
VERTEX
  5
8C
330
87
100
AcDbEntity
  8
Layer 1
370
     0
100
AcDbVertex
100
AcDb2dVertex
 10
17.52864582895117
 20
-20.19377169634045
 30
0.0
  0
VERTEX
  5
8D
330
87
100
AcDbEntity
  8
Layer 1
370
     0
100
AcDbVertex
100
AcDb2dVertex
 10
17.06769205302474
 20
-19.56952039441317
 30
0.0
  0
VERTEX
  5
8E
330
87
100
AcDbEntity
  8
Layer 1
370
     0
100
AcDbVertex
100
AcDb2dVertex
 10
17.51348740881607
 20
-19.24016926602329
 30
0.0
  0
VERTEX
  5
8F
330
87
100
AcDbEntity
  8
Layer 1
370
     0
100
AcDbVertex
100
AcDb2dVertex
 10
17.97513020383955
 20
-19.86373154885351
 30
0.0
  0
VERTEX
  5
90
330
87
100
AcDbEntity
  8
Layer 1
370
     0
100
AcDbVertex
100
AcDb2dVertex
 10
18.87912325916911
 20
-19.19572753426357
 30
0.0
  0
VERTEX
  5
91
330
87
100
AcDbEntity
  8
Layer 1
370
     0
100
AcDbVertex
100
AcDb2dVertex
 10
19.16851127993009
 20
-19.5864013622909
 30
0.0
  0
VERTEX
  5
92
330
87
100
AcDbEntity
  8
Layer 1
370
     0
100
AcDbVertex
100
AcDb2dVertex
 10
19.92160915300571
 20
-22.2408474336759
 30
0.0
  0
VERTEX
  5
93
330
87
100
AcDbEntity
  8
Layer 1
370
     0
100
AcDbVertex
100
AcDb2dVertex
 10
19.35282388839096
 20
-22.6614935924249
 30
0.0
  0
SEQEND
  5
94
330
87
100
AcDbEntity
  8
Layer 1
370
     0
  0
POLYLINE
  5
95
330
6E
100
AcDbEntity
  8
Layer 1
370
     0
100
AcDb2dPolyline
 66
     1
 10
0.0
 20
0.0
 30
0.0
  0
VERTEX
  5
96
330
95
100
AcDbEntity
  8
Layer 1
370
     0
100
AcDbVertex
100
AcDb2dVertex
 10
18.76474608905881
 20
-19.96019422244051
 30
0.0
  0
VERTEX
  5
97
330
95
100
AcDbEntity
  8
Layer 1
370
     0
100
AcDbVertex
100
AcDb2dVertex
 10
18.29965819855009
 20
-20.30367024231992
 30
0.0
  0
VERTEX
  5
98
330
95
100
AcDbEntity
  8
Layer 1
370
     0
100
AcDbVertex
100
AcDb2dVertex
 10
19.27117512539054
 20
-21.6176296603942
 30
0.0
  0
VERTEX
  5
99
330
95
100
AcDbEntity
  8
Layer 1
370
     0
100
AcDbVertex
100
AcDb2dVertex
 10
18.76474608905881
 20
-19.96019422244051
 30
0.0
  0
SEQEND
  5
9A
330
95
100
AcDbEntity
  8
Layer 1
370
     0
  0
HATCH
  5
9B
330
6E
100
AcDbEntity
  8
Layer 1
 62
   250
420
  2301728
100
AcDbHatch
 10
0.0
 20
0.0
 30
0.0
210
0.0
220
0.0
230
1.0
  2
SOLID
 70
     1
 71
     0
 91
        2
 92
        1
 93
       11
 72
     1
 10
19.35282388839096
 20
-22.6614935924249
 11
17.85386284275876
 21
-20.63336588025832
 72
     1
 10
17.85386284275876
 20
-20.63336588025832
 11
17.68229708759332
 21
-20.76014539411552
 72
     1
 10
17.68229708759332
 20
-20.76014539411552
 11
17.35708007378573
 21
-20.32055121019764
 72
     1
 10
17.35708007378573
 20
-20.32055121019764
 11
17.52864582895117
 21
-20.19377169634045
 72
     1
 10
17.52864582895117
 20
-20.19377169634045
 11
17.06769205302474
 21
-19.56952039441317
 72
     1
 10
17.06769205302474
 20
-19.56952039441317
 11
17.51348740881607
 21
-19.24016926602329
 72
     1
 10
17.51348740881607
 20
-19.24016926602329
 11
17.97513020383955
 21
-19.86373154885351
 72
     1
 10
17.97513020383955
 20
-19.86373154885351
 11
18.87912325916911
 21
-19.19572753426357
 72
     1
 10
18.87912325916911
 20
-19.19572753426357
 11
19.16851127993009
 21
-19.5864013622909
 72
     1
 10
19.16851127993009
 20
-19.5864013622909
 11
19.92160915300571
 21
-22.2408474336759
 72
     1
 10
19.92160915300571
 20
-22.2408474336759
 11
19.35282388839096
 21
-22.6614935924249
 97
        0
 92
        1
 93
        3
 72
     1
 10
18.76474608905881
 20
-19.96019422244051
 11
18.29965819855009
 21
-20.30367024231992
 72
     1
 10
18.29965819855009
 20
-20.30367024231992
 11
19.27117512539054
 21
-21.6176296603942
 72
     1
 10
19.27117512539054
 20
-21.6176296603942
 11
18.76474608905881
 21
-19.96019422244051
 97
        0
 75
     2
 76
     1
 98
        0
  0
SPLINE
  5
9C
330
6E
100
AcDbEntity
  8
Layer 1
370
     0
100
AcDbSpline
210
0.0
220
0.0
230
1.0
 70
    11
 71
     3
 72
    80
 73
    76
 74
     0
 42
0.0000000001
 43
0.0000000001
 12
1.0
 22
0.0
 32
0.0
 13
1.0
 23
0.0
 33
0.0
 40
0.0
 40
0.0
 40
0.0
 40
0.0
 40
1.0
 40
1.0
 40
1.0
 40
2.0
 40
2.0
 40
2.0
 40
3.0
 40
3.0
 40
3.0
 40
4.0
 40
4.0
 40
4.0
 40
5.0
 40
5.0
 40
5.0
 40
6.0
 40
6.0
 40
6.0
 40
7.0
 40
7.0
 40
7.0
 40
8.0
 40
8.0
 40
8.0
 40
9.0
 40
9.0
 40
9.0
 40
10.0
 40
10.0
 40
10.0
 40
11.0
 40
11.0
 40
11.0
 40
12.0
 40
12.0
 40
12.0
 40
13.0
 40
13.0
 40
13.0
 40
14.0
 40
14.0
 40
14.0
 40
15.0
 40
15.0
 40
15.0
 40
16.0
 40
16.0
 40
16.0
 40
17.0
 40
17.0
 40
17.0
 40
18.0
 40
18.0
 40
18.0
 40
19.0
 40
19.0
 40
19.0
 40
20.0
 40
20.0
 40
20.0
 40
21.0
 40
21.0
 40
21.0
 40
22.0
 40
22.0
 40
22.0
 40
23.0
 40
23.0
 40
23.0
 40
24.0
 40
24.0
 40
24.0
 40
25.0
 40
25.0
 40
25.0
 40
25.0
 10
13.21555853619264
 20
-22.38312987721672
 30
0.0
 10
13.21659206483821
 20
-22.51886663933556
 30
0.0
 10
13.24587537646284
 20
-22.59913736414188
 30
0.0
 10
13.30358072584077
 20
-22.62359754208716
 30
0.0
 10
13.33493109475654
 20
-22.63772243357668
 30
0.0
 10
13.38540174361546
 20
-22.64461262454718
 30
0.0
 10
13.45464816286898
 20
-22.64426811499866
 30
0.0
 10
13.4715291307467
 20
-22.64392360545013
 30
0.0
 10
13.48927137249574
 20
-22.64323458635308
 30
0.0
 10
13.5073581237933
 20
-22.64185654815898
 30
0.0
 10
13.61966823661244
 20
-22.63565537628553
 30
0.0
 10
13.68202446489547
 20
-22.58535698220089
 30
0.0
 10
13.69459906341663
 20
-22.48958332771094
 30
0.0
 10
13.69459906341663
 20
-22.48958332771094
 30
0.0
 10
13.69924994232172
 20
-22.3345540308747
 30
0.0
 10
13.69924994232172
 20
-22.3345540308747
 30
0.0
 10
13.69924994232172
 20
-22.3345540308747
 30
0.0
 10
14.25373806067268
 20
-22.33110893538944
 30
0.0
 10
14.25373806067268
 20
-22.33110893538944
 30
0.0
 10
14.25373806067268
 20
-22.33110893538944
 30
0.0
 10
14.18586967961325
 20
-24.38266329685572
 30
0.0
 10
14.18586967961325
 20
-24.38266329685572
 30
0.0
 10
14.18586967961325
 20
-24.38266329685572
 30
0.0
 10
12.67502305455694
 20
-24.39368760240852
 30
0.0
 10
12.67502305455694
 20
-24.39368760240852
 30
0.0
 10
12.67502305455694
 20
-24.39368760240852
 30
0.0
 10
12.67140570429743
 20
-23.84695094889937
 30
0.0
 10
12.67140570429743
 20
-23.84695094889937
 30
0.0
 10
12.67140570429743
 20
-23.84695094889937
 30
0.0
 10
13.64895154823707
 20
-23.84006075792887
 30
0.0
 10
13.64895154823707
 20
-23.84006075792887
 30
0.0
 10
13.64895154823707
 20
-23.84006075792887
 30
0.0
 10
13.68236897444399
 20
-23.01289333192039
 30
0.0
 10
13.68236897444399
 20
-23.01289333192039
 30
0.0
 10
13.58917914156798
 20
-23.12175834925428
 30
0.0
 10
13.46153835383948
 20
-23.17722438656681
 30
0.0
 10
13.29944661125847
 20
-23.17825791521238
 30
0.0
 10
13.27739800015287
 20
-23.17791340566385
 30
0.0
 10
13.25448811517596
 20
-23.17687987701828
 30
0.0
 10
13.23106146587626
 20
-23.17446831017861
 30
0.0
 10
13.03761935437949
 20
-23.15930989004351
 30
0.0
 10
12.88999701283653
 20
-23.08248426072243
 30
0.0
 10
12.78836669602166
 20
-22.94468044131244
 30
0.0
 10
12.70533989482714
 20
-22.83305934759035
 30
0.0
 10
12.6627929655843
 20
-22.64702419138685
 30
0.0
 10
12.66124267261594
 20
-22.38726399179902
 30
0.0
 10
12.66124267261594
 20
-22.38726399179902
 30
0.0
 10
12.65349120777413
 20
-21.29551323252334
 30
0.0
 10
12.65349120777413
 20
-21.29551323252334
 30
0.0
 10
12.64970160274035
 20
-20.75738931772732
 30
0.0
 10
12.91359591691049
 20
-20.48660481258668
 30
0.0
 10
13.4453464050588
 20
-20.48281520755291
 30
0.0
 10
13.97537434546449
 20
-20.47902560251913
 30
0.0
 10
14.24271375511988
 20
-20.746020502626
 30
0.0
 10
14.24615885060513
 20
-21.28414441742202
 30
0.0
 10
14.24615885060513
 20
-21.28414441742202
 30
0.0
 10
14.24960394609038
 20
-21.73924153102352
 30
0.0
 10
14.24960394609038
 20
-21.73924153102352
 30
0.0
 10
14.24960394609038
 20
-21.73924153102352
 30
0.0
 10
13.69511582773942
 20
-21.7430311360573
 30
0.0
 10
13.69511582773942
 20
-21.7430311360573
 30
0.0
 10
13.69511582773942
 20
-21.7430311360573
 30
0.0
 10
13.69201524180269
 20
-21.28827853200432
 30
0.0
 10
13.69201524180269
 20
-21.28827853200432
 30
0.0
 10
13.69063720360859
 20
-21.11464571954773
 30
0.0
 10
13.61036647880227
 20
-21.02817382286796
 30
0.0
 10
13.45120306738373
 20
-21.02955186106206
 30
0.0
 10
13.45120306738373
 20
-21.02955186106206
 30
0.0
 10
13.44706895280143
 20
-21.02955186106206
 30
0.0
 10
13.44706895280143
 20
-21.02955186106206
 30
0.0
 10
13.28652750318879
 20
-21.03196342790173
 30
0.0
 10
13.20660128793099
 20
-21.11946885322708
 30
0.0
 10
13.20797932612509
 20
-21.29137911794104
 30
0.0
 10
13.20797932612509
 20
-21.29137911794104
 30
0.0
 10
13.21555853619264
 20
-22.38312987721672
 30
0.0
 10
13.21555853619264
 20
-22.38312987721672
 30
0.0
  0
HATCH
  5
9D
330
6E
100
AcDbEntity
  8
Layer 1
 62
   250
420
  2301728
100
AcDbHatch
 10
0.0
 20
0.0
 30
0.0
210
0.0
220
0.0
230
1.0
  2
SOLID
 70
     1
 71
     0
 91
        1
 92
        1
 93
        1
 72
     4
 94
        3
 73
     0
 74
     1
 95
       80
 96
       76
 40
0.0
 40
0.0
 40
0.0
 40
0.0
 40
1.0
 40
1.0
 40
1.0
 40
2.0
 40
2.0
 40
2.0
 40
3.0
 40
3.0
 40
3.0
 40
4.0
 40
4.0
 40
4.0
 40
5.0
 40
5.0
 40
5.0
 40
6.0
 40
6.0
 40
6.0
 40
7.0
 40
7.0
 40
7.0
 40
8.0
 40
8.0
 40
8.0
 40
9.0
 40
9.0
 40
9.0
 40
10.0
 40
10.0
 40
10.0
 40
11.0
 40
11.0
 40
11.0
 40
12.0
 40
12.0
 40
12.0
 40
13.0
 40
13.0
 40
13.0
 40
14.0
 40
14.0
 40
14.0
 40
15.0
 40
15.0
 40
15.0
 40
16.0
 40
16.0
 40
16.0
 40
17.0
 40
17.0
 40
17.0
 40
18.0
 40
18.0
 40
18.0
 40
19.0
 40
19.0
 40
19.0
 40
20.0
 40
20.0
 40
20.0
 40
21.0
 40
21.0
 40
21.0
 40
22.0
 40
22.0
 40
22.0
 40
23.0
 40
23.0
 40
23.0
 40
24.0
 40
24.0
 40
24.0
 40
25.0
 40
25.0
 40
25.0
 40
25.0
 10
13.21555853619264
 20
-22.38312987721672
 10
13.21659206483821
 20
-22.51886663933556
 10
13.24587537646284
 20
-22.59913736414188
 10
13.30358072584077
 20
-22.62359754208716
 10
13.33493109475654
 20
-22.63772243357668
 10
13.38540174361546
 20
-22.64461262454718
 10
13.45464816286898
 20
-22.64426811499866
 10
13.4715291307467
 20
-22.64392360545013
 10
13.48927137249574
 20
-22.64323458635308
 10
13.5073581237933
 20
-22.64185654815898
 10
13.61966823661244
 20
-22.63565537628553
 10
13.68202446489547
 20
-22.58535698220089
 10
13.69459906341663
 20
-22.48958332771094
 10
13.69459906341663
 20
-22.48958332771094
 10
13.69924994232172
 20
-22.3345540308747
 10
13.69924994232172
 20
-22.3345540308747
 10
13.69924994232172
 20
-22.3345540308747
 10
14.25373806067268
 20
-22.33110893538944
 10
14.25373806067268
 20
-22.33110893538944
 10
14.25373806067268
 20
-22.33110893538944
 10
14.18586967961325
 20
-24.38266329685572
 10
14.18586967961325
 20
-24.38266329685572
 10
14.18586967961325
 20
-24.38266329685572
 10
12.67502305455694
 20
-24.39368760240852
 10
12.67502305455694
 20
-24.39368760240852
 10
12.67502305455694
 20
-24.39368760240852
 10
12.67140570429743
 20
-23.84695094889937
 10
12.67140570429743
 20
-23.84695094889937
 10
12.67140570429743
 20
-23.84695094889937
 10
13.64895154823707
 20
-23.84006075792887
 10
13.64895154823707
 20
-23.84006075792887
 10
13.64895154823707
 20
-23.84006075792887
 10
13.68236897444399
 20
-23.01289333192039
 10
13.68236897444399
 20
-23.01289333192039
 10
13.58917914156798
 20
-23.12175834925428
 10
13.46153835383948
 20
-23.17722438656681
 10
13.29944661125847
 20
-23.17825791521238
 10
13.27739800015287
 20
-23.17791340566385
 10
13.25448811517596
 20
-23.17687987701828
 10
13.23106146587626
 20
-23.17446831017861
 10
13.03761935437949
 20
-23.15930989004351
 10
12.88999701283653
 20
-23.08248426072243
 10
12.78836669602166
 20
-22.94468044131244
 10
12.70533989482714
 20
-22.83305934759035
 10
12.6627929655843
 20
-22.64702419138685
 10
12.66124267261594
 20
-22.38726399179902
 10
12.66124267261594
 20
-22.38726399179902
 10
12.65349120777413
 20
-21.29551323252334
 10
12.65349120777413
 20
-21.29551323252334
 10
12.64970160274035
 20
-20.75738931772732
 10
12.91359591691049
 20
-20.48660481258668
 10
13.4453464050588
 20
-20.48281520755291
 10
13.97537434546449
 20
-20.47902560251913
 10
14.24271375511988
 20
-20.746020502626
 10
14.24615885060513
 20
-21.28414441742202
 10
14.24615885060513
 20
-21.28414441742202
 10
14.24960394609038
 20
-21.73924153102352
 10
14.24960394609038
 20
-21.73924153102352
 10
14.24960394609038
 20
-21.73924153102352
 10
13.69511582773942
 20
-21.7430311360573
 10
13.69511582773942
 20
-21.7430311360573
 10
13.69511582773942
 20
-21.7430311360573
 10
13.69201524180269
 20
-21.28827853200432
 10
13.69201524180269
 20
-21.28827853200432
 10
13.69063720360859
 20
-21.11464571954773
 10
13.61036647880227
 20
-21.02817382286796
 10
13.45120306738373
 20
-21.02955186106206
 10
13.45120306738373
 20
-21.02955186106206
 10
13.44706895280143
 20
-21.02955186106206
 10
13.44706895280143
 20
-21.02955186106206
 10
13.28652750318879
 20
-21.03196342790173
 10
13.20660128793099
 20
-21.11946885322708
 10
13.20797932612509
 20
-21.29137911794104
 10
13.20797932612509
 20
-21.29137911794104
 10
13.21555853619264
 20
-22.38312987721672
 10
13.21555853619264
 20
-22.38312987721672
 97
        0
 97
        0
 75
     2
 76
     1
 98
        0
  0
SPLINE
  5
9E
330
6E
100
AcDbEntity
  8
Layer 1
370
     0
100
AcDbSpline
210
0.0
220
0.0
230
1.0
 70
    11
 71
     3
 72
    56
 73
    52
 74
     0
 42
0.0000000001
 43
0.0000000001
 12
1.0
 22
0.0
 32
0.0
 13
1.0
 23
0.0
 33
0.0
 40
0.0
 40
0.0
 40
0.0
 40
0.0
 40
1.0
 40
1.0
 40
1.0
 40
2.0
 40
2.0
 40
2.0
 40
3.0
 40
3.0
 40
3.0
 40
4.0
 40
4.0
 40
4.0
 40
5.0
 40
5.0
 40
5.0
 40
6.0
 40
6.0
 40
6.0
 40
7.0
 40
7.0
 40
7.0
 40
8.0
 40
8.0
 40
8.0
 40
9.0
 40
9.0
 40
9.0
 40
10.0
 40
10.0
 40
10.0
 40
11.0
 40
11.0
 40
11.0
 40
12.0
 40
12.0
 40
12.0
 40
13.0
 40
13.0
 40
13.0
 40
14.0
 40
14.0
 40
14.0
 40
15.0
 40
15.0
 40
15.0
 40
16.0
 40
16.0
 40
16.0
 40
17.0
 40
17.0
 40
17.0
 40
17.0
 10
8.153679739715052
 20
-21.10982258586838
 30
0.0
 10
8.015531410756534
 20
-21.125325515552
 30
0.0
 10
7.885134546639827
 20
-21.08880750340835
 30
0.0
 10
7.761800128267883
 20
-21.00095756853448
 30
0.0
 10
7.739407007613759
 20
-20.98545463885086
 30
0.0
 10
7.717186141733898
 20
-20.96754014232756
 30
0.0
 10
7.695309785402562
 20
-20.94893662670721
 30
0.0
 10
7.561467825800605
 20
-20.83076985156314
 30
0.0
 10
7.485331215576585
 20
-20.69813367538102
 30
0.0
 10
7.46638319040771
 20
-20.55137260770938
 30
0.0
 10
7.446918400916049
 20
-20.40116644455249
 30
0.0
 10
7.520471189526132
 20
-20.20893011647555
 30
0.0
 10
7.68755832056075
 20
-19.97535264257561
 30
0.0
 10
7.68755832056075
 20
-19.97535264257561
 30
0.0
 10
8.131975638157979
 20
-19.35351290748801
 30
0.0
 10
8.131975638157979
 20
-19.35351290748801
 30
0.0
 10
8.444790308218664
 20
-18.91564127131276
 30
0.0
 10
8.817549639722696
 20
-18.85087347619006
 30
0.0
 10
9.250081377895814
 20
-19.16024305076549
 30
0.0
 10
9.681579587423355
 20
-19.46823458714683
 30
0.0
 10
9.741007484543916
 20
-19.84099391865086
 30
0.0
 10
9.428365069257492
 20
-20.27921006437464
 30
0.0
 10
9.428365069257492
 20
-20.27921006437464
 30
0.0
 10
8.06152343548462
 20
-22.19296060643093
 30
0.0
 10
8.06152343548462
 20
-22.19296060643093
 30
0.0
 10
7.747847491552622
 20
-22.63186577125176
 30
0.0
 10
7.375432669597115
 20
-22.6973225854715
 30
0.0
 10
6.94376220529531
 20
-22.38898653954164
 30
0.0
 10
6.511058212347931
 20
-22.07996147451473
 30
0.0
 10
6.451802570001633
 20
-21.70547959526808
 30
0.0
 10
6.765306259159368
 20
-21.26657443044725
 30
0.0
 10
6.765306259159368
 20
-21.26657443044725
 30
0.0
 10
7.064857311601841
 20
-20.84765081944087
 30
0.0
 10
7.064857311601841
 20
-20.84765081944087
 30
0.0
 10
7.064857311601841
 20
-20.84765081944087
 30
0.0
 10
7.515820310621045
 20
-21.16976724731173
 30
0.0
 10
7.515820310621045
 20
-21.16976724731173
 30
0.0
 10
7.515820310621045
 20
-21.16976724731173
 30
0.0
 10
7.216613767727097
 20
-21.58903536786663
 30
0.0
 10
7.216613767727097
 20
-21.58903536786663
 30
0.0
 10
7.115500215235014
 20
-21.7306287923104
 30
0.0
 10
7.130314125821588
 20
-21.8477620388089
 30
0.0
 10
7.261227754261082
 20
-21.94146863600769
 30
0.0
 10
7.261227754261082
 20
-21.94146863600769
 30
0.0
 10
7.264156085423545
 20
-21.94353569329884
 30
0.0
 10
7.264156085423545
 20
-21.94353569329884
 30
0.0
 10
7.394036185217463
 20
-22.03620876185206
 30
0.0
 10
7.50927462919907
 20
-22.01174858390679
 30
0.0
 10
7.610388181691153
 20
-21.87049966901154
 30
0.0
 10
7.610388181691153
 20
-21.87049966901154
 30
0.0
 10
8.153679739715052
 20
-21.10982258586838
 30
0.0
 10
8.153679739715052
 20
-21.10982258586838
 30
0.0
  0
SPLINE
  5
9F
330
6E
100
AcDbEntity
  8
Layer 1
370
     0
100
AcDbSpline
210
0.0
220
0.0
230
1.0
 70
    11
 71
     3
 72
    29
 73
    25
 74
     0
 42
0.0000000001
 43
0.0000000001
 12
1.0
 22
0.0
 32
0.0
 13
1.0
 23
0.0
 33
0.0
 40
0.0
 40
0.0
 40
0.0
 40
0.0
 40
1.0
 40
1.0
 40
1.0
 40
2.0
 40
2.0
 40
2.0
 40
3.0
 40
3.0
 40
3.0
 40
4.0
 40
4.0
 40
4.0
 40
5.0
 40
5.0
 40
5.0
 40
6.0
 40
6.0
 40
6.0
 40
7.0
 40
7.0
 40
7.0
 40
8.0
 40
8.0
 40
8.0
 40
8.0
 10
8.13903808390274
 20
-20.29746907044647
 30
0.0
 10
8.059284123419207
 20
-20.40943467371709
 30
0.0
 10
8.035857474119508
 20
-20.49142794626603
 30
0.0
 10
8.069102645552169
 20
-20.54379339764183
 30
0.0
 10
8.086328122978419
 20
-20.5737657283635
 30
0.0
 10
8.123018389896329
 20
-20.60890570231305
 30
0.0
 10
8.179345701080164
 20
-20.64886880994195
 30
0.0
 10
8.192953828246901
 20
-20.6592040963977
 30
0.0
 10
8.207939993607738
 20
-20.6688503637564
 30
0.0
 10
8.223442923291362
 20
-20.67815212156657
 30
0.0
 10
8.331791176302469
 20
-20.74912108856272
 30
0.0
 10
8.43479953131144
 20
-20.71604817190432
 30
0.0
 10
8.532812497866797
 20
-20.57893337159138
 30
0.0
 10
8.532812497866797
 20
-20.57893337159138
 30
0.0
 10
8.977057560689763
 20
-19.95709363650378
 30
0.0
 10
8.977057560689763
 20
-19.95709363650378
 30
0.0
 10
9.077998858407584
 20
-19.81550021206002
 30
0.0
 10
9.063012693046748
 20
-19.698022456013
 30
0.0
 10
8.932271319381515
 20
-19.60500487791125
 30
0.0
 10
8.800668671844972
 20
-19.5106092616154
 30
0.0
 10
8.684224444443528
 20
-19.53438042046363
 30
0.0
 10
8.583110891951446
 20
-19.6759738449074
 30
0.0
 10
8.583110891951446
 20
-19.6759738449074
 30
0.0
 10
8.13903808390274
 20
-20.29746907044647
 30
0.0
 10
8.13903808390274
 20
-20.29746907044647
 30
0.0
  0
HATCH
  5
A0
330
6E
100
AcDbEntity
  8
Layer 1
 62
   250
420
  2301728
100
AcDbHatch
 10
0.0
 20
0.0
 30
0.0
210
0.0
220
0.0
230
1.0
  2
SOLID
 70
     1
 71
     0
 91
        2
 92
        1
 93
        1
 72
     4
 94
        3
 73
     0
 74
     1
 95
       56
 96
       52
 40
0.0
 40
0.0
 40
0.0
 40
0.0
 40
1.0
 40
1.0
 40
1.0
 40
2.0
 40
2.0
 40
2.0
 40
3.0
 40
3.0
 40
3.0
 40
4.0
 40
4.0
 40
4.0
 40
5.0
 40
5.0
 40
5.0
 40
6.0
 40
6.0
 40
6.0
 40
7.0
 40
7.0
 40
7.0
 40
8.0
 40
8.0
 40
8.0
 40
9.0
 40
9.0
 40
9.0
 40
10.0
 40
10.0
 40
10.0
 40
11.0
 40
11.0
 40
11.0
 40
12.0
 40
12.0
 40
12.0
 40
13.0
 40
13.0
 40
13.0
 40
14.0
 40
14.0
 40
14.0
 40
15.0
 40
15.0
 40
15.0
 40
16.0
 40
16.0
 40
16.0
 40
17.0
 40
17.0
 40
17.0
 40
17.0
 10
8.153679739715052
 20
-21.10982258586838
 10
8.015531410756534
 20
-21.125325515552
 10
7.885134546639827
 20
-21.08880750340835
 10
7.761800128267883
 20
-21.00095756853448
 10
7.739407007613759
 20
-20.98545463885086
 10
7.717186141733898
 20
-20.96754014232756
 10
7.695309785402562
 20
-20.94893662670721
 10
7.561467825800605
 20
-20.83076985156314
 10
7.485331215576585
 20
-20.69813367538102
 10
7.46638319040771
 20
-20.55137260770938
 10
7.446918400916049
 20
-20.40116644455249
 10
7.520471189526132
 20
-20.20893011647555
 10
7.68755832056075
 20
-19.97535264257561
 10
7.68755832056075
 20
-19.97535264257561
 10
8.131975638157979
 20
-19.35351290748801
 10
8.131975638157979
 20
-19.35351290748801
 10
8.444790308218664
 20
-18.91564127131276
 10
8.817549639722696
 20
-18.85087347619006
 10
9.250081377895814
 20
-19.16024305076549
 10
9.681579587423355
 20
-19.46823458714683
 10
9.741007484543916
 20
-19.84099391865086
 10
9.428365069257492
 20
-20.27921006437464
 10
9.428365069257492
 20
-20.27921006437464
 10
8.06152343548462
 20
-22.19296060643093
 10
8.06152343548462
 20
-22.19296060643093
 10
7.747847491552622
 20
-22.63186577125176
 10
7.375432669597115
 20
-22.6973225854715
 10
6.94376220529531
 20
-22.38898653954164
 10
6.511058212347931
 20
-22.07996147451473
 10
6.451802570001633
 20
-21.70547959526808
 10
6.765306259159368
 20
-21.26657443044725
 10
6.765306259159368
 20
-21.26657443044725
 10
7.064857311601841
 20
-20.84765081944087
 10
7.064857311601841
 20
-20.84765081944087
 10
7.064857311601841
 20
-20.84765081944087
 10
7.515820310621045
 20
-21.16976724731173
 10
7.515820310621045
 20
-21.16976724731173
 10
7.515820310621045
 20
-21.16976724731173
 10
7.216613767727097
 20
-21.58903536786663
 10
7.216613767727097
 20
-21.58903536786663
 10
7.115500215235014
 20
-21.7306287923104
 10
7.130314125821588
 20
-21.8477620388089
 10
7.261227754261082
 20
-21.94146863600769
 10
7.261227754261082
 20
-21.94146863600769
 10
7.264156085423545
 20
-21.94353569329884
 10
7.264156085423545
 20
-21.94353569329884
 10
7.394036185217463
 20
-22.03620876185206
 10
7.50927462919907
 20
-22.01174858390679
 10
7.610388181691153
 20
-21.87049966901154
 10
7.610388181691153
 20
-21.87049966901154
 10
8.153679739715052
 20
-21.10982258586838
 10
8.153679739715052
 20
-21.10982258586838
 97
        0
 97
        0
 92
        1
 93
        1
 72
     4
 94
        3
 73
     0
 74
     1
 95
       29
 96
       25
 40
0.0
 40
0.0
 40
0.0
 40
0.0
 40
1.0
 40
1.0
 40
1.0
 40
2.0
 40
2.0
 40
2.0
 40
3.0
 40
3.0
 40
3.0
 40
4.0
 40
4.0
 40
4.0
 40
5.0
 40
5.0
 40
5.0
 40
6.0
 40
6.0
 40
6.0
 40
7.0
 40
7.0
 40
7.0
 40
8.0
 40
8.0
 40
8.0
 40
8.0
 10
8.13903808390274
 20
-20.29746907044647
 10
8.059284123419207
 20
-20.40943467371709
 10
8.035857474119508
 20
-20.49142794626603
 10
8.069102645552169
 20
-20.54379339764183
 10
8.086328122978419
 20
-20.5737657283635
 10
8.123018389896329
 20
-20.60890570231305
 10
8.179345701080164
 20
-20.64886880994195
 10
8.192953828246901
 20
-20.6592040963977
 10
8.207939993607738
 20
-20.6688503637564
 10
8.223442923291362
 20
-20.67815212156657
 10
8.331791176302469
 20
-20.74912108856272
 10
8.43479953131144
 20
-20.71604817190432
 10
8.532812497866797
 20
-20.57893337159138
 10
8.532812497866797
 20
-20.57893337159138
 10
8.977057560689763
 20
-19.95709363650378
 10
8.977057560689763
 20
-19.95709363650378
 10
9.077998858407584
 20
-19.81550021206002
 10
9.063012693046748
 20
-19.698022456013
 10
8.932271319381515
 20
-19.60500487791125
 10
8.800668671844972
 20
-19.5106092616154
 10
8.684224444443528
 20
-19.53438042046363
 10
8.583110891951446
 20
-19.6759738449074
 10
8.583110891951446
 20
-19.6759738449074
 10
8.13903808390274
 20
-20.29746907044647
 10
8.13903808390274
 20
-20.29746907044647
 97
        0
 97
        0
 75
     2
 76
     1
 98
        0
  0
POLYLINE
  5
A1
330
6E
100
AcDbEntity
  8
Layer 1
370
     0
100
AcDb2dPolyline
 66
     1
 10
0.0
 20
0.0
 30
0.0
  0
VERTEX
  5
A2
330
A1
100
AcDbEntity
  8
Layer 1
370
     0
100
AcDbVertex
100
AcDb2dVertex
 10
3.704338920514888
 20
-17.45698784285798
 30
0.0
  0
VERTEX
  5
A3
330
A1
100
AcDbEntity
  8
Layer 1
370
     0
100
AcDbVertex
100
AcDb2dVertex
 10
3.18602430475905
 20
-17.63062065531457
 30
0.0
  0
VERTEX
  5
A4
330
A1
100
AcDbEntity
  8
Layer 1
370
     0
100
AcDbVertex
100
AcDb2dVertex
 10
2.664953612615012
 20
-16.07584906282132
 30
0.0
  0
VERTEX
  5
A5
330
A1
100
AcDbEntity
  8
Layer 1
370
     0
100
AcDbVertex
100
AcDb2dVertex
 10
3.038229708441832
 20
-15.9501030776097
 30
0.0
  0
VERTEX
  5
A6
330
A1
100
AcDbEntity
  8
Layer 1
370
     0
100
AcDbVertex
100
AcDb2dVertex
 10
6.556705727527491
 20
-15.59009059940109
 30
0.0
  0
VERTEX
  5
A7
330
A1
100
AcDbEntity
  8
Layer 1
370
     0
100
AcDbVertex
100
AcDb2dVertex
 10
6.737228730954582
 20
-16.12855902374564
 30
0.0
  0
VERTEX
  5
A8
330
A1
100
AcDbEntity
  8
Layer 1
370
     0
100
AcDbVertex
100
AcDb2dVertex
 10
3.374987792125003
 20
-16.4741021009162
 30
0.0
  0
VERTEX
  5
A9
330
A1
100
AcDbEntity
  8
Layer 1
370
     0
100
AcDbVertex
100
AcDb2dVertex
 10
3.704338920514888
 20
-17.45698784285798
 30
0.0
  0
SEQEND
  5
AA
330
A1
100
AcDbEntity
  8
Layer 1
370
     0
  0
HATCH
  5
AB
330
6E
100
AcDbEntity
  8
Layer 1
 62
   250
420
  2301728
100
AcDbHatch
 10
0.0
 20
0.0
 30
0.0
210
0.0
220
0.0
230
1.0
  2
SOLID
 70
     1
 71
     0
 91
        1
 92
        1
 93
        7
 72
     1
 10
3.704338920514888
 20
-17.45698784285798
 11
3.18602430475905
 21
-17.63062065531457
 72
     1
 10
3.18602430475905
 20
-17.63062065531457
 11
2.664953612615012
 21
-16.07584906282132
 72
     1
 10
2.664953612615012
 20
-16.07584906282132
 11
3.038229708441832
 21
-15.9501030776097
 72
     1
 10
3.038229708441832
 20
-15.9501030776097
 11
6.556705727527491
 21
-15.59009059940109
 72
     1
 10
6.556705727527491
 20
-15.59009059940109
 11
6.737228730954582
 21
-16.12855902374564
 72
     1
 10
6.737228730954582
 20
-16.12855902374564
 11
3.374987792125003
 21
-16.4741021009162
 72
     1
 10
3.374987792125003
 20
-16.4741021009162
 11
3.704338920514888
 21
-17.45698784285798
 97
        0
 75
     2
 76
     1
 98
        0
  0
SPLINE
  5
AC
330
6E
100
AcDbEntity
  8
Layer 1
370
     0
100
AcDbSpline
210
0.0
220
0.0
230
1.0
 70
    11
 71
     3
 72
    41
 73
    37
 74
     0
 42
0.0000000001
 43
0.0000000001
 12
1.0
 22
0.0
 32
0.0
 13
1.0
 23
0.0
 33
0.0
 40
0.0
 40
0.0
 40
0.0
 40
0.0
 40
1.0
 40
1.0
 40
1.0
 40
2.0
 40
2.0
 40
2.0
 40
3.0
 40
3.0
 40
3.0
 40
4.0
 40
4.0
 40
4.0
 40
5.0
 40
5.0
 40
5.0
 40
6.0
 40
6.0
 40
6.0
 40
7.0
 40
7.0
 40
7.0
 40
8.0
 40
8.0
 40
8.0
 40
9.0
 40
9.0
 40
9.0
 40
10.0
 40
10.0
 40
10.0
 40
11.0
 40
11.0
 40
11.0
 40
12.0
 40
12.0
 40
12.0
 40
12.0
 10
2.808958603898455
 20
-10.03349609124163
 30
0.0
 10
2.968122015316998
 20
-9.52637803581285
 30
0.0
 10
3.304535589451644
 20
-9.353434242453309
 30
0.0
 10
3.818027071528132
 20
-9.514664711163
 30
0.0
 10
3.818027071528132
 20
-9.514664711163
 30
0.0
 10
4.455369736299352
 20
-9.714480249307492
 30
0.0
 10
4.455369736299352
 20
-9.714480249307492
 30
0.0
 10
4.696009655944053
 20
-9.790272349982988
 30
0.0
 10
4.835880532645197
 20
-9.940134003591355
 30
0.0
 10
4.874982366402782
 20
-10.16440971968112
 30
0.0
 10
5.035351561241162
 20
-10.00249023187438
 30
0.0
 10
5.235683863708441
 20
-9.95977104785728
 30
0.0
 10
5.476323783353141
 20
-10.03487412943573
 30
0.0
 10
5.476323783353141
 20
-10.03487412943573
 30
0.0
 10
6.061645506297089
 20
-10.21849771879954
 30
0.0
 10
6.061645506297089
 20
-10.21849771879954
 30
0.0
 10
6.574964733599315
 20
-10.37972818750923
 30
0.0
 10
6.752214896315419
 20
-10.71390244957847
 30
0.0
 10
6.593051484896876
 20
-11.22102050500725
 30
0.0
 10
6.433888073478334
 20
-11.72848306998455
 30
0.0
 10
6.097474499343687
 20
-11.90142686334409
 30
0.0
 10
5.583983017267199
 20
-11.7401963946344
 30
0.0
 10
5.583983017267199
 20
-11.7401963946344
 30
0.0
 10
4.999005803871777
 20
-11.55657280527058
 30
0.0
 10
4.999005803871777
 20
-11.55657280527058
 30
0.0
 10
4.758193629452813
 20
-11.48146972369213
 30
0.0
 10
4.61832275275167
 20
-11.33160807008377
 30
0.0
 10
4.579393173768346
 20
-11.10698784444548
 30
0.0
 10
4.419023978929967
 20
-11.26890733225222
 30
0.0
 10
4.218519421688426
 20
-11.31197102581784
 30
0.0
 10
3.977879502043725
 20
-11.23652343469087
 30
0.0
 10
3.977879502043725
 20
-11.23652343469087
 30
0.0
 10
3.340536837272505
 20
-11.03636338699785
 30
0.0
 10
3.340536837272505
 20
-11.03636338699785
 30
0.0
 10
2.826873100421754
 20
-10.87547742783669
 30
0.0
 10
2.649795192479913
 20
-10.54095865621893
 30
0.0
 10
2.808958603898455
 20
-10.03349609124163
 30
0.0
  0
SPLINE
  5
AD
330
6E
100
AcDbEntity
  8
Layer 1
370
     0
100
AcDbSpline
210
0.0
220
0.0
230
1.0
 70
    11
 71
     3
 72
    35
 73
    31
 74
     0
 42
0.0000000001
 43
0.0000000001
 12
1.0
 22
0.0
 32
0.0
 13
1.0
 23
0.0
 33
0.0
 40
0.0
 40
0.0
 40
0.0
 40
0.0
 40
1.0
 40
1.0
 40
1.0
 40
2.0
 40
2.0
 40
2.0
 40
3.0
 40
3.0
 40
3.0
 40
4.0
 40
4.0
 40
4.0
 40
5.0
 40
5.0
 40
5.0
 40
6.0
 40
6.0
 40
6.0
 40
7.0
 40
7.0
 40
7.0
 40
8.0
 40
8.0
 40
8.0
 40
9.0
 40
9.0
 40
9.0
 40
10.0
 40
10.0
 40
10.0
 40
10.0
 10
4.475695799662327
 20
-10.50134005813855
 30
0.0
 10
4.491198729345951
 20
-10.45138617360243
 30
0.0
 10
4.495505098702512
 20
-10.41176757552206
 30
0.0
 10
4.488442652957751
 20
-10.38213975434891
 30
0.0
 10
4.476557073533638
 20
-10.32770724568196
 30
0.0
 10
4.409205456797005
 20
-10.28119845663109
 30
0.0
 10
4.285698783650798
 20
-10.24226887764777
 30
0.0
 10
4.285698783650798
 20
-10.24226887764777
 30
0.0
 10
3.65197346913909
 20
-10.04348686814885
 30
0.0
 10
3.65197346913909
 20
-10.04348686814885
 30
0.0
 10
3.487297904944148
 20
-9.991810435870104
 30
0.0
 10
3.380499944901403
 20
-10.04245333950328
 30
0.0
 10
3.33123507946233
 20
-10.19541557904837
 30
0.0
 10
3.33123507946233
 20
-10.19541557904837
 30
0.0
 10
3.32985704126823
 20
-10.19920518408214
 30
0.0
 10
3.32985704126823
 20
-10.19920518408214
 30
0.0
 10
3.283003742668833
 20
-10.35320095227281
 30
0.0
 10
3.341914875466605
 20
-10.45552028818473
 30
0.0
 10
3.506418184887285
 20
-10.50719672046348
 30
0.0
 10
3.506418184887285
 20
-10.50719672046348
 30
0.0
 10
4.140143499398993
 20
-10.70632323951092
 30
0.0
 10
4.140143499398993
 20
-10.70632323951092
 30
0.0
 10
4.263477917770937
 20
-10.74490830894572
 30
0.0
 10
4.345643445094145
 20
-10.74525281849424
 30
0.0
 10
4.386123317045831
 20
-10.70701225860797
 30
0.0
 10
4.409205456797005
 20
-10.68703070479352
 30
0.0
 10
4.428325736740141
 20
-10.65189073084397
 30
0.0
 10
4.444000921198028
 20
-10.60228135585638
 30
0.0
 10
4.444000921198028
 20
-10.60228135585638
 30
0.0
 10
4.475695799662327
 20
-10.50134005813855
 30
0.0
 10
4.475695799662327
 20
-10.50134005813855
 30
0.0
  0
SPLINE
  5
AE
330
6E
100
AcDbEntity
  8
Layer 1
370
     0
100
AcDbSpline
210
0.0
220
0.0
230
1.0
 70
    11
 71
     3
 72
    35
 73
    31
 74
     0
 42
0.0000000001
 43
0.0000000001
 12
1.0
 22
0.0
 32
0.0
 13
1.0
 23
0.0
 33
0.0
 40
0.0
 40
0.0
 40
0.0
 40
0.0
 40
1.0
 40
1.0
 40
1.0
 40
2.0
 40
2.0
 40
2.0
 40
3.0
 40
3.0
 40
3.0
 40
4.0
 40
4.0
 40
4.0
 40
5.0
 40
5.0
 40
5.0
 40
6.0
 40
6.0
 40
6.0
 40
7.0
 40
7.0
 40
7.0
 40
8.0
 40
8.0
 40
8.0
 40
9.0
 40
9.0
 40
9.0
 40
10.0
 40
10.0
 40
10.0
 40
10.0
 10
6.071980792752838
 20
-11.05565592171525
 30
0.0
 10
6.119006346126499
 20
-10.90200466307311
 30
0.0
 10
6.059922958554464
 20
-10.79934081761266
 30
0.0
 10
5.895419649133784
 20
-10.74766438533392
 30
0.0
 10
5.895419649133784
 20
-10.74766438533392
 30
0.0
 10
5.3102701809641
 20
-10.56369628642158
 30
0.0
 10
5.3102701809641
 20
-10.56369628642158
 30
0.0
 10
5.176944985684931
 20
-10.52201063105005
 30
0.0
 10
5.088922796036798
 20
-10.52511121698678
 30
0.0
 10
5.046375866793962
 20
-10.57334255378028
 30
0.0
 10
5.024671765236888
 20
-10.5998697890167
 30
0.0
 10
5.004001192325389
 20
-10.6439670112279
 30
0.0
 10
4.984191893285202
 20
-10.70597872996239
 30
0.0
 10
4.984191893285202
 20
-10.70597872996239
 30
0.0
 10
4.97850748573454
 20
-10.72492675513127
 30
0.0
 10
4.97850748573454
 20
-10.72492675513127
 30
0.0
 10
4.958870441468616
 20
-10.78728298341429
 30
0.0
 10
4.950774467078279
 20
-10.83516981065926
 30
0.0
 10
4.953875053015004
 20
-10.86893174641471
 30
0.0
 10
4.961109753534028
 20
-10.93266601289183
 30
0.0
 10
5.031389701433125
 20
-10.98537597381616
 30
0.0
 10
5.164714896712294
 20
-11.02775064828473
 30
0.0
 10
5.164714896712294
 20
-11.02775064828473
 30
0.0
 10
5.750036619656241
 20
-11.21137423764855
 30
0.0
 10
5.750036619656241
 20
-11.21137423764855
 30
0.0
 10
5.914712183851183
 20
-11.26270616037877
 30
0.0
 10
6.021510143893928
 20
-11.21240776629412
 30
0.0
 10
6.070775009333001
 20
-11.05944552674903
 30
0.0
 10
6.070775009333001
 20
-11.05944552674903
 30
0.0
 10
6.071980792752838
 20
-11.05565592171525
 30
0.0
 10
6.071980792752838
 20
-11.05565592171525
 30
0.0
  0
HATCH
  5
AF
330
6E
100
AcDbEntity
  8
Layer 1
 62
   250
420
  2301728
100
AcDbHatch
 10
0.0
 20
0.0
 30
0.0
210
0.0
220
0.0
230
1.0
  2
SOLID
 70
     1
 71
     0
 91
        3
 92
        1
 93
        1
 72
     4
 94
        3
 73
     0
 74
     1
 95
       41
 96
       37
 40
0.0
 40
0.0
 40
0.0
 40
0.0
 40
1.0
 40
1.0
 40
1.0
 40
2.0
 40
2.0
 40
2.0
 40
3.0
 40
3.0
 40
3.0
 40
4.0
 40
4.0
 40
4.0
 40
5.0
 40
5.0
 40
5.0
 40
6.0
 40
6.0
 40
6.0
 40
7.0
 40
7.0
 40
7.0
 40
8.0
 40
8.0
 40
8.0
 40
9.0
 40
9.0
 40
9.0
 40
10.0
 40
10.0
 40
10.0
 40
11.0
 40
11.0
 40
11.0
 40
12.0
 40
12.0
 40
12.0
 40
12.0
 10
2.808958603898455
 20
-10.03349609124163
 10
2.968122015316998
 20
-9.52637803581285
 10
3.304535589451644
 20
-9.353434242453309
 10
3.818027071528132
 20
-9.514664711163
 10
3.818027071528132
 20
-9.514664711163
 10
4.455369736299352
 20
-9.714480249307492
 10
4.455369736299352
 20
-9.714480249307492
 10
4.696009655944053
 20
-9.790272349982988
 10
4.835880532645197
 20
-9.940134003591355
 10
4.874982366402782
 20
-10.16440971968112
 10
5.035351561241162
 20
-10.00249023187438
 10
5.235683863708441
 20
-9.95977104785728
 10
5.476323783353141
 20
-10.03487412943573
 10
5.476323783353141
 20
-10.03487412943573
 10
6.061645506297089
 20
-10.21849771879954
 10
6.061645506297089
 20
-10.21849771879954
 10
6.574964733599315
 20
-10.37972818750923
 10
6.752214896315419
 20
-10.71390244957847
 10
6.593051484896876
 20
-11.22102050500725
 10
6.433888073478334
 20
-11.72848306998455
 10
6.097474499343687
 20
-11.90142686334409
 10
5.583983017267199
 20
-11.7401963946344
 10
5.583983017267199
 20
-11.7401963946344
 10
4.999005803871777
 20
-11.55657280527058
 10
4.999005803871777
 20
-11.55657280527058
 10
4.758193629452813
 20
-11.48146972369213
 10
4.61832275275167
 20
-11.33160807008377
 10
4.579393173768346
 20
-11.10698784444548
 10
4.419023978929967
 20
-11.26890733225222
 10
4.218519421688426
 20
-11.31197102581784
 10
3.977879502043725
 20
-11.23652343469087
 10
3.977879502043725
 20
-11.23652343469087
 10
3.340536837272505
 20
-11.03636338699785
 10
3.340536837272505
 20
-11.03636338699785
 10
2.826873100421754
 20
-10.87547742783669
 10
2.649795192479913
 20
-10.54095865621893
 10
2.808958603898455
 20
-10.03349609124163
 97
        0
 97
        0
 92
        1
 93
        1
 72
     4
 94
        3
 73
     0
 74
     1
 95
       35
 96
       31
 40
0.0
 40
0.0
 40
0.0
 40
0.0
 40
1.0
 40
1.0
 40
1.0
 40
2.0
 40
2.0
 40
2.0
 40
3.0
 40
3.0
 40
3.0
 40
4.0
 40
4.0
 40
4.0
 40
5.0
 40
5.0
 40
5.0
 40
6.0
 40
6.0
 40
6.0
 40
7.0
 40
7.0
 40
7.0
 40
8.0
 40
8.0
 40
8.0
 40
9.0
 40
9.0
 40
9.0
 40
10.0
 40
10.0
 40
10.0
 40
10.0
 10
4.475695799662327
 20
-10.50134005813855
 10
4.491198729345951
 20
-10.45138617360243
 10
4.495505098702512
 20
-10.41176757552206
 10
4.488442652957751
 20
-10.38213975434891
 10
4.476557073533638
 20
-10.32770724568196
 10
4.409205456797005
 20
-10.28119845663109
 10
4.285698783650798
 20
-10.24226887764777
 10
4.285698783650798
 20
-10.24226887764777
 10
3.65197346913909
 20
-10.04348686814885
 10
3.65197346913909
 20
-10.04348686814885
 10
3.487297904944148
 20
-9.991810435870104
 10
3.380499944901403
 20
-10.04245333950328
 10
3.33123507946233
 20
-10.19541557904837
 10
3.33123507946233
 20
-10.19541557904837
 10
3.32985704126823
 20
-10.19920518408214
 10
3.32985704126823
 20
-10.19920518408214
 10
3.283003742668833
 20
-10.35320095227281
 10
3.341914875466605
 20
-10.45552028818473
 10
3.506418184887285
 20
-10.50719672046348
 10
3.506418184887285
 20
-10.50719672046348
 10
4.140143499398993
 20
-10.70632323951092
 10
4.140143499398993
 20
-10.70632323951092
 10
4.263477917770937
 20
-10.74490830894572
 10
4.345643445094145
 20
-10.74525281849424
 10
4.386123317045831
 20
-10.70701225860797
 10
4.409205456797005
 20
-10.68703070479352
 10
4.428325736740141
 20
-10.65189073084397
 10
4.444000921198028
 20
-10.60228135585638
 10
4.444000921198028
 20
-10.60228135585638
 10
4.475695799662327
 20
-10.50134005813855
 10
4.475695799662327
 20
-10.50134005813855
 97
        0
 97
        0
 92
        1
 93
        1
 72
     4
 94
        3
 73
     0
 74
     1
 95
       35
 96
       31
 40
0.0
 40
0.0
 40
0.0
 40
0.0
 40
1.0
 40
1.0
 40
1.0
 40
2.0
 40
2.0
 40
2.0
 40
3.0
 40
3.0
 40
3.0
 40
4.0
 40
4.0
 40
4.0
 40
5.0
 40
5.0
 40
5.0
 40
6.0
 40
6.0
 40
6.0
 40
7.0
 40
7.0
 40
7.0
 40
8.0
 40
8.0
 40
8.0
 40
9.0
 40
9.0
 40
9.0
 40
10.0
 40
10.0
 40
10.0
 40
10.0
 10
6.071980792752838
 20
-11.05565592171525
 10
6.119006346126499
 20
-10.90200466307311
 10
6.059922958554464
 20
-10.79934081761266
 10
5.895419649133784
 20
-10.74766438533392
 10
5.895419649133784
 20
-10.74766438533392
 10
5.3102701809641
 20
-10.56369628642158
 10
5.3102701809641
 20
-10.56369628642158
 10
5.176944985684931
 20
-10.52201063105005
 10
5.088922796036798
 20
-10.52511121698678
 10
5.046375866793962
 20
-10.57334255378028
 10
5.024671765236888
 20
-10.5998697890167
 10
5.004001192325389
 20
-10.6439670112279
 10
4.984191893285202
 20
-10.70597872996239
 10
4.984191893285202
 20
-10.70597872996239
 10
4.97850748573454
 20
-10.72492675513127
 10
4.97850748573454
 20
-10.72492675513127
 10
4.958870441468616
 20
-10.78728298341429
 10
4.950774467078279
 20
-10.83516981065926
 10
4.953875053015004
 20
-10.86893174641471
 10
4.961109753534028
 20
-10.93266601289183
 10
5.031389701433125
 20
-10.98537597381616
 10
5.164714896712294
 20
-11.02775064828473
 10
5.164714896712294
 20
-11.02775064828473
 10
5.750036619656241
 20
-11.21137423764855
 10
5.750036619656241
 20
-11.21137423764855
 10
5.914712183851183
 20
-11.26270616037877
 10
6.021510143893928
 20
-11.21240776629412
 10
6.070775009333001
 20
-11.05944552674903
 10
6.070775009333001
 20
-11.05944552674903
 10
6.071980792752838
 20
-11.05565592171525
 10
6.071980792752838
 20
-11.05565592171525
 97
        0
 97
        0
 75
     2
 76
     1
 98
        0
  0
SPLINE
  5
B0
330
6E
100
AcDbEntity
  8
Layer 1
370
     0
100
AcDbSpline
210
0.0
220
0.0
230
1.0
 70
    11
 71
     3
 72
    56
 73
    52
 74
     0
 42
0.0000000001
 43
0.0000000001
 12
1.0
 22
0.0
 32
0.0
 13
1.0
 23
0.0
 33
0.0
 40
0.0
 40
0.0
 40
0.0
 40
0.0
 40
1.0
 40
1.0
 40
1.0
 40
2.0
 40
2.0
 40
2.0
 40
3.0
 40
3.0
 40
3.0
 40
4.0
 40
4.0
 40
4.0
 40
5.0
 40
5.0
 40
5.0
 40
6.0
 40
6.0
 40
6.0
 40
7.0
 40
7.0
 40
7.0
 40
8.0
 40
8.0
 40
8.0
 40
9.0
 40
9.0
 40
9.0
 40
10.0
 40
10.0
 40
10.0
 40
11.0
 40
11.0
 40
11.0
 40
12.0
 40
12.0
 40
12.0
 40
13.0
 40
13.0
 40
13.0
 40
14.0
 40
14.0
 40
14.0
 40
15.0
 40
15.0
 40
15.0
 40
16.0
 40
16.0
 40
16.0
 40
17.0
 40
17.0
 40
17.0
 40
17.0
 10
8.310603839068182
 20
-6.088861760630563
 30
0.0
 10
8.281492782217821
 20
-6.227354599137606
 30
0.0
 10
8.2053561719938
 20
-6.342076278796426
 30
0.0
 10
8.082366263170382
 20
-6.433026799607021
 30
0.0
 10
8.062556964130195
 20
-6.44749620064507
 30
0.0
 10
8.040680607798858
 20
-6.462310111231645
 30
0.0
 10
8.016909448950635
 20
-6.476435002721169
 30
0.0
 10
7.863430445082754
 20
-6.56704101398324
 30
0.0
 10
7.713741046248648
 20
-6.599080401996064
 30
0.0
 10
7.568530271545368
 20
-6.571519638114065
 30
0.0
 10
7.418668617937
 20
-6.542580836037966
 30
0.0
 10
7.258816187421408
 20
-6.413045245792572
 30
0.0
 10
7.088800725224328
 20
-6.182912867377883
 30
0.0
 10
7.088800725224328
 20
-6.182912867377883
 30
0.0
 10
6.634564885494137
 20
-5.568652342357837
 30
0.0
 10
6.634564885494137
 20
-5.568652342357837
 30
0.0
 10
6.31468776968869
 20
-5.135603839861933
 30
0.0
 10
6.368086749710062
 20
-4.760432941518225
 30
0.0
 10
6.794934080332517
 20
-4.443484156875241
 30
0.0
 10
7.221609156180709
 20
-4.128602429523405
 30
0.0
 10
7.594885252007529
 20
-4.187513562321177
 30
0.0
 10
7.915623641684289
 20
-4.621595593462657
 30
0.0
 10
7.915623641684289
 20
-4.621595593462657
 30
0.0
 10
9.313126625275885
 20
-6.512953014864817
 30
0.0
 10
9.313126625275885
 20
-6.512953014864817
 30
0.0
 10
9.633003741081334
 20
-6.945657007812197
 30
0.0
 10
9.579260251511435
 20
-7.31979437751033
 30
0.0
 10
9.15172390179193
 20
-7.636054143056264
 30
0.0
 10
8.725221080718
 20
-7.9509358704081
 30
0.0
 10
8.351944984891182
 20
-7.892369247158853
 30
0.0
 10
8.032067869085733
 20
-7.459665254211473
 30
0.0
 10
8.032067869085733
 20
-7.459665254211473
 30
0.0
 10
7.724593097027185
 20
-7.043153210044768
 30
0.0
 10
7.724593097027185
 20
-7.043153210044768
 30
0.0
 10
7.724593097027185
 20
-7.043153210044768
 30
0.0
 10
8.170560707592777
 20
-6.713802081654883
 30
0.0
 10
8.170560707592777
 20
-6.713802081654883
 30
0.0
 10
8.170560707592777
 20
-6.713802081654883
 30
0.0
 10
8.478035479651325
 20
-7.129625106724538
 30
0.0
 10
8.478035479651325
 20
-7.129625106724538
 30
0.0
 10
8.580354815563245
 20
-7.268462454780107
 30
0.0
 10
8.69679904296469
 20
-7.290511065885706
 30
0.0
 10
8.826679142758609
 20
-7.19611544958986
 30
0.0
 10
8.826679142758609
 20
-7.19611544958986
 30
0.0
 10
8.829951983469595
 20
-7.19404839229871
 30
0.0
 10
8.829951983469595
 20
-7.19404839229871
 30
0.0
 10
8.958281790295151
 20
-7.098963756905815
 30
0.0
 10
8.97051187926779
 20
-6.98183051040732
 30
0.0
 10
8.867331269484556
 20
-6.842304143254702
 30
0.0
 10
8.867331269484556
 20
-6.842304143254702
 30
0.0
 10
8.310603839068182
 20
-6.088861760630563
 30
0.0
 10
8.310603839068182
 20
-6.088861760630563
 30
0.0
  0
SPLINE
  5
B1
330
6E
100
AcDbEntity
  8
Layer 1
370
     0
100
AcDbSpline
210
0.0
220
0.0
230
1.0
 70
    11
 71
     3
 72
    29
 73
    25
 74
     0
 42
0.0000000001
 43
0.0000000001
 12
1.0
 22
0.0
 32
0.0
 13
1.0
 23
0.0
 33
0.0
 40
0.0
 40
0.0
 40
0.0
 40
0.0
 40
1.0
 40
1.0
 40
1.0
 40
2.0
 40
2.0
 40
2.0
 40
3.0
 40
3.0
 40
3.0
 40
4.0
 40
4.0
 40
4.0
 40
5.0
 40
5.0
 40
5.0
 40
6.0
 40
6.0
 40
6.0
 40
7.0
 40
7.0
 40
7.0
 40
8.0
 40
8.0
 40
8.0
 40
8.0
 10
7.534596081015657
 20
-5.853217229439474
 30
0.0
 10
7.615555824919028
 20
-5.962771265870418
 30
0.0
 10
7.686352537140912
 20
-6.010313583566866
 30
0.0
 10
7.747158472455572
 20
-5.995844182528817
 30
0.0
 10
7.779025605694133
 20
-5.988953991558318
 30
0.0
 10
7.822433808808281
 20
-5.964838323161568
 30
0.0
 10
7.877038572249491
 20
-5.924530705984146
 30
0.0
 10
7.890818954190491
 20
-5.914539929076921
 30
0.0
 10
7.905116100454276
 20
-5.902826604427071
 30
0.0
 10
7.920102265815114
 20
-5.890079751131647
 30
0.0
 10
8.022593856501297
 20
-5.809464516776801
 30
0.0
 10
8.02414414946966
 20
-5.701288518539956
 30
0.0
 10
7.923891870848888
 20
-5.565896265969637
 30
0.0
 10
7.923891870848888
 20
-5.565896265969637
 30
0.0
 10
7.469656031118697
 20
-4.950946721852541
 30
0.0
 10
7.469656031118697
 20
-4.950946721852541
 30
0.0
 10
7.366475421335465
 20
-4.811764864248448
 30
0.0
 10
7.250203448708283
 20
-4.789371743594324
 30
0.0
 10
7.121012368011414
 20
-4.884800888535745
 30
0.0
 10
6.990615503894707
 20
-4.98126356212274
 30
0.0
 10
6.977179631502233
 20
-5.099085827718285
 30
0.0
 10
7.080532496059728
 20
-5.238956704419428
 30
0.0
 10
7.080532496059728
 20
-5.238956704419428
 30
0.0
 10
7.534596081015657
 20
-5.853217229439474
 30
0.0
 10
7.534596081015657
 20
-5.853217229439474
 30
0.0
  0
HATCH
  5
B2
330
6E
100
AcDbEntity
  8
Layer 1
 62
   250
420
  2301728
100
AcDbHatch
 10
0.0
 20
0.0
 30
0.0
210
0.0
220
0.0
230
1.0
  2
SOLID
 70
     1
 71
     0
 91
        2
 92
        1
 93
        1
 72
     4
 94
        3
 73
     0
 74
     1
 95
       56
 96
       52
 40
0.0
 40
0.0
 40
0.0
 40
0.0
 40
1.0
 40
1.0
 40
1.0
 40
2.0
 40
2.0
 40
2.0
 40
3.0
 40
3.0
 40
3.0
 40
4.0
 40
4.0
 40
4.0
 40
5.0
 40
5.0
 40
5.0
 40
6.0
 40
6.0
 40
6.0
 40
7.0
 40
7.0
 40
7.0
 40
8.0
 40
8.0
 40
8.0
 40
9.0
 40
9.0
 40
9.0
 40
10.0
 40
10.0
 40
10.0
 40
11.0
 40
11.0
 40
11.0
 40
12.0
 40
12.0
 40
12.0
 40
13.0
 40
13.0
 40
13.0
 40
14.0
 40
14.0
 40
14.0
 40
15.0
 40
15.0
 40
15.0
 40
16.0
 40
16.0
 40
16.0
 40
17.0
 40
17.0
 40
17.0
 40
17.0
 10
8.310603839068182
 20
-6.088861760630563
 10
8.281492782217821
 20
-6.227354599137606
 10
8.2053561719938
 20
-6.342076278796426
 10
8.082366263170382
 20
-6.433026799607021
 10
8.062556964130195
 20
-6.44749620064507
 10
8.040680607798858
 20
-6.462310111231645
 10
8.016909448950635
 20
-6.476435002721169
 10
7.863430445082754
 20
-6.56704101398324
 10
7.713741046248648
 20
-6.599080401996064
 10
7.568530271545368
 20
-6.571519638114065
 10
7.418668617937
 20
-6.542580836037966
 10
7.258816187421408
 20
-6.413045245792572
 10
7.088800725224328
 20
-6.182912867377883
 10
7.088800725224328
 20
-6.182912867377883
 10
6.634564885494137
 20
-5.568652342357837
 10
6.634564885494137
 20
-5.568652342357837
 10
6.31468776968869
 20
-5.135603839861933
 10
6.368086749710062
 20
-4.760432941518225
 10
6.794934080332517
 20
-4.443484156875241
 10
7.221609156180709
 20
-4.128602429523405
 10
7.594885252007529
 20
-4.187513562321177
 10
7.915623641684289
 20
-4.621595593462657
 10
7.915623641684289
 20
-4.621595593462657
 10
9.313126625275885
 20
-6.512953014864817
 10
9.313126625275885
 20
-6.512953014864817
 10
9.633003741081334
 20
-6.945657007812197
 10
9.579260251511435
 20
-7.31979437751033
 10
9.15172390179193
 20
-7.636054143056264
 10
8.725221080718
 20
-7.9509358704081
 10
8.351944984891182
 20
-7.892369247158853
 10
8.032067869085733
 20
-7.459665254211473
 10
8.032067869085733
 20
-7.459665254211473
 10
7.724593097027185
 20
-7.043153210044768
 10
7.724593097027185
 20
-7.043153210044768
 10
7.724593097027185
 20
-7.043153210044768
 10
8.170560707592777
 20
-6.713802081654883
 10
8.170560707592777
 20
-6.713802081654883
 10
8.170560707592777
 20
-6.713802081654883
 10
8.478035479651325
 20
-7.129625106724538
 10
8.478035479651325
 20
-7.129625106724538
 10
8.580354815563245
 20
-7.268462454780107
 10
8.69679904296469
 20
-7.290511065885706
 10
8.826679142758609
 20
-7.19611544958986
 10
8.826679142758609
 20
-7.19611544958986
 10
8.829951983469595
 20
-7.19404839229871
 10
8.829951983469595
 20
-7.19404839229871
 10
8.958281790295151
 20
-7.098963756905815
 10
8.97051187926779
 20
-6.98183051040732
 10
8.867331269484556
 20
-6.842304143254702
 10
8.867331269484556
 20
-6.842304143254702
 10
8.310603839068182
 20
-6.088861760630563
 10
8.310603839068182
 20
-6.088861760630563
 97
        0
 97
        0
 92
        1
 93
        1
 72
     4
 94
        3
 73
     0
 74
     1
 95
       29
 96
       25
 40
0.0
 40
0.0
 40
0.0
 40
0.0
 40
1.0
 40
1.0
 40
1.0
 40
2.0
 40
2.0
 40
2.0
 40
3.0
 40
3.0
 40
3.0
 40
4.0
 40
4.0
 40
4.0
 40
5.0
 40
5.0
 40
5.0
 40
6.0
 40
6.0
 40
6.0
 40
7.0
 40
7.0
 40
7.0
 40
8.0
 40
8.0
 40
8.0
 40
8.0
 10
7.534596081015657
 20
-5.853217229439474
 10
7.615555824919028
 20
-5.962771265870418
 10
7.686352537140912
 20
-6.010313583566866
 10
7.747158472455572
 20
-5.995844182528817
 10
7.779025605694133
 20
-5.988953991558318
 10
7.822433808808281
 20
-5.964838323161568
 10
7.877038572249491
 20
-5.924530705984146
 10
7.890818954190491
 20
-5.914539929076921
 10
7.905116100454276
 20
-5.902826604427071
 10
7.920102265815114
 20
-5.890079751131647
 10
8.022593856501297
 20
-5.809464516776801
 10
8.02414414946966
 20
-5.701288518539956
 10
7.923891870848888
 20
-5.565896265969637
 10
7.923891870848888
 20
-5.565896265969637
 10
7.469656031118697
 20
-4.950946721852541
 10
7.469656031118697
 20
-4.950946721852541
 10
7.366475421335465
 20
-4.811764864248448
 10
7.250203448708283
 20
-4.789371743594324
 10
7.121012368011414
 20
-4.884800888535745
 10
6.990615503894707
 20
-4.98126356212274
 10
6.977179631502233
 20
-5.099085827718285
 10
7.080532496059728
 20
-5.238956704419428
 10
7.080532496059728
 20
-5.238956704419428
 10
7.534596081015657
 20
-5.853217229439474
 10
7.534596081015657
 20
-5.853217229439474
 97
        0
 97
        0
 75
     2
 76
     1
 98
        0
  0
ENDBLK
  5
71
330
6E
100
AcDbEntity
  8
0
100
AcDbBlockEnd
  0
ENDSEC
  0
SECTION
  2
ENTITIES
  0
INSERT
  5
42
330
1F
100
AcDbEntity
  8
Layer 1
100
AcDbBlockReference
  2
block 2
 10
0.0
 20
0.0
 30
0.0
  0
SPLINE
  5
B6
330
1F
100
AcDbEntity
  8
Layer 3
 62
   250
420
  2301728
370
    35
100
AcDbSpline
210
0.0
220
0.0
230
1.0
 70
    11
 71
     3
 72
    17
 73
    13
 74
     0
 42
0.0000000001
 43
0.0000000001
 12
1.0
 22
0.0
 32
0.0
 13
1.0
 23
0.0
 33
0.0
 40
0.0
 40
0.0
 40
0.0
 40
0.0
 40
1.0
 40
1.0
 40
1.0
 40
2.0
 40
2.0
 40
2.0
 40
3.0
 40
3.0
 40
3.0
 40
4.0
 40
4.0
 40
4.0
 40
4.0
 10
22.37638892744634
 20
-13.05277759437619
 30
0.0
 10
22.37638892744634
 20
-18.29948271616441
 30
0.0
 10
18.12309405161012
 20
-22.55277759200127
 30
0.0
 10
12.87638892982125
 20
-22.55277759200127
 30
0.0
 10
7.629683808033029
 20
-22.55277759200127
 30
0.0
 10
3.376388932196488
 20
-18.29948271616441
 30
0.0
 10
3.376388932196488
 20
-13.05277759437619
 30
0.0
 10
3.376388932196488
 20
-7.806072472587964
 30
0.0
 10
7.629683808033029
 20
-3.552777596751102
 30
0.0
 10
12.87638892982125
 20
-3.552777596751102
 30
0.0
 10
18.12309405161012
 20
-3.552777596751102
 30
0.0
 10
22.37638892744634
 20
-7.806072472587964
 30
0.0
 10
22.37638892744634
 20
-13.05277759437619
 30
0.0
  0
HATCH
  5
B7
330
1F
100
AcDbEntity
  8
Layer 3
 62
    18
420
        0
100
AcDbHatch
 10
0.0
 20
0.0
 30
0.0
210
0.0
220
0.0
230
1.0
  2
SOLID
 70
     1
 71
     0
 91
        1
 92
        1
 93
        1
 72
     4
 94
        3
 73
     0
 74
     1
 95
       17
 96
       13
 40
0.0
 40
0.0
 40
0.0
 40
0.0
 40
1.0
 40
1.0
 40
1.0
 40
2.0
 40
2.0
 40
2.0
 40
3.0
 40
3.0
 40
3.0
 40
4.0
 40
4.0
 40
4.0
 40
4.0
 10
22.37638892744634
 20
-13.05277759437619
 10
22.37638892744634
 20
-18.29948271616441
 10
18.12309405161012
 20
-22.55277759200127
 10
12.87638892982125
 20
-22.55277759200127
 10
7.629683808033029
 20
-22.55277759200127
 10
3.376388932196488
 20
-18.29948271616441
 10
3.376388932196488
 20
-13.05277759437619
 10
3.376388932196488
 20
-7.806072472587964
 10
7.629683808033029
 20
-3.552777596751102
 10
12.87638892982125
 20
-3.552777596751102
 10
18.12309405161012
 20
-3.552777596751102
 10
22.37638892744634
 20
-7.806072472587964
 10
22.37638892744634
 20
-13.05277759437619
 97
        0
 97
        0
 75
     2
 76
     1
 98
        0
  0
SPLINE
  5
B8
330
1F
100
AcDbEntity
  8
Layer 3
 62
   250
420
  2301728
370
    35
100
AcDbSpline
210
0.0
220
0.0
230
1.0
 70
    11
 71
     3
 72
    17
 73
    13
 74
     0
 42
0.0000000001
 43
0.0000000001
 12
1.0
 22
0.0
 32
0.0
 13
1.0
 23
0.0
 33
0.0
 40
0.0
 40
0.0
 40
0.0
 40
0.0
 40
1.0
 40
1.0
 40
1.0
 40
2.0
 40
2.0
 40
2.0
 40
3.0
 40
3.0
 40
3.0
 40
4.0
 40
4.0
 40
4.0
 40
4.0
 10
19.11495450210816
 20
-13.05277720763894
 30
0.0
 10
19.11495450210816
 20
-16.49824159446761
 30
0.0
 10
16.32185375007271
 20
-19.2913423465037
 30
0.0
 10
12.87638936324371
 20
-19.2913423465037
 30
0.0
 10
9.430924976415366
 20
-19.2913423465037
 30
0.0
 10
6.63782422437991
 20
-16.49824159446761
 30
0.0
 10
6.63782422437991
 20
-13.05277720763894
 30
0.0
 10
6.63782422437991
 20
-9.607312820810908
 30
0.0
 10
9.430924976415366
 20
-6.814212068774811
 30
0.0
 10
12.87638936324371
 20
-6.814212068774811
 30
0.0
 10
16.32185375007271
 20
-6.814212068774811
 30
0.0
 10
19.11495450210816
 20
-9.607312820810908
 30
0.0
 10
19.11495450210816
 20
-13.05277720763894
 30
0.0
  0
HATCH
  5
B9
330
1F
100
AcDbEntity
  8
Layer 3
 62
    18
420
        0
100
AcDbHatch
 10
0.0
 20
0.0
 30
0.0
210
0.0
220
0.0
230
1.0
  2
SOLID
 70
     1
 71
     0
 91
        1
 92
        1
 93
        1
 72
     4
 94
        3
 73
     0
 74
     1
 95
       17
 96
       13
 40
0.0
 40
0.0
 40
0.0
 40
0.0
 40
1.0
 40
1.0
 40
1.0
 40
2.0
 40
2.0
 40
2.0
 40
3.0
 40
3.0
 40
3.0
 40
4.0
 40
4.0
 40
4.0
 40
4.0
 10
19.11495450210816
 20
-13.05277720763894
 10
19.11495450210816
 20
-16.49824159446761
 10
16.32185375007271
 20
-19.2913423465037
 10
12.87638936324371
 20
-19.2913423465037
 10
9.430924976415366
 20
-19.2913423465037
 10
6.63782422437991
 20
-16.49824159446761
 10
6.63782422437991
 20
-13.05277720763894
 10
6.63782422437991
 20
-9.607312820810908
 10
9.430924976415366
 20
-6.814212068774811
 10
12.87638936324371
 20
-6.814212068774811
 10
16.32185375007271
 20
-6.814212068774811
 10
19.11495450210816
 20
-9.607312820810908
 10
19.11495450210816
 20
-13.05277720763894
 97
        0
 97
        0
 75
     2
 76
     1
 98
        0
  0
SPLINE
  5
BA
330
1F
100
AcDbEntity
  8
Layer 3
 62
   250
420
  2301728
370
    35
100
AcDbSpline
210
0.0
220
0.0
230
1.0
 70
    11
 71
     3
 72
    17
 73
    13
 74
     0
 42
0.0000000001
 43
0.0000000001
 12
1.0
 22
0.0
 32
0.0
 13
1.0
 23
0.0
 33
0.0
 40
0.0
 40
0.0
 40
0.0
 40
0.0
 40
1.0
 40
1.0
 40
1.0
 40
2.0
 40
2.0
 40
2.0
 40
3.0
 40
3.0
 40
3.0
 40
4.0
 40
4.0
 40
4.0
 40
4.0
 10
15.99174002874219
 20
-13.37346483481159
 30
0.0
 10
15.99174002874219
 20
-15.09402577331361
 30
0.0
 10
14.59694980260494
 20
-16.4888159994515
 30
0.0
 10
12.87638886410197
 20
-16.4888159994515
 30
0.0
 10
11.15582792559931
 20
-16.4888159994515
 30
0.0
 10
9.761037699461424
 20
-15.09402577331361
 30
0.0
 10
9.761037699461424
 20
-13.37346483481159
 30
0.0
 10
9.761037699461424
 20
-11.65290389630894
 30
0.0
 10
11.15582792559931
 20
-10.25811367017137
 30
0.0
 10
12.87638886410197
 20
-10.25811367017137
 30
0.0
 10
14.59694980260494
 20
-10.25811367017137
 30
0.0
 10
15.99174002874219
 20
-11.65290389630894
 30
0.0
 10
15.99174002874219
 20
-13.37346483481159
 30
0.0
  0
HATCH
  5
BB
330
1F
100
AcDbEntity
  8
Layer 3
 62
    18
420
        0
100
AcDbHatch
 10
0.0
 20
0.0
 30
0.0
210
0.0
220
0.0
230
1.0
  2
SOLID
 70
     1
 71
     0
 91
        1
 92
        1
 93
        1
 72
     4
 94
        3
 73
     0
 74
     1
 95
       17
 96
       13
 40
0.0
 40
0.0
 40
0.0
 40
0.0
 40
1.0
 40
1.0
 40
1.0
 40
2.0
 40
2.0
 40
2.0
 40
3.0
 40
3.0
 40
3.0
 40
4.0
 40
4.0
 40
4.0
 40
4.0
 10
15.99174002874219
 20
-13.37346483481159
 10
15.99174002874219
 20
-15.09402577331361
 10
14.59694980260494
 20
-16.4888159994515
 10
12.87638886410197
 20
-16.4888159994515
 10
11.15582792559931
 20
-16.4888159994515
 10
9.761037699461424
 20
-15.09402577331361
 10
9.761037699461424
 20
-13.37346483481159
 10
9.761037699461424
 20
-11.65290389630894
 10
11.15582792559931
 20
-10.25811367017137
 10
12.87638886410197
 20
-10.25811367017137
 10
14.59694980260494
 20
-10.25811367017137
 10
15.99174002874219
 20
-11.65290389630894
 10
15.99174002874219
 20
-13.37346483481159
 97
        0
 97
        0
 75
     2
 76
     1
 98
        0
  0
ENDSEC
  0
SECTION
  2
OBJECTS
  0
DICTIONARY
  5
C
330
0
100
AcDbDictionary
281
     1
  3
ACAD_GROUP
350
D
  3
ACAD_LAYOUT
350
1A
  3
ACAD_MATERIAL
350
3B
  3
ACAD_MLEADERSTYLE
350
BD
  3
ACAD_MLINESTYLE
350
17
  3
ACAD_PLOTSETTINGS
350
19
  3
ACAD_PLOTSTYLENAME
350
E
  3
ACAD_TABLESTYLE
350
BC
  3
ACAD_VISUALSTYLE
350
2A
  0
SUN
  5
3F
330
29
100
AcDbSun
 90
        1
290
     0
 63
     7
421
 16777215
 40
1.0
291
     1
 91
  2455826
 92
 54000000
292
     0
 70
     2
 71
   256
280
     1
  0
DICTIONARY
  5
D
102
{ACAD_REACTORS
330
C
102
}
330
C
100
AcDbDictionary
281
     1
  0
DICTIONARY
  5
1A
102
{ACAD_REACTORS
330
C
102
}
330
C
100
AcDbDictionary
281
     1
  3
Layout1
350
1E
  3
Layout2
350
26
  3
Model
350
22
  0
DICTIONARY
  5
3B
102
{ACAD_REACTORS
330
C
102
}
330
C
100
AcDbDictionary
281
     1
  3
ByBlock
350
3D
  3
ByLayer
350
3C
  3
Global
350
3E
  0
DICTIONARY
  5
BD
102
{ACAD_REACTORS
330
C
102
}
330
C
100
AcDbDictionary
281
     1
  0
DICTIONARY
  5
17
102
{ACAD_REACTORS
330
C
102
}
330
C
100
AcDbDictionary
281
     1
  3
Standard
350
18
  0
DICTIONARY
  5
19
102
{ACAD_REACTORS
330
C
102
}
330
C
100
AcDbDictionary
281
     1
  0
ACDBDICTIONARYWDFLT
  5
E
102
{ACAD_REACTORS
330
C
102
}
330
C
100
AcDbDictionary
281
     1
  3
Normal
350
F
100
AcDbDictionaryWithDefault
340
F
  0
DICTIONARY
  5
BC
102
{ACAD_REACTORS
330
C
102
}
330
C
100
AcDbDictionary
281
     1
  0
DICTIONARY
  5
2A
102
{ACAD_REACTORS
330
C
102
}
330
C
100
AcDbDictionary
281
     1
  3
2dWireframe
350
2F
  3
3D Hidden
350
31
  3
3dWireframe
350
30
  3
Basic
350
32
  3
Brighten
350
36
  3
ColorChange
350
3A
  3
Conceptual
350
34
  3
Dim
350
35
  3
Facepattern
350
39
  3
Flat
350
2B
  3
FlatWithEdges
350
2C
  3
Gouraud
350
2D
  3
GouraudWithEdges
350
2E
  3
Linepattern
350
38
  3
Realistic
350
33
  3
Thicken
350
37
  0
LAYOUT
  5
1E
102
{ACAD_REACTORS
330
1A
102
}
330
1A
100
AcDbPlotSettings
  1

  2
none_device
  4

  6

 40
0.0
 41
0.0
 42
0.0
 43
0.0
 44
0.0
 45
0.0
 46
0.0
 47
0.0
 48
0.0
 49
0.0
140
0.0
141
0.0
142
1.0
143
1.0
 70
   688
 72
     0
 73
     0
 74
     5
  7

 75
    16
 76
     0
 77
     2
 78
   300
147
1.0
148
0.0
149
0.0
100
AcDbLayout
  1
Layout1
 70
     1
 71
     1
 10
0.0
 20
0.0
 11
12.0
 21
9.0
 12
0.0
 22
0.0
 32
0.0
 14
1.000000000000000E+20
 24
1.000000000000000E+20
 34
1.000000000000000E+20
 15
-1.000000000000000E+20
 25
-1.000000000000000E+20
 35
-1.000000000000000E+20
146
0.0
 13
0.0
 23
0.0
 33
0.0
 16
1.0
 26
0.0
 36
0.0
 17
0.0
 27
1.0
 37
0.0
 76
     0
330
1B
  0
LAYOUT
  5
26
102
{ACAD_REACTORS
330
1A
102
}
330
1A
100
AcDbPlotSettings
  1

  2
none_device
  4

  6

 40
0.0
 41
0.0
 42
0.0
 43
0.0
 44
0.0
 45
0.0
 46
0.0
 47
0.0
 48
0.0
 49
0.0
140
0.0
141
0.0
142
1.0
143
1.0
 70
   688
 72
     0
 73
     0
 74
     5
  7

 75
    16
 76
     0
 77
     2
 78
   300
147
1.0
148
0.0
149
0.0
100
AcDbLayout
  1
Layout2
 70
     1
 71
     2
 10
0.0
 20
0.0
 11
0.0
 21
0.0
 12
0.0
 22
0.0
 32
0.0
 14
0.0
 24
0.0
 34
0.0
 15
0.0
 25
0.0
 35
0.0
146
0.0
 13
0.0
 23
0.0
 33
0.0
 16
1.0
 26
0.0
 36
0.0
 17
0.0
 27
1.0
 37
0.0
 76
     0
330
23
  0
LAYOUT
  5
22
102
{ACAD_REACTORS
330
1A
102
}
330
1A
100
AcDbPlotSettings
  1

  2
none_device
  4

  6

 40
0.0
 41
0.0
 42
0.0
 43
0.0
 44
0.0
 45
0.0
 46
0.0
 47
0.0
 48
0.0
 49
0.0
140
0.0
141
0.0
142
1.0
143
1.0
 70
  1712
 72
     0
 73
     0
 74
     0
  7

 75
     0
 76
     0
 77
     2
 78
   300
147
1.0
148
0.0
149
0.0
100
AcDbLayout
  1
Model
 70
     1
 71
     0
 10
0.0
 20
0.0
 11
12.0
 21
9.0
 12
0.0
 22
0.0
 32
0.0
 14
1.000000000000000E+20
 24
1.000000000000000E+20
 34
1.000000000000000E+20
 15
-1.000000000000000E+20
 25
-1.000000000000000E+20
 35
-1.000000000000000E+20
146
0.0
 13
0.0
 23
0.0
 33
0.0
 16
1.0
 26
0.0
 36
0.0
 17
0.0
 27
1.0
 37
0.0
 76
     0
330
1F
331
29
  0
MATERIAL
  5
3D
102
{ACAD_REACTORS
330
3B
102
}
330
3B
100
AcDbMaterial
  1
ByBlock
 72
     1
 94
      127
  0
MATERIAL
  5
3C
102
{ACAD_REACTORS
330
3B
102
}
330
3B
100
AcDbMaterial
  1
ByLayer
 72
     1
 94
      127
  0
MATERIAL
  5
3E
102
{ACAD_REACTORS
330
3B
102
}
330
3B
100
AcDbMaterial
  1
Global
 72
     1
 94
      127
  0
MLINESTYLE
  5
18
102
{ACAD_REACTORS
330
17
102
}
330
17
100
AcDbMlineStyle
  2
Standard
 70
     0
  3

 62
   256
 51
90.0
 52
90.0
 71
     2
 49
0.5
 62
   256
  6
BYLAYER
 49
-0.5
 62
   256
  6
BYLAYER
  0
ACDBPLACEHOLDER
  5
F
102
{ACAD_REACTORS
330
E
102
}
330
E
  0
VISUALSTYLE
  5
2F
102
{ACAD_REACTORS
330
2A
102
}
330
2A
100
AcDbVisualStyle
  2
2dWireframe
 70
     4
177
     2
291
     0
 71
     0
176
     1
 72
     2
176
     1
 73
     0
176
     1
 90
        0
176
     1
 40
-0.6
176
     1
 41
-30.0
176
     1
 62
     5
 63
     7
421
 16777215
176
     1
 74
     1
176
     1
 91
        4
176
     1
 64
     7
176
     1
 65
   257
176
     1
 75
     1
176
     1
175
     1
176
     1
 42
1.0
176
     1
 92
        0
176
     1
 66
   257
176
     1
 43
1.0
176
     1
 76
     1
176
     1
 77
     6
176
     1
 78
     2
176
     1
 67
     7
176
     1
 79
     5
176
     1
170
     0
176
     1
171
     0
176
     1
290
     0
176
     1
 93
        1
176
     1
 44
0.0
176
     1
173
     0
176
     1
  0
VISUALSTYLE
  5
31
102
{ACAD_REACTORS
330
2A
102
}
330
2A
100
AcDbVisualStyle
  2
3D Hidden
 70
     6
177
     2
291
     0
 71
     1
176
     1
 72
     2
176
     1
 73
     2
176
     1
 90
        0
176
     1
 40
-0.6
176
     1
 41
-30.0
176
     1
 62
     5
 63
     7
421
 16777215
176
     1
 74
     2
176
     1
 91
        2
176
     1
 64
     7
176
     1
 65
   257
176
     1
 75
     2
176
     1
175
     1
176
     1
 42
40.0
176
     1
 92
        0
176
     1
 66
   257
176
     1
 43
1.0
176
     1
 76
     1
176
     1
 77
     6
176
     1
 78
     2
176
     1
 67
     7
176
     1
 79
     3
176
     1
170
     0
176
     1
171
     0
176
     1
290
     0
176
     1
 93
        1
176
     1
 44
0.0
176
     1
173
     0
176
     1
  0
VISUALSTYLE
  5
30
102
{ACAD_REACTORS
330
2A
102
}
330
2A
100
AcDbVisualStyle
  2
3dWireframe
 70
     5
177
     2
291
     0
 71
     0
176
     1
 72
     2
176
     1
 73
     0
176
     1
 90
        0
176
     1
 40
-0.6
176
     1
 41
-30.0
176
     1
 62
     5
 63
     7
421
 16777215
176
     1
 74
     1
176
     1
 91
        4
176
     1
 64
     7
176
     1
 65
   257
176
     1
 75
     1
176
     1
175
     1
176
     1
 42
1.0
176
     1
 92
        0
176
     1
 66
   257
176
     1
 43
1.0
176
     1
 76
     1
176
     1
 77
     6
176
     1
 78
     2
176
     1
 67
     7
176
     1
 79
     5
176
     1
170
     0
176
     1
171
     0
176
     1
290
     0
176
     1
 93
        1
176
     1
 44
0.0
176
     1
173
     0
176
     1
  0
VISUALSTYLE
  5
32
102
{ACAD_REACTORS
330
2A
102
}
330
2A
100
AcDbVisualStyle
  2
Basic
 70
     7
177
     2
291
     1
 71
     1
176
     1
 72
     0
176
     1
 73
     1
176
     1
 90
        0
176
     1
 40
-0.6
176
     1
 41
-30.0
176
     1
 62
     5
 63
     7
421
 16777215
176
     1
 74
     0
176
     1
 91
        4
176
     1
 64
     7
176
     1
 65
   257
176
     1
 75
     1
176
     1
175
     1
176
     1
 42
1.0
176
     1
 92
        8
176
     1
 66
     7
176
     1
 43
1.0
176
     1
 76
     1
176
     1
 77
     6
176
     1
 78
     2
176
     1
 67
     7
176
     1
 79
     5
176
     1
170
     0
176
     1
171
     0
176
     1
290
     0
176
     1
 93
        1
176
     1
 44
0.0
176
     1
173
     0
176
     1
  0
VISUALSTYLE
  5
36
102
{ACAD_REACTORS
330
2A
102
}
330
2A
100
AcDbVisualStyle
  2
Brighten
 70
    12
177
     2
291
     1
 71
     2
176
     1
 72
     2
176
     1
 73
     0
176
     1
 90
        0
176
     1
 40
-0.6
176
     1
 41
-30.0
176
     1
 62
     5
 63
     7
421
 16777215
176
     1
 74
     1
176
     1
 91
        4
176
     1
 64
     7
176
     1
 65
   257
176
     1
 75
     1
176
     1
175
     1
176
     1
 42
1.0
176
     1
 92
        8
176
     1
 66
     7
176
     1
 43
1.0
176
     1
 76
     1
176
     1
 77
     6
176
     1
 78
     2
176
     1
 67
     7
176
     1
 79
     5
176
     1
170
     0
176
     1
171
     0
176
     1
290
     0
176
     1
 93
        1
176
     1
 44
50.0
176
     1
173
     0
176
     1
  0
VISUALSTYLE
  5
3A
102
{ACAD_REACTORS
330
2A
102
}
330
2A
100
AcDbVisualStyle
  2
ColorChange
 70
    16
177
     2
291
     1
 71
     2
176
     1
 72
     2
176
     1
 73
     3
176
     1
 90
        0
176
     1
 40
-0.6
176
     1
 41
-30.0
176
     1
 62
     5
 63
     8
421
  8421504
176
     1
 74
     1
176
     1
 91
        4
176
     1
 64
     7
176
     1
 65
   257
176
     1
 75
     1
176
     1
175
     1
176
     1
 42
1.0
176
     1
 92
        8
176
     1
 66
     8
424
  8421504
176
     1
 43
1.0
176
     1
 76
     1
176
     1
 77
     6
176
     1
 78
     2
176
     1
 67
     7
176
     1
 79
     5
176
     1
170
     0
176
     1
171
     0
176
     1
290
     0
176
     1
 93
        1
176
     1
 44
0.0
176
     1
173
     0
176
     1
  0
VISUALSTYLE
  5
34
102
{ACAD_REACTORS
330
2A
102
}
330
2A
100
AcDbVisualStyle
  2
Conceptual
 70
     9
177
     2
291
     0
 71
     3
176
     1
 72
     2
176
     1
 73
     0
176
     1
 90
        0
176
     1
 40
-0.6
176
     1
 41
-30.0
176
     1
 62
     5
 63
     7
421
 16777215
176
     1
 74
     2
176
     1
 91
        2
176
     1
 64
     7
176
     1
 65
   257
176
     1
 75
     1
176
     1
175
     1
176
     1
 42
40.0
176
     1
 92
        8
176
     1
 66
     7
176
     1
 43
1.0
176
     1
 76
     1
176
     1
 77
     6
176
     1
 78
     2
176
     1
 67
     7
176
     1
 79
     3
176
     1
170
     0
176
     1
171
     0
176
     1
290
     0
176
     1
 93
        1
176
     1
 44
0.0
176
     1
173
     0
176
     1
  0
VISUALSTYLE
  5
35
102
{ACAD_REACTORS
330
2A
102
}
330
2A
100
AcDbVisualStyle
  2
Dim
 70
    11
177
     2
291
     1
 71
     2
176
     1
 72
     2
176
     1
 73
     0
176
     1
 90
        0
176
     1
 40
-0.6
176
     1
 41
-30.0
176
     1
 62
     5
 63
     7
421
 16777215
176
     1
 74
     1
176
     1
 91
        4
176
     1
 64
     7
176
     1
 65
   257
176
     1
 75
     1
176
     1
175
     1
176
     1
 42
1.0
176
     1
 92
        8
176
     1
 66
     7
176
     1
 43
1.0
176
     1
 76
     1
176
     1
 77
     6
176
     1
 78
     2
176
     1
 67
     7
176
     1
 79
     5
176
     1
170
     0
176
     1
171
     0
176
     1
290
     0
176
     1
 93
        1
176
     1
 44
-50.0
176
     1
173
     0
176
     1
  0
VISUALSTYLE
  5
39
102
{ACAD_REACTORS
330
2A
102
}
330
2A
100
AcDbVisualStyle
  2
Facepattern
 70
    15
177
     2
291
     1
 71
     2
176
     1
 72
     2
176
     1
 73
     0
176
     1
 90
        0
176
     1
 40
-0.6
176
     1
 41
-30.0
176
     1
 62
     5
 63
     7
421
 16777215
176
     1
 74
     1
176
     1
 91
        4
176
     1
 64
     7
176
     1
 65
   257
176
     1
 75
     1
176
     1
175
     1
176
     1
 42
1.0
176
     1
 92
        8
176
     1
 66
     7
176
     1
 43
1.0
176
     1
 76
     1
176
     1
 77
     6
176
     1
 78
     2
176
     1
 67
     7
176
     1
 79
     5
176
     1
170
     0
176
     1
171
     0
176
     1
290
     0
176
     1
 93
        1
176
     1
 44
0.0
176
     1
173
     0
176
     1
  0
VISUALSTYLE
  5
2B
102
{ACAD_REACTORS
330
2A
102
}
330
2A
100
AcDbVisualStyle
  2
Flat
 70
     0
177
     2
291
     1
 71
     2
176
     1
 72
     1
176
     1
 73
     1
176
     1
 90
        2
176
     1
 40
-0.6
176
     1
 41
30.0
176
     1
 62
     5
 63
     7
421
 16777215
176
     1
 74
     0
176
     1
 91
        4
176
     1
 64
     7
176
     1
 65
   257
176
     1
 75
     1
176
     1
175
     1
176
     1
 42
1.0
176
     1
 92
        8
176
     1
 66
     7
176
     1
 43
1.0
176
     1
 76
     1
176
     1
 77
     6
176
     1
 78
     2
176
     1
 67
     7
176
     1
 79
     5
176
     1
170
     0
176
     1
171
     0
176
     1
290
     0
176
     1
 93
       13
176
     1
 44
0.0
176
     1
173
     0
176
     1
  0
VISUALSTYLE
  5
2C
102
{ACAD_REACTORS
330
2A
102
}
330
2A
100
AcDbVisualStyle
  2
FlatWithEdges
 70
     1
177
     2
291
     1
 71
     2
176
     1
 72
     1
176
     1
 73
     1
176
     1
 90
        2
176
     1
 40
-0.6
176
     1
 41
30.0
176
     1
 62
     5
 63
     7
421
 16777215
176
     1
 74
     1
176
     1
 91
        4
176
     1
 64
     7
176
     1
 65
   257
176
     1
 75
     1
176
     1
175
     1
176
     1
 42
1.0
176
     1
 92
        0
176
     1
 66
   257
176
     1
 43
1.0
176
     1
 76
     1
176
     1
 77
     6
176
     1
 78
     2
176
     1
 67
     7
176
     1
 79
     5
176
     1
170
     0
176
     1
171
     0
176
     1
290
     0
176
     1
 93
       13
176
     1
 44
0.0
176
     1
173
     0
176
     1
  0
VISUALSTYLE
  5
2D
102
{ACAD_REACTORS
330
2A
102
}
330
2A
100
AcDbVisualStyle
  2
Gouraud
 70
     2
177
     2
291
     1
 71
     2
176
     1
 72
     2
176
     1
 73
     1
176
     1
 90
        2
176
     1
 40
-0.6
176
     1
 41
30.0
176
     1
 62
     5
 63
     7
421
 16777215
176
     1
 74
     0
176
     1
 91
        4
176
     1
 64
     7
176
     1
 65
   257
176
     1
 75
     1
176
     1
175
     1
176
     1
 42
1.0
176
     1
 92
        0
176
     1
 66
     7
176
     1
 43
1.0
176
     1
 76
     1
176
     1
 77
     6
176
     1
 78
     2
176
     1
 67
     7
176
     1
 79
     5
176
     1
170
     0
176
     1
171
     0
176
     1
290
     0
176
     1
 93
       13
176
     1
 44
0.0
176
     1
173
     0
176
     1
  0
VISUALSTYLE
  5
2E
102
{ACAD_REACTORS
330
2A
102
}
330
2A
100
AcDbVisualStyle
  2
GouraudWithEdges
 70
     3
177
     2
291
     1
 71
     2
176
     1
 72
     2
176
     1
 73
     1
176
     1
 90
        2
176
     1
 40
-0.6
176
     1
 41
30.0
176
     1
 62
     5
 63
     7
421
 16777215
176
     1
 74
     1
176
     1
 91
        4
176
     1
 64
     7
176
     1
 65
   257
176
     1
 75
     1
176
     1
175
     1
176
     1
 42
1.0
176
     1
 92
        0
176
     1
 66
   257
176
     1
 43
1.0
176
     1
 76
     1
176
     1
 77
     6
176
     1
 78
     2
176
     1
 67
     7
176
     1
 79
     5
176
     1
170
     0
176
     1
171
     0
176
     1
290
     0
176
     1
 93
       13
176
     1
 44
0.0
176
     1
173
     0
176
     1
  0
VISUALSTYLE
  5
38
102
{ACAD_REACTORS
330
2A
102
}
330
2A
100
AcDbVisualStyle
  2
Linepattern
 70
    14
177
     2
291
     1
 71
     2
176
     1
 72
     2
176
     1
 73
     0
176
     1
 90
        0
176
     1
 40
-0.6
176
     1
 41
-30.0
176
     1
 62
     5
 63
     7
421
 16777215
176
     1
 74
     1
176
     1
 91
        4
176
     1
 64
     7
176
     1
 65
   257
176
     1
 75
     7
176
     1
175
     7
176
     1
 42
1.0
176
     1
 92
        8
176
     1
 66
     7
176
     1
 43
1.0
176
     1
 76
     1
176
     1
 77
     6
176
     1
 78
     2
176
     1
 67
     7
176
     1
 79
     5
176
     1
170
     0
176
     1
171
     0
176
     1
290
     0
176
     1
 93
        1
176
     1
 44
0.0
176
     1
173
     0
176
     1
  0
VISUALSTYLE
  5
33
102
{ACAD_REACTORS
330
2A
102
}
330
2A
100
AcDbVisualStyle
  2
Realistic
 70
     8
177
     2
291
     0
 71
     2
176
     1
 72
     2
176
     1
 73
     0
176
     1
 90
        0
176
     1
 40
-0.6
176
     1
 41
-30.0
176
     1
 62
     5
 63
     7
421
 16777215
176
     1
 74
     1
176
     1
 91
        0
176
     1
 64
     7
176
     1
 65
   257
176
     1
 75
     1
176
     1
175
     1
176
     1
 42
1.0
176
     1
 92
        8
176
     1
 66
     8
424
  7895160
176
     1
 43
1.0
176
     1
 76
     1
176
     1
 77
     6
176
     1
 78
     2
176
     1
 67
     7
176
     1
 79
     5
176
     1
170
     0
176
     1
171
     0
176
     1
290
     0
176
     1
 93
       13
176
     1
 44
0.0
176
     1
173
     0
176
     1
  0
VISUALSTYLE
  5
37
102
{ACAD_REACTORS
330
2A
102
}
330
2A
100
AcDbVisualStyle
  2
Thicken
 70
    13
177
     2
291
     1
 71
     2
176
     1
 72
     2
176
     1
 73
     0
176
     1
 90
        0
176
     1
 40
-0.6
176
     1
 41
-30.0
176
     1
 62
     5
 63
     7
421
 16777215
176
     1
 74
     1
176
     1
 91
        4
176
     1
 64
     7
176
     1
 65
   257
176
     1
 75
     1
176
     1
175
     1
176
     1
 42
1.0
176
     1
 92
       12
176
     1
 66
     7
176
     1
 43
1.0
176
     1
 76
     1
176
     1
 77
     6
176
     1
 78
     2
176
     1
 67
     7
176
     1
 79
     5
176
     1
170
     0
176
     1
171
     0
176
     1
290
     0
176
     1
 93
        1
176
     1
 44
0.0
176
     1
173
     0
176
     1
  0
ENDSEC
  0
EOF
