  0
SECTION
  2
HEADER
  9
$ACADVER
  1
AC1024
  9
$ACADMAINTVER
 70
     6
  9
$DWGCODEPAGE
  3
ANSI_1252
  9
$INSBASE
 10
0.0
 20
0.0
 30
0.0
  9
$EXTMIN
 10
1.000000000000000E+20
 20
1.000000000000000E+20
 30
1.000000000000000E+20
  9
$EXTMAX
 10
-1.000000000000000E+20
 20
-1.000000000000000E+20
 30
-1.000000000000000E+20
  9
$LIMMIN
 10
0.0
 20
0.0
  9
$LIMMAX
 10
12.0
 20
9.0
  9
$ORTHOMODE
 70
     0
  9
$REGENMODE
 70
     1
  9
$FILLMODE
 70
     1
  9
$QTEXTMODE
 70
     0
  9
$MIRRTEXT
 70
     1
  9
$LTSCALE
 40
1.0
  9
$ATTMODE
 70
     1
  9
$TEXTSIZE
 40
0.2
  9
$TRACEWID
 40
0.05
  9
$TEXTSTYLE
  7
Standard
  9
$CLAYER
  8
0
  9
$CELTYPE
  6
ByLayer
  9
$CECOLOR
 62
   256
  9
$CELTSCALE
 40
1.0
  9
$DISPSILH
 70
     0
  9
$DIMSCALE
 40
1.0
  9
$DIMASZ
 40
0.18
  9
$DIMEXO
 40
0.0625
  9
$DIMDLI
 40
0.38
  9
$DIMRND
 40
0.0
  9
$DIMDLE
 40
0.0
  9
$DIMEXE
 40
0.18
  9
$DIMTP
 40
0.0
  9
$DIMTM
 40
0.0
  9
$DIMTXT
 40
0.18
  9
$DIMCEN
 40
0.09
  9
$DIMTSZ
 40
0.0
  9
$DIMTOL
 70
     0
  9
$DIMLIM
 70
     0
  9
$DIMTIH
 70
     1
  9
$DIMTOH
 70
     1
  9
$DIMSE1
 70
     0
  9
$DIMSE2
 70
     0
  9
$DIMTAD
 70
     0
  9
$DIMZIN
 70
     0
  9
$DIMBLK
  1

  9
$DIMASO
 70
     1
  9
$DIMSHO
 70
     1
  9
$DIMPOST
  1

  9
$DIMAPOST
  1

  9
$DIMALT
 70
     0
  9
$DIMALTD
 70
     2
  9
$DIMALTF
 40
25.4
  9
$DIMLFAC
 40
1.0
  9
$DIMTOFL
 70
     0
  9
$DIMTVP
 40
0.0
  9
$DIMTIX
 70
     0
  9
$DIMSOXD
 70
     0
  9
$DIMSAH
 70
     0
  9
$DIMBLK1
  1

  9
$DIMBLK2
  1

  9
$DIMSTYLE
  2
Standard
  9
$DIMCLRD
 70
     0
  9
$DIMCLRE
 70
     0
  9
$DIMCLRT
 70
     0
  9
$DIMTFAC
 40
1.0
  9
$DIMGAP
 40
0.09
  9
$DIMJUST
 70
     0
  9
$DIMSD1
 70
     0
  9
$DIMSD2
 70
     0
  9
$DIMTOLJ
 70
     1
  9
$DIMTZIN
 70
     0
  9
$DIMALTZ
 70
     0
  9
$DIMALTTZ
 70
     0
  9
$DIMUPT
 70
     0
  9
$DIMDEC
 70
     4
  9
$DIMTDEC
 70
     4
  9
$DIMALTU
 70
     2
  9
$DIMALTTD
 70
     2
  9
$DIMTXSTY
  7
Standard
  9
$DIMAUNIT
 70
     0
  9
$DIMADEC
 70
     0
  9
$DIMALTRND
 40
0.0
  9
$DIMAZIN
 70
     0
  9
$DIMDSEP
 70
    46
  9
$DIMATFIT
 70
     3
  9
$DIMFRAC
 70
     0
  9
$DIMLDRBLK
  1

  9
$DIMLUNIT
 70
     2
  9
$DIMLWD
 70
    -2
  9
$DIMLWE
 70
    -2
  9
$DIMTMOVE
 70
     0
  9
$DIMFXL
 40
1.0
  9
$DIMFXLON
 70
     0
  9
$DIMJOGANG
 40
0.7853981633974483
  9
$DIMTFILL
 70
     0
  9
$DIMTFILLCLR
 70
     0
  9
$DIMARCSYM
 70
     0
  9
$DIMLTYPE
  6

  9
$DIMLTEX1
  6

  9
$DIMLTEX2
  6

  9
$DIMTXTDIRECTION
 70
     0
  9
$LUNITS
 70
     2
  9
$LUPREC
 70
     4
  9
$SKETCHINC
 40
0.1
  9
$FILLETRAD
 40
0.5
  9
$AUNITS
 70
     0
  9
$AUPREC
 70
     0
  9
$MENU
  1
.
  9
$ELEVATION
 40
0.0
  9
$PELEVATION
 40
0.0
  9
$THICKNESS
 40
0.0
  9
$LIMCHECK
 70
     0
  9
$CHAMFERA
 40
0.5
  9
$CHAMFERB
 40
0.5
  9
$CHAMFERC
 40
1.0
  9
$CHAMFERD
 40
0.0
  9
$SKPOLY
 70
     0
  9
$TDCREATE
 40
2459960.829617003
  9
$TDUCREATE
 40
2459960.787950336
  9
$TDUPDATE
 40
2459960.829617095
  9
$TDUUPDATE
 40
2459960.787950428
  9
$TDINDWG
 40
0.0000000116
  9
$TDUSRTIMER
 40
0.0000000116
  9
$USRTIMER
 70
     1
  9
$ANGBASE
 50
0.0
  9
$ANGDIR
 70
     0
  9
$PDMODE
 70
     0
  9
$PDSIZE
 40
0.0
  9
$PLINEWID
 40
0.0
  9
$SPLFRAME
 70
     0
  9
$SPLINETYPE
 70
     6
  9
$SPLINESEGS
 70
     8
  9
$HANDSEED
  5
C9
  9
$SURFTAB1
 70
     6
  9
$SURFTAB2
 70
     6
  9
$SURFTYPE
 70
     6
  9
$SURFU
 70
     6
  9
$SURFV
 70
     6
  9
$UCSBASE
  2

  9
$UCSNAME
  2

  9
$UCSORG
 10
0.0
 20
0.0
 30
0.0
  9
$UCSXDIR
 10
1.0
 20
0.0
 30
0.0
  9
$UCSYDIR
 10
0.0
 20
1.0
 30
0.0
  9
$UCSORTHOREF
  2

  9
$UCSORTHOVIEW
 70
     0
  9
$UCSORGTOP
 10
0.0
 20
0.0
 30
0.0
  9
$UCSORGBOTTOM
 10
0.0
 20
0.0
 30
0.0
  9
$UCSORGLEFT
 10
0.0
 20
0.0
 30
0.0
  9
$UCSORGRIGHT
 10
0.0
 20
0.0
 30
0.0
  9
$UCSORGFRONT
 10
0.0
 20
0.0
 30
0.0
  9
$UCSORGBACK
 10
0.0
 20
0.0
 30
0.0
  9
$PUCSBASE
  2

  9
$PUCSNAME
  2

  9
$PUCSORG
 10
0.0
 20
0.0
 30
0.0
  9
$PUCSXDIR
 10
1.0
 20
0.0
 30
0.0
  9
$PUCSYDIR
 10
0.0
 20
1.0
 30
0.0
  9
$PUCSORTHOREF
  2

  9
$PUCSORTHOVIEW
 70
     0
  9
$PUCSORGTOP
 10
0.0
 20
0.0
 30
0.0
  9
$PUCSORGBOTTOM
 10
0.0
 20
0.0
 30
0.0
  9
$PUCSORGLEFT
 10
0.0
 20
0.0
 30
0.0
  9
$PUCSORGRIGHT
 10
0.0
 20
0.0
 30
0.0
  9
$PUCSORGFRONT
 10
0.0
 20
0.0
 30
0.0
  9
$PUCSORGBACK
 10
0.0
 20
0.0
 30
0.0
  9
$USERI1
 70
     0
  9
$USERI2
 70
     0
  9
$USERI3
 70
     0
  9
$USERI4
 70
     0
  9
$USERI5
 70
     0
  9
$USERR1
 40
0.0
  9
$USERR2
 40
0.0
  9
$USERR3
 40
0.0
  9
$USERR4
 40
0.0
  9
$USERR5
 40
0.0
  9
$WORLDVIEW
 70
     1
  9
$SHADEDGE
 70
     3
  9
$SHADEDIF
 70
    70
  9
$TILEMODE
 70
     1
  9
$MAXACTVP
 70
    64
  9
$PINSBASE
 10
0.0
 20
0.0
 30
0.0
  9
$PLIMCHECK
 70
     0
  9
$PEXTMIN
 10
1.000000000000000E+20
 20
1.000000000000000E+20
 30
1.000000000000000E+20
  9
$PEXTMAX
 10
-1.000000000000000E+20
 20
-1.000000000000000E+20
 30
-1.000000000000000E+20
  9
$PLIMMIN
 10
0.0
 20
0.0
  9
$PLIMMAX
 10
12.0
 20
9.0
  9
$UNITMODE
 70
     0
  9
$VISRETAIN
 70
     1
  9
$PLINEGEN
 70
     0
  9
$PSLTSCALE
 70
     1
  9
$TREEDEPTH
 70
  3020
  9
$CMLSTYLE
  2
Standard
  9
$CMLJUST
 70
     0
  9
$CMLSCALE
 40
1.0
  9
$PROXYGRAPHICS
 70
     1
  9
$MEASUREMENT
 70
     0
  9
$CELWEIGHT
370
    -1
  9
$ENDCAPS
280
     0
  9
$JOINSTYLE
280
     0
  9
$LWDISPLAY
290
     1
  9
$INSUNITS
 70
     1
  9
$HYPERLINKBASE
  1

  9
$STYLESHEET
  1

  9
$XEDIT
290
     1
  9
$CEPSNTYPE
380
     0
  9
$PSTYLEMODE
290
     1
  9
$FINGERPRINTGUID
  2
{B867AD1B-DA4D-4783-B461-9A1FE7478859}
  9
$VERSIONGUID
  2
{FAEB1C32-E019-11D5-929B-00C0DF256EC4}
  9
$EXTNAMES
290
     1
  9
$PSVPSCALE
 40
0.0
  9
$OLESTARTUP
290
     0
  9
$SORTENTS
280
   127
  9
$INDEXCTL
280
     0
  9
$HIDETEXT
280
     1
  9
$XCLIPFRAME
280
     2
  9
$HALOGAP
280
     0
  9
$OBSCOLOR
 70
   257
  9
$OBSLTYPE
280
     0
  9
$INTERSECTIONDISPLAY
280
     0
  9
$INTERSECTIONCOLOR
 70
   257
  9
$DIMASSOC
280
     2
  9
$PROJECTNAME
  1

  9
$CAMERADISPLAY
290
     0
  9
$LENSLENGTH
 40
50.0
  9
$CAMERAHEIGHT
 40
0.0
  9
$STEPSPERSEC
 40
2.0
  9
$STEPSIZE
 40
6.0
  9
$3DDWFPREC
 40
2.0
  9
$PSOLWIDTH
 40
0.25
  9
$PSOLHEIGHT
 40
4.0
  9
$LOFTANG1
 40
1.570796326794897
  9
$LOFTANG2
 40
1.570796326794897
  9
$LOFTMAG1
 40
0.0
  9
$LOFTMAG2
 40
0.0
  9
$LOFTPARAM
 70
     7
  9
$LOFTNORMALS
280
     1
  9
$LATITUDE
 40
37.795
  9
$LONGITUDE
 40
-122.394
  9
$NORTHDIRECTION
 40
0.0
  9
$TIMEZONE
 70
 -8000
  9
$LIGHTGLYPHDISPLAY
280
     1
  9
$TILEMODELIGHTSYNCH
280
     1
  9
$CMATERIAL
347
3C
  9
$SOLIDHIST
280
     1
  9
$SHOWHIST
280
     1
  9
$DWFFRAME
280
     2
  9
$DGNFRAME
280
     2
  9
$REALWORLDSCALE
290
     1
  9
$INTERFERECOLOR
 62
   256
  9
$CSHADOW
280
     0
  9
$SHADOWPLANELOCATION
 40
0.0
  0
ENDSEC
  0
SECTION
  2
CLASSES
  0
CLASS
  1
ACDBDICTIONARYWDFLT
  2
AcDbDictionaryWithDefault
  3
ObjectDBX Classes
 90
        0
 91
        4
280
     0
281
     0
  0
CLASS
  1
VISUALSTYLE
  2
AcDbVisualStyle
  3
ObjectDBX Classes
 90
     4095
 91
        4
280
     0
281
     0
  0
CLASS
  1
MATERIAL
  2
AcDbMaterial
  3
ObjectDBX Classes
 90
     1153
 91
        4
280
     0
281
     0
  0
CLASS
  1
SUN
  2
AcDbSun
  3
SCENEOE
 90
     1024
 91
        4
280
     0
281
     0
  0
ENDSEC
  0
SECTION
  2
TABLES
  0
TABLE
  2
VPORT
  5
8
330
0
100
AcDbSymbolTable
 70
     1
  0
VPORT
  5
29
330
8
100
AcDbSymbolTableRecord
100
AcDbViewportTableRecord
  2
*Active
 70
     0
 10
0.0
 20
0.0
 11
1.0
 21
1.0
 12
0.0
 22
0.0
 13
0.0
 23
0.0
 14
0.5
 24
0.5
 15
0.5
 25
0.5
 16
0.0
 26
0.0
 36
1.0
 17
13.50080555218051
 27
-13.50080555218051
 37
0.0
 40
27.00161110436102
 41
1.0
 42
50.0
 43
0.0
 44
0.0
 50
0.0
 51
0.0
 71
     0
 72
   100
 73
     1
 74
     3
 75
     0
 76
     0
 77
     0
 78
     0
281
     0
 65
     1
110
0.0
120
0.0
130
0.0
111
1.0
121
0.0
131
0.0
112
0.0
122
1.0
132
0.0
 79
     0
146
0.0
 60
     3
 61
     5
292
     1
282
     1
141
0.0
142
0.0
 63
   250
361
3F
  0
ENDTAB
  0
TABLE
  2
LTYPE
  5
5
330
0
100
AcDbSymbolTable
 70
     1
  0
LTYPE
  5
14
330
5
100
AcDbSymbolTableRecord
100
AcDbLinetypeTableRecord
  2
ByBlock
 70
     0
  3

 72
    65
 73
     0
 40
0.0
  0
LTYPE
  5
15
330
5
100
AcDbSymbolTableRecord
100
AcDbLinetypeTableRecord
  2
ByLayer
 70
     0
  3

 72
    65
 73
     0
 40
0.0
  0
LTYPE
  5
16
330
5
100
AcDbSymbolTableRecord
100
AcDbLinetypeTableRecord
  2
Continuous
 70
     0
  3
Solid line
 72
    65
 73
     0
 40
0.0
  0
ENDTAB
  0
TABLE
  2
LAYER
  5
2
330
0
100
AcDbSymbolTable
 70
     3
  0
LAYER
  5
10
330
2
100
AcDbSymbolTableRecord
100
AcDbLayerTableRecord
  2
0
 70
     0
 62
     7
  6
Continuous
370
    -3
390
F
347
3E
  0
LAYER
  5
40
330
2
100
AcDbSymbolTableRecord
100
AcDbLayerTableRecord
  2
Layer 1
 70
     0
 62
     7
  6
Continuous
370
    -3
390
F
347
3E
  0
LAYER
  5
B4
330
2
100
AcDbSymbolTableRecord
100
AcDbLayerTableRecord
  2
Middle
 70
     0
 62
     7
  6
Continuous
370
    -3
390
F
347
3E
  0
ENDTAB
  0
TABLE
  2
STYLE
  5
3
330
0
100
AcDbSymbolTable
 70
     1
  0
STYLE
  5
11
330
3
100
AcDbSymbolTableRecord
100
AcDbTextStyleTableRecord
  2
Standard
 70
     0
 40
0.0
 41
1.0
 50
0.0
 71
     0
 42
0.2
  3
txt
  4

  0
ENDTAB
  0
TABLE
  2
VIEW
  5
6
330
0
100
AcDbSymbolTable
 70
     0
  0
ENDTAB
  0
TABLE
  2
UCS
  5
7
330
0
100
AcDbSymbolTable
 70
     0
  0
ENDTAB
  0
TABLE
  2
APPID
  5
9
330
0
100
AcDbSymbolTable
 70
     1
  0
APPID
  5
12
330
9
100
AcDbSymbolTableRecord
100
AcDbRegAppTableRecord
  2
ACAD
 70
     0
  0
ENDTAB
  0
TABLE
  2
DIMSTYLE
  5
A
330
0
100
AcDbSymbolTable
 70
     1
100
AcDbDimStyleTable
  0
DIMSTYLE
105
27
330
A
100
AcDbSymbolTableRecord
100
AcDbDimStyleTableRecord
  2
Standard
 70
     0
178
     0
340
11
  0
ENDTAB
  0
TABLE
  2
BLOCK_RECORD
  5
1
330
0
100
AcDbSymbolTable
 70
     4
  0
BLOCK_RECORD
  5
1F
330
1
100
AcDbSymbolTableRecord
100
AcDbBlockTableRecord
  2
*Model_Space
340
22
 70
     0
280
     1
281
     0
  0
BLOCK_RECORD
  5
1B
330
1
100
AcDbSymbolTableRecord
100
AcDbBlockTableRecord
  2
*Paper_Space
340
1E
 70
     0
280
     1
281
     0
  0
BLOCK_RECORD
  5
23
330
1
100
AcDbSymbolTableRecord
100
AcDbBlockTableRecord
  2
*Paper_Space0
340
26
 70
     0
280
     1
281
     0
  0
BLOCK_RECORD
  5
41
330
1
100
AcDbSymbolTableRecord
100
AcDbBlockTableRecord
  2
block 2
340
0
102
{BLKREFS
331
42
102
}
 70
     0
280
     1
281
     0
  0
BLOCK_RECORD
  5
6E
330
1
100
AcDbSymbolTableRecord
100
AcDbBlockTableRecord
  2
block 3
340
0
102
{BLKREFS
331
6F
102
}
 70
     0
280
     1
281
     0
  0
BLOCK_RECORD
  5
B5
330
1
100
AcDbSymbolTableRecord
100
AcDbBlockTableRecord
  2
block 4
340
0
102
{BLKREFS
331
B6
102
}
 70
     0
280
     1
281
     0
  0
ENDTAB
  0
ENDSEC
  0
SECTION
  2
BLOCKS
  0
BLOCK
  5
20
330
1F
100
AcDbEntity
  8
0
100
AcDbBlockBegin
  2
*Model_Space
 70
     0
 10
0.0
 20
0.0
 30
0.0
  3
*Model_Space
  1

  0
ENDBLK
  5
21
330
1F
100
AcDbEntity
  8
0
100
AcDbBlockEnd
  0
BLOCK
  5
1C
330
1B
100
AcDbEntity
 67
     1
  8
0
100
AcDbBlockBegin
  2
*Paper_Space
 70
     0
 10
0.0
 20
0.0
 30
0.0
  3
*Paper_Space
  1

  0
ENDBLK
  5
1D
330
1B
100
AcDbEntity
 67
     1
  8
0
100
AcDbBlockEnd
  0
BLOCK
  5
24
330
23
100
AcDbEntity
  8
0
100
AcDbBlockBegin
  2
*Paper_Space0
 70
     0
 10
0.0
 20
0.0
 30
0.0
  3
*Paper_Space0
  1

  0
ENDBLK
  5
25
330
23
100
AcDbEntity
  8
0
100
AcDbBlockEnd
  0
BLOCK
  5
43
330
41
100
AcDbEntity
  8
0
100
AcDbBlockBegin
  2
block 2
 70
     0
 10
0.0
 20
0.0
 30
0.0
  3
block 2
  1

  0
SPLINE
  5
45
330
41
100
AcDbEntity
  8
Layer 1
 62
   250
420
  2301728
370
    35
100
AcDbSpline
210
0.0
220
0.0
230
1.0
 70
    11
 71
     3
 72
   116
 73
   112
 74
     0
 42
0.0000000001
 43
0.0000000001
 12
1.0
 22
0.0
 32
0.0
 13
1.0
 23
0.0
 33
0.0
 40
0.0
 40
0.0
 40
0.0
 40
0.0
 40
1.0
 40
1.0
 40
1.0
 40
2.0
 40
2.0
 40
2.0
 40
3.0
 40
3.0
 40
3.0
 40
4.0
 40
4.0
 40
4.0
 40
5.0
 40
5.0
 40
5.0
 40
6.0
 40
6.0
 40
6.0
 40
7.0
 40
7.0
 40
7.0
 40
8.0
 40
8.0
 40
8.0
 40
9.0
 40
9.0
 40
9.0
 40
10.0
 40
10.0
 40
10.0
 40
11.0
 40
11.0
 40
11.0
 40
12.0
 40
12.0
 40
12.0
 40
13.0
 40
13.0
 40
13.0
 40
14.0
 40
14.0
 40
14.0
 40
15.0
 40
15.0
 40
15.0
 40
16.0
 40
16.0
 40
16.0
 40
17.0
 40
17.0
 40
17.0
 40
18.0
 40
18.0
 40
18.0
 40
19.0
 40
19.0
 40
19.0
 40
20.0
 40
20.0
 40
20.0
 40
21.0
 40
21.0
 40
21.0
 40
22.0
 40
22.0
 40
22.0
 40
23.0
 40
23.0
 40
23.0
 40
24.0
 40
24.0
 40
24.0
 40
25.0
 40
25.0
 40
25.0
 40
26.0
 40
26.0
 40
26.0
 40
27.0
 40
27.0
 40
27.0
 40
28.0
 40
28.0
 40
28.0
 40
29.0
 40
29.0
 40
29.0
 40
30.0
 40
30.0
 40
30.0
 40
31.0
 40
31.0
 40
31.0
 40
32.0
 40
32.0
 40
32.0
 40
33.0
 40
33.0
 40
33.0
 40
34.0
 40
34.0
 40
34.0
 40
35.0
 40
35.0
 40
35.0
 40
36.0
 40
36.0
 40
36.0
 40
37.0
 40
37.0
 40
37.0
 40
37.0
 10
25.28482569903091
 20
-17.19533867625843
 30
0.0
 10
25.09279866855864
 20
-17.79321226219118
 30
0.0
 10
24.86034530976947
 20
-18.36697491069634
 30
0.0
 10
24.58854546195029
 20
-18.91326455662061
 30
0.0
 10
24.09253166827579
 20
-18.75024430209526
 30
0.0
 10
23.27663919960836
 20
-19.22553896925872
 30
0.0
 10
22.66783314936696
 20
-20.07120406568099
 30
0.0
 10
22.66783314936696
 20
-20.07120406568099
 30
0.0
 10
22.66675989446538
 20
-20.07454563043465
 30
0.0
 10
22.66675989446538
 20
-20.07454563043465
 30
0.0
 10
22.05798092900827
 20
-20.92019681084643
 30
0.0
 10
21.8606341408152
 20
-21.84613651298226
 30
0.0
 10
22.17533985817898
 20
-22.26215391147978
 30
0.0
 10
21.28025262308742
 20
-23.14554577553828
 30
0.0
 10
20.25976930100623
 20
-23.88859028074814
 30
0.0
 10
19.15265880817644
 20
-24.46303201071667
 30
0.0
 10
18.88663732279769
 20
-24.01077192499417
 30
0.0
 10
17.94933591518931
 20
-23.89498999086038
 30
0.0
 10
16.94316369956018
 20
-24.21282925579439
 30
0.0
 10
16.9275762607729
 20
-24.21524061333109
 30
0.0
 10
16.90755350193332
 20
-24.21991369633649
 30
0.0
 10
16.89086572346018
 20
-24.22568053463927
 30
0.0
 10
15.88037415067908
 20
-24.55696806018196
 30
0.0
 10
15.1701948199995
 20
-25.21072710386281
 30
0.0
 10
15.21170180992197
 20
-25.73907423080191
 30
0.0
 10
14.02435825039078
 20
-25.91721912688182
 30
0.0
 10
12.79837272344302
 20
-25.9273377290852
 30
0.0
 10
11.57139255799526
 20
-25.7444554318224
 30
0.0
 10
11.58459490171109
 20
-25.2188444648244
 30
0.0
 10
10.87483709836205
 20
-24.59070626134445
 30
0.0
 10
9.883991397190721
 20
-24.27246313749934
 30
0.0
 10
9.883991397190721
 20
-24.27246313749934
 30
0.0
 10
9.880629332039032
 20
-24.27138329821183
 30
0.0
 10
9.880629332039032
 20
-24.27138329821183
 30
0.0
 10
8.88644206611309
 20
-23.95206691946386
 30
0.0
 10
7.945951655910235
 20
-24.05385917935435
 30
0.0
 10
7.651696099889984
 20
-24.48551426280011
 30
0.0
 10
6.528606542712623
 20
-23.90988444448028
 30
0.0
 10
5.519803315120155
 20
-23.17459377580302
 30
0.0
 10
4.646857956755774
 20
-22.31619657762711
 30
0.0
 10
4.962488290264112
 20
-21.89882449950115
 30
0.0
 10
4.762681160793035
 20
-20.97502370643458
 30
0.0
 10
4.144272212726682
 20
-20.13168715863466
 30
0.0
 10
3.529245830209732
 20
-19.28943703450882
 30
0.0
 10
2.709657517728064
 20
-18.81870454030418
 30
0.0
 10
2.213947756950929
 20
-18.98926556132173
 30
0.0
 10
1.659664501882352
 20
-17.88860701943721
 30
0.0
 10
1.269562618012965
 20
-16.70361011705131
 30
0.0
 10
1.059739486437081
 20
-15.47646613441349
 30
0.0
 10
1.557854020365304
 20
-15.321513052579
 30
0.0
 10
1.938850049055845
 20
-14.45826731696634
 30
0.0
 10
1.937421423667897
 20
-13.41294135294757
 30
0.0
 10
1.934905627366264
 20
-12.37092986890105
 30
0.0
 10
1.548367794655771
 20
-11.5094346309886
 30
0.0
 10
1.046832257252637
 20
-11.35205866747944
 30
0.0
 10
1.143968720345147
 20
-10.74967005366316
 30
0.0
 10
1.289090386771936
 20
-10.14785792121168
 30
0.0
 10
1.481117417244209
 20
-9.549984335277657
 30
0.0
 10
1.673144447716161
 20
-8.952110749343309
 30
0.0
 10
1.904517967217492
 20
-8.381710165990482
 30
0.0
 10
2.176317815036674
 20
-7.835420520066847
 30
0.0
 10
2.675693673863182
 20
-7.999520613880674
 30
0.0
 10
3.48717132287378
 20
-7.526494256570572
 30
0.0
 10
4.099312353483223
 20
-6.681922915447268
 30
0.0
 10
4.099312353483223
 20
-6.681922915447268
 30
0.0
 10
4.100392192771696
 20
-6.678560850294938
 30
0.0
 10
4.100392192771696
 20
-6.678560850294938
 30
0.0
 10
4.71025099751696
 20
-5.829547604731792
 30
0.0
 10
4.903169797281324
 20
-4.90591721324378
 30
0.0
 10
4.588443579520152
 20
-4.489893230359045
 30
0.0
 10
5.473587666841267
 20
-3.614434467566523
 30
0.0
 10
6.48075844437319
 20
-2.878195639154097
 30
0.0
 10
7.57562306317193
 20
-2.307238521625446
 30
0.0
 10
7.883747697916633
 20
-2.732268860677417
 30
0.0
 10
8.821877265853086
 20
-2.822377160567902
 30
0.0
 10
9.807897590966911
 20
-2.498065444291558
 30
0.0
 10
10.80172188567259
 20
-2.172551341439508
 30
0.0
 10
11.50208720025456
 20
-1.537870933370142
 30
0.0
 10
11.48852215442779
 20
-1.014766786414674
 30
0.0
 10
12.69696831208865
 20
-0.8285867421792731
 30
0.0
 10
13.94525882374113
 20
-0.8182369614119239
 30
0.0
 10
15.19349121938878
 20
-1.004236229250993
 30
0.0
 10
15.18473078011407
 20
-1.527564970384813
 30
0.0
 10
15.88668461386966
 20
-2.15690556044079
 30
0.0
 10
16.88087187979689
 20
-2.476221939188116
 30
0.0
 10
16.88087187979689
 20
-2.476221939188116
 30
0.0
 10
16.88423394494761
 20
-2.477301778475948
 30
0.0
 10
16.88423394494761
 20
-2.477301778475948
 30
0.0
 10
17.87507964611861
 20
-2.795544902321053
 30
0.0
 10
18.81557664070773
 20
-2.69373214203382
 30
0.0
 10
19.11318767749502
 20
-2.263177398271356
 30
0.0
 10
20.23625673427434
 20
-2.838800632206854
 30
0.0
 10
21.24171839711283
 20
-3.5730180459819
 30
0.0
 10
22.11679634926923
 20
-4.42470502986493
 30
0.0
 10
21.79783103539189
 20
-4.840983352692876
 30
0.0
 10
21.99992039072747
 20
-5.769226050198005
 30
0.0
 10
22.6183088383961
 20
-6.612556013612318
 30
0.0
 10
23.2367177864631
 20
-7.455892561412241
 30
0.0
 10
24.05630609894445
 20
-7.926625055617528
 30
0.0
 10
24.54865379456957
 20
-7.754984195311177
 30
0.0
 10
25.10293704963719
 20
-8.85564273719634
 30
0.0
 10
25.49638049826215
 20
-10.04171289448414
 30
0.0
 10
25.70620362983868
 20
-11.26885687712196
 30
0.0
 10
25.20702975701841
 20
-11.42717860849439
 30
0.0
 10
24.82938187746938
 20
-12.29147709861188
 30
0.0
 10
24.83080391847076
 20
-13.3368235630274
 30
0.0
 10
24.833326299158
 20
-14.37881454667781
 30
0.0
 10
25.2198575474832
 20
-15.24033028498605
 30
0.0
 10
25.71803101973465
 20
-15.39662640920802
 30
0.0
 10
25.62089455664214
 20
-15.9990150230243
 30
0.0
 10
25.47685272950318
 20
-16.59746509032441
 30
0.0
 10
25.28482569903091
 20
-17.19533867625843
 30
0.0
  0
POLYLINE
  5
46
330
41
100
AcDbEntity
  8
Layer 1
 62
   250
420
  2301728
370
    35
100
AcDb2dPolyline
 66
     1
 10
0.0
 20
0.0
 30
0.0
  0
VERTEX
  5
47
330
46
100
AcDbEntity
  8
Layer 1
 62
   250
420
  2301728
370
    35
100
AcDbVertex
100
AcDb2dVertex
 10
14.91084297301023
 20
-8.611573534397015
 30
0.0
  0
VERTEX
  5
48
330
46
100
AcDbEntity
  8
Layer 1
 62
   250
420
  2301728
370
    35
100
AcDbVertex
100
AcDb2dVertex
 10
16.88136479329834
 20
-2.476380254788789
 30
0.0
  0
SEQEND
  5
49
330
46
100
AcDbEntity
  8
Layer 1
 62
   250
420
  2301728
370
    35
  0
POLYLINE
  5
4A
330
41
100
AcDbEntity
  8
Layer 1
 62
   250
420
  2301728
370
    35
100
AcDb2dPolyline
 66
     1
 10
0.0
 20
0.0
 30
0.0
  0
VERTEX
  5
4B
330
4A
100
AcDbEntity
  8
Layer 1
 62
   250
420
  2301728
370
    35
100
AcDbVertex
100
AcDb2dVertex
 10
11.83572055100188
 20
-8.643803840049985
 30
0.0
  0
VERTEX
  5
4C
330
4A
100
AcDbEntity
  8
Layer 1
 62
   250
420
  2301728
370
    35
100
AcDbVertex
100
AcDb2dVertex
 10
9.836191327067121
 20
-2.558435719902878
 30
0.0
  0
SEQEND
  5
4D
330
4A
100
AcDbEntity
  8
Layer 1
 62
   250
420
  2301728
370
    35
  0
POLYLINE
  5
4E
330
41
100
AcDbEntity
  8
Layer 1
 62
   250
420
  2301728
370
    35
100
AcDb2dPolyline
 66
     1
 10
0.0
 20
0.0
 30
0.0
  0
VERTEX
  5
4F
330
4E
100
AcDbEntity
  8
Layer 1
 62
   250
420
  2301728
370
    35
100
AcDbVertex
100
AcDb2dVertex
 10
9.328439739894032
 20
-10.45121454863171
 30
0.0
  0
VERTEX
  5
50
330
4E
100
AcDbEntity
  8
Layer 1
 62
   250
420
  2301728
370
    35
100
AcDbVertex
100
AcDb2dVertex
 10
4.099306439665408
 20
-6.681930062104657
 30
0.0
  0
SEQEND
  5
51
330
4E
100
AcDbEntity
  8
Layer 1
 62
   250
420
  2301728
370
    35
  0
POLYLINE
  5
52
330
41
100
AcDbEntity
  8
Layer 1
 62
   250
420
  2301728
370
    35
100
AcDb2dPolyline
 66
     1
 10
0.0
 20
0.0
 30
0.0
  0
VERTEX
  5
53
330
52
100
AcDbEntity
  8
Layer 1
 62
   250
420
  2301728
370
    35
100
AcDbVertex
100
AcDb2dVertex
 10
8.39690976127866
 20
-13.37491453666749
 30
0.0
  0
VERTEX
  5
54
330
52
100
AcDbEntity
  8
Layer 1
 62
   250
420
  2301728
370
    35
100
AcDbVertex
100
AcDb2dVertex
 10
1.81779598799716
 20
-13.39617840620991
 30
0.0
  0
SEQEND
  5
55
330
52
100
AcDbEntity
  8
Layer 1
 62
   250
420
  2301728
370
    35
  0
POLYLINE
  5
56
330
41
100
AcDbEntity
  8
Layer 1
 62
   250
420
  2301728
370
    35
100
AcDb2dPolyline
 66
     1
 10
0.0
 20
0.0
 30
0.0
  0
VERTEX
  5
57
330
56
100
AcDbEntity
  8
Layer 1
 62
   250
420
  2301728
370
    35
100
AcDbVertex
100
AcDb2dVertex
 10
9.373761811534523
 20
-16.31606611337488
 30
0.0
  0
VERTEX
  5
58
330
56
100
AcDbEntity
  8
Layer 1
 62
   250
420
  2301728
370
    35
100
AcDbVertex
100
AcDb2dVertex
 10
4.264759217313928
 20
-20.0550462888334
 30
0.0
  0
SEQEND
  5
59
330
56
100
AcDbEntity
  8
Layer 1
 62
   250
420
  2301728
370
    35
  0
POLYLINE
  5
5A
330
41
100
AcDbEntity
  8
Layer 1
 62
   250
420
  2301728
370
    35
100
AcDb2dPolyline
 66
     1
 10
0.0
 20
0.0
 30
0.0
  0
VERTEX
  5
5B
330
5A
100
AcDbEntity
  8
Layer 1
 62
   250
420
  2301728
370
    35
100
AcDbVertex
100
AcDb2dVertex
 10
9.87828913732605
 20
-24.28036245826898
 30
0.0
  0
VERTEX
  5
5C
330
5A
100
AcDbEntity
  8
Layer 1
 62
   250
420
  2301728
370
    35
100
AcDbVertex
100
AcDb2dVertex
 10
11.85248526876087
 20
-18.13372926014357
 30
0.0
  0
SEQEND
  5
5D
330
5A
100
AcDbEntity
  8
Layer 1
 62
   250
420
  2301728
370
    35
  0
POLYLINE
  5
5E
330
41
100
AcDbEntity
  8
Layer 1
 62
   250
420
  2301728
370
    35
100
AcDb2dPolyline
 66
     1
 10
0.0
 20
0.0
 30
0.0
  0
VERTEX
  5
5F
330
5E
100
AcDbEntity
  8
Layer 1
 62
   250
420
  2301728
370
    35
100
AcDbVertex
100
AcDb2dVertex
 10
16.89016027782834
 20
-24.07697694758632
 30
0.0
  0
VERTEX
  5
60
330
5E
100
AcDbEntity
  8
Layer 1
 62
   250
420
  2301728
370
    35
100
AcDbVertex
100
AcDb2dVertex
 10
14.92603070177678
 20
-18.09934413139136
 30
0.0
  0
SEQEND
  5
61
330
5E
100
AcDbEntity
  8
Layer 1
 62
   250
420
  2301728
370
    35
  0
POLYLINE
  5
62
330
41
100
AcDbEntity
  8
Layer 1
 62
   250
420
  2301728
370
    35
100
AcDb2dPolyline
 66
     1
 10
0.0
 20
0.0
 30
0.0
  0
VERTEX
  5
63
330
62
100
AcDbEntity
  8
Layer 1
 62
   250
420
  2301728
370
    35
100
AcDbVertex
100
AcDb2dVertex
 10
22.55506139483731
 20
-19.9636279213136
 30
0.0
  0
VERTEX
  5
64
330
62
100
AcDbEntity
  8
Layer 1
 62
   250
420
  2301728
370
    35
100
AcDbVertex
100
AcDb2dVertex
 10
17.43616973401471
 20
-16.27210824060134
 30
0.0
  0
SEQEND
  5
65
330
62
100
AcDbEntity
  8
Layer 1
 62
   250
420
  2301728
370
    35
  0
POLYLINE
  5
66
330
41
100
AcDbEntity
  8
Layer 1
 62
   250
420
  2301728
370
    35
100
AcDb2dPolyline
 66
     1
 10
0.0
 20
0.0
 30
0.0
  0
VERTEX
  5
67
330
66
100
AcDbEntity
  8
Layer 1
 62
   250
420
  2301728
370
    35
100
AcDbVertex
100
AcDb2dVertex
 10
24.83245628733311
 20
-13.35610251859036
 30
0.0
  0
VERTEX
  5
68
330
66
100
AcDbEntity
  8
Layer 1
 62
   250
420
  2301728
370
    35
100
AcDbVertex
100
AcDb2dVertex
 10
18.36713155901114
 20
-13.37699861893361
 30
0.0
  0
SEQEND
  5
69
330
66
100
AcDbEntity
  8
Layer 1
 62
   250
420
  2301728
370
    35
  0
POLYLINE
  5
6A
330
41
100
AcDbEntity
  8
Layer 1
 62
   250
420
  2301728
370
    35
100
AcDb2dPolyline
 66
     1
 10
0.0
 20
0.0
 30
0.0
  0
VERTEX
  5
6B
330
6A
100
AcDbEntity
  8
Layer 1
 62
   250
420
  2301728
370
    35
100
AcDbVertex
100
AcDb2dVertex
 10
22.62442474851197
 20
-6.599850127404193
 30
0.0
  0
VERTEX
  5
6C
330
6A
100
AcDbEntity
  8
Layer 1
 62
   250
420
  2301728
370
    35
100
AcDbVertex
100
AcDb2dVertex
 10
17.39378221609901
 20
-10.42785145896188
 30
0.0
  0
SEQEND
  5
6D
330
6A
100
AcDbEntity
  8
Layer 1
 62
   250
420
  2301728
370
    35
  0
INSERT
  5
6F
330
41
100
AcDbEntity
  8
Layer 1
100
AcDbBlockReference
  2
block 3
 10
0.0
 20
0.0
 30
0.0
  0
SPLINE
  5
B3
330
41
100
AcDbEntity
  8
Layer 1
 62
   250
420
  2301728
370
    35
100
AcDbSpline
210
0.0
220
0.0
230
1.0
 70
    11
 71
     3
 72
    41
 73
    37
 74
     0
 42
0.0000000001
 43
0.0000000001
 12
1.0
 22
0.0
 32
0.0
 13
1.0
 23
0.0
 33
0.0
 40
0.0
 40
0.0
 40
0.0
 40
0.0
 40
1.0
 40
1.0
 40
1.0
 40
2.0
 40
2.0
 40
2.0
 40
3.0
 40
3.0
 40
3.0
 40
4.0
 40
4.0
 40
4.0
 40
5.0
 40
5.0
 40
5.0
 40
6.0
 40
6.0
 40
6.0
 40
7.0
 40
7.0
 40
7.0
 40
8.0
 40
8.0
 40
8.0
 40
9.0
 40
9.0
 40
9.0
 40
10.0
 40
10.0
 40
10.0
 40
11.0
 40
11.0
 40
11.0
 40
12.0
 40
12.0
 40
12.0
 40
12.0
 10
18.14387843997035
 20
-14.90404880134654
 30
0.0
 10
17.97882763854153
 20
-15.41793225967217
 30
0.0
 10
17.73963514201238
 20
-15.88579452250922
 30
0.0
 10
17.43625068253509
 20
-16.29968198819754
 30
0.0
 10
16.81319529614282
 20
-17.16668744569873
 30
0.0
 10
15.93209545652503
 20
-17.7988844642135
 30
0.0
 10
14.94271306625951
 20
-18.12211634120233
 30
0.0
 10
13.97227359554671
 20
-18.44403720033777
 30
0.0
 10
12.90042533656108
 20
-18.47030471525597
 30
0.0
 10
11.85248602899744
 20
-18.13372407667135
 30
0.0
 10
10.80790878658581
 20
-17.79822327737552
 30
0.0
 10
9.94953545900295
 20
-17.14829187016424
 30
0.0
 10
9.346965628685227
 20
-16.32485553391763
 30
0.0
 10
8.731939246168599
 20
-15.48260540979115
 30
0.0
 10
8.387094828742105
 20
-14.45665552989754
 30
0.0
 10
8.384341269490578
 20
-13.39235956154208
 30
0.0
 10
8.378702740543536
 20
-12.87921906275445
 30
0.0
 10
8.456680112955341
 20
-12.3595771891764
 30
0.0
 10
8.621730914384157
 20
-11.8456937308511
 30
0.0
 10
8.786788300197621
 20
-11.33178977212775
 30
0.0
 10
9.025974212342126
 20
-10.86394800968713
 30
0.0
 10
9.329358671818449
 20
-10.45006054400009
 30
0.0
 10
9.949051993058708
 20
-9.58197524721011
 30
0.0
 10
10.83017891746015
 20
-8.949764312684199
 30
0.0
 10
11.82062064661674
 20
-8.623163786157745
 30
0.0
 10
12.78998027804139
 20
-8.30460499217368
 30
0.0
 10
13.86626385708093
 20
-8.27607575178901
 30
0.0
 10
14.91084109949288
 20
-8.61157655108548
 30
0.0
 10
15.9587804070562
 20
-8.948157189669784
 30
0.0
 10
16.81487150877489
 20
-9.59364669244058
 30
0.0
 10
17.41636808419135
 20
-10.42042459344213
 30
0.0
 10
18.03248822200727
 20
-11.25933973719896
 30
0.0
 10
18.37959436489991
 20
-12.28972493714745
 30
0.0
 10
18.3812680848636
 20
-13.35738297065459
 30
0.0
 10
18.38690661380968
 20
-13.8705234694419
 30
0.0
 10
18.30893582578509
 20
-14.39014484262255
 30
0.0
 10
18.14387843997035
 20
-14.90404880134654
 30
0.0
  0
ENDBLK
  5
44
330
41
100
AcDbEntity
  8
0
100
AcDbBlockEnd
  0
BLOCK
  5
70
330
6E
100
AcDbEntity
  8
0
100
AcDbBlockBegin
  2
block 3
 70
     0
 10
0.0
 20
0.0
 30
0.0
  3
block 3
  1

  0
SPLINE
  5
72
330
6E
100
AcDbEntity
  8
Layer 1
370
     0
100
AcDbSpline
210
0.0
220
0.0
230
1.0
 70
    11
 71
     3
 72
    23
 73
    19
 74
     0
 42
0.0000000001
 43
0.0000000001
 12
1.0
 22
0.0
 32
0.0
 13
1.0
 23
0.0
 33
0.0
 40
0.0
 40
0.0
 40
0.0
 40
0.0
 40
1.0
 40
1.0
 40
1.0
 40
2.0
 40
2.0
 40
2.0
 40
3.0
 40
3.0
 40
3.0
 40
4.0
 40
4.0
 40
4.0
 40
5.0
 40
5.0
 40
5.0
 40
6.0
 40
6.0
 40
6.0
 40
6.0
 10
14.13729383327123
 20
-5.440494790306543
 30
0.0
 10
14.13936089056238
 20
-5.978274195554043
 30
0.0
 10
13.87477755729519
 20
-6.248714191146155
 30
0.0
 10
13.34285481437262
 20
-6.250781248437305
 30
0.0
 10
12.81248236441841
 20
-6.252848305728455
 30
0.0
 10
12.5461764834086
 20
-5.985164386524542
 30
0.0
 10
12.54410942611745
 20
-5.446695962179993
 30
0.0
 10
12.54410942611745
 20
-5.446695962179993
 30
0.0
 10
12.53480766830727
 20
-3.095418293496979
 30
0.0
 10
12.53480766830727
 20
-3.095418293496979
 30
0.0
 10
12.53256835624186
 20
-2.555916340506855
 30
0.0
 10
12.79680717996052
 20
-2.284787325817692
 30
0.0
 10
13.32717962991473
 20
-2.282720268526542
 30
0.0
 10
13.85893011806305
 20
-2.280653211235392
 30
0.0
 10
14.12558050862138
 20
-2.54937065908488
 30
0.0
 10
14.12764756591253
 20
-3.089217121623529
 30
0.0
 10
14.12764756591253
 20
-3.089217121623529
 30
0.0
 10
14.13729383327123
 20
-5.440494790306543
 30
0.0
 10
14.13729383327123
 20
-5.440494790306543
 30
0.0
  0
SPLINE
  5
73
330
6E
100
AcDbEntity
  8
Layer 1
370
     0
100
AcDbSpline
210
0.0
220
0.0
230
1.0
 70
    11
 71
     3
 72
    26
 73
    22
 74
     0
 42
0.0000000001
 43
0.0000000001
 12
1.0
 22
0.0
 32
0.0
 13
1.0
 23
0.0
 33
0.0
 40
0.0
 40
0.0
 40
0.0
 40
0.0
 40
1.0
 40
1.0
 40
1.0
 40
2.0
 40
2.0
 40
2.0
 40
3.0
 40
3.0
 40
3.0
 40
4.0
 40
4.0
 40
4.0
 40
5.0
 40
5.0
 40
5.0
 40
6.0
 40
6.0
 40
6.0
 40
7.0
 40
7.0
 40
7.0
 40
7.0
 10
13.57333170233583
 20
-3.091284178914679
 30
0.0
 10
13.57264268323878
 20
-2.917306856909562
 30
0.0
 10
13.49185519410968
 20
-2.830834960229792
 30
0.0
 10
13.33131374449703
 20
-2.831523979326841
 30
0.0
 10
13.33131374449703
 20
-2.831523979326841
 30
0.0
 10
13.32717962991473
 20
-2.831523979326841
 30
0.0
 10
13.32717962991473
 20
-2.831523979326841
 30
0.0
 10
13.16801621849619
 20
-2.832212998423891
 30
0.0
 10
13.08860676756118
 20
-2.919029404652187
 30
0.0
 10
13.08929578665823
 20
-3.093006726657304
 30
0.0
 10
13.08929578665823
 20
-3.093006726657304
 30
0.0
 10
13.09876979924267
 20
-5.444628904888843
 30
0.0
 10
13.09876979924267
 20
-5.444628904888843
 30
0.0
 10
13.09928656356546
 20
-5.618261717345435
 30
0.0
 10
13.18007405269456
 20
-5.704733614025206
 30
0.0
 10
13.34078775708147
 20
-5.704044594928156
 30
0.0
 10
13.50270724488821
 20
-5.703700085379631
 30
0.0
 10
13.58332247924306
 20
-5.616194660054285
 30
0.0
 10
13.58263346014601
 20
-5.442906357146218
 30
0.0
 10
13.58263346014601
 20
-5.442906357146218
 30
0.0
 10
13.57333170233583
 20
-3.091284178914679
 30
0.0
 10
13.57333170233583
 20
-3.091284178914679
 30
0.0
  0
HATCH
  5
74
330
6E
100
AcDbEntity
  8
Layer 1
 62
   250
420
  2301728
100
AcDbHatch
 10
0.0
 20
0.0
 30
0.0
210
0.0
220
0.0
230
1.0
  2
SOLID
 70
     1
 71
     0
 91
        2
 92
        1
 93
        1
 72
     4
 94
        3
 73
     0
 74
     1
 95
       23
 96
       19
 40
0.0
 40
0.0
 40
0.0
 40
0.0
 40
1.0
 40
1.0
 40
1.0
 40
2.0
 40
2.0
 40
2.0
 40
3.0
 40
3.0
 40
3.0
 40
4.0
 40
4.0
 40
4.0
 40
5.0
 40
5.0
 40
5.0
 40
6.0
 40
6.0
 40
6.0
 40
6.0
 10
14.13729383327123
 20
-5.440494790306543
 10
14.13936089056238
 20
-5.978274195554043
 10
13.87477755729519
 20
-6.248714191146155
 10
13.34285481437262
 20
-6.250781248437305
 10
12.81248236441841
 20
-6.252848305728455
 10
12.5461764834086
 20
-5.985164386524542
 10
12.54410942611745
 20
-5.446695962179993
 10
12.54410942611745
 20
-5.446695962179993
 10
12.53480766830727
 20
-3.095418293496979
 10
12.53480766830727
 20
-3.095418293496979
 10
12.53256835624186
 20
-2.555916340506855
 10
12.79680717996052
 20
-2.284787325817692
 10
13.32717962991473
 20
-2.282720268526542
 10
13.85893011806305
 20
-2.280653211235392
 10
14.12558050862138
 20
-2.54937065908488
 10
14.12764756591253
 20
-3.089217121623529
 10
14.12764756591253
 20
-3.089217121623529
 10
14.13729383327123
 20
-5.440494790306543
 10
14.13729383327123
 20
-5.440494790306543
 97
        0
 97
        0
 92
        1
 93
        1
 72
     4
 94
        3
 73
     0
 74
     1
 95
       26
 96
       22
 40
0.0
 40
0.0
 40
0.0
 40
0.0
 40
1.0
 40
1.0
 40
1.0
 40
2.0
 40
2.0
 40
2.0
 40
3.0
 40
3.0
 40
3.0
 40
4.0
 40
4.0
 40
4.0
 40
5.0
 40
5.0
 40
5.0
 40
6.0
 40
6.0
 40
6.0
 40
7.0
 40
7.0
 40
7.0
 40
7.0
 10
13.57333170233583
 20
-3.091284178914679
 10
13.57264268323878
 20
-2.917306856909562
 10
13.49185519410968
 20
-2.830834960229792
 10
13.33131374449703
 20
-2.831523979326841
 10
13.33131374449703
 20
-2.831523979326841
 10
13.32717962991473
 20
-2.831523979326841
 10
13.32717962991473
 20
-2.831523979326841
 10
13.16801621849619
 20
-2.832212998423891
 10
13.08860676756118
 20
-2.919029404652187
 10
13.08929578665823
 20
-3.093006726657304
 10
13.08929578665823
 20
-3.093006726657304
 10
13.09876979924267
 20
-5.444628904888843
 10
13.09876979924267
 20
-5.444628904888843
 10
13.09928656356546
 20
-5.618261717345435
 10
13.18007405269456
 20
-5.704733614025206
 10
13.34078775708147
 20
-5.704044594928156
 10
13.50270724488821
 20
-5.703700085379631
 10
13.58332247924306
 20
-5.616194660054285
 10
13.58263346014601
 20
-5.442906357146218
 10
13.58263346014601
 20
-5.442906357146218
 10
13.57333170233583
 20
-3.091284178914679
 10
13.57333170233583
 20
-3.091284178914679
 97
        0
 97
        0
 75
     2
 76
     1
 98
        0
  0
POLYLINE
  5
75
330
6E
100
AcDbEntity
  8
Layer 1
370
     0
100
AcDb2dPolyline
 66
     1
 10
0.0
 20
0.0
 30
0.0
  0
VERTEX
  5
76
330
75
100
AcDbEntity
  8
Layer 1
370
     0
100
AcDbVertex
100
AcDb2dVertex
 10
20.0249620175632
 20
-4.567507594344234
 30
0.0
  0
VERTEX
  5
77
330
75
100
AcDbEntity
  8
Layer 1
370
     0
100
AcDbVertex
100
AcDb2dVertex
 10
18.10466579408494
 20
-7.247791881868608
 30
0.0
  0
VERTEX
  5
78
330
75
100
AcDbEntity
  8
Layer 1
370
     0
100
AcDbVertex
100
AcDb2dVertex
 10
18.52634548147952
 20
-7.550615775022068
 30
0.0
  0
VERTEX
  5
79
330
75
100
AcDbEntity
  8
Layer 1
370
     0
100
AcDbVertex
100
AcDb2dVertex
 10
18.20801865864244
 20
-7.994688583070773
 30
0.0
  0
VERTEX
  5
7A
330
75
100
AcDbEntity
  8
Layer 1
370
     0
100
AcDbVertex
100
AcDb2dVertex
 10
16.91300726573703
 20
-7.066579859344467
 30
0.0
  0
VERTEX
  5
7B
330
75
100
AcDbEntity
  8
Layer 1
370
     0
100
AcDbVertex
100
AcDb2dVertex
 10
17.23167859812264
 20
-6.622507051295762
 30
0.0
  0
VERTEX
  5
7C
330
75
100
AcDbEntity
  8
Layer 1
370
     0
100
AcDbVertex
100
AcDb2dVertex
 10
17.65335828551722
 20
-6.924986434900698
 30
0.0
  0
VERTEX
  5
7D
330
75
100
AcDbEntity
  8
Layer 1
370
     0
100
AcDbVertex
100
AcDb2dVertex
 10
19.25601670525544
 20
-4.688774955425028
 30
0.0
  0
VERTEX
  5
7E
330
75
100
AcDbEntity
  8
Layer 1
370
     0
100
AcDbVertex
100
AcDb2dVertex
 10
18.83433701786086
 20
-4.386295571820093
 30
0.0
  0
VERTEX
  5
7F
330
75
100
AcDbEntity
  8
Layer 1
370
     0
100
AcDbVertex
100
AcDb2dVertex
 10
19.15266384069795
 20
-3.941878254222864
 30
0.0
  0
VERTEX
  5
80
330
75
100
AcDbEntity
  8
Layer 1
370
     0
100
AcDbVertex
100
AcDb2dVertex
 10
20.0249620175632
 20
-4.567507594344234
 30
0.0
  0
SEQEND
  5
81
330
75
100
AcDbEntity
  8
Layer 1
370
     0
  0
HATCH
  5
82
330
6E
100
AcDbEntity
  8
Layer 1
 62
   250
420
  2301728
100
AcDbHatch
 10
0.0
 20
0.0
 30
0.0
210
0.0
220
0.0
230
1.0
  2
SOLID
 70
     1
 71
     0
 91
        1
 92
        1
 93
       10
 72
     1
 10
20.0249620175632
 20
-4.567507594344234
 11
18.10466579408494
 21
-7.247791881868608
 72
     1
 10
18.10466579408494
 20
-7.247791881868608
 11
18.52634548147952
 21
-7.550615775022068
 72
     1
 10
18.52634548147952
 20
-7.550615775022068
 11
18.20801865864244
 21
-7.994688583070773
 72
     1
 10
18.20801865864244
 20
-7.994688583070773
 11
16.91300726573703
 21
-7.066579859344467
 72
     1
 10
16.91300726573703
 20
-7.066579859344467
 11
17.23167859812264
 21
-6.622507051295762
 72
     1
 10
17.23167859812264
 20
-6.622507051295762
 11
17.65335828551722
 21
-6.924986434900698
 72
     1
 10
17.65335828551722
 20
-6.924986434900698
 11
19.25601670525544
 21
-4.688774955425028
 72
     1
 10
19.25601670525544
 20
-4.688774955425028
 11
18.83433701786086
 21
-4.386295571820093
 72
     1
 10
18.83433701786086
 20
-4.386295571820093
 11
19.15266384069795
 21
-3.941878254222864
 72
     1
 10
19.15266384069795
 20
-3.941878254222864
 11
20.0249620175632
 21
-4.567507594344234
 97
        0
 75
     2
 76
     1
 98
        0
  0
SPLINE
  5
83
330
6E
100
AcDbEntity
  8
Layer 1
370
     0
100
AcDbSpline
210
0.0
220
0.0
230
1.0
 70
    11
 71
     3
 72
    62
 73
    58
 74
     0
 42
0.0000000001
 43
0.0000000001
 12
1.0
 22
0.0
 32
0.0
 13
1.0
 23
0.0
 33
0.0
 40
0.0
 40
0.0
 40
0.0
 40
0.0
 40
1.0
 40
1.0
 40
1.0
 40
2.0
 40
2.0
 40
2.0
 40
3.0
 40
3.0
 40
3.0
 40
4.0
 40
4.0
 40
4.0
 40
5.0
 40
5.0
 40
5.0
 40
6.0
 40
6.0
 40
6.0
 40
7.0
 40
7.0
 40
7.0
 40
8.0
 40
8.0
 40
8.0
 40
9.0
 40
9.0
 40
9.0
 40
10.0
 40
10.0
 40
10.0
 40
11.0
 40
11.0
 40
11.0
 40
12.0
 40
12.0
 40
12.0
 40
13.0
 40
13.0
 40
13.0
 40
14.0
 40
14.0
 40
14.0
 40
15.0
 40
15.0
 40
15.0
 40
16.0
 40
16.0
 40
16.0
 40
17.0
 40
17.0
 40
17.0
 40
18.0
 40
18.0
 40
18.0
 40
19.0
 40
19.0
 40
19.0
 40
19.0
 10
20.72224934377777
 20
-10.07897135164692
 30
0.0
 10
21.05056694352208
 20
-9.968728296118929
 30
0.0
 10
21.38646375333394
 20
-10.03831922492098
 30
0.0
 10
21.73028428276188
 20
-10.28705511895602
 30
0.0
 10
22.07410481218981
 20
-10.5364800320881
 30
0.0
 10
22.32835285900125
 20
-10.63500976296625
 30
0.0
 10
22.49233940409914
 20
-10.58126627339635
 30
0.0
 10
22.49233940409914
 20
-10.58126627339635
 30
0.0
 10
23.20754122683701
 20
-10.34183213717149
 30
0.0
 10
23.20754122683701
 20
-10.34183213717149
 30
0.0
 10
23.37221679103195
 20
-10.28636609985896
 30
0.0
 10
23.42940537608709
 20
-10.18301323530147
 30
0.0
 10
23.37876247245392
 20
-10.031773543499
 30
0.0
 10
23.37876247245392
 20
-10.031773543499
 30
0.0
 10
23.37772894380835
 20
-10.02798393846523
 30
0.0
 10
23.37772894380835
 20
-10.02798393846523
 30
0.0
 10
23.3260525115296
 20
-9.875710718017183
 30
0.0
 10
23.2185655323898
 20
-9.827479381223686
 30
0.0
 10
23.05388996819486
 20
-9.882600908987683
 30
0.0
 10
23.05388996819486
 20
-9.882600908987683
 30
0.0
 10
22.56537542838644
 20
-10.04624294453705
 30
0.0
 10
22.56537542838644
 20
-10.04624294453705
 30
0.0
 10
22.56537542838644
 20
-10.04624294453705
 30
0.0
 10
22.38898653954164
 20
-9.52086588303645
 30
0.0
 10
22.38898653954164
 20
-9.52086588303645
 30
0.0
 10
22.38898653954164
 20
-9.52086588303645
 30
0.0
 10
22.87750107935007
 20
-9.356879337938558
 30
0.0
 10
22.87750107935007
 20
-9.356879337938558
 30
0.0
 10
23.38909775890967
 20
-9.185313582773116
 30
0.0
 10
23.72912868330383
 20
-9.351022675613633
 30
0.0
 10
23.89759385253255
 20
-9.85400661646011
 30
0.0
 10
24.06674804085831
 20
-10.35836859550069
 30
0.0
 10
23.89518228569287
 20
-10.69598795305517
 30
0.0
 10
23.3839301156818
 20
-10.86755370822061
 30
0.0
 10
23.3839301156818
 20
-10.86755370822061
 30
0.0
 10
22.65529242055145
 20
-11.11181097812483
 30
0.0
 10
22.65529242055145
 20
-11.11181097812483
 30
0.0
 10
22.3207736489337
 20
-11.22377658139544
 30
0.0
 10
21.98108723408806
 20
-11.15487467169045
 30
0.0
 10
21.63588866646603
 20
-10.90579426810688
 30
0.0
 10
21.29137911794104
 20
-10.65568033587775
 30
0.0
 10
21.03092989925616
 20
-10.56059570048485
 30
0.0
 10
20.85385199131431
 20
-10.61985134283115
 30
0.0
 10
20.85385199131431
 20
-10.61985134283115
 30
0.0
 10
20.63474391845243
 20
-10.69323187666697
 30
0.0
 10
20.63474391845243
 20
-10.69323187666697
 30
0.0
 10
20.63474391845243
 20
-10.69323187666697
 30
0.0
 10
20.96478406593936
 20
-11.6781846758999
 30
0.0
 10
20.96478406593936
 20
-11.6781846758999
 30
0.0
 10
20.96478406593936
 20
-11.6781846758999
 30
0.0
 10
20.44595268586074
 20
-11.85181748835649
 30
0.0
 10
20.44595268586074
 20
-11.85181748835649
 30
0.0
 10
20.44595268586074
 20
-11.85181748835649
 30
0.0
 10
19.94021266862606
 20
-10.34079860852591
 30
0.0
 10
19.94021266862606
 20
-10.34079860852591
 30
0.0
 10
19.94021266862606
 20
-10.34079860852591
 30
0.0
 10
20.72224934377777
 20
-10.07897135164692
 30
0.0
 10
20.72224934377777
 20
-10.07897135164692
 30
0.0
  0
HATCH
  5
84
330
6E
100
AcDbEntity
  8
Layer 1
 62
   250
420
  2301728
100
AcDbHatch
 10
0.0
 20
0.0
 30
0.0
210
0.0
220
0.0
230
1.0
  2
SOLID
 70
     1
 71
     0
 91
        1
 92
        1
 93
        1
 72
     4
 94
        3
 73
     0
 74
     1
 95
       62
 96
       58
 40
0.0
 40
0.0
 40
0.0
 40
0.0
 40
1.0
 40
1.0
 40
1.0
 40
2.0
 40
2.0
 40
2.0
 40
3.0
 40
3.0
 40
3.0
 40
4.0
 40
4.0
 40
4.0
 40
5.0
 40
5.0
 40
5.0
 40
6.0
 40
6.0
 40
6.0
 40
7.0
 40
7.0
 40
7.0
 40
8.0
 40
8.0
 40
8.0
 40
9.0
 40
9.0
 40
9.0
 40
10.0
 40
10.0
 40
10.0
 40
11.0
 40
11.0
 40
11.0
 40
12.0
 40
12.0
 40
12.0
 40
13.0
 40
13.0
 40
13.0
 40
14.0
 40
14.0
 40
14.0
 40
15.0
 40
15.0
 40
15.0
 40
16.0
 40
16.0
 40
16.0
 40
17.0
 40
17.0
 40
17.0
 40
18.0
 40
18.0
 40
18.0
 40
19.0
 40
19.0
 40
19.0
 40
19.0
 10
20.72224934377777
 20
-10.07897135164692
 10
21.05056694352208
 20
-9.968728296118929
 10
21.38646375333394
 20
-10.03831922492098
 10
21.73028428276188
 20
-10.28705511895602
 10
22.07410481218981
 20
-10.5364800320881
 10
22.32835285900125
 20
-10.63500976296625
 10
22.49233940409914
 20
-10.58126627339635
 10
22.49233940409914
 20
-10.58126627339635
 10
23.20754122683701
 20
-10.34183213717149
 10
23.20754122683701
 20
-10.34183213717149
 10
23.37221679103195
 20
-10.28636609985896
 10
23.42940537608709
 20
-10.18301323530147
 10
23.37876247245392
 20
-10.031773543499
 10
23.37876247245392
 20
-10.031773543499
 10
23.37772894380835
 20
-10.02798393846523
 10
23.37772894380835
 20
-10.02798393846523
 10
23.3260525115296
 20
-9.875710718017183
 10
23.2185655323898
 20
-9.827479381223686
 10
23.05388996819486
 20
-9.882600908987683
 10
23.05388996819486
 20
-9.882600908987683
 10
22.56537542838644
 20
-10.04624294453705
 10
22.56537542838644
 20
-10.04624294453705
 10
22.56537542838644
 20
-10.04624294453705
 10
22.38898653954164
 20
-9.52086588303645
 10
22.38898653954164
 20
-9.52086588303645
 10
22.38898653954164
 20
-9.52086588303645
 10
22.87750107935007
 20
-9.356879337938558
 10
22.87750107935007
 20
-9.356879337938558
 10
23.38909775890967
 20
-9.185313582773116
 10
23.72912868330383
 20
-9.351022675613633
 10
23.89759385253255
 20
-9.85400661646011
 10
24.06674804085831
 20
-10.35836859550069
 10
23.89518228569287
 20
-10.69598795305517
 10
23.3839301156818
 20
-10.86755370822061
 10
23.3839301156818
 20
-10.86755370822061
 10
22.65529242055145
 20
-11.11181097812483
 10
22.65529242055145
 20
-11.11181097812483
 10
22.3207736489337
 20
-11.22377658139544
 10
21.98108723408806
 20
-11.15487467169045
 10
21.63588866646603
 20
-10.90579426810688
 10
21.29137911794104
 20
-10.65568033587775
 10
21.03092989925616
 20
-10.56059570048485
 10
20.85385199131431
 20
-10.61985134283115
 10
20.85385199131431
 20
-10.61985134283115
 10
20.63474391845243
 20
-10.69323187666697
 10
20.63474391845243
 20
-10.69323187666697
 10
20.63474391845243
 20
-10.69323187666697
 10
20.96478406593936
 20
-11.6781846758999
 10
20.96478406593936
 20
-11.6781846758999
 10
20.96478406593936
 20
-11.6781846758999
 10
20.44595268586074
 20
-11.85181748835649
 10
20.44595268586074
 20
-11.85181748835649
 10
20.44595268586074
 20
-11.85181748835649
 10
19.94021266862606
 20
-10.34079860852591
 10
19.94021266862606
 20
-10.34079860852591
 10
19.94021266862606
 20
-10.34079860852591
 10
20.72224934377777
 20
-10.07897135164692
 10
20.72224934377777
 20
-10.07897135164692
 97
        0
 97
        0
 75
     2
 76
     1
 98
        0
  0
SPLINE
  5
85
330
6E
100
AcDbEntity
  8
Layer 1
370
     0
100
AcDbSpline
210
0.0
220
0.0
230
1.0
 70
    11
 71
     3
 72
    92
 73
    88
 74
     0
 42
0.0000000001
 43
0.0000000001
 12
1.0
 22
0.0
 32
0.0
 13
1.0
 23
0.0
 33
0.0
 40
0.0
 40
0.0
 40
0.0
 40
0.0
 40
1.0
 40
1.0
 40
1.0
 40
2.0
 40
2.0
 40
2.0
 40
3.0
 40
3.0
 40
3.0
 40
4.0
 40
4.0
 40
4.0
 40
5.0
 40
5.0
 40
5.0
 40
6.0
 40
6.0
 40
6.0
 40
7.0
 40
7.0
 40
7.0
 40
8.0
 40
8.0
 40
8.0
 40
9.0
 40
9.0
 40
9.0
 40
10.0
 40
10.0
 40
10.0
 40
11.0
 40
11.0
 40
11.0
 40
12.0
 40
12.0
 40
12.0
 40
13.0
 40
13.0
 40
13.0
 40
14.0
 40
14.0
 40
14.0
 40
15.0
 40
15.0
 40
15.0
 40
16.0
 40
16.0
 40
16.0
 40
17.0
 40
17.0
 40
17.0
 40
18.0
 40
18.0
 40
18.0
 40
19.0
 40
19.0
 40
19.0
 40
20.0
 40
20.0
 40
20.0
 40
21.0
 40
21.0
 40
21.0
 40
22.0
 40
22.0
 40
22.0
 40
23.0
 40
23.0
 40
23.0
 40
24.0
 40
24.0
 40
24.0
 40
25.0
 40
25.0
 40
25.0
 40
26.0
 40
26.0
 40
26.0
 40
27.0
 40
27.0
 40
27.0
 40
28.0
 40
28.0
 40
28.0
 40
29.0
 40
29.0
 40
29.0
 40
29.0
 10
23.10901149595886
 20
-16.70423447933089
 30
0.0
 10
23.2736870601538
 20
-16.75625542115816
 30
0.0
 10
23.38048502019655
 20
-16.70561251752499
 30
0.0
 10
23.43009439518415
 20
-16.55299478752842
 30
0.0
 10
23.43009439518415
 20
-16.55299478752842
 30
0.0
 10
23.43147243337824
 20
-16.54886067294612
 30
0.0
 10
23.43147243337824
 20
-16.54886067294612
 30
0.0
 10
23.47901475107469
 20
-16.39727647159513
 30
0.0
 10
23.42044812782544
 20
-16.29495713568321
 30
0.0
 10
23.25473903498493
 20
-16.24259168430741
 30
0.0
 10
23.25473903498493
 20
-16.24259168430741
 30
0.0
 10
22.76312390923978
 20
-16.08756238747117
 30
0.0
 10
22.76312390923978
 20
-16.08756238747117
 30
0.0
 10
22.76312390923978
 20
-16.08756238747117
 30
0.0
 10
22.92986653072587
 20
-15.55874023048532
 30
0.0
 10
22.92986653072587
 20
-15.55874023048532
 30
0.0
 10
22.92986653072587
 20
-15.55874023048532
 30
0.0
 10
23.42182616601955
 20
-15.71411403687008
 30
0.0
 10
23.42182616601955
 20
-15.71411403687008
 30
0.0
 10
23.93445637422472
 20
-15.8756890151283
 30
0.0
 10
24.11153428216656
 20
-16.20986327719753
 30
0.0
 10
23.95202636119949
 20
-16.71560329443221
 30
0.0
 10
23.79251844023243
 20
-17.22272134986099
 30
0.0
 10
23.45558810177499
 20
-17.39497612412348
 30
0.0
 10
22.94226887447277
 20
-17.23305663631674
 30
0.0
 10
22.94226887447277
 20
-17.23305663631674
 30
0.0
 10
22.30492620970155
 20
-17.03220756952667
 30
0.0
 10
22.30492620970155
 20
-17.03220756952667
 30
0.0
 10
22.06445854483111
 20
-16.9567599783997
 30
0.0
 10
21.92527668722702
 20
-16.80620930569428
 30
0.0
 10
21.88600259869517
 20
-16.58158908005599
 30
0.0
 10
21.72546114908252
 20
-16.74350856786273
 30
0.0
 10
21.52495659184098
 20
-16.78657226142836
 30
0.0
 10
21.28448892697055
 20
-16.71043565120434
 30
0.0
 10
21.28448892697055
 20
-16.71043565120434
 30
0.0
 10
20.69951171357512
 20
-16.52612304274347
 30
0.0
 10
20.69951171357512
 20
-16.52612304274347
 30
0.0
 10
20.1861924862729
 20
-16.3638590453882
 30
0.0
 10
20.00980359742811
 20
-16.02968478331897
 30
0.0
 10
20.1696560279437
 20
-15.52256672789019
 30
0.0
 10
20.32916394891076
 20
-15.01682671065552
 30
0.0
 10
20.66574977781967
 20
-14.84491644594155
 30
0.0
 10
21.1790690051219
 20
-15.00683593374829
 30
0.0
 10
21.1790690051219
 20
-15.00683593374829
 30
0.0
 10
21.67033962131853
 20
-15.16186523058454
 30
0.0
 10
21.67033962131853
 20
-15.16186523058454
 30
0.0
 10
21.67033962131853
 20
-15.16186523058454
 30
0.0
 10
21.50359699983244
 20
-15.69034287802186
 30
0.0
 10
21.50359699983244
 20
-15.69034287802186
 30
0.0
 10
21.50359699983244
 20
-15.69034287802186
 30
0.0
 10
21.01232638363581
 20
-15.53531358118562
 30
0.0
 10
21.01232638363581
 20
-15.53531358118562
 30
0.0
 10
20.84627278124677
 20
-15.48294812980982
 30
0.0
 10
20.73947482120402
 20
-15.53290201434594
 30
0.0
 10
20.69158799395905
 20
-15.68483072524546
 30
0.0
 10
20.69158799395905
 20
-15.68483072524546
 30
0.0
 10
20.69055446531347
 20
-15.68862033027924
 30
0.0
 10
20.69055446531347
 20
-15.68862033027924
 30
0.0
 10
20.64335665716555
 20
-15.84227158892138
 30
0.0
 10
20.70226778996332
 20
-15.94493543438182
 30
0.0
 10
20.86625433506121
 20
-15.99695637620909
 30
0.0
 10
20.86625433506121
 20
-15.99695637620909
 30
0.0
 10
21.45157605800516
 20
-16.18161349421849
 30
0.0
 10
21.45157605800516
 20
-16.18161349421849
 30
0.0
 10
21.58490125328433
 20
-16.22364365913853
 30
0.0
 10
21.6727511881582
 20
-16.22054307320181
 30
0.0
 10
21.71512586262677
 20
-16.17196722685979
 30
0.0
 10
21.73717447373237
 20
-16.14647352026894
 30
0.0
 10
21.75784504664387
 20
-16.10237629805774
 30
0.0
 10
21.77782660045832
 20
-16.04002006977472
 30
0.0
 10
21.77782660045832
 20
-16.04002006977472
 30
0.0
 10
21.83225910912527
 20
-15.8660427477696
 30
0.0
 10
21.83225910912527
 20
-15.8660427477696
 30
0.0
 10
21.83225910912527
 20
-15.8660427477696
 30
0.0
 10
22.3538465655921
 20
-16.03037380241602
 30
0.0
 10
22.3538465655921
 20
-16.03037380241602
 30
0.0
 10
22.3538465655921
 20
-16.03037380241602
 30
0.0
 10
22.28597818453267
 20
-16.24534776069561
 30
0.0
 10
22.28597818453267
 20
-16.24534776069561
 30
0.0
 10
22.27047525484905
 20
-16.29530164523173
 30
0.0
 10
22.26599663071822
 20
-16.33492024331211
 30
0.0
 10
22.27323133123725
 20
-16.36454806448525
 30
0.0
 10
22.2849446558871
 20
-16.4189805731522
 30
0.0
 10
22.35212401784947
 20
-16.4658338717516
 30
0.0
 10
22.47511392667289
 20
-16.50476345073492
 30
0.0
 10
22.47511392667289
 20
-16.50476345073492
 30
0.0
 10
23.10901149595886
 20
-16.70423447933089
 30
0.0
 10
23.10901149595886
 20
-16.70423447933089
 30
0.0
  0
HATCH
  5
86
330
6E
100
AcDbEntity
  8
Layer 1
 62
   250
420
  2301728
100
AcDbHatch
 10
0.0
 20
0.0
 30
0.0
210
0.0
220
0.0
230
1.0
  2
SOLID
 70
     1
 71
     0
 91
        1
 92
        1
 93
        1
 72
     4
 94
        3
 73
     0
 74
     1
 95
       92
 96
       88
 40
0.0
 40
0.0
 40
0.0
 40
0.0
 40
1.0
 40
1.0
 40
1.0
 40
2.0
 40
2.0
 40
2.0
 40
3.0
 40
3.0
 40
3.0
 40
4.0
 40
4.0
 40
4.0
 40
5.0
 40
5.0
 40
5.0
 40
6.0
 40
6.0
 40
6.0
 40
7.0
 40
7.0
 40
7.0
 40
8.0
 40
8.0
 40
8.0
 40
9.0
 40
9.0
 40
9.0
 40
10.0
 40
10.0
 40
10.0
 40
11.0
 40
11.0
 40
11.0
 40
12.0
 40
12.0
 40
12.0
 40
13.0
 40
13.0
 40
13.0
 40
14.0
 40
14.0
 40
14.0
 40
15.0
 40
15.0
 40
15.0
 40
16.0
 40
16.0
 40
16.0
 40
17.0
 40
17.0
 40
17.0
 40
18.0
 40
18.0
 40
18.0
 40
19.0
 40
19.0
 40
19.0
 40
20.0
 40
20.0
 40
20.0
 40
21.0
 40
21.0
 40
21.0
 40
22.0
 40
22.0
 40
22.0
 40
23.0
 40
23.0
 40
23.0
 40
24.0
 40
24.0
 40
24.0
 40
25.0
 40
25.0
 40
25.0
 40
26.0
 40
26.0
 40
26.0
 40
27.0
 40
27.0
 40
27.0
 40
28.0
 40
28.0
 40
28.0
 40
29.0
 40
29.0
 40
29.0
 40
29.0
 10
23.10901149595886
 20
-16.70423447933089
 10
23.2736870601538
 20
-16.75625542115816
 10
23.38048502019655
 20
-16.70561251752499
 10
23.43009439518415
 20
-16.55299478752842
 10
23.43009439518415
 20
-16.55299478752842
 10
23.43147243337824
 20
-16.54886067294612
 10
23.43147243337824
 20
-16.54886067294612
 10
23.47901475107469
 20
-16.39727647159513
 10
23.42044812782544
 20
-16.29495713568321
 10
23.25473903498493
 20
-16.24259168430741
 10
23.25473903498493
 20
-16.24259168430741
 10
22.76312390923978
 20
-16.08756238747117
 10
22.76312390923978
 20
-16.08756238747117
 10
22.76312390923978
 20
-16.08756238747117
 10
22.92986653072587
 20
-15.55874023048532
 10
22.92986653072587
 20
-15.55874023048532
 10
22.92986653072587
 20
-15.55874023048532
 10
23.42182616601955
 20
-15.71411403687008
 10
23.42182616601955
 20
-15.71411403687008
 10
23.93445637422472
 20
-15.8756890151283
 10
24.11153428216656
 20
-16.20986327719753
 10
23.95202636119949
 20
-16.71560329443221
 10
23.79251844023243
 20
-17.22272134986099
 10
23.45558810177499
 20
-17.39497612412348
 10
22.94226887447277
 20
-17.23305663631674
 10
22.94226887447277
 20
-17.23305663631674
 10
22.30492620970155
 20
-17.03220756952667
 10
22.30492620970155
 20
-17.03220756952667
 10
22.06445854483111
 20
-16.9567599783997
 10
21.92527668722702
 20
-16.80620930569428
 10
21.88600259869517
 20
-16.58158908005599
 10
21.72546114908252
 20
-16.74350856786273
 10
21.52495659184098
 20
-16.78657226142836
 10
21.28448892697055
 20
-16.71043565120434
 10
21.28448892697055
 20
-16.71043565120434
 10
20.69951171357512
 20
-16.52612304274347
 10
20.69951171357512
 20
-16.52612304274347
 10
20.1861924862729
 20
-16.3638590453882
 10
20.00980359742811
 20
-16.02968478331897
 10
20.1696560279437
 20
-15.52256672789019
 10
20.32916394891076
 20
-15.01682671065552
 10
20.66574977781967
 20
-14.84491644594155
 10
21.1790690051219
 20
-15.00683593374829
 10
21.1790690051219
 20
-15.00683593374829
 10
21.67033962131853
 20
-15.16186523058454
 10
21.67033962131853
 20
-15.16186523058454
 10
21.67033962131853
 20
-15.16186523058454
 10
21.50359699983244
 20
-15.69034287802186
 10
21.50359699983244
 20
-15.69034287802186
 10
21.50359699983244
 20
-15.69034287802186
 10
21.01232638363581
 20
-15.53531358118562
 10
21.01232638363581
 20
-15.53531358118562
 10
20.84627278124677
 20
-15.48294812980982
 10
20.73947482120402
 20
-15.53290201434594
 10
20.69158799395905
 20
-15.68483072524546
 10
20.69158799395905
 20
-15.68483072524546
 10
20.69055446531347
 20
-15.68862033027924
 10
20.69055446531347
 20
-15.68862033027924
 10
20.64335665716555
 20
-15.84227158892138
 10
20.70226778996332
 20
-15.94493543438182
 10
20.86625433506121
 20
-15.99695637620909
 10
20.86625433506121
 20
-15.99695637620909
 10
21.45157605800516
 20
-16.18161349421849
 10
21.45157605800516
 20
-16.18161349421849
 10
21.58490125328433
 20
-16.22364365913853
 10
21.6727511881582
 20
-16.22054307320181
 10
21.71512586262677
 20
-16.17196722685979
 10
21.73717447373237
 20
-16.14647352026894
 10
21.75784504664387
 20
-16.10237629805774
 10
21.77782660045832
 20
-16.04002006977472
 10
21.77782660045832
 20
-16.04002006977472
 10
21.83225910912527
 20
-15.8660427477696
 10
21.83225910912527
 20
-15.8660427477696
 10
21.83225910912527
 20
-15.8660427477696
 10
22.3538465655921
 20
-16.03037380241602
 10
22.3538465655921
 20
-16.03037380241602
 10
22.3538465655921
 20
-16.03037380241602
 10
22.28597818453267
 20
-16.24534776069561
 10
22.28597818453267
 20
-16.24534776069561
 10
22.27047525484905
 20
-16.29530164523173
 10
22.26599663071822
 20
-16.33492024331211
 10
22.27323133123725
 20
-16.36454806448525
 10
22.2849446558871
 20
-16.4189805731522
 10
22.35212401784947
 20
-16.4658338717516
 10
22.47511392667289
 20
-16.50476345073492
 10
22.47511392667289
 20
-16.50476345073492
 10
23.10901149595886
 20
-16.70423447933089
 10
23.10901149595886
 20
-16.70423447933089
 97
        0
 97
        0
 75
     2
 76
     1
 98
        0
  0
POLYLINE
  5
87
330
6E
100
AcDbEntity
  8
Layer 1
370
     0
100
AcDb2dPolyline
 66
     1
 10
0.0
 20
0.0
 30
0.0
  0
VERTEX
  5
88
330
87
100
AcDbEntity
  8
Layer 1
370
     0
100
AcDbVertex
100
AcDb2dVertex
 10
19.34765624516309
 20
-22.67251789797771
 30
0.0
  0
VERTEX
  5
89
330
87
100
AcDbEntity
  8
Layer 1
370
     0
100
AcDbVertex
100
AcDb2dVertex
 10
17.84903970907941
 20
-20.64439018581113
 30
0.0
  0
VERTEX
  5
8A
330
87
100
AcDbEntity
  8
Layer 1
370
     0
100
AcDbVertex
100
AcDb2dVertex
 10
17.67678493481692
 20
-20.77185871876537
 30
0.0
  0
VERTEX
  5
8B
330
87
100
AcDbEntity
  8
Layer 1
370
     0
100
AcDbVertex
100
AcDb2dVertex
 10
17.35225694010638
 20
-20.33192002529897
 30
0.0
  0
VERTEX
  5
8C
330
87
100
AcDbEntity
  8
Layer 1
370
     0
100
AcDbVertex
100
AcDb2dVertex
 10
17.52382269527182
 20
-20.20514051144177
 30
0.0
  0
VERTEX
  5
8D
330
87
100
AcDbEntity
  8
Layer 1
370
     0
100
AcDbVertex
100
AcDb2dVertex
 10
17.06286891934539
 20
-19.58123371906303
 30
0.0
  0
VERTEX
  5
8E
330
87
100
AcDbEntity
  8
Layer 1
370
     0
100
AcDbVertex
100
AcDb2dVertex
 10
17.50866427513672
 20
-19.25153808112461
 30
0.0
  0
VERTEX
  5
8F
330
87
100
AcDbEntity
  8
Layer 1
370
     0
100
AcDbVertex
100
AcDb2dVertex
 10
17.96996256061168
 20
-19.87544487350336
 30
0.0
  0
VERTEX
  5
90
330
87
100
AcDbEntity
  8
Layer 1
370
     0
100
AcDbVertex
100
AcDb2dVertex
 10
18.87430012548976
 20
-19.20675183981637
 30
0.0
  0
VERTEX
  5
91
330
87
100
AcDbEntity
  8
Layer 1
370
     0
100
AcDbVertex
100
AcDb2dVertex
 10
19.1629991271537
 20
-19.59811468694075
 30
0.0
  0
VERTEX
  5
92
330
87
100
AcDbEntity
  8
Layer 1
370
     0
100
AcDbVertex
100
AcDb2dVertex
 10
19.91678601932636
 20
-22.25221624877722
 30
0.0
  0
VERTEX
  5
93
330
87
100
AcDbEntity
  8
Layer 1
370
     0
100
AcDbVertex
100
AcDb2dVertex
 10
19.34765624516309
 20
-22.67251789797771
 30
0.0
  0
SEQEND
  5
94
330
87
100
AcDbEntity
  8
Layer 1
370
     0
  0
POLYLINE
  5
95
330
6E
100
AcDbEntity
  8
Layer 1
370
     0
100
AcDb2dPolyline
 66
     1
 10
0.0
 20
0.0
 30
0.0
  0
VERTEX
  5
96
330
95
100
AcDbEntity
  8
Layer 1
370
     0
100
AcDbVertex
100
AcDb2dVertex
 10
18.75957844583094
 20
-19.97156303754183
 30
0.0
  0
VERTEX
  5
97
330
95
100
AcDbEntity
  8
Layer 1
370
     0
100
AcDbVertex
100
AcDb2dVertex
 10
18.29483506487074
 20
-20.31503905742124
 30
0.0
  0
VERTEX
  5
98
330
95
100
AcDbEntity
  8
Layer 1
370
     0
100
AcDbVertex
100
AcDb2dVertex
 10
19.26600748216267
 20
-21.62934298504405
 30
0.0
  0
VERTEX
  5
99
330
95
100
AcDbEntity
  8
Layer 1
370
     0
100
AcDbVertex
100
AcDb2dVertex
 10
18.75957844583094
 20
-19.97156303754183
 30
0.0
  0
SEQEND
  5
9A
330
95
100
AcDbEntity
  8
Layer 1
370
     0
  0
HATCH
  5
9B
330
6E
100
AcDbEntity
  8
Layer 1
 62
   250
420
  2301728
100
AcDbHatch
 10
0.0
 20
0.0
 30
0.0
210
0.0
220
0.0
230
1.0
  2
SOLID
 70
     1
 71
     0
 91
        2
 92
        1
 93
       11
 72
     1
 10
19.34765624516309
 20
-22.67251789797771
 11
17.84903970907941
 21
-20.64439018581113
 72
     1
 10
17.84903970907941
 20
-20.64439018581113
 11
17.67678493481692
 21
-20.77185871876537
 72
     1
 10
17.67678493481692
 20
-20.77185871876537
 11
17.35225694010638
 21
-20.33192002529897
 72
     1
 10
17.35225694010638
 20
-20.33192002529897
 11
17.52382269527182
 21
-20.20514051144177
 72
     1
 10
17.52382269527182
 20
-20.20514051144177
 11
17.06286891934539
 21
-19.58123371906303
 72
     1
 10
17.06286891934539
 20
-19.58123371906303
 11
17.50866427513672
 21
-19.25153808112461
 72
     1
 10
17.50866427513672
 20
-19.25153808112461
 11
17.96996256061168
 21
-19.87544487350336
 72
     1
 10
17.96996256061168
 20
-19.87544487350336
 11
18.87430012548976
 21
-19.20675183981637
 72
     1
 10
18.87430012548976
 20
-19.20675183981637
 11
19.1629991271537
 21
-19.59811468694075
 72
     1
 10
19.1629991271537
 20
-19.59811468694075
 11
19.91678601932636
 21
-22.25221624877722
 72
     1
 10
19.91678601932636
 20
-22.25221624877722
 11
19.34765624516309
 21
-22.67251789797771
 97
        0
 92
        1
 93
        3
 72
     1
 10
18.75957844583094
 20
-19.97156303754183
 11
18.29483506487074
 21
-20.31503905742124
 72
     1
 10
18.29483506487074
 20
-20.31503905742124
 11
19.26600748216267
 21
-21.62934298504405
 72
     1
 10
19.26600748216267
 20
-21.62934298504405
 11
18.75957844583094
 21
-19.97156303754183
 97
        0
 75
     2
 76
     1
 98
        0
  0
SPLINE
  5
9C
330
6E
100
AcDbEntity
  8
Layer 1
370
     0
100
AcDbSpline
210
0.0
220
0.0
230
1.0
 70
    11
 71
     3
 72
    80
 73
    76
 74
     0
 42
0.0000000001
 43
0.0000000001
 12
1.0
 22
0.0
 32
0.0
 13
1.0
 23
0.0
 33
0.0
 40
0.0
 40
0.0
 40
0.0
 40
0.0
 40
1.0
 40
1.0
 40
1.0
 40
2.0
 40
2.0
 40
2.0
 40
3.0
 40
3.0
 40
3.0
 40
4.0
 40
4.0
 40
4.0
 40
5.0
 40
5.0
 40
5.0
 40
6.0
 40
6.0
 40
6.0
 40
7.0
 40
7.0
 40
7.0
 40
8.0
 40
8.0
 40
8.0
 40
9.0
 40
9.0
 40
9.0
 40
10.0
 40
10.0
 40
10.0
 40
11.0
 40
11.0
 40
11.0
 40
12.0
 40
12.0
 40
12.0
 40
13.0
 40
13.0
 40
13.0
 40
14.0
 40
14.0
 40
14.0
 40
15.0
 40
15.0
 40
15.0
 40
16.0
 40
16.0
 40
16.0
 40
17.0
 40
17.0
 40
17.0
 40
18.0
 40
18.0
 40
18.0
 40
19.0
 40
19.0
 40
19.0
 40
20.0
 40
20.0
 40
20.0
 40
21.0
 40
21.0
 40
21.0
 40
22.0
 40
22.0
 40
22.0
 40
23.0
 40
23.0
 40
23.0
 40
24.0
 40
24.0
 40
24.0
 40
25.0
 40
25.0
 40
25.0
 40
25.0
 10
13.21073540251329
 20
-22.39415418276952
 30
0.0
 10
13.2115966763846
 20
-22.52989094488836
 30
0.0
 10
13.24087998800922
 20
-22.61050617924321
 30
0.0
 10
13.29858533738716
 20
-22.63496635718848
 30
0.0
 10
13.32993570630293
 20
-22.649091248678
 30
0.0
 10
13.38023410038758
 20
-22.65563693009998
 30
0.0
 10
13.4494805196411
 20
-22.65529242055145
 30
0.0
 10
13.46653374229309
 20
-22.65494791100293
 30
0.0
 10
13.48427598404213
 20
-22.65425889190588
 30
0.0
 10
13.50236273533969
 20
-22.65288085371178
 30
0.0
 10
13.6148451029331
 20
-22.64667968183833
 30
0.0
 10
13.67702907644185
 20
-22.59638128775368
 30
0.0
 10
13.68943142018875
 20
-22.50095214281226
 30
0.0
 10
13.68943142018875
 20
-22.50095214281226
 30
0.0
 10
13.6942545538681
 20
-22.34592284597602
 30
0.0
 10
13.6942545538681
 20
-22.34592284597602
 30
0.0
 10
13.6942545538681
 20
-22.34592284597602
 30
0.0
 10
14.24891492699333
 20
-22.34213324094225
 30
0.0
 10
14.24891492699333
 20
-22.34213324094225
 30
0.0
 10
14.24891492699333
 20
-22.34213324094225
 30
0.0
 10
14.18070203638538
 20
-24.39403211195705
 30
0.0
 10
14.18070203638538
 20
-24.39403211195705
 30
0.0
 10
14.18070203638538
 20
-24.39403211195705
 30
0.0
 10
12.67002766610333
 20
-24.40505641750985
 30
0.0
 10
12.67002766610333
 20
-24.40505641750985
 30
0.0
 10
12.67002766610333
 20
-24.40505641750985
 30
0.0
 10
12.66623806106955
 20
-23.85797525445217
 30
0.0
 10
12.66623806106955
 20
-23.85797525445217
 30
0.0
 10
12.66623806106955
 20
-23.85797525445217
 30
0.0
 10
13.64395615978346
 20
-23.85108506348167
 30
0.0
 10
13.64395615978346
 20
-23.85108506348167
 30
0.0
 10
13.64395615978346
 20
-23.85108506348167
 30
0.0
 10
13.67737358599038
 20
-23.02426214702171
 30
0.0
 10
13.67737358599038
 20
-23.02426214702171
 30
0.0
 10
13.58418375311437
 20
-23.13312716435561
 30
0.0
 10
13.45654296538586
 20
-23.1882486921196
 30
0.0
 10
13.29445122280486
 20
-23.18962673031371
 30
0.0
 10
13.27240261169926
 20
-23.18962673031371
 30
0.0
 10
13.24966498149661
 20
-23.1882486921196
 30
0.0
 10
13.22606607742265
 20
-23.18618163482845
 30
0.0
 10
13.03245171115161
 20
-23.17033419559631
 30
0.0
 10
12.88500162438292
 20
-23.09350856627524
 30
0.0
 10
12.78337130756805
 20
-22.95570474686524
 30
0.0
 10
12.70034450637353
 20
-22.84408365314315
 30
0.0
 10
12.65779757713069
 20
-22.65804849693966
 30
0.0
 10
12.65607502938806
 20
-22.39828829735182
 30
0.0
 10
12.65607502938806
 20
-22.39828829735182
 30
0.0
 10
12.64849581932052
 20
-21.30653753807615
 30
0.0
 10
12.64849581932052
 20
-21.30653753807615
 30
0.0
 10
12.64470621428674
 20
-20.76841362328012
 30
0.0
 10
12.90860052845688
 20
-20.49797362768801
 30
0.0
 10
13.44017876183093
 20
-20.49418402265423
 30
0.0
 10
13.97055121178514
 20
-20.49004990807193
 30
0.0
 10
14.23789062144053
 20
-20.75773382727585
 30
0.0
 10
14.24133571692578
 20
-21.29585774207187
 30
0.0
 10
14.24133571692578
 20
-21.29585774207187
 30
0.0
 10
14.24478081241103
 20
-21.75026583657632
 30
0.0
 10
14.24478081241103
 20
-21.75026583657632
 30
0.0
 10
14.24478081241103
 20
-21.75026583657632
 30
0.0
 10
13.68994818451154
 20
-21.7540554416101
 30
0.0
 10
13.68994818451154
 20
-21.7540554416101
 30
0.0
 10
13.68994818451154
 20
-21.7540554416101
 30
0.0
 10
13.68701985334908
 20
-21.29964734710564
 30
0.0
 10
13.68701985334908
 20
-21.29964734710564
 30
0.0
 10
13.68564181515498
 20
-21.12601453464905
 30
0.0
 10
13.60554334512292
 20
-21.03954263796928
 30
0.0
 10
13.44620767893012
 20
-21.04092067616338
 30
0.0
 10
13.44620767893012
 20
-21.04092067616338
 30
0.0
 10
13.44207356434782
 20
-21.04092067616338
 30
0.0
 10
13.44207356434782
 20
-21.04092067616338
 30
0.0
 10
13.28153211473517
 20
-21.04298773345453
 30
0.0
 10
13.20177815425164
 20
-21.13049315877988
 30
0.0
 10
13.20298393767148
 20
-21.30309244259089
 30
0.0
 10
13.20298393767148
 20
-21.30309244259089
 30
0.0
 10
13.21073540251329
 20
-22.39415418276952
 30
0.0
 10
13.21073540251329
 20
-22.39415418276952
 30
0.0
  0
HATCH
  5
9D
330
6E
100
AcDbEntity
  8
Layer 1
 62
   250
420
  2301728
100
AcDbHatch
 10
0.0
 20
0.0
 30
0.0
210
0.0
220
0.0
230
1.0
  2
SOLID
 70
     1
 71
     0
 91
        1
 92
        1
 93
        1
 72
     4
 94
        3
 73
     0
 74
     1
 95
       80
 96
       76
 40
0.0
 40
0.0
 40
0.0
 40
0.0
 40
1.0
 40
1.0
 40
1.0
 40
2.0
 40
2.0
 40
2.0
 40
3.0
 40
3.0
 40
3.0
 40
4.0
 40
4.0
 40
4.0
 40
5.0
 40
5.0
 40
5.0
 40
6.0
 40
6.0
 40
6.0
 40
7.0
 40
7.0
 40
7.0
 40
8.0
 40
8.0
 40
8.0
 40
9.0
 40
9.0
 40
9.0
 40
10.0
 40
10.0
 40
10.0
 40
11.0
 40
11.0
 40
11.0
 40
12.0
 40
12.0
 40
12.0
 40
13.0
 40
13.0
 40
13.0
 40
14.0
 40
14.0
 40
14.0
 40
15.0
 40
15.0
 40
15.0
 40
16.0
 40
16.0
 40
16.0
 40
17.0
 40
17.0
 40
17.0
 40
18.0
 40
18.0
 40
18.0
 40
19.0
 40
19.0
 40
19.0
 40
20.0
 40
20.0
 40
20.0
 40
21.0
 40
21.0
 40
21.0
 40
22.0
 40
22.0
 40
22.0
 40
23.0
 40
23.0
 40
23.0
 40
24.0
 40
24.0
 40
24.0
 40
25.0
 40
25.0
 40
25.0
 40
25.0
 10
13.21073540251329
 20
-22.39415418276952
 10
13.2115966763846
 20
-22.52989094488836
 10
13.24087998800922
 20
-22.61050617924321
 10
13.29858533738716
 20
-22.63496635718848
 10
13.32993570630293
 20
-22.649091248678
 10
13.38023410038758
 20
-22.65563693009998
 10
13.4494805196411
 20
-22.65529242055145
 10
13.46653374229309
 20
-22.65494791100293
 10
13.48427598404213
 20
-22.65425889190588
 10
13.50236273533969
 20
-22.65288085371178
 10
13.6148451029331
 20
-22.64667968183833
 10
13.67702907644185
 20
-22.59638128775368
 10
13.68943142018875
 20
-22.50095214281226
 10
13.68943142018875
 20
-22.50095214281226
 10
13.6942545538681
 20
-22.34592284597602
 10
13.6942545538681
 20
-22.34592284597602
 10
13.6942545538681
 20
-22.34592284597602
 10
14.24891492699333
 20
-22.34213324094225
 10
14.24891492699333
 20
-22.34213324094225
 10
14.24891492699333
 20
-22.34213324094225
 10
14.18070203638538
 20
-24.39403211195705
 10
14.18070203638538
 20
-24.39403211195705
 10
14.18070203638538
 20
-24.39403211195705
 10
12.67002766610333
 20
-24.40505641750985
 10
12.67002766610333
 20
-24.40505641750985
 10
12.67002766610333
 20
-24.40505641750985
 10
12.66623806106955
 20
-23.85797525445217
 10
12.66623806106955
 20
-23.85797525445217
 10
12.66623806106955
 20
-23.85797525445217
 10
13.64395615978346
 20
-23.85108506348167
 10
13.64395615978346
 20
-23.85108506348167
 10
13.64395615978346
 20
-23.85108506348167
 10
13.67737358599038
 20
-23.02426214702171
 10
13.67737358599038
 20
-23.02426214702171
 10
13.58418375311437
 20
-23.13312716435561
 10
13.45654296538586
 20
-23.1882486921196
 10
13.29445122280486
 20
-23.18962673031371
 10
13.27240261169926
 20
-23.18962673031371
 10
13.24966498149661
 20
-23.1882486921196
 10
13.22606607742265
 20
-23.18618163482845
 10
13.03245171115161
 20
-23.17033419559631
 10
12.88500162438292
 20
-23.09350856627524
 10
12.78337130756805
 20
-22.95570474686524
 10
12.70034450637353
 20
-22.84408365314315
 10
12.65779757713069
 20
-22.65804849693966
 10
12.65607502938806
 20
-22.39828829735182
 10
12.65607502938806
 20
-22.39828829735182
 10
12.64849581932052
 20
-21.30653753807615
 10
12.64849581932052
 20
-21.30653753807615
 10
12.64470621428674
 20
-20.76841362328012
 10
12.90860052845688
 20
-20.49797362768801
 10
13.44017876183093
 20
-20.49418402265423
 10
13.97055121178514
 20
-20.49004990807193
 10
14.23789062144053
 20
-20.75773382727585
 10
14.24133571692578
 20
-21.29585774207187
 10
14.24133571692578
 20
-21.29585774207187
 10
14.24478081241103
 20
-21.75026583657632
 10
14.24478081241103
 20
-21.75026583657632
 10
14.24478081241103
 20
-21.75026583657632
 10
13.68994818451154
 20
-21.7540554416101
 10
13.68994818451154
 20
-21.7540554416101
 10
13.68994818451154
 20
-21.7540554416101
 10
13.68701985334908
 20
-21.29964734710564
 10
13.68701985334908
 20
-21.29964734710564
 10
13.68564181515498
 20
-21.12601453464905
 10
13.60554334512292
 20
-21.03954263796928
 10
13.44620767893012
 20
-21.04092067616338
 10
13.44620767893012
 20
-21.04092067616338
 10
13.44207356434782
 20
-21.04092067616338
 10
13.44207356434782
 20
-21.04092067616338
 10
13.28153211473517
 20
-21.04298773345453
 10
13.20177815425164
 20
-21.13049315877988
 10
13.20298393767148
 20
-21.30309244259089
 10
13.20298393767148
 20
-21.30309244259089
 10
13.21073540251329
 20
-22.39415418276952
 10
13.21073540251329
 20
-22.39415418276952
 97
        0
 97
        0
 75
     2
 76
     1
 98
        0
  0
SPLINE
  5
9E
330
6E
100
AcDbEntity
  8
Layer 1
370
     0
100
AcDbSpline
210
0.0
220
0.0
230
1.0
 70
    11
 71
     3
 72
    56
 73
    52
 74
     0
 42
0.0000000001
 43
0.0000000001
 12
1.0
 22
0.0
 32
0.0
 13
1.0
 23
0.0
 33
0.0
 40
0.0
 40
0.0
 40
0.0
 40
0.0
 40
1.0
 40
1.0
 40
1.0
 40
2.0
 40
2.0
 40
2.0
 40
3.0
 40
3.0
 40
3.0
 40
4.0
 40
4.0
 40
4.0
 40
5.0
 40
5.0
 40
5.0
 40
6.0
 40
6.0
 40
6.0
 40
7.0
 40
7.0
 40
7.0
 40
8.0
 40
8.0
 40
8.0
 40
9.0
 40
9.0
 40
9.0
 40
10.0
 40
10.0
 40
10.0
 40
11.0
 40
11.0
 40
11.0
 40
12.0
 40
12.0
 40
12.0
 40
13.0
 40
13.0
 40
13.0
 40
14.0
 40
14.0
 40
14.0
 40
15.0
 40
15.0
 40
15.0
 40
16.0
 40
16.0
 40
16.0
 40
17.0
 40
17.0
 40
17.0
 40
17.0
 10
8.148512096487178
 20
-21.1211914009697
 30
0.0
 10
8.010708277077184
 20
-21.13669433065333
 30
0.0
 10
7.880139158186216
 20
-21.1005208280582
 30
0.0
 10
7.756804739814271
 20
-21.01232638363581
 30
0.0
 10
7.734411619160148
 20
-20.99647894440366
 30
0.0
 10
7.712363008054549
 20
-20.97925346697741
 30
0.0
 10
7.690314396948949
 20
-20.95996093226001
 30
0.0
 10
7.556644692121256
 20
-20.84179415711594
 30
0.0
 10
7.480335827122972
 20
-20.70915798093382
 30
0.0
 10
7.461215547179835
 20
-20.56308593235923
 30
0.0
 10
7.441750757688173
 20
-20.41253525965381
 30
0.0
 10
7.515648055846783
 20
-20.22029893157687
 30
0.0
 10
7.682562932107137
 20
-19.98672145767693
 30
0.0
 10
7.682562932107137
 20
-19.98672145767693
 30
0.0
 10
8.126980249704367
 20
-19.36453721304081
 30
0.0
 10
8.126980249704367
 20
-19.36453721304081
 30
0.0
 10
8.43962266499079
 20
-18.92666557686556
 30
0.0
 10
8.812554251269084
 20
-18.86224229129138
 30
0.0
 10
9.2450859894422
 20
-19.1712673563183
 30
0.0
 10
9.676584198969744
 20
-19.47960340224816
 30
0.0
 10
9.736012096090302
 20
-19.85270724330071
 30
0.0
 10
9.423197426029617
 20
-20.29092338902449
 30
0.0
 10
9.423197426029617
 20
-20.29092338902449
 30
0.0
 10
8.056355792256745
 20
-22.20398491198373
 30
0.0
 10
8.056355792256745
 20
-22.20398491198373
 30
0.0
 10
7.743024357873272
 20
-22.64323458635308
 30
0.0
 10
7.37026502636924
 20
-22.7083468910243
 30
0.0
 10
6.93893907161596
 20
-22.40001084509444
 30
0.0
 10
6.506062823894318
 20
-22.09098578006753
 30
0.0
 10
6.446807181548021
 20
-21.71719291991792
 30
0.0
 10
6.760138615931494
 20
-21.27794324554857
 30
0.0
 10
6.760138615931494
 20
-21.27794324554857
 30
0.0
 10
7.059689668373966
 20
-20.85867512499367
 30
0.0
 10
7.059689668373966
 20
-20.85867512499367
 30
0.0
 10
7.059689668373966
 20
-20.85867512499367
 30
0.0
 10
7.510824922167433
 20
-21.18113606241305
 30
0.0
 10
7.510824922167433
 20
-21.18113606241305
 30
0.0
 10
7.510824922167433
 20
-21.18113606241305
 30
0.0
 10
7.211446124499222
 20
-21.60040418296796
 30
0.0
 10
7.211446124499222
 20
-21.60040418296796
 30
0.0
 10
7.110504826781402
 20
-21.74199760741172
 30
0.0
 10
7.125318737367976
 20
-21.85947536345874
 30
0.0
 10
7.256060111033207
 20
-21.95283745110902
 30
0.0
 10
7.256060111033207
 20
-21.95283745110902
 30
0.0
 10
7.259160696969932
 20
-21.95524901794869
 30
0.0
 10
7.259160696969932
 20
-21.95524901794869
 30
0.0
 10
7.389213051538114
 20
-22.04757757695338
 30
0.0
 10
7.504279240745459
 20
-22.02311739900811
 30
0.0
 10
7.605220538463279
 20
-21.88186848411287
 30
0.0
 10
7.605220538463279
 20
-21.88186848411287
 30
0.0
 10
8.148512096487178
 20
-21.1211914009697
 30
0.0
 10
8.148512096487178
 20
-21.1211914009697
 30
0.0
  0
SPLINE
  5
9F
330
6E
100
AcDbEntity
  8
Layer 1
370
     0
100
AcDbSpline
210
0.0
220
0.0
230
1.0
 70
    11
 71
     3
 72
    29
 73
    25
 74
     0
 42
0.0000000001
 43
0.0000000001
 12
1.0
 22
0.0
 32
0.0
 13
1.0
 23
0.0
 33
0.0
 40
0.0
 40
0.0
 40
0.0
 40
0.0
 40
1.0
 40
1.0
 40
1.0
 40
2.0
 40
2.0
 40
2.0
 40
3.0
 40
3.0
 40
3.0
 40
4.0
 40
4.0
 40
4.0
 40
5.0
 40
5.0
 40
5.0
 40
6.0
 40
6.0
 40
6.0
 40
7.0
 40
7.0
 40
7.0
 40
8.0
 40
8.0
 40
8.0
 40
8.0
 10
8.134042695449129
 20
-20.30883788554779
 30
0.0
 10
8.054116480191333
 20
-20.42045897926988
 30
0.0
 10
8.031034340440158
 20
-20.50245225181883
 30
0.0
 10
8.063935002324294
 20
-20.55481770319463
 30
0.0
 10
8.081332734524807
 20
-20.5847900339163
 30
0.0
 10
8.118023001442717
 20
-20.61993000786585
 30
0.0
 10
8.17417805785229
 20
-20.66023762504328
 30
0.0
 10
8.188130694567551
 20
-20.6702284019505
 30
0.0
 10
8.202944605154125
 20
-20.6798746693092
 30
0.0
 10
8.21844753483775
 20
-20.68986544621642
 30
0.0
 10
8.326795787848857
 20
-20.76048990366404
 30
0.0
 10
8.429804142857828
 20
-20.72741698700565
 30
0.0
 10
8.527817109413185
 20
-20.58995767714418
 30
0.0
 10
8.527817109413185
 20
-20.58995767714418
 30
0.0
 10
8.972062172236152
 20
-19.96811794205658
 30
0.0
 10
8.972062172236152
 20
-19.96811794205658
 30
0.0
 10
9.073003469953973
 20
-19.82721353670986
 30
0.0
 10
9.058017304593134
 20
-19.70939127111432
 30
0.0
 10
8.927275930927904
 20
-19.61637369301257
 30
0.0
 10
8.795501028617098
 20
-19.52197807671673
 30
0.0
 10
8.679229055989916
 20
-19.54574923556495
 30
0.0
 10
8.578115503497832
 20
-19.68699815046019
 30
0.0
 10
8.578115503497832
 20
-19.68699815046019
 30
0.0
 10
8.134042695449129
 20
-20.30883788554779
 30
0.0
 10
8.134042695449129
 20
-20.30883788554779
 30
0.0
  0
HATCH
  5
A0
330
6E
100
AcDbEntity
  8
Layer 1
 62
   250
420
  2301728
100
AcDbHatch
 10
0.0
 20
0.0
 30
0.0
210
0.0
220
0.0
230
1.0
  2
SOLID
 70
     1
 71
     0
 91
        2
 92
        1
 93
        1
 72
     4
 94
        3
 73
     0
 74
     1
 95
       56
 96
       52
 40
0.0
 40
0.0
 40
0.0
 40
0.0
 40
1.0
 40
1.0
 40
1.0
 40
2.0
 40
2.0
 40
2.0
 40
3.0
 40
3.0
 40
3.0
 40
4.0
 40
4.0
 40
4.0
 40
5.0
 40
5.0
 40
5.0
 40
6.0
 40
6.0
 40
6.0
 40
7.0
 40
7.0
 40
7.0
 40
8.0
 40
8.0
 40
8.0
 40
9.0
 40
9.0
 40
9.0
 40
10.0
 40
10.0
 40
10.0
 40
11.0
 40
11.0
 40
11.0
 40
12.0
 40
12.0
 40
12.0
 40
13.0
 40
13.0
 40
13.0
 40
14.0
 40
14.0
 40
14.0
 40
15.0
 40
15.0
 40
15.0
 40
16.0
 40
16.0
 40
16.0
 40
17.0
 40
17.0
 40
17.0
 40
17.0
 10
8.148512096487178
 20
-21.1211914009697
 10
8.010708277077184
 20
-21.13669433065333
 10
7.880139158186216
 20
-21.1005208280582
 10
7.756804739814271
 20
-21.01232638363581
 10
7.734411619160148
 20
-20.99647894440366
 10
7.712363008054549
 20
-20.97925346697741
 10
7.690314396948949
 20
-20.95996093226001
 10
7.556644692121256
 20
-20.84179415711594
 10
7.480335827122972
 20
-20.70915798093382
 10
7.461215547179835
 20
-20.56308593235923
 10
7.441750757688173
 20
-20.41253525965381
 10
7.515648055846783
 20
-20.22029893157687
 10
7.682562932107137
 20
-19.98672145767693
 10
7.682562932107137
 20
-19.98672145767693
 10
8.126980249704367
 20
-19.36453721304081
 10
8.126980249704367
 20
-19.36453721304081
 10
8.43962266499079
 20
-18.92666557686556
 10
8.812554251269084
 20
-18.86224229129138
 10
9.2450859894422
 20
-19.1712673563183
 10
9.676584198969744
 20
-19.47960340224816
 10
9.736012096090302
 20
-19.85270724330071
 10
9.423197426029617
 20
-20.29092338902449
 10
9.423197426029617
 20
-20.29092338902449
 10
8.056355792256745
 20
-22.20398491198373
 10
8.056355792256745
 20
-22.20398491198373
 10
7.743024357873272
 20
-22.64323458635308
 10
7.37026502636924
 20
-22.7083468910243
 10
6.93893907161596
 20
-22.40001084509444
 10
6.506062823894318
 20
-22.09098578006753
 10
6.446807181548021
 20
-21.71719291991792
 10
6.760138615931494
 20
-21.27794324554857
 10
6.760138615931494
 20
-21.27794324554857
 10
7.059689668373966
 20
-20.85867512499367
 10
7.059689668373966
 20
-20.85867512499367
 10
7.059689668373966
 20
-20.85867512499367
 10
7.510824922167433
 20
-21.18113606241305
 10
7.510824922167433
 20
-21.18113606241305
 10
7.510824922167433
 20
-21.18113606241305
 10
7.211446124499222
 20
-21.60040418296796
 10
7.211446124499222
 20
-21.60040418296796
 10
7.110504826781402
 20
-21.74199760741172
 10
7.125318737367976
 20
-21.85947536345874
 10
7.256060111033207
 20
-21.95283745110902
 10
7.256060111033207
 20
-21.95283745110902
 10
7.259160696969932
 20
-21.95524901794869
 10
7.259160696969932
 20
-21.95524901794869
 10
7.389213051538114
 20
-22.04757757695338
 10
7.504279240745459
 20
-22.02311739900811
 10
7.605220538463279
 20
-21.88186848411287
 10
7.605220538463279
 20
-21.88186848411287
 10
8.148512096487178
 20
-21.1211914009697
 10
8.148512096487178
 20
-21.1211914009697
 97
        0
 97
        0
 92
        1
 93
        1
 72
     4
 94
        3
 73
     0
 74
     1
 95
       29
 96
       25
 40
0.0
 40
0.0
 40
0.0
 40
0.0
 40
1.0
 40
1.0
 40
1.0
 40
2.0
 40
2.0
 40
2.0
 40
3.0
 40
3.0
 40
3.0
 40
4.0
 40
4.0
 40
4.0
 40
5.0
 40
5.0
 40
5.0
 40
6.0
 40
6.0
 40
6.0
 40
7.0
 40
7.0
 40
7.0
 40
8.0
 40
8.0
 40
8.0
 40
8.0
 10
8.134042695449129
 20
-20.30883788554779
 10
8.054116480191333
 20
-20.42045897926988
 10
8.031034340440158
 20
-20.50245225181883
 10
8.063935002324294
 20
-20.55481770319463
 10
8.081332734524807
 20
-20.5847900339163
 10
8.118023001442717
 20
-20.61993000786585
 10
8.17417805785229
 20
-20.66023762504328
 10
8.188130694567551
 20
-20.6702284019505
 10
8.202944605154125
 20
-20.6798746693092
 10
8.21844753483775
 20
-20.68986544621642
 10
8.326795787848857
 20
-20.76048990366404
 10
8.429804142857828
 20
-20.72741698700565
 10
8.527817109413185
 20
-20.58995767714418
 10
8.527817109413185
 20
-20.58995767714418
 10
8.972062172236152
 20
-19.96811794205658
 10
8.972062172236152
 20
-19.96811794205658
 10
9.073003469953973
 20
-19.82721353670986
 10
9.058017304593134
 20
-19.70939127111432
 10
8.927275930927904
 20
-19.61637369301257
 10
8.795501028617098
 20
-19.52197807671673
 10
8.679229055989916
 20
-19.54574923556495
 10
8.578115503497832
 20
-19.68699815046019
 10
8.578115503497832
 20
-19.68699815046019
 10
8.134042695449129
 20
-20.30883788554779
 10
8.134042695449129
 20
-20.30883788554779
 97
        0
 97
        0
 75
     2
 76
     1
 98
        0
  0
POLYLINE
  5
A1
330
6E
100
AcDbEntity
  8
Layer 1
370
     0
100
AcDb2dPolyline
 66
     1
 10
0.0
 20
0.0
 30
0.0
  0
VERTEX
  5
A2
330
A1
100
AcDbEntity
  8
Layer 1
370
     0
100
AcDbVertex
100
AcDb2dVertex
 10
3.699343532061275
 20
-17.46801214841078
 30
0.0
  0
VERTEX
  5
A3
330
A1
100
AcDbEntity
  8
Layer 1
370
     0
100
AcDbVertex
100
AcDb2dVertex
 10
3.180856661531175
 20
-17.64164496086737
 30
0.0
  0
VERTEX
  5
A4
330
A1
100
AcDbEntity
  8
Layer 1
370
     0
100
AcDbVertex
100
AcDb2dVertex
 10
2.659958224161399
 20
-16.08687336837411
 30
0.0
  0
VERTEX
  5
A5
330
A1
100
AcDbEntity
  8
Layer 1
370
     0
100
AcDbVertex
100
AcDb2dVertex
 10
3.033234319988219
 20
-15.96147189271102
 30
0.0
  0
VERTEX
  5
A6
330
A1
100
AcDbEntity
  8
Layer 1
370
     0
100
AcDbVertex
100
AcDb2dVertex
 10
6.551710339073878
 20
-15.60145941450241
 30
0.0
  0
VERTEX
  5
A7
330
A1
100
AcDbEntity
  8
Layer 1
370
     0
100
AcDbVertex
100
AcDb2dVertex
 10
6.73223334250097
 20
-16.13958332929844
 30
0.0
  0
VERTEX
  5
A8
330
A1
100
AcDbEntity
  8
Layer 1
370
     0
100
AcDbVertex
100
AcDb2dVertex
 10
3.369820148897129
 20
-16.48547091601752
 30
0.0
  0
VERTEX
  5
A9
330
A1
100
AcDbEntity
  8
Layer 1
370
     0
100
AcDbVertex
100
AcDb2dVertex
 10
3.699343532061275
 20
-17.46801214841078
 30
0.0
  0
SEQEND
  5
AA
330
A1
100
AcDbEntity
  8
Layer 1
370
     0
  0
HATCH
  5
AB
330
6E
100
AcDbEntity
  8
Layer 1
 62
   250
420
  2301728
100
AcDbHatch
 10
0.0
 20
0.0
 30
0.0
210
0.0
220
0.0
230
1.0
  2
SOLID
 70
     1
 71
     0
 91
        1
 92
        1
 93
        7
 72
     1
 10
3.699343532061275
 20
-17.46801214841078
 11
3.180856661531175
 21
-17.64164496086737
 72
     1
 10
3.180856661531175
 20
-17.64164496086737
 11
2.659958224161399
 21
-16.08687336837411
 72
     1
 10
2.659958224161399
 20
-16.08687336837411
 11
3.033234319988219
 21
-15.96147189271102
 72
     1
 10
3.033234319988219
 20
-15.96147189271102
 11
6.551710339073878
 21
-15.60145941450241
 72
     1
 10
6.551710339073878
 20
-15.60145941450241
 11
6.73223334250097
 21
-16.13958332929844
 72
     1
 10
6.73223334250097
 20
-16.13958332929844
 11
3.369820148897129
 21
-16.48547091601752
 72
     1
 10
3.369820148897129
 20
-16.48547091601752
 11
3.699343532061275
 21
-17.46801214841078
 97
        0
 75
     2
 76
     1
 98
        0
  0
SPLINE
  5
AC
330
6E
100
AcDbEntity
  8
Layer 1
370
     0
100
AcDbSpline
210
0.0
220
0.0
230
1.0
 70
    11
 71
     3
 72
    41
 73
    37
 74
     0
 42
0.0000000001
 43
0.0000000001
 12
1.0
 22
0.0
 32
0.0
 13
1.0
 23
0.0
 33
0.0
 40
0.0
 40
0.0
 40
0.0
 40
0.0
 40
1.0
 40
1.0
 40
1.0
 40
2.0
 40
2.0
 40
2.0
 40
3.0
 40
3.0
 40
3.0
 40
4.0
 40
4.0
 40
4.0
 40
5.0
 40
5.0
 40
5.0
 40
6.0
 40
6.0
 40
6.0
 40
7.0
 40
7.0
 40
7.0
 40
8.0
 40
8.0
 40
8.0
 40
9.0
 40
9.0
 40
9.0
 40
10.0
 40
10.0
 40
10.0
 40
11.0
 40
11.0
 40
11.0
 40
12.0
 40
12.0
 40
12.0
 40
12.0
 10
2.80379096067058
 20
-10.04486490634295
 30
0.0
 10
2.962954372089122
 20
-9.53740234136565
 30
0.0
 10
3.299367946223769
 20
-9.364803057554633
 30
0.0
 10
3.81303168307452
 20
-9.5256890167158
 30
0.0
 10
3.81303168307452
 20
-9.5256890167158
 30
0.0
 10
4.450546602620002
 20
-9.72550455486029
 30
0.0
 10
4.450546602620002
 20
-9.72550455486029
 30
0.0
 10
4.691014267490441
 20
-9.801296655535788
 30
0.0
 10
4.830885144191584
 20
-9.95150281869268
 30
0.0
 10
4.869814723174907
 20
-10.17543402523392
 30
0.0
 10
5.03035617278755
 20
-10.0138590469757
 30
0.0
 10
5.23086073002909
 20
-9.970795353410079
 30
0.0
 10
5.471328394899529
 20
-10.04589843498853
 30
0.0
 10
5.471328394899529
 20
-10.04589843498853
 30
0.0
 10
6.056650117843477
 20
-10.22952202435234
 30
0.0
 10
6.056650117843477
 20
-10.22952202435234
 30
0.0
 10
6.569969345145703
 20
-10.39109700261056
 30
0.0
 10
6.747047253087544
 20
-10.72492675513127
 30
0.0
 10
6.587883841669002
 20
-11.23238932010857
 30
0.0
 10
6.428720430250459
 20
-11.73950737553735
 30
0.0
 10
6.092479110890075
 20
-11.91279567844541
 30
0.0
 10
5.579159883587849
 20
-11.75156520973572
 30
0.0
 10
5.579159883587849
 20
-11.75156520973572
 30
0.0
 10
4.993838160643902
 20
-11.5679416203719
 30
0.0
 10
4.993838160643902
 20
-11.5679416203719
 30
0.0
 10
4.753370495773463
 20
-11.49283853879346
 30
0.0
 10
4.61349961907232
 20
-11.34263237563657
 30
0.0
 10
4.574397785314734
 20
-11.11801214999828
 30
0.0
 10
4.414028590476354
 20
-11.27993163780502
 30
0.0
 10
4.213351778460551
 20
-11.32333984091917
 30
0.0
 10
3.972884113590113
 20
-11.24754774024367
 30
0.0
 10
3.972884113590113
 20
-11.24754774024367
 30
0.0
 10
3.335541448818892
 20
-11.04773220209918
 30
0.0
 10
3.335541448818892
 20
-11.04773220209918
 30
0.0
 10
2.821877711968142
 20
-10.88650173338949
 30
0.0
 10
2.644627549252037
 20
-10.55232747132025
 30
0.0
 10
2.80379096067058
 20
-10.04486490634295
 30
0.0
  0
SPLINE
  5
AD
330
6E
100
AcDbEntity
  8
Layer 1
370
     0
100
AcDbSpline
210
0.0
220
0.0
230
1.0
 70
    11
 71
     3
 72
    35
 73
    31
 74
     0
 42
0.0000000001
 43
0.0000000001
 12
1.0
 22
0.0
 32
0.0
 13
1.0
 23
0.0
 33
0.0
 40
0.0
 40
0.0
 40
0.0
 40
0.0
 40
1.0
 40
1.0
 40
1.0
 40
2.0
 40
2.0
 40
2.0
 40
3.0
 40
3.0
 40
3.0
 40
4.0
 40
4.0
 40
4.0
 40
5.0
 40
5.0
 40
5.0
 40
6.0
 40
6.0
 40
6.0
 40
7.0
 40
7.0
 40
7.0
 40
8.0
 40
8.0
 40
8.0
 40
9.0
 40
9.0
 40
9.0
 40
10.0
 40
10.0
 40
10.0
 40
10.0
 10
4.470700411208714
 20
-10.51236436369135
 30
0.0
 10
4.486203340892338
 20
-10.46241047915523
 30
0.0
 10
4.490509710248901
 20
-10.42279188107486
 30
0.0
 10
4.483447264504139
 20
-10.39316405990171
 30
0.0
 10
4.471561685080027
 20
-10.33942057033181
 30
0.0
 10
4.404210068343392
 20
-10.29222276218389
 30
0.0
 10
4.280703395197185
 20
-10.25363769274909
 30
0.0
 10
4.280703395197185
 20
-10.25363769274909
 30
0.0
 10
3.646805825911215
 20
-10.0552001927987
 30
0.0
 10
3.646805825911215
 20
-10.0552001927987
 30
0.0
 10
3.482474771264798
 20
-10.0028347414229
 30
0.0
 10
3.375504556447791
 20
-10.0538221546046
 30
0.0
 10
3.326067436234455
 20
-10.20678439414969
 30
0.0
 10
3.326067436234455
 20
-10.20678439414969
 30
0.0
 10
3.324861652814618
 20
-10.21057399918347
 30
0.0
 10
3.324861652814618
 20
-10.21057399918347
 30
0.0
 10
3.278180608989483
 20
-10.36456976737414
 30
0.0
 10
3.337091741787255
 20
-10.46723361283458
 30
0.0
 10
3.501422796433672
 20
-10.5185655355648
 30
0.0
 10
3.501422796433672
 20
-10.5185655355648
 30
0.0
 10
4.135320365719642
 20
-10.71769205461224
 30
0.0
 10
4.135320365719642
 20
-10.71769205461224
 30
0.0
 10
4.258654784091586
 20
-10.75627712404704
 30
0.0
 10
4.340648056640533
 20
-10.75662163359557
 30
0.0
 10
4.381300183366481
 20
-10.71872558325782
 30
0.0
 10
4.40403781356913
 20
-10.69839951989485
 30
0.0
 10
4.423158093512266
 20
-10.6632595459453
 30
0.0
 10
4.439005532744416
 20
-10.6136501709577
 30
0.0
 10
4.439005532744416
 20
-10.6136501709577
 30
0.0
 10
4.470700411208714
 20
-10.51236436369135
 30
0.0
 10
4.470700411208714
 20
-10.51236436369135
 30
0.0
  0
SPLINE
  5
AE
330
6E
100
AcDbEntity
  8
Layer 1
370
     0
100
AcDbSpline
210
0.0
220
0.0
230
1.0
 70
    11
 71
     3
 72
    35
 73
    31
 74
     0
 42
0.0000000001
 43
0.0000000001
 12
1.0
 22
0.0
 32
0.0
 13
1.0
 23
0.0
 33
0.0
 40
0.0
 40
0.0
 40
0.0
 40
0.0
 40
1.0
 40
1.0
 40
1.0
 40
2.0
 40
2.0
 40
2.0
 40
3.0
 40
3.0
 40
3.0
 40
4.0
 40
4.0
 40
4.0
 40
5.0
 40
5.0
 40
5.0
 40
6.0
 40
6.0
 40
6.0
 40
7.0
 40
7.0
 40
7.0
 40
8.0
 40
8.0
 40
8.0
 40
9.0
 40
9.0
 40
9.0
 40
10.0
 40
10.0
 40
10.0
 40
10.0
 10
6.066985404299226
 20
-11.06668022726805
 30
0.0
 10
6.114010957672886
 20
-10.91302896862591
 30
0.0
 10
6.054927570100852
 20
-10.81036512316546
 30
0.0
 10
5.890424260680172
 20
-10.75868869088672
 30
0.0
 10
5.890424260680172
 20
-10.75868869088672
 30
0.0
 10
5.305102537736224
 20
-10.5750651015229
 30
0.0
 10
5.305102537736224
 20
-10.5750651015229
 30
0.0
 10
5.171949597231318
 20
-10.53303493660285
 30
0.0
 10
5.083927407583185
 20
-10.5364800320881
 30
0.0
 10
5.04138047834035
 20
-10.5847113688816
 30
0.0
 10
5.019504122009013
 20
-10.6108940945695
 30
0.0
 10
4.998833549097514
 20
-10.6549913167807
 30
0.0
 10
4.979368759605853
 20
-10.71700303551519
 30
0.0
 10
4.979368759605853
 20
-10.71700303551519
 30
0.0
 10
4.973339842506665
 20
-10.73595106068407
 30
0.0
 10
4.973339842506665
 20
-10.73595106068407
 30
0.0
 10
4.953875053015004
 20
-10.79865179851562
 30
0.0
 10
4.945779078624667
 20
-10.84619411621206
 30
0.0
 10
4.948707409787129
 20
-10.88030056151604
 30
0.0
 10
4.956286619854678
 20
-10.94403482799316
 30
0.0
 10
5.026566567753775
 20
-10.99708929846601
 30
0.0
 10
5.159719508258681
 20
-11.03911946338605
 30
0.0
 10
5.159719508258681
 20
-11.03911946338605
 30
0.0
 10
5.744868976428366
 20
-11.22239854320135
 30
0.0
 10
5.744868976428366
 20
-11.22239854320135
 30
0.0
 10
5.909716795397571
 20
-11.27407497548009
 30
0.0
 10
6.016514755440316
 20
-11.22343207184692
 30
0.0
 10
6.065779620879389
 20
-11.07046983230183
 30
0.0
 10
6.065779620879389
 20
-11.07046983230183
 30
0.0
 10
6.066985404299226
 20
-11.06668022726805
 30
0.0
 10
6.066985404299226
 20
-11.06668022726805
 30
0.0
  0
HATCH
  5
AF
330
6E
100
AcDbEntity
  8
Layer 1
 62
   250
420
  2301728
100
AcDbHatch
 10
0.0
 20
0.0
 30
0.0
210
0.0
220
0.0
230
1.0
  2
SOLID
 70
     1
 71
     0
 91
        3
 92
        1
 93
        1
 72
     4
 94
        3
 73
     0
 74
     1
 95
       41
 96
       37
 40
0.0
 40
0.0
 40
0.0
 40
0.0
 40
1.0
 40
1.0
 40
1.0
 40
2.0
 40
2.0
 40
2.0
 40
3.0
 40
3.0
 40
3.0
 40
4.0
 40
4.0
 40
4.0
 40
5.0
 40
5.0
 40
5.0
 40
6.0
 40
6.0
 40
6.0
 40
7.0
 40
7.0
 40
7.0
 40
8.0
 40
8.0
 40
8.0
 40
9.0
 40
9.0
 40
9.0
 40
10.0
 40
10.0
 40
10.0
 40
11.0
 40
11.0
 40
11.0
 40
12.0
 40
12.0
 40
12.0
 40
12.0
 10
2.80379096067058
 20
-10.04486490634295
 10
2.962954372089122
 20
-9.53740234136565
 10
3.299367946223769
 20
-9.364803057554633
 10
3.81303168307452
 20
-9.5256890167158
 10
3.81303168307452
 20
-9.5256890167158
 10
4.450546602620002
 20
-9.72550455486029
 10
4.450546602620002
 20
-9.72550455486029
 10
4.691014267490441
 20
-9.801296655535788
 10
4.830885144191584
 20
-9.95150281869268
 10
4.869814723174907
 20
-10.17543402523392
 10
5.03035617278755
 20
-10.0138590469757
 10
5.23086073002909
 20
-9.970795353410079
 10
5.471328394899529
 20
-10.04589843498853
 10
5.471328394899529
 20
-10.04589843498853
 10
6.056650117843477
 20
-10.22952202435234
 10
6.056650117843477
 20
-10.22952202435234
 10
6.569969345145703
 20
-10.39109700261056
 10
6.747047253087544
 20
-10.72492675513127
 10
6.587883841669002
 20
-11.23238932010857
 10
6.428720430250459
 20
-11.73950737553735
 10
6.092479110890075
 20
-11.91279567844541
 10
5.579159883587849
 20
-11.75156520973572
 10
5.579159883587849
 20
-11.75156520973572
 10
4.993838160643902
 20
-11.5679416203719
 10
4.993838160643902
 20
-11.5679416203719
 10
4.753370495773463
 20
-11.49283853879346
 10
4.61349961907232
 20
-11.34263237563657
 10
4.574397785314734
 20
-11.11801214999828
 10
4.414028590476354
 20
-11.27993163780502
 10
4.213351778460551
 20
-11.32333984091917
 10
3.972884113590113
 20
-11.24754774024367
 10
3.972884113590113
 20
-11.24754774024367
 10
3.335541448818892
 20
-11.04773220209918
 10
3.335541448818892
 20
-11.04773220209918
 10
2.821877711968142
 20
-10.88650173338949
 10
2.644627549252037
 20
-10.55232747132025
 10
2.80379096067058
 20
-10.04486490634295
 97
        0
 97
        0
 92
        1
 93
        1
 72
     4
 94
        3
 73
     0
 74
     1
 95
       35
 96
       31
 40
0.0
 40
0.0
 40
0.0
 40
0.0
 40
1.0
 40
1.0
 40
1.0
 40
2.0
 40
2.0
 40
2.0
 40
3.0
 40
3.0
 40
3.0
 40
4.0
 40
4.0
 40
4.0
 40
5.0
 40
5.0
 40
5.0
 40
6.0
 40
6.0
 40
6.0
 40
7.0
 40
7.0
 40
7.0
 40
8.0
 40
8.0
 40
8.0
 40
9.0
 40
9.0
 40
9.0
 40
10.0
 40
10.0
 40
10.0
 40
10.0
 10
4.470700411208714
 20
-10.51236436369135
 10
4.486203340892338
 20
-10.46241047915523
 10
4.490509710248901
 20
-10.42279188107486
 10
4.483447264504139
 20
-10.39316405990171
 10
4.471561685080027
 20
-10.33942057033181
 10
4.404210068343392
 20
-10.29222276218389
 10
4.280703395197185
 20
-10.25363769274909
 10
4.280703395197185
 20
-10.25363769274909
 10
3.646805825911215
 20
-10.0552001927987
 10
3.646805825911215
 20
-10.0552001927987
 10
3.482474771264798
 20
-10.0028347414229
 10
3.375504556447791
 20
-10.0538221546046
 10
3.326067436234455
 20
-10.20678439414969
 10
3.326067436234455
 20
-10.20678439414969
 10
3.324861652814618
 20
-10.21057399918347
 10
3.324861652814618
 20
-10.21057399918347
 10
3.278180608989483
 20
-10.36456976737414
 10
3.337091741787255
 20
-10.46723361283458
 10
3.501422796433672
 20
-10.5185655355648
 10
3.501422796433672
 20
-10.5185655355648
 10
4.135320365719642
 20
-10.71769205461224
 10
4.135320365719642
 20
-10.71769205461224
 10
4.258654784091586
 20
-10.75627712404704
 10
4.340648056640533
 20
-10.75662163359557
 10
4.381300183366481
 20
-10.71872558325782
 10
4.40403781356913
 20
-10.69839951989485
 10
4.423158093512266
 20
-10.6632595459453
 10
4.439005532744416
 20
-10.6136501709577
 10
4.439005532744416
 20
-10.6136501709577
 10
4.470700411208714
 20
-10.51236436369135
 10
4.470700411208714
 20
-10.51236436369135
 97
        0
 97
        0
 92
        1
 93
        1
 72
     4
 94
        3
 73
     0
 74
     1
 95
       35
 96
       31
 40
0.0
 40
0.0
 40
0.0
 40
0.0
 40
1.0
 40
1.0
 40
1.0
 40
2.0
 40
2.0
 40
2.0
 40
3.0
 40
3.0
 40
3.0
 40
4.0
 40
4.0
 40
4.0
 40
5.0
 40
5.0
 40
5.0
 40
6.0
 40
6.0
 40
6.0
 40
7.0
 40
7.0
 40
7.0
 40
8.0
 40
8.0
 40
8.0
 40
9.0
 40
9.0
 40
9.0
 40
10.0
 40
10.0
 40
10.0
 40
10.0
 10
6.066985404299226
 20
-11.06668022726805
 10
6.114010957672886
 20
-10.91302896862591
 10
6.054927570100852
 20
-10.81036512316546
 10
5.890424260680172
 20
-10.75868869088672
 10
5.890424260680172
 20
-10.75868869088672
 10
5.305102537736224
 20
-10.5750651015229
 10
5.305102537736224
 20
-10.5750651015229
 10
5.171949597231318
 20
-10.53303493660285
 10
5.083927407583185
 20
-10.5364800320881
 10
5.04138047834035
 20
-10.5847113688816
 10
5.019504122009013
 20
-10.6108940945695
 10
4.998833549097514
 20
-10.6549913167807
 10
4.979368759605853
 20
-10.71700303551519
 10
4.979368759605853
 20
-10.71700303551519
 10
4.973339842506665
 20
-10.73595106068407
 10
4.973339842506665
 20
-10.73595106068407
 10
4.953875053015004
 20
-10.79865179851562
 10
4.945779078624667
 20
-10.84619411621206
 10
4.948707409787129
 20
-10.88030056151604
 10
4.956286619854678
 20
-10.94403482799316
 10
5.026566567753775
 20
-10.99708929846601
 10
5.159719508258681
 20
-11.03911946338605
 10
5.159719508258681
 20
-11.03911946338605
 10
5.744868976428366
 20
-11.22239854320135
 10
5.744868976428366
 20
-11.22239854320135
 10
5.909716795397571
 20
-11.27407497548009
 10
6.016514755440316
 20
-11.22343207184692
 10
6.065779620879389
 20
-11.07046983230183
 10
6.065779620879389
 20
-11.07046983230183
 10
6.066985404299226
 20
-11.06668022726805
 10
6.066985404299226
 20
-11.06668022726805
 97
        0
 97
        0
 75
     2
 76
     1
 98
        0
  0
SPLINE
  5
B0
330
6E
100
AcDbEntity
  8
Layer 1
370
     0
100
AcDbSpline
210
0.0
220
0.0
230
1.0
 70
    11
 71
     3
 72
    56
 73
    52
 74
     0
 42
0.0000000001
 43
0.0000000001
 12
1.0
 22
0.0
 32
0.0
 13
1.0
 23
0.0
 33
0.0
 40
0.0
 40
0.0
 40
0.0
 40
0.0
 40
1.0
 40
1.0
 40
1.0
 40
2.0
 40
2.0
 40
2.0
 40
3.0
 40
3.0
 40
3.0
 40
4.0
 40
4.0
 40
4.0
 40
5.0
 40
5.0
 40
5.0
 40
6.0
 40
6.0
 40
6.0
 40
7.0
 40
7.0
 40
7.0
 40
8.0
 40
8.0
 40
8.0
 40
9.0
 40
9.0
 40
9.0
 40
10.0
 40
10.0
 40
10.0
 40
11.0
 40
11.0
 40
11.0
 40
12.0
 40
12.0
 40
12.0
 40
13.0
 40
13.0
 40
13.0
 40
14.0
 40
14.0
 40
14.0
 40
15.0
 40
15.0
 40
15.0
 40
16.0
 40
16.0
 40
16.0
 40
17.0
 40
17.0
 40
17.0
 40
17.0
 10
8.305436195840308
 20
-6.100230575731887
 30
0.0
 10
8.27649739376421
 20
-6.238378904690405
 30
0.0
 10
8.200360783540187
 20
-6.35344509389775
 30
0.0
 10
8.077543129491032
 20
-6.444051105159821
 30
0.0
 10
8.05738932090232
 20
-6.45852050619787
 30
0.0
 10
8.035685219345245
 20
-6.473678926332969
 30
0.0
 10
8.012086315271285
 20
-6.487803817822494
 30
0.0
 10
7.858262801854879
 20
-6.57875433863309
 30
0.0
 10
7.708745657795036
 20
-6.610104707548863
 30
0.0
 10
7.563362628317493
 20
-6.582543943666864
 30
0.0
 10
7.413673229483388
 20
-6.55394965113929
 30
0.0
 10
7.253820798967795
 20
-6.424069551345371
 30
0.0
 10
7.083805336770715
 20
-6.193937172930682
 30
0.0
 10
7.083805336770715
 20
-6.193937172930682
 30
0.0
 10
6.629569497040524
 20
-5.579676647910636
 30
0.0
 10
6.629569497040524
 20
-5.579676647910636
 30
0.0
 10
6.309692381235077
 20
-5.146972654963257
 30
0.0
 10
6.363263616030713
 20
-4.772146266168074
 30
0.0
 10
6.789938691878905
 20
-4.45450846242804
 30
0.0
 10
7.216441512952835
 20
-4.139626735076205
 30
0.0
 10
7.590062118328179
 20
-4.198882377422501
 30
0.0
 10
7.910628253230676
 20
-4.632964408563981
 30
0.0
 10
7.910628253230676
 20
-4.632964408563981
 30
0.0
 10
9.308303491596536
 20
-6.523977320417617
 30
0.0
 10
9.308303491596536
 20
-6.523977320417617
 30
0.0
 10
9.628180607401983
 20
-6.956681313364997
 30
0.0
 10
9.574264863057824
 20
-7.331163192611654
 30
0.0
 10
9.14690076811258
 20
-7.647078448609064
 30
0.0
 10
8.720053437490126
 20
-7.9619601759609
 30
0.0
 10
8.346949596437568
 20
-7.903738062260177
 30
0.0
 10
8.027244735406384
 20
-7.470689559764272
 30
0.0
 10
8.027244735406384
 20
-7.470689559764272
 30
0.0
 10
7.719597708573573
 20
-7.054866534694617
 30
0.0
 10
7.719597708573573
 20
-7.054866534694617
 30
0.0
 10
7.719597708573573
 20
-7.054866534694617
 30
0.0
 10
8.165565319139164
 20
-6.724826387207683
 30
0.0
 10
8.165565319139164
 20
-6.724826387207683
 30
0.0
 10
8.165565319139164
 20
-6.724826387207683
 30
0.0
 10
8.473212345971975
 20
-7.140649412277338
 30
0.0
 10
8.473212345971975
 20
-7.140649412277338
 30
0.0
 10
8.575531681883895
 20
-7.279486760332906
 30
0.0
 10
8.691803654511077
 20
-7.30187988098703
 30
0.0
 10
8.821683754304996
 20
-7.20713975514266
 30
0.0
 10
8.821683754304996
 20
-7.20713975514266
 30
0.0
 10
8.824956595015983
 20
-7.20507269785151
 30
0.0
 10
8.824956595015983
 20
-7.20507269785151
 30
0.0
 10
8.953114147067277
 20
-7.110332572007139
 30
0.0
 10
8.965688745588439
 20
-6.993199325508645
 30
0.0
 10
8.862335881030944
 20
-6.853672958356026
 30
0.0
 10
8.862335881030944
 20
-6.853672958356026
 30
0.0
 10
8.305436195840308
 20
-6.100230575731887
 30
0.0
 10
8.305436195840308
 20
-6.100230575731887
 30
0.0
  0
SPLINE
  5
B1
330
6E
100
AcDbEntity
  8
Layer 1
370
     0
100
AcDbSpline
210
0.0
220
0.0
230
1.0
 70
    11
 71
     3
 72
    29
 73
    25
 74
     0
 42
0.0000000001
 43
0.0000000001
 12
1.0
 22
0.0
 32
0.0
 13
1.0
 23
0.0
 33
0.0
 40
0.0
 40
0.0
 40
0.0
 40
0.0
 40
1.0
 40
1.0
 40
1.0
 40
2.0
 40
2.0
 40
2.0
 40
3.0
 40
3.0
 40
3.0
 40
4.0
 40
4.0
 40
4.0
 40
5.0
 40
5.0
 40
5.0
 40
6.0
 40
6.0
 40
6.0
 40
7.0
 40
7.0
 40
7.0
 40
8.0
 40
8.0
 40
8.0
 40
8.0
 10
7.529772947336308
 20
-5.864586044540798
 30
0.0
 10
7.610560436465415
 20
-5.974140080971743
 30
0.0
 10
7.6813571486873
 20
-6.021337889119666
 30
0.0
 10
7.742335338776222
 20
-6.007212997630141
 30
0.0
 10
7.774202472014783
 20
-5.999978297111117
 30
0.0
 10
7.817610675128931
 20
-5.975862628714368
 30
0.0
 10
7.872215438570141
 20
-5.935555011536945
 30
0.0
 10
7.885823565736878
 20
-5.925564234629721
 30
0.0
 10
7.900120712000665
 20
-5.913850909979871
 30
0.0
 10
7.915279132135764
 20
-5.901448566232972
 30
0.0
 10
8.017770722821947
 20
-5.8204888223296
 30
0.0
 10
8.019148761016046
 20
-5.71265733364128
 30
0.0
 10
7.918896482395276
 20
-5.577265081070962
 30
0.0
 10
7.918896482395276
 20
-5.577265081070962
 30
0.0
 10
7.464832897439348
 20
-4.962660046502391
 30
0.0
 10
7.464832897439348
 20
-4.962660046502391
 30
0.0
 10
7.361480032881852
 20
-4.822789169801247
 30
0.0
 10
7.24520806025467
 20
-4.800740558695648
 30
0.0
 10
7.116016979557801
 20
-4.896169703637069
 30
0.0
 10
6.985620115441096
 20
-4.992632377224064
 30
0.0
 10
6.972356497822884
 20
-5.110454642819609
 30
0.0
 10
7.075537107606116
 20
-5.250325519520752
 30
0.0
 10
7.075537107606116
 20
-5.250325519520752
 30
0.0
 10
7.529772947336308
 20
-5.864586044540798
 30
0.0
 10
7.529772947336308
 20
-5.864586044540798
 30
0.0
  0
HATCH
  5
B2
330
6E
100
AcDbEntity
  8
Layer 1
 62
   250
420
  2301728
100
AcDbHatch
 10
0.0
 20
0.0
 30
0.0
210
0.0
220
0.0
230
1.0
  2
SOLID
 70
     1
 71
     0
 91
        2
 92
        1
 93
        1
 72
     4
 94
        3
 73
     0
 74
     1
 95
       56
 96
       52
 40
0.0
 40
0.0
 40
0.0
 40
0.0
 40
1.0
 40
1.0
 40
1.0
 40
2.0
 40
2.0
 40
2.0
 40
3.0
 40
3.0
 40
3.0
 40
4.0
 40
4.0
 40
4.0
 40
5.0
 40
5.0
 40
5.0
 40
6.0
 40
6.0
 40
6.0
 40
7.0
 40
7.0
 40
7.0
 40
8.0
 40
8.0
 40
8.0
 40
9.0
 40
9.0
 40
9.0
 40
10.0
 40
10.0
 40
10.0
 40
11.0
 40
11.0
 40
11.0
 40
12.0
 40
12.0
 40
12.0
 40
13.0
 40
13.0
 40
13.0
 40
14.0
 40
14.0
 40
14.0
 40
15.0
 40
15.0
 40
15.0
 40
16.0
 40
16.0
 40
16.0
 40
17.0
 40
17.0
 40
17.0
 40
17.0
 10
8.305436195840308
 20
-6.100230575731887
 10
8.27649739376421
 20
-6.238378904690405
 10
8.200360783540187
 20
-6.35344509389775
 10
8.077543129491032
 20
-6.444051105159821
 10
8.05738932090232
 20
-6.45852050619787
 10
8.035685219345245
 20
-6.473678926332969
 10
8.012086315271285
 20
-6.487803817822494
 10
7.858262801854879
 20
-6.57875433863309
 10
7.708745657795036
 20
-6.610104707548863
 10
7.563362628317493
 20
-6.582543943666864
 10
7.413673229483388
 20
-6.55394965113929
 10
7.253820798967795
 20
-6.424069551345371
 10
7.083805336770715
 20
-6.193937172930682
 10
7.083805336770715
 20
-6.193937172930682
 10
6.629569497040524
 20
-5.579676647910636
 10
6.629569497040524
 20
-5.579676647910636
 10
6.309692381235077
 20
-5.146972654963257
 10
6.363263616030713
 20
-4.772146266168074
 10
6.789938691878905
 20
-4.45450846242804
 10
7.216441512952835
 20
-4.139626735076205
 10
7.590062118328179
 20
-4.198882377422501
 10
7.910628253230676
 20
-4.632964408563981
 10
7.910628253230676
 20
-4.632964408563981
 10
9.308303491596536
 20
-6.523977320417617
 10
9.308303491596536
 20
-6.523977320417617
 10
9.628180607401983
 20
-6.956681313364997
 10
9.574264863057824
 20
-7.331163192611654
 10
9.14690076811258
 20
-7.647078448609064
 10
8.720053437490126
 20
-7.9619601759609
 10
8.346949596437568
 20
-7.903738062260177
 10
8.027244735406384
 20
-7.470689559764272
 10
8.027244735406384
 20
-7.470689559764272
 10
7.719597708573573
 20
-7.054866534694617
 10
7.719597708573573
 20
-7.054866534694617
 10
7.719597708573573
 20
-7.054866534694617
 10
8.165565319139164
 20
-6.724826387207683
 10
8.165565319139164
 20
-6.724826387207683
 10
8.165565319139164
 20
-6.724826387207683
 10
8.473212345971975
 20
-7.140649412277338
 10
8.473212345971975
 20
-7.140649412277338
 10
8.575531681883895
 20
-7.279486760332906
 10
8.691803654511077
 20
-7.30187988098703
 10
8.821683754304996
 20
-7.20713975514266
 10
8.821683754304996
 20
-7.20713975514266
 10
8.824956595015983
 20
-7.20507269785151
 10
8.824956595015983
 20
-7.20507269785151
 10
8.953114147067277
 20
-7.110332572007139
 10
8.965688745588439
 20
-6.993199325508645
 10
8.862335881030944
 20
-6.853672958356026
 10
8.862335881030944
 20
-6.853672958356026
 10
8.305436195840308
 20
-6.100230575731887
 10
8.305436195840308
 20
-6.100230575731887
 97
        0
 97
        0
 92
        1
 93
        1
 72
     4
 94
        3
 73
     0
 74
     1
 95
       29
 96
       25
 40
0.0
 40
0.0
 40
0.0
 40
0.0
 40
1.0
 40
1.0
 40
1.0
 40
2.0
 40
2.0
 40
2.0
 40
3.0
 40
3.0
 40
3.0
 40
4.0
 40
4.0
 40
4.0
 40
5.0
 40
5.0
 40
5.0
 40
6.0
 40
6.0
 40
6.0
 40
7.0
 40
7.0
 40
7.0
 40
8.0
 40
8.0
 40
8.0
 40
8.0
 10
7.529772947336308
 20
-5.864586044540798
 10
7.610560436465415
 20
-5.974140080971743
 10
7.6813571486873
 20
-6.021337889119666
 10
7.742335338776222
 20
-6.007212997630141
 10
7.774202472014783
 20
-5.999978297111117
 10
7.817610675128931
 20
-5.975862628714368
 10
7.872215438570141
 20
-5.935555011536945
 10
7.885823565736878
 20
-5.925564234629721
 10
7.900120712000665
 20
-5.913850909979871
 10
7.915279132135764
 20
-5.901448566232972
 10
8.017770722821947
 20
-5.8204888223296
 10
8.019148761016046
 20
-5.71265733364128
 10
7.918896482395276
 20
-5.577265081070962
 10
7.918896482395276
 20
-5.577265081070962
 10
7.464832897439348
 20
-4.962660046502391
 10
7.464832897439348
 20
-4.962660046502391
 10
7.361480032881852
 20
-4.822789169801247
 10
7.24520806025467
 20
-4.800740558695648
 10
7.116016979557801
 20
-4.896169703637069
 10
6.985620115441096
 20
-4.992632377224064
 10
6.972356497822884
 20
-5.110454642819609
 10
7.075537107606116
 20
-5.250325519520752
 10
7.075537107606116
 20
-5.250325519520752
 10
7.529772947336308
 20
-5.864586044540798
 10
7.529772947336308
 20
-5.864586044540798
 97
        0
 97
        0
 75
     2
 76
     1
 98
        0
  0
ENDBLK
  5
71
330
6E
100
AcDbEntity
  8
0
100
AcDbBlockEnd
  0
BLOCK
  5
B7
330
B5
100
AcDbEntity
  8
0
100
AcDbBlockBegin
  2
block 4
 70
     0
 10
0.0
 20
0.0
 30
0.0
  3
block 4
  1

  0
SPLINE
  5
B9
330
B5
100
AcDbEntity
  8
Middle
370
     0
100
AcDbSpline
210
0.0
220
0.0
230
1.0
 70
    11
 71
     3
 72
   125
 73
   121
 74
     0
 42
0.0000000001
 43
0.0000000001
 12
1.0
 22
0.0
 32
0.0
 13
1.0
 23
0.0
 33
0.0
 40
0.0
 40
0.0
 40
0.0
 40
0.0
 40
1.0
 40
1.0
 40
1.0
 40
2.0
 40
2.0
 40
2.0
 40
3.0
 40
3.0
 40
3.0
 40
4.0
 40
4.0
 40
4.0
 40
5.0
 40
5.0
 40
5.0
 40
6.0
 40
6.0
 40
6.0
 40
7.0
 40
7.0
 40
7.0
 40
8.0
 40
8.0
 40
8.0
 40
9.0
 40
9.0
 40
9.0
 40
10.0
 40
10.0
 40
10.0
 40
11.0
 40
11.0
 40
11.0
 40
12.0
 40
12.0
 40
12.0
 40
13.0
 40
13.0
 40
13.0
 40
14.0
 40
14.0
 40
14.0
 40
15.0
 40
15.0
 40
15.0
 40
16.0
 40
16.0
 40
16.0
 40
17.0
 40
17.0
 40
17.0
 40
18.0
 40
18.0
 40
18.0
 40
19.0
 40
19.0
 40
19.0
 40
20.0
 40
20.0
 40
20.0
 40
21.0
 40
21.0
 40
21.0
 40
22.0
 40
22.0
 40
22.0
 40
23.0
 40
23.0
 40
23.0
 40
24.0
 40
24.0
 40
24.0
 40
25.0
 40
25.0
 40
25.0
 40
26.0
 40
26.0
 40
26.0
 40
27.0
 40
27.0
 40
27.0
 40
28.0
 40
28.0
 40
28.0
 40
29.0
 40
29.0
 40
29.0
 40
30.0
 40
30.0
 40
30.0
 40
31.0
 40
31.0
 40
31.0
 40
32.0
 40
32.0
 40
32.0
 40
33.0
 40
33.0
 40
33.0
 40
34.0
 40
34.0
 40
34.0
 40
35.0
 40
35.0
 40
35.0
 40
36.0
 40
36.0
 40
36.0
 40
37.0
 40
37.0
 40
37.0
 40
38.0
 40
38.0
 40
38.0
 40
39.0
 40
39.0
 40
39.0
 40
40.0
 40
40.0
 40
40.0
 40
40.0
 10
11.81008412180279
 20
-16.42464344885608
 30
0.0
 10
11.52885148858217
 20
-16.42448876893767
 30
0.0
 10
11.24886248190034
 20
-16.4117122077232
 30
0.0
 10
11.00116136127418
 20
-16.27154456599454
 30
0.0
 10
10.59909045602125
 20
-16.04402236873238
 30
0.0
 10
10.32659337116188
 20
-15.72395332045484
 30
0.0
 10
10.27161631291496
 20
-15.23720985476321
 30
0.0
 10
10.16502901107393
 20
-14.29353118723385
 30
0.0
 10
10.4693755675416
 20
-13.48942536558762
 30
0.0
 10
11.06614136356766
 20
-12.77740338640294
 30
0.0
 10
11.45574604708249
 20
-12.31255290380743
 30
0.0
 10
11.93057359062055
 20
-11.95264222724604
 30
0.0
 10
12.46041294382621
 20
-11.66247445701024
 30
0.0
 10
12.55164150946231
 20
-11.61251284354031
 30
0.0
 10
12.63668514702311
 20
-11.63980106216997
 30
0.0
 10
12.65784597850638
 20
-11.73241741602864
 30
0.0
 10
12.66579137028636
 20
-11.76719276140267
 30
0.0
 10
12.65286982242816
 20
-11.83103019470451
 30
0.0
 10
12.62853289663191
 20
-11.84490312717692
 30
0.0
 10
12.4819876987695
 20
-11.92843894489832
 30
0.0
 10
12.4680308266609
 20
-12.07208791597768
 30
0.0
 10
12.4546314209763
 20
-12.2121532627209
 30
0.0
 10
12.44599017580557
 20
-12.30248303491396
 30
0.0
 10
12.4478333417062
 20
-12.3982476407018
 30
0.0
 10
12.46851342800488
 20
-12.48603200016666
 30
0.0
 10
12.51219276817052
 20
-12.67144537402873
 30
0.0
 10
12.68438822745203
 20
-12.71802877809207
 30
0.0
 10
12.81369548278682
 20
-12.57867599017091
 30
0.0
 10
12.87626969675844
 20
-12.51124049574066
 30
0.0
 10
12.92106953825025
 20
-12.42446877413834
 30
0.0
 10
12.96215541179266
 20
-12.34068402486917
 30
0.0
 10
13.00940332078303
 20
-12.24433349155311
 30
0.0
 10
13.0389593532481
 20
-12.1394149282258
 30
0.0
 10
13.08444824221353
 20
-12.04207279351642
 30
0.0
 10
13.20035567938471
 20
-11.79404189530529
 30
0.0
 10
13.41379437324445
 20
-11.65872254092209
 30
0.0
 10
13.66152890473322
 20
-11.57768830995334
 30
0.0
 10
13.96014817944205
 20
-11.48000990110177
 30
0.0
 10
14.23554979223864
 20
-11.34642089939976
 30
0.0
 10
14.47064676819819
 20
-11.13462954666473
 30
0.0
 10
14.53521759054989
 20
-11.07645979179458
 30
0.0
 10
14.59087266243576
 20
-11.07420249619187
 30
0.0
 10
14.64810423204438
 20
-11.11322081483313
 30
0.0
 10
14.7041721961921
 20
-11.15144614109479
 30
0.0
 10
14.71819857114269
 20
-11.20583665309239
 30
0.0
 10
14.69253160429293
 20
-11.28676291747906
 30
0.0
 10
14.68507108249405
 20
-11.31028292706955
 30
0.0
 10
14.67087517835315
 20
-11.33352935944528
 30
0.0
 10
14.67067471317941
 20
-11.35699450922491
 30
0.0
 10
14.67044867425962
 20
-11.38337011633908
 30
0.0
 10
14.67460770789131
 20
-11.421627512904
 30
0.0
 10
14.69150370467818
 20
-11.43304515948108
 30
0.0
 10
14.70915742682328
 20
-11.44497500282623
 30
0.0
 10
14.75109919591223
 20
-11.4406914003009
 30
0.0
 10
14.77045233475575
 20
-11.42680805271297
 30
0.0
 10
14.83788452934751
 20
-11.37843458952024
 30
0.0
 10
14.90009802975203
 20
-11.32279271698703
 30
0.0
 10
14.9643586673089
 20
-11.26999128334568
 30
0.0
 10
15.35034280954441
 20
-10.95283692032021
 30
0.0
 10
15.73560098736569
 20
-10.63478562001045
 30
0.0
 10
16.12379684618679
 20
-10.32036202781498
 30
0.0
 10
16.15384599823046
 20
-10.29602350365872
 30
0.0
 10
16.20765192325789
 20
-10.28204012972439
 30
0.0
 10
16.24506218947191
 20
-10.28963045375364
 30
0.0
 10
16.32847715061716
 20
-10.30655504054604
 30
0.0
 10
16.34849768174591
 20
-10.37615491950832
 30
0.0
 10
16.2974281475846
 20
-10.44924752257447
 30
0.0
 10
16.20597230558977
 20
-10.58014163918699
 30
0.0
 10
16.11197105086609
 20
-10.70925415250583
 30
0.0
 10
16.01950958316533
 20
-10.83944942525094
 30
0.0
 10
15.60139202855304
 20
-11.42820347181196
 30
0.0
 10
15.18160640570541
 20
-12.01578875691422
 30
0.0
 10
14.76689304672541
 20
-12.60693168012694
 30
0.0
 10
14.67816782088095
 20
-12.73340231200905
 30
0.0
 10
14.60438714997947
 20
-12.87095668808484
 30
0.0
 10
14.53102308365734
 20
-13.00733240318768
 30
0.0
 10
14.49790054476451
 20
-13.06890367257143
 30
0.0
 10
14.46111889773637
 20
-13.14438355393054
 30
0.0
 10
14.5250718253776
 20
-13.20738406575554
 30
0.0
 10
14.58876406579557
 20
-13.27012739643848
 30
0.0
 10
14.66424580331406
 20
-13.23656020434301
 30
0.0
 10
14.73323428411926
 20
-13.20879969636447
 30
0.0
 10
14.77051668160179
 20
-13.19379739425115
 30
0.0
 10
14.80593797031151
 20
-13.1731253513079
 30
0.0
 10
14.84011192016624
 20
-13.15168423981442
 30
0.0
 10
14.89288128350368
 20
-13.11857655019479
 30
0.0
 10
14.94545389398617
 20
-13.1069460640506
 30
0.0
 10
14.99369051701293
 20
-13.15464275104269
 30
0.0
 10
15.04112486686443
 20
-13.20154603317681
 30
0.0
 10
15.04059235546731
 20
-13.2541910338614
 30
0.0
 10
15.01122008274469
 20
-13.31476533961447
 30
0.0
 10
14.84076033838112
 20
-13.6663070076599
 30
0.0
 10
14.60291335972247
 20
-13.95024158968587
 30
0.0
 10
14.24797615811998
 20
-14.13294992114424
 30
0.0
 10
14.0219219763978
 20
-14.24931335471392
 30
0.0
 10
13.86957174433961
 20
-14.44116471299813
 30
0.0
 10
13.78328221159906
 20
-14.68146470891436
 30
0.0
 10
13.76843128956629
 20
-14.72282158167324
 30
0.0
 10
13.76150987884086
 20
-14.76913976123715
 30
0.0
 10
13.76127476536684
 20
-14.81322147542937
 30
0.0
 10
13.76065150841771
 20
-14.93003698683797
 30
0.0
 10
13.83177415960978
 20
-14.9832279045125
 30
0.0
 10
13.94366218755498
 20
-14.94686203710311
 30
0.0
 10
13.99838588009643
 20
-14.92907632142809
 30
0.0
 10
14.04968227813746
 20
-14.89850785734062
 30
0.0
 10
14.09967317767158
 20
-14.86890088362234
 30
0.0
 10
14.18300193054225
 20
-14.81954974022915
 30
0.0
 10
14.23035130955877
 20
-14.81796086811241
 30
0.0
 10
14.28910534203919
 20
-14.86968500768592
 30
0.0
 10
14.34138055460051
 20
-14.91570496436872
 30
0.0
 10
14.34563157122317
 20
-14.96509034358381
 30
0.0
 10
14.30531043519433
 20
-15.05335317959487
 30
0.0
 10
14.16168167562298
 20
-15.36775970543926
 30
0.0
 10
13.93059730297229
 20
-15.60757668753249
 30
0.0
 10
13.65123052204206
 20
-15.80146652089384
 30
0.0
 10
13.29846131416743
 20
-16.046298432164
 30
0.0
 10
12.9232950729083
 20
-16.25122581198404
 30
0.0
 10
12.49811277084674
 20
-16.33681990381157
 30
0.0
 10
12.27203837761589
 20
-16.38233086044441
 30
0.0
 10
12.03963221350856
 20
-16.39638817138034
 30
0.0
 10
11.81008412180279
 20
-16.42464344885608
 30
0.0
  0
SPLINE
  5
BA
330
B5
100
AcDbEntity
  8
Middle
370
     0
100
AcDbSpline
210
0.0
220
0.0
230
1.0
 70
    11
 71
     3
 72
    38
 73
    34
 74
     0
 42
0.0000000001
 43
0.0000000001
 12
1.0
 22
0.0
 32
0.0
 13
1.0
 23
0.0
 33
0.0
 40
0.0
 40
0.0
 40
0.0
 40
0.0
 40
1.0
 40
1.0
 40
1.0
 40
2.0
 40
2.0
 40
2.0
 40
3.0
 40
3.0
 40
3.0
 40
4.0
 40
4.0
 40
4.0
 40
5.0
 40
5.0
 40
5.0
 40
6.0
 40
6.0
 40
6.0
 40
7.0
 40
7.0
 40
7.0
 40
8.0
 40
8.0
 40
8.0
 40
9.0
 40
9.0
 40
9.0
 40
10.0
 40
10.0
 40
10.0
 40
11.0
 40
11.0
 40
11.0
 40
11.0
 10
11.03074090508639
 20
-14.84107664751757
 30
0.0
 10
11.01818192695533
 20
-15.27145887593746
 30
0.0
 10
11.21320391419538
 20
-15.65596757799608
 30
0.0
 10
11.61743812122038
 20
-15.71864346823464
 30
0.0
 10
11.70801929983976
 20
-15.73268840477592
 30
0.0
 10
11.80188175511832
 20
-15.74322602574081
 30
0.0
 10
11.89259987702536
 20
-15.73569579485916
 30
0.0
 10
12.30229541946959
 20
-15.70169013675708
 30
0.0
 10
12.50500427678819
 20
-15.53712637838273
 30
0.0
 10
12.58374398585502
 20
-15.1747488664913
 30
0.0
 10
12.6354945241358
 20
-14.93658139104271
 30
0.0
 10
12.65048073953761
 20
-14.69038664657622
 30
0.0
 10
12.68114036165739
 20
-14.44768684329404
 30
0.0
 10
12.70578870968805
 20
-14.25257235746298
 30
0.0
 10
12.7565620833665
 20
-14.06944783390555
 30
0.0
 10
12.90064415821573
 20
-13.92367005467669
 30
0.0
 10
12.93315395839276
 20
-13.89077809198301
 30
0.0
 10
12.96135293237918
 20
-13.85003705153634
 30
0.0
 10
12.9801135440162
 20
-13.80783170786785
 30
0.0
 10
13.03174013212121
 20
-13.69168771354355
 30
0.0
 10
12.95806258116512
 20
-13.55504099922488
 30
0.0
 10
12.83669349921418
 20
-13.55317205333679
 30
0.0
 10
12.78078825834093
 20
-13.5523116205141
 30
0.0
 10
12.71832335151138
 20
-13.57954972284985
 30
0.0
 10
12.66916298001662
 20
-13.61047085715028
 30
0.0
 10
12.49678314227288
 20
-13.71889529237552
 30
0.0
 10
12.31362170177485
 20
-13.78033250583046
 30
0.0
 10
12.1082216201263
 20
-13.77017642866434
 30
0.0
 10
11.87320899628193
 20
-13.75855687323378
 30
0.0
 10
11.67249138510666
 20
-13.83762058516982
 30
0.0
 10
11.50168546708735
 20
-13.99918891537465
 30
0.0
 10
11.22528317834129
 20
-14.26064169941808
 30
0.0
 10
11.0449649609742
 20
-14.56865850097613
 30
0.0
 10
11.03074090508639
 20
-14.84107664751757
 30
0.0
  0
SPLINE
  5
BB
330
B5
100
AcDbEntity
  8
Middle
370
     0
100
AcDbSpline
210
0.0
220
0.0
230
1.0
 70
    11
 71
     3
 72
    29
 73
    25
 74
     0
 42
0.0000000001
 43
0.0000000001
 12
1.0
 22
0.0
 32
0.0
 13
1.0
 23
0.0
 33
0.0
 40
0.0
 40
0.0
 40
0.0
 40
0.0
 40
1.0
 40
1.0
 40
1.0
 40
2.0
 40
2.0
 40
2.0
 40
3.0
 40
3.0
 40
3.0
 40
4.0
 40
4.0
 40
4.0
 40
5.0
 40
5.0
 40
5.0
 40
6.0
 40
6.0
 40
6.0
 40
7.0
 40
7.0
 40
7.0
 40
8.0
 40
8.0
 40
8.0
 40
8.0
 10
13.77957896812636
 20
-13.6843348489675
 30
0.0
 10
13.7744155462277
 20
-13.67457392743055
 30
0.0
 10
13.76722684860587
 20
-13.64114904085947
 30
0.0
 10
13.7522662069501
 20
-13.63720449671478
 30
0.0
 10
13.72786885286418
 20
-13.63077311196897
 30
0.0
 10
13.6908013573483
 20
-13.63442727034848
 30
0.0
 10
13.67231648844533
 20
-13.64977151820128
 30
0.0
 10
13.56161722722806
 20
-13.74166417628476
 30
0.0
 10
13.45270771578092
 20
-13.83596777868797
 30
0.0
 10
13.34728489592252
 20
-13.93386407998286
 30
0.0
 10
13.28643752855282
 20
-13.99036803525864
 30
0.0
 10
13.23010887718503
 20
-14.05255142463839
 30
0.0
 10
13.17742881571858
 20
-14.11683474858246
 30
0.0
 10
13.10877733089385
 20
-14.20060774217742
 30
0.0
 10
13.11622980933665
 20
-14.30120619851845
 30
0.0
 10
13.18930287117253
 20
-14.36446987244334
 30
0.0
 10
13.26549077407624
 20
-14.43043033917764
 30
0.0
 10
13.36901969302095
 20
-14.42305973797148
 30
0.0
 10
13.44047892771448
 20
-14.34062317886686
 30
0.0
 10
13.4978053676729
 20
-14.27449070806435
 30
0.0
 10
13.55301784875438
 20
-14.2056820684433
 30
0.0
 10
13.60161497910811
 20
-14.13300973071284
 30
0.0
 10
13.68974540910896
 20
-14.00121831589626
 30
0.0
 10
13.75160335194232
 20
-13.85739899066727
 30
0.0
 10
13.77957896812636
 20
-13.6843348489675
 30
0.0
  0
HATCH
  5
BC
330
B5
100
AcDbEntity
  8
Middle
 62
     7
420
 16777215
100
AcDbHatch
 10
0.0
 20
0.0
 30
0.0
210
0.0
220
0.0
230
1.0
  2
SOLID
 70
     1
 71
     0
 91
        3
 92
        1
 93
        1
 72
     4
 94
        3
 73
     0
 74
     1
 95
      125
 96
      121
 40
0.0
 40
0.0
 40
0.0
 40
0.0
 40
1.0
 40
1.0
 40
1.0
 40
2.0
 40
2.0
 40
2.0
 40
3.0
 40
3.0
 40
3.0
 40
4.0
 40
4.0
 40
4.0
 40
5.0
 40
5.0
 40
5.0
 40
6.0
 40
6.0
 40
6.0
 40
7.0
 40
7.0
 40
7.0
 40
8.0
 40
8.0
 40
8.0
 40
9.0
 40
9.0
 40
9.0
 40
10.0
 40
10.0
 40
10.0
 40
11.0
 40
11.0
 40
11.0
 40
12.0
 40
12.0
 40
12.0
 40
13.0
 40
13.0
 40
13.0
 40
14.0
 40
14.0
 40
14.0
 40
15.0
 40
15.0
 40
15.0
 40
16.0
 40
16.0
 40
16.0
 40
17.0
 40
17.0
 40
17.0
 40
18.0
 40
18.0
 40
18.0
 40
19.0
 40
19.0
 40
19.0
 40
20.0
 40
20.0
 40
20.0
 40
21.0
 40
21.0
 40
21.0
 40
22.0
 40
22.0
 40
22.0
 40
23.0
 40
23.0
 40
23.0
 40
24.0
 40
24.0
 40
24.0
 40
25.0
 40
25.0
 40
25.0
 40
26.0
 40
26.0
 40
26.0
 40
27.0
 40
27.0
 40
27.0
 40
28.0
 40
28.0
 40
28.0
 40
29.0
 40
29.0
 40
29.0
 40
30.0
 40
30.0
 40
30.0
 40
31.0
 40
31.0
 40
31.0
 40
32.0
 40
32.0
 40
32.0
 40
33.0
 40
33.0
 40
33.0
 40
34.0
 40
34.0
 40
34.0
 40
35.0
 40
35.0
 40
35.0
 40
36.0
 40
36.0
 40
36.0
 40
37.0
 40
37.0
 40
37.0
 40
38.0
 40
38.0
 40
38.0
 40
39.0
 40
39.0
 40
39.0
 40
40.0
 40
40.0
 40
40.0
 40
40.0
 10
11.81008412180279
 20
-16.42464344885608
 10
11.52885148858217
 20
-16.42448876893767
 10
11.24886248190034
 20
-16.4117122077232
 10
11.00116136127418
 20
-16.27154456599454
 10
10.59909045602125
 20
-16.04402236873238
 10
10.32659337116188
 20
-15.72395332045484
 10
10.27161631291496
 20
-15.23720985476321
 10
10.16502901107393
 20
-14.29353118723385
 10
10.4693755675416
 20
-13.48942536558762
 10
11.06614136356766
 20
-12.77740338640294
 10
11.45574604708249
 20
-12.31255290380743
 10
11.93057359062055
 20
-11.95264222724604
 10
12.46041294382621
 20
-11.66247445701024
 10
12.55164150946231
 20
-11.61251284354031
 10
12.63668514702311
 20
-11.63980106216997
 10
12.65784597850638
 20
-11.73241741602864
 10
12.66579137028636
 20
-11.76719276140267
 10
12.65286982242816
 20
-11.83103019470451
 10
12.62853289663191
 20
-11.84490312717692
 10
12.4819876987695
 20
-11.92843894489832
 10
12.4680308266609
 20
-12.07208791597768
 10
12.4546314209763
 20
-12.2121532627209
 10
12.44599017580557
 20
-12.30248303491396
 10
12.4478333417062
 20
-12.3982476407018
 10
12.46851342800488
 20
-12.48603200016666
 10
12.51219276817052
 20
-12.67144537402873
 10
12.68438822745203
 20
-12.71802877809207
 10
12.81369548278682
 20
-12.57867599017091
 10
12.87626969675844
 20
-12.51124049574066
 10
12.92106953825025
 20
-12.42446877413834
 10
12.96215541179266
 20
-12.34068402486917
 10
13.00940332078303
 20
-12.24433349155311
 10
13.0389593532481
 20
-12.1394149282258
 10
13.08444824221353
 20
-12.04207279351642
 10
13.20035567938471
 20
-11.79404189530529
 10
13.41379437324445
 20
-11.65872254092209
 10
13.66152890473322
 20
-11.57768830995334
 10
13.96014817944205
 20
-11.48000990110177
 10
14.23554979223864
 20
-11.34642089939976
 10
14.47064676819819
 20
-11.13462954666473
 10
14.53521759054989
 20
-11.07645979179458
 10
14.59087266243576
 20
-11.07420249619187
 10
14.64810423204438
 20
-11.11322081483313
 10
14.7041721961921
 20
-11.15144614109479
 10
14.71819857114269
 20
-11.20583665309239
 10
14.69253160429293
 20
-11.28676291747906
 10
14.68507108249405
 20
-11.31028292706955
 10
14.67087517835315
 20
-11.33352935944528
 10
14.67067471317941
 20
-11.35699450922491
 10
14.67044867425962
 20
-11.38337011633908
 10
14.67460770789131
 20
-11.421627512904
 10
14.69150370467818
 20
-11.43304515948108
 10
14.70915742682328
 20
-11.44497500282623
 10
14.75109919591223
 20
-11.4406914003009
 10
14.77045233475575
 20
-11.42680805271297
 10
14.83788452934751
 20
-11.37843458952024
 10
14.90009802975203
 20
-11.32279271698703
 10
14.9643586673089
 20
-11.26999128334568
 10
15.35034280954441
 20
-10.95283692032021
 10
15.73560098736569
 20
-10.63478562001045
 10
16.12379684618679
 20
-10.32036202781498
 10
16.15384599823046
 20
-10.29602350365872
 10
16.20765192325789
 20
-10.28204012972439
 10
16.24506218947191
 20
-10.28963045375364
 10
16.32847715061716
 20
-10.30655504054604
 10
16.34849768174591
 20
-10.37615491950832
 10
16.2974281475846
 20
-10.44924752257447
 10
16.20597230558977
 20
-10.58014163918699
 10
16.11197105086609
 20
-10.70925415250583
 10
16.01950958316533
 20
-10.83944942525094
 10
15.60139202855304
 20
-11.42820347181196
 10
15.18160640570541
 20
-12.01578875691422
 10
14.76689304672541
 20
-12.60693168012694
 10
14.67816782088095
 20
-12.73340231200905
 10
14.60438714997947
 20
-12.87095668808484
 10
14.53102308365734
 20
-13.00733240318768
 10
14.49790054476451
 20
-13.06890367257143
 10
14.46111889773637
 20
-13.14438355393054
 10
14.5250718253776
 20
-13.20738406575554
 10
14.58876406579557
 20
-13.27012739643848
 10
14.66424580331406
 20
-13.23656020434301
 10
14.73323428411926
 20
-13.20879969636447
 10
14.77051668160179
 20
-13.19379739425115
 10
14.80593797031151
 20
-13.1731253513079
 10
14.84011192016624
 20
-13.15168423981442
 10
14.89288128350368
 20
-13.11857655019479
 10
14.94545389398617
 20
-13.1069460640506
 10
14.99369051701293
 20
-13.15464275104269
 10
15.04112486686443
 20
-13.20154603317681
 10
15.04059235546731
 20
-13.2541910338614
 10
15.01122008274469
 20
-13.31476533961447
 10
14.84076033838112
 20
-13.6663070076599
 10
14.60291335972247
 20
-13.95024158968587
 10
14.24797615811998
 20
-14.13294992114424
 10
14.0219219763978
 20
-14.24931335471392
 10
13.86957174433961
 20
-14.44116471299813
 10
13.78328221159906
 20
-14.68146470891436
 10
13.76843128956629
 20
-14.72282158167324
 10
13.76150987884086
 20
-14.76913976123715
 10
13.76127476536684
 20
-14.81322147542937
 10
13.76065150841771
 20
-14.93003698683797
 10
13.83177415960978
 20
-14.9832279045125
 10
13.94366218755498
 20
-14.94686203710311
 10
13.99838588009643
 20
-14.92907632142809
 10
14.04968227813746
 20
-14.89850785734062
 10
14.09967317767158
 20
-14.86890088362234
 10
14.18300193054225
 20
-14.81954974022915
 10
14.23035130955877
 20
-14.81796086811241
 10
14.28910534203919
 20
-14.86968500768592
 10
14.34138055460051
 20
-14.91570496436872
 10
14.34563157122317
 20
-14.96509034358381
 10
14.30531043519433
 20
-15.05335317959487
 10
14.16168167562298
 20
-15.36775970543926
 10
13.93059730297229
 20
-15.60757668753249
 10
13.65123052204206
 20
-15.80146652089384
 10
13.29846131416743
 20
-16.046298432164
 10
12.9232950729083
 20
-16.25122581198404
 10
12.49811277084674
 20
-16.33681990381157
 10
12.27203837761589
 20
-16.38233086044441
 10
12.03963221350856
 20
-16.39638817138034
 10
11.81008412180279
 20
-16.42464344885608
 97
        0
 97
        0
 92
        1
 93
        1
 72
     4
 94
        3
 73
     0
 74
     1
 95
       38
 96
       34
 40
0.0
 40
0.0
 40
0.0
 40
0.0
 40
1.0
 40
1.0
 40
1.0
 40
2.0
 40
2.0
 40
2.0
 40
3.0
 40
3.0
 40
3.0
 40
4.0
 40
4.0
 40
4.0
 40
5.0
 40
5.0
 40
5.0
 40
6.0
 40
6.0
 40
6.0
 40
7.0
 40
7.0
 40
7.0
 40
8.0
 40
8.0
 40
8.0
 40
9.0
 40
9.0
 40
9.0
 40
10.0
 40
10.0
 40
10.0
 40
11.0
 40
11.0
 40
11.0
 40
11.0
 10
11.03074090508639
 20
-14.84107664751757
 10
11.01818192695533
 20
-15.27145887593746
 10
11.21320391419538
 20
-15.65596757799608
 10
11.61743812122038
 20
-15.71864346823464
 10
11.70801929983976
 20
-15.73268840477592
 10
11.80188175511832
 20
-15.74322602574081
 10
11.89259987702536
 20
-15.73569579485916
 10
12.30229541946959
 20
-15.70169013675708
 10
12.50500427678819
 20
-15.53712637838273
 10
12.58374398585502
 20
-15.1747488664913
 10
12.6354945241358
 20
-14.93658139104271
 10
12.65048073953761
 20
-14.69038664657622
 10
12.68114036165739
 20
-14.44768684329404
 10
12.70578870968805
 20
-14.25257235746298
 10
12.7565620833665
 20
-14.06944783390555
 10
12.90064415821573
 20
-13.92367005467669
 10
12.93315395839276
 20
-13.89077809198301
 10
12.96135293237918
 20
-13.85003705153634
 10
12.9801135440162
 20
-13.80783170786785
 10
13.03174013212121
 20
-13.69168771354355
 10
12.95806258116512
 20
-13.55504099922488
 10
12.83669349921418
 20
-13.55317205333679
 10
12.78078825834093
 20
-13.5523116205141
 10
12.71832335151138
 20
-13.57954972284985
 10
12.66916298001662
 20
-13.61047085715028
 10
12.49678314227288
 20
-13.71889529237552
 10
12.31362170177485
 20
-13.78033250583046
 10
12.1082216201263
 20
-13.77017642866434
 10
11.87320899628193
 20
-13.75855687323378
 10
11.67249138510666
 20
-13.83762058516982
 10
11.50168546708735
 20
-13.99918891537465
 10
11.22528317834129
 20
-14.26064169941808
 10
11.0449649609742
 20
-14.56865850097613
 10
11.03074090508639
 20
-14.84107664751757
 97
        0
 97
        0
 92
        1
 93
        1
 72
     4
 94
        3
 73
     0
 74
     1
 95
       29
 96
       25
 40
0.0
 40
0.0
 40
0.0
 40
0.0
 40
1.0
 40
1.0
 40
1.0
 40
2.0
 40
2.0
 40
2.0
 40
3.0
 40
3.0
 40
3.0
 40
4.0
 40
4.0
 40
4.0
 40
5.0
 40
5.0
 40
5.0
 40
6.0
 40
6.0
 40
6.0
 40
7.0
 40
7.0
 40
7.0
 40
8.0
 40
8.0
 40
8.0
 40
8.0
 10
13.77957896812636
 20
-13.6843348489675
 10
13.7744155462277
 20
-13.67457392743055
 10
13.76722684860587
 20
-13.64114904085947
 10
13.7522662069501
 20
-13.63720449671478
 10
13.72786885286418
 20
-13.63077311196897
 10
13.6908013573483
 20
-13.63442727034848
 10
13.67231648844533
 20
-13.64977151820128
 10
13.56161722722806
 20
-13.74166417628476
 10
13.45270771578092
 20
-13.83596777868797
 10
13.34728489592252
 20
-13.93386407998286
 10
13.28643752855282
 20
-13.99036803525864
 10
13.23010887718503
 20
-14.05255142463839
 10
13.17742881571858
 20
-14.11683474858246
 10
13.10877733089385
 20
-14.20060774217742
 10
13.11622980933665
 20
-14.30120619851845
 10
13.18930287117253
 20
-14.36446987244334
 10
13.26549077407624
 20
-14.43043033917764
 10
13.36901969302095
 20
-14.42305973797148
 10
13.44047892771448
 20
-14.34062317886686
 10
13.4978053676729
 20
-14.27449070806435
 10
13.55301784875438
 20
-14.2056820684433
 10
13.60161497910811
 20
-14.13300973071284
 10
13.68974540910896
 20
-14.00121831589626
 10
13.75160335194232
 20
-13.85739899066727
 10
13.77957896812636
 20
-13.6843348489675
 97
        0
 97
        0
 75
     2
 76
     1
 98
        0
  0
SPLINE
  5
BD
330
B5
100
AcDbEntity
  8
Middle
370
     0
100
AcDbSpline
210
0.0
220
0.0
230
1.0
 70
    11
 71
     3
 72
    29
 73
    25
 74
     0
 42
0.0000000001
 43
0.0000000001
 12
1.0
 22
0.0
 32
0.0
 13
1.0
 23
0.0
 33
0.0
 40
0.0
 40
0.0
 40
0.0
 40
0.0
 40
1.0
 40
1.0
 40
1.0
 40
2.0
 40
2.0
 40
2.0
 40
3.0
 40
3.0
 40
3.0
 40
4.0
 40
4.0
 40
4.0
 40
5.0
 40
5.0
 40
5.0
 40
6.0
 40
6.0
 40
6.0
 40
7.0
 40
7.0
 40
7.0
 40
8.0
 40
8.0
 40
8.0
 40
8.0
 10
12.95381919541953
 20
-11.17139087906447
 30
0.0
 10
12.97692507530922
 20
-11.13198709806808
 30
0.0
 10
12.99400256320141
 20
-11.08708692087061
 30
0.0
 10
13.0241088436937
 20
-11.05406574888546
 30
0.0
 10
13.2297603317705
 20
-10.82850386178258
 30
0.0
 10
13.47953210089681
 20
-10.66111678242797
 30
0.0
 10
13.74719146820457
 20
-10.51914356201832
 30
0.0
 10
13.77932776794019
 20
-10.50209747414973
 30
0.0
 10
13.82014800450352
 20
-10.49419559898605
 30
0.0
 10
13.8568356061418
 20
-10.49451356933757
 30
0.0
 10
13.92586492244653
 20
-10.49511192281969
 30
0.0
 10
13.96926645747922
 20
-10.56545132646801
 30
0.0
 10
13.94111636234713
 20
-10.6282450312436
 30
0.0
 10
13.9266886445694
 20
-10.66042897239266
 30
0.0
 10
13.90707605594413
 20
-10.69303668495797
 30
0.0
 10
13.88189746515411
 20
-10.71721795119752
 30
0.0
 10
13.68226385084276
 20
-10.90894566866715
 30
0.0
 10
13.48092587007655
 20
-11.09890281667585
 30
0.0
 10
13.27964027424266
 20
-11.28890471874172
 30
0.0
 10
13.22634252430461
 20
-11.33921477450643
 30
0.0
 10
13.16631908529857
 20
-11.36948615003135
 30
0.0
 10
13.08998949558961
 20
-11.34518810045421
 30
0.0
 10
13.01866926658263
 20
-11.32248500707011
 30
0.0
 10
12.96501843395261
 20
-11.25135730300055
 30
0.0
 10
12.95381919541953
 20
-11.17139087906447
 30
0.0
  0
HATCH
  5
BE
330
B5
100
AcDbEntity
  8
Middle
 62
     7
420
 16777215
100
AcDbHatch
 10
0.0
 20
0.0
 30
0.0
210
0.0
220
0.0
230
1.0
  2
SOLID
 70
     1
 71
     0
 91
        1
 92
        1
 93
        1
 72
     4
 94
        3
 73
     0
 74
     1
 95
       29
 96
       25
 40
0.0
 40
0.0
 40
0.0
 40
0.0
 40
1.0
 40
1.0
 40
1.0
 40
2.0
 40
2.0
 40
2.0
 40
3.0
 40
3.0
 40
3.0
 40
4.0
 40
4.0
 40
4.0
 40
5.0
 40
5.0
 40
5.0
 40
6.0
 40
6.0
 40
6.0
 40
7.0
 40
7.0
 40
7.0
 40
8.0
 40
8.0
 40
8.0
 40
8.0
 10
12.95381919541953
 20
-11.17139087906447
 10
12.97692507530922
 20
-11.13198709806808
 10
12.99400256320141
 20
-11.08708692087061
 10
13.0241088436937
 20
-11.05406574888546
 10
13.2297603317705
 20
-10.82850386178258
 10
13.47953210089681
 20
-10.66111678242797
 10
13.74719146820457
 20
-10.51914356201832
 10
13.77932776794019
 20
-10.50209747414973
 10
13.82014800450352
 20
-10.49419559898605
 10
13.8568356061418
 20
-10.49451356933757
 10
13.92586492244653
 20
-10.49511192281969
 10
13.96926645747922
 20
-10.56545132646801
 10
13.94111636234713
 20
-10.6282450312436
 10
13.9266886445694
 20
-10.66042897239266
 10
13.90707605594413
 20
-10.69303668495797
 10
13.88189746515411
 20
-10.71721795119752
 10
13.68226385084276
 20
-10.90894566866715
 10
13.48092587007655
 20
-11.09890281667585
 10
13.27964027424266
 20
-11.28890471874172
 10
13.22634252430461
 20
-11.33921477450643
 10
13.16631908529857
 20
-11.36948615003135
 10
13.08998949558961
 20
-11.34518810045421
 10
13.01866926658263
 20
-11.32248500707011
 10
12.96501843395261
 20
-11.25135730300055
 10
12.95381919541953
 20
-11.17139087906447
 97
        0
 97
        0
 75
     2
 76
     1
 98
        0
  0
SPLINE
  5
BF
330
B5
100
AcDbEntity
  8
Middle
370
     0
100
AcDbSpline
210
0.0
220
0.0
230
1.0
 70
    11
 71
     3
 72
    32
 73
    28
 74
     0
 42
0.0000000001
 43
0.0000000001
 12
1.0
 22
0.0
 32
0.0
 13
1.0
 23
0.0
 33
0.0
 40
0.0
 40
0.0
 40
0.0
 40
0.0
 40
1.0
 40
1.0
 40
1.0
 40
2.0
 40
2.0
 40
2.0
 40
3.0
 40
3.0
 40
3.0
 40
4.0
 40
4.0
 40
4.0
 40
5.0
 40
5.0
 40
5.0
 40
6.0
 40
6.0
 40
6.0
 40
7.0
 40
7.0
 40
7.0
 40
8.0
 40
8.0
 40
8.0
 40
9.0
 40
9.0
 40
9.0
 40
9.0
 10
15.33942323230174
 20
-12.54684657539291
 30
0.0
 10
15.34628978321695
 20
-12.531008589243
 30
0.0
 10
15.35269435677584
 20
-12.49172339618435
 30
0.0
 10
15.37535269610341
 20
-12.46789052068034
 30
0.0
 10
15.54164433227977
 20
-12.29297723212276
 30
0.0
 10
15.72000223948888
 20
-12.13302107914167
 30
0.0
 10
15.94829989873809
 20
-12.04083824153252
 30
0.0
 10
15.962827436624
 20
-12.03497257280693
 30
0.0
 10
15.97808258884402
 20
-12.02492126550416
 30
0.0
 10
15.99241543627322
 20
-12.02584790133228
 30
0.0
 10
16.01965642596652
 20
-12.02760898375739
 30
0.0
 10
16.05390792201867
 20
-12.02795587925332
 30
0.0
 10
16.07110420408683
 20
-12.04402526655976
 30
0.0
 10
16.08474614788366
 20
-12.0567731604305
 30
0.0
 10
16.08753698608164
 20
-12.09754761173913
 30
0.0
 10
16.07747742918201
 20
-12.11650105767412
 30
0.0
 10
16.02410089560758
 20
-12.21707105290899
 30
0.0
 10
15.97444327973643
 20
-12.32181080625095
 30
0.0
 10
15.90569486216235
 20
-12.41145297464949
 30
0.0
 10
15.82551621737831
 20
-12.51600009993235
 30
0.0
 10
15.72938656698543
 20
-12.60889941492248
 30
0.0
 10
15.63542614776
 20
-12.70206044833148
 30
0.0
 10
15.58369540850887
 20
-12.75335148413577
 30
0.0
 10
15.51659608510107
 20
-12.76557346628573
 30
0.0
 10
15.44878110927158
 20
-12.73110397466923
 30
0.0
 10
15.38245147313381
 20
-12.69738993977257
 30
0.0
 10
15.34084711250625
 20
-12.6446739925656
 30
0.0
 10
15.33942323230174
 20
-12.54684657539291
 30
0.0
  0
HATCH
  5
C0
330
B5
100
AcDbEntity
  8
Middle
 62
     7
420
 16777215
100
AcDbHatch
 10
0.0
 20
0.0
 30
0.0
210
0.0
220
0.0
230
1.0
  2
SOLID
 70
     1
 71
     0
 91
        1
 92
        1
 93
        1
 72
     4
 94
        3
 73
     0
 74
     1
 95
       32
 96
       28
 40
0.0
 40
0.0
 40
0.0
 40
0.0
 40
1.0
 40
1.0
 40
1.0
 40
2.0
 40
2.0
 40
2.0
 40
3.0
 40
3.0
 40
3.0
 40
4.0
 40
4.0
 40
4.0
 40
5.0
 40
5.0
 40
5.0
 40
6.0
 40
6.0
 40
6.0
 40
7.0
 40
7.0
 40
7.0
 40
8.0
 40
8.0
 40
8.0
 40
9.0
 40
9.0
 40
9.0
 40
9.0
 10
15.33942323230174
 20
-12.54684657539291
 10
15.34628978321695
 20
-12.531008589243
 10
15.35269435677584
 20
-12.49172339618435
 10
15.37535269610341
 20
-12.46789052068034
 10
15.54164433227977
 20
-12.29297723212276
 10
15.72000223948888
 20
-12.13302107914167
 10
15.94829989873809
 20
-12.04083824153252
 10
15.962827436624
 20
-12.03497257280693
 10
15.97808258884402
 20
-12.02492126550416
 10
15.99241543627322
 20
-12.02584790133228
 10
16.01965642596652
 20
-12.02760898375739
 10
16.05390792201867
 20
-12.02795587925332
 10
16.07110420408683
 20
-12.04402526655976
 10
16.08474614788366
 20
-12.0567731604305
 10
16.08753698608164
 20
-12.09754761173913
 10
16.07747742918201
 20
-12.11650105767412
 10
16.02410089560758
 20
-12.21707105290899
 10
15.97444327973643
 20
-12.32181080625095
 10
15.90569486216235
 20
-12.41145297464949
 10
15.82551621737831
 20
-12.51600009993235
 10
15.72938656698543
 20
-12.60889941492248
 10
15.63542614776
 20
-12.70206044833148
 10
15.58369540850887
 20
-12.75335148413577
 10
15.51659608510107
 20
-12.76557346628573
 10
15.44878110927158
 20
-12.73110397466923
 10
15.38245147313381
 20
-12.69738993977257
 10
15.34084711250625
 20
-12.6446739925656
 10
15.33942323230174
 20
-12.54684657539291
 97
        0
 97
        0
 75
     2
 76
     1
 98
        0
  0
SPLINE
  5
C1
330
B5
100
AcDbEntity
  8
Middle
370
     0
100
AcDbSpline
210
0.0
220
0.0
230
1.0
 70
    11
 71
     3
 72
    26
 73
    22
 74
     0
 42
0.0000000001
 43
0.0000000001
 12
1.0
 22
0.0
 32
0.0
 13
1.0
 23
0.0
 33
0.0
 40
0.0
 40
0.0
 40
0.0
 40
0.0
 40
1.0
 40
1.0
 40
1.0
 40
2.0
 40
2.0
 40
2.0
 40
3.0
 40
3.0
 40
3.0
 40
4.0
 40
4.0
 40
4.0
 40
5.0
 40
5.0
 40
5.0
 40
6.0
 40
6.0
 40
6.0
 40
7.0
 40
7.0
 40
7.0
 40
7.0
 10
14.85931450388786
 20
-10.88585752540692
 30
0.0
 10
14.82505847055891
 20
-10.85720606110129
 30
0.0
 10
14.78294593484133
 20
-10.83415555662121
 30
0.0
 10
14.7588624778703
 20
-10.79881789818585
 30
0.0
 10
14.72742574384357
 20
-10.75269183107971
 30
0.0
 10
14.73253801824822
 20
-10.69257233584478
 30
0.0
 10
14.77376495987608
 20
-10.65580620836823
 30
0.0
 10
14.85011331741459
 20
-10.58771951148337
 30
0.0
 10
14.93258823713891
 20
-10.5256934315802
 30
0.0
 10
15.01721712627976
 20
-10.46805252734889
 30
0.0
 10
15.05790371939458
 20
-10.44034115602343
 30
0.0
 10
15.11761965472384
 20
-10.43776944770964
 30
0.0
 10
15.14436566868108
 20
-10.48330329696982
 30
0.0
 10
15.16289549788265
 20
-10.51484964749852
 30
0.0
 10
15.16555887982816
 20
-10.57612790155828
 30
0.0
 10
15.14652912513149
 20
-10.60542737160043
 30
0.0
 10
15.09330190923745
 20
-10.68737957632207
 30
0.0
 10
15.02750313457754
 20
-10.76178566969133
 30
0.0
 10
14.96143583558036
 20
-10.83441253152506
 30
0.0
 10
14.94088939273019
 20
-10.8569994087315
 30
0.0
 10
14.90363256899563
 20
-10.86438537480898
 30
0.0
 10
14.85931450388786
 20
-10.88585752540692
 30
0.0
  0
HATCH
  5
C2
330
B5
100
AcDbEntity
  8
Middle
 62
     7
420
 16777215
100
AcDbHatch
 10
0.0
 20
0.0
 30
0.0
210
0.0
220
0.0
230
1.0
  2
SOLID
 70
     1
 71
     0
 91
        1
 92
        1
 93
        1
 72
     4
 94
        3
 73
     0
 74
     1
 95
       26
 96
       22
 40
0.0
 40
0.0
 40
0.0
 40
0.0
 40
1.0
 40
1.0
 40
1.0
 40
2.0
 40
2.0
 40
2.0
 40
3.0
 40
3.0
 40
3.0
 40
4.0
 40
4.0
 40
4.0
 40
5.0
 40
5.0
 40
5.0
 40
6.0
 40
6.0
 40
6.0
 40
7.0
 40
7.0
 40
7.0
 40
7.0
 10
14.85931450388786
 20
-10.88585752540692
 10
14.82505847055891
 20
-10.85720606110129
 10
14.78294593484133
 20
-10.83415555662121
 10
14.7588624778703
 20
-10.79881789818585
 10
14.72742574384357
 20
-10.75269183107971
 10
14.73253801824822
 20
-10.69257233584478
 10
14.77376495987608
 20
-10.65580620836823
 10
14.85011331741459
 20
-10.58771951148337
 10
14.93258823713891
 20
-10.5256934315802
 10
15.01721712627976
 20
-10.46805252734889
 10
15.05790371939458
 20
-10.44034115602343
 10
15.11761965472384
 20
-10.43776944770964
 10
15.14436566868108
 20
-10.48330329696982
 10
15.16289549788265
 20
-10.51484964749852
 10
15.16555887982816
 20
-10.57612790155828
 10
15.14652912513149
 20
-10.60542737160043
 10
15.09330190923745
 20
-10.68737957632207
 10
15.02750313457754
 20
-10.76178566969133
 10
14.96143583558036
 20
-10.83441253152506
 10
14.94088939273019
 20
-10.8569994087315
 10
14.90363256899563
 20
-10.86438537480898
 10
14.85931450388786
 20
-10.88585752540692
 97
        0
 97
        0
 75
     2
 76
     1
 98
        0
  0
SPLINE
  5
C3
330
B5
100
AcDbEntity
  8
Middle
370
     0
100
AcDbSpline
210
0.0
220
0.0
230
1.0
 70
    11
 71
     3
 72
    38
 73
    34
 74
     0
 42
0.0000000001
 43
0.0000000001
 12
1.0
 22
0.0
 32
0.0
 13
1.0
 23
0.0
 33
0.0
 40
0.0
 40
0.0
 40
0.0
 40
0.0
 40
1.0
 40
1.0
 40
1.0
 40
2.0
 40
2.0
 40
2.0
 40
3.0
 40
3.0
 40
3.0
 40
4.0
 40
4.0
 40
4.0
 40
5.0
 40
5.0
 40
5.0
 40
6.0
 40
6.0
 40
6.0
 40
7.0
 40
7.0
 40
7.0
 40
8.0
 40
8.0
 40
8.0
 40
9.0
 40
9.0
 40
9.0
 40
10.0
 40
10.0
 40
10.0
 40
11.0
 40
11.0
 40
11.0
 40
11.0
 10
11.03074090508639
 20
-14.84107664751757
 30
0.0
 10
11.0449649609742
 20
-14.56865850097613
 30
0.0
 10
11.22528317834129
 20
-14.26064169941808
 30
0.0
 10
11.50168546708735
 20
-13.99918891537465
 30
0.0
 10
11.67249138510666
 20
-13.83762058516982
 30
0.0
 10
11.87320899628193
 20
-13.75855687323378
 30
0.0
 10
12.1082216201263
 20
-13.77017642866434
 30
0.0
 10
12.31362170177485
 20
-13.78033250583046
 30
0.0
 10
12.49678314227288
 20
-13.71889529237552
 30
0.0
 10
12.66916298001662
 20
-13.61047085715028
 30
0.0
 10
12.71832335151138
 20
-13.57954972284985
 30
0.0
 10
12.78078825834093
 20
-13.5523116205141
 30
0.0
 10
12.83669349921418
 20
-13.55317205333679
 30
0.0
 10
12.95806258116512
 20
-13.55504099922488
 30
0.0
 10
13.03174013212121
 20
-13.69168771354355
 30
0.0
 10
12.9801135440162
 20
-13.80783170786785
 30
0.0
 10
12.96135293237918
 20
-13.85003705153634
 30
0.0
 10
12.93315395839276
 20
-13.89077809198301
 30
0.0
 10
12.90064415821573
 20
-13.92367005467669
 30
0.0
 10
12.7565620833665
 20
-14.06944783390555
 30
0.0
 10
12.70578870968805
 20
-14.25257235746298
 30
0.0
 10
12.68114036165739
 20
-14.44768684329404
 30
0.0
 10
12.65048073953761
 20
-14.69038664657622
 30
0.0
 10
12.6354945241358
 20
-14.93658139104271
 30
0.0
 10
12.58374398585502
 20
-15.1747488664913
 30
0.0
 10
12.50500427678819
 20
-15.53712637838273
 30
0.0
 10
12.30229541946959
 20
-15.70169013675708
 30
0.0
 10
11.89259987702536
 20
-15.73569579485916
 30
0.0
 10
11.80188175511832
 20
-15.74322602574081
 30
0.0
 10
11.70801929983976
 20
-15.73268840477592
 30
0.0
 10
11.61743812122038
 20
-15.71864346823464
 30
0.0
 10
11.21320391419538
 20
-15.65596757799608
 30
0.0
 10
11.01818192695533
 20
-15.27145887593746
 30
0.0
 10
11.03074090508639
 20
-14.84107664751757
 30
0.0
  0
HATCH
  5
C4
330
B5
100
AcDbEntity
  8
Middle
 62
    18
420
        0
100
AcDbHatch
 10
0.0
 20
0.0
 30
0.0
210
0.0
220
0.0
230
1.0
  2
SOLID
 70
     1
 71
     0
 91
        1
 92
        1
 93
        1
 72
     4
 94
        3
 73
     0
 74
     1
 95
       38
 96
       34
 40
0.0
 40
0.0
 40
0.0
 40
0.0
 40
1.0
 40
1.0
 40
1.0
 40
2.0
 40
2.0
 40
2.0
 40
3.0
 40
3.0
 40
3.0
 40
4.0
 40
4.0
 40
4.0
 40
5.0
 40
5.0
 40
5.0
 40
6.0
 40
6.0
 40
6.0
 40
7.0
 40
7.0
 40
7.0
 40
8.0
 40
8.0
 40
8.0
 40
9.0
 40
9.0
 40
9.0
 40
10.0
 40
10.0
 40
10.0
 40
11.0
 40
11.0
 40
11.0
 40
11.0
 10
11.03074090508639
 20
-14.84107664751757
 10
11.0449649609742
 20
-14.56865850097613
 10
11.22528317834129
 20
-14.26064169941808
 10
11.50168546708735
 20
-13.99918891537465
 10
11.67249138510666
 20
-13.83762058516982
 10
11.87320899628193
 20
-13.75855687323378
 10
12.1082216201263
 20
-13.77017642866434
 10
12.31362170177485
 20
-13.78033250583046
 10
12.49678314227288
 20
-13.71889529237552
 10
12.66916298001662
 20
-13.61047085715028
 10
12.71832335151138
 20
-13.57954972284985
 10
12.78078825834093
 20
-13.5523116205141
 10
12.83669349921418
 20
-13.55317205333679
 10
12.95806258116512
 20
-13.55504099922488
 10
13.03174013212121
 20
-13.69168771354355
 10
12.9801135440162
 20
-13.80783170786785
 10
12.96135293237918
 20
-13.85003705153634
 10
12.93315395839276
 20
-13.89077809198301
 10
12.90064415821573
 20
-13.92367005467669
 10
12.7565620833665
 20
-14.06944783390555
 10
12.70578870968805
 20
-14.25257235746298
 10
12.68114036165739
 20
-14.44768684329404
 10
12.65048073953761
 20
-14.69038664657622
 10
12.6354945241358
 20
-14.93658139104271
 10
12.58374398585502
 20
-15.1747488664913
 10
12.50500427678819
 20
-15.53712637838273
 10
12.30229541946959
 20
-15.70169013675708
 10
11.89259987702536
 20
-15.73569579485916
 10
11.80188175511832
 20
-15.74322602574081
 10
11.70801929983976
 20
-15.73268840477592
 10
11.61743812122038
 20
-15.71864346823464
 10
11.21320391419538
 20
-15.65596757799608
 10
11.01818192695533
 20
-15.27145887593746
 10
11.03074090508639
 20
-14.84107664751757
 97
        0
 97
        0
 75
     2
 76
     1
 98
        0
  0
SPLINE
  5
C5
330
B5
100
AcDbEntity
  8
Middle
370
     0
100
AcDbSpline
210
0.0
220
0.0
230
1.0
 70
    11
 71
     3
 72
    29
 73
    25
 74
     0
 42
0.0000000001
 43
0.0000000001
 12
1.0
 22
0.0
 32
0.0
 13
1.0
 23
0.0
 33
0.0
 40
0.0
 40
0.0
 40
0.0
 40
0.0
 40
1.0
 40
1.0
 40
1.0
 40
2.0
 40
2.0
 40
2.0
 40
3.0
 40
3.0
 40
3.0
 40
4.0
 40
4.0
 40
4.0
 40
5.0
 40
5.0
 40
5.0
 40
6.0
 40
6.0
 40
6.0
 40
7.0
 40
7.0
 40
7.0
 40
8.0
 40
8.0
 40
8.0
 40
8.0
 10
13.77957896812636
 20
-13.6843348489675
 30
0.0
 10
13.75160335194232
 20
-13.85739899066727
 30
0.0
 10
13.68974540910896
 20
-14.00121831589626
 30
0.0
 10
13.60161497910811
 20
-14.13300973071284
 30
0.0
 10
13.55301784875438
 20
-14.2056820684433
 30
0.0
 10
13.4978053676729
 20
-14.27449070806435
 30
0.0
 10
13.44047892771448
 20
-14.34062317886686
 30
0.0
 10
13.36901969302095
 20
-14.42305973797148
 30
0.0
 10
13.26549077407624
 20
-14.43043033917764
 30
0.0
 10
13.18930287117253
 20
-14.36446987244334
 30
0.0
 10
13.11622980933665
 20
-14.30120619851845
 30
0.0
 10
13.10877733089385
 20
-14.20060774217742
 30
0.0
 10
13.17742881571858
 20
-14.11683474858246
 30
0.0
 10
13.23010887718503
 20
-14.05255142463839
 30
0.0
 10
13.28643752855282
 20
-13.99036803525864
 30
0.0
 10
13.34728489592252
 20
-13.93386407998286
 30
0.0
 10
13.45270771578092
 20
-13.83596777868797
 30
0.0
 10
13.56161722722806
 20
-13.74166417628476
 30
0.0
 10
13.67231648844533
 20
-13.64977151820128
 30
0.0
 10
13.6908013573483
 20
-13.63442727034848
 30
0.0
 10
13.72786885286418
 20
-13.63077311196897
 30
0.0
 10
13.7522662069501
 20
-13.63720449671478
 30
0.0
 10
13.76722684860587
 20
-13.64114904085947
 30
0.0
 10
13.7744155462277
 20
-13.67457392743055
 30
0.0
 10
13.77957896812636
 20
-13.6843348489675
 30
0.0
  0
HATCH
  5
C6
330
B5
100
AcDbEntity
  8
Middle
 62
    18
420
        0
100
AcDbHatch
 10
0.0
 20
0.0
 30
0.0
210
0.0
220
0.0
230
1.0
  2
SOLID
 70
     1
 71
     0
 91
        1
 92
        1
 93
        1
 72
     4
 94
        3
 73
     0
 74
     1
 95
       29
 96
       25
 40
0.0
 40
0.0
 40
0.0
 40
0.0
 40
1.0
 40
1.0
 40
1.0
 40
2.0
 40
2.0
 40
2.0
 40
3.0
 40
3.0
 40
3.0
 40
4.0
 40
4.0
 40
4.0
 40
5.0
 40
5.0
 40
5.0
 40
6.0
 40
6.0
 40
6.0
 40
7.0
 40
7.0
 40
7.0
 40
8.0
 40
8.0
 40
8.0
 40
8.0
 10
13.77957896812636
 20
-13.6843348489675
 10
13.75160335194232
 20
-13.85739899066727
 10
13.68974540910896
 20
-14.00121831589626
 10
13.60161497910811
 20
-14.13300973071284
 10
13.55301784875438
 20
-14.2056820684433
 10
13.4978053676729
 20
-14.27449070806435
 10
13.44047892771448
 20
-14.34062317886686
 10
13.36901969302095
 20
-14.42305973797148
 10
13.26549077407624
 20
-14.43043033917764
 10
13.18930287117253
 20
-14.36446987244334
 10
13.11622980933665
 20
-14.30120619851845
 10
13.10877733089385
 20
-14.20060774217742
 10
13.17742881571858
 20
-14.11683474858246
 10
13.23010887718503
 20
-14.05255142463839
 10
13.28643752855282
 20
-13.99036803525864
 10
13.34728489592252
 20
-13.93386407998286
 10
13.45270771578092
 20
-13.83596777868797
 10
13.56161722722806
 20
-13.74166417628476
 10
13.67231648844533
 20
-13.64977151820128
 10
13.6908013573483
 20
-13.63442727034848
 10
13.72786885286418
 20
-13.63077311196897
 10
13.7522662069501
 20
-13.63720449671478
 10
13.76722684860587
 20
-13.64114904085947
 10
13.7744155462277
 20
-13.67457392743055
 10
13.77957896812636
 20
-13.6843348489675
 97
        0
 97
        0
 75
     2
 76
     1
 98
        0
  0
ENDBLK
  5
B8
330
B5
100
AcDbEntity
  8
0
100
AcDbBlockEnd
  0
ENDSEC
  0
SECTION
  2
ENTITIES
  0
INSERT
  5
42
330
1F
100
AcDbEntity
  8
Layer 1
100
AcDbBlockReference
  2
block 2
 10
0.0
 20
0.0
 30
0.0
  0
INSERT
  5
B6
330
1F
100
AcDbEntity
  8
Middle
100
AcDbBlockReference
  2
block 4
 10
0.0
 20
0.0
 30
0.0
  0
ENDSEC
  0
SECTION
  2
OBJECTS
  0
DICTIONARY
  5
C
330
0
100
AcDbDictionary
281
     1
  3
ACAD_GROUP
350
D
  3
ACAD_LAYOUT
350
1A
  3
ACAD_MATERIAL
350
3B
  3
ACAD_MLEADERSTYLE
350
C8
  3
ACAD_MLINESTYLE
350
17
  3
ACAD_PLOTSETTINGS
350
19
  3
ACAD_PLOTSTYLENAME
350
E
  3
ACAD_TABLESTYLE
350
C7
  3
ACAD_VISUALSTYLE
350
2A
  0
SUN
  5
3F
330
29
100
AcDbSun
 90
        1
290
     0
 63
     7
421
 16777215
 40
1.0
291
     1
 91
  2455826
 92
 54000000
292
     0
 70
     2
 71
   256
280
     1
  0
DICTIONARY
  5
D
102
{ACAD_REACTORS
330
C
102
}
330
C
100
AcDbDictionary
281
     1
  0
DICTIONARY
  5
1A
102
{ACAD_REACTORS
330
C
102
}
330
C
100
AcDbDictionary
281
     1
  3
Layout1
350
1E
  3
Layout2
350
26
  3
Model
350
22
  0
DICTIONARY
  5
3B
102
{ACAD_REACTORS
330
C
102
}
330
C
100
AcDbDictionary
281
     1
  3
ByBlock
350
3D
  3
ByLayer
350
3C
  3
Global
350
3E
  0
DICTIONARY
  5
C8
102
{ACAD_REACTORS
330
C
102
}
330
C
100
AcDbDictionary
281
     1
  0
DICTIONARY
  5
17
102
{ACAD_REACTORS
330
C
102
}
330
C
100
AcDbDictionary
281
     1
  3
Standard
350
18
  0
DICTIONARY
  5
19
102
{ACAD_REACTORS
330
C
102
}
330
C
100
AcDbDictionary
281
     1
  0
ACDBDICTIONARYWDFLT
  5
E
102
{ACAD_REACTORS
330
C
102
}
330
C
100
AcDbDictionary
281
     1
  3
Normal
350
F
100
AcDbDictionaryWithDefault
340
F
  0
DICTIONARY
  5
C7
102
{ACAD_REACTORS
330
C
102
}
330
C
100
AcDbDictionary
281
     1
  0
DICTIONARY
  5
2A
102
{ACAD_REACTORS
330
C
102
}
330
C
100
AcDbDictionary
281
     1
  3
2dWireframe
350
2F
  3
3D Hidden
350
31
  3
3dWireframe
350
30
  3
Basic
350
32
  3
Brighten
350
36
  3
ColorChange
350
3A
  3
Conceptual
350
34
  3
Dim
350
35
  3
Facepattern
350
39
  3
Flat
350
2B
  3
FlatWithEdges
350
2C
  3
Gouraud
350
2D
  3
GouraudWithEdges
350
2E
  3
Linepattern
350
38
  3
Realistic
350
33
  3
Thicken
350
37
  0
LAYOUT
  5
1E
102
{ACAD_REACTORS
330
1A
102
}
330
1A
100
AcDbPlotSettings
  1

  2
none_device
  4

  6

 40
0.0
 41
0.0
 42
0.0
 43
0.0
 44
0.0
 45
0.0
 46
0.0
 47
0.0
 48
0.0
 49
0.0
140
0.0
141
0.0
142
1.0
143
1.0
 70
   688
 72
     0
 73
     0
 74
     5
  7

 75
    16
 76
     0
 77
     2
 78
   300
147
1.0
148
0.0
149
0.0
100
AcDbLayout
  1
Layout1
 70
     1
 71
     1
 10
0.0
 20
0.0
 11
12.0
 21
9.0
 12
0.0
 22
0.0
 32
0.0
 14
1.000000000000000E+20
 24
1.000000000000000E+20
 34
1.000000000000000E+20
 15
-1.000000000000000E+20
 25
-1.000000000000000E+20
 35
-1.000000000000000E+20
146
0.0
 13
0.0
 23
0.0
 33
0.0
 16
1.0
 26
0.0
 36
0.0
 17
0.0
 27
1.0
 37
0.0
 76
     0
330
1B
  0
LAYOUT
  5
26
102
{ACAD_REACTORS
330
1A
102
}
330
1A
100
AcDbPlotSettings
  1

  2
none_device
  4

  6

 40
0.0
 41
0.0
 42
0.0
 43
0.0
 44
0.0
 45
0.0
 46
0.0
 47
0.0
 48
0.0
 49
0.0
140
0.0
141
0.0
142
1.0
143
1.0
 70
   688
 72
     0
 73
     0
 74
     5
  7

 75
    16
 76
     0
 77
     2
 78
   300
147
1.0
148
0.0
149
0.0
100
AcDbLayout
  1
Layout2
 70
     1
 71
     2
 10
0.0
 20
0.0
 11
0.0
 21
0.0
 12
0.0
 22
0.0
 32
0.0
 14
0.0
 24
0.0
 34
0.0
 15
0.0
 25
0.0
 35
0.0
146
0.0
 13
0.0
 23
0.0
 33
0.0
 16
1.0
 26
0.0
 36
0.0
 17
0.0
 27
1.0
 37
0.0
 76
     0
330
23
  0
LAYOUT
  5
22
102
{ACAD_REACTORS
330
1A
102
}
330
1A
100
AcDbPlotSettings
  1

  2
none_device
  4

  6

 40
0.0
 41
0.0
 42
0.0
 43
0.0
 44
0.0
 45
0.0
 46
0.0
 47
0.0
 48
0.0
 49
0.0
140
0.0
141
0.0
142
1.0
143
1.0
 70
  1712
 72
     0
 73
     0
 74
     0
  7

 75
     0
 76
     0
 77
     2
 78
   300
147
1.0
148
0.0
149
0.0
100
AcDbLayout
  1
Model
 70
     1
 71
     0
 10
0.0
 20
0.0
 11
12.0
 21
9.0
 12
0.0
 22
0.0
 32
0.0
 14
1.000000000000000E+20
 24
1.000000000000000E+20
 34
1.000000000000000E+20
 15
-1.000000000000000E+20
 25
-1.000000000000000E+20
 35
-1.000000000000000E+20
146
0.0
 13
0.0
 23
0.0
 33
0.0
 16
1.0
 26
0.0
 36
0.0
 17
0.0
 27
1.0
 37
0.0
 76
     0
330
1F
331
29
  0
MATERIAL
  5
3D
102
{ACAD_REACTORS
330
3B
102
}
330
3B
100
AcDbMaterial
  1
ByBlock
 72
     1
 94
      127
  0
MATERIAL
  5
3C
102
{ACAD_REACTORS
330
3B
102
}
330
3B
100
AcDbMaterial
  1
ByLayer
 72
     1
 94
      127
  0
MATERIAL
  5
3E
102
{ACAD_REACTORS
330
3B
102
}
330
3B
100
AcDbMaterial
  1
Global
 72
     1
 94
      127
  0
MLINESTYLE
  5
18
102
{ACAD_REACTORS
330
17
102
}
330
17
100
AcDbMlineStyle
  2
Standard
 70
     0
  3

 62
   256
 51
90.0
 52
90.0
 71
     2
 49
0.5
 62
   256
  6
BYLAYER
 49
-0.5
 62
   256
  6
BYLAYER
  0
ACDBPLACEHOLDER
  5
F
102
{ACAD_REACTORS
330
E
102
}
330
E
  0
VISUALSTYLE
  5
2F
102
{ACAD_REACTORS
330
2A
102
}
330
2A
100
AcDbVisualStyle
  2
2dWireframe
 70
     4
177
     2
291
     0
 71
     0
176
     1
 72
     2
176
     1
 73
     0
176
     1
 90
        0
176
     1
 40
-0.6
176
     1
 41
-30.0
176
     1
 62
     5
 63
     7
421
 16777215
176
     1
 74
     1
176
     1
 91
        4
176
     1
 64
     7
176
     1
 65
   257
176
     1
 75
     1
176
     1
175
     1
176
     1
 42
1.0
176
     1
 92
        0
176
     1
 66
   257
176
     1
 43
1.0
176
     1
 76
     1
176
     1
 77
     6
176
     1
 78
     2
176
     1
 67
     7
176
     1
 79
     5
176
     1
170
     0
176
     1
171
     0
176
     1
290
     0
176
     1
 93
        1
176
     1
 44
0.0
176
     1
173
     0
176
     1
  0
VISUALSTYLE
  5
31
102
{ACAD_REACTORS
330
2A
102
}
330
2A
100
AcDbVisualStyle
  2
3D Hidden
 70
     6
177
     2
291
     0
 71
     1
176
     1
 72
     2
176
     1
 73
     2
176
     1
 90
        0
176
     1
 40
-0.6
176
     1
 41
-30.0
176
     1
 62
     5
 63
     7
421
 16777215
176
     1
 74
     2
176
     1
 91
        2
176
     1
 64
     7
176
     1
 65
   257
176
     1
 75
     2
176
     1
175
     1
176
     1
 42
40.0
176
     1
 92
        0
176
     1
 66
   257
176
     1
 43
1.0
176
     1
 76
     1
176
     1
 77
     6
176
     1
 78
     2
176
     1
 67
     7
176
     1
 79
     3
176
     1
170
     0
176
     1
171
     0
176
     1
290
     0
176
     1
 93
        1
176
     1
 44
0.0
176
     1
173
     0
176
     1
  0
VISUALSTYLE
  5
30
102
{ACAD_REACTORS
330
2A
102
}
330
2A
100
AcDbVisualStyle
  2
3dWireframe
 70
     5
177
     2
291
     0
 71
     0
176
     1
 72
     2
176
     1
 73
     0
176
     1
 90
        0
176
     1
 40
-0.6
176
     1
 41
-30.0
176
     1
 62
     5
 63
     7
421
 16777215
176
     1
 74
     1
176
     1
 91
        4
176
     1
 64
     7
176
     1
 65
   257
176
     1
 75
     1
176
     1
175
     1
176
     1
 42
1.0
176
     1
 92
        0
176
     1
 66
   257
176
     1
 43
1.0
176
     1
 76
     1
176
     1
 77
     6
176
     1
 78
     2
176
     1
 67
     7
176
     1
 79
     5
176
     1
170
     0
176
     1
171
     0
176
     1
290
     0
176
     1
 93
        1
176
     1
 44
0.0
176
     1
173
     0
176
     1
  0
VISUALSTYLE
  5
32
102
{ACAD_REACTORS
330
2A
102
}
330
2A
100
AcDbVisualStyle
  2
Basic
 70
     7
177
     2
291
     1
 71
     1
176
     1
 72
     0
176
     1
 73
     1
176
     1
 90
        0
176
     1
 40
-0.6
176
     1
 41
-30.0
176
     1
 62
     5
 63
     7
421
 16777215
176
     1
 74
     0
176
     1
 91
        4
176
     1
 64
     7
176
     1
 65
   257
176
     1
 75
     1
176
     1
175
     1
176
     1
 42
1.0
176
     1
 92
        8
176
     1
 66
     7
176
     1
 43
1.0
176
     1
 76
     1
176
     1
 77
     6
176
     1
 78
     2
176
     1
 67
     7
176
     1
 79
     5
176
     1
170
     0
176
     1
171
     0
176
     1
290
     0
176
     1
 93
        1
176
     1
 44
0.0
176
     1
173
     0
176
     1
  0
VISUALSTYLE
  5
36
102
{ACAD_REACTORS
330
2A
102
}
330
2A
100
AcDbVisualStyle
  2
Brighten
 70
    12
177
     2
291
     1
 71
     2
176
     1
 72
     2
176
     1
 73
     0
176
     1
 90
        0
176
     1
 40
-0.6
176
     1
 41
-30.0
176
     1
 62
     5
 63
     7
421
 16777215
176
     1
 74
     1
176
     1
 91
        4
176
     1
 64
     7
176
     1
 65
   257
176
     1
 75
     1
176
     1
175
     1
176
     1
 42
1.0
176
     1
 92
        8
176
     1
 66
     7
176
     1
 43
1.0
176
     1
 76
     1
176
     1
 77
     6
176
     1
 78
     2
176
     1
 67
     7
176
     1
 79
     5
176
     1
170
     0
176
     1
171
     0
176
     1
290
     0
176
     1
 93
        1
176
     1
 44
50.0
176
     1
173
     0
176
     1
  0
VISUALSTYLE
  5
3A
102
{ACAD_REACTORS
330
2A
102
}
330
2A
100
AcDbVisualStyle
  2
ColorChange
 70
    16
177
     2
291
     1
 71
     2
176
     1
 72
     2
176
     1
 73
     3
176
     1
 90
        0
176
     1
 40
-0.6
176
     1
 41
-30.0
176
     1
 62
     5
 63
     8
421
  8421504
176
     1
 74
     1
176
     1
 91
        4
176
     1
 64
     7
176
     1
 65
   257
176
     1
 75
     1
176
     1
175
     1
176
     1
 42
1.0
176
     1
 92
        8
176
     1
 66
     8
424
  8421504
176
     1
 43
1.0
176
     1
 76
     1
176
     1
 77
     6
176
     1
 78
     2
176
     1
 67
     7
176
     1
 79
     5
176
     1
170
     0
176
     1
171
     0
176
     1
290
     0
176
     1
 93
        1
176
     1
 44
0.0
176
     1
173
     0
176
     1
  0
VISUALSTYLE
  5
34
102
{ACAD_REACTORS
330
2A
102
}
330
2A
100
AcDbVisualStyle
  2
Conceptual
 70
     9
177
     2
291
     0
 71
     3
176
     1
 72
     2
176
     1
 73
     0
176
     1
 90
        0
176
     1
 40
-0.6
176
     1
 41
-30.0
176
     1
 62
     5
 63
     7
421
 16777215
176
     1
 74
     2
176
     1
 91
        2
176
     1
 64
     7
176
     1
 65
   257
176
     1
 75
     1
176
     1
175
     1
176
     1
 42
40.0
176
     1
 92
        8
176
     1
 66
     7
176
     1
 43
1.0
176
     1
 76
     1
176
     1
 77
     6
176
     1
 78
     2
176
     1
 67
     7
176
     1
 79
     3
176
     1
170
     0
176
     1
171
     0
176
     1
290
     0
176
     1
 93
        1
176
     1
 44
0.0
176
     1
173
     0
176
     1
  0
VISUALSTYLE
  5
35
102
{ACAD_REACTORS
330
2A
102
}
330
2A
100
AcDbVisualStyle
  2
Dim
 70
    11
177
     2
291
     1
 71
     2
176
     1
 72
     2
176
     1
 73
     0
176
     1
 90
        0
176
     1
 40
-0.6
176
     1
 41
-30.0
176
     1
 62
     5
 63
     7
421
 16777215
176
     1
 74
     1
176
     1
 91
        4
176
     1
 64
     7
176
     1
 65
   257
176
     1
 75
     1
176
     1
175
     1
176
     1
 42
1.0
176
     1
 92
        8
176
     1
 66
     7
176
     1
 43
1.0
176
     1
 76
     1
176
     1
 77
     6
176
     1
 78
     2
176
     1
 67
     7
176
     1
 79
     5
176
     1
170
     0
176
     1
171
     0
176
     1
290
     0
176
     1
 93
        1
176
     1
 44
-50.0
176
     1
173
     0
176
     1
  0
VISUALSTYLE
  5
39
102
{ACAD_REACTORS
330
2A
102
}
330
2A
100
AcDbVisualStyle
  2
Facepattern
 70
    15
177
     2
291
     1
 71
     2
176
     1
 72
     2
176
     1
 73
     0
176
     1
 90
        0
176
     1
 40
-0.6
176
     1
 41
-30.0
176
     1
 62
     5
 63
     7
421
 16777215
176
     1
 74
     1
176
     1
 91
        4
176
     1
 64
     7
176
     1
 65
   257
176
     1
 75
     1
176
     1
175
     1
176
     1
 42
1.0
176
     1
 92
        8
176
     1
 66
     7
176
     1
 43
1.0
176
     1
 76
     1
176
     1
 77
     6
176
     1
 78
     2
176
     1
 67
     7
176
     1
 79
     5
176
     1
170
     0
176
     1
171
     0
176
     1
290
     0
176
     1
 93
        1
176
     1
 44
0.0
176
     1
173
     0
176
     1
  0
VISUALSTYLE
  5
2B
102
{ACAD_REACTORS
330
2A
102
}
330
2A
100
AcDbVisualStyle
  2
Flat
 70
     0
177
     2
291
     1
 71
     2
176
     1
 72
     1
176
     1
 73
     1
176
     1
 90
        2
176
     1
 40
-0.6
176
     1
 41
30.0
176
     1
 62
     5
 63
     7
421
 16777215
176
     1
 74
     0
176
     1
 91
        4
176
     1
 64
     7
176
     1
 65
   257
176
     1
 75
     1
176
     1
175
     1
176
     1
 42
1.0
176
     1
 92
        8
176
     1
 66
     7
176
     1
 43
1.0
176
     1
 76
     1
176
     1
 77
     6
176
     1
 78
     2
176
     1
 67
     7
176
     1
 79
     5
176
     1
170
     0
176
     1
171
     0
176
     1
290
     0
176
     1
 93
       13
176
     1
 44
0.0
176
     1
173
     0
176
     1
  0
VISUALSTYLE
  5
2C
102
{ACAD_REACTORS
330
2A
102
}
330
2A
100
AcDbVisualStyle
  2
FlatWithEdges
 70
     1
177
     2
291
     1
 71
     2
176
     1
 72
     1
176
     1
 73
     1
176
     1
 90
        2
176
     1
 40
-0.6
176
     1
 41
30.0
176
     1
 62
     5
 63
     7
421
 16777215
176
     1
 74
     1
176
     1
 91
        4
176
     1
 64
     7
176
     1
 65
   257
176
     1
 75
     1
176
     1
175
     1
176
     1
 42
1.0
176
     1
 92
        0
176
     1
 66
   257
176
     1
 43
1.0
176
     1
 76
     1
176
     1
 77
     6
176
     1
 78
     2
176
     1
 67
     7
176
     1
 79
     5
176
     1
170
     0
176
     1
171
     0
176
     1
290
     0
176
     1
 93
       13
176
     1
 44
0.0
176
     1
173
     0
176
     1
  0
VISUALSTYLE
  5
2D
102
{ACAD_REACTORS
330
2A
102
}
330
2A
100
AcDbVisualStyle
  2
Gouraud
 70
     2
177
     2
291
     1
 71
     2
176
     1
 72
     2
176
     1
 73
     1
176
     1
 90
        2
176
     1
 40
-0.6
176
     1
 41
30.0
176
     1
 62
     5
 63
     7
421
 16777215
176
     1
 74
     0
176
     1
 91
        4
176
     1
 64
     7
176
     1
 65
   257
176
     1
 75
     1
176
     1
175
     1
176
     1
 42
1.0
176
     1
 92
        0
176
     1
 66
     7
176
     1
 43
1.0
176
     1
 76
     1
176
     1
 77
     6
176
     1
 78
     2
176
     1
 67
     7
176
     1
 79
     5
176
     1
170
     0
176
     1
171
     0
176
     1
290
     0
176
     1
 93
       13
176
     1
 44
0.0
176
     1
173
     0
176
     1
  0
VISUALSTYLE
  5
2E
102
{ACAD_REACTORS
330
2A
102
}
330
2A
100
AcDbVisualStyle
  2
GouraudWithEdges
 70
     3
177
     2
291
     1
 71
     2
176
     1
 72
     2
176
     1
 73
     1
176
     1
 90
        2
176
     1
 40
-0.6
176
     1
 41
30.0
176
     1
 62
     5
 63
     7
421
 16777215
176
     1
 74
     1
176
     1
 91
        4
176
     1
 64
     7
176
     1
 65
   257
176
     1
 75
     1
176
     1
175
     1
176
     1
 42
1.0
176
     1
 92
        0
176
     1
 66
   257
176
     1
 43
1.0
176
     1
 76
     1
176
     1
 77
     6
176
     1
 78
     2
176
     1
 67
     7
176
     1
 79
     5
176
     1
170
     0
176
     1
171
     0
176
     1
290
     0
176
     1
 93
       13
176
     1
 44
0.0
176
     1
173
     0
176
     1
  0
VISUALSTYLE
  5
38
102
{ACAD_REACTORS
330
2A
102
}
330
2A
100
AcDbVisualStyle
  2
Linepattern
 70
    14
177
     2
291
     1
 71
     2
176
     1
 72
     2
176
     1
 73
     0
176
     1
 90
        0
176
     1
 40
-0.6
176
     1
 41
-30.0
176
     1
 62
     5
 63
     7
421
 16777215
176
     1
 74
     1
176
     1
 91
        4
176
     1
 64
     7
176
     1
 65
   257
176
     1
 75
     7
176
     1
175
     7
176
     1
 42
1.0
176
     1
 92
        8
176
     1
 66
     7
176
     1
 43
1.0
176
     1
 76
     1
176
     1
 77
     6
176
     1
 78
     2
176
     1
 67
     7
176
     1
 79
     5
176
     1
170
     0
176
     1
171
     0
176
     1
290
     0
176
     1
 93
        1
176
     1
 44
0.0
176
     1
173
     0
176
     1
  0
VISUALSTYLE
  5
33
102
{ACAD_REACTORS
330
2A
102
}
330
2A
100
AcDbVisualStyle
  2
Realistic
 70
     8
177
     2
291
     0
 71
     2
176
     1
 72
     2
176
     1
 73
     0
176
     1
 90
        0
176
     1
 40
-0.6
176
     1
 41
-30.0
176
     1
 62
     5
 63
     7
421
 16777215
176
     1
 74
     1
176
     1
 91
        0
176
     1
 64
     7
176
     1
 65
   257
176
     1
 75
     1
176
     1
175
     1
176
     1
 42
1.0
176
     1
 92
        8
176
     1
 66
     8
424
  7895160
176
     1
 43
1.0
176
     1
 76
     1
176
     1
 77
     6
176
     1
 78
     2
176
     1
 67
     7
176
     1
 79
     5
176
     1
170
     0
176
     1
171
     0
176
     1
290
     0
176
     1
 93
       13
176
     1
 44
0.0
176
     1
173
     0
176
     1
  0
VISUALSTYLE
  5
37
102
{ACAD_REACTORS
330
2A
102
}
330
2A
100
AcDbVisualStyle
  2
Thicken
 70
    13
177
     2
291
     1
 71
     2
176
     1
 72
     2
176
     1
 73
     0
176
     1
 90
        0
176
     1
 40
-0.6
176
     1
 41
-30.0
176
     1
 62
     5
 63
     7
421
 16777215
176
     1
 74
     1
176
     1
 91
        4
176
     1
 64
     7
176
     1
 65
   257
176
     1
 75
     1
176
     1
175
     1
176
     1
 42
1.0
176
     1
 92
       12
176
     1
 66
     7
176
     1
 43
1.0
176
     1
 76
     1
176
     1
 77
     6
176
     1
 78
     2
176
     1
 67
     7
176
     1
 79
     5
176
     1
170
     0
176
     1
171
     0
176
     1
290
     0
176
     1
 93
        1
176
     1
 44
0.0
176
     1
173
     0
176
     1
  0
ENDSEC
  0
EOF
