  0
SECTION
  2
HEADER
  9
$ACADVER
  1
AC1024
  9
$ACADMAINTVER
 70
     6
  9
$DWGCODEPAGE
  3
ANSI_1252
  9
$INSBASE
 10
0.0
 20
0.0
 30
0.0
  9
$EXTMIN
 10
1.000000000000000E+20
 20
1.000000000000000E+20
 30
1.000000000000000E+20
  9
$EXTMAX
 10
-1.000000000000000E+20
 20
-1.000000000000000E+20
 30
-1.000000000000000E+20
  9
$LIMMIN
 10
0.0
 20
0.0
  9
$LIMMAX
 10
12.0
 20
9.0
  9
$ORTHOMODE
 70
     0
  9
$REGENMODE
 70
     1
  9
$FILLMODE
 70
     1
  9
$QTEXTMODE
 70
     0
  9
$MIRRTEXT
 70
     1
  9
$LTSCALE
 40
1.0
  9
$ATTMODE
 70
     1
  9
$TEXTSIZE
 40
0.2
  9
$TRACEWID
 40
0.05
  9
$TEXTSTYLE
  7
Standard
  9
$CLAYER
  8
0
  9
$CELTYPE
  6
ByLayer
  9
$CECOLOR
 62
   256
  9
$CELTSCALE
 40
1.0
  9
$DISPSILH
 70
     0
  9
$DIMSCALE
 40
1.0
  9
$DIMASZ
 40
0.18
  9
$DIMEXO
 40
0.0625
  9
$DIMDLI
 40
0.38
  9
$DIMRND
 40
0.0
  9
$DIMDLE
 40
0.0
  9
$DIMEXE
 40
0.18
  9
$DIMTP
 40
0.0
  9
$DIMTM
 40
0.0
  9
$DIMTXT
 40
0.18
  9
$DIMCEN
 40
0.09
  9
$DIMTSZ
 40
0.0
  9
$DIMTOL
 70
     0
  9
$DIMLIM
 70
     0
  9
$DIMTIH
 70
     1
  9
$DIMTOH
 70
     1
  9
$DIMSE1
 70
     0
  9
$DIMSE2
 70
     0
  9
$DIMTAD
 70
     0
  9
$DIMZIN
 70
     0
  9
$DIMBLK
  1

  9
$DIMASO
 70
     1
  9
$DIMSHO
 70
     1
  9
$DIMPOST
  1

  9
$DIMAPOST
  1

  9
$DIMALT
 70
     0
  9
$DIMALTD
 70
     2
  9
$DIMALTF
 40
25.4
  9
$DIMLFAC
 40
1.0
  9
$DIMTOFL
 70
     0
  9
$DIMTVP
 40
0.0
  9
$DIMTIX
 70
     0
  9
$DIMSOXD
 70
     0
  9
$DIMSAH
 70
     0
  9
$DIMBLK1
  1

  9
$DIMBLK2
  1

  9
$DIMSTYLE
  2
Standard
  9
$DIMCLRD
 70
     0
  9
$DIMCLRE
 70
     0
  9
$DIMCLRT
 70
     0
  9
$DIMTFAC
 40
1.0
  9
$DIMGAP
 40
0.09
  9
$DIMJUST
 70
     0
  9
$DIMSD1
 70
     0
  9
$DIMSD2
 70
     0
  9
$DIMTOLJ
 70
     1
  9
$DIMTZIN
 70
     0
  9
$DIMALTZ
 70
     0
  9
$DIMALTTZ
 70
     0
  9
$DIMUPT
 70
     0
  9
$DIMDEC
 70
     4
  9
$DIMTDEC
 70
     4
  9
$DIMALTU
 70
     2
  9
$DIMALTTD
 70
     2
  9
$DIMTXSTY
  7
Standard
  9
$DIMAUNIT
 70
     0
  9
$DIMADEC
 70
     0
  9
$DIMALTRND
 40
0.0
  9
$DIMAZIN
 70
     0
  9
$DIMDSEP
 70
    46
  9
$DIMATFIT
 70
     3
  9
$DIMFRAC
 70
     0
  9
$DIMLDRBLK
  1

  9
$DIMLUNIT
 70
     2
  9
$DIMLWD
 70
    -2
  9
$DIMLWE
 70
    -2
  9
$DIMTMOVE
 70
     0
  9
$DIMFXL
 40
1.0
  9
$DIMFXLON
 70
     0
  9
$DIMJOGANG
 40
0.7853981633974483
  9
$DIMTFILL
 70
     0
  9
$DIMTFILLCLR
 70
     0
  9
$DIMARCSYM
 70
     0
  9
$DIMLTYPE
  6

  9
$DIMLTEX1
  6

  9
$DIMLTEX2
  6

  9
$DIMTXTDIRECTION
 70
     0
  9
$LUNITS
 70
     2
  9
$LUPREC
 70
     4
  9
$SKETCHINC
 40
0.1
  9
$FILLETRAD
 40
0.5
  9
$AUNITS
 70
     0
  9
$AUPREC
 70
     0
  9
$MENU
  1
.
  9
$ELEVATION
 40
0.0
  9
$PELEVATION
 40
0.0
  9
$THICKNESS
 40
0.0
  9
$LIMCHECK
 70
     0
  9
$CHAMFERA
 40
0.5
  9
$CHAMFERB
 40
0.5
  9
$CHAMFERC
 40
1.0
  9
$CHAMFERD
 40
0.0
  9
$SKPOLY
 70
     0
  9
$TDCREATE
 40
2459960.824896505
  9
$TDUCREATE
 40
2459960.783229838
  9
$TDUPDATE
 40
2459960.824896667
  9
$TDUUPDATE
 40
2459960.78323
  9
$TDINDWG
 40
0.0000000116
  9
$TDUSRTIMER
 40
0.0000000116
  9
$USRTIMER
 70
     1
  9
$ANGBASE
 50
0.0
  9
$ANGDIR
 70
     0
  9
$PDMODE
 70
     0
  9
$PDSIZE
 40
0.0
  9
$PLINEWID
 40
0.0
  9
$SPLFRAME
 70
     0
  9
$SPLINETYPE
 70
     6
  9
$SPLINESEGS
 70
     8
  9
$HANDSEED
  5
169
  9
$SURFTAB1
 70
     6
  9
$SURFTAB2
 70
     6
  9
$SURFTYPE
 70
     6
  9
$SURFU
 70
     6
  9
$SURFV
 70
     6
  9
$UCSBASE
  2

  9
$UCSNAME
  2

  9
$UCSORG
 10
0.0
 20
0.0
 30
0.0
  9
$UCSXDIR
 10
1.0
 20
0.0
 30
0.0
  9
$UCSYDIR
 10
0.0
 20
1.0
 30
0.0
  9
$UCSORTHOREF
  2

  9
$UCSORTHOVIEW
 70
     0
  9
$UCSORGTOP
 10
0.0
 20
0.0
 30
0.0
  9
$UCSORGBOTTOM
 10
0.0
 20
0.0
 30
0.0
  9
$UCSORGLEFT
 10
0.0
 20
0.0
 30
0.0
  9
$UCSORGRIGHT
 10
0.0
 20
0.0
 30
0.0
  9
$UCSORGFRONT
 10
0.0
 20
0.0
 30
0.0
  9
$UCSORGBACK
 10
0.0
 20
0.0
 30
0.0
  9
$PUCSBASE
  2

  9
$PUCSNAME
  2

  9
$PUCSORG
 10
0.0
 20
0.0
 30
0.0
  9
$PUCSXDIR
 10
1.0
 20
0.0
 30
0.0
  9
$PUCSYDIR
 10
0.0
 20
1.0
 30
0.0
  9
$PUCSORTHOREF
  2

  9
$PUCSORTHOVIEW
 70
     0
  9
$PUCSORGTOP
 10
0.0
 20
0.0
 30
0.0
  9
$PUCSORGBOTTOM
 10
0.0
 20
0.0
 30
0.0
  9
$PUCSORGLEFT
 10
0.0
 20
0.0
 30
0.0
  9
$PUCSORGRIGHT
 10
0.0
 20
0.0
 30
0.0
  9
$PUCSORGFRONT
 10
0.0
 20
0.0
 30
0.0
  9
$PUCSORGBACK
 10
0.0
 20
0.0
 30
0.0
  9
$USERI1
 70
     0
  9
$USERI2
 70
     0
  9
$USERI3
 70
     0
  9
$USERI4
 70
     0
  9
$USERI5
 70
     0
  9
$USERR1
 40
0.0
  9
$USERR2
 40
0.0
  9
$USERR3
 40
0.0
  9
$USERR4
 40
0.0
  9
$USERR5
 40
0.0
  9
$WORLDVIEW
 70
     1
  9
$SHADEDGE
 70
     3
  9
$SHADEDIF
 70
    70
  9
$TILEMODE
 70
     1
  9
$MAXACTVP
 70
    64
  9
$PINSBASE
 10
0.0
 20
0.0
 30
0.0
  9
$PLIMCHECK
 70
     0
  9
$PEXTMIN
 10
1.000000000000000E+20
 20
1.000000000000000E+20
 30
1.000000000000000E+20
  9
$PEXTMAX
 10
-1.000000000000000E+20
 20
-1.000000000000000E+20
 30
-1.000000000000000E+20
  9
$PLIMMIN
 10
0.0
 20
0.0
  9
$PLIMMAX
 10
12.0
 20
9.0
  9
$UNITMODE
 70
     0
  9
$VISRETAIN
 70
     1
  9
$PLINEGEN
 70
     0
  9
$PSLTSCALE
 70
     1
  9
$TREEDEPTH
 70
  3020
  9
$CMLSTYLE
  2
Standard
  9
$CMLJUST
 70
     0
  9
$CMLSCALE
 40
1.0
  9
$PROXYGRAPHICS
 70
     1
  9
$MEASUREMENT
 70
     0
  9
$CELWEIGHT
370
    -1
  9
$ENDCAPS
280
     0
  9
$JOINSTYLE
280
     0
  9
$LWDISPLAY
290
     1
  9
$INSUNITS
 70
     1
  9
$HYPERLINKBASE
  1

  9
$STYLESHEET
  1

  9
$XEDIT
290
     1
  9
$CEPSNTYPE
380
     0
  9
$PSTYLEMODE
290
     1
  9
$FINGERPRINTGUID
  2
{A732BB86-68C1-42D8-8A2E-033B629336D7}
  9
$VERSIONGUID
  2
{FAEB1C32-E019-11D5-929B-00C0DF256EC4}
  9
$EXTNAMES
290
     1
  9
$PSVPSCALE
 40
0.0
  9
$OLESTARTUP
290
     0
  9
$SORTENTS
280
   127
  9
$INDEXCTL
280
     0
  9
$HIDETEXT
280
     1
  9
$XCLIPFRAME
280
     2
  9
$HALOGAP
280
     0
  9
$OBSCOLOR
 70
   257
  9
$OBSLTYPE
280
     0
  9
$INTERSECTIONDISPLAY
280
     0
  9
$INTERSECTIONCOLOR
 70
   257
  9
$DIMASSOC
280
     2
  9
$PROJECTNAME
  1

  9
$CAMERADISPLAY
290
     0
  9
$LENSLENGTH
 40
50.0
  9
$CAMERAHEIGHT
 40
0.0
  9
$STEPSPERSEC
 40
2.0
  9
$STEPSIZE
 40
6.0
  9
$3DDWFPREC
 40
2.0
  9
$PSOLWIDTH
 40
0.25
  9
$PSOLHEIGHT
 40
4.0
  9
$LOFTANG1
 40
1.570796326794897
  9
$LOFTANG2
 40
1.570796326794897
  9
$LOFTMAG1
 40
0.0
  9
$LOFTMAG2
 40
0.0
  9
$LOFTPARAM
 70
     7
  9
$LOFTNORMALS
280
     1
  9
$LATITUDE
 40
37.795
  9
$LONGITUDE
 40
-122.394
  9
$NORTHDIRECTION
 40
0.0
  9
$TIMEZONE
 70
 -8000
  9
$LIGHTGLYPHDISPLAY
280
     1
  9
$TILEMODELIGHTSYNCH
280
     1
  9
$CMATERIAL
347
3C
  9
$SOLIDHIST
280
     1
  9
$SHOWHIST
280
     1
  9
$DWFFRAME
280
     2
  9
$DGNFRAME
280
     2
  9
$REALWORLDSCALE
290
     1
  9
$INTERFERECOLOR
 62
   256
  9
$CSHADOW
280
     0
  9
$SHADOWPLANELOCATION
 40
0.0
  0
ENDSEC
  0
SECTION
  2
CLASSES
  0
CLASS
  1
ACDBDICTIONARYWDFLT
  2
AcDbDictionaryWithDefault
  3
ObjectDBX Classes
 90
        0
 91
        4
280
     0
281
     0
  0
CLASS
  1
VISUALSTYLE
  2
AcDbVisualStyle
  3
ObjectDBX Classes
 90
     4095
 91
        4
280
     0
281
     0
  0
CLASS
  1
MATERIAL
  2
AcDbMaterial
  3
ObjectDBX Classes
 90
     1153
 91
        4
280
     0
281
     0
  0
CLASS
  1
SUN
  2
AcDbSun
  3
SCENEOE
 90
     1024
 91
        4
280
     0
281
     0
  0
ENDSEC
  0
SECTION
  2
TABLES
  0
TABLE
  2
VPORT
  5
8
330
0
100
AcDbSymbolTable
 70
     1
  0
VPORT
  5
29
330
8
100
AcDbSymbolTableRecord
100
AcDbViewportTableRecord
  2
*Active
 70
     0
 10
0.0
 20
0.0
 11
1.0
 21
1.0
 12
0.0
 22
0.0
 13
0.0
 23
0.0
 14
0.5
 24
0.5
 15
0.5
 25
0.5
 16
0.0
 26
0.0
 36
1.0
 17
13.50080555218051
 27
-13.50080555218051
 37
0.0
 40
27.00161110436102
 41
1.0
 42
50.0
 43
0.0
 44
0.0
 50
0.0
 51
0.0
 71
     0
 72
   100
 73
     1
 74
     3
 75
     0
 76
     0
 77
     0
 78
     0
281
     0
 65
     1
110
0.0
120
0.0
130
0.0
111
1.0
121
0.0
131
0.0
112
0.0
122
1.0
132
0.0
 79
     0
146
0.0
 60
     3
 61
     5
292
     1
282
     1
141
0.0
142
0.0
 63
   250
361
3F
  0
ENDTAB
  0
TABLE
  2
LTYPE
  5
5
330
0
100
AcDbSymbolTable
 70
     1
  0
LTYPE
  5
14
330
5
100
AcDbSymbolTableRecord
100
AcDbLinetypeTableRecord
  2
ByBlock
 70
     0
  3

 72
    65
 73
     0
 40
0.0
  0
LTYPE
  5
15
330
5
100
AcDbSymbolTableRecord
100
AcDbLinetypeTableRecord
  2
ByLayer
 70
     0
  3

 72
    65
 73
     0
 40
0.0
  0
LTYPE
  5
16
330
5
100
AcDbSymbolTableRecord
100
AcDbLinetypeTableRecord
  2
Continuous
 70
     0
  3
Solid line
 72
    65
 73
     0
 40
0.0
  0
ENDTAB
  0
TABLE
  2
LAYER
  5
2
330
0
100
AcDbSymbolTable
 70
     3
  0
LAYER
  5
10
330
2
100
AcDbSymbolTableRecord
100
AcDbLayerTableRecord
  2
0
 70
     0
 62
     7
  6
Continuous
370
    -3
390
F
347
3E
  0
LAYER
  5
40
330
2
100
AcDbSymbolTableRecord
100
AcDbLayerTableRecord
  2
Layer 1
 70
     0
 62
     7
  6
Continuous
370
    -3
390
F
347
3E
  0
LAYER
  5
164
330
2
100
AcDbSymbolTableRecord
100
AcDbLayerTableRecord
  2
Middle
 70
     0
 62
     7
  6
Continuous
370
    -3
390
F
347
3E
  0
ENDTAB
  0
TABLE
  2
STYLE
  5
3
330
0
100
AcDbSymbolTable
 70
     1
  0
STYLE
  5
11
330
3
100
AcDbSymbolTableRecord
100
AcDbTextStyleTableRecord
  2
Standard
 70
     0
 40
0.0
 41
1.0
 50
0.0
 71
     0
 42
0.2
  3
txt
  4

  0
ENDTAB
  0
TABLE
  2
VIEW
  5
6
330
0
100
AcDbSymbolTable
 70
     0
  0
ENDTAB
  0
TABLE
  2
UCS
  5
7
330
0
100
AcDbSymbolTable
 70
     0
  0
ENDTAB
  0
TABLE
  2
APPID
  5
9
330
0
100
AcDbSymbolTable
 70
     1
  0
APPID
  5
12
330
9
100
AcDbSymbolTableRecord
100
AcDbRegAppTableRecord
  2
ACAD
 70
     0
  0
ENDTAB
  0
TABLE
  2
DIMSTYLE
  5
A
330
0
100
AcDbSymbolTable
 70
     1
100
AcDbDimStyleTable
  0
DIMSTYLE
105
27
330
A
100
AcDbSymbolTableRecord
100
AcDbDimStyleTableRecord
  2
Standard
 70
     0
178
     0
340
11
  0
ENDTAB
  0
TABLE
  2
BLOCK_RECORD
  5
1
330
0
100
AcDbSymbolTable
 70
    12
  0
BLOCK_RECORD
  5
1F
330
1
100
AcDbSymbolTableRecord
100
AcDbBlockTableRecord
  2
*Model_Space
340
22
 70
     0
280
     1
281
     0
  0
BLOCK_RECORD
  5
1B
330
1
100
AcDbSymbolTableRecord
100
AcDbBlockTableRecord
  2
*Paper_Space
340
1E
 70
     0
280
     1
281
     0
  0
BLOCK_RECORD
  5
23
330
1
100
AcDbSymbolTableRecord
100
AcDbBlockTableRecord
  2
*Paper_Space0
340
26
 70
     0
280
     1
281
     0
  0
BLOCK_RECORD
  5
41
330
1
100
AcDbSymbolTableRecord
100
AcDbBlockTableRecord
  2
block 2
340
0
102
{BLKREFS
331
42
102
}
 70
     0
280
     1
281
     0
  0
BLOCK_RECORD
  5
6F
330
1
100
AcDbSymbolTableRecord
100
AcDbBlockTableRecord
  2
block 3
340
0
102
{BLKREFS
331
70
102
}
 70
     0
280
     1
281
     0
  0
BLOCK_RECORD
  5
84
330
1
100
AcDbSymbolTableRecord
100
AcDbBlockTableRecord
  2
block 4
340
0
102
{BLKREFS
331
85
102
}
 70
     0
280
     1
281
     0
  0
BLOCK_RECORD
  5
9A
330
1
100
AcDbSymbolTableRecord
100
AcDbBlockTableRecord
  2
block 5
340
0
102
{BLKREFS
331
9B
102
}
 70
     0
280
     1
281
     0
  0
BLOCK_RECORD
  5
B7
330
1
100
AcDbSymbolTableRecord
100
AcDbBlockTableRecord
  2
block 6
340
0
102
{BLKREFS
331
B8
102
}
 70
     0
280
     1
281
     0
  0
BLOCK_RECORD
  5
CC
330
1
100
AcDbSymbolTableRecord
100
AcDbBlockTableRecord
  2
block 7
340
0
102
{BLKREFS
331
CD
102
}
 70
     0
280
     1
281
     0
  0
BLOCK_RECORD
  5
E0
330
1
100
AcDbSymbolTableRecord
100
AcDbBlockTableRecord
  2
block 8
340
0
102
{BLKREFS
331
E1
102
}
 70
     0
280
     1
281
     0
  0
BLOCK_RECORD
  5
107
330
1
100
AcDbSymbolTableRecord
100
AcDbBlockTableRecord
  2
block 9
340
0
102
{BLKREFS
331
108
102
}
 70
     0
280
     1
281
     0
  0
BLOCK_RECORD
  5
11B
330
1
100
AcDbSymbolTableRecord
100
AcDbBlockTableRecord
  2
block 10
340
0
102
{BLKREFS
331
11C
102
}
 70
     0
280
     1
281
     0
  0
BLOCK_RECORD
  5
12F
330
1
100
AcDbSymbolTableRecord
100
AcDbBlockTableRecord
  2
block 11
340
0
102
{BLKREFS
331
130
102
}
 70
     0
280
     1
281
     0
  0
BLOCK_RECORD
  5
14F
330
1
100
AcDbSymbolTableRecord
100
AcDbBlockTableRecord
  2
block 12
340
0
102
{BLKREFS
331
150
102
}
 70
     0
280
     1
281
     0
  0
ENDTAB
  0
ENDSEC
  0
SECTION
  2
BLOCKS
  0
BLOCK
  5
20
330
1F
100
AcDbEntity
  8
0
100
AcDbBlockBegin
  2
*Model_Space
 70
     0
 10
0.0
 20
0.0
 30
0.0
  3
*Model_Space
  1

  0
ENDBLK
  5
21
330
1F
100
AcDbEntity
  8
0
100
AcDbBlockEnd
  0
BLOCK
  5
1C
330
1B
100
AcDbEntity
 67
     1
  8
0
100
AcDbBlockBegin
  2
*Paper_Space
 70
     0
 10
0.0
 20
0.0
 30
0.0
  3
*Paper_Space
  1

  0
ENDBLK
  5
1D
330
1B
100
AcDbEntity
 67
     1
  8
0
100
AcDbBlockEnd
  0
BLOCK
  5
24
330
23
100
AcDbEntity
  8
0
100
AcDbBlockBegin
  2
*Paper_Space0
 70
     0
 10
0.0
 20
0.0
 30
0.0
  3
*Paper_Space0
  1

  0
ENDBLK
  5
25
330
23
100
AcDbEntity
  8
0
100
AcDbBlockEnd
  0
BLOCK
  5
43
330
41
100
AcDbEntity
  8
0
100
AcDbBlockBegin
  2
block 2
 70
     0
 10
0.0
 20
0.0
 30
0.0
  3
block 2
  1

  0
SPLINE
  5
45
330
41
100
AcDbEntity
  8
Layer 1
 62
   250
420
  2301728
370
    35
100
AcDbSpline
210
0.0
220
0.0
230
1.0
 70
    11
 71
     3
 72
   116
 73
   112
 74
     0
 42
0.0000000001
 43
0.0000000001
 12
1.0
 22
0.0
 32
0.0
 13
1.0
 23
0.0
 33
0.0
 40
0.0
 40
0.0
 40
0.0
 40
0.0
 40
1.0
 40
1.0
 40
1.0
 40
2.0
 40
2.0
 40
2.0
 40
3.0
 40
3.0
 40
3.0
 40
4.0
 40
4.0
 40
4.0
 40
5.0
 40
5.0
 40
5.0
 40
6.0
 40
6.0
 40
6.0
 40
7.0
 40
7.0
 40
7.0
 40
8.0
 40
8.0
 40
8.0
 40
9.0
 40
9.0
 40
9.0
 40
10.0
 40
10.0
 40
10.0
 40
11.0
 40
11.0
 40
11.0
 40
12.0
 40
12.0
 40
12.0
 40
13.0
 40
13.0
 40
13.0
 40
14.0
 40
14.0
 40
14.0
 40
15.0
 40
15.0
 40
15.0
 40
16.0
 40
16.0
 40
16.0
 40
17.0
 40
17.0
 40
17.0
 40
18.0
 40
18.0
 40
18.0
 40
19.0
 40
19.0
 40
19.0
 40
20.0
 40
20.0
 40
20.0
 40
21.0
 40
21.0
 40
21.0
 40
22.0
 40
22.0
 40
22.0
 40
23.0
 40
23.0
 40
23.0
 40
24.0
 40
24.0
 40
24.0
 40
25.0
 40
25.0
 40
25.0
 40
26.0
 40
26.0
 40
26.0
 40
27.0
 40
27.0
 40
27.0
 40
28.0
 40
28.0
 40
28.0
 40
29.0
 40
29.0
 40
29.0
 40
30.0
 40
30.0
 40
30.0
 40
31.0
 40
31.0
 40
31.0
 40
32.0
 40
32.0
 40
32.0
 40
33.0
 40
33.0
 40
33.0
 40
34.0
 40
34.0
 40
34.0
 40
35.0
 40
35.0
 40
35.0
 40
36.0
 40
36.0
 40
36.0
 40
37.0
 40
37.0
 40
37.0
 40
37.0
 10
25.28482569903091
 20
-17.19533867625843
 30
0.0
 10
25.09279866855864
 20
-17.79321226219118
 30
0.0
 10
24.86034530976947
 20
-18.36697491069634
 30
0.0
 10
24.58854546195029
 20
-18.91326455662061
 30
0.0
 10
24.09253166827579
 20
-18.75024430209526
 30
0.0
 10
23.27663919960836
 20
-19.22553896925872
 30
0.0
 10
22.66783314936696
 20
-20.07120406568099
 30
0.0
 10
22.66783314936696
 20
-20.07120406568099
 30
0.0
 10
22.66675989446538
 20
-20.07454563043465
 30
0.0
 10
22.66675989446538
 20
-20.07454563043465
 30
0.0
 10
22.05798092900827
 20
-20.92019681084643
 30
0.0
 10
21.8606341408152
 20
-21.84613651298226
 30
0.0
 10
22.17533985817898
 20
-22.26215391147978
 30
0.0
 10
21.28025262308742
 20
-23.14554577553828
 30
0.0
 10
20.25976930100623
 20
-23.88859028074814
 30
0.0
 10
19.15265880817644
 20
-24.46303201071667
 30
0.0
 10
18.88663732279769
 20
-24.01077192499417
 30
0.0
 10
17.94933591518931
 20
-23.89498999086038
 30
0.0
 10
16.94316369956018
 20
-24.21282925579439
 30
0.0
 10
16.9275762607729
 20
-24.21524061333109
 30
0.0
 10
16.90755350193332
 20
-24.21991369633649
 30
0.0
 10
16.89086572346018
 20
-24.22568053463927
 30
0.0
 10
15.88037415067908
 20
-24.55696806018196
 30
0.0
 10
15.1701948199995
 20
-25.21072710386281
 30
0.0
 10
15.21170180992197
 20
-25.73907423080191
 30
0.0
 10
14.02435825039078
 20
-25.91721912688182
 30
0.0
 10
12.79837272344302
 20
-25.9273377290852
 30
0.0
 10
11.57139255799526
 20
-25.7444554318224
 30
0.0
 10
11.58459490171109
 20
-25.2188444648244
 30
0.0
 10
10.87483709836205
 20
-24.59070626134445
 30
0.0
 10
9.883991397190721
 20
-24.27246313749934
 30
0.0
 10
9.883991397190721
 20
-24.27246313749934
 30
0.0
 10
9.880629332039032
 20
-24.27138329821183
 30
0.0
 10
9.880629332039032
 20
-24.27138329821183
 30
0.0
 10
8.88644206611309
 20
-23.95206691946386
 30
0.0
 10
7.945951655910235
 20
-24.05385917935435
 30
0.0
 10
7.651696099889984
 20
-24.48551426280011
 30
0.0
 10
6.528606542712623
 20
-23.90988444448028
 30
0.0
 10
5.519803315120155
 20
-23.17459377580302
 30
0.0
 10
4.646857956755774
 20
-22.31619657762711
 30
0.0
 10
4.962488290264112
 20
-21.89882449950115
 30
0.0
 10
4.762681160793035
 20
-20.97502370643458
 30
0.0
 10
4.144272212726682
 20
-20.13168715863466
 30
0.0
 10
3.529245830209732
 20
-19.28943703450882
 30
0.0
 10
2.709657517728064
 20
-18.81870454030418
 30
0.0
 10
2.213947756950929
 20
-18.98926556132173
 30
0.0
 10
1.659664501882352
 20
-17.88860701943721
 30
0.0
 10
1.269562618012965
 20
-16.70361011705131
 30
0.0
 10
1.059739486437081
 20
-15.47646613441349
 30
0.0
 10
1.557854020365304
 20
-15.321513052579
 30
0.0
 10
1.938850049055845
 20
-14.45826731696634
 30
0.0
 10
1.937421423667897
 20
-13.41294135294757
 30
0.0
 10
1.934905627366264
 20
-12.37092986890105
 30
0.0
 10
1.548367794655771
 20
-11.5094346309886
 30
0.0
 10
1.046832257252637
 20
-11.35205866747944
 30
0.0
 10
1.143968720345147
 20
-10.74967005366316
 30
0.0
 10
1.289090386771936
 20
-10.14785792121168
 30
0.0
 10
1.481117417244209
 20
-9.549984335277657
 30
0.0
 10
1.673144447716161
 20
-8.952110749343309
 30
0.0
 10
1.904517967217492
 20
-8.381710165990482
 30
0.0
 10
2.176317815036674
 20
-7.835420520066847
 30
0.0
 10
2.675693673863182
 20
-7.999520613880674
 30
0.0
 10
3.48717132287378
 20
-7.526494256570572
 30
0.0
 10
4.099312353483223
 20
-6.681922915447268
 30
0.0
 10
4.099312353483223
 20
-6.681922915447268
 30
0.0
 10
4.100392192771696
 20
-6.678560850294938
 30
0.0
 10
4.100392192771696
 20
-6.678560850294938
 30
0.0
 10
4.71025099751696
 20
-5.829547604731792
 30
0.0
 10
4.903169797281324
 20
-4.90591721324378
 30
0.0
 10
4.588443579520152
 20
-4.489893230359045
 30
0.0
 10
5.473587666841267
 20
-3.614434467566523
 30
0.0
 10
6.48075844437319
 20
-2.878195639154097
 30
0.0
 10
7.57562306317193
 20
-2.307238521625446
 30
0.0
 10
7.883747697916633
 20
-2.732268860677417
 30
0.0
 10
8.821877265853086
 20
-2.822377160567902
 30
0.0
 10
9.807897590966911
 20
-2.498065444291558
 30
0.0
 10
10.80172188567259
 20
-2.172551341439508
 30
0.0
 10
11.50208720025456
 20
-1.537870933370142
 30
0.0
 10
11.48852215442779
 20
-1.014766786414674
 30
0.0
 10
12.69696831208865
 20
-0.8285867421792731
 30
0.0
 10
13.94525882374113
 20
-0.8182369614119239
 30
0.0
 10
15.19349121938878
 20
-1.004236229250993
 30
0.0
 10
15.18473078011407
 20
-1.527564970384813
 30
0.0
 10
15.88668461386966
 20
-2.15690556044079
 30
0.0
 10
16.88087187979689
 20
-2.476221939188116
 30
0.0
 10
16.88087187979689
 20
-2.476221939188116
 30
0.0
 10
16.88423394494761
 20
-2.477301778475948
 30
0.0
 10
16.88423394494761
 20
-2.477301778475948
 30
0.0
 10
17.87507964611861
 20
-2.795544902321053
 30
0.0
 10
18.81557664070773
 20
-2.69373214203382
 30
0.0
 10
19.11318767749502
 20
-2.263177398271356
 30
0.0
 10
20.23625673427434
 20
-2.838800632206854
 30
0.0
 10
21.24171839711283
 20
-3.5730180459819
 30
0.0
 10
22.11679634926923
 20
-4.42470502986493
 30
0.0
 10
21.79783103539189
 20
-4.840983352692876
 30
0.0
 10
21.99992039072747
 20
-5.769226050198005
 30
0.0
 10
22.6183088383961
 20
-6.612556013612318
 30
0.0
 10
23.2367177864631
 20
-7.455892561412241
 30
0.0
 10
24.05630609894445
 20
-7.926625055617528
 30
0.0
 10
24.54865379456957
 20
-7.754984195311177
 30
0.0
 10
25.10293704963719
 20
-8.85564273719634
 30
0.0
 10
25.49638049826215
 20
-10.04171289448414
 30
0.0
 10
25.70620362983868
 20
-11.26885687712196
 30
0.0
 10
25.20702975701841
 20
-11.42717860849439
 30
0.0
 10
24.82938187746938
 20
-12.29147709861188
 30
0.0
 10
24.83080391847076
 20
-13.3368235630274
 30
0.0
 10
24.833326299158
 20
-14.37881454667781
 30
0.0
 10
25.2198575474832
 20
-15.24033028498605
 30
0.0
 10
25.71803101973465
 20
-15.39662640920802
 30
0.0
 10
25.62089455664214
 20
-15.9990150230243
 30
0.0
 10
25.47685272950318
 20
-16.59746509032441
 30
0.0
 10
25.28482569903091
 20
-17.19533867625843
 30
0.0
  0
POLYLINE
  5
46
330
41
100
AcDbEntity
  8
Layer 1
 62
   250
420
  2301728
370
    35
100
AcDb2dPolyline
 66
     1
 10
0.0
 20
0.0
 30
0.0
  0
VERTEX
  5
47
330
46
100
AcDbEntity
  8
Layer 1
 62
   250
420
  2301728
370
    35
100
AcDbVertex
100
AcDb2dVertex
 10
14.91084297301023
 20
-8.611573534397015
 30
0.0
  0
VERTEX
  5
48
330
46
100
AcDbEntity
  8
Layer 1
 62
   250
420
  2301728
370
    35
100
AcDbVertex
100
AcDb2dVertex
 10
16.88136479329834
 20
-2.476380254788789
 30
0.0
  0
SEQEND
  5
49
330
46
100
AcDbEntity
  8
Layer 1
 62
   250
420
  2301728
370
    35
  0
POLYLINE
  5
4A
330
41
100
AcDbEntity
  8
Layer 1
 62
   250
420
  2301728
370
    35
100
AcDb2dPolyline
 66
     1
 10
0.0
 20
0.0
 30
0.0
  0
VERTEX
  5
4B
330
4A
100
AcDbEntity
  8
Layer 1
 62
   250
420
  2301728
370
    35
100
AcDbVertex
100
AcDb2dVertex
 10
11.83572055100188
 20
-8.643803840049985
 30
0.0
  0
VERTEX
  5
4C
330
4A
100
AcDbEntity
  8
Layer 1
 62
   250
420
  2301728
370
    35
100
AcDbVertex
100
AcDb2dVertex
 10
9.836191327067121
 20
-2.558435719902878
 30
0.0
  0
SEQEND
  5
4D
330
4A
100
AcDbEntity
  8
Layer 1
 62
   250
420
  2301728
370
    35
  0
POLYLINE
  5
4E
330
41
100
AcDbEntity
  8
Layer 1
 62
   250
420
  2301728
370
    35
100
AcDb2dPolyline
 66
     1
 10
0.0
 20
0.0
 30
0.0
  0
VERTEX
  5
4F
330
4E
100
AcDbEntity
  8
Layer 1
 62
   250
420
  2301728
370
    35
100
AcDbVertex
100
AcDb2dVertex
 10
9.328439739894032
 20
-10.45121454863171
 30
0.0
  0
VERTEX
  5
50
330
4E
100
AcDbEntity
  8
Layer 1
 62
   250
420
  2301728
370
    35
100
AcDbVertex
100
AcDb2dVertex
 10
4.099306439665408
 20
-6.681930062104657
 30
0.0
  0
SEQEND
  5
51
330
4E
100
AcDbEntity
  8
Layer 1
 62
   250
420
  2301728
370
    35
  0
POLYLINE
  5
52
330
41
100
AcDbEntity
  8
Layer 1
 62
   250
420
  2301728
370
    35
100
AcDb2dPolyline
 66
     1
 10
0.0
 20
0.0
 30
0.0
  0
VERTEX
  5
53
330
52
100
AcDbEntity
  8
Layer 1
 62
   250
420
  2301728
370
    35
100
AcDbVertex
100
AcDb2dVertex
 10
8.39690976127866
 20
-13.37491453666749
 30
0.0
  0
VERTEX
  5
54
330
52
100
AcDbEntity
  8
Layer 1
 62
   250
420
  2301728
370
    35
100
AcDbVertex
100
AcDb2dVertex
 10
1.81779598799716
 20
-13.39617840620991
 30
0.0
  0
SEQEND
  5
55
330
52
100
AcDbEntity
  8
Layer 1
 62
   250
420
  2301728
370
    35
  0
POLYLINE
  5
56
330
41
100
AcDbEntity
  8
Layer 1
 62
   250
420
  2301728
370
    35
100
AcDb2dPolyline
 66
     1
 10
0.0
 20
0.0
 30
0.0
  0
VERTEX
  5
57
330
56
100
AcDbEntity
  8
Layer 1
 62
   250
420
  2301728
370
    35
100
AcDbVertex
100
AcDb2dVertex
 10
9.373761811534523
 20
-16.31606611337488
 30
0.0
  0
VERTEX
  5
58
330
56
100
AcDbEntity
  8
Layer 1
 62
   250
420
  2301728
370
    35
100
AcDbVertex
100
AcDb2dVertex
 10
4.264759217313928
 20
-20.0550462888334
 30
0.0
  0
SEQEND
  5
59
330
56
100
AcDbEntity
  8
Layer 1
 62
   250
420
  2301728
370
    35
  0
POLYLINE
  5
5A
330
41
100
AcDbEntity
  8
Layer 1
 62
   250
420
  2301728
370
    35
100
AcDb2dPolyline
 66
     1
 10
0.0
 20
0.0
 30
0.0
  0
VERTEX
  5
5B
330
5A
100
AcDbEntity
  8
Layer 1
 62
   250
420
  2301728
370
    35
100
AcDbVertex
100
AcDb2dVertex
 10
9.87828913732605
 20
-24.28036245826898
 30
0.0
  0
VERTEX
  5
5C
330
5A
100
AcDbEntity
  8
Layer 1
 62
   250
420
  2301728
370
    35
100
AcDbVertex
100
AcDb2dVertex
 10
11.85248526876087
 20
-18.13372926014357
 30
0.0
  0
SEQEND
  5
5D
330
5A
100
AcDbEntity
  8
Layer 1
 62
   250
420
  2301728
370
    35
  0
POLYLINE
  5
5E
330
41
100
AcDbEntity
  8
Layer 1
 62
   250
420
  2301728
370
    35
100
AcDb2dPolyline
 66
     1
 10
0.0
 20
0.0
 30
0.0
  0
VERTEX
  5
5F
330
5E
100
AcDbEntity
  8
Layer 1
 62
   250
420
  2301728
370
    35
100
AcDbVertex
100
AcDb2dVertex
 10
16.89016027782834
 20
-24.07697694758632
 30
0.0
  0
VERTEX
  5
60
330
5E
100
AcDbEntity
  8
Layer 1
 62
   250
420
  2301728
370
    35
100
AcDbVertex
100
AcDb2dVertex
 10
14.92603070177678
 20
-18.09934413139136
 30
0.0
  0
SEQEND
  5
61
330
5E
100
AcDbEntity
  8
Layer 1
 62
   250
420
  2301728
370
    35
  0
POLYLINE
  5
62
330
41
100
AcDbEntity
  8
Layer 1
 62
   250
420
  2301728
370
    35
100
AcDb2dPolyline
 66
     1
 10
0.0
 20
0.0
 30
0.0
  0
VERTEX
  5
63
330
62
100
AcDbEntity
  8
Layer 1
 62
   250
420
  2301728
370
    35
100
AcDbVertex
100
AcDb2dVertex
 10
22.55506139483731
 20
-19.9636279213136
 30
0.0
  0
VERTEX
  5
64
330
62
100
AcDbEntity
  8
Layer 1
 62
   250
420
  2301728
370
    35
100
AcDbVertex
100
AcDb2dVertex
 10
17.43616973401471
 20
-16.27210824060134
 30
0.0
  0
SEQEND
  5
65
330
62
100
AcDbEntity
  8
Layer 1
 62
   250
420
  2301728
370
    35
  0
POLYLINE
  5
66
330
41
100
AcDbEntity
  8
Layer 1
 62
   250
420
  2301728
370
    35
100
AcDb2dPolyline
 66
     1
 10
0.0
 20
0.0
 30
0.0
  0
VERTEX
  5
67
330
66
100
AcDbEntity
  8
Layer 1
 62
   250
420
  2301728
370
    35
100
AcDbVertex
100
AcDb2dVertex
 10
24.83245628733311
 20
-13.35610251859036
 30
0.0
  0
VERTEX
  5
68
330
66
100
AcDbEntity
  8
Layer 1
 62
   250
420
  2301728
370
    35
100
AcDbVertex
100
AcDb2dVertex
 10
18.36713155901114
 20
-13.37699861893361
 30
0.0
  0
SEQEND
  5
69
330
66
100
AcDbEntity
  8
Layer 1
 62
   250
420
  2301728
370
    35
  0
POLYLINE
  5
6A
330
41
100
AcDbEntity
  8
Layer 1
 62
   250
420
  2301728
370
    35
100
AcDb2dPolyline
 66
     1
 10
0.0
 20
0.0
 30
0.0
  0
VERTEX
  5
6B
330
6A
100
AcDbEntity
  8
Layer 1
 62
   250
420
  2301728
370
    35
100
AcDbVertex
100
AcDb2dVertex
 10
22.62442474851197
 20
-6.599850127404193
 30
0.0
  0
VERTEX
  5
6C
330
6A
100
AcDbEntity
  8
Layer 1
 62
   250
420
  2301728
370
    35
100
AcDbVertex
100
AcDb2dVertex
 10
17.39378221609901
 20
-10.42785145896188
 30
0.0
  0
SEQEND
  5
6D
330
6A
100
AcDbEntity
  8
Layer 1
 62
   250
420
  2301728
370
    35
  0
SPLINE
  5
6E
330
41
100
AcDbEntity
  8
Layer 1
 62
   250
420
  2301728
370
    35
100
AcDbSpline
210
0.0
220
0.0
230
1.0
 70
    11
 71
     3
 72
    41
 73
    37
 74
     0
 42
0.0000000001
 43
0.0000000001
 12
1.0
 22
0.0
 32
0.0
 13
1.0
 23
0.0
 33
0.0
 40
0.0
 40
0.0
 40
0.0
 40
0.0
 40
1.0
 40
1.0
 40
1.0
 40
2.0
 40
2.0
 40
2.0
 40
3.0
 40
3.0
 40
3.0
 40
4.0
 40
4.0
 40
4.0
 40
5.0
 40
5.0
 40
5.0
 40
6.0
 40
6.0
 40
6.0
 40
7.0
 40
7.0
 40
7.0
 40
8.0
 40
8.0
 40
8.0
 40
9.0
 40
9.0
 40
9.0
 40
10.0
 40
10.0
 40
10.0
 40
11.0
 40
11.0
 40
11.0
 40
12.0
 40
12.0
 40
12.0
 40
12.0
 10
18.14387843997035
 20
-14.90404880134654
 30
0.0
 10
17.97882763854153
 20
-15.41793225967217
 30
0.0
 10
17.73963514201238
 20
-15.88579452250922
 30
0.0
 10
17.43625068253509
 20
-16.29968198819754
 30
0.0
 10
16.81319529614282
 20
-17.16668744569873
 30
0.0
 10
15.93209545652503
 20
-17.7988844642135
 30
0.0
 10
14.94271306625951
 20
-18.12211634120233
 30
0.0
 10
13.97227359554671
 20
-18.44403720033777
 30
0.0
 10
12.90042533656108
 20
-18.47030471525597
 30
0.0
 10
11.85248602899744
 20
-18.13372407667135
 30
0.0
 10
10.80790878658581
 20
-17.79822327737552
 30
0.0
 10
9.94953545900295
 20
-17.14829187016424
 30
0.0
 10
9.346965628685227
 20
-16.32485553391763
 30
0.0
 10
8.731939246168599
 20
-15.48260540979115
 30
0.0
 10
8.387094828742105
 20
-14.45665552989754
 30
0.0
 10
8.384341269490578
 20
-13.39235956154208
 30
0.0
 10
8.378702740543536
 20
-12.87921906275445
 30
0.0
 10
8.456680112955341
 20
-12.3595771891764
 30
0.0
 10
8.621730914384157
 20
-11.8456937308511
 30
0.0
 10
8.786788300197621
 20
-11.33178977212775
 30
0.0
 10
9.025974212342126
 20
-10.86394800968713
 30
0.0
 10
9.329358671818449
 20
-10.45006054400009
 30
0.0
 10
9.949051993058708
 20
-9.58197524721011
 30
0.0
 10
10.83017891746015
 20
-8.949764312684199
 30
0.0
 10
11.82062064661674
 20
-8.623163786157745
 30
0.0
 10
12.78998027804139
 20
-8.30460499217368
 30
0.0
 10
13.86626385708093
 20
-8.27607575178901
 30
0.0
 10
14.91084109949288
 20
-8.61157655108548
 30
0.0
 10
15.9587804070562
 20
-8.948157189669784
 30
0.0
 10
16.81487150877489
 20
-9.59364669244058
 30
0.0
 10
17.41636808419135
 20
-10.42042459344213
 30
0.0
 10
18.03248822200727
 20
-11.25933973719896
 30
0.0
 10
18.37959436489991
 20
-12.28972493714745
 30
0.0
 10
18.3812680848636
 20
-13.35738297065459
 30
0.0
 10
18.38690661380968
 20
-13.8705234694419
 30
0.0
 10
18.30893582578509
 20
-14.39014484262255
 30
0.0
 10
18.14387843997035
 20
-14.90404880134654
 30
0.0
  0
INSERT
  5
70
330
41
100
AcDbEntity
  8
Layer 1
100
AcDbBlockReference
  2
block 3
 10
0.0
 20
0.0
 30
0.0
  0
INSERT
  5
85
330
41
100
AcDbEntity
  8
Layer 1
100
AcDbBlockReference
  2
block 4
 10
0.0
 20
0.0
 30
0.0
  0
INSERT
  5
9B
330
41
100
AcDbEntity
  8
Layer 1
100
AcDbBlockReference
  2
block 5
 10
0.0
 20
0.0
 30
0.0
  0
INSERT
  5
B8
330
41
100
AcDbEntity
  8
Layer 1
100
AcDbBlockReference
  2
block 6
 10
0.0
 20
0.0
 30
0.0
  0
INSERT
  5
CD
330
41
100
AcDbEntity
  8
Layer 1
100
AcDbBlockReference
  2
block 7
 10
0.0
 20
0.0
 30
0.0
  0
INSERT
  5
E1
330
41
100
AcDbEntity
  8
Layer 1
100
AcDbBlockReference
  2
block 8
 10
0.0
 20
0.0
 30
0.0
  0
INSERT
  5
108
330
41
100
AcDbEntity
  8
Layer 1
100
AcDbBlockReference
  2
block 9
 10
0.0
 20
0.0
 30
0.0
  0
INSERT
  5
11C
330
41
100
AcDbEntity
  8
Layer 1
100
AcDbBlockReference
  2
block 10
 10
0.0
 20
0.0
 30
0.0
  0
INSERT
  5
130
330
41
100
AcDbEntity
  8
Layer 1
100
AcDbBlockReference
  2
block 11
 10
0.0
 20
0.0
 30
0.0
  0
INSERT
  5
150
330
41
100
AcDbEntity
  8
Layer 1
100
AcDbBlockReference
  2
block 12
 10
0.0
 20
0.0
 30
0.0
  0
ENDBLK
  5
44
330
41
100
AcDbEntity
  8
0
100
AcDbBlockEnd
  0
BLOCK
  5
71
330
6F
100
AcDbEntity
  8
0
100
AcDbBlockBegin
  2
block 3
 70
     0
 10
0.0
 20
0.0
 30
0.0
  3
block 3
  1

  0
POLYLINE
  5
73
330
6F
100
AcDbEntity
  8
Layer 1
370
     0
100
AcDb2dPolyline
 66
     1
 10
0.0
 20
0.0
 30
0.0
  0
VERTEX
  5
74
330
73
100
AcDbEntity
  8
Layer 1
370
     0
100
AcDbVertex
100
AcDb2dVertex
 10
12.6917317676604
 20
-2.529389105270431
 30
0.0
  0
VERTEX
  5
75
330
73
100
AcDbEntity
  8
Layer 1
370
     0
100
AcDbVertex
100
AcDb2dVertex
 10
12.6917317676604
 20
-5.428436956108169
 30
0.0
  0
VERTEX
  5
76
330
73
100
AcDbEntity
  8
Layer 1
370
     0
100
AcDbVertex
100
AcDb2dVertex
 10
13.14855142900453
 20
-5.428436956108169
 30
0.0
  0
VERTEX
  5
77
330
73
100
AcDbEntity
  8
Layer 1
370
     0
100
AcDbVertex
100
AcDb2dVertex
 10
13.14855142900453
 20
-5.909027776300521
 30
0.0
  0
VERTEX
  5
78
330
73
100
AcDbEntity
  8
Layer 1
370
     0
100
AcDbVertex
100
AcDb2dVertex
 10
11.74794785947621
 20
-5.909027776300521
 30
0.0
  0
VERTEX
  5
79
330
73
100
AcDbEntity
  8
Layer 1
370
     0
100
AcDbVertex
100
AcDb2dVertex
 10
11.74794785947621
 20
-5.428436956108169
 30
0.0
  0
VERTEX
  5
7A
330
73
100
AcDbEntity
  8
Layer 1
370
     0
100
AcDbVertex
100
AcDb2dVertex
 10
12.20442301127181
 20
-5.428436956108169
 30
0.0
  0
VERTEX
  5
7B
330
73
100
AcDbEntity
  8
Layer 1
370
     0
100
AcDbVertex
100
AcDb2dVertex
 10
12.20442301127181
 20
-3.009979925462783
 30
0.0
  0
VERTEX
  5
7C
330
73
100
AcDbEntity
  8
Layer 1
370
     0
100
AcDbVertex
100
AcDb2dVertex
 10
11.74794785947621
 20
-3.009979925462783
 30
0.0
  0
VERTEX
  5
7D
330
73
100
AcDbEntity
  8
Layer 1
370
     0
100
AcDbVertex
100
AcDb2dVertex
 10
11.74794785947621
 20
-2.529389105270431
 30
0.0
  0
VERTEX
  5
7E
330
73
100
AcDbEntity
  8
Layer 1
370
     0
100
AcDbVertex
100
AcDb2dVertex
 10
12.6917317676604
 20
-2.529389105270431
 30
0.0
  0
SEQEND
  5
7F
330
73
100
AcDbEntity
  8
Layer 1
370
     0
  0
HATCH
  5
80
330
6F
100
AcDbEntity
  8
Layer 1
 62
   250
420
  2301728
100
AcDbHatch
 10
0.0
 20
0.0
 30
0.0
210
0.0
220
0.0
230
1.0
  2
SOLID
 70
     1
 71
     0
 91
        1
 92
        1
 93
       10
 72
     1
 10
12.6917317676604
 20
-2.529389105270431
 11
12.6917317676604
 21
-5.428436956108169
 72
     1
 10
12.6917317676604
 20
-5.428436956108169
 11
13.14855142900453
 21
-5.428436956108169
 72
     1
 10
13.14855142900453
 20
-5.428436956108169
 11
13.14855142900453
 21
-5.909027776300521
 72
     1
 10
13.14855142900453
 20
-5.909027776300521
 11
11.74794785947621
 21
-5.909027776300521
 72
     1
 10
11.74794785947621
 20
-5.909027776300521
 11
11.74794785947621
 21
-5.428436956108169
 72
     1
 10
11.74794785947621
 20
-5.428436956108169
 11
12.20442301127181
 21
-5.428436956108169
 72
     1
 10
12.20442301127181
 20
-5.428436956108169
 11
12.20442301127181
 21
-3.009979925462783
 72
     1
 10
12.20442301127181
 20
-3.009979925462783
 11
11.74794785947621
 21
-3.009979925462783
 72
     1
 10
11.74794785947621
 20
-3.009979925462783
 11
11.74794785947621
 21
-2.529389105270431
 72
     1
 10
11.74794785947621
 20
-2.529389105270431
 11
12.6917317676604
 21
-2.529389105270431
 97
        0
 75
     2
 76
     1
 98
        0
  0
SPLINE
  5
81
330
6F
100
AcDbEntity
  8
Layer 1
370
     0
100
AcDbSpline
210
0.0
220
0.0
230
1.0
 70
    11
 71
     3
 72
    23
 73
    19
 74
     0
 42
0.0000000001
 43
0.0000000001
 12
1.0
 22
0.0
 32
0.0
 13
1.0
 23
0.0
 33
0.0
 40
0.0
 40
0.0
 40
0.0
 40
0.0
 40
1.0
 40
1.0
 40
1.0
 40
2.0
 40
2.0
 40
2.0
 40
3.0
 40
3.0
 40
3.0
 40
4.0
 40
4.0
 40
4.0
 40
5.0
 40
5.0
 40
5.0
 40
6.0
 40
6.0
 40
6.0
 40
6.0
 10
14.97961967941482
 20
-5.252737086360427
 30
0.0
 10
14.97961967941482
 20
-5.725920951259492
 30
0.0
 10
14.74604220551488
 20
-5.962426756321894
 30
0.0
 10
14.27854274816648
 20
-5.962426756321894
 30
0.0
 10
13.81242132901217
 20
-5.962426756321894
 30
0.0
 10
13.57918836466076
 20
-5.725920951259492
 30
0.0
 10
13.57918836466076
 20
-5.252737086360427
 30
0.0
 10
13.57918836466076
 20
-5.252737086360427
 30
0.0
 10
13.57918836466076
 20
-3.185679795210524
 30
0.0
 10
13.57918836466076
 20
-3.185679795210524
 30
0.0
 10
13.57918836466076
 20
-2.711462401665885
 30
0.0
 10
13.81242132901217
 20
-2.474267577506433
 30
0.0
 10
14.27854274816648
 20
-2.474267577506433
 30
0.0
 10
14.74604220551488
 20
-2.474267577506433
 30
0.0
 10
14.97961967941482
 20
-2.711462401665885
 30
0.0
 10
14.97961967941482
 20
-3.185679795210524
 30
0.0
 10
14.97961967941482
 20
-3.185679795210524
 30
0.0
 10
14.97961967941482
 20
-5.252737086360427
 30
0.0
 10
14.97961967941482
 20
-5.252737086360427
 30
0.0
  0
SPLINE
  5
82
330
6F
100
AcDbEntity
  8
Layer 1
370
     0
100
AcDbSpline
210
0.0
220
0.0
230
1.0
 70
    11
 71
     3
 72
    26
 73
    22
 74
     0
 42
0.0000000001
 43
0.0000000001
 12
1.0
 22
0.0
 32
0.0
 13
1.0
 23
0.0
 33
0.0
 40
0.0
 40
0.0
 40
0.0
 40
0.0
 40
1.0
 40
1.0
 40
1.0
 40
2.0
 40
2.0
 40
2.0
 40
3.0
 40
3.0
 40
3.0
 40
4.0
 40
4.0
 40
4.0
 40
5.0
 40
5.0
 40
5.0
 40
6.0
 40
6.0
 40
6.0
 40
7.0
 40
7.0
 40
7.0
 40
7.0
 10
14.49213866825197
 20
-3.185679795210524
 30
0.0
 10
14.49213866825197
 20
-3.032889810439694
 30
0.0
 10
14.42151421080434
 20
-2.95658094544141
 30
0.0
 10
14.2802652959091
 20
-2.95658094544141
 30
0.0
 10
14.2802652959091
 20
-2.95658094544141
 30
0.0
 10
14.27682020042385
 20
-2.95658094544141
 30
0.0
 10
14.27682020042385
 20
-2.95658094544141
 30
0.0
 10
14.13660481417418
 20
-2.95658094544141
 30
0.0
 10
14.06666937582361
 20
-3.032889810439694
 30
0.0
 10
14.06666937582361
 20
-3.185679795210524
 30
0.0
 10
14.06666937582361
 20
-3.185679795210524
 30
0.0
 10
14.06666937582361
 20
-5.252737086360427
 30
0.0
 10
14.06666937582361
 20
-5.252737086360427
 30
0.0
 10
14.06666937582361
 20
-5.405527071131258
 30
0.0
 10
14.13729383327123
 20
-5.481835936129541
 30
0.0
 10
14.27854274816648
 20
-5.481835936129541
 30
0.0
 10
14.42082519170729
 20
-5.481835936129541
 30
0.0
 10
14.49213866825197
 20
-5.405527071131258
 30
0.0
 10
14.49213866825197
 20
-5.252737086360427
 30
0.0
 10
14.49213866825197
 20
-5.252737086360427
 30
0.0
 10
14.49213866825197
 20
-3.185679795210524
 30
0.0
 10
14.49213866825197
 20
-3.185679795210524
 30
0.0
  0
HATCH
  5
83
330
6F
100
AcDbEntity
  8
Layer 1
 62
   250
420
  2301728
100
AcDbHatch
 10
0.0
 20
0.0
 30
0.0
210
0.0
220
0.0
230
1.0
  2
SOLID
 70
     1
 71
     0
 91
        2
 92
        1
 93
        1
 72
     4
 94
        3
 73
     0
 74
     1
 95
       23
 96
       19
 40
0.0
 40
0.0
 40
0.0
 40
0.0
 40
1.0
 40
1.0
 40
1.0
 40
2.0
 40
2.0
 40
2.0
 40
3.0
 40
3.0
 40
3.0
 40
4.0
 40
4.0
 40
4.0
 40
5.0
 40
5.0
 40
5.0
 40
6.0
 40
6.0
 40
6.0
 40
6.0
 10
14.97961967941482
 20
-5.252737086360427
 10
14.97961967941482
 20
-5.725920951259492
 10
14.74604220551488
 20
-5.962426756321894
 10
14.27854274816648
 20
-5.962426756321894
 10
13.81242132901217
 20
-5.962426756321894
 10
13.57918836466076
 20
-5.725920951259492
 10
13.57918836466076
 20
-5.252737086360427
 10
13.57918836466076
 20
-5.252737086360427
 10
13.57918836466076
 20
-3.185679795210524
 10
13.57918836466076
 20
-3.185679795210524
 10
13.57918836466076
 20
-2.711462401665885
 10
13.81242132901217
 20
-2.474267577506433
 10
14.27854274816648
 20
-2.474267577506433
 10
14.74604220551488
 20
-2.474267577506433
 10
14.97961967941482
 20
-2.711462401665885
 10
14.97961967941482
 20
-3.185679795210524
 10
14.97961967941482
 20
-3.185679795210524
 10
14.97961967941482
 20
-5.252737086360427
 10
14.97961967941482
 20
-5.252737086360427
 97
        0
 97
        0
 92
        1
 93
        1
 72
     4
 94
        3
 73
     0
 74
     1
 95
       26
 96
       22
 40
0.0
 40
0.0
 40
0.0
 40
0.0
 40
1.0
 40
1.0
 40
1.0
 40
2.0
 40
2.0
 40
2.0
 40
3.0
 40
3.0
 40
3.0
 40
4.0
 40
4.0
 40
4.0
 40
5.0
 40
5.0
 40
5.0
 40
6.0
 40
6.0
 40
6.0
 40
7.0
 40
7.0
 40
7.0
 40
7.0
 10
14.49213866825197
 20
-3.185679795210524
 10
14.49213866825197
 20
-3.032889810439694
 10
14.42151421080434
 20
-2.95658094544141
 10
14.2802652959091
 20
-2.95658094544141
 10
14.2802652959091
 20
-2.95658094544141
 10
14.27682020042385
 20
-2.95658094544141
 10
14.27682020042385
 20
-2.95658094544141
 10
14.13660481417418
 20
-2.95658094544141
 10
14.06666937582361
 20
-3.032889810439694
 10
14.06666937582361
 20
-3.185679795210524
 10
14.06666937582361
 20
-3.185679795210524
 10
14.06666937582361
 20
-5.252737086360427
 10
14.06666937582361
 20
-5.252737086360427
 10
14.06666937582361
 20
-5.405527071131258
 10
14.13729383327123
 20
-5.481835936129541
 10
14.27854274816648
 20
-5.481835936129541
 10
14.42082519170729
 20
-5.481835936129541
 10
14.49213866825197
 20
-5.405527071131258
 10
14.49213866825197
 20
-5.252737086360427
 10
14.49213866825197
 20
-5.252737086360427
 10
14.49213866825197
 20
-3.185679795210524
 10
14.49213866825197
 20
-3.185679795210524
 97
        0
 97
        0
 75
     2
 76
     1
 98
        0
  0
ENDBLK
  5
72
330
6F
100
AcDbEntity
  8
0
100
AcDbBlockEnd
  0
BLOCK
  5
86
330
84
100
AcDbEntity
  8
0
100
AcDbBlockBegin
  2
block 4
 70
     0
 10
0.0
 20
0.0
 30
0.0
  3
block 4
  1

  0
POLYLINE
  5
88
330
84
100
AcDbEntity
  8
Layer 1
370
     0
100
AcDb2dPolyline
 66
     1
 10
0.0
 20
0.0
 30
0.0
  0
VERTEX
  5
89
330
88
100
AcDbEntity
  8
Layer 1
370
     0
100
AcDbVertex
100
AcDb2dVertex
 10
2.732305229351646
 20
-10.60365939405047
 30
0.0
  0
VERTEX
  5
8A
330
88
100
AcDbEntity
  8
Layer 1
370
     0
100
AcDbVertex
100
AcDb2dVertex
 10
5.489759655745616
 20
-11.49955647498969
 30
0.0
  0
VERTEX
  5
8B
330
88
100
AcDbEntity
  8
Layer 1
370
     0
100
AcDbVertex
100
AcDb2dVertex
 10
5.630664061092334
 20
-11.06512993429969
 30
0.0
  0
VERTEX
  5
8C
330
88
100
AcDbEntity
  8
Layer 1
370
     0
100
AcDbVertex
100
AcDb2dVertex
 10
6.087828231984988
 20
-11.21378580448822
 30
0.0
  0
VERTEX
  5
8D
330
88
100
AcDbEntity
  8
Layer 1
370
     0
100
AcDbVertex
100
AcDb2dVertex
 10
5.655124239037608
 20
-12.54565971908581
 30
0.0
  0
VERTEX
  5
8E
330
88
100
AcDbEntity
  8
Layer 1
370
     0
100
AcDbVertex
100
AcDb2dVertex
 10
5.197960068144955
 20
-12.39717610367154
 30
0.0
  0
VERTEX
  5
8F
330
88
100
AcDbEntity
  8
Layer 1
370
     0
100
AcDbVertex
100
AcDb2dVertex
 10
5.338864473491673
 20
-11.9629218177558
 30
0.0
  0
VERTEX
  5
90
330
88
100
AcDbEntity
  8
Layer 1
370
     0
100
AcDbVertex
100
AcDb2dVertex
 10
3.038918727538881
 20
-11.21550835223085
 30
0.0
  0
VERTEX
  5
91
330
88
100
AcDbEntity
  8
Layer 1
370
     0
100
AcDbVertex
100
AcDb2dVertex
 10
2.897669812643638
 20
-11.64993489292085
 30
0.0
  0
VERTEX
  5
92
330
88
100
AcDbEntity
  8
Layer 1
370
     0
100
AcDbVertex
100
AcDb2dVertex
 10
2.44085015129951
 20
-11.50145127750658
 30
0.0
  0
VERTEX
  5
93
330
88
100
AcDbEntity
  8
Layer 1
370
     0
100
AcDbVertex
100
AcDb2dVertex
 10
2.732305229351646
 20
-10.60365939405047
 30
0.0
  0
SEQEND
  5
94
330
88
100
AcDbEntity
  8
Layer 1
370
     0
  0
HATCH
  5
95
330
84
100
AcDbEntity
  8
Layer 1
 62
   250
420
  2301728
100
AcDbHatch
 10
0.0
 20
0.0
 30
0.0
210
0.0
220
0.0
230
1.0
  2
SOLID
 70
     1
 71
     0
 91
        1
 92
        1
 93
       10
 72
     1
 10
2.732305229351646
 20
-10.60365939405047
 11
5.489759655745616
 21
-11.49955647498969
 72
     1
 10
5.489759655745616
 20
-11.49955647498969
 11
5.630664061092334
 21
-11.06512993429969
 72
     1
 10
5.630664061092334
 20
-11.06512993429969
 11
6.087828231984988
 21
-11.21378580448822
 72
     1
 10
6.087828231984988
 20
-11.21378580448822
 11
5.655124239037608
 21
-12.54565971908581
 72
     1
 10
5.655124239037608
 20
-12.54565971908581
 11
5.197960068144955
 21
-12.39717610367154
 72
     1
 10
5.197960068144955
 20
-12.39717610367154
 11
5.338864473491673
 21
-11.9629218177558
 72
     1
 10
5.338864473491673
 20
-11.9629218177558
 11
3.038918727538881
 21
-11.21550835223085
 72
     1
 10
3.038918727538881
 20
-11.21550835223085
 11
2.897669812643638
 21
-11.64993489292085
 72
     1
 10
2.897669812643638
 20
-11.64993489292085
 11
2.44085015129951
 21
-11.50145127750658
 72
     1
 10
2.44085015129951
 20
-11.50145127750658
 11
2.732305229351646
 21
-10.60365939405047
 97
        0
 75
     2
 76
     1
 98
        0
  0
SPLINE
  5
96
330
84
100
AcDbEntity
  8
Layer 1
370
     0
100
AcDbSpline
210
0.0
220
0.0
230
1.0
 70
    11
 71
     3
 72
    41
 73
    37
 74
     0
 42
0.0000000001
 43
0.0000000001
 12
1.0
 22
0.0
 32
0.0
 13
1.0
 23
0.0
 33
0.0
 40
0.0
 40
0.0
 40
0.0
 40
0.0
 40
1.0
 40
1.0
 40
1.0
 40
2.0
 40
2.0
 40
2.0
 40
3.0
 40
3.0
 40
3.0
 40
4.0
 40
4.0
 40
4.0
 40
5.0
 40
5.0
 40
5.0
 40
6.0
 40
6.0
 40
6.0
 40
7.0
 40
7.0
 40
7.0
 40
8.0
 40
8.0
 40
8.0
 40
9.0
 40
9.0
 40
9.0
 40
10.0
 40
10.0
 40
10.0
 40
11.0
 40
11.0
 40
11.0
 40
12.0
 40
12.0
 40
12.0
 40
12.0
 10
3.17775607559445
 20
-9.059912107110023
 30
0.0
 10
3.322450085974943
 20
-8.615494789512793
 30
0.0
 10
3.619417316803479
 20
-8.466322155001475
 30
0.0
 10
4.069346787177108
 20
-8.612394203576068
 30
0.0
 10
4.069346787177108
 20
-8.612394203576068
 30
0.0
 10
4.628141274884632
 20
-8.793950735648735
 30
0.0
 10
4.628141274884632
 20
-8.793950735648735
 30
0.0
 10
4.838981118581922
 20
-8.862508135805207
 30
0.0
 10
4.960592989211241
 20
-8.99548882153585
 30
0.0
 10
4.992976886772589
 20
-9.193237302389191
 30
0.0
 10
5.135259330313407
 20
-9.052332897042472
 30
0.0
 10
5.311648219158199
 20
-9.01615939444735
 30
0.0
 10
5.52248806285549
 20
-9.084716794603821
 30
0.0
 10
5.52248806285549
 20
-9.084716794603821
 30
0.0
 10
6.035462780609191
 20
-9.25128716131565
 30
0.0
 10
6.035462780609191
 20
-9.25128716131565
 30
0.0
 10
6.485392250982819
 20
-9.397531464664507
 30
0.0
 10
6.638009980979387
 20
-9.692776147750418
 30
0.0
 10
6.493660480147419
 20
-10.13736572012191
 30
0.0
 10
6.348966469766926
 20
-10.5819552924934
 30
0.0
 10
6.051999238938389
 20
-10.73112792700472
 30
0.0
 10
5.60206976856476
 20
-10.58488362365586
 30
0.0
 10
5.60206976856476
 20
-10.58488362365586
 30
0.0
 10
5.089439560359585
 20
-10.41831325694403
 30
0.0
 10
5.089439560359585
 20
-10.41831325694403
 30
0.0
 10
4.878599716662294
 20
-10.34975585678756
 30
0.0
 10
4.756987846032976
 20
-10.21677517105692
 30
0.0
 10
4.724603948471627
 20
-10.01902669020358
 30
0.0
 10
4.582321504930809
 20
-10.1599310955503
 30
0.0
 10
4.405588106537492
 20
-10.19610459814542
 30
0.0
 10
4.194748262840202
 20
-10.12754719798895
 30
0.0
 10
4.194748262840202
 20
-10.12754719798895
 30
0.0
 10
3.636298284681204
 20
-9.94599066591628
 30
0.0
 10
3.636298284681204
 20
-9.94599066591628
 30
0.0
 10
3.186368814307575
 20
-9.799918617341687
 30
0.0
 10
3.033406574762482
 20
-9.504673934255777
 30
0.0
 10
3.17775607559445
 20
-9.059912107110023
 30
0.0
  0
SPLINE
  5
97
330
84
100
AcDbEntity
  8
Layer 1
370
     0
100
AcDbSpline
210
0.0
220
0.0
230
1.0
 70
    11
 71
     3
 72
    35
 73
    31
 74
     0
 42
0.0000000001
 43
0.0000000001
 12
1.0
 22
0.0
 32
0.0
 13
1.0
 23
0.0
 33
0.0
 40
0.0
 40
0.0
 40
0.0
 40
0.0
 40
1.0
 40
1.0
 40
1.0
 40
2.0
 40
2.0
 40
2.0
 40
3.0
 40
3.0
 40
3.0
 40
4.0
 40
4.0
 40
4.0
 40
5.0
 40
5.0
 40
5.0
 40
6.0
 40
6.0
 40
6.0
 40
7.0
 40
7.0
 40
7.0
 40
8.0
 40
8.0
 40
8.0
 40
9.0
 40
9.0
 40
9.0
 40
10.0
 40
10.0
 40
10.0
 40
10.0
 10
4.638821070888906
 20
-9.485725909086902
 30
0.0
 10
4.65294596237843
 20
-9.442145451198492
 30
0.0
 10
4.65708007696073
 20
-9.407349986797469
 30
0.0
 10
4.65087890508728
 20
-9.381167261109569
 30
0.0
 10
4.641232637728581
 20
-9.33345268863886
 30
0.0
 10
4.582321504930809
 20
-9.291767033267336
 30
0.0
 10
4.474145506693964
 20
-9.256627059317788
 30
0.0
 10
4.474145506693964
 20
-9.256627059317788
 30
0.0
 10
3.91879611447169
 20
-9.076104055890697
 30
0.0
 10
3.91879611447169
 20
-9.076104055890697
 30
0.0
 10
3.774791123188247
 20
-9.02942301206556
 30
0.0
 10
3.680395506892401
 20
-9.073003469953973
 30
0.0
 10
3.635609265584153
 20
-9.207017684330191
 30
0.0
 10
3.635609265584153
 20
-9.207017684330191
 30
0.0
 10
3.634231227390054
 20
-9.210118270266916
 30
0.0
 10
3.634231227390054
 20
-9.210118270266916
 30
0.0
 10
3.591856552921481
 20
-9.344993758514446
 30
0.0
 10
3.642499456554653
 20
-9.435599769776518
 30
0.0
 10
3.786848957386621
 20
-9.482280813601653
 30
0.0
 10
3.786848957386621
 20
-9.482280813601653
 30
0.0
 10
4.342198349608895
 20
-9.662803817028744
 30
0.0
 10
4.342198349608895
 20
-9.662803817028744
 30
0.0
 10
4.45037434784574
 20
-9.697943790978293
 30
0.0
 10
4.522376843487462
 20
-9.69914957439813
 30
0.0
 10
4.55820583653406
 20
-9.666248912513995
 30
0.0
 10
4.578876409445559
 20
-9.648506670764958
 30
0.0
 10
4.596101886871808
 20
-9.617845320946234
 30
0.0
 10
4.610226778361333
 20
-9.574264863057824
 30
0.0
 10
4.610226778361333
 20
-9.574264863057824
 30
0.0
 10
4.638821070888906
 20
-9.485725909086902
 30
0.0
 10
4.638821070888906
 20
-9.485725909086902
 30
0.0
  0
SPLINE
  5
98
330
84
100
AcDbEntity
  8
Layer 1
370
     0
100
AcDbSpline
210
0.0
220
0.0
230
1.0
 70
    11
 71
     3
 72
    35
 73
    31
 74
     0
 42
0.0000000001
 43
0.0000000001
 12
1.0
 22
0.0
 32
0.0
 13
1.0
 23
0.0
 33
0.0
 40
0.0
 40
0.0
 40
0.0
 40
0.0
 40
1.0
 40
1.0
 40
1.0
 40
2.0
 40
2.0
 40
2.0
 40
3.0
 40
3.0
 40
3.0
 40
4.0
 40
4.0
 40
4.0
 40
5.0
 40
5.0
 40
5.0
 40
6.0
 40
6.0
 40
6.0
 40
7.0
 40
7.0
 40
7.0
 40
8.0
 40
8.0
 40
8.0
 40
9.0
 40
9.0
 40
9.0
 40
10.0
 40
10.0
 40
10.0
 40
10.0
 10
6.037185328351815
 20
-9.987331811739278
 30
0.0
 10
6.079560002820388
 20
-9.85262857826601
 30
0.0
 10
6.028917099187216
 20
-9.761850312229678
 30
0.0
 10
5.884567598355248
 20
-9.71499701363028
 30
0.0
 10
5.884567598355248
 20
-9.71499701363028
 30
0.0
 10
5.371937390150071
 20
-9.548426646918449
 30
0.0
 10
5.371937390150071
 20
-9.548426646918449
 30
0.0
 10
5.255148653200102
 20
-9.5105305965807
 30
0.0
 10
5.17763400478198
 20
-9.512253144323326
 30
0.0
 10
5.139737954444232
 20
-9.554455564017637
 30
0.0
 10
5.120445419726833
 20
-9.577020939446022
 30
0.0
 10
5.101841904106484
 20
-9.615606008880821
 30
0.0
 10
5.083927407583185
 20
-9.670383027096294
 30
0.0
 10
5.083927407583185
 20
-9.670383027096294
 30
0.0
 10
5.07875976435531
 20
-9.686919485425493
 30
0.0
 10
5.07875976435531
 20
-9.686919485425493
 30
0.0
 10
5.061189777380537
 20
-9.74135199409244
 30
0.0
 10
5.053266057764461
 20
-9.783382159012488
 30
0.0
 10
5.055677624604137
 20
-9.8131822349599
 30
0.0
 10
5.061878796477586
 20
-9.869509546143734
 30
0.0
 10
5.123201496115033
 20
-9.916707354291656
 30
0.0
 10
5.239990233065003
 20
-9.954603404629404
 30
0.0
 10
5.239990233065003
 20
-9.954603404629404
 30
0.0
 10
5.752620441270179
 20
-10.12117377134124
 30
0.0
 10
5.752620441270179
 20
-10.12117377134124
 30
0.0
 10
5.896969942102147
 20
-10.16802706994063
 30
0.0
 10
5.991365558397992
 20
-10.12444661205222
 30
0.0
 10
6.03615179970624
 20
-9.990604652450266
 30
0.0
 10
6.03615179970624
 20
-9.990604652450266
 30
0.0
 10
6.037185328351815
 20
-9.987331811739278
 30
0.0
 10
6.037185328351815
 20
-9.987331811739278
 30
0.0
  0
HATCH
  5
99
330
84
100
AcDbEntity
  8
Layer 1
 62
   250
420
  2301728
100
AcDbHatch
 10
0.0
 20
0.0
 30
0.0
210
0.0
220
0.0
230
1.0
  2
SOLID
 70
     1
 71
     0
 91
        3
 92
        1
 93
        1
 72
     4
 94
        3
 73
     0
 74
     1
 95
       41
 96
       37
 40
0.0
 40
0.0
 40
0.0
 40
0.0
 40
1.0
 40
1.0
 40
1.0
 40
2.0
 40
2.0
 40
2.0
 40
3.0
 40
3.0
 40
3.0
 40
4.0
 40
4.0
 40
4.0
 40
5.0
 40
5.0
 40
5.0
 40
6.0
 40
6.0
 40
6.0
 40
7.0
 40
7.0
 40
7.0
 40
8.0
 40
8.0
 40
8.0
 40
9.0
 40
9.0
 40
9.0
 40
10.0
 40
10.0
 40
10.0
 40
11.0
 40
11.0
 40
11.0
 40
12.0
 40
12.0
 40
12.0
 40
12.0
 10
3.17775607559445
 20
-9.059912107110023
 10
3.322450085974943
 20
-8.615494789512793
 10
3.619417316803479
 20
-8.466322155001475
 10
4.069346787177108
 20
-8.612394203576068
 10
4.069346787177108
 20
-8.612394203576068
 10
4.628141274884632
 20
-8.793950735648735
 10
4.628141274884632
 20
-8.793950735648735
 10
4.838981118581922
 20
-8.862508135805207
 10
4.960592989211241
 20
-8.99548882153585
 10
4.992976886772589
 20
-9.193237302389191
 10
5.135259330313407
 20
-9.052332897042472
 10
5.311648219158199
 20
-9.01615939444735
 10
5.52248806285549
 20
-9.084716794603821
 10
5.52248806285549
 20
-9.084716794603821
 10
6.035462780609191
 20
-9.25128716131565
 10
6.035462780609191
 20
-9.25128716131565
 10
6.485392250982819
 20
-9.397531464664507
 10
6.638009980979387
 20
-9.692776147750418
 10
6.493660480147419
 20
-10.13736572012191
 10
6.348966469766926
 20
-10.5819552924934
 10
6.051999238938389
 20
-10.73112792700472
 10
5.60206976856476
 20
-10.58488362365586
 10
5.60206976856476
 20
-10.58488362365586
 10
5.089439560359585
 20
-10.41831325694403
 10
5.089439560359585
 20
-10.41831325694403
 10
4.878599716662294
 20
-10.34975585678756
 10
4.756987846032976
 20
-10.21677517105692
 10
4.724603948471627
 20
-10.01902669020358
 10
4.582321504930809
 20
-10.1599310955503
 10
4.405588106537492
 20
-10.19610459814542
 10
4.194748262840202
 20
-10.12754719798895
 10
4.194748262840202
 20
-10.12754719798895
 10
3.636298284681204
 20
-9.94599066591628
 10
3.636298284681204
 20
-9.94599066591628
 10
3.186368814307575
 20
-9.799918617341687
 10
3.033406574762482
 20
-9.504673934255777
 10
3.17775607559445
 20
-9.059912107110023
 97
        0
 97
        0
 92
        1
 93
        1
 72
     4
 94
        3
 73
     0
 74
     1
 95
       35
 96
       31
 40
0.0
 40
0.0
 40
0.0
 40
0.0
 40
1.0
 40
1.0
 40
1.0
 40
2.0
 40
2.0
 40
2.0
 40
3.0
 40
3.0
 40
3.0
 40
4.0
 40
4.0
 40
4.0
 40
5.0
 40
5.0
 40
5.0
 40
6.0
 40
6.0
 40
6.0
 40
7.0
 40
7.0
 40
7.0
 40
8.0
 40
8.0
 40
8.0
 40
9.0
 40
9.0
 40
9.0
 40
10.0
 40
10.0
 40
10.0
 40
10.0
 10
4.638821070888906
 20
-9.485725909086902
 10
4.65294596237843
 20
-9.442145451198492
 10
4.65708007696073
 20
-9.407349986797469
 10
4.65087890508728
 20
-9.381167261109569
 10
4.641232637728581
 20
-9.33345268863886
 10
4.582321504930809
 20
-9.291767033267336
 10
4.474145506693964
 20
-9.256627059317788
 10
4.474145506693964
 20
-9.256627059317788
 10
3.91879611447169
 20
-9.076104055890697
 10
3.91879611447169
 20
-9.076104055890697
 10
3.774791123188247
 20
-9.02942301206556
 10
3.680395506892401
 20
-9.073003469953973
 10
3.635609265584153
 20
-9.207017684330191
 10
3.635609265584153
 20
-9.207017684330191
 10
3.634231227390054
 20
-9.210118270266916
 10
3.634231227390054
 20
-9.210118270266916
 10
3.591856552921481
 20
-9.344993758514446
 10
3.642499456554653
 20
-9.435599769776518
 10
3.786848957386621
 20
-9.482280813601653
 10
3.786848957386621
 20
-9.482280813601653
 10
4.342198349608895
 20
-9.662803817028744
 10
4.342198349608895
 20
-9.662803817028744
 10
4.45037434784574
 20
-9.697943790978293
 10
4.522376843487462
 20
-9.69914957439813
 10
4.55820583653406
 20
-9.666248912513995
 10
4.578876409445559
 20
-9.648506670764958
 10
4.596101886871808
 20
-9.617845320946234
 10
4.610226778361333
 20
-9.574264863057824
 10
4.610226778361333
 20
-9.574264863057824
 10
4.638821070888906
 20
-9.485725909086902
 10
4.638821070888906
 20
-9.485725909086902
 97
        0
 97
        0
 92
        1
 93
        1
 72
     4
 94
        3
 73
     0
 74
     1
 95
       35
 96
       31
 40
0.0
 40
0.0
 40
0.0
 40
0.0
 40
1.0
 40
1.0
 40
1.0
 40
2.0
 40
2.0
 40
2.0
 40
3.0
 40
3.0
 40
3.0
 40
4.0
 40
4.0
 40
4.0
 40
5.0
 40
5.0
 40
5.0
 40
6.0
 40
6.0
 40
6.0
 40
7.0
 40
7.0
 40
7.0
 40
8.0
 40
8.0
 40
8.0
 40
9.0
 40
9.0
 40
9.0
 40
10.0
 40
10.0
 40
10.0
 40
10.0
 10
6.037185328351815
 20
-9.987331811739278
 10
6.079560002820388
 20
-9.85262857826601
 10
6.028917099187216
 20
-9.761850312229678
 10
5.884567598355248
 20
-9.71499701363028
 10
5.884567598355248
 20
-9.71499701363028
 10
5.371937390150071
 20
-9.548426646918449
 10
5.371937390150071
 20
-9.548426646918449
 10
5.255148653200102
 20
-9.5105305965807
 10
5.17763400478198
 20
-9.512253144323326
 10
5.139737954444232
 20
-9.554455564017637
 10
5.120445419726833
 20
-9.577020939446022
 10
5.101841904106484
 20
-9.615606008880821
 10
5.083927407583185
 20
-9.670383027096294
 10
5.083927407583185
 20
-9.670383027096294
 10
5.07875976435531
 20
-9.686919485425493
 10
5.07875976435531
 20
-9.686919485425493
 10
5.061189777380537
 20
-9.74135199409244
 10
5.053266057764461
 20
-9.783382159012488
 10
5.055677624604137
 20
-9.8131822349599
 10
5.061878796477586
 20
-9.869509546143734
 10
5.123201496115033
 20
-9.916707354291656
 10
5.239990233065003
 20
-9.954603404629404
 10
5.239990233065003
 20
-9.954603404629404
 10
5.752620441270179
 20
-10.12117377134124
 10
5.752620441270179
 20
-10.12117377134124
 10
5.896969942102147
 20
-10.16802706994063
 10
5.991365558397992
 20
-10.12444661205222
 10
6.03615179970624
 20
-9.990604652450266
 10
6.03615179970624
 20
-9.990604652450266
 10
6.037185328351815
 20
-9.987331811739278
 10
6.037185328351815
 20
-9.987331811739278
 97
        0
 97
        0
 75
     2
 76
     1
 98
        0
  0
ENDBLK
  5
87
330
84
100
AcDbEntity
  8
0
100
AcDbBlockEnd
  0
BLOCK
  5
9C
330
9A
100
AcDbEntity
  8
0
100
AcDbBlockBegin
  2
block 5
 70
     0
 10
0.0
 20
0.0
 30
0.0
  3
block 5
  1

  0
POLYLINE
  5
9E
330
9A
100
AcDbEntity
  8
Layer 1
370
     0
100
AcDb2dPolyline
 66
     1
 10
0.0
 20
0.0
 30
0.0
  0
VERTEX
  5
9F
330
9E
100
AcDbEntity
  8
Layer 1
370
     0
100
AcDbVertex
100
AcDb2dVertex
 10
3.138826496611127
 20
-17.16139865022354
 30
0.0
  0
VERTEX
  5
A0
330
9E
100
AcDbEntity
  8
Layer 1
370
     0
100
AcDbVertex
100
AcDb2dVertex
 10
5.895936413456572
 20
-16.26567382405858
 30
0.0
  0
VERTEX
  5
A1
330
9E
100
AcDbEntity
  8
Layer 1
370
     0
100
AcDbVertex
100
AcDb2dVertex
 10
5.755032008109853
 20
-15.83090277382005
 30
0.0
  0
VERTEX
  5
A2
330
9E
100
AcDbEntity
  8
Layer 1
370
     0
100
AcDbVertex
100
AcDb2dVertex
 10
6.211851669453981
 20
-15.68241915840578
 30
0.0
  0
VERTEX
  5
A3
330
9E
100
AcDbEntity
  8
Layer 1
370
     0
100
AcDbVertex
100
AcDb2dVertex
 10
6.644555662401362
 20
-17.0146375825519
 30
0.0
  0
VERTEX
  5
A4
330
9E
100
AcDbEntity
  8
Layer 1
370
     0
100
AcDbVertex
100
AcDb2dVertex
 10
6.187736001057233
 20
-17.16312119796617
 30
0.0
  0
VERTEX
  5
A5
330
9E
100
AcDbEntity
  8
Layer 1
370
     0
100
AcDbVertex
100
AcDb2dVertex
 10
6.046487086161989
 20
-16.72869465727616
 30
0.0
  0
VERTEX
  5
A6
330
9E
100
AcDbEntity
  8
Layer 1
370
     0
100
AcDbVertex
100
AcDb2dVertex
 10
3.746541340209198
 20
-17.47628037757537
 30
0.0
  0
VERTEX
  5
A7
330
9E
100
AcDbEntity
  8
Layer 1
370
     0
100
AcDbVertex
100
AcDb2dVertex
 10
3.887445745555917
 20
-17.91036240871685
 30
0.0
  0
VERTEX
  5
A8
330
9E
100
AcDbEntity
  8
Layer 1
370
     0
100
AcDbVertex
100
AcDb2dVertex
 10
3.430626084211788
 20
-18.05884602413112
 30
0.0
  0
VERTEX
  5
A9
330
9E
100
AcDbEntity
  8
Layer 1
370
     0
100
AcDbVertex
100
AcDb2dVertex
 10
3.138826496611127
 20
-17.16139865022354
 30
0.0
  0
SEQEND
  5
AA
330
9E
100
AcDbEntity
  8
Layer 1
370
     0
  0
HATCH
  5
AB
330
9A
100
AcDbEntity
  8
Layer 1
 62
   250
420
  2301728
100
AcDbHatch
 10
0.0
 20
0.0
 30
0.0
210
0.0
220
0.0
230
1.0
  2
SOLID
 70
     1
 71
     0
 91
        1
 92
        1
 93
       10
 72
     1
 10
3.138826496611127
 20
-17.16139865022354
 11
5.895936413456572
 21
-16.26567382405858
 72
     1
 10
5.895936413456572
 20
-16.26567382405858
 11
5.755032008109853
 21
-15.83090277382005
 72
     1
 10
5.755032008109853
 20
-15.83090277382005
 11
6.211851669453981
 21
-15.68241915840578
 72
     1
 10
6.211851669453981
 20
-15.68241915840578
 11
6.644555662401362
 21
-17.0146375825519
 72
     1
 10
6.644555662401362
 20
-17.0146375825519
 11
6.187736001057233
 21
-17.16312119796617
 72
     1
 10
6.187736001057233
 20
-17.16312119796617
 11
6.046487086161989
 21
-16.72869465727616
 72
     1
 10
6.046487086161989
 20
-16.72869465727616
 11
3.746541340209198
 21
-17.47628037757537
 72
     1
 10
3.746541340209198
 20
-17.47628037757537
 11
3.887445745555917
 21
-17.91036240871685
 72
     1
 10
3.887445745555917
 20
-17.91036240871685
 11
3.430626084211788
 21
-18.05884602413112
 72
     1
 10
3.430626084211788
 20
-18.05884602413112
 11
3.138826496611127
 21
-17.16139865022354
 97
        0
 75
     2
 76
     1
 98
        0
  0
POLYLINE
  5
AC
330
9A
100
AcDbEntity
  8
Layer 1
370
     0
100
AcDb2dPolyline
 66
     1
 10
0.0
 20
0.0
 30
0.0
  0
VERTEX
  5
AD
330
AC
100
AcDbEntity
  8
Layer 1
370
     0
100
AcDbVertex
100
AcDb2dVertex
 10
3.321072047780843
 20
-16.16714409318044
 30
0.0
  0
VERTEX
  5
AE
330
AC
100
AcDbEntity
  8
Layer 1
370
     0
100
AcDbVertex
100
AcDb2dVertex
 10
2.864252386436715
 20
-16.3156277085947
 30
0.0
  0
VERTEX
  5
AF
330
AC
100
AcDbEntity
  8
Layer 1
370
     0
100
AcDbVertex
100
AcDb2dVertex
 10
2.418801540193911
 20
-14.94447970546527
 30
0.0
  0
VERTEX
  5
B0
330
AC
100
AcDbEntity
  8
Layer 1
370
     0
100
AcDbVertex
100
AcDb2dVertex
 10
2.74780815903527
 20
-14.837337235874
 30
0.0
  0
VERTEX
  5
B1
330
AC
100
AcDbEntity
  8
Layer 1
370
     0
100
AcDbVertex
100
AcDb2dVertex
 10
5.843570962080774
 20
-14.54863823421006
 30
0.0
  0
VERTEX
  5
B2
330
AC
100
AcDbEntity
  8
Layer 1
370
     0
100
AcDbVertex
100
AcDb2dVertex
 10
5.997911239819967
 20
-15.02371690162602
 30
0.0
  0
VERTEX
  5
B3
330
AC
100
AcDbEntity
  8
Layer 1
370
     0
100
AcDbVertex
100
AcDb2dVertex
 10
3.039607746635931
 20
-15.30035806909158
 30
0.0
  0
VERTEX
  5
B4
330
AC
100
AcDbEntity
  8
Layer 1
370
     0
100
AcDbVertex
100
AcDb2dVertex
 10
3.321072047780843
 20
-16.16714409318044
 30
0.0
  0
SEQEND
  5
B5
330
AC
100
AcDbEntity
  8
Layer 1
370
     0
  0
HATCH
  5
B6
330
9A
100
AcDbEntity
  8
Layer 1
 62
   250
420
  2301728
100
AcDbHatch
 10
0.0
 20
0.0
 30
0.0
210
0.0
220
0.0
230
1.0
  2
SOLID
 70
     1
 71
     0
 91
        1
 92
        1
 93
        7
 72
     1
 10
3.321072047780843
 20
-16.16714409318044
 11
2.864252386436715
 21
-16.3156277085947
 72
     1
 10
2.864252386436715
 20
-16.3156277085947
 11
2.418801540193911
 21
-14.94447970546527
 72
     1
 10
2.418801540193911
 20
-14.94447970546527
 11
2.74780815903527
 21
-14.837337235874
 72
     1
 10
2.74780815903527
 20
-14.837337235874
 11
5.843570962080774
 21
-14.54863823421006
 72
     1
 10
5.843570962080774
 20
-14.54863823421006
 11
5.997911239819967
 21
-15.02371690162602
 72
     1
 10
5.997911239819967
 20
-15.02371690162602
 11
3.039607746635931
 21
-15.30035806909158
 72
     1
 10
3.039607746635931
 20
-15.30035806909158
 11
3.321072047780843
 21
-16.16714409318044
 97
        0
 75
     2
 76
     1
 98
        0
  0
ENDBLK
  5
9D
330
9A
100
AcDbEntity
  8
0
100
AcDbBlockEnd
  0
BLOCK
  5
B9
330
B7
100
AcDbEntity
  8
0
100
AcDbBlockBegin
  2
block 6
 70
     0
 10
0.0
 20
0.0
 30
0.0
  3
block 6
  1

  0
POLYLINE
  5
BB
330
B7
100
AcDbEntity
  8
Layer 1
370
     0
100
AcDb2dPolyline
 66
     1
 10
0.0
 20
0.0
 30
0.0
  0
VERTEX
  5
BC
330
BB
100
AcDbEntity
  8
Layer 1
370
     0
100
AcDbVertex
100
AcDb2dVertex
 10
7.417118324968637
 20
-22.57329914800251
 30
0.0
  0
VERTEX
  5
BD
330
BB
100
AcDbEntity
  8
Layer 1
370
     0
100
AcDbVertex
100
AcDb2dVertex
 10
9.121062551973207
 20
-20.22787814164442
 30
0.0
  0
VERTEX
  5
BE
330
BB
100
AcDbEntity
  8
Layer 1
370
     0
100
AcDbVertex
100
AcDb2dVertex
 10
8.7514038064059
 20
-19.95950520334346
 30
0.0
  0
VERTEX
  5
BF
330
BB
100
AcDbEntity
  8
Layer 1
370
     0
100
AcDbVertex
100
AcDb2dVertex
 10
9.033901636196386
 20
-19.57089843260728
 30
0.0
  0
VERTEX
  5
C0
330
BB
100
AcDbEntity
  8
Layer 1
370
     0
100
AcDbVertex
100
AcDb2dVertex
 10
10.16716579606932
 20
-20.39393174403346
 30
0.0
  0
VERTEX
  5
C1
330
BB
100
AcDbEntity
  8
Layer 1
370
     0
100
AcDbVertex
100
AcDb2dVertex
 10
9.884667966278833
 20
-20.78288302431817
 30
0.0
  0
VERTEX
  5
C2
330
BB
100
AcDbEntity
  8
Layer 1
370
     0
100
AcDbVertex
100
AcDb2dVertex
 10
9.51535373026005
 20
-20.51416557646868
 30
0.0
  0
VERTEX
  5
C3
330
BB
100
AcDbEntity
  8
Layer 1
370
     0
100
AcDbVertex
100
AcDb2dVertex
 10
8.093907333045967
 20
-22.47097981209059
 30
0.0
  0
VERTEX
  5
C4
330
BB
100
AcDbEntity
  8
Layer 1
370
     0
100
AcDbVertex
100
AcDb2dVertex
 10
8.46322156906475
 20
-22.73935275039155
 30
0.0
  0
VERTEX
  5
C5
330
BB
100
AcDbEntity
  8
Layer 1
370
     0
100
AcDbVertex
100
AcDb2dVertex
 10
8.180723739274264
 20
-23.12830403067626
 30
0.0
  0
VERTEX
  5
C6
330
BB
100
AcDbEntity
  8
Layer 1
370
     0
100
AcDbVertex
100
AcDb2dVertex
 10
7.417118324968637
 20
-22.57329914800251
 30
0.0
  0
SEQEND
  5
C7
330
BB
100
AcDbEntity
  8
Layer 1
370
     0
  0
HATCH
  5
C8
330
B7
100
AcDbEntity
  8
Layer 1
 62
   250
420
  2301728
100
AcDbHatch
 10
0.0
 20
0.0
 30
0.0
210
0.0
220
0.0
230
1.0
  2
SOLID
 70
     1
 71
     0
 91
        1
 92
        1
 93
       10
 72
     1
 10
7.417118324968637
 20
-22.57329914800251
 11
9.121062551973207
 21
-20.22787814164442
 72
     1
 10
9.121062551973207
 20
-20.22787814164442
 11
8.7514038064059
 21
-19.95950520334346
 72
     1
 10
8.7514038064059
 20
-19.95950520334346
 11
9.033901636196386
 21
-19.57089843260728
 72
     1
 10
9.033901636196386
 20
-19.57089843260728
 11
10.16716579606932
 21
-20.39393174403346
 72
     1
 10
10.16716579606932
 20
-20.39393174403346
 11
9.884667966278833
 21
-20.78288302431817
 72
     1
 10
9.884667966278833
 20
-20.78288302431817
 11
9.51535373026005
 21
-20.51416557646868
 72
     1
 10
9.51535373026005
 20
-20.51416557646868
 11
8.093907333045967
 21
-22.47097981209059
 72
     1
 10
8.093907333045967
 20
-22.47097981209059
 11
8.46322156906475
 21
-22.73935275039155
 72
     1
 10
8.46322156906475
 20
-22.73935275039155
 11
8.180723739274264
 21
-23.12830403067626
 72
     1
 10
8.180723739274264
 20
-23.12830403067626
 11
7.417118324968637
 21
-22.57329914800251
 97
        0
 75
     2
 76
     1
 98
        0
  0
SPLINE
  5
C9
330
B7
100
AcDbEntity
  8
Layer 1
370
     0
100
AcDbSpline
210
0.0
220
0.0
230
1.0
 70
    11
 71
     3
 72
    56
 73
    52
 74
     0
 42
0.0000000001
 43
0.0000000001
 12
1.0
 22
0.0
 32
0.0
 13
1.0
 23
0.0
 33
0.0
 40
0.0
 40
0.0
 40
0.0
 40
0.0
 40
1.0
 40
1.0
 40
1.0
 40
2.0
 40
2.0
 40
2.0
 40
3.0
 40
3.0
 40
3.0
 40
4.0
 40
4.0
 40
4.0
 40
5.0
 40
5.0
 40
5.0
 40
6.0
 40
6.0
 40
6.0
 40
7.0
 40
7.0
 40
7.0
 40
8.0
 40
8.0
 40
8.0
 40
9.0
 40
9.0
 40
9.0
 40
10.0
 40
10.0
 40
10.0
 40
11.0
 40
11.0
 40
11.0
 40
12.0
 40
12.0
 40
12.0
 40
13.0
 40
13.0
 40
13.0
 40
14.0
 40
14.0
 40
14.0
 40
15.0
 40
15.0
 40
15.0
 40
16.0
 40
16.0
 40
16.0
 40
17.0
 40
17.0
 40
17.0
 40
17.0
 10
7.159425182671949
 20
-20.55964083687398
 30
0.0
 10
7.038330076365418
 20
-20.57204318062088
 30
0.0
 10
6.923608396706598
 20
-20.53931477351101
 30
0.0
 10
6.815776908018278
 20
-20.46111110599583
 30
0.0
 10
6.796312118526616
 20
-20.44664170495778
 30
0.0
 10
6.777019583809218
 20
-20.43148328482269
 30
0.0
 10
6.757899303866081
 20
-20.41460231694496
 30
0.0
 10
6.641110566916112
 20
-20.30987141419337
 30
0.0
 10
6.574964733599315
 20
-20.1930826772434
 30
0.0
 10
6.559289549141428
 20
-20.063547086998
 30
0.0
 10
6.543442109909279
 20
-19.93159992991293
 30
0.0
 10
6.609587943226075
 20
-19.76313476068422
 30
0.0
 10
6.758071558640344
 20
-19.5588405984089
 30
0.0
 10
6.758071558640344
 20
-19.5588405984089
 30
0.0
 10
7.152879501249975
 20
-19.015549040385
 30
0.0
 10
7.152879501249975
 20
-19.015549040385
 30
0.0
 10
7.4310709616839
 20
-18.63245442242522
 30
0.0
 10
7.759044051879684
 20
-18.5783664233068
 30
0.0
 10
8.137143281385853
 20
-18.85294053348121
 30
0.0
 10
8.51438123702071
 20
-19.1271701341071
 30
0.0
 10
8.563990612008308
 20
-19.45548773385141
 30
0.0
 10
8.285799151574384
 20
-19.83823784226266
 30
0.0
 10
8.285799151574384
 20
-19.83823784226266
 30
0.0
 10
7.070886228701029
 20
-21.51048719080293
 30
0.0
 10
7.070886228701029
 20
-21.51048719080293
 30
0.0
 10
6.792178003944317
 20
-21.89427082785977
 30
0.0
 10
6.464204913748532
 20
-21.94939235562376
 30
0.0
 10
6.086966958113675
 20
-21.67516275499788
 30
0.0
 10
5.708867728607506
 20
-21.40024413527494
 30
0.0
 10
5.659258353619908
 20
-21.07123751643358
 30
0.0
 10
5.93796657837662
 20
-20.68779838892527
 30
0.0
 10
5.93796657837662
 20
-20.68779838892527
 30
0.0
 10
6.204272459386432
 20
-20.32124022929469
 30
0.0
 10
6.204272459386432
 20
-20.32124022929469
 30
0.0
 10
6.204272459386432
 20
-20.32124022929469
 30
0.0
 10
6.598563637673276
 20
-20.60752766411895
 30
0.0
 10
6.598563637673276
 20
-20.60752766411895
 30
0.0
 10
6.598563637673276
 20
-20.60752766411895
 30
0.0
 10
6.332257756663464
 20
-20.97408582374954
 30
0.0
 10
6.332257756663464
 20
-20.97408582374954
 30
0.0
 10
6.242513019272705
 20
-21.09776475167001
 30
0.0
 10
6.254743108245342
 20
-21.2011176162275
 30
0.0
 10
6.368948023581375
 20
-21.28379990787349
 30
0.0
 10
6.368948023581375
 20
-21.28379990787349
 30
0.0
 10
6.371704099969574
 20
-21.28586696516464
 30
0.0
 10
6.371704099969574
 20
-21.28586696516464
 30
0.0
 10
6.485219996208556
 20
-21.36854925681064
 30
0.0
 10
6.586678058249164
 20
-21.34787868389914
 30
0.0
 10
6.676422795639922
 20
-21.22419975597867
 30
0.0
 10
6.676422795639922
 20
-21.22419975597867
 30
0.0
 10
7.159425182671949
 20
-20.55964083687398
 30
0.0
 10
7.159425182671949
 20
-20.55964083687398
 30
0.0
  0
SPLINE
  5
CA
330
B7
100
AcDbEntity
  8
Layer 1
370
     0
100
AcDbSpline
210
0.0
220
0.0
230
1.0
 70
    11
 71
     3
 72
    29
 73
    25
 74
     0
 42
0.0000000001
 43
0.0000000001
 12
1.0
 22
0.0
 32
0.0
 13
1.0
 23
0.0
 33
0.0
 40
0.0
 40
0.0
 40
0.0
 40
0.0
 40
1.0
 40
1.0
 40
1.0
 40
2.0
 40
2.0
 40
2.0
 40
3.0
 40
3.0
 40
3.0
 40
4.0
 40
4.0
 40
4.0
 40
5.0
 40
5.0
 40
5.0
 40
6.0
 40
6.0
 40
6.0
 40
7.0
 40
7.0
 40
7.0
 40
8.0
 40
8.0
 40
8.0
 40
8.0
 10
7.152362736927188
 20
-19.84512803323316
 30
0.0
 10
7.081566024705303
 20
-19.94296874501426
 30
0.0
 10
7.060378687471017
 20
-20.01462673110746
 30
0.0
 10
7.089145234772853
 20
-20.06148002970685
 30
0.0
 10
7.104131400133689
 20
-20.08766275539475
 30
0.0
 10
7.135998533372251
 20
-20.118668614762
 30
0.0
 10
7.185263398811323
 20
-20.1544976078086
 30
0.0
 10
7.197321233009697
 20
-20.16345485607025
 30
0.0
 10
7.210240341079385
 20
-20.17172308523485
 30
0.0
 10
7.224020723020384
 20
-20.1806803334965
 30
0.0
 10
7.318760848864755
 20
-20.24338107132805
 30
0.0
 10
7.409539114901087
 20
-20.215131288349
 30
0.0
 10
7.496527775903647
 20
-20.0952419654623
 30
0.0
 10
7.496527775903647
 20
-20.0952419654623
 30
0.0
 10
7.891335718513278
 20
-19.5519504074384
 30
0.0
 10
7.891335718513278
 20
-19.5519504074384
 30
0.0
 10
7.981252710678298
 20
-19.42827147951793
 30
0.0
 10
7.969022621705661
 20
-19.32491861496044
 30
0.0
 10
7.854645451595367
 20
-19.24223632331444
 30
0.0
 10
7.739579262388022
 20
-19.15817599347434
 30
0.0
 10
7.637087671701839
 20
-19.17815754728879
 30
0.0
 10
7.547170679536819
 20
-19.30183647520926
 30
0.0
 10
7.547170679536819
 20
-19.30183647520926
 30
0.0
 10
7.152362736927188
 20
-19.84512803323316
 30
0.0
 10
7.152362736927188
 20
-19.84512803323316
 30
0.0
  0
HATCH
  5
CB
330
B7
100
AcDbEntity
  8
Layer 1
 62
   250
420
  2301728
100
AcDbHatch
 10
0.0
 20
0.0
 30
0.0
210
0.0
220
0.0
230
1.0
  2
SOLID
 70
     1
 71
     0
 91
        2
 92
        1
 93
        1
 72
     4
 94
        3
 73
     0
 74
     1
 95
       56
 96
       52
 40
0.0
 40
0.0
 40
0.0
 40
0.0
 40
1.0
 40
1.0
 40
1.0
 40
2.0
 40
2.0
 40
2.0
 40
3.0
 40
3.0
 40
3.0
 40
4.0
 40
4.0
 40
4.0
 40
5.0
 40
5.0
 40
5.0
 40
6.0
 40
6.0
 40
6.0
 40
7.0
 40
7.0
 40
7.0
 40
8.0
 40
8.0
 40
8.0
 40
9.0
 40
9.0
 40
9.0
 40
10.0
 40
10.0
 40
10.0
 40
11.0
 40
11.0
 40
11.0
 40
12.0
 40
12.0
 40
12.0
 40
13.0
 40
13.0
 40
13.0
 40
14.0
 40
14.0
 40
14.0
 40
15.0
 40
15.0
 40
15.0
 40
16.0
 40
16.0
 40
16.0
 40
17.0
 40
17.0
 40
17.0
 40
17.0
 10
7.159425182671949
 20
-20.55964083687398
 10
7.038330076365418
 20
-20.57204318062088
 10
6.923608396706598
 20
-20.53931477351101
 10
6.815776908018278
 20
-20.46111110599583
 10
6.796312118526616
 20
-20.44664170495778
 10
6.777019583809218
 20
-20.43148328482269
 10
6.757899303866081
 20
-20.41460231694496
 10
6.641110566916112
 20
-20.30987141419337
 10
6.574964733599315
 20
-20.1930826772434
 10
6.559289549141428
 20
-20.063547086998
 10
6.543442109909279
 20
-19.93159992991293
 10
6.609587943226075
 20
-19.76313476068422
 10
6.758071558640344
 20
-19.5588405984089
 10
6.758071558640344
 20
-19.5588405984089
 10
7.152879501249975
 20
-19.015549040385
 10
7.152879501249975
 20
-19.015549040385
 10
7.4310709616839
 20
-18.63245442242522
 10
7.759044051879684
 20
-18.5783664233068
 10
8.137143281385853
 20
-18.85294053348121
 10
8.51438123702071
 20
-19.1271701341071
 10
8.563990612008308
 20
-19.45548773385141
 10
8.285799151574384
 20
-19.83823784226266
 10
8.285799151574384
 20
-19.83823784226266
 10
7.070886228701029
 20
-21.51048719080293
 10
7.070886228701029
 20
-21.51048719080293
 10
6.792178003944317
 20
-21.89427082785977
 10
6.464204913748532
 20
-21.94939235562376
 10
6.086966958113675
 20
-21.67516275499788
 10
5.708867728607506
 20
-21.40024413527494
 10
5.659258353619908
 20
-21.07123751643358
 10
5.93796657837662
 20
-20.68779838892527
 10
5.93796657837662
 20
-20.68779838892527
 10
6.204272459386432
 20
-20.32124022929469
 10
6.204272459386432
 20
-20.32124022929469
 10
6.204272459386432
 20
-20.32124022929469
 10
6.598563637673276
 20
-20.60752766411895
 10
6.598563637673276
 20
-20.60752766411895
 10
6.598563637673276
 20
-20.60752766411895
 10
6.332257756663464
 20
-20.97408582374954
 10
6.332257756663464
 20
-20.97408582374954
 10
6.242513019272705
 20
-21.09776475167001
 10
6.254743108245342
 20
-21.2011176162275
 10
6.368948023581375
 20
-21.28379990787349
 10
6.368948023581375
 20
-21.28379990787349
 10
6.371704099969574
 20
-21.28586696516464
 10
6.371704099969574
 20
-21.28586696516464
 10
6.485219996208556
 20
-21.36854925681064
 10
6.586678058249164
 20
-21.34787868389914
 10
6.676422795639922
 20
-21.22419975597867
 10
6.676422795639922
 20
-21.22419975597867
 10
7.159425182671949
 20
-20.55964083687398
 10
7.159425182671949
 20
-20.55964083687398
 97
        0
 97
        0
 92
        1
 93
        1
 72
     4
 94
        3
 73
     0
 74
     1
 95
       29
 96
       25
 40
0.0
 40
0.0
 40
0.0
 40
0.0
 40
1.0
 40
1.0
 40
1.0
 40
2.0
 40
2.0
 40
2.0
 40
3.0
 40
3.0
 40
3.0
 40
4.0
 40
4.0
 40
4.0
 40
5.0
 40
5.0
 40
5.0
 40
6.0
 40
6.0
 40
6.0
 40
7.0
 40
7.0
 40
7.0
 40
8.0
 40
8.0
 40
8.0
 40
8.0
 10
7.152362736927188
 20
-19.84512803323316
 10
7.081566024705303
 20
-19.94296874501426
 10
7.060378687471017
 20
-20.01462673110746
 10
7.089145234772853
 20
-20.06148002970685
 10
7.104131400133689
 20
-20.08766275539475
 10
7.135998533372251
 20
-20.118668614762
 10
7.185263398811323
 20
-20.1544976078086
 10
7.197321233009697
 20
-20.16345485607025
 10
7.210240341079385
 20
-20.17172308523485
 10
7.224020723020384
 20
-20.1806803334965
 10
7.318760848864755
 20
-20.24338107132805
 10
7.409539114901087
 20
-20.215131288349
 10
7.496527775903647
 20
-20.0952419654623
 10
7.496527775903647
 20
-20.0952419654623
 10
7.891335718513278
 20
-19.5519504074384
 10
7.891335718513278
 20
-19.5519504074384
 10
7.981252710678298
 20
-19.42827147951793
 10
7.969022621705661
 20
-19.32491861496044
 10
7.854645451595367
 20
-19.24223632331444
 10
7.739579262388022
 20
-19.15817599347434
 10
7.637087671701839
 20
-19.17815754728879
 10
7.547170679536819
 20
-19.30183647520926
 10
7.547170679536819
 20
-19.30183647520926
 10
7.152362736927188
 20
-19.84512803323316
 10
7.152362736927188
 20
-19.84512803323316
 97
        0
 97
        0
 75
     2
 76
     1
 98
        0
  0
ENDBLK
  5
BA
330
B7
100
AcDbEntity
  8
0
100
AcDbBlockEnd
  0
BLOCK
  5
CE
330
CC
100
AcDbEntity
  8
0
100
AcDbBlockBegin
  2
block 7
 70
     0
 10
0.0
 20
0.0
 30
0.0
  3
block 7
  1

  0
POLYLINE
  5
D0
330
CC
100
AcDbEntity
  8
Layer 1
370
     0
100
AcDb2dPolyline
 66
     1
 10
0.0
 20
0.0
 30
0.0
  0
VERTEX
  5
D1
330
D0
100
AcDbEntity
  8
Layer 1
370
     0
100
AcDbVertex
100
AcDb2dVertex
 10
13.99328884198779
 20
-24.17354600090106
 30
0.0
  0
VERTEX
  5
D2
330
D0
100
AcDbEntity
  8
Layer 1
370
     0
100
AcDbVertex
100
AcDb2dVertex
 10
13.99328884198779
 20
-21.27484265961185
 30
0.0
  0
VERTEX
  5
D3
330
D0
100
AcDbEntity
  8
Layer 1
370
     0
100
AcDbVertex
100
AcDb2dVertex
 10
13.53646918064366
 20
-21.27484265961185
 30
0.0
  0
VERTEX
  5
D4
330
D0
100
AcDbEntity
  8
Layer 1
370
     0
100
AcDbVertex
100
AcDb2dVertex
 10
13.53646918064366
 20
-20.79390732987097
 30
0.0
  0
VERTEX
  5
D5
330
D0
100
AcDbEntity
  8
Layer 1
370
     0
100
AcDbVertex
100
AcDb2dVertex
 10
14.93724500494625
 20
-20.79390732987097
 30
0.0
  0
VERTEX
  5
D6
330
D0
100
AcDbEntity
  8
Layer 1
370
     0
100
AcDbVertex
100
AcDb2dVertex
 10
14.93724500494625
 20
-21.27484265961185
 30
0.0
  0
VERTEX
  5
D7
330
D0
100
AcDbEntity
  8
Layer 1
370
     0
100
AcDbVertex
100
AcDb2dVertex
 10
14.48042534360212
 20
-21.27484265961185
 30
0.0
  0
VERTEX
  5
D8
330
D0
100
AcDbEntity
  8
Layer 1
370
     0
100
AcDbVertex
100
AcDb2dVertex
 10
14.48042534360212
 20
-23.69329969025723
 30
0.0
  0
VERTEX
  5
D9
330
D0
100
AcDbEntity
  8
Layer 1
370
     0
100
AcDbVertex
100
AcDb2dVertex
 10
14.93724500494625
 20
-23.69329969025723
 30
0.0
  0
VERTEX
  5
DA
330
D0
100
AcDbEntity
  8
Layer 1
370
     0
100
AcDbVertex
100
AcDb2dVertex
 10
14.93724500494625
 20
-24.17354600090106
 30
0.0
  0
VERTEX
  5
DB
330
D0
100
AcDbEntity
  8
Layer 1
370
     0
100
AcDbVertex
100
AcDb2dVertex
 10
13.99328884198779
 20
-24.17354600090106
 30
0.0
  0
SEQEND
  5
DC
330
D0
100
AcDbEntity
  8
Layer 1
370
     0
  0
HATCH
  5
DD
330
CC
100
AcDbEntity
  8
Layer 1
 62
   250
420
  2301728
100
AcDbHatch
 10
0.0
 20
0.0
 30
0.0
210
0.0
220
0.0
230
1.0
  2
SOLID
 70
     1
 71
     0
 91
        1
 92
        1
 93
       10
 72
     1
 10
13.99328884198779
 20
-24.17354600090106
 11
13.99328884198779
 21
-21.27484265961185
 72
     1
 10
13.99328884198779
 20
-21.27484265961185
 11
13.53646918064366
 21
-21.27484265961185
 72
     1
 10
13.53646918064366
 20
-21.27484265961185
 11
13.53646918064366
 21
-20.79390732987097
 72
     1
 10
13.53646918064366
 20
-20.79390732987097
 11
14.93724500494625
 21
-20.79390732987097
 72
     1
 10
14.93724500494625
 20
-20.79390732987097
 11
14.93724500494625
 21
-21.27484265961185
 72
     1
 10
14.93724500494625
 20
-21.27484265961185
 11
14.48042534360212
 21
-21.27484265961185
 72
     1
 10
14.48042534360212
 20
-21.27484265961185
 11
14.48042534360212
 21
-23.69329969025723
 72
     1
 10
14.48042534360212
 20
-23.69329969025723
 11
14.93724500494625
 21
-23.69329969025723
 72
     1
 10
14.93724500494625
 20
-23.69329969025723
 11
14.93724500494625
 21
-24.17354600090106
 72
     1
 10
14.93724500494625
 20
-24.17354600090106
 11
13.99328884198779
 21
-24.17354600090106
 97
        0
 75
     2
 76
     1
 98
        0
  0
SPLINE
  5
DE
330
CC
100
AcDbEntity
  8
Layer 1
370
     0
100
AcDbSpline
210
0.0
220
0.0
230
1.0
 70
    11
 71
     3
 72
    80
 73
    76
 74
     0
 42
0.0000000001
 43
0.0000000001
 12
1.0
 22
0.0
 32
0.0
 13
1.0
 23
0.0
 33
0.0
 40
0.0
 40
0.0
 40
0.0
 40
0.0
 40
1.0
 40
1.0
 40
1.0
 40
2.0
 40
2.0
 40
2.0
 40
3.0
 40
3.0
 40
3.0
 40
4.0
 40
4.0
 40
4.0
 40
5.0
 40
5.0
 40
5.0
 40
6.0
 40
6.0
 40
6.0
 40
7.0
 40
7.0
 40
7.0
 40
8.0
 40
8.0
 40
8.0
 40
9.0
 40
9.0
 40
9.0
 40
10.0
 40
10.0
 40
10.0
 40
11.0
 40
11.0
 40
11.0
 40
12.0
 40
12.0
 40
12.0
 40
13.0
 40
13.0
 40
13.0
 40
14.0
 40
14.0
 40
14.0
 40
15.0
 40
15.0
 40
15.0
 40
16.0
 40
16.0
 40
16.0
 40
17.0
 40
17.0
 40
17.0
 40
18.0
 40
18.0
 40
18.0
 40
19.0
 40
19.0
 40
19.0
 40
20.0
 40
20.0
 40
20.0
 40
21.0
 40
21.0
 40
21.0
 40
22.0
 40
22.0
 40
22.0
 40
23.0
 40
23.0
 40
23.0
 40
24.0
 40
24.0
 40
24.0
 40
25.0
 40
25.0
 40
25.0
 40
25.0
 10
12.17565646396998
 20
-22.40965711245314
 30
0.0
 10
12.17565646396998
 20
-22.52920192579131
 30
0.0
 10
12.2008056610123
 20
-22.59982638323893
 30
0.0
 10
12.25144856464547
 20
-22.62187499434453
 30
0.0
 10
12.27900932852747
 20
-22.63427733809143
 30
0.0
 10
12.32310655073867
 20
-22.64047850996488
 30
0.0
 10
12.38408474082759
 20
-22.64047850996488
 30
0.0
 10
12.39889865141416
 20
-22.64047850996488
 30
0.0
 10
12.41440158109779
 20
-22.64013400041636
 30
0.0
 10
12.43059352987846
 20
-22.63910047177078
 30
0.0
 10
12.52946777030513
 20
-22.63427733809143
 30
0.0
 10
12.58458929806913
 20
-22.59018011588023
 30
0.0
 10
12.59595811317046
 20
-22.50611978604014
 30
0.0
 10
12.59595811317046
 20
-22.50611978604014
 30
0.0
 10
12.60112575639833
 20
-22.3703830239213
 30
0.0
 10
12.60112575639833
 20
-22.3703830239213
 30
0.0
 10
12.60112575639833
 20
-22.3703830239213
 30
0.0
 10
13.08860676756118
 20
-22.3703830239213
 30
0.0
 10
13.08860676756118
 20
-22.3703830239213
 30
0.0
 10
13.08860676756118
 20
-22.3703830239213
 30
0.0
 10
13.01625976237094
 20
-24.17354600090106
 30
0.0
 10
13.01625976237094
 20
-24.17354600090106
 30
0.0
 10
13.01625976237094
 20
-24.17354600090106
 30
0.0
 10
11.68817545280712
 20
-24.17354600090106
 30
0.0
 10
11.68817545280712
 20
-24.17354600090106
 30
0.0
 10
11.68817545280712
 20
-24.17354600090106
 30
0.0
 10
11.68817545280712
 20
-23.69329969025723
 30
0.0
 10
11.68817545280712
 20
-23.69329969025723
 30
0.0
 10
11.68817545280712
 20
-23.69329969025723
 30
0.0
 10
12.54772677637696
 20
-23.69329969025723
 30
0.0
 10
12.54772677637696
 20
-23.69329969025723
 30
0.0
 10
12.54772677637696
 20
-23.69329969025723
 30
0.0
 10
12.58217773122946
 20
-22.96638454286952
 30
0.0
 10
12.58217773122946
 20
-22.96638454286952
 30
0.0
 10
12.49949543958346
 20
-23.06146917826241
 30
0.0
 10
12.38684081721579
 20
-23.10901149595886
 30
0.0
 10
12.24455837367497
 20
-23.10901149595886
 30
0.0
 10
12.22492132940905
 20
-23.10901149595886
 30
0.0
 10
12.2049397755946
 20
-23.10797796731329
 30
0.0
 10
12.1842692026831
 20
-23.10556640047361
 30
0.0
 10
12.01442599526028
 20
-23.09075248988703
 30
0.0
 10
11.88523491456341
 20
-23.02253959927909
 30
0.0
 10
11.79669596059249
 20
-22.90092772864977
 30
0.0
 10
11.72434895540225
 20
-22.8020534882231
 30
0.0
 10
11.68817545280712
 20
-22.63841145267373
 30
0.0
 10
11.68817545280712
 20
-22.40965711245314
 30
0.0
 10
11.68817545280712
 20
-22.40965711245314
 30
0.0
 10
11.68817545280712
 20
-21.45054252935959
 30
0.0
 10
11.68817545280712
 20
-21.45054252935959
 30
0.0
 10
11.68817545280712
 20
-20.97718640968626
 30
0.0
 10
11.92175292670706
 20
-20.74085285939812
 30
0.0
 10
12.38925238405547
 20
-20.74085285939812
 30
0.0
 10
12.85537380320977
 20
-20.74085285939812
 30
0.0
 10
13.08860676756118
 20
-20.97718640968626
 30
0.0
 10
13.08860676756118
 20
-21.45054252935959
 30
0.0
 10
13.08860676756118
 20
-21.45054252935959
 30
0.0
 10
13.08860676756118
 20
-21.85017360564857
 30
0.0
 10
13.08860676756118
 20
-21.85017360564857
 30
0.0
 10
13.08860676756118
 20
-21.85017360564857
 30
0.0
 10
12.60112575639833
 20
-21.85017360564857
 30
0.0
 10
12.60112575639833
 20
-21.85017360564857
 30
0.0
 10
12.60112575639833
 20
-21.85017360564857
 30
0.0
 10
12.60112575639833
 20
-21.45054252935959
 30
0.0
 10
12.60112575639833
 20
-21.45054252935959
 30
0.0
 10
12.60112575639833
 20
-21.29758028981449
 30
0.0
 10
12.53119031804776
 20
-21.22109917004195
 30
0.0
 10
12.39097493179809
 20
-21.22109917004195
 30
0.0
 10
12.39097493179809
 20
-21.22109917004195
 30
0.0
 10
12.38752983631284
 20
-21.22109917004195
 30
0.0
 10
12.38752983631284
 20
-21.22109917004195
 30
0.0
 10
12.2462809214176
 20
-21.22247720823605
 30
0.0
 10
12.17565646396998
 20
-21.2989583280086
 30
0.0
 10
12.17565646396998
 20
-21.45054252935959
 30
0.0
 10
12.17565646396998
 20
-21.45054252935959
 30
0.0
 10
12.17565646396998
 20
-22.40965711245314
 30
0.0
 10
12.17565646396998
 20
-22.40965711245314
 30
0.0
  0
HATCH
  5
DF
330
CC
100
AcDbEntity
  8
Layer 1
 62
   250
420
  2301728
100
AcDbHatch
 10
0.0
 20
0.0
 30
0.0
210
0.0
220
0.0
230
1.0
  2
SOLID
 70
     1
 71
     0
 91
        1
 92
        1
 93
        1
 72
     4
 94
        3
 73
     0
 74
     1
 95
       80
 96
       76
 40
0.0
 40
0.0
 40
0.0
 40
0.0
 40
1.0
 40
1.0
 40
1.0
 40
2.0
 40
2.0
 40
2.0
 40
3.0
 40
3.0
 40
3.0
 40
4.0
 40
4.0
 40
4.0
 40
5.0
 40
5.0
 40
5.0
 40
6.0
 40
6.0
 40
6.0
 40
7.0
 40
7.0
 40
7.0
 40
8.0
 40
8.0
 40
8.0
 40
9.0
 40
9.0
 40
9.0
 40
10.0
 40
10.0
 40
10.0
 40
11.0
 40
11.0
 40
11.0
 40
12.0
 40
12.0
 40
12.0
 40
13.0
 40
13.0
 40
13.0
 40
14.0
 40
14.0
 40
14.0
 40
15.0
 40
15.0
 40
15.0
 40
16.0
 40
16.0
 40
16.0
 40
17.0
 40
17.0
 40
17.0
 40
18.0
 40
18.0
 40
18.0
 40
19.0
 40
19.0
 40
19.0
 40
20.0
 40
20.0
 40
20.0
 40
21.0
 40
21.0
 40
21.0
 40
22.0
 40
22.0
 40
22.0
 40
23.0
 40
23.0
 40
23.0
 40
24.0
 40
24.0
 40
24.0
 40
25.0
 40
25.0
 40
25.0
 40
25.0
 10
12.17565646396998
 20
-22.40965711245314
 10
12.17565646396998
 20
-22.52920192579131
 10
12.2008056610123
 20
-22.59982638323893
 10
12.25144856464547
 20
-22.62187499434453
 10
12.27900932852747
 20
-22.63427733809143
 10
12.32310655073867
 20
-22.64047850996488
 10
12.38408474082759
 20
-22.64047850996488
 10
12.39889865141416
 20
-22.64047850996488
 10
12.41440158109779
 20
-22.64013400041636
 10
12.43059352987846
 20
-22.63910047177078
 10
12.52946777030513
 20
-22.63427733809143
 10
12.58458929806913
 20
-22.59018011588023
 10
12.59595811317046
 20
-22.50611978604014
 10
12.59595811317046
 20
-22.50611978604014
 10
12.60112575639833
 20
-22.3703830239213
 10
12.60112575639833
 20
-22.3703830239213
 10
12.60112575639833
 20
-22.3703830239213
 10
13.08860676756118
 20
-22.3703830239213
 10
13.08860676756118
 20
-22.3703830239213
 10
13.08860676756118
 20
-22.3703830239213
 10
13.01625976237094
 20
-24.17354600090106
 10
13.01625976237094
 20
-24.17354600090106
 10
13.01625976237094
 20
-24.17354600090106
 10
11.68817545280712
 20
-24.17354600090106
 10
11.68817545280712
 20
-24.17354600090106
 10
11.68817545280712
 20
-24.17354600090106
 10
11.68817545280712
 20
-23.69329969025723
 10
11.68817545280712
 20
-23.69329969025723
 10
11.68817545280712
 20
-23.69329969025723
 10
12.54772677637696
 20
-23.69329969025723
 10
12.54772677637696
 20
-23.69329969025723
 10
12.54772677637696
 20
-23.69329969025723
 10
12.58217773122946
 20
-22.96638454286952
 10
12.58217773122946
 20
-22.96638454286952
 10
12.49949543958346
 20
-23.06146917826241
 10
12.38684081721579
 20
-23.10901149595886
 10
12.24455837367497
 20
-23.10901149595886
 10
12.22492132940905
 20
-23.10901149595886
 10
12.2049397755946
 20
-23.10797796731329
 10
12.1842692026831
 20
-23.10556640047361
 10
12.01442599526028
 20
-23.09075248988703
 10
11.88523491456341
 20
-23.02253959927909
 10
11.79669596059249
 20
-22.90092772864977
 10
11.72434895540225
 20
-22.8020534882231
 10
11.68817545280712
 20
-22.63841145267373
 10
11.68817545280712
 20
-22.40965711245314
 10
11.68817545280712
 20
-22.40965711245314
 10
11.68817545280712
 20
-21.45054252935959
 10
11.68817545280712
 20
-21.45054252935959
 10
11.68817545280712
 20
-20.97718640968626
 10
11.92175292670706
 20
-20.74085285939812
 10
12.38925238405547
 20
-20.74085285939812
 10
12.85537380320977
 20
-20.74085285939812
 10
13.08860676756118
 20
-20.97718640968626
 10
13.08860676756118
 20
-21.45054252935959
 10
13.08860676756118
 20
-21.45054252935959
 10
13.08860676756118
 20
-21.85017360564857
 10
13.08860676756118
 20
-21.85017360564857
 10
13.08860676756118
 20
-21.85017360564857
 10
12.60112575639833
 20
-21.85017360564857
 10
12.60112575639833
 20
-21.85017360564857
 10
12.60112575639833
 20
-21.85017360564857
 10
12.60112575639833
 20
-21.45054252935959
 10
12.60112575639833
 20
-21.45054252935959
 10
12.60112575639833
 20
-21.29758028981449
 10
12.53119031804776
 20
-21.22109917004195
 10
12.39097493179809
 20
-21.22109917004195
 10
12.39097493179809
 20
-21.22109917004195
 10
12.38752983631284
 20
-21.22109917004195
 10
12.38752983631284
 20
-21.22109917004195
 10
12.2462809214176
 20
-21.22247720823605
 10
12.17565646396998
 20
-21.2989583280086
 10
12.17565646396998
 20
-21.45054252935959
 10
12.17565646396998
 20
-21.45054252935959
 10
12.17565646396998
 20
-22.40965711245314
 10
12.17565646396998
 20
-22.40965711245314
 97
        0
 97
        0
 75
     2
 76
     1
 98
        0
  0
ENDBLK
  5
CF
330
CC
100
AcDbEntity
  8
0
100
AcDbBlockEnd
  0
BLOCK
  5
E2
330
E0
100
AcDbEntity
  8
0
100
AcDbBlockBegin
  2
block 8
 70
     0
 10
0.0
 20
0.0
 30
0.0
  3
block 8
  1

  0
POLYLINE
  5
E4
330
E0
100
AcDbEntity
  8
Layer 1
370
     0
100
AcDb2dPolyline
 66
     1
 10
0.0
 20
0.0
 30
0.0
  0
VERTEX
  5
E5
330
E4
100
AcDbEntity
  8
Layer 1
370
     0
100
AcDbVertex
100
AcDb2dVertex
 10
20.35706922234129
 20
-21.79574109698162
 30
0.0
  0
VERTEX
  5
E6
330
E4
100
AcDbEntity
  8
Layer 1
370
     0
100
AcDbVertex
100
AcDb2dVertex
 10
18.65312499533672
 20
-19.45032009062353
 30
0.0
  0
VERTEX
  5
E7
330
E4
100
AcDbEntity
  8
Layer 1
370
     0
100
AcDbVertex
100
AcDb2dVertex
 10
18.28381075931794
 20
-19.71869302892449
 30
0.0
  0
VERTEX
  5
E8
330
E4
100
AcDbEntity
  8
Layer 1
370
     0
100
AcDbVertex
100
AcDb2dVertex
 10
18.00131292952745
 20
-19.32974174863979
 30
0.0
  0
VERTEX
  5
E9
330
E4
100
AcDbEntity
  8
Layer 1
370
     0
100
AcDbVertex
100
AcDb2dVertex
 10
19.13440483462612
 20
-18.5067084372136
 30
0.0
  0
VERTEX
  5
EA
330
E4
100
AcDbEntity
  8
Layer 1
370
     0
100
AcDbVertex
100
AcDb2dVertex
 10
19.41690266441661
 20
-18.89565971749831
 30
0.0
  0
VERTEX
  5
EB
330
E4
100
AcDbEntity
  8
Layer 1
370
     0
100
AcDbVertex
100
AcDb2dVertex
 10
19.04758842839783
 20
-19.16368814625075
 30
0.0
  0
VERTEX
  5
EC
330
E4
100
AcDbEntity
  8
Layer 1
370
     0
100
AcDbVertex
100
AcDb2dVertex
 10
20.46903482561191
 20
-21.12050238187265
 30
0.0
  0
VERTEX
  5
ED
330
E4
100
AcDbEntity
  8
Layer 1
370
     0
100
AcDbVertex
100
AcDb2dVertex
 10
20.83834906163069
 20
-20.85212944357169
 30
0.0
  0
VERTEX
  5
EE
330
E4
100
AcDbEntity
  8
Layer 1
370
     0
100
AcDbVertex
100
AcDb2dVertex
 10
21.12084689142118
 20
-21.2410807238564
 30
0.0
  0
VERTEX
  5
EF
330
E4
100
AcDbEntity
  8
Layer 1
370
     0
100
AcDbVertex
100
AcDb2dVertex
 10
20.35706922234129
 20
-21.79574109698162
 30
0.0
  0
SEQEND
  5
F0
330
E4
100
AcDbEntity
  8
Layer 1
370
     0
  0
HATCH
  5
F1
330
E0
100
AcDbEntity
  8
Layer 1
 62
   250
420
  2301728
100
AcDbHatch
 10
0.0
 20
0.0
 30
0.0
210
0.0
220
0.0
230
1.0
  2
SOLID
 70
     1
 71
     0
 91
        1
 92
        1
 93
       10
 72
     1
 10
20.35706922234129
 20
-21.79574109698162
 11
18.65312499533672
 21
-19.45032009062353
 72
     1
 10
18.65312499533672
 20
-19.45032009062353
 11
18.28381075931794
 21
-19.71869302892449
 72
     1
 10
18.28381075931794
 20
-19.71869302892449
 11
18.00131292952745
 21
-19.32974174863979
 72
     1
 10
18.00131292952745
 20
-19.32974174863979
 11
19.13440483462612
 21
-18.5067084372136
 72
     1
 10
19.13440483462612
 20
-18.5067084372136
 11
19.41690266441661
 21
-18.89565971749831
 72
     1
 10
19.41690266441661
 20
-18.89565971749831
 11
19.04758842839783
 21
-19.16368814625075
 72
     1
 10
19.04758842839783
 20
-19.16368814625075
 11
20.46903482561191
 21
-21.12050238187265
 72
     1
 10
20.46903482561191
 20
-21.12050238187265
 11
20.83834906163069
 21
-20.85212944357169
 72
     1
 10
20.83834906163069
 20
-20.85212944357169
 11
21.12084689142118
 21
-21.2410807238564
 72
     1
 10
21.12084689142118
 20
-21.2410807238564
 11
20.35706922234129
 21
-21.79574109698162
 97
        0
 75
     2
 76
     1
 98
        0
  0
POLYLINE
  5
F2
330
E0
100
AcDbEntity
  8
Layer 1
370
     0
100
AcDb2dPolyline
 66
     1
 10
0.0
 20
0.0
 30
0.0
  0
VERTEX
  5
F3
330
F2
100
AcDbEntity
  8
Layer 1
370
     0
100
AcDbVertex
100
AcDb2dVertex
 10
18.539781353872
 20
-23.11590168692936
 30
0.0
  0
VERTEX
  5
F4
330
F2
100
AcDbEntity
  8
Layer 1
370
     0
100
AcDbVertex
100
AcDb2dVertex
 10
17.23684624135051
 20
-21.32238497730829
 30
0.0
  0
VERTEX
  5
F5
330
F2
100
AcDbEntity
  8
Layer 1
370
     0
100
AcDbVertex
100
AcDb2dVertex
 10
17.08491753045099
 20
-21.43297254238481
 30
0.0
  0
VERTEX
  5
F6
330
F2
100
AcDbEntity
  8
Layer 1
370
     0
100
AcDbVertex
100
AcDb2dVertex
 10
16.80241970066051
 20
-21.04402126210011
 30
0.0
  0
VERTEX
  5
F7
330
F2
100
AcDbEntity
  8
Layer 1
370
     0
100
AcDbVertex
100
AcDb2dVertex
 10
16.95434841156003
 20
-20.93377820657211
 30
0.0
  0
VERTEX
  5
F8
330
F2
100
AcDbEntity
  8
Layer 1
370
     0
100
AcDbVertex
100
AcDb2dVertex
 10
16.55333929707694
 20
-20.38187390983509
 30
0.0
  0
VERTEX
  5
F9
330
F2
100
AcDbEntity
  8
Layer 1
370
     0
100
AcDbVertex
100
AcDb2dVertex
 10
16.94780273013805
 20
-20.0952419654623
 30
0.0
  0
VERTEX
  5
FA
330
F2
100
AcDbEntity
  8
Layer 1
370
     0
100
AcDbVertex
100
AcDb2dVertex
 10
17.34881184462113
 20
-20.64714626219932
 30
0.0
  0
VERTEX
  5
FB
330
F2
100
AcDbEntity
  8
Layer 1
370
     0
100
AcDbVertex
100
AcDb2dVertex
 10
18.14876301629614
 20
-20.0663031633862
 30
0.0
  0
VERTEX
  5
FC
330
F2
100
AcDbEntity
  8
Layer 1
370
     0
100
AcDbVertex
100
AcDb2dVertex
 10
18.39956596762233
 20
-20.41150173100824
 30
0.0
  0
VERTEX
  5
FD
330
F2
100
AcDbEntity
  8
Layer 1
370
     0
100
AcDbVertex
100
AcDb2dVertex
 10
19.04276529471847
 20
-22.75072156549288
 30
0.0
  0
VERTEX
  5
FE
330
F2
100
AcDbEntity
  8
Layer 1
370
     0
100
AcDbVertex
100
AcDb2dVertex
 10
18.539781353872
 20
-23.11590168692936
 30
0.0
  0
SEQEND
  5
FF
330
F2
100
AcDbEntity
  8
Layer 1
370
     0
  0
POLYLINE
  5
100
330
E0
100
AcDbEntity
  8
Layer 1
370
     0
100
AcDb2dPolyline
 66
     1
 10
0.0
 20
0.0
 30
0.0
  0
VERTEX
  5
101
330
100
100
AcDbEntity
  8
Layer 1
370
     0
100
AcDbVertex
100
AcDb2dVertex
 10
18.04230956580192
 20
-20.73740776391287
 30
0.0
  0
VERTEX
  5
102
330
100
100
AcDbEntity
  8
Layer 1
370
     0
100
AcDbVertex
100
AcDb2dVertex
 10
17.63130967441162
 20
-21.03609754248403
 30
0.0
  0
VERTEX
  5
103
330
100
100
AcDbEntity
  8
Layer 1
370
     0
100
AcDbVertex
100
AcDb2dVertex
 10
18.47535806829783
 20
-22.1981282496588
 30
0.0
  0
VERTEX
  5
104
330
100
100
AcDbEntity
  8
Layer 1
370
     0
100
AcDbVertex
100
AcDb2dVertex
 10
18.04230956580192
 20
-20.73740776391287
 30
0.0
  0
SEQEND
  5
105
330
100
100
AcDbEntity
  8
Layer 1
370
     0
  0
HATCH
  5
106
330
E0
100
AcDbEntity
  8
Layer 1
 62
   250
420
  2301728
100
AcDbHatch
 10
0.0
 20
0.0
 30
0.0
210
0.0
220
0.0
230
1.0
  2
SOLID
 70
     1
 71
     0
 91
        2
 92
        1
 93
       11
 72
     1
 10
18.539781353872
 20
-23.11590168692936
 11
17.23684624135051
 21
-21.32238497730829
 72
     1
 10
17.23684624135051
 20
-21.32238497730829
 11
17.08491753045099
 21
-21.43297254238481
 72
     1
 10
17.08491753045099
 20
-21.43297254238481
 11
16.80241970066051
 21
-21.04402126210011
 72
     1
 10
16.80241970066051
 20
-21.04402126210011
 11
16.95434841156003
 21
-20.93377820657211
 72
     1
 10
16.95434841156003
 20
-20.93377820657211
 11
16.55333929707694
 21
-20.38187390983509
 72
     1
 10
16.55333929707694
 20
-20.38187390983509
 11
16.94780273013805
 21
-20.0952419654623
 72
     1
 10
16.94780273013805
 20
-20.0952419654623
 11
17.34881184462113
 21
-20.64714626219932
 72
     1
 10
17.34881184462113
 20
-20.64714626219932
 11
18.14876301629614
 21
-20.0663031633862
 72
     1
 10
18.14876301629614
 20
-20.0663031633862
 11
18.39956596762233
 21
-20.41150173100824
 72
     1
 10
18.39956596762233
 20
-20.41150173100824
 11
19.04276529471847
 21
-22.75072156549288
 72
     1
 10
19.04276529471847
 20
-22.75072156549288
 11
18.539781353872
 21
-23.11590168692936
 97
        0
 92
        1
 93
        3
 72
     1
 10
18.04230956580192
 20
-20.73740776391287
 11
17.63130967441162
 21
-21.03609754248403
 72
     1
 10
17.63130967441162
 20
-21.03609754248403
 11
18.47535806829783
 21
-22.1981282496588
 72
     1
 10
18.47535806829783
 20
-22.1981282496588
 11
18.04230956580192
 21
-20.73740776391287
 97
        0
 75
     2
 76
     1
 98
        0
  0
ENDBLK
  5
E3
330
E0
100
AcDbEntity
  8
0
100
AcDbBlockEnd
  0
BLOCK
  5
109
330
107
100
AcDbEntity
  8
0
100
AcDbBlockBegin
  2
block 9
 70
     0
 10
0.0
 20
0.0
 30
0.0
  3
block 9
  1

  0
POLYLINE
  5
10B
330
107
100
AcDbEntity
  8
Layer 1
370
     0
100
AcDb2dPolyline
 66
     1
 10
0.0
 20
0.0
 30
0.0
  0
VERTEX
  5
10C
330
10B
100
AcDbEntity
  8
Layer 1
370
     0
100
AcDbVertex
100
AcDb2dVertex
 10
24.07983940370226
 20
-16.17713487008766
 30
0.0
  0
VERTEX
  5
10D
330
10B
100
AcDbEntity
  8
Layer 1
370
     0
100
AcDbVertex
100
AcDb2dVertex
 10
21.32238497730829
 20
-15.2814100439227
 30
0.0
  0
VERTEX
  5
10E
330
10B
100
AcDbEntity
  8
Layer 1
370
     0
100
AcDbVertex
100
AcDb2dVertex
 10
21.18148057196158
 20
-15.71583658461271
 30
0.0
  0
VERTEX
  5
10F
330
10B
100
AcDbEntity
  8
Layer 1
370
     0
100
AcDbVertex
100
AcDb2dVertex
 10
20.72431640106892
 20
-15.56700845964992
 30
0.0
  0
VERTEX
  5
110
330
10B
100
AcDbEntity
  8
Layer 1
370
     0
100
AcDbVertex
100
AcDb2dVertex
 10
21.1570203940163
 20
-14.23513454505233
 30
0.0
  0
VERTEX
  5
111
330
10B
100
AcDbEntity
  8
Layer 1
370
     0
100
AcDbVertex
100
AcDb2dVertex
 10
21.61418456490895
 20
-14.3836181604666
 30
0.0
  0
VERTEX
  5
112
330
10B
100
AcDbEntity
  8
Layer 1
370
     0
100
AcDbVertex
100
AcDb2dVertex
 10
21.47328015956224
 20
-14.8180447011566
 30
0.0
  0
VERTEX
  5
113
330
10B
100
AcDbEntity
  8
Layer 1
370
     0
100
AcDbVertex
100
AcDb2dVertex
 10
23.77322590551503
 20
-15.56528591190729
 30
0.0
  0
VERTEX
  5
114
330
10B
100
AcDbEntity
  8
Layer 1
370
     0
100
AcDbVertex
100
AcDb2dVertex
 10
23.91447482041027
 20
-15.13085937121729
 30
0.0
  0
VERTEX
  5
115
330
10B
100
AcDbEntity
  8
Layer 1
370
     0
100
AcDbVertex
100
AcDb2dVertex
 10
24.3712944817544
 20
-15.27934298663155
 30
0.0
  0
VERTEX
  5
116
330
10B
100
AcDbEntity
  8
Layer 1
370
     0
100
AcDbVertex
100
AcDb2dVertex
 10
24.07983940370226
 20
-16.17713487008766
 30
0.0
  0
SEQEND
  5
117
330
10B
100
AcDbEntity
  8
Layer 1
370
     0
  0
HATCH
  5
118
330
107
100
AcDbEntity
  8
Layer 1
 62
   250
420
  2301728
100
AcDbHatch
 10
0.0
 20
0.0
 30
0.0
210
0.0
220
0.0
230
1.0
  2
SOLID
 70
     1
 71
     0
 91
        1
 92
        1
 93
       10
 72
     1
 10
24.07983940370226
 20
-16.17713487008766
 11
21.32238497730829
 21
-15.2814100439227
 72
     1
 10
21.32238497730829
 20
-15.2814100439227
 11
21.18148057196158
 21
-15.71583658461271
 72
     1
 10
21.18148057196158
 20
-15.71583658461271
 11
20.72431640106892
 21
-15.56700845964992
 72
     1
 10
20.72431640106892
 20
-15.56700845964992
 11
21.1570203940163
 21
-14.23513454505233
 72
     1
 10
21.1570203940163
 20
-14.23513454505233
 11
21.61418456490895
 21
-14.3836181604666
 72
     1
 10
21.61418456490895
 20
-14.3836181604666
 11
21.47328015956224
 21
-14.8180447011566
 72
     1
 10
21.47328015956224
 20
-14.8180447011566
 11
23.77322590551503
 21
-15.56528591190729
 72
     1
 10
23.77322590551503
 20
-15.56528591190729
 11
23.91447482041027
 21
-15.13085937121729
 72
     1
 10
23.91447482041027
 20
-15.13085937121729
 11
24.3712944817544
 21
-15.27934298663155
 72
     1
 10
24.3712944817544
 20
-15.27934298663155
 11
24.07983940370226
 21
-16.17713487008766
 97
        0
 75
     2
 76
     1
 98
        0
  0
SPLINE
  5
119
330
107
100
AcDbEntity
  8
Layer 1
370
     0
100
AcDbSpline
210
0.0
220
0.0
230
1.0
 70
    11
 71
     3
 72
    92
 73
    88
 74
     0
 42
0.0000000001
 43
0.0000000001
 12
1.0
 22
0.0
 32
0.0
 13
1.0
 23
0.0
 33
0.0
 40
0.0
 40
0.0
 40
0.0
 40
0.0
 40
1.0
 40
1.0
 40
1.0
 40
2.0
 40
2.0
 40
2.0
 40
3.0
 40
3.0
 40
3.0
 40
4.0
 40
4.0
 40
4.0
 40
5.0
 40
5.0
 40
5.0
 40
6.0
 40
6.0
 40
6.0
 40
7.0
 40
7.0
 40
7.0
 40
8.0
 40
8.0
 40
8.0
 40
9.0
 40
9.0
 40
9.0
 40
10.0
 40
10.0
 40
10.0
 40
11.0
 40
11.0
 40
11.0
 40
12.0
 40
12.0
 40
12.0
 40
13.0
 40
13.0
 40
13.0
 40
14.0
 40
14.0
 40
14.0
 40
15.0
 40
15.0
 40
15.0
 40
16.0
 40
16.0
 40
16.0
 40
17.0
 40
17.0
 40
17.0
 40
18.0
 40
18.0
 40
18.0
 40
19.0
 40
19.0
 40
19.0
 40
20.0
 40
20.0
 40
20.0
 40
21.0
 40
21.0
 40
21.0
 40
22.0
 40
22.0
 40
22.0
 40
23.0
 40
23.0
 40
23.0
 40
24.0
 40
24.0
 40
24.0
 40
25.0
 40
25.0
 40
25.0
 40
26.0
 40
26.0
 40
26.0
 40
27.0
 40
27.0
 40
27.0
 40
28.0
 40
28.0
 40
28.0
 40
29.0
 40
29.0
 40
29.0
 40
29.0
 10
22.89403753767927
 20
-17.70296766050481
 30
0.0
 10
23.03804252896271
 20
-17.74982095910421
 30
0.0
 10
23.13243814525856
 20
-17.70641275599007
 30
0.0
 10
23.17722438656681
 20
-17.57239854161385
 30
0.0
 10
23.17722438656681
 20
-17.57239854161385
 30
0.0
 10
23.17825791521238
 20
-17.5689534461286
 30
0.0
 10
23.17825791521238
 20
-17.5689534461286
 30
0.0
 10
23.22166611832653
 20
-17.43562825084943
 30
0.0
 10
23.17067870514483
 20
-17.34571125868441
 30
0.0
 10
23.02529567566729
 20
-17.29851345053648
 30
0.0
 10
23.02529567566729
 20
-17.29851345053648
 30
0.0
 10
22.59465874001106
 20
-17.15829806428681
 30
0.0
 10
22.59465874001106
 20
-17.15829806428681
 30
0.0
 10
22.59465874001106
 20
-17.15829806428681
 30
0.0
 10
22.74520941271648
 20
-16.69458821197219
 30
0.0
 10
22.74520941271648
 20
-16.69458821197219
 30
0.0
 10
22.74520941271648
 20
-16.69458821197219
 30
0.0
 10
23.1758463483727
 20
-16.83480359822186
 30
0.0
 10
23.1758463483727
 20
-16.83480359822186
 30
0.0
 10
23.62577581874633
 20
-16.98087564679645
 30
0.0
 10
23.77873805829143
 20
-17.27577582033383
 30
0.0
 10
23.63473306700799
 20
-17.71915960928549
 30
0.0
 10
23.49038356617602
 20
-18.16392143643124
 30
0.0
 10
23.19307182579896
 20
-18.31274956139404
 30
0.0
 10
22.74314235542533
 20
-18.16667751281944
 30
0.0
 10
22.74314235542533
 20
-18.16667751281944
 30
0.0
 10
22.18469237726633
 20
-17.98512098074677
 30
0.0
 10
22.18469237726633
 20
-17.98512098074677
 30
0.0
 10
21.97385253356904
 20
-17.9165635805903
 30
0.0
 10
21.85224066293972
 20
-17.78358289485966
 30
0.0
 10
21.81985676537837
 20
-17.58583441400632
 30
0.0
 10
21.67722981228903
 20
-17.72673881935304
 30
0.0
 10
21.50084092344424
 20
-17.76291232194816
 30
0.0
 10
21.29000107974694
 20
-17.69435492179169
 30
0.0
 10
21.29000107974694
 20
-17.69435492179169
 30
0.0
 10
20.77737087154177
 20
-17.52795680985412
 30
0.0
 10
20.77737087154177
 20
-17.52795680985412
 30
0.0
 10
20.32744140116814
 20
-17.381540251731
 30
0.0
 10
20.17447916162305
 20
-17.08664007819362
 30
0.0
 10
20.31917317200354
 20
-16.64187825104786
 30
0.0
 10
20.46317816328698
 20
-16.19849446209621
 30
0.0
 10
20.76014539411552
 20
-16.04966633713342
 30
0.0
 10
21.21007486448915
 20
-16.19608289525653
 30
0.0
 10
21.21007486448915
 20
-16.19608289525653
 30
0.0
 10
21.64071180014538
 20
-16.33595377195768
 30
0.0
 10
21.64071180014538
 20
-16.33595377195768
 30
0.0
 10
21.64071180014538
 20
-16.33595377195768
 30
0.0
 10
21.49016112743996
 20
-16.79966362427231
 30
0.0
 10
21.49016112743996
 20
-16.79966362427231
 30
0.0
 10
21.49016112743996
 20
-16.79966362427231
 30
0.0
 10
21.05952419178373
 20
-16.65979274757116
 30
0.0
 10
21.05952419178373
 20
-16.65979274757116
 30
0.0
 10
20.91414116230619
 20
-16.61259493942324
 30
0.0
 10
20.82009005555887
 20
-16.65531412344034
 30
0.0
 10
20.77668185244472
 20
-16.78863931871951
 30
0.0
 10
20.77668185244472
 20
-16.78863931871951
 30
0.0
 10
20.77564832379915
 20
-16.79208441420476
 30
0.0
 10
20.77564832379915
 20
-16.79208441420476
 30
0.0
 10
20.73327364933057
 20
-16.92678764767803
 30
0.0
 10
20.78357204341522
 20
-17.0173936589401
 30
0.0
 10
20.92792154424719
 20
-17.0642469575395
 30
0.0
 10
20.92792154424719
 20
-17.0642469575395
 30
0.0
 10
21.44089626200089
 20
-17.23098957902559
 30
0.0
 10
21.44089626200089
 20
-17.23098957902559
 30
0.0
 10
21.55734048940233
 20
-17.26888562936334
 30
0.0
 10
21.63485513782046
 20
-17.26681857207219
 30
0.0
 10
21.6727511881582
 20
-17.22478840715214
 30
0.0
 10
21.69238823242413
 20
-17.20205077694949
 30
0.0
 10
21.71064723849595
 20
-17.16346570751469
 30
0.0
 10
21.72856173501925
 20
-17.10868868929922
 30
0.0
 10
21.72856173501925
 20
-17.10868868929922
 30
0.0
 10
21.77817111000685
 20
-16.95641546885118
 30
0.0
 10
21.77817111000685
 20
-16.95641546885118
 30
0.0
 10
21.77817111000685
 20
-16.95641546885118
 30
0.0
 10
22.23499077135098
 20
-17.10489908426544
 30
0.0
 10
22.23499077135098
 20
-17.10489908426544
 30
0.0
 10
22.23499077135098
 20
-17.10489908426544
 30
0.0
 10
22.17401258126205
 20
-17.29334580730861
 30
0.0
 10
22.17401258126205
 20
-17.29334580730861
 30
0.0
 10
22.15954318022401
 20
-17.33709851997128
 30
0.0
 10
22.15540906564171
 20
-17.37189398437231
 30
0.0
 10
22.16161023751516
 20
-17.3980767100602
 30
0.0
 10
22.17160101442238
 20
-17.44596353730518
 30
0.0
 10
22.23051214722015
 20
-17.4876491926767
 30
0.0
 10
22.338688145457
 20
-17.52244465707772
 30
0.0
 10
22.338688145457
 20
-17.52244465707772
 30
0.0
 10
22.89403753767927
 20
-17.70296766050481
 30
0.0
 10
22.89403753767927
 20
-17.70296766050481
 30
0.0
  0
HATCH
  5
11A
330
107
100
AcDbEntity
  8
Layer 1
 62
   250
420
  2301728
100
AcDbHatch
 10
0.0
 20
0.0
 30
0.0
210
0.0
220
0.0
230
1.0
  2
SOLID
 70
     1
 71
     0
 91
        1
 92
        1
 93
        1
 72
     4
 94
        3
 73
     0
 74
     1
 95
       92
 96
       88
 40
0.0
 40
0.0
 40
0.0
 40
0.0
 40
1.0
 40
1.0
 40
1.0
 40
2.0
 40
2.0
 40
2.0
 40
3.0
 40
3.0
 40
3.0
 40
4.0
 40
4.0
 40
4.0
 40
5.0
 40
5.0
 40
5.0
 40
6.0
 40
6.0
 40
6.0
 40
7.0
 40
7.0
 40
7.0
 40
8.0
 40
8.0
 40
8.0
 40
9.0
 40
9.0
 40
9.0
 40
10.0
 40
10.0
 40
10.0
 40
11.0
 40
11.0
 40
11.0
 40
12.0
 40
12.0
 40
12.0
 40
13.0
 40
13.0
 40
13.0
 40
14.0
 40
14.0
 40
14.0
 40
15.0
 40
15.0
 40
15.0
 40
16.0
 40
16.0
 40
16.0
 40
17.0
 40
17.0
 40
17.0
 40
18.0
 40
18.0
 40
18.0
 40
19.0
 40
19.0
 40
19.0
 40
20.0
 40
20.0
 40
20.0
 40
21.0
 40
21.0
 40
21.0
 40
22.0
 40
22.0
 40
22.0
 40
23.0
 40
23.0
 40
23.0
 40
24.0
 40
24.0
 40
24.0
 40
25.0
 40
25.0
 40
25.0
 40
26.0
 40
26.0
 40
26.0
 40
27.0
 40
27.0
 40
27.0
 40
28.0
 40
28.0
 40
28.0
 40
29.0
 40
29.0
 40
29.0
 40
29.0
 10
22.89403753767927
 20
-17.70296766050481
 10
23.03804252896271
 20
-17.74982095910421
 10
23.13243814525856
 20
-17.70641275599007
 10
23.17722438656681
 20
-17.57239854161385
 10
23.17722438656681
 20
-17.57239854161385
 10
23.17825791521238
 20
-17.5689534461286
 10
23.17825791521238
 20
-17.5689534461286
 10
23.22166611832653
 20
-17.43562825084943
 10
23.17067870514483
 20
-17.34571125868441
 10
23.02529567566729
 20
-17.29851345053648
 10
23.02529567566729
 20
-17.29851345053648
 10
22.59465874001106
 20
-17.15829806428681
 10
22.59465874001106
 20
-17.15829806428681
 10
22.59465874001106
 20
-17.15829806428681
 10
22.74520941271648
 20
-16.69458821197219
 10
22.74520941271648
 20
-16.69458821197219
 10
22.74520941271648
 20
-16.69458821197219
 10
23.1758463483727
 20
-16.83480359822186
 10
23.1758463483727
 20
-16.83480359822186
 10
23.62577581874633
 20
-16.98087564679645
 10
23.77873805829143
 20
-17.27577582033383
 10
23.63473306700799
 20
-17.71915960928549
 10
23.49038356617602
 20
-18.16392143643124
 10
23.19307182579896
 20
-18.31274956139404
 10
22.74314235542533
 20
-18.16667751281944
 10
22.74314235542533
 20
-18.16667751281944
 10
22.18469237726633
 20
-17.98512098074677
 10
22.18469237726633
 20
-17.98512098074677
 10
21.97385253356904
 20
-17.9165635805903
 10
21.85224066293972
 20
-17.78358289485966
 10
21.81985676537837
 20
-17.58583441400632
 10
21.67722981228903
 20
-17.72673881935304
 10
21.50084092344424
 20
-17.76291232194816
 10
21.29000107974694
 20
-17.69435492179169
 10
21.29000107974694
 20
-17.69435492179169
 10
20.77737087154177
 20
-17.52795680985412
 10
20.77737087154177
 20
-17.52795680985412
 10
20.32744140116814
 20
-17.381540251731
 10
20.17447916162305
 20
-17.08664007819362
 10
20.31917317200354
 20
-16.64187825104786
 10
20.46317816328698
 20
-16.19849446209621
 10
20.76014539411552
 20
-16.04966633713342
 10
21.21007486448915
 20
-16.19608289525653
 10
21.21007486448915
 20
-16.19608289525653
 10
21.64071180014538
 20
-16.33595377195768
 10
21.64071180014538
 20
-16.33595377195768
 10
21.64071180014538
 20
-16.33595377195768
 10
21.49016112743996
 20
-16.79966362427231
 10
21.49016112743996
 20
-16.79966362427231
 10
21.49016112743996
 20
-16.79966362427231
 10
21.05952419178373
 20
-16.65979274757116
 10
21.05952419178373
 20
-16.65979274757116
 10
20.91414116230619
 20
-16.61259493942324
 10
20.82009005555887
 20
-16.65531412344034
 10
20.77668185244472
 20
-16.78863931871951
 10
20.77668185244472
 20
-16.78863931871951
 10
20.77564832379915
 20
-16.79208441420476
 10
20.77564832379915
 20
-16.79208441420476
 10
20.73327364933057
 20
-16.92678764767803
 10
20.78357204341522
 20
-17.0173936589401
 10
20.92792154424719
 20
-17.0642469575395
 10
20.92792154424719
 20
-17.0642469575395
 10
21.44089626200089
 20
-17.23098957902559
 10
21.44089626200089
 20
-17.23098957902559
 10
21.55734048940233
 20
-17.26888562936334
 10
21.63485513782046
 20
-17.26681857207219
 10
21.6727511881582
 20
-17.22478840715214
 10
21.69238823242413
 20
-17.20205077694949
 10
21.71064723849595
 20
-17.16346570751469
 10
21.72856173501925
 20
-17.10868868929922
 10
21.72856173501925
 20
-17.10868868929922
 10
21.77817111000685
 20
-16.95641546885118
 10
21.77817111000685
 20
-16.95641546885118
 10
21.77817111000685
 20
-16.95641546885118
 10
22.23499077135098
 20
-17.10489908426544
 10
22.23499077135098
 20
-17.10489908426544
 10
22.23499077135098
 20
-17.10489908426544
 10
22.17401258126205
 20
-17.29334580730861
 10
22.17401258126205
 20
-17.29334580730861
 10
22.15954318022401
 20
-17.33709851997128
 10
22.15540906564171
 20
-17.37189398437231
 10
22.16161023751516
 20
-17.3980767100602
 10
22.17160101442238
 20
-17.44596353730518
 10
22.23051214722015
 20
-17.4876491926767
 10
22.338688145457
 20
-17.52244465707772
 10
22.338688145457
 20
-17.52244465707772
 10
22.89403753767927
 20
-17.70296766050481
 10
22.89403753767927
 20
-17.70296766050481
 97
        0
 97
        0
 75
     2
 76
     1
 98
        0
  0
ENDBLK
  5
10A
330
107
100
AcDbEntity
  8
0
100
AcDbBlockEnd
  0
BLOCK
  5
11D
330
11B
100
AcDbEntity
  8
0
100
AcDbBlockBegin
  2
block 10
 70
     0
 10
0.0
 20
0.0
 30
0.0
  3
block 10
  1

  0
POLYLINE
  5
11F
330
11B
100
AcDbEntity
  8
Layer 1
370
     0
100
AcDb2dPolyline
 66
     1
 10
0.0
 20
0.0
 30
0.0
  0
VERTEX
  5
120
330
11F
100
AcDbEntity
  8
Layer 1
370
     0
100
AcDbVertex
100
AcDb2dVertex
 10
23.57065429098234
 20
-9.336725529349847
 30
0.0
  0
VERTEX
  5
121
330
11F
100
AcDbEntity
  8
Layer 1
370
     0
100
AcDbVertex
100
AcDb2dVertex
 10
20.81388888368542
 20
-10.23245035551481
 30
0.0
  0
VERTEX
  5
122
330
11F
100
AcDbEntity
  8
Layer 1
370
     0
100
AcDbVertex
100
AcDb2dVertex
 10
20.95479328903214
 20
-10.66722140575333
 30
0.0
  0
VERTEX
  5
123
330
11F
100
AcDbEntity
  8
Layer 1
370
     0
100
AcDbVertex
100
AcDb2dVertex
 10
20.49797362768801
 20
-10.8157050211676
 30
0.0
  0
VERTEX
  5
124
330
11F
100
AcDbEntity
  8
Layer 1
370
     0
100
AcDbVertex
100
AcDb2dVertex
 10
20.0649251251921
 20
-9.48348659702149
 30
0.0
  0
VERTEX
  5
125
330
11F
100
AcDbEntity
  8
Layer 1
370
     0
100
AcDbVertex
100
AcDb2dVertex
 10
20.52208929608476
 20
-9.335002981607222
 30
0.0
  0
VERTEX
  5
126
330
11F
100
AcDbEntity
  8
Layer 1
370
     0
100
AcDbVertex
100
AcDb2dVertex
 10
20.66299370143147
 20
-9.769429522297226
 30
0.0
  0
VERTEX
  5
127
330
11F
100
AcDbEntity
  8
Layer 1
370
     0
100
AcDbVertex
100
AcDb2dVertex
 10
22.96328395693279
 20
-9.021843801998012
 30
0.0
  0
VERTEX
  5
128
330
11F
100
AcDbEntity
  8
Layer 1
370
     0
100
AcDbVertex
100
AcDb2dVertex
 10
22.82237955158607
 20
-8.587761770856533
 30
0.0
  0
VERTEX
  5
129
330
11F
100
AcDbEntity
  8
Layer 1
370
     0
100
AcDbVertex
100
AcDb2dVertex
 10
23.2791992129302
 20
-8.439278155442263
 30
0.0
  0
VERTEX
  5
12A
330
11F
100
AcDbEntity
  8
Layer 1
370
     0
100
AcDbVertex
100
AcDb2dVertex
 10
23.57065429098234
 20
-9.336725529349847
 30
0.0
  0
SEQEND
  5
12B
330
11F
100
AcDbEntity
  8
Layer 1
370
     0
  0
HATCH
  5
12C
330
11B
100
AcDbEntity
  8
Layer 1
 62
   250
420
  2301728
100
AcDbHatch
 10
0.0
 20
0.0
 30
0.0
210
0.0
220
0.0
230
1.0
  2
SOLID
 70
     1
 71
     0
 91
        1
 92
        1
 93
       10
 72
     1
 10
23.57065429098234
 20
-9.336725529349847
 11
20.81388888368542
 21
-10.23245035551481
 72
     1
 10
20.81388888368542
 20
-10.23245035551481
 11
20.95479328903214
 21
-10.66722140575333
 72
     1
 10
20.95479328903214
 20
-10.66722140575333
 11
20.49797362768801
 21
-10.8157050211676
 72
     1
 10
20.49797362768801
 20
-10.8157050211676
 11
20.0649251251921
 21
-9.48348659702149
 72
     1
 10
20.0649251251921
 20
-9.48348659702149
 11
20.52208929608476
 21
-9.335002981607222
 72
     1
 10
20.52208929608476
 20
-9.335002981607222
 11
20.66299370143147
 21
-9.769429522297226
 72
     1
 10
20.66299370143147
 20
-9.769429522297226
 11
22.96328395693279
 21
-9.021843801998012
 72
     1
 10
22.96328395693279
 20
-9.021843801998012
 11
22.82237955158607
 21
-8.587761770856533
 72
     1
 10
22.82237955158607
 20
-8.587761770856533
 11
23.2791992129302
 21
-8.439278155442263
 72
     1
 10
23.2791992129302
 20
-8.439278155442263
 11
23.57065429098234
 21
-9.336725529349847
 97
        0
 75
     2
 76
     1
 98
        0
  0
SPLINE
  5
12D
330
11B
100
AcDbEntity
  8
Layer 1
370
     0
100
AcDbSpline
210
0.0
220
0.0
230
1.0
 70
    11
 71
     3
 72
    62
 73
    58
 74
     0
 42
0.0000000001
 43
0.0000000001
 12
1.0
 22
0.0
 32
0.0
 13
1.0
 23
0.0
 33
0.0
 40
0.0
 40
0.0
 40
0.0
 40
0.0
 40
1.0
 40
1.0
 40
1.0
 40
2.0
 40
2.0
 40
2.0
 40
3.0
 40
3.0
 40
3.0
 40
4.0
 40
4.0
 40
4.0
 40
5.0
 40
5.0
 40
5.0
 40
6.0
 40
6.0
 40
6.0
 40
7.0
 40
7.0
 40
7.0
 40
8.0
 40
8.0
 40
8.0
 40
9.0
 40
9.0
 40
9.0
 40
10.0
 40
10.0
 40
10.0
 40
11.0
 40
11.0
 40
11.0
 40
12.0
 40
12.0
 40
12.0
 40
13.0
 40
13.0
 40
13.0
 40
14.0
 40
14.0
 40
14.0
 40
15.0
 40
15.0
 40
15.0
 40
16.0
 40
16.0
 40
16.0
 40
17.0
 40
17.0
 40
17.0
 40
18.0
 40
18.0
 40
18.0
 40
19.0
 40
19.0
 40
19.0
 40
19.0
 10
21.32583007279354
 20
-11.01758761660324
 30
0.0
 10
21.61521809355453
 20
-10.92353650985592
 30
0.0
 10
21.91011826709192
 20
-10.98692626678452
 30
0.0
 10
22.21018608385718
 20
-11.20844590648608
 30
0.0
 10
22.51059841017096
 20
-11.4306545652847
 30
0.0
 10
22.7331515785181
 20
-11.51919351925562
 30
0.0
 10
22.87750107935007
 20
-11.4733737493018
 30
0.0
 10
22.87750107935007
 20
-11.4733737493018
 30
0.0
 10
23.50864257224784
 20
-11.26839056792943
 30
0.0
 10
23.50864257224784
 20
-11.26839056792943
 30
0.0
 10
23.65368109217686
 20
-11.22119275978151
 30
0.0
 10
23.70466850535855
 20
-11.13093125806796
 30
0.0
 10
23.66160481179293
 20
-10.99760606278879
 30
0.0
 10
23.66160481179293
 20
-10.99760606278879
 30
0.0
 10
23.66022677359883
 20
-10.99416096730354
 30
0.0
 10
23.66022677359883
 20
-10.99416096730354
 30
0.0
 10
23.61681857048469
 20
-10.8598022433788
 30
0.0
 10
23.52207844464031
 20
-10.81639404026465
 30
0.0
 10
23.3770399247113
 20
-10.86359184841258
 30
0.0
 10
23.3770399247113
 20
-10.86359184841258
 30
0.0
 10
22.94605847950654
 20
-11.00380723466224
 30
0.0
 10
22.94605847950654
 20
-11.00380723466224
 30
0.0
 10
22.94605847950654
 20
-11.00380723466224
 30
0.0
 10
22.79550780680112
 20
-10.54009738234761
 30
0.0
 10
22.79550780680112
 20
-10.54009738234761
 30
0.0
 10
22.79550780680112
 20
-10.54009738234761
 30
0.0
 10
23.22614474245735
 20
-10.39988199609795
 30
0.0
 10
23.22614474245735
 20
-10.39988199609795
 30
0.0
 10
23.67745225102508
 20
-10.25346543797483
 30
0.0
 10
23.97510850095067
 20
-10.4019490533891
 30
0.0
 10
24.11911349223411
 20
-10.84533284234075
 30
0.0
 10
24.26346299306608
 20
-11.29009466948651
 30
0.0
 10
24.11015624397246
 20
-11.58533935257242
 30
0.0
 10
23.65919324495326
 20
-11.73175591069553
 30
0.0
 10
23.65919324495326
 20
-11.73175591069553
 30
0.0
 10
23.01702744650269
 20
-11.94052869710167
 30
0.0
 10
23.01702744650269
 20
-11.94052869710167
 30
0.0
 10
22.7221272729653
 20
-12.03630235159162
 30
0.0
 10
22.42378200394267
 20
-11.97291259466302
 30
0.0
 10
22.1223361489833
 20
-11.75139295496146
 30
0.0
 10
21.82192382266952
 20
-11.52918429616284
 30
0.0
 10
21.59351399199745
 20
-11.4430569090316
 30
0.0
 10
21.43710665696711
 20
-11.49404432221329
 30
0.0
 10
21.43710665696711
 20
-11.49404432221329
 30
0.0
 10
21.2438368002446
 20
-11.55674506004484
 30
0.0
 10
21.2438368002446
 20
-11.55674506004484
 30
0.0
 10
21.2438368002446
 20
-11.55674506004484
 30
0.0
 10
21.52599012048656
 20
-12.4249091223278
 30
0.0
 10
21.52599012048656
 20
-12.4249091223278
 30
0.0
 10
21.52599012048656
 20
-12.4249091223278
 30
0.0
 10
21.06917045914243
 20
-12.57339273774207
 30
0.0
 10
21.06917045914243
 20
-12.57339273774207
 30
0.0
 10
21.06917045914243
 20
-12.57339273774207
 30
0.0
 10
20.63612195664653
 20
-11.24151882314448
 30
0.0
 10
20.63612195664653
 20
-11.24151882314448
 30
0.0
 10
20.63612195664653
 20
-11.24151882314448
 30
0.0
 10
21.32583007279354
 20
-11.01758761660324
 30
0.0
 10
21.32583007279354
 20
-11.01758761660324
 30
0.0
  0
HATCH
  5
12E
330
11B
100
AcDbEntity
  8
Layer 1
 62
   250
420
  2301728
100
AcDbHatch
 10
0.0
 20
0.0
 30
0.0
210
0.0
220
0.0
230
1.0
  2
SOLID
 70
     1
 71
     0
 91
        1
 92
        1
 93
        1
 72
     4
 94
        3
 73
     0
 74
     1
 95
       62
 96
       58
 40
0.0
 40
0.0
 40
0.0
 40
0.0
 40
1.0
 40
1.0
 40
1.0
 40
2.0
 40
2.0
 40
2.0
 40
3.0
 40
3.0
 40
3.0
 40
4.0
 40
4.0
 40
4.0
 40
5.0
 40
5.0
 40
5.0
 40
6.0
 40
6.0
 40
6.0
 40
7.0
 40
7.0
 40
7.0
 40
8.0
 40
8.0
 40
8.0
 40
9.0
 40
9.0
 40
9.0
 40
10.0
 40
10.0
 40
10.0
 40
11.0
 40
11.0
 40
11.0
 40
12.0
 40
12.0
 40
12.0
 40
13.0
 40
13.0
 40
13.0
 40
14.0
 40
14.0
 40
14.0
 40
15.0
 40
15.0
 40
15.0
 40
16.0
 40
16.0
 40
16.0
 40
17.0
 40
17.0
 40
17.0
 40
18.0
 40
18.0
 40
18.0
 40
19.0
 40
19.0
 40
19.0
 40
19.0
 10
21.32583007279354
 20
-11.01758761660324
 10
21.61521809355453
 20
-10.92353650985592
 10
21.91011826709192
 20
-10.98692626678452
 10
22.21018608385718
 20
-11.20844590648608
 10
22.51059841017096
 20
-11.4306545652847
 10
22.7331515785181
 20
-11.51919351925562
 10
22.87750107935007
 20
-11.4733737493018
 10
22.87750107935007
 20
-11.4733737493018
 10
23.50864257224784
 20
-11.26839056792943
 10
23.50864257224784
 20
-11.26839056792943
 10
23.65368109217686
 20
-11.22119275978151
 10
23.70466850535855
 20
-11.13093125806796
 10
23.66160481179293
 20
-10.99760606278879
 10
23.66160481179293
 20
-10.99760606278879
 10
23.66022677359883
 20
-10.99416096730354
 10
23.66022677359883
 20
-10.99416096730354
 10
23.61681857048469
 20
-10.8598022433788
 10
23.52207844464031
 20
-10.81639404026465
 10
23.3770399247113
 20
-10.86359184841258
 10
23.3770399247113
 20
-10.86359184841258
 10
22.94605847950654
 20
-11.00380723466224
 10
22.94605847950654
 20
-11.00380723466224
 10
22.94605847950654
 20
-11.00380723466224
 10
22.79550780680112
 20
-10.54009738234761
 10
22.79550780680112
 20
-10.54009738234761
 10
22.79550780680112
 20
-10.54009738234761
 10
23.22614474245735
 20
-10.39988199609795
 10
23.22614474245735
 20
-10.39988199609795
 10
23.67745225102508
 20
-10.25346543797483
 10
23.97510850095067
 20
-10.4019490533891
 10
24.11911349223411
 20
-10.84533284234075
 10
24.26346299306608
 20
-11.29009466948651
 10
24.11015624397246
 20
-11.58533935257242
 10
23.65919324495326
 20
-11.73175591069553
 10
23.65919324495326
 20
-11.73175591069553
 10
23.01702744650269
 20
-11.94052869710167
 10
23.01702744650269
 20
-11.94052869710167
 10
22.7221272729653
 20
-12.03630235159162
 10
22.42378200394267
 20
-11.97291259466302
 10
22.1223361489833
 20
-11.75139295496146
 10
21.82192382266952
 20
-11.52918429616284
 10
21.59351399199745
 20
-11.4430569090316
 10
21.43710665696711
 20
-11.49404432221329
 10
21.43710665696711
 20
-11.49404432221329
 10
21.2438368002446
 20
-11.55674506004484
 10
21.2438368002446
 20
-11.55674506004484
 10
21.2438368002446
 20
-11.55674506004484
 10
21.52599012048656
 20
-12.4249091223278
 10
21.52599012048656
 20
-12.4249091223278
 10
21.52599012048656
 20
-12.4249091223278
 10
21.06917045914243
 20
-12.57339273774207
 10
21.06917045914243
 20
-12.57339273774207
 10
21.06917045914243
 20
-12.57339273774207
 10
20.63612195664653
 20
-11.24151882314448
 10
20.63612195664653
 20
-11.24151882314448
 10
20.63612195664653
 20
-11.24151882314448
 10
21.32583007279354
 20
-11.01758761660324
 10
21.32583007279354
 20
-11.01758761660324
 97
        0
 97
        0
 75
     2
 76
     1
 98
        0
  0
ENDBLK
  5
11E
330
11B
100
AcDbEntity
  8
0
100
AcDbBlockEnd
  0
BLOCK
  5
131
330
12F
100
AcDbEntity
  8
0
100
AcDbBlockBegin
  2
block 11
 70
     0
 10
0.0
 20
0.0
 30
0.0
  3
block 11
  1

  0
POLYLINE
  5
133
330
12F
100
AcDbEntity
  8
Layer 1
370
     0
100
AcDb2dPolyline
 66
     1
 10
0.0
 20
0.0
 30
0.0
  0
VERTEX
  5
134
330
133
100
AcDbEntity
  8
Layer 1
370
     0
100
AcDbVertex
100
AcDb2dVertex
 10
19.26221787712889
 20
-4.170977103991978
 30
0.0
  0
VERTEX
  5
135
330
133
100
AcDbEntity
  8
Layer 1
370
     0
100
AcDbVertex
100
AcDb2dVertex
 10
17.55827365012432
 20
-6.516398110350067
 30
0.0
  0
VERTEX
  5
136
330
133
100
AcDbEntity
  8
Layer 1
370
     0
100
AcDbVertex
100
AcDb2dVertex
 10
17.9275878861431
 20
-6.78477104865103
 30
0.0
  0
VERTEX
  5
137
330
133
100
AcDbEntity
  8
Layer 1
370
     0
100
AcDbVertex
100
AcDb2dVertex
 10
17.64509005635262
 20
-7.173377819387212
 30
0.0
  0
VERTEX
  5
138
330
133
100
AcDbEntity
  8
Layer 1
370
     0
100
AcDbVertex
100
AcDb2dVertex
 10
16.51199815125394
 20
-6.350344507961025
 30
0.0
  0
VERTEX
  5
139
330
133
100
AcDbEntity
  8
Layer 1
370
     0
100
AcDbVertex
100
AcDb2dVertex
 10
16.79449598104443
 20
-5.961393227676319
 30
0.0
  0
VERTEX
  5
13A
330
133
100
AcDbEntity
  8
Layer 1
370
     0
100
AcDbVertex
100
AcDb2dVertex
 10
17.16381021706322
 20
-6.230110675525806
 30
0.0
  0
VERTEX
  5
13B
330
133
100
AcDbEntity
  8
Layer 1
370
     0
100
AcDbVertex
100
AcDb2dVertex
 10
18.5852566142773
 20
-4.273296439903898
 30
0.0
  0
VERTEX
  5
13C
330
133
100
AcDbEntity
  8
Layer 1
370
     0
100
AcDbVertex
100
AcDb2dVertex
 10
18.21594237825851
 20
-4.004923501602936
 30
0.0
  0
VERTEX
  5
13D
330
133
100
AcDbEntity
  8
Layer 1
370
     0
100
AcDbVertex
100
AcDb2dVertex
 10
18.498440208049
 20
-3.615972221318229
 30
0.0
  0
VERTEX
  5
13E
330
133
100
AcDbEntity
  8
Layer 1
370
     0
100
AcDbVertex
100
AcDb2dVertex
 10
19.26221787712889
 20
-4.170977103991978
 30
0.0
  0
SEQEND
  5
13F
330
133
100
AcDbEntity
  8
Layer 1
370
     0
  0
HATCH
  5
140
330
12F
100
AcDbEntity
  8
Layer 1
 62
   250
420
  2301728
100
AcDbHatch
 10
0.0
 20
0.0
 30
0.0
210
0.0
220
0.0
230
1.0
  2
SOLID
 70
     1
 71
     0
 91
        1
 92
        1
 93
       10
 72
     1
 10
19.26221787712889
 20
-4.170977103991978
 11
17.55827365012432
 21
-6.516398110350067
 72
     1
 10
17.55827365012432
 20
-6.516398110350067
 11
17.9275878861431
 21
-6.78477104865103
 72
     1
 10
17.9275878861431
 20
-6.78477104865103
 11
17.64509005635262
 21
-7.173377819387212
 72
     1
 10
17.64509005635262
 20
-7.173377819387212
 11
16.51199815125394
 21
-6.350344507961025
 72
     1
 10
16.51199815125394
 20
-6.350344507961025
 11
16.79449598104443
 21
-5.961393227676319
 72
     1
 10
16.79449598104443
 20
-5.961393227676319
 11
17.16381021706322
 21
-6.230110675525806
 72
     1
 10
17.16381021706322
 20
-6.230110675525806
 11
18.5852566142773
 21
-4.273296439903898
 72
     1
 10
18.5852566142773
 20
-4.273296439903898
 11
18.21594237825851
 21
-4.004923501602936
 72
     1
 10
18.21594237825851
 20
-4.004923501602936
 11
18.498440208049
 21
-3.615972221318229
 72
     1
 10
18.498440208049
 20
-3.615972221318229
 11
19.26221787712889
 21
-4.170977103991978
 97
        0
 75
     2
 76
     1
 98
        0
  0
POLYLINE
  5
141
330
12F
100
AcDbEntity
  8
Layer 1
370
     0
100
AcDb2dPolyline
 66
     1
 10
0.0
 20
0.0
 30
0.0
  0
VERTEX
  5
142
330
141
100
AcDbEntity
  8
Layer 1
370
     0
100
AcDbVertex
100
AcDb2dVertex
 10
20.75738931772732
 20
-5.257560220039776
 30
0.0
  0
VERTEX
  5
143
330
141
100
AcDbEntity
  8
Layer 1
370
     0
100
AcDbVertex
100
AcDb2dVertex
 10
19.05344509072275
 20
-7.602981226397866
 30
0.0
  0
VERTEX
  5
144
330
141
100
AcDbEntity
  8
Layer 1
370
     0
100
AcDbVertex
100
AcDb2dVertex
 10
19.42275932674153
 20
-7.871354164698828
 30
0.0
  0
VERTEX
  5
145
330
141
100
AcDbEntity
  8
Layer 1
370
     0
100
AcDbVertex
100
AcDb2dVertex
 10
19.14026149695105
 20
-8.25996093543501
 30
0.0
  0
VERTEX
  5
146
330
141
100
AcDbEntity
  8
Layer 1
370
     0
100
AcDbVertex
100
AcDb2dVertex
 10
18.0075141014009
 20
-7.436927624008824
 30
0.0
  0
VERTEX
  5
147
330
141
100
AcDbEntity
  8
Layer 1
370
     0
100
AcDbVertex
100
AcDb2dVertex
 10
18.29001193119139
 20
-7.047976343724117
 30
0.0
  0
VERTEX
  5
148
330
141
100
AcDbEntity
  8
Layer 1
370
     0
100
AcDbVertex
100
AcDb2dVertex
 10
18.65932616721017
 20
-7.31634928202508
 30
0.0
  0
VERTEX
  5
149
330
141
100
AcDbEntity
  8
Layer 1
370
     0
100
AcDbVertex
100
AcDb2dVertex
 10
20.08077256442425
 20
-5.359879555951697
 30
0.0
  0
VERTEX
  5
14A
330
141
100
AcDbEntity
  8
Layer 1
370
     0
100
AcDbVertex
100
AcDb2dVertex
 10
19.71145832840547
 20
-5.091506617650735
 30
0.0
  0
VERTEX
  5
14B
330
141
100
AcDbEntity
  8
Layer 1
370
     0
100
AcDbVertex
100
AcDb2dVertex
 10
19.99395615819596
 20
-4.702555337366028
 30
0.0
  0
VERTEX
  5
14C
330
141
100
AcDbEntity
  8
Layer 1
370
     0
100
AcDbVertex
100
AcDb2dVertex
 10
20.75738931772732
 20
-5.257560220039776
 30
0.0
  0
SEQEND
  5
14D
330
141
100
AcDbEntity
  8
Layer 1
370
     0
  0
HATCH
  5
14E
330
12F
100
AcDbEntity
  8
Layer 1
 62
   250
420
  2301728
100
AcDbHatch
 10
0.0
 20
0.0
 30
0.0
210
0.0
220
0.0
230
1.0
  2
SOLID
 70
     1
 71
     0
 91
        1
 92
        1
 93
       10
 72
     1
 10
20.75738931772732
 20
-5.257560220039776
 11
19.05344509072275
 21
-7.602981226397866
 72
     1
 10
19.05344509072275
 20
-7.602981226397866
 11
19.42275932674153
 21
-7.871354164698828
 72
     1
 10
19.42275932674153
 20
-7.871354164698828
 11
19.14026149695105
 21
-8.25996093543501
 72
     1
 10
19.14026149695105
 20
-8.25996093543501
 11
18.0075141014009
 21
-7.436927624008824
 72
     1
 10
18.0075141014009
 20
-7.436927624008824
 11
18.29001193119139
 21
-7.047976343724117
 72
     1
 10
18.29001193119139
 20
-7.047976343724117
 11
18.65932616721017
 21
-7.31634928202508
 72
     1
 10
18.65932616721017
 20
-7.31634928202508
 11
20.08077256442425
 21
-5.359879555951697
 72
     1
 10
20.08077256442425
 20
-5.359879555951697
 11
19.71145832840547
 21
-5.091506617650735
 72
     1
 10
19.71145832840547
 20
-5.091506617650735
 11
19.99395615819596
 21
-4.702555337366028
 72
     1
 10
19.99395615819596
 20
-4.702555337366028
 11
20.75738931772732
 21
-5.257560220039776
 97
        0
 75
     2
 76
     1
 98
        0
  0
ENDBLK
  5
132
330
12F
100
AcDbEntity
  8
0
100
AcDbBlockEnd
  0
BLOCK
  5
151
330
14F
100
AcDbEntity
  8
0
100
AcDbBlockBegin
  2
block 12
 70
     0
 10
0.0
 20
0.0
 30
0.0
  3
block 12
  1

  0
POLYLINE
  5
153
330
14F
100
AcDbEntity
  8
Layer 1
370
     0
100
AcDb2dPolyline
 66
     1
 10
0.0
 20
0.0
 30
0.0
  0
VERTEX
  5
154
330
153
100
AcDbEntity
  8
Layer 1
370
     0
100
AcDbVertex
100
AcDb2dVertex
 10
6.482980684143144
 20
-4.951291231401067
 30
0.0
  0
VERTEX
  5
155
330
153
100
AcDbEntity
  8
Layer 1
370
     0
100
AcDbVertex
100
AcDb2dVertex
 10
8.186924911147713
 20
-7.296712237759156
 30
0.0
  0
VERTEX
  5
156
330
153
100
AcDbEntity
  8
Layer 1
370
     0
100
AcDbVertex
100
AcDb2dVertex
 10
8.556239147166496
 20
-7.028339299458193
 30
0.0
  0
VERTEX
  5
157
330
153
100
AcDbEntity
  8
Layer 1
370
     0
100
AcDbVertex
100
AcDb2dVertex
 10
8.838736976956984
 20
-7.417118324968637
 30
0.0
  0
VERTEX
  5
158
330
153
100
AcDbEntity
  8
Layer 1
370
     0
100
AcDbVertex
100
AcDb2dVertex
 10
7.705645071858311
 20
-8.240323891169085
 30
0.0
  0
VERTEX
  5
159
330
153
100
AcDbEntity
  8
Layer 1
370
     0
100
AcDbVertex
100
AcDb2dVertex
 10
7.423147242067825
 20
-7.851544865658642
 30
0.0
  0
VERTEX
  5
15A
330
153
100
AcDbEntity
  8
Layer 1
370
     0
100
AcDbVertex
100
AcDb2dVertex
 10
7.792461478086607
 20
-7.58317192735768
 30
0.0
  0
VERTEX
  5
15B
330
153
100
AcDbEntity
  8
Layer 1
370
     0
100
AcDbVertex
100
AcDb2dVertex
 10
6.371015080872525
 20
-5.626529946510034
 30
0.0
  0
VERTEX
  5
15C
330
153
100
AcDbEntity
  8
Layer 1
370
     0
100
AcDbVertex
100
AcDb2dVertex
 10
6.001700844853742
 20
-5.894902884810997
 30
0.0
  0
VERTEX
  5
15D
330
153
100
AcDbEntity
  8
Layer 1
370
     0
100
AcDbVertex
100
AcDb2dVertex
 10
5.719203015063255
 20
-5.506123859300553
 30
0.0
  0
VERTEX
  5
15E
330
153
100
AcDbEntity
  8
Layer 1
370
     0
100
AcDbVertex
100
AcDb2dVertex
 10
6.482980684143144
 20
-4.951291231401067
 30
0.0
  0
SEQEND
  5
15F
330
153
100
AcDbEntity
  8
Layer 1
370
     0
  0
HATCH
  5
160
330
14F
100
AcDbEntity
  8
Layer 1
 62
   250
420
  2301728
100
AcDbHatch
 10
0.0
 20
0.0
 30
0.0
210
0.0
220
0.0
230
1.0
  2
SOLID
 70
     1
 71
     0
 91
        1
 92
        1
 93
       10
 72
     1
 10
6.482980684143144
 20
-4.951291231401067
 11
8.186924911147713
 21
-7.296712237759156
 72
     1
 10
8.186924911147713
 20
-7.296712237759156
 11
8.556239147166496
 21
-7.028339299458193
 72
     1
 10
8.556239147166496
 20
-7.028339299458193
 11
8.838736976956984
 21
-7.417118324968637
 72
     1
 10
8.838736976956984
 20
-7.417118324968637
 11
7.705645071858311
 21
-8.240323891169085
 72
     1
 10
7.705645071858311
 20
-8.240323891169085
 11
7.423147242067825
 21
-7.851544865658642
 72
     1
 10
7.423147242067825
 20
-7.851544865658642
 11
7.792461478086607
 21
-7.58317192735768
 72
     1
 10
7.792461478086607
 20
-7.58317192735768
 11
6.371015080872525
 21
-5.626529946510034
 72
     1
 10
6.371015080872525
 20
-5.626529946510034
 11
6.001700844853742
 21
-5.894902884810997
 72
     1
 10
6.001700844853742
 20
-5.894902884810997
 11
5.719203015063255
 21
-5.506123859300553
 72
     1
 10
5.719203015063255
 20
-5.506123859300553
 11
6.482980684143144
 21
-4.951291231401067
 97
        0
 75
     2
 76
     1
 98
        0
  0
SPLINE
  5
161
330
14F
100
AcDbEntity
  8
Layer 1
370
     0
100
AcDbSpline
210
0.0
220
0.0
230
1.0
 70
    11
 71
     3
 72
    56
 73
    52
 74
     0
 42
0.0000000001
 43
0.0000000001
 12
1.0
 22
0.0
 32
0.0
 13
1.0
 23
0.0
 33
0.0
 40
0.0
 40
0.0
 40
0.0
 40
0.0
 40
1.0
 40
1.0
 40
1.0
 40
2.0
 40
2.0
 40
2.0
 40
3.0
 40
3.0
 40
3.0
 40
4.0
 40
4.0
 40
4.0
 40
5.0
 40
5.0
 40
5.0
 40
6.0
 40
6.0
 40
6.0
 40
7.0
 40
7.0
 40
7.0
 40
8.0
 40
8.0
 40
8.0
 40
9.0
 40
9.0
 40
9.0
 40
10.0
 40
10.0
 40
10.0
 40
11.0
 40
11.0
 40
11.0
 40
12.0
 40
12.0
 40
12.0
 40
13.0
 40
13.0
 40
13.0
 40
14.0
 40
14.0
 40
14.0
 40
15.0
 40
15.0
 40
15.0
 40
16.0
 40
16.0
 40
16.0
 40
17.0
 40
17.0
 40
17.0
 40
17.0
 10
9.070247393565772
 20
-5.419996472169307
 30
0.0
 10
9.043375648780824
 20
-5.541780597572888
 30
0.0
 10
8.975851777269927
 20
-5.641860621419396
 30
0.0
 10
8.866986759936031
 20
-5.72092556280588
 30
0.0
 10
8.849416772961257
 20
-5.733672416101304
 30
0.0
 10
8.830124238243858
 20
-5.746247014622466
 30
0.0
 10
8.809109155783835
 20
-5.758649358369365
 30
0.0
 10
8.673372393664991
 20
-5.837369790207324
 30
0.0
 10
8.541769746128447
 20
-5.86406928021801
 30
0.0
 10
8.414301213174204
 20
-5.83909233794995
 30
0.0
 10
8.28269856563766
 20
-5.812392847939263
 30
0.0
 10
8.14317219848504
 20
-5.697498913506181
 30
0.0
 10
7.995377602167823
 20
-5.493893770327916
 30
0.0
 10
7.995377602167823
 20
-5.493893770327916
 30
0.0
 10
7.600569659558191
 20
-4.950429957529754
 30
0.0
 10
7.600569659558191
 20
-4.950429957529754
 30
0.0
 10
7.322205944350005
 20
-4.567679849118497
 30
0.0
 10
7.371815319337602
 20
-4.238673230277137
 30
0.0
 10
7.749397784520984
 20
-3.962893336682888
 30
0.0
 10
8.126635740155841
 20
-3.689008245605526
 30
0.0
 10
8.454608830351626
 20
-3.743785263820998
 30
0.0
 10
8.733317055108337
 20
-4.127396646103568
 30
0.0
 10
8.733317055108337
 20
-4.127396646103568
 30
0.0
 10
9.94805772320743
 20
-5.799645994643838
 30
0.0
 10
9.94805772320743
 20
-5.799645994643838
 30
0.0
 10
10.22642143841562
 20
-6.182568357829358
 30
0.0
 10
10.17646755387949
 20
-6.511230467122193
 30
0.0
 10
9.798540579147588
 20
-6.785976832070867
 30
0.0
 10
9.420958113964206
 20
-7.060034177922492
 30
0.0
 10
9.093674042865471
 20
-7.005601669255545
 30
0.0
 10
8.815310327657285
 20
-6.622679306070025
 30
0.0
 10
8.815310327657285
 20
-6.622679306070025
 30
0.0
 10
8.547970918001896
 20
-6.254915363019605
 30
0.0
 10
8.547970918001896
 20
-6.254915363019605
 30
0.0
 10
8.547970918001896
 20
-6.254915363019605
 30
0.0
 10
8.942778860611527
 20
-5.968455673421081
 30
0.0
 10
8.942778860611527
 20
-5.968455673421081
 30
0.0
 10
8.942778860611527
 20
-5.968455673421081
 30
0.0
 10
9.20977376071839
 20
-6.336219616471501
 30
0.0
 10
9.20977376071839
 20
-6.336219616471501
 30
0.0
 10
9.299001733786362
 20
-6.458865015746395
 30
0.0
 10
9.400976560149756
 20
-6.479191079109369
 30
0.0
 10
9.516042749357101
 20
-6.397025551786161
 30
0.0
 10
9.516042749357101
 20
-6.397025551786161
 30
0.0
 10
9.5187988257453
 20
-6.394958494495011
 30
0.0
 10
9.5187988257453
 20
-6.394958494495011
 30
0.0
 10
9.631797957661496
 20
-6.31262071239754
 30
0.0
 10
9.64385579185987
 20
-6.209784612162832
 30
0.0
 10
9.55393879969485
 20
-6.086105684242363
 30
0.0
 10
9.55393879969485
 20
-6.086105684242363
 30
0.0
 10
9.070247393565772
 20
-5.419996472169307
 30
0.0
 10
9.070247393565772
 20
-5.419996472169307
 30
0.0
  0
SPLINE
  5
162
330
14F
100
AcDbEntity
  8
Layer 1
370
     0
100
AcDbSpline
210
0.0
220
0.0
230
1.0
 70
    11
 71
     3
 72
    29
 73
    25
 74
     0
 42
0.0000000001
 43
0.0000000001
 12
1.0
 22
0.0
 32
0.0
 13
1.0
 23
0.0
 33
0.0
 40
0.0
 40
0.0
 40
0.0
 40
0.0
 40
1.0
 40
1.0
 40
1.0
 40
2.0
 40
2.0
 40
2.0
 40
3.0
 40
3.0
 40
3.0
 40
4.0
 40
4.0
 40
4.0
 40
5.0
 40
5.0
 40
5.0
 40
6.0
 40
6.0
 40
6.0
 40
7.0
 40
7.0
 40
7.0
 40
8.0
 40
8.0
 40
8.0
 40
8.0
 10
8.389496525680403
 20
-5.207434080729391
 30
0.0
 10
8.4597764735795
 20
-5.304069009090649
 30
0.0
 10
8.521788192313998
 20
-5.346443683559222
 30
0.0
 10
8.575531681883895
 20
-5.334213594586585
 30
0.0
 10
8.603781464862944
 20
-5.328184677487399
 30
0.0
 10
8.641677515200692
 20
-5.307341849801637
 30
0.0
 10
8.68990885199419
 20
-5.272201875852089
 30
0.0
 10
8.702311195741089
 20
-5.263589137138964
 30
0.0
 10
8.714713539487988
 20
-5.253770615006002
 30
0.0
 10
8.728149411880462
 20
-5.24257405467894
 30
0.0
 10
8.819099932691058
 20
-5.172294106779844
 30
0.0
 10
8.820822480433684
 20
-5.077209471386948
 30
0.0
 10
8.734006074205388
 20
-4.957320148500253
 30
0.0
 10
8.734006074205388
 20
-4.957320148500253
 30
0.0
 10
8.339198131595756
 20
-4.413856335702092
 30
0.0
 10
8.339198131595756
 20
-4.413856335702092
 30
0.0
 10
8.249281139430735
 20
-4.290349662555885
 30
0.0
 10
8.146961803518815
 20
-4.270023599192911
 30
0.0
 10
8.032929142957046
 20
-4.353050400387432
 30
0.0
 10
7.917518444201177
 20
-4.436766220679004
 30
0.0
 10
7.905116100454276
 20
-4.540463594785023
 30
0.0
 10
7.994688583070773
 20
-4.66397026793123
 30
0.0
 10
7.994688583070773
 20
-4.66397026793123
 30
0.0
 10
8.389496525680403
 20
-5.207434080729391
 30
0.0
 10
8.389496525680403
 20
-5.207434080729391
 30
0.0
  0
HATCH
  5
163
330
14F
100
AcDbEntity
  8
Layer 1
 62
   250
420
  2301728
100
AcDbHatch
 10
0.0
 20
0.0
 30
0.0
210
0.0
220
0.0
230
1.0
  2
SOLID
 70
     1
 71
     0
 91
        2
 92
        1
 93
        1
 72
     4
 94
        3
 73
     0
 74
     1
 95
       56
 96
       52
 40
0.0
 40
0.0
 40
0.0
 40
0.0
 40
1.0
 40
1.0
 40
1.0
 40
2.0
 40
2.0
 40
2.0
 40
3.0
 40
3.0
 40
3.0
 40
4.0
 40
4.0
 40
4.0
 40
5.0
 40
5.0
 40
5.0
 40
6.0
 40
6.0
 40
6.0
 40
7.0
 40
7.0
 40
7.0
 40
8.0
 40
8.0
 40
8.0
 40
9.0
 40
9.0
 40
9.0
 40
10.0
 40
10.0
 40
10.0
 40
11.0
 40
11.0
 40
11.0
 40
12.0
 40
12.0
 40
12.0
 40
13.0
 40
13.0
 40
13.0
 40
14.0
 40
14.0
 40
14.0
 40
15.0
 40
15.0
 40
15.0
 40
16.0
 40
16.0
 40
16.0
 40
17.0
 40
17.0
 40
17.0
 40
17.0
 10
9.070247393565772
 20
-5.419996472169307
 10
9.043375648780824
 20
-5.541780597572888
 10
8.975851777269927
 20
-5.641860621419396
 10
8.866986759936031
 20
-5.72092556280588
 10
8.849416772961257
 20
-5.733672416101304
 10
8.830124238243858
 20
-5.746247014622466
 10
8.809109155783835
 20
-5.758649358369365
 10
8.673372393664991
 20
-5.837369790207324
 10
8.541769746128447
 20
-5.86406928021801
 10
8.414301213174204
 20
-5.83909233794995
 10
8.28269856563766
 20
-5.812392847939263
 10
8.14317219848504
 20
-5.697498913506181
 10
7.995377602167823
 20
-5.493893770327916
 10
7.995377602167823
 20
-5.493893770327916
 10
7.600569659558191
 20
-4.950429957529754
 10
7.600569659558191
 20
-4.950429957529754
 10
7.322205944350005
 20
-4.567679849118497
 10
7.371815319337602
 20
-4.238673230277137
 10
7.749397784520984
 20
-3.962893336682888
 10
8.126635740155841
 20
-3.689008245605526
 10
8.454608830351626
 20
-3.743785263820998
 10
8.733317055108337
 20
-4.127396646103568
 10
8.733317055108337
 20
-4.127396646103568
 10
9.94805772320743
 20
-5.799645994643838
 10
9.94805772320743
 20
-5.799645994643838
 10
10.22642143841562
 20
-6.182568357829358
 10
10.17646755387949
 20
-6.511230467122193
 10
9.798540579147588
 20
-6.785976832070867
 10
9.420958113964206
 20
-7.060034177922492
 10
9.093674042865471
 20
-7.005601669255545
 10
8.815310327657285
 20
-6.622679306070025
 10
8.815310327657285
 20
-6.622679306070025
 10
8.547970918001896
 20
-6.254915363019605
 10
8.547970918001896
 20
-6.254915363019605
 10
8.547970918001896
 20
-6.254915363019605
 10
8.942778860611527
 20
-5.968455673421081
 10
8.942778860611527
 20
-5.968455673421081
 10
8.942778860611527
 20
-5.968455673421081
 10
9.20977376071839
 20
-6.336219616471501
 10
9.20977376071839
 20
-6.336219616471501
 10
9.299001733786362
 20
-6.458865015746395
 10
9.400976560149756
 20
-6.479191079109369
 10
9.516042749357101
 20
-6.397025551786161
 10
9.516042749357101
 20
-6.397025551786161
 10
9.5187988257453
 20
-6.394958494495011
 10
9.5187988257453
 20
-6.394958494495011
 10
9.631797957661496
 20
-6.31262071239754
 10
9.64385579185987
 20
-6.209784612162832
 10
9.55393879969485
 20
-6.086105684242363
 10
9.55393879969485
 20
-6.086105684242363
 10
9.070247393565772
 20
-5.419996472169307
 10
9.070247393565772
 20
-5.419996472169307
 97
        0
 97
        0
 92
        1
 93
        1
 72
     4
 94
        3
 73
     0
 74
     1
 95
       29
 96
       25
 40
0.0
 40
0.0
 40
0.0
 40
0.0
 40
1.0
 40
1.0
 40
1.0
 40
2.0
 40
2.0
 40
2.0
 40
3.0
 40
3.0
 40
3.0
 40
4.0
 40
4.0
 40
4.0
 40
5.0
 40
5.0
 40
5.0
 40
6.0
 40
6.0
 40
6.0
 40
7.0
 40
7.0
 40
7.0
 40
8.0
 40
8.0
 40
8.0
 40
8.0
 10
8.389496525680403
 20
-5.207434080729391
 10
8.4597764735795
 20
-5.304069009090649
 10
8.521788192313998
 20
-5.346443683559222
 10
8.575531681883895
 20
-5.334213594586585
 10
8.603781464862944
 20
-5.328184677487399
 10
8.641677515200692
 20
-5.307341849801637
 10
8.68990885199419
 20
-5.272201875852089
 10
8.702311195741089
 20
-5.263589137138964
 10
8.714713539487988
 20
-5.253770615006002
 10
8.728149411880462
 20
-5.24257405467894
 10
8.819099932691058
 20
-5.172294106779844
 10
8.820822480433684
 20
-5.077209471386948
 10
8.734006074205388
 20
-4.957320148500253
 10
8.734006074205388
 20
-4.957320148500253
 10
8.339198131595756
 20
-4.413856335702092
 10
8.339198131595756
 20
-4.413856335702092
 10
8.249281139430735
 20
-4.290349662555885
 10
8.146961803518815
 20
-4.270023599192911
 10
8.032929142957046
 20
-4.353050400387432
 10
7.917518444201177
 20
-4.436766220679004
 10
7.905116100454276
 20
-4.540463594785023
 10
7.994688583070773
 20
-4.66397026793123
 10
7.994688583070773
 20
-4.66397026793123
 10
8.389496525680403
 20
-5.207434080729391
 10
8.389496525680403
 20
-5.207434080729391
 97
        0
 97
        0
 75
     2
 76
     1
 98
        0
  0
ENDBLK
  5
152
330
14F
100
AcDbEntity
  8
0
100
AcDbBlockEnd
  0
ENDSEC
  0
SECTION
  2
ENTITIES
  0
INSERT
  5
42
330
1F
100
AcDbEntity
  8
Layer 1
100
AcDbBlockReference
  2
block 2
 10
0.0
 20
0.0
 30
0.0
  0
SPLINE
  5
165
330
1F
100
AcDbEntity
  8
Middle
370
     0
100
AcDbSpline
210
0.0
220
0.0
230
1.0
 70
    11
 71
     3
 72
    68
 73
    64
 74
     0
 42
0.0000000001
 43
0.0000000001
 12
1.0
 22
0.0
 32
0.0
 13
1.0
 23
0.0
 33
0.0
 40
0.0
 40
0.0
 40
0.0
 40
0.0
 40
1.0
 40
1.0
 40
1.0
 40
2.0
 40
2.0
 40
2.0
 40
3.0
 40
3.0
 40
3.0
 40
4.0
 40
4.0
 40
4.0
 40
5.0
 40
5.0
 40
5.0
 40
6.0
 40
6.0
 40
6.0
 40
7.0
 40
7.0
 40
7.0
 40
8.0
 40
8.0
 40
8.0
 40
9.0
 40
9.0
 40
9.0
 40
10.0
 40
10.0
 40
10.0
 40
11.0
 40
11.0
 40
11.0
 40
12.0
 40
12.0
 40
12.0
 40
13.0
 40
13.0
 40
13.0
 40
14.0
 40
14.0
 40
14.0
 40
15.0
 40
15.0
 40
15.0
 40
16.0
 40
16.0
 40
16.0
 40
17.0
 40
17.0
 40
17.0
 40
18.0
 40
18.0
 40
18.0
 40
19.0
 40
19.0
 40
19.0
 40
20.0
 40
20.0
 40
20.0
 40
21.0
 40
21.0
 40
21.0
 40
21.0
 10
10.95750539009989
 20
-11.362423659239
 30
0.0
 10
11.00253109190193
 20
-11.35330684924462
 30
0.0
 10
11.04446253079269
 20
-11.34471926023126
 30
0.0
 10
11.08643419294338
 20
-11.33633386630221
 30
0.0
 10
11.41960253318408
 20
-11.26977053502111
 30
0.0
 10
11.74884717914518
 20
-11.18744168916671
 30
0.0
 10
12.07407766701968
 20
-11.0892439195144
 30
0.0
 10
12.36627638203674
 20
-11.00101951495443
 30
0.0
 10
12.65430235760814
 20
-10.90061655514325
 30
0.0
 10
12.93785538334627
 20
-10.78766255111595
 30
0.0
 10
13.04716525246043
 20
-10.74411856017894
 30
0.0
 10
13.1553457880437
 20
-10.69770191954295
 30
0.0
 10
13.26351337820873
 20
-10.65136264318528
 30
0.0
 10
13.28154387843897
 20
-10.64363823609009
 30
0.0
 10
13.29569167821009
 20
-10.64436240888669
 30
0.0
 10
13.31325182828543
 20
-10.65198294442115
 30
0.0
 10
13.61563858656154
 20
-10.78321025230545
 30
0.0
 10
13.92280898468279
 20
-10.90208986689907
 30
0.0
 10
14.23593674046329
 20
-11.00521629588913
 30
0.0
 10
14.4954350236572
 20
-11.09068039847529
 30
0.0
 10
14.75768143396594
 20
-11.16685832186132
 30
0.0
 10
15.02296138701658
 20
-11.23233485455535
 30
0.0
 10
15.21065514023427
 20
-11.27866157077666
 30
0.0
 10
15.39966377796175
 20
-11.31910182090693
 30
0.0
 10
15.5893486596204
 20
-11.35639987925922
 30
0.0
 10
15.59830380601225
 20
-11.35816076420916
 30
0.0
 10
15.60718867728309
 20
-11.36027780224172
 30
0.0
 10
15.61783535817742
 20
-11.36260720675969
 30
0.0
 10
15.61783535817742
 20
-11.37272975237308
 30
0.0
 10
15.61783535817742
 20
-11.3818764601168
 30
0.0
 10
15.61783535817742
 20
-11.39102316785988
 30
0.0
 10
15.61783535817742
 20
-12.0987767069005
 30
0.0
 10
15.61941593196091
 20
-12.80653517752785
 30
0.0
 10
15.61725651309817
 20
-13.51428208974762
 30
0.0
 10
15.61590587458098
 20
-13.95679035096164
 30
0.0
 10
15.51738570239783
 20
-14.37846111400511
 30
0.0
 10
15.32250600979126
 20
-14.7757664444925
 30
0.0
 10
15.03427568156434
 20
-15.36338728338565
 30
0.0
 10
14.59623204812865
 20
-15.80526800009476
 30
0.0
 10
14.01369875815672
 20
-16.10323698067333
 30
0.0
 10
13.78878693076951
 20
-16.21828043666549
 30
0.0
 10
13.55168822607838
 20
-16.30029520204335
 30
0.0
 10
13.30486967071189
 20
-16.35401190208367
 30
0.0
 10
13.29379702395103
 20
-16.35642159901106
 30
0.0
 10
13.28124736674332
 20
-16.3561916637454
 30
0.0
 10
13.27014882914725
 20
-16.35373881542857
 30
0.0
 10
12.77239291820767
 20
-16.24372187996192
 30
0.0
 10
12.32915447382375
 20
-16.02435438978569
 30
0.0
 10
11.94659443575194
 20
-15.68670339065027
 30
0.0
 10
11.53556711724856
 20
-15.32392718626424
 30
0.0
 10
11.25028048440346
 20
-14.87888162329778
 30
0.0
 10
11.08769205597256
 20
-14.35533905793951
 30
0.0
 10
11.0341963526954
 20
-14.18307994059696
 30
0.0
 10
10.9981335028907
 20
-14.00704230258268
 30
0.0
 10
10.97732174144107
 20
-13.82793382669671
 30
0.0
 10
10.96391121399652
 20
-13.71251988519592
 30
0.0
 10
10.95750508187644
 20
-13.59663620998744
 30
0.0
 10
10.95750523598912
 20
-13.4804221184195
 30
0.0
 10
10.95750585243602
 20
-12.78613350839862
 30
0.0
 10
10.95750539009989
 20
-12.09184474426536
 30
0.0
 10
10.95750539009989
 20
-11.39755613424448
 30
0.0
 10
10.95750539009989
 20
-11.3866958539687
 30
0.0
 10
10.95750539009989
 20
-11.3758357278056
 30
0.0
 10
10.95750539009989
 20
-11.362423659239
 30
0.0
  0
HATCH
  5
166
330
1F
100
AcDbEntity
  8
Middle
 62
   250
420
  2301728
100
AcDbHatch
 10
0.0
 20
0.0
 30
0.0
210
0.0
220
0.0
230
1.0
  2
SOLID
 70
     1
 71
     0
 91
        1
 92
        1
 93
        1
 72
     4
 94
        3
 73
     0
 74
     1
 95
       68
 96
       64
 40
0.0
 40
0.0
 40
0.0
 40
0.0
 40
1.0
 40
1.0
 40
1.0
 40
2.0
 40
2.0
 40
2.0
 40
3.0
 40
3.0
 40
3.0
 40
4.0
 40
4.0
 40
4.0
 40
5.0
 40
5.0
 40
5.0
 40
6.0
 40
6.0
 40
6.0
 40
7.0
 40
7.0
 40
7.0
 40
8.0
 40
8.0
 40
8.0
 40
9.0
 40
9.0
 40
9.0
 40
10.0
 40
10.0
 40
10.0
 40
11.0
 40
11.0
 40
11.0
 40
12.0
 40
12.0
 40
12.0
 40
13.0
 40
13.0
 40
13.0
 40
14.0
 40
14.0
 40
14.0
 40
15.0
 40
15.0
 40
15.0
 40
16.0
 40
16.0
 40
16.0
 40
17.0
 40
17.0
 40
17.0
 40
18.0
 40
18.0
 40
18.0
 40
19.0
 40
19.0
 40
19.0
 40
20.0
 40
20.0
 40
20.0
 40
21.0
 40
21.0
 40
21.0
 40
21.0
 10
10.95750539009989
 20
-11.362423659239
 10
11.00253109190193
 20
-11.35330684924462
 10
11.04446253079269
 20
-11.34471926023126
 10
11.08643419294338
 20
-11.33633386630221
 10
11.41960253318408
 20
-11.26977053502111
 10
11.74884717914518
 20
-11.18744168916671
 10
12.07407766701968
 20
-11.0892439195144
 10
12.36627638203674
 20
-11.00101951495443
 10
12.65430235760814
 20
-10.90061655514325
 10
12.93785538334627
 20
-10.78766255111595
 10
13.04716525246043
 20
-10.74411856017894
 10
13.1553457880437
 20
-10.69770191954295
 10
13.26351337820873
 20
-10.65136264318528
 10
13.28154387843897
 20
-10.64363823609009
 10
13.29569167821009
 20
-10.64436240888669
 10
13.31325182828543
 20
-10.65198294442115
 10
13.61563858656154
 20
-10.78321025230545
 10
13.92280898468279
 20
-10.90208986689907
 10
14.23593674046329
 20
-11.00521629588913
 10
14.4954350236572
 20
-11.09068039847529
 10
14.75768143396594
 20
-11.16685832186132
 10
15.02296138701658
 20
-11.23233485455535
 10
15.21065514023427
 20
-11.27866157077666
 10
15.39966377796175
 20
-11.31910182090693
 10
15.5893486596204
 20
-11.35639987925922
 10
15.59830380601225
 20
-11.35816076420916
 10
15.60718867728309
 20
-11.36027780224172
 10
15.61783535817742
 20
-11.36260720675969
 10
15.61783535817742
 20
-11.37272975237308
 10
15.61783535817742
 20
-11.3818764601168
 10
15.61783535817742
 20
-11.39102316785988
 10
15.61783535817742
 20
-12.0987767069005
 10
15.61941593196091
 20
-12.80653517752785
 10
15.61725651309817
 20
-13.51428208974762
 10
15.61590587458098
 20
-13.95679035096164
 10
15.51738570239783
 20
-14.37846111400511
 10
15.32250600979126
 20
-14.7757664444925
 10
15.03427568156434
 20
-15.36338728338565
 10
14.59623204812865
 20
-15.80526800009476
 10
14.01369875815672
 20
-16.10323698067333
 10
13.78878693076951
 20
-16.21828043666549
 10
13.55168822607838
 20
-16.30029520204335
 10
13.30486967071189
 20
-16.35401190208367
 10
13.29379702395103
 20
-16.35642159901106
 10
13.28124736674332
 20
-16.3561916637454
 10
13.27014882914725
 20
-16.35373881542857
 10
12.77239291820767
 20
-16.24372187996192
 10
12.32915447382375
 20
-16.02435438978569
 10
11.94659443575194
 20
-15.68670339065027
 10
11.53556711724856
 20
-15.32392718626424
 10
11.25028048440346
 20
-14.87888162329778
 10
11.08769205597256
 20
-14.35533905793951
 10
11.0341963526954
 20
-14.18307994059696
 10
10.9981335028907
 20
-14.00704230258268
 10
10.97732174144107
 20
-13.82793382669671
 10
10.96391121399652
 20
-13.71251988519592
 10
10.95750508187644
 20
-13.59663620998744
 10
10.95750523598912
 20
-13.4804221184195
 10
10.95750585243602
 20
-12.78613350839862
 10
10.95750539009989
 20
-12.09184474426536
 10
10.95750539009989
 20
-11.39755613424448
 10
10.95750539009989
 20
-11.3866958539687
 10
10.95750539009989
 20
-11.3758357278056
 10
10.95750539009989
 20
-11.362423659239
 97
        0
 97
        0
 75
     2
 76
     1
 98
        0
  0
ENDSEC
  0
SECTION
  2
OBJECTS
  0
DICTIONARY
  5
C
330
0
100
AcDbDictionary
281
     1
  3
ACAD_GROUP
350
D
  3
ACAD_LAYOUT
350
1A
  3
ACAD_MATERIAL
350
3B
  3
ACAD_MLEADERSTYLE
350
168
  3
ACAD_MLINESTYLE
350
17
  3
ACAD_PLOTSETTINGS
350
19
  3
ACAD_PLOTSTYLENAME
350
E
  3
ACAD_TABLESTYLE
350
167
  3
ACAD_VISUALSTYLE
350
2A
  0
SUN
  5
3F
330
29
100
AcDbSun
 90
        1
290
     0
 63
     7
421
 16777215
 40
1.0
291
     1
 91
  2455826
 92
 54000000
292
     0
 70
     2
 71
   256
280
     1
  0
DICTIONARY
  5
D
102
{ACAD_REACTORS
330
C
102
}
330
C
100
AcDbDictionary
281
     1
  0
DICTIONARY
  5
1A
102
{ACAD_REACTORS
330
C
102
}
330
C
100
AcDbDictionary
281
     1
  3
Layout1
350
1E
  3
Layout2
350
26
  3
Model
350
22
  0
DICTIONARY
  5
3B
102
{ACAD_REACTORS
330
C
102
}
330
C
100
AcDbDictionary
281
     1
  3
ByBlock
350
3D
  3
ByLayer
350
3C
  3
Global
350
3E
  0
DICTIONARY
  5
168
102
{ACAD_REACTORS
330
C
102
}
330
C
100
AcDbDictionary
281
     1
  0
DICTIONARY
  5
17
102
{ACAD_REACTORS
330
C
102
}
330
C
100
AcDbDictionary
281
     1
  3
Standard
350
18
  0
DICTIONARY
  5
19
102
{ACAD_REACTORS
330
C
102
}
330
C
100
AcDbDictionary
281
     1
  0
ACDBDICTIONARYWDFLT
  5
E
102
{ACAD_REACTORS
330
C
102
}
330
C
100
AcDbDictionary
281
     1
  3
Normal
350
F
100
AcDbDictionaryWithDefault
340
F
  0
DICTIONARY
  5
167
102
{ACAD_REACTORS
330
C
102
}
330
C
100
AcDbDictionary
281
     1
  0
DICTIONARY
  5
2A
102
{ACAD_REACTORS
330
C
102
}
330
C
100
AcDbDictionary
281
     1
  3
2dWireframe
350
2F
  3
3D Hidden
350
31
  3
3dWireframe
350
30
  3
Basic
350
32
  3
Brighten
350
36
  3
ColorChange
350
3A
  3
Conceptual
350
34
  3
Dim
350
35
  3
Facepattern
350
39
  3
Flat
350
2B
  3
FlatWithEdges
350
2C
  3
Gouraud
350
2D
  3
GouraudWithEdges
350
2E
  3
Linepattern
350
38
  3
Realistic
350
33
  3
Thicken
350
37
  0
LAYOUT
  5
1E
102
{ACAD_REACTORS
330
1A
102
}
330
1A
100
AcDbPlotSettings
  1

  2
none_device
  4

  6

 40
0.0
 41
0.0
 42
0.0
 43
0.0
 44
0.0
 45
0.0
 46
0.0
 47
0.0
 48
0.0
 49
0.0
140
0.0
141
0.0
142
1.0
143
1.0
 70
   688
 72
     0
 73
     0
 74
     5
  7

 75
    16
 76
     0
 77
     2
 78
   300
147
1.0
148
0.0
149
0.0
100
AcDbLayout
  1
Layout1
 70
     1
 71
     1
 10
0.0
 20
0.0
 11
12.0
 21
9.0
 12
0.0
 22
0.0
 32
0.0
 14
1.000000000000000E+20
 24
1.000000000000000E+20
 34
1.000000000000000E+20
 15
-1.000000000000000E+20
 25
-1.000000000000000E+20
 35
-1.000000000000000E+20
146
0.0
 13
0.0
 23
0.0
 33
0.0
 16
1.0
 26
0.0
 36
0.0
 17
0.0
 27
1.0
 37
0.0
 76
     0
330
1B
  0
LAYOUT
  5
26
102
{ACAD_REACTORS
330
1A
102
}
330
1A
100
AcDbPlotSettings
  1

  2
none_device
  4

  6

 40
0.0
 41
0.0
 42
0.0
 43
0.0
 44
0.0
 45
0.0
 46
0.0
 47
0.0
 48
0.0
 49
0.0
140
0.0
141
0.0
142
1.0
143
1.0
 70
   688
 72
     0
 73
     0
 74
     5
  7

 75
    16
 76
     0
 77
     2
 78
   300
147
1.0
148
0.0
149
0.0
100
AcDbLayout
  1
Layout2
 70
     1
 71
     2
 10
0.0
 20
0.0
 11
0.0
 21
0.0
 12
0.0
 22
0.0
 32
0.0
 14
0.0
 24
0.0
 34
0.0
 15
0.0
 25
0.0
 35
0.0
146
0.0
 13
0.0
 23
0.0
 33
0.0
 16
1.0
 26
0.0
 36
0.0
 17
0.0
 27
1.0
 37
0.0
 76
     0
330
23
  0
LAYOUT
  5
22
102
{ACAD_REACTORS
330
1A
102
}
330
1A
100
AcDbPlotSettings
  1

  2
none_device
  4

  6

 40
0.0
 41
0.0
 42
0.0
 43
0.0
 44
0.0
 45
0.0
 46
0.0
 47
0.0
 48
0.0
 49
0.0
140
0.0
141
0.0
142
1.0
143
1.0
 70
  1712
 72
     0
 73
     0
 74
     0
  7

 75
     0
 76
     0
 77
     2
 78
   300
147
1.0
148
0.0
149
0.0
100
AcDbLayout
  1
Model
 70
     1
 71
     0
 10
0.0
 20
0.0
 11
12.0
 21
9.0
 12
0.0
 22
0.0
 32
0.0
 14
1.000000000000000E+20
 24
1.000000000000000E+20
 34
1.000000000000000E+20
 15
-1.000000000000000E+20
 25
-1.000000000000000E+20
 35
-1.000000000000000E+20
146
0.0
 13
0.0
 23
0.0
 33
0.0
 16
1.0
 26
0.0
 36
0.0
 17
0.0
 27
1.0
 37
0.0
 76
     0
330
1F
331
29
  0
MATERIAL
  5
3D
102
{ACAD_REACTORS
330
3B
102
}
330
3B
100
AcDbMaterial
  1
ByBlock
 72
     1
 94
      127
  0
MATERIAL
  5
3C
102
{ACAD_REACTORS
330
3B
102
}
330
3B
100
AcDbMaterial
  1
ByLayer
 72
     1
 94
      127
  0
MATERIAL
  5
3E
102
{ACAD_REACTORS
330
3B
102
}
330
3B
100
AcDbMaterial
  1
Global
 72
     1
 94
      127
  0
MLINESTYLE
  5
18
102
{ACAD_REACTORS
330
17
102
}
330
17
100
AcDbMlineStyle
  2
Standard
 70
     0
  3

 62
   256
 51
90.0
 52
90.0
 71
     2
 49
0.5
 62
   256
  6
BYLAYER
 49
-0.5
 62
   256
  6
BYLAYER
  0
ACDBPLACEHOLDER
  5
F
102
{ACAD_REACTORS
330
E
102
}
330
E
  0
VISUALSTYLE
  5
2F
102
{ACAD_REACTORS
330
2A
102
}
330
2A
100
AcDbVisualStyle
  2
2dWireframe
 70
     4
177
     2
291
     0
 71
     0
176
     1
 72
     2
176
     1
 73
     0
176
     1
 90
        0
176
     1
 40
-0.6
176
     1
 41
-30.0
176
     1
 62
     5
 63
     7
421
 16777215
176
     1
 74
     1
176
     1
 91
        4
176
     1
 64
     7
176
     1
 65
   257
176
     1
 75
     1
176
     1
175
     1
176
     1
 42
1.0
176
     1
 92
        0
176
     1
 66
   257
176
     1
 43
1.0
176
     1
 76
     1
176
     1
 77
     6
176
     1
 78
     2
176
     1
 67
     7
176
     1
 79
     5
176
     1
170
     0
176
     1
171
     0
176
     1
290
     0
176
     1
 93
        1
176
     1
 44
0.0
176
     1
173
     0
176
     1
  0
VISUALSTYLE
  5
31
102
{ACAD_REACTORS
330
2A
102
}
330
2A
100
AcDbVisualStyle
  2
3D Hidden
 70
     6
177
     2
291
     0
 71
     1
176
     1
 72
     2
176
     1
 73
     2
176
     1
 90
        0
176
     1
 40
-0.6
176
     1
 41
-30.0
176
     1
 62
     5
 63
     7
421
 16777215
176
     1
 74
     2
176
     1
 91
        2
176
     1
 64
     7
176
     1
 65
   257
176
     1
 75
     2
176
     1
175
     1
176
     1
 42
40.0
176
     1
 92
        0
176
     1
 66
   257
176
     1
 43
1.0
176
     1
 76
     1
176
     1
 77
     6
176
     1
 78
     2
176
     1
 67
     7
176
     1
 79
     3
176
     1
170
     0
176
     1
171
     0
176
     1
290
     0
176
     1
 93
        1
176
     1
 44
0.0
176
     1
173
     0
176
     1
  0
VISUALSTYLE
  5
30
102
{ACAD_REACTORS
330
2A
102
}
330
2A
100
AcDbVisualStyle
  2
3dWireframe
 70
     5
177
     2
291
     0
 71
     0
176
     1
 72
     2
176
     1
 73
     0
176
     1
 90
        0
176
     1
 40
-0.6
176
     1
 41
-30.0
176
     1
 62
     5
 63
     7
421
 16777215
176
     1
 74
     1
176
     1
 91
        4
176
     1
 64
     7
176
     1
 65
   257
176
     1
 75
     1
176
     1
175
     1
176
     1
 42
1.0
176
     1
 92
        0
176
     1
 66
   257
176
     1
 43
1.0
176
     1
 76
     1
176
     1
 77
     6
176
     1
 78
     2
176
     1
 67
     7
176
     1
 79
     5
176
     1
170
     0
176
     1
171
     0
176
     1
290
     0
176
     1
 93
        1
176
     1
 44
0.0
176
     1
173
     0
176
     1
  0
VISUALSTYLE
  5
32
102
{ACAD_REACTORS
330
2A
102
}
330
2A
100
AcDbVisualStyle
  2
Basic
 70
     7
177
     2
291
     1
 71
     1
176
     1
 72
     0
176
     1
 73
     1
176
     1
 90
        0
176
     1
 40
-0.6
176
     1
 41
-30.0
176
     1
 62
     5
 63
     7
421
 16777215
176
     1
 74
     0
176
     1
 91
        4
176
     1
 64
     7
176
     1
 65
   257
176
     1
 75
     1
176
     1
175
     1
176
     1
 42
1.0
176
     1
 92
        8
176
     1
 66
     7
176
     1
 43
1.0
176
     1
 76
     1
176
     1
 77
     6
176
     1
 78
     2
176
     1
 67
     7
176
     1
 79
     5
176
     1
170
     0
176
     1
171
     0
176
     1
290
     0
176
     1
 93
        1
176
     1
 44
0.0
176
     1
173
     0
176
     1
  0
VISUALSTYLE
  5
36
102
{ACAD_REACTORS
330
2A
102
}
330
2A
100
AcDbVisualStyle
  2
Brighten
 70
    12
177
     2
291
     1
 71
     2
176
     1
 72
     2
176
     1
 73
     0
176
     1
 90
        0
176
     1
 40
-0.6
176
     1
 41
-30.0
176
     1
 62
     5
 63
     7
421
 16777215
176
     1
 74
     1
176
     1
 91
        4
176
     1
 64
     7
176
     1
 65
   257
176
     1
 75
     1
176
     1
175
     1
176
     1
 42
1.0
176
     1
 92
        8
176
     1
 66
     7
176
     1
 43
1.0
176
     1
 76
     1
176
     1
 77
     6
176
     1
 78
     2
176
     1
 67
     7
176
     1
 79
     5
176
     1
170
     0
176
     1
171
     0
176
     1
290
     0
176
     1
 93
        1
176
     1
 44
50.0
176
     1
173
     0
176
     1
  0
VISUALSTYLE
  5
3A
102
{ACAD_REACTORS
330
2A
102
}
330
2A
100
AcDbVisualStyle
  2
ColorChange
 70
    16
177
     2
291
     1
 71
     2
176
     1
 72
     2
176
     1
 73
     3
176
     1
 90
        0
176
     1
 40
-0.6
176
     1
 41
-30.0
176
     1
 62
     5
 63
     8
421
  8421504
176
     1
 74
     1
176
     1
 91
        4
176
     1
 64
     7
176
     1
 65
   257
176
     1
 75
     1
176
     1
175
     1
176
     1
 42
1.0
176
     1
 92
        8
176
     1
 66
     8
424
  8421504
176
     1
 43
1.0
176
     1
 76
     1
176
     1
 77
     6
176
     1
 78
     2
176
     1
 67
     7
176
     1
 79
     5
176
     1
170
     0
176
     1
171
     0
176
     1
290
     0
176
     1
 93
        1
176
     1
 44
0.0
176
     1
173
     0
176
     1
  0
VISUALSTYLE
  5
34
102
{ACAD_REACTORS
330
2A
102
}
330
2A
100
AcDbVisualStyle
  2
Conceptual
 70
     9
177
     2
291
     0
 71
     3
176
     1
 72
     2
176
     1
 73
     0
176
     1
 90
        0
176
     1
 40
-0.6
176
     1
 41
-30.0
176
     1
 62
     5
 63
     7
421
 16777215
176
     1
 74
     2
176
     1
 91
        2
176
     1
 64
     7
176
     1
 65
   257
176
     1
 75
     1
176
     1
175
     1
176
     1
 42
40.0
176
     1
 92
        8
176
     1
 66
     7
176
     1
 43
1.0
176
     1
 76
     1
176
     1
 77
     6
176
     1
 78
     2
176
     1
 67
     7
176
     1
 79
     3
176
     1
170
     0
176
     1
171
     0
176
     1
290
     0
176
     1
 93
        1
176
     1
 44
0.0
176
     1
173
     0
176
     1
  0
VISUALSTYLE
  5
35
102
{ACAD_REACTORS
330
2A
102
}
330
2A
100
AcDbVisualStyle
  2
Dim
 70
    11
177
     2
291
     1
 71
     2
176
     1
 72
     2
176
     1
 73
     0
176
     1
 90
        0
176
     1
 40
-0.6
176
     1
 41
-30.0
176
     1
 62
     5
 63
     7
421
 16777215
176
     1
 74
     1
176
     1
 91
        4
176
     1
 64
     7
176
     1
 65
   257
176
     1
 75
     1
176
     1
175
     1
176
     1
 42
1.0
176
     1
 92
        8
176
     1
 66
     7
176
     1
 43
1.0
176
     1
 76
     1
176
     1
 77
     6
176
     1
 78
     2
176
     1
 67
     7
176
     1
 79
     5
176
     1
170
     0
176
     1
171
     0
176
     1
290
     0
176
     1
 93
        1
176
     1
 44
-50.0
176
     1
173
     0
176
     1
  0
VISUALSTYLE
  5
39
102
{ACAD_REACTORS
330
2A
102
}
330
2A
100
AcDbVisualStyle
  2
Facepattern
 70
    15
177
     2
291
     1
 71
     2
176
     1
 72
     2
176
     1
 73
     0
176
     1
 90
        0
176
     1
 40
-0.6
176
     1
 41
-30.0
176
     1
 62
     5
 63
     7
421
 16777215
176
     1
 74
     1
176
     1
 91
        4
176
     1
 64
     7
176
     1
 65
   257
176
     1
 75
     1
176
     1
175
     1
176
     1
 42
1.0
176
     1
 92
        8
176
     1
 66
     7
176
     1
 43
1.0
176
     1
 76
     1
176
     1
 77
     6
176
     1
 78
     2
176
     1
 67
     7
176
     1
 79
     5
176
     1
170
     0
176
     1
171
     0
176
     1
290
     0
176
     1
 93
        1
176
     1
 44
0.0
176
     1
173
     0
176
     1
  0
VISUALSTYLE
  5
2B
102
{ACAD_REACTORS
330
2A
102
}
330
2A
100
AcDbVisualStyle
  2
Flat
 70
     0
177
     2
291
     1
 71
     2
176
     1
 72
     1
176
     1
 73
     1
176
     1
 90
        2
176
     1
 40
-0.6
176
     1
 41
30.0
176
     1
 62
     5
 63
     7
421
 16777215
176
     1
 74
     0
176
     1
 91
        4
176
     1
 64
     7
176
     1
 65
   257
176
     1
 75
     1
176
     1
175
     1
176
     1
 42
1.0
176
     1
 92
        8
176
     1
 66
     7
176
     1
 43
1.0
176
     1
 76
     1
176
     1
 77
     6
176
     1
 78
     2
176
     1
 67
     7
176
     1
 79
     5
176
     1
170
     0
176
     1
171
     0
176
     1
290
     0
176
     1
 93
       13
176
     1
 44
0.0
176
     1
173
     0
176
     1
  0
VISUALSTYLE
  5
2C
102
{ACAD_REACTORS
330
2A
102
}
330
2A
100
AcDbVisualStyle
  2
FlatWithEdges
 70
     1
177
     2
291
     1
 71
     2
176
     1
 72
     1
176
     1
 73
     1
176
     1
 90
        2
176
     1
 40
-0.6
176
     1
 41
30.0
176
     1
 62
     5
 63
     7
421
 16777215
176
     1
 74
     1
176
     1
 91
        4
176
     1
 64
     7
176
     1
 65
   257
176
     1
 75
     1
176
     1
175
     1
176
     1
 42
1.0
176
     1
 92
        0
176
     1
 66
   257
176
     1
 43
1.0
176
     1
 76
     1
176
     1
 77
     6
176
     1
 78
     2
176
     1
 67
     7
176
     1
 79
     5
176
     1
170
     0
176
     1
171
     0
176
     1
290
     0
176
     1
 93
       13
176
     1
 44
0.0
176
     1
173
     0
176
     1
  0
VISUALSTYLE
  5
2D
102
{ACAD_REACTORS
330
2A
102
}
330
2A
100
AcDbVisualStyle
  2
Gouraud
 70
     2
177
     2
291
     1
 71
     2
176
     1
 72
     2
176
     1
 73
     1
176
     1
 90
        2
176
     1
 40
-0.6
176
     1
 41
30.0
176
     1
 62
     5
 63
     7
421
 16777215
176
     1
 74
     0
176
     1
 91
        4
176
     1
 64
     7
176
     1
 65
   257
176
     1
 75
     1
176
     1
175
     1
176
     1
 42
1.0
176
     1
 92
        0
176
     1
 66
     7
176
     1
 43
1.0
176
     1
 76
     1
176
     1
 77
     6
176
     1
 78
     2
176
     1
 67
     7
176
     1
 79
     5
176
     1
170
     0
176
     1
171
     0
176
     1
290
     0
176
     1
 93
       13
176
     1
 44
0.0
176
     1
173
     0
176
     1
  0
VISUALSTYLE
  5
2E
102
{ACAD_REACTORS
330
2A
102
}
330
2A
100
AcDbVisualStyle
  2
GouraudWithEdges
 70
     3
177
     2
291
     1
 71
     2
176
     1
 72
     2
176
     1
 73
     1
176
     1
 90
        2
176
     1
 40
-0.6
176
     1
 41
30.0
176
     1
 62
     5
 63
     7
421
 16777215
176
     1
 74
     1
176
     1
 91
        4
176
     1
 64
     7
176
     1
 65
   257
176
     1
 75
     1
176
     1
175
     1
176
     1
 42
1.0
176
     1
 92
        0
176
     1
 66
   257
176
     1
 43
1.0
176
     1
 76
     1
176
     1
 77
     6
176
     1
 78
     2
176
     1
 67
     7
176
     1
 79
     5
176
     1
170
     0
176
     1
171
     0
176
     1
290
     0
176
     1
 93
       13
176
     1
 44
0.0
176
     1
173
     0
176
     1
  0
VISUALSTYLE
  5
38
102
{ACAD_REACTORS
330
2A
102
}
330
2A
100
AcDbVisualStyle
  2
Linepattern
 70
    14
177
     2
291
     1
 71
     2
176
     1
 72
     2
176
     1
 73
     0
176
     1
 90
        0
176
     1
 40
-0.6
176
     1
 41
-30.0
176
     1
 62
     5
 63
     7
421
 16777215
176
     1
 74
     1
176
     1
 91
        4
176
     1
 64
     7
176
     1
 65
   257
176
     1
 75
     7
176
     1
175
     7
176
     1
 42
1.0
176
     1
 92
        8
176
     1
 66
     7
176
     1
 43
1.0
176
     1
 76
     1
176
     1
 77
     6
176
     1
 78
     2
176
     1
 67
     7
176
     1
 79
     5
176
     1
170
     0
176
     1
171
     0
176
     1
290
     0
176
     1
 93
        1
176
     1
 44
0.0
176
     1
173
     0
176
     1
  0
VISUALSTYLE
  5
33
102
{ACAD_REACTORS
330
2A
102
}
330
2A
100
AcDbVisualStyle
  2
Realistic
 70
     8
177
     2
291
     0
 71
     2
176
     1
 72
     2
176
     1
 73
     0
176
     1
 90
        0
176
     1
 40
-0.6
176
     1
 41
-30.0
176
     1
 62
     5
 63
     7
421
 16777215
176
     1
 74
     1
176
     1
 91
        0
176
     1
 64
     7
176
     1
 65
   257
176
     1
 75
     1
176
     1
175
     1
176
     1
 42
1.0
176
     1
 92
        8
176
     1
 66
     8
424
  7895160
176
     1
 43
1.0
176
     1
 76
     1
176
     1
 77
     6
176
     1
 78
     2
176
     1
 67
     7
176
     1
 79
     5
176
     1
170
     0
176
     1
171
     0
176
     1
290
     0
176
     1
 93
       13
176
     1
 44
0.0
176
     1
173
     0
176
     1
  0
VISUALSTYLE
  5
37
102
{ACAD_REACTORS
330
2A
102
}
330
2A
100
AcDbVisualStyle
  2
Thicken
 70
    13
177
     2
291
     1
 71
     2
176
     1
 72
     2
176
     1
 73
     0
176
     1
 90
        0
176
     1
 40
-0.6
176
     1
 41
-30.0
176
     1
 62
     5
 63
     7
421
 16777215
176
     1
 74
     1
176
     1
 91
        4
176
     1
 64
     7
176
     1
 65
   257
176
     1
 75
     1
176
     1
175
     1
176
     1
 42
1.0
176
     1
 92
       12
176
     1
 66
     7
176
     1
 43
1.0
176
     1
 76
     1
176
     1
 77
     6
176
     1
 78
     2
176
     1
 67
     7
176
     1
 79
     5
176
     1
170
     0
176
     1
171
     0
176
     1
290
     0
176
     1
 93
        1
176
     1
 44
0.0
176
     1
173
     0
176
     1
  0
ENDSEC
  0
EOF
