  0
SECTION
  2
HEADER
  9
$ACADVER
  1
AC1024
  9
$ACADMAINTVER
 70
     6
  9
$DWGCODEPAGE
  3
ANSI_1252
  9
$INSBASE
 10
0.0
 20
0.0
 30
0.0
  9
$EXTMIN
 10
1.000000000000000E+20
 20
1.000000000000000E+20
 30
1.000000000000000E+20
  9
$EXTMAX
 10
-1.000000000000000E+20
 20
-1.000000000000000E+20
 30
-1.000000000000000E+20
  9
$LIMMIN
 10
0.0
 20
0.0
  9
$LIMMAX
 10
12.0
 20
9.0
  9
$ORTHOMODE
 70
     0
  9
$REGENMODE
 70
     1
  9
$FILLMODE
 70
     1
  9
$QTEXTMODE
 70
     0
  9
$MIRRTEXT
 70
     1
  9
$LTSCALE
 40
1.0
  9
$ATTMODE
 70
     1
  9
$TEXTSIZE
 40
0.2
  9
$TRACEWID
 40
0.05
  9
$TEXTSTYLE
  7
Standard
  9
$CLAYER
  8
0
  9
$CELTYPE
  6
ByLayer
  9
$CECOLOR
 62
   256
  9
$CELTSCALE
 40
1.0
  9
$DISPSILH
 70
     0
  9
$DIMSCALE
 40
1.0
  9
$DIMASZ
 40
0.18
  9
$DIMEXO
 40
0.0625
  9
$DIMDLI
 40
0.38
  9
$DIMRND
 40
0.0
  9
$DIMDLE
 40
0.0
  9
$DIMEXE
 40
0.18
  9
$DIMTP
 40
0.0
  9
$DIMTM
 40
0.0
  9
$DIMTXT
 40
0.18
  9
$DIMCEN
 40
0.09
  9
$DIMTSZ
 40
0.0
  9
$DIMTOL
 70
     0
  9
$DIMLIM
 70
     0
  9
$DIMTIH
 70
     1
  9
$DIMTOH
 70
     1
  9
$DIMSE1
 70
     0
  9
$DIMSE2
 70
     0
  9
$DIMTAD
 70
     0
  9
$DIMZIN
 70
     0
  9
$DIMBLK
  1

  9
$DIMASO
 70
     1
  9
$DIMSHO
 70
     1
  9
$DIMPOST
  1

  9
$DIMAPOST
  1

  9
$DIMALT
 70
     0
  9
$DIMALTD
 70
     2
  9
$DIMALTF
 40
25.4
  9
$DIMLFAC
 40
1.0
  9
$DIMTOFL
 70
     0
  9
$DIMTVP
 40
0.0
  9
$DIMTIX
 70
     0
  9
$DIMSOXD
 70
     0
  9
$DIMSAH
 70
     0
  9
$DIMBLK1
  1

  9
$DIMBLK2
  1

  9
$DIMSTYLE
  2
Standard
  9
$DIMCLRD
 70
     0
  9
$DIMCLRE
 70
     0
  9
$DIMCLRT
 70
     0
  9
$DIMTFAC
 40
1.0
  9
$DIMGAP
 40
0.09
  9
$DIMJUST
 70
     0
  9
$DIMSD1
 70
     0
  9
$DIMSD2
 70
     0
  9
$DIMTOLJ
 70
     1
  9
$DIMTZIN
 70
     0
  9
$DIMALTZ
 70
     0
  9
$DIMALTTZ
 70
     0
  9
$DIMUPT
 70
     0
  9
$DIMDEC
 70
     4
  9
$DIMTDEC
 70
     4
  9
$DIMALTU
 70
     2
  9
$DIMALTTD
 70
     2
  9
$DIMTXSTY
  7
Standard
  9
$DIMAUNIT
 70
     0
  9
$DIMADEC
 70
     0
  9
$DIMALTRND
 40
0.0
  9
$DIMAZIN
 70
     0
  9
$DIMDSEP
 70
    46
  9
$DIMATFIT
 70
     3
  9
$DIMFRAC
 70
     0
  9
$DIMLDRBLK
  1

  9
$DIMLUNIT
 70
     2
  9
$DIMLWD
 70
    -2
  9
$DIMLWE
 70
    -2
  9
$DIMTMOVE
 70
     0
  9
$DIMFXL
 40
1.0
  9
$DIMFXLON
 70
     0
  9
$DIMJOGANG
 40
0.7853981633974483
  9
$DIMTFILL
 70
     0
  9
$DIMTFILLCLR
 70
     0
  9
$DIMARCSYM
 70
     0
  9
$DIMLTYPE
  6

  9
$DIMLTEX1
  6

  9
$DIMLTEX2
  6

  9
$DIMTXTDIRECTION
 70
     0
  9
$LUNITS
 70
     2
  9
$LUPREC
 70
     4
  9
$SKETCHINC
 40
0.1
  9
$FILLETRAD
 40
0.5
  9
$AUNITS
 70
     0
  9
$AUPREC
 70
     0
  9
$MENU
  1
.
  9
$ELEVATION
 40
0.0
  9
$PELEVATION
 40
0.0
  9
$THICKNESS
 40
0.0
  9
$LIMCHECK
 70
     0
  9
$CHAMFERA
 40
0.5
  9
$CHAMFERB
 40
0.5
  9
$CHAMFERC
 40
1.0
  9
$CHAMFERD
 40
0.0
  9
$SKPOLY
 70
     0
  9
$TDCREATE
 40
2459966.593186354
  9
$TDUCREATE
 40
2459966.551519687
  9
$TDUPDATE
 40
2459966.59318669
  9
$TDUUPDATE
 40
2459966.551520023
  9
$TDINDWG
 40
0.0000000116
  9
$TDUSRTIMER
 40
0.0000000116
  9
$USRTIMER
 70
     1
  9
$ANGBASE
 50
0.0
  9
$ANGDIR
 70
     0
  9
$PDMODE
 70
     0
  9
$PDSIZE
 40
0.0
  9
$PLINEWID
 40
0.0
  9
$SPLFRAME
 70
     0
  9
$SPLINETYPE
 70
     6
  9
$SPLINESEGS
 70
     8
  9
$HANDSEED
  5
16D
  9
$SURFTAB1
 70
     6
  9
$SURFTAB2
 70
     6
  9
$SURFTYPE
 70
     6
  9
$SURFU
 70
     6
  9
$SURFV
 70
     6
  9
$UCSBASE
  2

  9
$UCSNAME
  2

  9
$UCSORG
 10
0.0
 20
0.0
 30
0.0
  9
$UCSXDIR
 10
1.0
 20
0.0
 30
0.0
  9
$UCSYDIR
 10
0.0
 20
1.0
 30
0.0
  9
$UCSORTHOREF
  2

  9
$UCSORTHOVIEW
 70
     0
  9
$UCSORGTOP
 10
0.0
 20
0.0
 30
0.0
  9
$UCSORGBOTTOM
 10
0.0
 20
0.0
 30
0.0
  9
$UCSORGLEFT
 10
0.0
 20
0.0
 30
0.0
  9
$UCSORGRIGHT
 10
0.0
 20
0.0
 30
0.0
  9
$UCSORGFRONT
 10
0.0
 20
0.0
 30
0.0
  9
$UCSORGBACK
 10
0.0
 20
0.0
 30
0.0
  9
$PUCSBASE
  2

  9
$PUCSNAME
  2

  9
$PUCSORG
 10
0.0
 20
0.0
 30
0.0
  9
$PUCSXDIR
 10
1.0
 20
0.0
 30
0.0
  9
$PUCSYDIR
 10
0.0
 20
1.0
 30
0.0
  9
$PUCSORTHOREF
  2

  9
$PUCSORTHOVIEW
 70
     0
  9
$PUCSORGTOP
 10
0.0
 20
0.0
 30
0.0
  9
$PUCSORGBOTTOM
 10
0.0
 20
0.0
 30
0.0
  9
$PUCSORGLEFT
 10
0.0
 20
0.0
 30
0.0
  9
$PUCSORGRIGHT
 10
0.0
 20
0.0
 30
0.0
  9
$PUCSORGFRONT
 10
0.0
 20
0.0
 30
0.0
  9
$PUCSORGBACK
 10
0.0
 20
0.0
 30
0.0
  9
$USERI1
 70
     0
  9
$USERI2
 70
     0
  9
$USERI3
 70
     0
  9
$USERI4
 70
     0
  9
$USERI5
 70
     0
  9
$USERR1
 40
0.0
  9
$USERR2
 40
0.0
  9
$USERR3
 40
0.0
  9
$USERR4
 40
0.0
  9
$USERR5
 40
0.0
  9
$WORLDVIEW
 70
     1
  9
$SHADEDGE
 70
     3
  9
$SHADEDIF
 70
    70
  9
$TILEMODE
 70
     1
  9
$MAXACTVP
 70
    64
  9
$PINSBASE
 10
0.0
 20
0.0
 30
0.0
  9
$PLIMCHECK
 70
     0
  9
$PEXTMIN
 10
1.000000000000000E+20
 20
1.000000000000000E+20
 30
1.000000000000000E+20
  9
$PEXTMAX
 10
-1.000000000000000E+20
 20
-1.000000000000000E+20
 30
-1.000000000000000E+20
  9
$PLIMMIN
 10
0.0
 20
0.0
  9
$PLIMMAX
 10
12.0
 20
9.0
  9
$UNITMODE
 70
     0
  9
$VISRETAIN
 70
     1
  9
$PLINEGEN
 70
     0
  9
$PSLTSCALE
 70
     1
  9
$TREEDEPTH
 70
  3020
  9
$CMLSTYLE
  2
Standard
  9
$CMLJUST
 70
     0
  9
$CMLSCALE
 40
1.0
  9
$PROXYGRAPHICS
 70
     1
  9
$MEASUREMENT
 70
     0
  9
$CELWEIGHT
370
    -1
  9
$ENDCAPS
280
     0
  9
$JOINSTYLE
280
     0
  9
$LWDISPLAY
290
     1
  9
$INSUNITS
 70
     1
  9
$HYPERLINKBASE
  1

  9
$STYLESHEET
  1

  9
$XEDIT
290
     1
  9
$CEPSNTYPE
380
     0
  9
$PSTYLEMODE
290
     1
  9
$FINGERPRINTGUID
  2
{DD721542-C1DF-4A95-9536-6937789AB72D}
  9
$VERSIONGUID
  2
{FAEB1C32-E019-11D5-929B-00C0DF256EC4}
  9
$EXTNAMES
290
     1
  9
$PSVPSCALE
 40
0.0
  9
$OLESTARTUP
290
     0
  9
$SORTENTS
280
   127
  9
$INDEXCTL
280
     0
  9
$HIDETEXT
280
     1
  9
$XCLIPFRAME
280
     2
  9
$HALOGAP
280
     0
  9
$OBSCOLOR
 70
   257
  9
$OBSLTYPE
280
     0
  9
$INTERSECTIONDISPLAY
280
     0
  9
$INTERSECTIONCOLOR
 70
   257
  9
$DIMASSOC
280
     2
  9
$PROJECTNAME
  1

  9
$CAMERADISPLAY
290
     0
  9
$LENSLENGTH
 40
50.0
  9
$CAMERAHEIGHT
 40
0.0
  9
$STEPSPERSEC
 40
2.0
  9
$STEPSIZE
 40
6.0
  9
$3DDWFPREC
 40
2.0
  9
$PSOLWIDTH
 40
0.25
  9
$PSOLHEIGHT
 40
4.0
  9
$LOFTANG1
 40
1.570796326794897
  9
$LOFTANG2
 40
1.570796326794897
  9
$LOFTMAG1
 40
0.0
  9
$LOFTMAG2
 40
0.0
  9
$LOFTPARAM
 70
     7
  9
$LOFTNORMALS
280
     1
  9
$LATITUDE
 40
37.795
  9
$LONGITUDE
 40
-122.394
  9
$NORTHDIRECTION
 40
0.0
  9
$TIMEZONE
 70
 -8000
  9
$LIGHTGLYPHDISPLAY
280
     1
  9
$TILEMODELIGHTSYNCH
280
     1
  9
$CMATERIAL
347
3C
  9
$SOLIDHIST
280
     1
  9
$SHOWHIST
280
     1
  9
$DWFFRAME
280
     2
  9
$DGNFRAME
280
     2
  9
$REALWORLDSCALE
290
     1
  9
$INTERFERECOLOR
 62
   256
  9
$CSHADOW
280
     0
  9
$SHADOWPLANELOCATION
 40
0.0
  0
ENDSEC
  0
SECTION
  2
CLASSES
  0
CLASS
  1
ACDBDICTIONARYWDFLT
  2
AcDbDictionaryWithDefault
  3
ObjectDBX Classes
 90
        0
 91
        4
280
     0
281
     0
  0
CLASS
  1
VISUALSTYLE
  2
AcDbVisualStyle
  3
ObjectDBX Classes
 90
     4095
 91
        4
280
     0
281
     0
  0
CLASS
  1
MATERIAL
  2
AcDbMaterial
  3
ObjectDBX Classes
 90
     1153
 91
        4
280
     0
281
     0
  0
CLASS
  1
SUN
  2
AcDbSun
  3
SCENEOE
 90
     1024
 91
        4
280
     0
281
     0
  0
ENDSEC
  0
SECTION
  2
TABLES
  0
TABLE
  2
VPORT
  5
8
330
0
100
AcDbSymbolTable
 70
     1
  0
VPORT
  5
29
330
8
100
AcDbSymbolTableRecord
100
AcDbViewportTableRecord
  2
*Active
 70
     0
 10
0.0
 20
0.0
 11
1.0
 21
1.0
 12
0.0
 22
0.0
 13
0.0
 23
0.0
 14
0.5
 24
0.5
 15
0.5
 25
0.5
 16
0.0
 26
0.0
 36
1.0
 17
10.99961110836131
 27
-10.99961110836131
 37
0.0
 40
21.99922221672262
 41
1.0
 42
50.0
 43
0.0
 44
0.0
 50
0.0
 51
0.0
 71
     0
 72
   100
 73
     1
 74
     3
 75
     0
 76
     0
 77
     0
 78
     0
281
     0
 65
     1
110
0.0
120
0.0
130
0.0
111
1.0
121
0.0
131
0.0
112
0.0
122
1.0
132
0.0
 79
     0
146
0.0
 60
     3
 61
     5
292
     1
282
     1
141
0.0
142
0.0
 63
   250
361
3F
  0
ENDTAB
  0
TABLE
  2
LTYPE
  5
5
330
0
100
AcDbSymbolTable
 70
     1
  0
LTYPE
  5
14
330
5
100
AcDbSymbolTableRecord
100
AcDbLinetypeTableRecord
  2
ByBlock
 70
     0
  3

 72
    65
 73
     0
 40
0.0
  0
LTYPE
  5
15
330
5
100
AcDbSymbolTableRecord
100
AcDbLinetypeTableRecord
  2
ByLayer
 70
     0
  3

 72
    65
 73
     0
 40
0.0
  0
LTYPE
  5
16
330
5
100
AcDbSymbolTableRecord
100
AcDbLinetypeTableRecord
  2
Continuous
 70
     0
  3
Solid line
 72
    65
 73
     0
 40
0.0
  0
ENDTAB
  0
TABLE
  2
LAYER
  5
2
330
0
100
AcDbSymbolTable
 70
     5
  0
LAYER
  5
10
330
2
100
AcDbSymbolTableRecord
100
AcDbLayerTableRecord
  2
0
 70
     0
 62
     7
  6
Continuous
370
    -3
390
F
347
3E
  0
LAYER
  5
40
330
2
100
AcDbSymbolTableRecord
100
AcDbLayerTableRecord
  2
Big Ridges
 70
     5
 62
     7
  6
Continuous
370
    -3
390
F
347
3E
  0
LAYER
  5
41
330
2
100
AcDbSymbolTableRecord
100
AcDbLayerTableRecord
  2
Small Ridges
 70
     0
 62
     7
  6
Continuous
370
    -3
390
F
347
3E
  0
LAYER
  5
70
330
2
100
AcDbSymbolTableRecord
100
AcDbLayerTableRecord
  2
Numbers
 70
     0
 62
     7
  6
Continuous
370
    -3
390
F
347
3E
  0
LAYER
  5
16A
330
2
100
AcDbSymbolTableRecord
100
AcDbLayerTableRecord
  2
Icons
 70
     0
 62
     7
  6
Continuous
370
    -3
390
F
347
3E
  0
ENDTAB
  0
TABLE
  2
STYLE
  5
3
330
0
100
AcDbSymbolTable
 70
     1
  0
STYLE
  5
11
330
3
100
AcDbSymbolTableRecord
100
AcDbTextStyleTableRecord
  2
Standard
 70
     0
 40
0.0
 41
1.0
 50
0.0
 71
     0
 42
0.2
  3
txt
  4

  0
ENDTAB
  0
TABLE
  2
VIEW
  5
6
330
0
100
AcDbSymbolTable
 70
     0
  0
ENDTAB
  0
TABLE
  2
UCS
  5
7
330
0
100
AcDbSymbolTable
 70
     0
  0
ENDTAB
  0
TABLE
  2
APPID
  5
9
330
0
100
AcDbSymbolTable
 70
     1
  0
APPID
  5
12
330
9
100
AcDbSymbolTableRecord
100
AcDbRegAppTableRecord
  2
ACAD
 70
     0
  0
ENDTAB
  0
TABLE
  2
DIMSTYLE
  5
A
330
0
100
AcDbSymbolTable
 70
     1
100
AcDbDimStyleTable
  0
DIMSTYLE
105
27
330
A
100
AcDbSymbolTableRecord
100
AcDbDimStyleTableRecord
  2
Standard
 70
     0
178
     0
340
11
  0
ENDTAB
  0
TABLE
  2
BLOCK_RECORD
  5
1
330
0
100
AcDbSymbolTable
 70
    13
  0
BLOCK_RECORD
  5
1F
330
1
100
AcDbSymbolTableRecord
100
AcDbBlockTableRecord
  2
*Model_Space
340
22
 70
     0
280
     1
281
     0
  0
BLOCK_RECORD
  5
1B
330
1
100
AcDbSymbolTableRecord
100
AcDbBlockTableRecord
  2
*Paper_Space
340
1E
 70
     0
280
     1
281
     0
  0
BLOCK_RECORD
  5
23
330
1
100
AcDbSymbolTableRecord
100
AcDbBlockTableRecord
  2
*Paper_Space0
340
26
 70
     0
280
     1
281
     0
  0
BLOCK_RECORD
  5
43
330
1
100
AcDbSymbolTableRecord
100
AcDbBlockTableRecord
  2
block 2
340
0
102
{BLKREFS
331
44
102
}
 70
     0
280
     1
281
     0
  0
BLOCK_RECORD
  5
71
330
1
100
AcDbSymbolTableRecord
100
AcDbBlockTableRecord
  2
block 3
340
0
102
{BLKREFS
331
72
102
}
 70
     0
280
     1
281
     0
  0
BLOCK_RECORD
  5
75
330
1
100
AcDbSymbolTableRecord
100
AcDbBlockTableRecord
  2
block 4
340
0
102
{BLKREFS
331
76
102
}
 70
     0
280
     1
281
     0
  0
BLOCK_RECORD
  5
8A
330
1
100
AcDbSymbolTableRecord
100
AcDbBlockTableRecord
  2
block 5
340
0
102
{BLKREFS
331
8B
102
}
 70
     0
280
     1
281
     0
  0
BLOCK_RECORD
  5
9F
330
1
100
AcDbSymbolTableRecord
100
AcDbBlockTableRecord
  2
block 6
340
0
102
{BLKREFS
331
A0
102
}
 70
     0
280
     1
281
     0
  0
BLOCK_RECORD
  5
B5
330
1
100
AcDbSymbolTableRecord
100
AcDbBlockTableRecord
  2
block 7
340
0
102
{BLKREFS
331
B6
102
}
 70
     0
280
     1
281
     0
  0
BLOCK_RECORD
  5
D2
330
1
100
AcDbSymbolTableRecord
100
AcDbBlockTableRecord
  2
block 8
340
0
102
{BLKREFS
331
D3
102
}
 70
     0
280
     1
281
     0
  0
BLOCK_RECORD
  5
E7
330
1
100
AcDbSymbolTableRecord
100
AcDbBlockTableRecord
  2
block 9
340
0
102
{BLKREFS
331
E8
102
}
 70
     0
280
     1
281
     0
  0
BLOCK_RECORD
  5
FB
330
1
100
AcDbSymbolTableRecord
100
AcDbBlockTableRecord
  2
block 10
340
0
102
{BLKREFS
331
FC
102
}
 70
     0
280
     1
281
     0
  0
BLOCK_RECORD
  5
122
330
1
100
AcDbSymbolTableRecord
100
AcDbBlockTableRecord
  2
block 11
340
0
102
{BLKREFS
331
123
102
}
 70
     0
280
     1
281
     0
  0
BLOCK_RECORD
  5
136
330
1
100
AcDbSymbolTableRecord
100
AcDbBlockTableRecord
  2
block 12
340
0
102
{BLKREFS
331
137
102
}
 70
     0
280
     1
281
     0
  0
BLOCK_RECORD
  5
14A
330
1
100
AcDbSymbolTableRecord
100
AcDbBlockTableRecord
  2
block 13
340
0
102
{BLKREFS
331
14B
102
}
 70
     0
280
     1
281
     0
  0
ENDTAB
  0
ENDSEC
  0
SECTION
  2
BLOCKS
  0
BLOCK
  5
20
330
1F
100
AcDbEntity
  8
0
100
AcDbBlockBegin
  2
*Model_Space
 70
     0
 10
0.0
 20
0.0
 30
0.0
  3
*Model_Space
  1

  0
ENDBLK
  5
21
330
1F
100
AcDbEntity
  8
0
100
AcDbBlockEnd
  0
BLOCK
  5
1C
330
1B
100
AcDbEntity
 67
     1
  8
0
100
AcDbBlockBegin
  2
*Paper_Space
 70
     0
 10
0.0
 20
0.0
 30
0.0
  3
*Paper_Space
  1

  0
ENDBLK
  5
1D
330
1B
100
AcDbEntity
 67
     1
  8
0
100
AcDbBlockEnd
  0
BLOCK
  5
24
330
23
100
AcDbEntity
  8
0
100
AcDbBlockBegin
  2
*Paper_Space0
 70
     0
 10
0.0
 20
0.0
 30
0.0
  3
*Paper_Space0
  1

  0
ENDBLK
  5
25
330
23
100
AcDbEntity
  8
0
100
AcDbBlockEnd
  0
BLOCK
  5
45
330
43
100
AcDbEntity
  8
0
100
AcDbBlockBegin
  2
block 2
 70
     0
 10
0.0
 20
0.0
 30
0.0
  3
block 2
  1

  0
POLYLINE
  5
47
330
43
100
AcDbEntity
  8
Small Ridges
 62
   250
420
  2301728
370
     9
100
AcDb2dPolyline
 66
     1
 10
0.0
 20
0.0
 30
0.0
  0
VERTEX
  5
48
330
47
100
AcDbEntity
  8
Small Ridges
 62
   250
420
  2301728
370
     9
100
AcDbVertex
100
AcDb2dVertex
 10
13.93119444096157
 20
-2.039055555045702
 30
0.0
  0
VERTEX
  5
49
330
47
100
AcDbEntity
  8
Small Ridges
 62
   250
420
  2301728
370
     9
100
AcDbVertex
100
AcDb2dVertex
 10
12.0861666636452
 20
-7.672916664748437
 30
0.0
  0
SEQEND
  5
4A
330
47
100
AcDbEntity
  8
Small Ridges
 62
   250
420
  2301728
370
     9
  0
POLYLINE
  5
4B
330
43
100
AcDbEntity
  8
Small Ridges
 62
   250
420
  2301728
370
     9
100
AcDb2dPolyline
 66
     1
 10
0.0
 20
0.0
 30
0.0
  0
VERTEX
  5
4C
330
4B
100
AcDbEntity
  8
Small Ridges
 62
   250
420
  2301728
370
     9
100
AcDbVertex
100
AcDb2dVertex
 10
9.923638886408018
 20
-7.669388886971465
 30
0.0
  0
VERTEX
  5
4D
330
4B
100
AcDbEntity
  8
Small Ridges
 62
   250
420
  2301728
370
     9
100
AcDbVertex
100
AcDb2dVertex
 10
8.10330555352982
 20
-2.028472221715104
 30
0.0
  0
SEQEND
  5
4E
330
4B
100
AcDbEntity
  8
Small Ridges
 62
   250
420
  2301728
370
     9
  0
POLYLINE
  5
4F
330
43
100
AcDbEntity
  8
Small Ridges
 62
   250
420
  2301728
370
     9
100
AcDb2dPolyline
 66
     1
 10
0.0
 20
0.0
 30
0.0
  0
VERTEX
  5
50
330
4F
100
AcDbEntity
  8
Small Ridges
 62
   250
420
  2301728
370
     9
100
AcDbVertex
100
AcDb2dVertex
 10
8.173861109067673
 20
-8.939388886654093
 30
0.0
  0
VERTEX
  5
51
330
4F
100
AcDbEntity
  8
Small Ridges
 62
   250
420
  2301728
370
     9
100
AcDbVertex
100
AcDb2dVertex
 10
3.383138888043156
 20
-5.443361109750374
 30
0.0
  0
SEQEND
  5
52
330
4F
100
AcDbEntity
  8
Small Ridges
 62
   250
420
  2301728
370
     9
  0
POLYLINE
  5
53
330
43
100
AcDbEntity
  8
Small Ridges
 62
   250
420
  2301728
370
     9
100
AcDb2dPolyline
 66
     1
 10
0.0
 20
0.0
 30
0.0
  0
VERTEX
  5
54
330
53
100
AcDbEntity
  8
Small Ridges
 62
   250
420
  2301728
370
     9
100
AcDbVertex
100
AcDb2dVertex
 10
7.500055553680619
 20
-10.99255555280737
 30
0.0
  0
VERTEX
  5
55
330
53
100
AcDbEntity
  8
Small Ridges
 62
   250
420
  2301728
370
     9
100
AcDbVertex
100
AcDb2dVertex
 10
1.573388888495554
 20
-10.98197221947677
 30
0.0
  0
SEQEND
  5
56
330
53
100
AcDbEntity
  8
Small Ridges
 62
   250
420
  2301728
370
     9
  0
POLYLINE
  5
57
330
43
100
AcDbEntity
  8
Small Ridges
 62
   250
420
  2301728
370
     9
100
AcDb2dPolyline
 66
     1
 10
0.0
 20
0.0
 30
0.0
  0
VERTEX
  5
58
330
57
100
AcDbEntity
  8
Small Ridges
 62
   250
420
  2301728
370
     9
100
AcDbVertex
100
AcDb2dVertex
 10
8.166805553514047
 20
-13.04924999673761
 30
0.0
  0
VERTEX
  5
59
330
57
100
AcDbEntity
  8
Small Ridges
 62
   250
420
  2301728
370
     9
100
AcDbVertex
100
AcDb2dVertex
 10
3.361972221381639
 20
-16.52411110698014
 30
0.0
  0
SEQEND
  5
5A
330
57
100
AcDbEntity
  8
Small Ridges
 62
   250
420
  2301728
370
     9
  0
POLYLINE
  5
5B
330
43
100
AcDbEntity
  8
Small Ridges
 62
   250
420
  2301728
370
     9
100
AcDb2dPolyline
 66
     1
 10
0.0
 20
0.0
 30
0.0
  0
VERTEX
  5
5C
330
5B
100
AcDbEntity
  8
Small Ridges
 62
   250
420
  2301728
370
     9
100
AcDbVertex
100
AcDb2dVertex
 10
9.91305555307742
 20
-14.32630555197419
 30
0.0
  0
VERTEX
  5
5D
330
5B
100
AcDbEntity
  8
Small Ridges
 62
   250
420
  2301728
370
     9
100
AcDbVertex
100
AcDb2dVertex
 10
8.068027775760733
 20
-19.9601666616766
 30
0.0
  0
SEQEND
  5
5E
330
5B
100
AcDbEntity
  8
Small Ridges
 62
   250
420
  2301728
370
     9
  0
POLYLINE
  5
5F
330
43
100
AcDbEntity
  8
Small Ridges
 62
   250
420
  2301728
370
     9
100
AcDb2dPolyline
 66
     1
 10
0.0
 20
0.0
 30
0.0
  0
VERTEX
  5
60
330
5F
100
AcDbEntity
  8
Small Ridges
 62
   250
420
  2301728
370
     9
100
AcDbVertex
100
AcDb2dVertex
 10
13.89591666319248
 20
-19.97074999500752
 30
0.0
  0
VERTEX
  5
61
330
5F
100
AcDbEntity
  8
Small Ridges
 62
   250
420
  2301728
370
     9
100
AcDbVertex
100
AcDb2dVertex
 10
12.07558333031428
 20
-14.32983332975116
 30
0.0
  0
SEQEND
  5
62
330
5F
100
AcDbEntity
  8
Small Ridges
 62
   250
420
  2301728
370
     9
  0
POLYLINE
  5
63
330
43
100
AcDbEntity
  8
Small Ridges
 62
   250
420
  2301728
370
     9
100
AcDb2dPolyline
 66
     1
 10
0.0
 20
0.0
 30
0.0
  0
VERTEX
  5
64
330
63
100
AcDbEntity
  8
Small Ridges
 62
   250
420
  2301728
370
     9
100
AcDbVertex
100
AcDb2dVertex
 10
18.61608332867947
 20
-16.55586110697225
 30
0.0
  0
VERTEX
  5
65
330
63
100
AcDbEntity
  8
Small Ridges
 62
   250
420
  2301728
370
     9
100
AcDbVertex
100
AcDb2dVertex
 10
13.82536110765495
 20
-13.05983333006853
 30
0.0
  0
SEQEND
  5
66
330
63
100
AcDbEntity
  8
Small Ridges
 62
   250
420
  2301728
370
     9
  0
POLYLINE
  5
67
330
43
100
AcDbEntity
  8
Small Ridges
 62
   250
420
  2301728
370
     9
100
AcDb2dPolyline
 66
     1
 10
0.0
 20
0.0
 30
0.0
  0
VERTEX
  5
68
330
67
100
AcDbEntity
  8
Small Ridges
 62
   250
420
  2301728
370
     9
100
AcDbVertex
100
AcDb2dVertex
 10
20.42583332822675
 20
-11.01724999724586
 30
0.0
  0
VERTEX
  5
69
330
67
100
AcDbEntity
  8
Small Ridges
 62
   250
420
  2301728
370
     9
100
AcDbVertex
100
AcDb2dVertex
 10
14.499166663042
 20
-11.00666666391494
 30
0.0
  0
SEQEND
  5
6A
330
67
100
AcDbEntity
  8
Small Ridges
 62
   250
420
  2301728
370
     9
  0
POLYLINE
  5
6B
330
43
100
AcDbEntity
  8
Small Ridges
 62
   250
420
  2301728
370
     9
100
AcDb2dPolyline
 66
     1
 10
0.0
 20
0.0
 30
0.0
  0
VERTEX
  5
6C
330
6B
100
AcDbEntity
  8
Small Ridges
 62
   250
420
  2301728
370
     9
100
AcDbVertex
100
AcDb2dVertex
 10
18.63724999534066
 20
-5.475111109742487
 30
0.0
  0
VERTEX
  5
6D
330
6B
100
AcDbEntity
  8
Small Ridges
 62
   250
420
  2301728
370
     9
100
AcDbVertex
100
AcDb2dVertex
 10
13.8324166632089
 20
-8.94997221998469
 30
0.0
  0
SEQEND
  5
6E
330
6B
100
AcDbEntity
  8
Small Ridges
 62
   250
420
  2301728
370
     9
  0
SPLINE
  5
6F
330
43
100
AcDbEntity
  8
Small Ridges
 62
   250
420
  2301728
370
     9
100
AcDbSpline
210
0.0
220
0.0
230
1.0
 70
    11
 71
     3
 72
    41
 73
    37
 74
     0
 42
0.0000000001
 43
0.0000000001
 12
1.0
 22
0.0
 32
0.0
 13
1.0
 23
0.0
 33
0.0
 40
0.0
 40
0.0
 40
0.0
 40
0.0
 40
1.0
 40
1.0
 40
1.0
 40
2.0
 40
2.0
 40
2.0
 40
3.0
 40
3.0
 40
3.0
 40
4.0
 40
4.0
 40
4.0
 40
5.0
 40
5.0
 40
5.0
 40
6.0
 40
6.0
 40
6.0
 40
7.0
 40
7.0
 40
7.0
 40
8.0
 40
8.0
 40
8.0
 40
9.0
 40
9.0
 40
9.0
 40
10.0
 40
10.0
 40
10.0
 40
11.0
 40
11.0
 40
11.0
 40
12.0
 40
12.0
 40
12.0
 40
12.0
 10
14.49915805030316
 20
-11.00667097028436
 30
0.0
 10
14.49915805030316
 20
-11.36295843899954
 30
0.0
 10
14.44272307988541
 20
-11.72986110817865
 30
0.0
 10
14.32630038433075
 20
-12.08617010874061
 30
0.0
 10
14.20989922062287
 20
-12.44598880032817
 30
0.0
 10
14.04055124567606
 20
-12.77055985873227
 30
0.0
 10
13.82536196892864
 20
-13.05981868841256
 30
0.0
 10
13.39145219256143
 20
-13.66307643972659
 30
0.0
 10
12.77055985873227
 20
-14.10404866183857
 30
0.0
 10
12.07557644012347
 20
-14.32983160720313
 30
0.0
 10
11.39471791300419
 20
-14.54855210682293
 30
0.0
 10
10.64329952397763
 20
-14.56618668933806
 30
0.0
 10
9.913046940338578
 20
-14.32630038433075
 30
0.0
 10
9.17928466567393
 20
-14.08641407932345
 30
0.0
 10
8.583089360104662
 20
-13.62780727469635
 30
0.0
 10
8.166814166252568
 20
-13.0492465516422
 30
0.0
 10
7.736414080910949
 20
-12.45658246894532
 30
0.0
 10
7.496527775903647
 20
-11.73690202207663
 30
0.0
 10
7.500058998776027
 20
-10.99254607879483
 30
0.0
 10
7.500058998776027
 20
-10.63623707823287
 30
0.0
 10
7.556493969193776
 20
-10.26935594090054
 30
0.0
 10
7.672916664748437
 20
-9.913046940338578
 30
0.0
 10
7.789339360303099
 20
-9.553206716904233
 30
0.0
 10
7.958665803403129
 20
-9.228657190346915
 30
0.0
 10
8.173855080150547
 20
-8.939376828819844
 30
0.0
 10
8.607786388364547
 20
-8.336140609352597
 30
0.0
 10
9.228657190346915
 20
-7.895168387240618
 30
0.0
 10
9.923640608955722
 20
-7.669385441876057
 30
0.0
 10
10.604499136075
 20
-7.450664942256258
 30
0.0
 10
11.35591752510156
 20
-7.433030359741135
 30
0.0
 10
12.08617010874061
 20
-7.672916664748437
 30
0.0
 10
12.81995391525204
 20
-7.912802969755741
 30
0.0
 10
13.41614922082131
 20
-8.371409774382842
 30
0.0
 10
13.8324244146734
 20
-8.949970497436986
 30
0.0
 10
14.26280296816824
 20
-9.542634580133873
 30
0.0
 10
14.50268927317554
 20
-10.26229349515578
 30
0.0
 10
14.49915805030316
 20
-11.00667097028436
 30
0.0
  0
ENDBLK
  5
46
330
43
100
AcDbEntity
  8
0
100
AcDbBlockEnd
  0
BLOCK
  5
73
330
71
100
AcDbEntity
  8
0
100
AcDbBlockBegin
  2
block 3
 70
     0
 10
0.0
 20
0.0
 30
0.0
  3
block 3
  1

  0
INSERT
  5
76
330
71
100
AcDbEntity
  8
Numbers
100
AcDbBlockReference
  2
block 4
 10
0.0
 20
0.0
 30
0.0
  0
INSERT
  5
8B
330
71
100
AcDbEntity
  8
Numbers
100
AcDbBlockReference
  2
block 5
 10
0.0
 20
0.0
 30
0.0
  0
INSERT
  5
A0
330
71
100
AcDbEntity
  8
Numbers
100
AcDbBlockReference
  2
block 6
 10
0.0
 20
0.0
 30
0.0
  0
INSERT
  5
B6
330
71
100
AcDbEntity
  8
Numbers
100
AcDbBlockReference
  2
block 7
 10
0.0
 20
0.0
 30
0.0
  0
INSERT
  5
D3
330
71
100
AcDbEntity
  8
Numbers
100
AcDbBlockReference
  2
block 8
 10
0.0
 20
0.0
 30
0.0
  0
INSERT
  5
E8
330
71
100
AcDbEntity
  8
Numbers
100
AcDbBlockReference
  2
block 9
 10
0.0
 20
0.0
 30
0.0
  0
INSERT
  5
FC
330
71
100
AcDbEntity
  8
Numbers
100
AcDbBlockReference
  2
block 10
 10
0.0
 20
0.0
 30
0.0
  0
INSERT
  5
123
330
71
100
AcDbEntity
  8
Numbers
100
AcDbBlockReference
  2
block 11
 10
0.0
 20
0.0
 30
0.0
  0
INSERT
  5
137
330
71
100
AcDbEntity
  8
Numbers
100
AcDbBlockReference
  2
block 12
 10
0.0
 20
0.0
 30
0.0
  0
INSERT
  5
14B
330
71
100
AcDbEntity
  8
Numbers
100
AcDbBlockReference
  2
block 13
 10
0.0
 20
0.0
 30
0.0
  0
ENDBLK
  5
74
330
71
100
AcDbEntity
  8
0
100
AcDbBlockEnd
  0
BLOCK
  5
77
330
75
100
AcDbEntity
  8
0
100
AcDbBlockBegin
  2
block 4
 70
     0
 10
0.0
 20
0.0
 30
0.0
  3
block 4
  1

  0
POLYLINE
  5
79
330
75
100
AcDbEntity
  8
Numbers
370
     0
100
AcDb2dPolyline
 66
     1
 10
0.0
 20
0.0
 30
0.0
  0
VERTEX
  5
7A
330
79
100
AcDbEntity
  8
Numbers
370
     0
100
AcDbVertex
100
AcDb2dVertex
 10
10.43640000824159
 20
-2.428275552778348
 30
0.0
  0
VERTEX
  5
7B
330
79
100
AcDbEntity
  8
Numbers
370
     0
100
AcDbVertex
100
AcDb2dVertex
 10
10.43640000824159
 20
-5.184696450526743
 30
0.0
  0
VERTEX
  5
7C
330
79
100
AcDbEntity
  8
Numbers
370
     0
100
AcDbVertex
100
AcDb2dVertex
 10
10.87048203938307
 20
-5.184696450526743
 30
0.0
  0
VERTEX
  5
7D
330
79
100
AcDbEntity
  8
Numbers
370
     0
100
AcDbVertex
100
AcDb2dVertex
 10
10.87048203938307
 20
-5.479252114515604
 30
0.0
  0
VERTEX
  5
7E
330
79
100
AcDbEntity
  8
Numbers
370
     0
100
AcDbVertex
100
AcDb2dVertex
 10
9.700183103043704
 20
-5.479252114515604
 30
0.0
  0
VERTEX
  5
7F
330
79
100
AcDbEntity
  8
Numbers
370
     0
100
AcDbVertex
100
AcDb2dVertex
 10
9.700183103043704
 20
-5.184696450526743
 30
0.0
  0
VERTEX
  5
80
330
79
100
AcDbEntity
  8
Numbers
370
     0
100
AcDbVertex
100
AcDb2dVertex
 10
10.13598768192781
 20
-5.184696450526743
 30
0.0
  0
VERTEX
  5
81
330
79
100
AcDbEntity
  8
Numbers
370
     0
100
AcDbVertex
100
AcDb2dVertex
 10
10.13598768192781
 20
-2.722831216767209
 30
0.0
  0
VERTEX
  5
82
330
79
100
AcDbEntity
  8
Numbers
370
     0
100
AcDbVertex
100
AcDb2dVertex
 10
9.700183103043704
 20
-2.722831216767209
 30
0.0
  0
VERTEX
  5
83
330
79
100
AcDbEntity
  8
Numbers
370
     0
100
AcDbVertex
100
AcDb2dVertex
 10
9.700183103043704
 20
-2.428275552778348
 30
0.0
  0
VERTEX
  5
84
330
79
100
AcDbEntity
  8
Numbers
370
     0
100
AcDbVertex
100
AcDb2dVertex
 10
10.43640000824159
 20
-2.428275552778348
 30
0.0
  0
SEQEND
  5
85
330
79
100
AcDbEntity
  8
Numbers
370
     0
  0
HATCH
  5
86
330
75
100
AcDbEntity
  8
Numbers
 62
   250
420
  2301728
100
AcDbHatch
 10
0.0
 20
0.0
 30
0.0
210
0.0
220
0.0
230
1.0
  2
SOLID
 70
     1
 71
     0
 91
        1
 92
        1
 93
       10
 72
     1
 10
10.43640000824159
 20
-2.428275552778348
 11
10.43640000824159
 21
-5.184696450526743
 72
     1
 10
10.43640000824159
 20
-5.184696450526743
 11
10.87048203938307
 21
-5.184696450526743
 72
     1
 10
10.87048203938307
 20
-5.184696450526743
 11
10.87048203938307
 21
-5.479252114515604
 72
     1
 10
10.87048203938307
 20
-5.479252114515604
 11
9.700183103043704
 21
-5.479252114515604
 72
     1
 10
9.700183103043704
 20
-5.479252114515604
 11
9.700183103043704
 21
-5.184696450526743
 72
     1
 10
9.700183103043704
 20
-5.184696450526743
 11
10.13598768192781
 21
-5.184696450526743
 72
     1
 10
10.13598768192781
 20
-5.184696450526743
 11
10.13598768192781
 21
-2.722831216767209
 72
     1
 10
10.13598768192781
 20
-2.722831216767209
 11
9.700183103043704
 21
-2.722831216767209
 72
     1
 10
9.700183103043704
 20
-2.722831216767209
 11
9.700183103043704
 21
-2.428275552778348
 72
     1
 10
9.700183103043704
 20
-2.428275552778348
 11
10.43640000824159
 21
-2.428275552778348
 97
        0
 75
     2
 76
     1
 98
        0
  0
SPLINE
  5
87
330
75
100
AcDbEntity
  8
Numbers
370
     0
100
AcDbSpline
210
0.0
220
0.0
230
1.0
 70
    11
 71
     3
 72
    23
 73
    19
 74
     0
 42
0.0000000001
 43
0.0000000001
 12
1.0
 22
0.0
 32
0.0
 13
1.0
 23
0.0
 33
0.0
 40
0.0
 40
0.0
 40
0.0
 40
0.0
 40
1.0
 40
1.0
 40
1.0
 40
2.0
 40
2.0
 40
2.0
 40
3.0
 40
3.0
 40
3.0
 40
4.0
 40
4.0
 40
4.0
 40
5.0
 40
5.0
 40
5.0
 40
6.0
 40
6.0
 40
6.0
 40
6.0
 10
12.42887098213584
 20
-4.936649575588755
 30
0.0
 10
12.42887098213584
 20
-5.332491046843961
 30
0.0
 10
12.23318955857365
 20
-5.530411782471564
 30
0.0
 10
11.84251573054632
 20
-5.530411782471564
 30
0.0
 10
11.45287543116456
 20
-5.530411782471564
 30
0.0
 10
11.25839979102221
 20
-5.332491046843961
 30
0.0
 10
11.25839979102221
 20
-4.936649575588755
 30
0.0
 10
11.25839979102221
 20
-4.936649575588755
 30
0.0
 10
11.25839979102221
 20
-2.970878091705197
 30
0.0
 10
11.25839979102221
 20
-2.970878091705197
 30
0.0
 10
11.25839979102221
 20
-2.574003091804416
 30
0.0
 10
11.45287543116456
 20
-2.375565591854025
 30
0.0
 10
11.84251573054632
 20
-2.375565591854025
 30
0.0
 10
12.23318955857365
 20
-2.375565591854025
 30
0.0
 10
12.42887098213584
 20
-2.574003091804416
 30
0.0
 10
12.42887098213584
 20
-2.970878091705197
 30
0.0
 10
12.42887098213584
 20
-2.970878091705197
 30
0.0
 10
12.42887098213584
 20
-4.936649575588755
 30
0.0
 10
12.42887098213584
 20
-4.936649575588755
 30
0.0
  0
SPLINE
  5
88
330
75
100
AcDbEntity
  8
Numbers
370
     0
100
AcDbSpline
210
0.0
220
0.0
230
1.0
 70
    11
 71
     3
 72
    26
 73
    22
 74
     0
 42
0.0000000001
 43
0.0000000001
 12
1.0
 22
0.0
 32
0.0
 13
1.0
 23
0.0
 33
0.0
 40
0.0
 40
0.0
 40
0.0
 40
0.0
 40
1.0
 40
1.0
 40
1.0
 40
2.0
 40
2.0
 40
2.0
 40
3.0
 40
3.0
 40
3.0
 40
4.0
 40
4.0
 40
4.0
 40
5.0
 40
5.0
 40
5.0
 40
6.0
 40
6.0
 40
6.0
 40
7.0
 40
7.0
 40
7.0
 40
7.0
 10
12.1263915985309
 20
-2.970878091705197
 30
0.0
 10
12.1263915985309
 20
-2.772440591754807
 30
0.0
 10
12.03234049178358
 20
-2.673221841779611
 30
0.0
 10
11.84423827828894
 20
-2.673221841779611
 30
0.0
 10
11.84423827828894
 20
-2.673221841779611
 30
0.0
 10
11.84113769235222
 20
-2.673221841779611
 30
0.0
 10
11.84113769235222
 20
-2.673221841779611
 30
0.0
 10
11.65406900750315
 20
-2.673221841779611
 30
0.0
 10
11.56070691985288
 20
-2.772440591754807
 30
0.0
 10
11.56070691985288
 20
-2.970878091705197
 30
0.0
 10
11.56070691985288
 20
-2.970878091705197
 30
0.0
 10
11.56070691985288
 20
-4.936649575588755
 30
0.0
 10
11.56070691985288
 20
-4.936649575588755
 30
0.0
 10
11.56070691985288
 20
-5.135087075539145
 30
0.0
 10
11.65441351705167
 20
-5.23430582551434
 30
0.0
 10
11.84251573054632
 20
-5.23430582551434
 30
0.0
 10
12.03199598223506
 20
-5.23430582551434
 30
0.0
 10
12.1263915985309
 20
-5.135087075539145
 30
0.0
 10
12.1263915985309
 20
-4.936649575588755
 30
0.0
 10
12.1263915985309
 20
-4.936649575588755
 30
0.0
 10
12.1263915985309
 20
-2.970878091705197
 30
0.0
 10
12.1263915985309
 20
-2.970878091705197
 30
0.0
  0
HATCH
  5
89
330
75
100
AcDbEntity
  8
Numbers
 62
   250
420
  2301728
100
AcDbHatch
 10
0.0
 20
0.0
 30
0.0
210
0.0
220
0.0
230
1.0
  2
SOLID
 70
     1
 71
     0
 91
        2
 92
        1
 93
        1
 72
     4
 94
        3
 73
     0
 74
     1
 95
       23
 96
       19
 40
0.0
 40
0.0
 40
0.0
 40
0.0
 40
1.0
 40
1.0
 40
1.0
 40
2.0
 40
2.0
 40
2.0
 40
3.0
 40
3.0
 40
3.0
 40
4.0
 40
4.0
 40
4.0
 40
5.0
 40
5.0
 40
5.0
 40
6.0
 40
6.0
 40
6.0
 40
6.0
 10
12.42887098213584
 20
-4.936649575588755
 10
12.42887098213584
 20
-5.332491046843961
 10
12.23318955857365
 20
-5.530411782471564
 10
11.84251573054632
 20
-5.530411782471564
 10
11.45287543116456
 20
-5.530411782471564
 10
11.25839979102221
 20
-5.332491046843961
 10
11.25839979102221
 20
-4.936649575588755
 10
11.25839979102221
 20
-4.936649575588755
 10
11.25839979102221
 20
-2.970878091705197
 10
11.25839979102221
 20
-2.970878091705197
 10
11.25839979102221
 20
-2.574003091804416
 10
11.45287543116456
 20
-2.375565591854025
 10
11.84251573054632
 20
-2.375565591854025
 10
12.23318955857365
 20
-2.375565591854025
 10
12.42887098213584
 20
-2.574003091804416
 10
12.42887098213584
 20
-2.970878091705197
 10
12.42887098213584
 20
-2.970878091705197
 10
12.42887098213584
 20
-4.936649575588755
 10
12.42887098213584
 20
-4.936649575588755
 97
        0
 97
        0
 92
        1
 93
        1
 72
     4
 94
        3
 73
     0
 74
     1
 95
       26
 96
       22
 40
0.0
 40
0.0
 40
0.0
 40
0.0
 40
1.0
 40
1.0
 40
1.0
 40
2.0
 40
2.0
 40
2.0
 40
3.0
 40
3.0
 40
3.0
 40
4.0
 40
4.0
 40
4.0
 40
5.0
 40
5.0
 40
5.0
 40
6.0
 40
6.0
 40
6.0
 40
7.0
 40
7.0
 40
7.0
 40
7.0
 10
12.1263915985309
 20
-2.970878091705197
 10
12.1263915985309
 20
-2.772440591754807
 10
12.03234049178358
 20
-2.673221841779611
 10
11.84423827828894
 20
-2.673221841779611
 10
11.84423827828894
 20
-2.673221841779611
 10
11.84113769235222
 20
-2.673221841779611
 10
11.84113769235222
 20
-2.673221841779611
 10
11.65406900750315
 20
-2.673221841779611
 10
11.56070691985288
 20
-2.772440591754807
 10
11.56070691985288
 20
-2.970878091705197
 10
11.56070691985288
 20
-2.970878091705197
 10
11.56070691985288
 20
-4.936649575588755
 10
11.56070691985288
 20
-4.936649575588755
 10
11.56070691985288
 20
-5.135087075539145
 10
11.65441351705167
 20
-5.23430582551434
 10
11.84251573054632
 20
-5.23430582551434
 10
12.03199598223506
 20
-5.23430582551434
 10
12.1263915985309
 20
-5.135087075539145
 10
12.1263915985309
 20
-4.936649575588755
 10
12.1263915985309
 20
-4.936649575588755
 10
12.1263915985309
 20
-2.970878091705197
 10
12.1263915985309
 20
-2.970878091705197
 97
        0
 97
        0
 75
     2
 76
     1
 98
        0
  0
ENDBLK
  5
78
330
75
100
AcDbEntity
  8
0
100
AcDbBlockEnd
  0
BLOCK
  5
8C
330
8A
100
AcDbEntity
  8
0
100
AcDbBlockBegin
  2
block 5
 70
     0
 10
0.0
 20
0.0
 30
0.0
  3
block 5
  1

  0
POLYLINE
  5
8E
330
8A
100
AcDbEntity
  8
Numbers
370
     0
100
AcDb2dPolyline
 66
     1
 10
0.0
 20
0.0
 30
0.0
  0
VERTEX
  5
8F
330
8E
100
AcDbEntity
  8
Numbers
370
     0
100
AcDbVertex
100
AcDb2dVertex
 10
5.46443820392903
 20
-4.40610487086028
 30
0.0
  0
VERTEX
  5
90
330
8E
100
AcDbEntity
  8
Numbers
370
     0
100
AcDbVertex
100
AcDb2dVertex
 10
7.084666610642028
 20
-6.636115178462499
 30
0.0
  0
VERTEX
  5
91
330
8E
100
AcDbEntity
  8
Numbers
370
     0
100
AcDbVertex
100
AcDb2dVertex
 10
7.435721840588987
 20
-6.381005857779749
 30
0.0
  0
VERTEX
  5
92
330
8E
100
AcDbEntity
  8
Numbers
370
     0
100
AcDbVertex
100
AcDb2dVertex
 10
7.609010143497053
 20
-6.619234210584775
 30
0.0
  0
VERTEX
  5
93
330
8E
100
AcDbEntity
  8
Numbers
370
     0
100
AcDbVertex
100
AcDb2dVertex
 10
6.662297904150398
 20
-7.307219778989167
 30
0.0
  0
VERTEX
  5
94
330
8E
100
AcDbEntity
  8
Numbers
370
     0
100
AcDbVertex
100
AcDb2dVertex
 10
6.489009601242331
 20
-7.068991426184142
 30
0.0
  0
VERTEX
  5
95
330
8E
100
AcDbEntity
  8
Numbers
370
     0
100
AcDbVertex
100
AcDb2dVertex
 10
6.84144286938339
 20
-6.812848576855816
 30
0.0
  0
VERTEX
  5
96
330
8E
100
AcDbEntity
  8
Numbers
370
     0
100
AcDbVertex
100
AcDb2dVertex
 10
5.394502765578458
 20
-4.821238876832885
 30
0.0
  0
VERTEX
  5
97
330
8E
100
AcDbEntity
  8
Numbers
370
     0
100
AcDbVertex
100
AcDb2dVertex
 10
5.041724987888874
 20
-5.07738172616121
 30
0.0
  0
VERTEX
  5
98
330
8E
100
AcDbEntity
  8
Numbers
370
     0
100
AcDbVertex
100
AcDb2dVertex
 10
4.868781194529332
 20
-4.838981118581922
 30
0.0
  0
VERTEX
  5
99
330
8E
100
AcDbEntity
  8
Numbers
370
     0
100
AcDbVertex
100
AcDb2dVertex
 10
5.46443820392903
 20
-4.40610487086028
 30
0.0
  0
SEQEND
  5
9A
330
8E
100
AcDbEntity
  8
Numbers
370
     0
  0
HATCH
  5
9B
330
8A
100
AcDbEntity
  8
Numbers
 62
   250
420
  2301728
100
AcDbHatch
 10
0.0
 20
0.0
 30
0.0
210
0.0
220
0.0
230
1.0
  2
SOLID
 70
     1
 71
     0
 91
        1
 92
        1
 93
       10
 72
     1
 10
5.46443820392903
 20
-4.40610487086028
 11
7.084666610642028
 21
-6.636115178462499
 72
     1
 10
7.084666610642028
 20
-6.636115178462499
 11
7.435721840588987
 21
-6.381005857779749
 72
     1
 10
7.435721840588987
 20
-6.381005857779749
 11
7.609010143497053
 21
-6.619234210584775
 72
     1
 10
7.609010143497053
 20
-6.619234210584775
 11
6.662297904150398
 21
-7.307219778989167
 72
     1
 10
6.662297904150398
 20
-7.307219778989167
 11
6.489009601242331
 21
-7.068991426184142
 72
     1
 10
6.489009601242331
 20
-7.068991426184142
 11
6.84144286938339
 21
-6.812848576855816
 72
     1
 10
6.84144286938339
 20
-6.812848576855816
 11
5.394502765578458
 21
-4.821238876832885
 72
     1
 10
5.394502765578458
 20
-4.821238876832885
 11
5.041724987888874
 21
-5.07738172616121
 72
     1
 10
5.041724987888874
 20
-5.07738172616121
 11
4.868781194529332
 21
-4.838981118581922
 72
     1
 10
4.868781194529332
 20
-4.838981118581922
 11
5.46443820392903
 21
-4.40610487086028
 97
        0
 75
     2
 76
     1
 98
        0
  0
SPLINE
  5
9C
330
8A
100
AcDbEntity
  8
Numbers
370
     0
100
AcDbSpline
210
0.0
220
0.0
230
1.0
 70
    11
 71
     3
 72
    56
 73
    52
 74
     0
 42
0.0000000001
 43
0.0000000001
 12
1.0
 22
0.0
 32
0.0
 13
1.0
 23
0.0
 33
0.0
 40
0.0
 40
0.0
 40
0.0
 40
0.0
 40
1.0
 40
1.0
 40
1.0
 40
2.0
 40
2.0
 40
2.0
 40
3.0
 40
3.0
 40
3.0
 40
4.0
 40
4.0
 40
4.0
 40
5.0
 40
5.0
 40
5.0
 40
6.0
 40
6.0
 40
6.0
 40
7.0
 40
7.0
 40
7.0
 40
8.0
 40
8.0
 40
8.0
 40
9.0
 40
9.0
 40
9.0
 40
10.0
 40
10.0
 40
10.0
 40
11.0
 40
11.0
 40
11.0
 40
12.0
 40
12.0
 40
12.0
 40
13.0
 40
13.0
 40
13.0
 40
14.0
 40
14.0
 40
14.0
 40
15.0
 40
15.0
 40
15.0
 40
16.0
 40
16.0
 40
16.0
 40
17.0
 40
17.0
 40
17.0
 40
17.0
 10
6.460759818263282
 20
-4.353050400387432
 30
0.0
 10
6.228215873008918
 20
-4.032656520259197
 30
0.0
 10
6.269557018831916
 20
-3.757221136213473
 30
0.0
 10
6.585127765280801
 20
-3.526916503024521
 30
0.0
 10
6.900009492632637
 20
-3.297817653255407
 30
0.0
 10
7.174239093258524
 20
-3.343981932757754
 30
0.0
 10
7.407472057609938
 20
-3.665064831983039
 30
0.0
 10
7.407472057609938
 20
-3.665064831983039
 30
0.0
 10
8.562957083362733
 20
-5.255320907974364
 30
0.0
 10
8.562957083362733
 20
-5.255320907974364
 30
0.0
 10
8.795501028617098
 20
-5.575542533328337
 30
0.0
 10
8.754159882794099
 20
-5.850461153051274
 30
0.0
 10
8.438244626796688
 20
-6.080076767143176
 30
0.0
 10
8.122673880347804
 20
-6.30917561691229
 30
0.0
 10
7.848788789270442
 20
-6.26352810173273
 30
0.0
 10
7.616244844016078
 20
-5.943306476378757
 30
0.0
 10
7.616244844016078
 20
-5.943306476378757
 30
0.0
 10
7.409194605352563
 20
-5.658569334522858
 30
0.0
 10
7.409194605352563
 20
-5.658569334522858
 30
0.0
 10
7.409194605352563
 20
-5.658569334522858
 30
0.0
 10
7.653796384805301
 20
-5.480974662258228
 30
0.0
 10
7.653796384805301
 20
-5.480974662258228
 30
0.0
 10
7.653796384805301
 20
-5.480974662258228
 30
0.0
 10
7.860502113920291
 20
-5.765711804114128
 30
0.0
 10
7.860502113920291
 20
-5.765711804114128
 30
0.0
 10
7.976946341321736
 20
-5.925391979855458
 30
0.0
 10
8.11130506524648
 20
-5.950368922123519
 30
0.0
 10
8.264267304791572
 20
-5.840470376144049
 30
0.0
 10
8.264267304791572
 20
-5.840470376144049
 30
0.0
 10
8.266334362082722
 20
-5.838747828401424
 30
0.0
 10
8.266334362082722
 20
-5.838747828401424
 30
0.0
 10
8.417918563433716
 20
-5.728849282421955
 30
0.0
 10
8.435144040859964
 20
-5.593457029851636
 30
0.0
 10
8.31869981345852
 20
-5.432915580238993
 30
0.0
 10
8.31869981345852
 20
-5.432915580238993
 30
0.0
 10
7.751637096586396
 20
-4.652773707604168
 30
0.0
 10
7.751637096586396
 20
-4.652773707604168
 30
0.0
 10
7.706161836181098
 20
-4.866197372915395
 30
0.0
 10
7.640016002864302
 20
-5.004517956648177
 30
0.0
 10
7.552855087087481
 20
-5.067563204028248
 30
0.0
 10
7.538041176500907
 20
-5.078587509581048
 30
0.0
 10
7.521849227720232
 20
-5.088922796036798
 30
0.0
 10
7.504968259842508
 20
-5.098741318169759
 30
0.0
 10
7.393347166120414
 20
-5.163164603743931
 30
0.0
 10
7.286893715626194
 20
-5.185385469623792
 30
0.0
 10
7.185607908359849
 20
-5.165748425357869
 30
0.0
 10
7.080877005608254
 20
-5.144733342897845
 30
0.0
 10
6.964432778206809
 20
-5.046203612019699
 30
0.0
 10
6.836275226155514
 20
-4.869642468400645
 30
0.0
 10
6.836275226155514
 20
-4.869642468400645
 30
0.0
 10
6.460759818263282
 20
-4.353050400387432
 30
0.0
 10
6.460759818263282
 20
-4.353050400387432
 30
0.0
  0
SPLINE
  5
9D
330
8A
100
AcDbEntity
  8
Numbers
370
     0
100
AcDbSpline
210
0.0
220
0.0
230
1.0
 70
    11
 71
     3
 72
    29
 73
    25
 74
     0
 42
0.0000000001
 43
0.0000000001
 12
1.0
 22
0.0
 32
0.0
 13
1.0
 23
0.0
 33
0.0
 40
0.0
 40
0.0
 40
0.0
 40
0.0
 40
1.0
 40
1.0
 40
1.0
 40
2.0
 40
2.0
 40
2.0
 40
3.0
 40
3.0
 40
3.0
 40
4.0
 40
4.0
 40
4.0
 40
5.0
 40
5.0
 40
5.0
 40
6.0
 40
6.0
 40
6.0
 40
7.0
 40
7.0
 40
7.0
 40
8.0
 40
8.0
 40
8.0
 40
8.0
 10
7.163214787705725
 20
-3.842659504247669
 30
0.0
 10
7.046426050755755
 20
-3.682118054635026
 30
0.0
 10
6.912411836379536
 20
-3.657141112366965
 30
0.0
 10
6.760138615931494
 20
-3.767728677443485
 30
0.0
 10
6.607176376386401
 20
-3.878833006842792
 30
0.0
 10
6.588572860766051
 20
-4.014914278510161
 30
0.0
 10
6.705017088167496
 20
-4.175455728122803
 30
0.0
 10
6.705017088167496
 20
-4.175455728122803
 30
0.0
 10
7.080532496059728
 20
-4.692047796136016
 30
0.0
 10
7.080532496059728
 20
-4.692047796136016
 30
0.0
 10
7.168037921385074
 20
-4.812453883345498
 30
0.0
 10
7.25485432761337
 20
-4.863269041752933
 30
0.0
 10
7.339603676550516
 20
-4.845010035681109
 30
0.0
 10
7.377499726888264
 20
-4.835363768322409
 30
0.0
 10
7.423664006390612
 20
-4.810903590377135
 30
0.0
 10
7.478096515057559
 20
-4.771457247071025
 30
0.0
 10
7.491876896998559
 20
-4.761121960615275
 30
0.0
 10
7.504968259842508
 20
-4.750958928933788
 30
0.0
 10
7.517026094040883
 20
-4.740968152026563
 30
0.0
 10
7.644494626995127
 20
-4.642093911599893
 30
0.0
 10
7.651729327514151
 20
-4.514797633419912
 30
0.0
 10
7.538730195597957
 20
-4.359251572260882
 30
0.0
 10
7.538730195597957
 20
-4.359251572260882
 30
0.0
 10
7.163214787705725
 20
-3.842659504247669
 30
0.0
 10
7.163214787705725
 20
-3.842659504247669
 30
0.0
  0
HATCH
  5
9E
330
8A
100
AcDbEntity
  8
Numbers
 62
   250
420
  2301728
100
AcDbHatch
 10
0.0
 20
0.0
 30
0.0
210
0.0
220
0.0
230
1.0
  2
SOLID
 70
     1
 71
     0
 91
        2
 92
        1
 93
        1
 72
     4
 94
        3
 73
     0
 74
     1
 95
       56
 96
       52
 40
0.0
 40
0.0
 40
0.0
 40
0.0
 40
1.0
 40
1.0
 40
1.0
 40
2.0
 40
2.0
 40
2.0
 40
3.0
 40
3.0
 40
3.0
 40
4.0
 40
4.0
 40
4.0
 40
5.0
 40
5.0
 40
5.0
 40
6.0
 40
6.0
 40
6.0
 40
7.0
 40
7.0
 40
7.0
 40
8.0
 40
8.0
 40
8.0
 40
9.0
 40
9.0
 40
9.0
 40
10.0
 40
10.0
 40
10.0
 40
11.0
 40
11.0
 40
11.0
 40
12.0
 40
12.0
 40
12.0
 40
13.0
 40
13.0
 40
13.0
 40
14.0
 40
14.0
 40
14.0
 40
15.0
 40
15.0
 40
15.0
 40
16.0
 40
16.0
 40
16.0
 40
17.0
 40
17.0
 40
17.0
 40
17.0
 10
6.460759818263282
 20
-4.353050400387432
 10
6.228215873008918
 20
-4.032656520259197
 10
6.269557018831916
 20
-3.757221136213473
 10
6.585127765280801
 20
-3.526916503024521
 10
6.900009492632637
 20
-3.297817653255407
 10
7.174239093258524
 20
-3.343981932757754
 10
7.407472057609938
 20
-3.665064831983039
 10
7.407472057609938
 20
-3.665064831983039
 10
8.562957083362733
 20
-5.255320907974364
 10
8.562957083362733
 20
-5.255320907974364
 10
8.795501028617098
 20
-5.575542533328337
 10
8.754159882794099
 20
-5.850461153051274
 10
8.438244626796688
 20
-6.080076767143176
 10
8.122673880347804
 20
-6.30917561691229
 10
7.848788789270442
 20
-6.26352810173273
 10
7.616244844016078
 20
-5.943306476378757
 10
7.616244844016078
 20
-5.943306476378757
 10
7.409194605352563
 20
-5.658569334522858
 10
7.409194605352563
 20
-5.658569334522858
 10
7.409194605352563
 20
-5.658569334522858
 10
7.653796384805301
 20
-5.480974662258228
 10
7.653796384805301
 20
-5.480974662258228
 10
7.653796384805301
 20
-5.480974662258228
 10
7.860502113920291
 20
-5.765711804114128
 10
7.860502113920291
 20
-5.765711804114128
 10
7.976946341321736
 20
-5.925391979855458
 10
8.11130506524648
 20
-5.950368922123519
 10
8.264267304791572
 20
-5.840470376144049
 10
8.264267304791572
 20
-5.840470376144049
 10
8.266334362082722
 20
-5.838747828401424
 10
8.266334362082722
 20
-5.838747828401424
 10
8.417918563433716
 20
-5.728849282421955
 10
8.435144040859964
 20
-5.593457029851636
 10
8.31869981345852
 20
-5.432915580238993
 10
8.31869981345852
 20
-5.432915580238993
 10
7.751637096586396
 20
-4.652773707604168
 10
7.751637096586396
 20
-4.652773707604168
 10
7.706161836181098
 20
-4.866197372915395
 10
7.640016002864302
 20
-5.004517956648177
 10
7.552855087087481
 20
-5.067563204028248
 10
7.538041176500907
 20
-5.078587509581048
 10
7.521849227720232
 20
-5.088922796036798
 10
7.504968259842508
 20
-5.098741318169759
 10
7.393347166120414
 20
-5.163164603743931
 10
7.286893715626194
 20
-5.185385469623792
 10
7.185607908359849
 20
-5.165748425357869
 10
7.080877005608254
 20
-5.144733342897845
 10
6.964432778206809
 20
-5.046203612019699
 10
6.836275226155514
 20
-4.869642468400645
 10
6.836275226155514
 20
-4.869642468400645
 10
6.460759818263282
 20
-4.353050400387432
 10
6.460759818263282
 20
-4.353050400387432
 97
        0
 97
        0
 92
        1
 93
        1
 72
     4
 94
        3
 73
     0
 74
     1
 95
       29
 96
       25
 40
0.0
 40
0.0
 40
0.0
 40
0.0
 40
1.0
 40
1.0
 40
1.0
 40
2.0
 40
2.0
 40
2.0
 40
3.0
 40
3.0
 40
3.0
 40
4.0
 40
4.0
 40
4.0
 40
5.0
 40
5.0
 40
5.0
 40
6.0
 40
6.0
 40
6.0
 40
7.0
 40
7.0
 40
7.0
 40
8.0
 40
8.0
 40
8.0
 40
8.0
 10
7.163214787705725
 20
-3.842659504247669
 10
7.046426050755755
 20
-3.682118054635026
 10
6.912411836379536
 20
-3.657141112366965
 10
6.760138615931494
 20
-3.767728677443485
 10
6.607176376386401
 20
-3.878833006842792
 10
6.588572860766051
 20
-4.014914278510161
 10
6.705017088167496
 20
-4.175455728122803
 10
6.705017088167496
 20
-4.175455728122803
 10
7.080532496059728
 20
-4.692047796136016
 10
7.080532496059728
 20
-4.692047796136016
 10
7.168037921385074
 20
-4.812453883345498
 10
7.25485432761337
 20
-4.863269041752933
 10
7.339603676550516
 20
-4.845010035681109
 10
7.377499726888264
 20
-4.835363768322409
 10
7.423664006390612
 20
-4.810903590377135
 10
7.478096515057559
 20
-4.771457247071025
 10
7.491876896998559
 20
-4.761121960615275
 10
7.504968259842508
 20
-4.750958928933788
 10
7.517026094040883
 20
-4.740968152026563
 10
7.644494626995127
 20
-4.642093911599893
 10
7.651729327514151
 20
-4.514797633419912
 10
7.538730195597957
 20
-4.359251572260882
 10
7.538730195597957
 20
-4.359251572260882
 10
7.163214787705725
 20
-3.842659504247669
 10
7.163214787705725
 20
-3.842659504247669
 97
        0
 97
        0
 75
     2
 76
     1
 98
        0
  0
ENDBLK
  5
8D
330
8A
100
AcDbEntity
  8
0
100
AcDbBlockEnd
  0
BLOCK
  5
A1
330
9F
100
AcDbEntity
  8
0
100
AcDbBlockBegin
  2
block 6
 70
     0
 10
0.0
 20
0.0
 30
0.0
  3
block 6
  1

  0
POLYLINE
  5
A3
330
9F
100
AcDbEntity
  8
Numbers
370
     0
100
AcDb2dPolyline
 66
     1
 10
0.0
 20
0.0
 30
0.0
  0
VERTEX
  5
A4
330
A3
100
AcDbEntity
  8
Numbers
370
     0
100
AcDbVertex
100
AcDb2dVertex
 10
2.562117512380304
 20
-8.966894529008277
 30
0.0
  0
VERTEX
  5
A5
330
A3
100
AcDbEntity
  8
Numbers
370
     0
100
AcDbVertex
100
AcDb2dVertex
 10
5.18383517665543
 20
-9.818866642510562
 30
0.0
  0
VERTEX
  5
A6
330
A3
100
AcDbEntity
  8
Numbers
370
     0
100
AcDbVertex
100
AcDb2dVertex
 10
5.317849391031649
 20
-9.405799693829106
 30
0.0
  0
VERTEX
  5
A7
330
A3
100
AcDbEntity
  8
Numbers
370
     0
100
AcDbVertex
100
AcDb2dVertex
 10
5.597935653982461
 20
-9.496922469413965
 30
0.0
  0
VERTEX
  5
A8
330
A3
100
AcDbEntity
  8
Numbers
370
     0
100
AcDbVertex
100
AcDb2dVertex
 10
5.236545137579752
 20
-10.61003282069819
 30
0.0
  0
VERTEX
  5
A9
330
A3
100
AcDbEntity
  8
Numbers
370
     0
100
AcDbVertex
100
AcDb2dVertex
 10
4.956114365080416
 20
-10.51891004511333
 30
0.0
  0
VERTEX
  5
AA
330
A3
100
AcDbEntity
  8
Numbers
370
     0
100
AcDbVertex
100
AcDb2dVertex
 10
5.090817598553684
 20
-10.10446505823777
 30
0.0
  0
VERTEX
  5
AB
330
A3
100
AcDbEntity
  8
Numbers
370
     0
100
AcDbVertex
100
AcDb2dVertex
 10
2.749530706777895
 20
-9.343615720320347
 30
0.0
  0
VERTEX
  5
AC
330
A3
100
AcDbEntity
  8
Numbers
370
     0
100
AcDbVertex
100
AcDb2dVertex
 10
2.614827473304627
 20
-9.758232961970164
 30
0.0
  0
VERTEX
  5
AD
330
A3
100
AcDbEntity
  8
Numbers
370
     0
100
AcDbVertex
100
AcDb2dVertex
 10
2.334741210353815
 20
-9.66728244115957
 30
0.0
  0
VERTEX
  5
AE
330
A3
100
AcDbEntity
  8
Numbers
370
     0
100
AcDbVertex
100
AcDb2dVertex
 10
2.562117512380304
 20
-8.966894529008277
 30
0.0
  0
SEQEND
  5
AF
330
A3
100
AcDbEntity
  8
Numbers
370
     0
  0
HATCH
  5
B0
330
9F
100
AcDbEntity
  8
Numbers
 62
   250
420
  2301728
100
AcDbHatch
 10
0.0
 20
0.0
 30
0.0
210
0.0
220
0.0
230
1.0
  2
SOLID
 70
     1
 71
     0
 91
        1
 92
        1
 93
       10
 72
     1
 10
2.562117512380304
 20
-8.966894529008277
 11
5.18383517665543
 21
-9.818866642510562
 72
     1
 10
5.18383517665543
 20
-9.818866642510562
 11
5.317849391031649
 21
-9.405799693829106
 72
     1
 10
5.317849391031649
 20
-9.405799693829106
 11
5.597935653982461
 21
-9.496922469413965
 72
     1
 10
5.597935653982461
 20
-9.496922469413965
 11
5.236545137579752
 21
-10.61003282069819
 72
     1
 10
5.236545137579752
 20
-10.61003282069819
 11
4.956114365080416
 21
-10.51891004511333
 72
     1
 10
4.956114365080416
 20
-10.51891004511333
 11
5.090817598553684
 21
-10.10446505823777
 72
     1
 10
5.090817598553684
 20
-10.10446505823777
 11
2.749530706777895
 21
-9.343615720320347
 72
     1
 10
2.749530706777895
 20
-9.343615720320347
 11
2.614827473304627
 21
-9.758232961970164
 72
     1
 10
2.614827473304627
 20
-9.758232961970164
 11
2.334741210353815
 21
-9.66728244115957
 72
     1
 10
2.334741210353815
 20
-9.66728244115957
 11
2.562117512380304
 21
-8.966894529008277
 97
        0
 75
     2
 76
     1
 98
        0
  0
SPLINE
  5
B1
330
9F
100
AcDbEntity
  8
Numbers
370
     0
100
AcDbSpline
210
0.0
220
0.0
230
1.0
 70
    11
 71
     3
 72
    41
 73
    37
 74
     0
 42
0.0000000001
 43
0.0000000001
 12
1.0
 22
0.0
 32
0.0
 13
1.0
 23
0.0
 33
0.0
 40
0.0
 40
0.0
 40
0.0
 40
0.0
 40
1.0
 40
1.0
 40
1.0
 40
2.0
 40
2.0
 40
2.0
 40
3.0
 40
3.0
 40
3.0
 40
4.0
 40
4.0
 40
4.0
 40
5.0
 40
5.0
 40
5.0
 40
6.0
 40
6.0
 40
6.0
 40
7.0
 40
7.0
 40
7.0
 40
8.0
 40
8.0
 40
8.0
 40
9.0
 40
9.0
 40
9.0
 40
10.0
 40
10.0
 40
10.0
 40
11.0
 40
11.0
 40
11.0
 40
12.0
 40
12.0
 40
12.0
 40
12.0
 10
3.336919487012993
 20
-8.338164602950181
 30
0.0
 10
2.96071506002371
 20
-8.215863713223813
 30
0.0
 10
2.832212998423891
 20
-7.968678112157137
 30
0.0
 10
2.951757811762061
 20
-7.596780054524417
 30
0.0
 10
3.072336153745805
 20
-7.226260035085796
 30
0.0
 10
3.321072047780843
 20
-7.102408852391065
 30
0.0
 10
3.698654512964226
 20
-7.225054251665959
 30
0.0
 10
3.698654512964226
 20
-7.225054251665959
 30
0.0
 10
4.213351778460551
 20
-7.392141382700576
 30
0.0
 10
4.213351778460551
 20
-7.392141382700576
 30
0.0
 10
4.383194985883368
 20
-7.447607420013099
 30
0.0
 10
4.489303926829063
 20
-7.604703774140491
 30
0.0
 10
4.531334091749111
 20
-7.863774954631279
 30
0.0
 10
4.716335719307027
 20
-7.678428817524837
 30
0.0
 10
4.894447155894444
 20
-7.613661022402141
 30
0.0
 10
5.065323891962836
 20
-7.669127059714663
 30
0.0
 10
5.065323891962836
 20
-7.669127059714663
 30
0.0
 10
5.568307832809312
 20
-7.832424585715505
 30
0.0
 10
5.568307832809312
 20
-7.832424585715505
 30
0.0
 10
5.94554578844417
 20
-7.955069984990399
 30
0.0
 10
6.074392359592514
 20
-8.201738821734288
 30
0.0
 10
5.953814017608769
 20
-8.572086586398646
 30
0.0
 10
5.83220214697945
 20
-8.943467879708578
 30
0.0
 10
5.583121743395886
 20
-9.067835826726098
 30
0.0
 10
5.206572806858079
 20
-8.945534936999728
 30
0.0
 10
5.206572806858079
 20
-8.945534936999728
 30
0.0
 10
4.703933375560128
 20
-8.782237410998885
 30
0.0
 10
4.703933375560128
 20
-8.782237410998885
 30
0.0
 10
4.532712129943211
 20
-8.726771373686363
 30
0.0
 10
4.426603188997516
 20
-8.570019529107496
 30
0.0
 10
4.385606552723043
 20
-8.311981877262284
 30
0.0
 10
4.199571396519552
 20
-8.49629448572315
 30
0.0
 10
4.02180446948066
 20
-8.560717771297321
 30
0.0
 10
3.851616752509318
 20
-8.505251733984798
 30
0.0
 10
3.851616752509318
 20
-8.505251733984798
 30
0.0
 10
3.336919487012993
 20
-8.338164602950181
 30
0.0
 10
3.336919487012993
 20
-8.338164602950181
 30
0.0
  0
SPLINE
  5
B2
330
9F
100
AcDbEntity
  8
Numbers
370
     0
100
AcDbSpline
210
0.0
220
0.0
230
1.0
 70
    11
 71
     3
 72
    29
 73
    25
 74
     0
 42
0.0000000001
 43
0.0000000001
 12
1.0
 22
0.0
 32
0.0
 13
1.0
 23
0.0
 33
0.0
 40
0.0
 40
0.0
 40
0.0
 40
0.0
 40
1.0
 40
1.0
 40
1.0
 40
2.0
 40
2.0
 40
2.0
 40
3.0
 40
3.0
 40
3.0
 40
4.0
 40
4.0
 40
4.0
 40
5.0
 40
5.0
 40
5.0
 40
6.0
 40
6.0
 40
6.0
 40
7.0
 40
7.0
 40
7.0
 40
8.0
 40
8.0
 40
8.0
 40
8.0
 10
3.944978840159589
 20
-8.217930770514963
 30
0.0
 10
4.130669486814555
 20
-8.28132052744356
 30
0.0
 10
4.251592338346824
 20
-8.23722330523236
 30
0.0
 10
4.307747394756396
 20
-8.084433320461532
 30
0.0
 10
4.313948566629846
 20
-8.069447155100693
 30
0.0
 10
4.319805228954771
 20
-8.052910696771495
 30
0.0
 10
4.325661891279696
 20
-8.034996200248196
 30
0.0
 10
4.346332464191195
 20
-7.970228405125499
 30
0.0
 10
4.355978731549895
 20
-7.917518444201177
 30
0.0
 10
4.353911674258745
 20
-7.877555336572279
 30
0.0
 10
4.343576387802995
 20
-7.789533146924144
 30
0.0
 10
4.265372720287823
 20
-7.72355956838161
 30
0.0
 10
4.11998969081028
 20
-7.679462346170412
 30
0.0
 10
4.11998969081028
 20
-7.679462346170412
 30
0.0
 10
3.605292425313955
 20
-7.512375215135796
 30
0.0
 10
3.605292425313955
 20
-7.512375215135796
 30
0.0
 10
3.416501192722264
 20
-7.451052515498349
 30
0.0
 10
3.29316677435032
 20
-7.509963648296121
 30
0.0
 10
3.234944660649597
 20
-7.688764103980587
 30
0.0
 10
3.17637803740035
 20
-7.868598088310629
 30
0.0
 10
3.241834851620097
 20
-7.989520939842898
 30
0.0
 10
3.430626084211788
 20
-8.050843639480345
 30
0.0
 10
3.430626084211788
 20
-8.050843639480345
 30
0.0
 10
3.944978840159589
 20
-8.217930770514963
 30
0.0
 10
3.944978840159589
 20
-8.217930770514963
 30
0.0
  0
SPLINE
  5
B3
330
9F
100
AcDbEntity
  8
Numbers
370
     0
100
AcDbSpline
210
0.0
220
0.0
230
1.0
 70
    11
 71
     3
 72
    23
 73
    19
 74
     0
 42
0.0000000001
 43
0.0000000001
 12
1.0
 22
0.0
 32
0.0
 13
1.0
 23
0.0
 33
0.0
 40
0.0
 40
0.0
 40
0.0
 40
0.0
 40
1.0
 40
1.0
 40
1.0
 40
2.0
 40
2.0
 40
2.0
 40
3.0
 40
3.0
 40
3.0
 40
4.0
 40
4.0
 40
4.0
 40
5.0
 40
5.0
 40
5.0
 40
6.0
 40
6.0
 40
6.0
 40
6.0
 10
5.29993489450835
 20
-8.658213973529891
 30
0.0
 10
5.488726127100041
 20
-8.719536673167338
 30
0.0
 10
5.612060545471985
 20
-8.659936521272517
 30
0.0
 10
5.670627168721232
 20
-8.480102536942475
 30
0.0
 10
5.728849282421955
 20
-8.301302081258008
 30
0.0
 10
5.663736977750733
 20
-8.18106824882279
 30
0.0
 10
5.474945745159042
 20
-8.119745549185343
 30
0.0
 10
5.474945745159042
 20
-8.119745549185343
 30
0.0
 10
4.97506239024929
 20
-7.957481551830075
 30
0.0
 10
4.97506239024929
 20
-7.957481551830075
 30
0.0
 10
4.782481552623825
 20
-7.891680228061802
 30
0.0
 10
4.65639105786368
 20
-7.949902341762525
 30
0.0
 10
4.597135415517383
 20
-8.13283691202929
 30
0.0
 10
4.537879773171086
 20
-8.314910208424745
 30
0.0
 10
4.605403644681982
 20
-8.435660805182751
 30
0.0
 10
4.800051539598599
 20
-8.495949976174623
 30
0.0
 10
4.800051539598599
 20
-8.495949976174623
 30
0.0
 10
5.29993489450835
 20
-8.658213973529891
 30
0.0
 10
5.29993489450835
 20
-8.658213973529891
 30
0.0
  0
HATCH
  5
B4
330
9F
100
AcDbEntity
  8
Numbers
 62
   250
420
  2301728
100
AcDbHatch
 10
0.0
 20
0.0
 30
0.0
210
0.0
220
0.0
230
1.0
  2
SOLID
 70
     1
 71
     0
 91
        3
 92
        1
 93
        1
 72
     4
 94
        3
 73
     0
 74
     1
 95
       41
 96
       37
 40
0.0
 40
0.0
 40
0.0
 40
0.0
 40
1.0
 40
1.0
 40
1.0
 40
2.0
 40
2.0
 40
2.0
 40
3.0
 40
3.0
 40
3.0
 40
4.0
 40
4.0
 40
4.0
 40
5.0
 40
5.0
 40
5.0
 40
6.0
 40
6.0
 40
6.0
 40
7.0
 40
7.0
 40
7.0
 40
8.0
 40
8.0
 40
8.0
 40
9.0
 40
9.0
 40
9.0
 40
10.0
 40
10.0
 40
10.0
 40
11.0
 40
11.0
 40
11.0
 40
12.0
 40
12.0
 40
12.0
 40
12.0
 10
3.336919487012993
 20
-8.338164602950181
 10
2.96071506002371
 20
-8.215863713223813
 10
2.832212998423891
 20
-7.968678112157137
 10
2.951757811762061
 20
-7.596780054524417
 10
3.072336153745805
 20
-7.226260035085796
 10
3.321072047780843
 20
-7.102408852391065
 10
3.698654512964226
 20
-7.225054251665959
 10
3.698654512964226
 20
-7.225054251665959
 10
4.213351778460551
 20
-7.392141382700576
 10
4.213351778460551
 20
-7.392141382700576
 10
4.383194985883368
 20
-7.447607420013099
 10
4.489303926829063
 20
-7.604703774140491
 10
4.531334091749111
 20
-7.863774954631279
 10
4.716335719307027
 20
-7.678428817524837
 10
4.894447155894444
 20
-7.613661022402141
 10
5.065323891962836
 20
-7.669127059714663
 10
5.065323891962836
 20
-7.669127059714663
 10
5.568307832809312
 20
-7.832424585715505
 10
5.568307832809312
 20
-7.832424585715505
 10
5.94554578844417
 20
-7.955069984990399
 10
6.074392359592514
 20
-8.201738821734288
 10
5.953814017608769
 20
-8.572086586398646
 10
5.83220214697945
 20
-8.943467879708578
 10
5.583121743395886
 20
-9.067835826726098
 10
5.206572806858079
 20
-8.945534936999728
 10
5.206572806858079
 20
-8.945534936999728
 10
4.703933375560128
 20
-8.782237410998885
 10
4.703933375560128
 20
-8.782237410998885
 10
4.532712129943211
 20
-8.726771373686363
 10
4.426603188997516
 20
-8.570019529107496
 10
4.385606552723043
 20
-8.311981877262284
 10
4.199571396519552
 20
-8.49629448572315
 10
4.02180446948066
 20
-8.560717771297321
 10
3.851616752509318
 20
-8.505251733984798
 10
3.851616752509318
 20
-8.505251733984798
 10
3.336919487012993
 20
-8.338164602950181
 10
3.336919487012993
 20
-8.338164602950181
 97
        0
 97
        0
 92
        1
 93
        1
 72
     4
 94
        3
 73
     0
 74
     1
 95
       29
 96
       25
 40
0.0
 40
0.0
 40
0.0
 40
0.0
 40
1.0
 40
1.0
 40
1.0
 40
2.0
 40
2.0
 40
2.0
 40
3.0
 40
3.0
 40
3.0
 40
4.0
 40
4.0
 40
4.0
 40
5.0
 40
5.0
 40
5.0
 40
6.0
 40
6.0
 40
6.0
 40
7.0
 40
7.0
 40
7.0
 40
8.0
 40
8.0
 40
8.0
 40
8.0
 10
3.944978840159589
 20
-8.217930770514963
 10
4.130669486814555
 20
-8.28132052744356
 10
4.251592338346824
 20
-8.23722330523236
 10
4.307747394756396
 20
-8.084433320461532
 10
4.313948566629846
 20
-8.069447155100693
 10
4.319805228954771
 20
-8.052910696771495
 10
4.325661891279696
 20
-8.034996200248196
 10
4.346332464191195
 20
-7.970228405125499
 10
4.355978731549895
 20
-7.917518444201177
 10
4.353911674258745
 20
-7.877555336572279
 10
4.343576387802995
 20
-7.789533146924144
 10
4.265372720287823
 20
-7.72355956838161
 10
4.11998969081028
 20
-7.679462346170412
 10
4.11998969081028
 20
-7.679462346170412
 10
3.605292425313955
 20
-7.512375215135796
 10
3.605292425313955
 20
-7.512375215135796
 10
3.416501192722264
 20
-7.451052515498349
 10
3.29316677435032
 20
-7.509963648296121
 10
3.234944660649597
 20
-7.688764103980587
 10
3.17637803740035
 20
-7.868598088310629
 10
3.241834851620097
 20
-7.989520939842898
 10
3.430626084211788
 20
-8.050843639480345
 10
3.430626084211788
 20
-8.050843639480345
 10
3.944978840159589
 20
-8.217930770514963
 10
3.944978840159589
 20
-8.217930770514963
 97
        0
 97
        0
 92
        1
 93
        1
 72
     4
 94
        3
 73
     0
 74
     1
 95
       23
 96
       19
 40
0.0
 40
0.0
 40
0.0
 40
0.0
 40
1.0
 40
1.0
 40
1.0
 40
2.0
 40
2.0
 40
2.0
 40
3.0
 40
3.0
 40
3.0
 40
4.0
 40
4.0
 40
4.0
 40
5.0
 40
5.0
 40
5.0
 40
6.0
 40
6.0
 40
6.0
 40
6.0
 10
5.29993489450835
 20
-8.658213973529891
 10
5.488726127100041
 20
-8.719536673167338
 10
5.612060545471985
 20
-8.659936521272517
 10
5.670627168721232
 20
-8.480102536942475
 10
5.728849282421955
 20
-8.301302081258008
 10
5.663736977750733
 20
-8.18106824882279
 10
5.474945745159042
 20
-8.119745549185343
 10
5.474945745159042
 20
-8.119745549185343
 10
4.97506239024929
 20
-7.957481551830075
 10
4.97506239024929
 20
-7.957481551830075
 10
4.782481552623825
 20
-7.891680228061802
 10
4.65639105786368
 20
-7.949902341762525
 10
4.597135415517383
 20
-8.13283691202929
 10
4.537879773171086
 20
-8.314910208424745
 10
4.605403644681982
 20
-8.435660805182751
 10
4.800051539598599
 20
-8.495949976174623
 10
4.800051539598599
 20
-8.495949976174623
 10
5.29993489450835
 20
-8.658213973529891
 10
5.29993489450835
 20
-8.658213973529891
 97
        0
 97
        0
 75
     2
 76
     1
 98
        0
  0
ENDBLK
  5
A2
330
9F
100
AcDbEntity
  8
0
100
AcDbBlockEnd
  0
BLOCK
  5
B7
330
B5
100
AcDbEntity
  8
0
100
AcDbBlockBegin
  2
block 7
 70
     0
 10
0.0
 20
0.0
 30
0.0
  3
block 7
  1

  0
POLYLINE
  5
B9
330
B5
100
AcDbEntity
  8
Numbers
370
     0
100
AcDb2dPolyline
 66
     1
 10
0.0
 20
0.0
 30
0.0
  0
VERTEX
  5
BA
330
B9
100
AcDbEntity
  8
Numbers
370
     0
100
AcDbVertex
100
AcDb2dVertex
 10
2.927297633816787
 20
-14.10146484022463
 30
0.0
  0
VERTEX
  5
BB
330
B9
100
AcDbEntity
  8
Numbers
370
     0
100
AcDbVertex
100
AcDb2dVertex
 10
5.548670788543388
 20
-13.24949272672235
 30
0.0
  0
VERTEX
  5
BC
330
B9
100
AcDbEntity
  8
Numbers
370
     0
100
AcDbVertex
100
AcDb2dVertex
 10
5.41465657416717
 20
-12.83677028758942
 30
0.0
  0
VERTEX
  5
BD
330
B9
100
AcDbEntity
  8
Numbers
370
     0
100
AcDbVertex
100
AcDb2dVertex
 10
5.694742837117981
 20
-12.7454752572303
 30
0.0
  0
VERTEX
  5
BE
330
B9
100
AcDbEntity
  8
Numbers
370
     0
100
AcDbVertex
100
AcDb2dVertex
 10
6.056305608294951
 20
-13.85893011806305
 30
0.0
  0
VERTEX
  5
BF
330
B9
100
AcDbEntity
  8
Numbers
370
     0
100
AcDbVertex
100
AcDb2dVertex
 10
5.77621934534414
 20
-13.94988063887364
 30
0.0
  0
VERTEX
  5
C0
330
B9
100
AcDbEntity
  8
Numbers
370
     0
100
AcDbVertex
100
AcDb2dVertex
 10
5.641688366645134
 20
-13.53509114244956
 30
0.0
  0
VERTEX
  5
C1
330
B9
100
AcDbEntity
  8
Numbers
370
     0
100
AcDbVertex
100
AcDb2dVertex
 10
3.300056965320819
 20
-14.29576822559273
 30
0.0
  0
VERTEX
  5
C2
330
B9
100
AcDbEntity
  8
Numbers
370
     0
100
AcDbVertex
100
AcDb2dVertex
 10
3.434760198794088
 20
-14.71055772201681
 30
0.0
  0
VERTEX
  5
C3
330
B9
100
AcDbEntity
  8
Numbers
370
     0
100
AcDbVertex
100
AcDb2dVertex
 10
3.154673935843276
 20
-14.8015082428274
 30
0.0
  0
VERTEX
  5
C4
330
B9
100
AcDbEntity
  8
Numbers
370
     0
100
AcDbVertex
100
AcDb2dVertex
 10
2.927297633816787
 20
-14.10146484022463
 30
0.0
  0
SEQEND
  5
C5
330
B9
100
AcDbEntity
  8
Numbers
370
     0
  0
HATCH
  5
C6
330
B5
100
AcDbEntity
  8
Numbers
 62
   250
420
  2301728
100
AcDbHatch
 10
0.0
 20
0.0
 30
0.0
210
0.0
220
0.0
230
1.0
  2
SOLID
 70
     1
 71
     0
 91
        1
 92
        1
 93
       10
 72
     1
 10
2.927297633816787
 20
-14.10146484022463
 11
5.548670788543388
 21
-13.24949272672235
 72
     1
 10
5.548670788543388
 20
-13.24949272672235
 11
5.41465657416717
 21
-12.83677028758942
 72
     1
 10
5.41465657416717
 20
-12.83677028758942
 11
5.694742837117981
 21
-12.7454752572303
 72
     1
 10
5.694742837117981
 20
-12.7454752572303
 11
6.056305608294951
 21
-13.85893011806305
 72
     1
 10
6.056305608294951
 20
-13.85893011806305
 11
5.77621934534414
 21
-13.94988063887364
 72
     1
 10
5.77621934534414
 20
-13.94988063887364
 11
5.641688366645134
 21
-13.53509114244956
 72
     1
 10
5.641688366645134
 20
-13.53509114244956
 11
3.300056965320819
 21
-14.29576822559273
 72
     1
 10
3.300056965320819
 20
-14.29576822559273
 11
3.434760198794088
 21
-14.71055772201681
 72
     1
 10
3.434760198794088
 20
-14.71055772201681
 11
3.154673935843276
 21
-14.8015082428274
 72
     1
 10
3.154673935843276
 20
-14.8015082428274
 11
2.927297633816787
 21
-14.10146484022463
 97
        0
 75
     2
 76
     1
 98
        0
  0
POLYLINE
  5
C7
330
B5
100
AcDbEntity
  8
Numbers
370
     0
100
AcDb2dPolyline
 66
     1
 10
0.0
 20
0.0
 30
0.0
  0
VERTEX
  5
C8
330
C7
100
AcDbEntity
  8
Numbers
370
     0
100
AcDbVertex
100
AcDb2dVertex
 10
2.952791340407636
 20
-13.22709960606823
 30
0.0
  0
VERTEX
  5
C9
330
C7
100
AcDbEntity
  8
Numbers
370
     0
100
AcDbVertex
100
AcDb2dVertex
 10
2.672705077456824
 20
-13.31839463642735
 30
0.0
  0
VERTEX
  5
CA
330
C7
100
AcDbEntity
  8
Numbers
370
     0
100
AcDbVertex
100
AcDb2dVertex
 10
2.299084472081479
 20
-12.16807725390243
 30
0.0
  0
VERTEX
  5
CB
330
C7
100
AcDbEntity
  8
Numbers
370
     0
100
AcDbVertex
100
AcDb2dVertex
 10
2.527494302753543
 20
-12.09400770096955
 30
0.0
  0
VERTEX
  5
CC
330
C7
100
AcDbEntity
  8
Numbers
370
     0
100
AcDbVertex
100
AcDb2dVertex
 10
5.396225313321083
 20
-11.82701280086269
 30
0.0
  0
VERTEX
  5
CD
330
C7
100
AcDbEntity
  8
Numbers
370
     0
100
AcDbVertex
100
AcDb2dVertex
 10
5.491998967811028
 20
-12.12191297440008
 30
0.0
  0
VERTEX
  5
CE
330
C7
100
AcDbEntity
  8
Numbers
370
     0
100
AcDbVertex
100
AcDb2dVertex
 10
2.679250758878799
 20
-12.38511826947317
 30
0.0
  0
VERTEX
  5
CF
330
C7
100
AcDbEntity
  8
Numbers
370
     0
100
AcDbVertex
100
AcDb2dVertex
 10
2.952791340407636
 20
-13.22709960606823
 30
0.0
  0
SEQEND
  5
D0
330
C7
100
AcDbEntity
  8
Numbers
370
     0
  0
HATCH
  5
D1
330
B5
100
AcDbEntity
  8
Numbers
 62
   250
420
  2301728
100
AcDbHatch
 10
0.0
 20
0.0
 30
0.0
210
0.0
220
0.0
230
1.0
  2
SOLID
 70
     1
 71
     0
 91
        1
 92
        1
 93
        7
 72
     1
 10
2.952791340407636
 20
-13.22709960606823
 11
2.672705077456824
 21
-13.31839463642735
 72
     1
 10
2.672705077456824
 20
-13.31839463642735
 11
2.299084472081479
 21
-12.16807725390243
 72
     1
 10
2.299084472081479
 20
-12.16807725390243
 11
2.527494302753543
 21
-12.09400770096955
 72
     1
 10
2.527494302753543
 20
-12.09400770096955
 11
5.396225313321083
 21
-11.82701280086269
 72
     1
 10
5.396225313321083
 20
-11.82701280086269
 11
5.491998967811028
 21
-12.12191297440008
 72
     1
 10
5.491998967811028
 20
-12.12191297440008
 11
2.679250758878799
 21
-12.38511826947317
 72
     1
 10
2.679250758878799
 20
-12.38511826947317
 11
2.952791340407636
 21
-13.22709960606823
 97
        0
 75
     2
 76
     1
 98
        0
  0
ENDBLK
  5
B8
330
B5
100
AcDbEntity
  8
0
100
AcDbBlockEnd
  0
BLOCK
  5
D4
330
D2
100
AcDbEntity
  8
0
100
AcDbBlockBegin
  2
block 8
 70
     0
 10
0.0
 20
0.0
 30
0.0
  3
block 8
  1

  0
POLYLINE
  5
D6
330
D2
100
AcDbEntity
  8
Numbers
370
     0
100
AcDb2dPolyline
 66
     1
 10
0.0
 20
0.0
 30
0.0
  0
VERTEX
  5
D7
330
D6
100
AcDbEntity
  8
Numbers
370
     0
100
AcDbVertex
100
AcDb2dVertex
 10
6.441295028771621
 20
-18.35891384089638
 30
0.0
  0
VERTEX
  5
D8
330
D6
100
AcDbEntity
  8
Numbers
370
     0
100
AcDbVertex
100
AcDb2dVertex
 10
8.06152343548462
 20
-16.12924804284269
 30
0.0
  0
VERTEX
  5
D9
330
D6
100
AcDbEntity
  8
Numbers
370
     0
100
AcDbVertex
100
AcDb2dVertex
 10
7.710468205537661
 20
-15.87396646738568
 30
0.0
  0
VERTEX
  5
DA
330
D6
100
AcDbEntity
  8
Numbers
370
     0
100
AcDbVertex
100
AcDb2dVertex
 10
7.883584253671465
 20
-15.63591036935491
 30
0.0
  0
VERTEX
  5
DB
330
D6
100
AcDbEntity
  8
Numbers
370
     0
100
AcDbVertex
100
AcDb2dVertex
 10
8.830296493018121
 20
-16.32355142821078
 30
0.0
  0
VERTEX
  5
DC
330
D6
100
AcDbEntity
  8
Numbers
370
     0
100
AcDbVertex
100
AcDb2dVertex
 10
8.657180444884316
 20
-16.56195203579007
 30
0.0
  0
VERTEX
  5
DD
330
D6
100
AcDbEntity
  8
Numbers
370
     0
100
AcDbVertex
100
AcDb2dVertex
 10
8.304574921968996
 20
-16.30563693168748
 30
0.0
  0
VERTEX
  5
DE
330
D6
100
AcDbEntity
  8
Numbers
370
     0
100
AcDbVertex
100
AcDb2dVertex
 10
6.857462563389801
 20
-18.29759114125894
 30
0.0
  0
VERTEX
  5
DF
330
D6
100
AcDbEntity
  8
Numbers
370
     0
100
AcDbVertex
100
AcDb2dVertex
 10
7.210068086305122
 20
-18.553561735813
 30
0.0
  0
VERTEX
  5
E0
330
D6
100
AcDbEntity
  8
Numbers
370
     0
100
AcDbVertex
100
AcDb2dVertex
 10
7.036952038171318
 20
-18.79196234339229
 30
0.0
  0
VERTEX
  5
E1
330
D6
100
AcDbEntity
  8
Numbers
370
     0
100
AcDbVertex
100
AcDb2dVertex
 10
6.441295028771621
 20
-18.35891384089638
 30
0.0
  0
SEQEND
  5
E2
330
D6
100
AcDbEntity
  8
Numbers
370
     0
  0
HATCH
  5
E3
330
D2
100
AcDbEntity
  8
Numbers
 62
   250
420
  2301728
100
AcDbHatch
 10
0.0
 20
0.0
 30
0.0
210
0.0
220
0.0
230
1.0
  2
SOLID
 70
     1
 71
     0
 91
        1
 92
        1
 93
       10
 72
     1
 10
6.441295028771621
 20
-18.35891384089638
 11
8.06152343548462
 21
-16.12924804284269
 72
     1
 10
8.06152343548462
 20
-16.12924804284269
 11
7.710468205537661
 21
-15.87396646738568
 72
     1
 10
7.710468205537661
 20
-15.87396646738568
 11
7.883584253671465
 21
-15.63591036935491
 72
     1
 10
7.883584253671465
 20
-15.63591036935491
 11
8.830296493018121
 21
-16.32355142821078
 72
     1
 10
8.830296493018121
 20
-16.32355142821078
 11
8.657180444884316
 21
-16.56195203579007
 72
     1
 10
8.657180444884316
 20
-16.56195203579007
 11
8.304574921968996
 21
-16.30563693168748
 72
     1
 10
8.304574921968996
 20
-16.30563693168748
 11
6.857462563389801
 21
-18.29759114125894
 72
     1
 10
6.857462563389801
 20
-18.29759114125894
 11
7.210068086305122
 21
-18.553561735813
 72
     1
 10
7.210068086305122
 20
-18.553561735813
 11
7.036952038171318
 21
-18.79196234339229
 72
     1
 10
7.036952038171318
 20
-18.79196234339229
 11
6.441295028771621
 21
-18.35891384089638
 97
        0
 75
     2
 76
     1
 98
        0
  0
SPLINE
  5
E4
330
D2
100
AcDbEntity
  8
Numbers
370
     0
100
AcDbSpline
210
0.0
220
0.0
230
1.0
 70
    11
 71
     3
 72
    56
 73
    52
 74
     0
 42
0.0000000001
 43
0.0000000001
 12
1.0
 22
0.0
 32
0.0
 13
1.0
 23
0.0
 33
0.0
 40
0.0
 40
0.0
 40
0.0
 40
0.0
 40
1.0
 40
1.0
 40
1.0
 40
2.0
 40
2.0
 40
2.0
 40
3.0
 40
3.0
 40
3.0
 40
4.0
 40
4.0
 40
4.0
 40
5.0
 40
5.0
 40
5.0
 40
6.0
 40
6.0
 40
6.0
 40
7.0
 40
7.0
 40
7.0
 40
8.0
 40
8.0
 40
8.0
 40
9.0
 40
9.0
 40
9.0
 40
10.0
 40
10.0
 40
10.0
 40
11.0
 40
11.0
 40
11.0
 40
12.0
 40
12.0
 40
12.0
 40
13.0
 40
13.0
 40
13.0
 40
14.0
 40
14.0
 40
14.0
 40
15.0
 40
15.0
 40
15.0
 40
16.0
 40
16.0
 40
16.0
 40
17.0
 40
17.0
 40
17.0
 40
17.0
 10
6.291433375163253
 20
-15.14946288683763
 30
0.0
 10
6.524149575191879
 20
-14.82941351625793
 30
0.0
 10
6.798034666269242
 20
-14.78393825585263
 30
0.0
 10
7.114122177040914
 20
-15.01372612471879
 30
0.0
 10
7.429692923489799
 20
-15.24248046493938
 30
0.0
 10
7.470861814538535
 20
-15.51739908466232
 30
0.0
 10
7.238145614509908
 20
-15.83779296479055
 30
0.0
 10
7.238145614509908
 20
-15.83779296479055
 30
0.0
 10
6.082660588757113
 20
-17.42804904078188
 30
0.0
 10
6.082660588757113
 20
-17.42804904078188
 30
0.0
 10
5.849427624405699
 20
-17.74913194000716
 30
0.0
 10
5.575370278554074
 20
-17.79495170996098
 30
0.0
 10
5.259799532105189
 20
-17.56585286019187
 30
0.0
 10
4.943712021333517
 20
-17.33640950087423
 30
0.0
 10
4.902715385059044
 20
-17.06080186205424
 30
0.0
 10
5.135948349410458
 20
-16.73971896282896
 30
0.0
 10
5.135948349410458
 20
-16.73971896282896
 30
0.0
 10
5.341965059428398
 20
-16.45653211394142
 30
0.0
 10
5.341965059428398
 20
-16.45653211394142
 30
0.0
 10
5.341965059428398
 20
-16.45653211394142
 30
0.0
 10
5.586394584106873
 20
-16.63429904098032
 30
0.0
 10
5.586394584106873
 20
-16.63429904098032
 30
0.0
 10
5.586394584106873
 20
-16.63429904098032
 30
0.0
 10
5.380377874088934
 20
-16.91748588986785
 30
0.0
 10
5.380377874088934
 20
-16.91748588986785
 30
0.0
 10
5.263761391913227
 20
-17.07802733948049
 30
0.0
 10
5.281503633662263
 20
-17.21376410159934
 30
0.0
 10
5.433776854110306
 20
-17.32400715712733
 30
0.0
 10
5.433776854110306
 20
-17.32400715712733
 30
0.0
 10
5.436188420949981
 20
-17.32607421441848
 30
0.0
 10
5.436188420949981
 20
-17.32607421441848
 30
0.0
 10
5.587600367526711
 20
-17.43597276039795
 30
0.0
 10
5.72161458190293
 20
-17.41082356335563
 30
0.0
 10
5.838231064078637
 20
-17.25028211374299
 30
0.0
 10
5.838231064078637
 20
-17.25028211374299
 30
0.0
 10
6.404260252305185
 20
-16.47169053407652
 30
0.0
 10
6.404260252305185
 20
-16.47169053407652
 30
0.0
 10
6.188769529702808
 20
-16.49373914518212
 30
0.0
 10
6.038046602223128
 20
-16.47375759136767
 30
0.0
 10
5.952780488963194
 20
-16.41174587263318
 30
0.0
 10
5.936244030633995
 20
-16.3996880384348
 30
0.0
 10
5.919535317530533
 20
-16.38625216604233
 30
0.0
 10
5.903171113975596
 20
-16.37178276500428
 30
0.0
 10
5.807397459485651
 20
-16.28565537787303
 30
0.0
 10
5.753826224690016
 20
-16.19194878067423
 30
0.0
 10
5.741940645265904
 20
-16.08997395431084
 30
0.0
 10
5.72919379197048
 20
-15.98489854201072
 30
0.0
 10
5.787243650896939
 20
-15.84364962711548
 30
0.0
 10
5.916090222045283
 20
-15.66622720962511
 30
0.0
 10
5.916090222045283
 20
-15.66622720962511
 30
0.0
 10
6.291433375163253
 20
-15.14946288683763
 30
0.0
 10
6.291433375163253
 20
-15.14946288683763
 30
0.0
  0
SPLINE
  5
E5
330
D2
100
AcDbEntity
  8
Numbers
370
     0
100
AcDbSpline
210
0.0
220
0.0
230
1.0
 70
    11
 71
     3
 72
    29
 73
    25
 74
     0
 42
0.0000000001
 43
0.0000000001
 12
1.0
 22
0.0
 32
0.0
 13
1.0
 23
0.0
 33
0.0
 40
0.0
 40
0.0
 40
0.0
 40
0.0
 40
1.0
 40
1.0
 40
1.0
 40
2.0
 40
2.0
 40
2.0
 40
3.0
 40
3.0
 40
3.0
 40
4.0
 40
4.0
 40
4.0
 40
5.0
 40
5.0
 40
5.0
 40
6.0
 40
6.0
 40
6.0
 40
7.0
 40
7.0
 40
7.0
 40
8.0
 40
8.0
 40
8.0
 40
8.0
 10
6.993716089831432
 20
-15.66002603775166
 30
0.0
 10
7.110332572007139
 20
-15.49948458813902
 30
0.0
 10
7.092590330258103
 20
-15.36374782602017
 30
0.0
 10
6.940144855035798
 20
-15.25316026094366
 30
0.0
 10
6.78752712503923
 20
-15.14188367677009
 30
0.0
 10
6.652479382017436
 20
-15.16668836426388
 30
0.0
 10
6.535862899841729
 20
-15.32722981387653
 30
0.0
 10
6.535862899841729
 20
-15.32722981387653
 30
0.0
 10
6.160519746723759
 20
-15.843994136664
 30
0.0
 10
6.160519746723759
 20
-15.843994136664
 30
0.0
 10
6.072325302301364
 20
-15.9652614977448
 30
0.0
 10
6.050793455518552
 20
-16.06344671907442
 30
0.0
 10
6.096096461149587
 20
-16.13820529110434
 30
0.0
 10
6.115388995866986
 20
-16.17162271731126
 30
0.0
 10
6.153457300978997
 20
-16.20882974855196
 30
0.0
 10
6.210301376485619
 20
-16.24982638482643
 30
0.0
 10
6.223737248878094
 20
-16.25981716173366
 30
0.0
 10
6.237000866496306
 20
-16.26911891954383
 30
0.0
 10
6.249919974565993
 20
-16.27704263915991
 30
0.0
 10
6.382556150748111
 20
-16.36558159313083
 30
0.0
 10
6.505373804797268
 20
-16.33250867647243
 30
0.0
 10
6.618372936713462
 20
-16.17679036053914
 30
0.0
 10
6.618372936713462
 20
-16.17679036053914
 30
0.0
 10
6.993716089831432
 20
-15.66002603775166
 30
0.0
 10
6.993716089831432
 20
-15.66002603775166
 30
0.0
  0
HATCH
  5
E6
330
D2
100
AcDbEntity
  8
Numbers
 62
   250
420
  2301728
100
AcDbHatch
 10
0.0
 20
0.0
 30
0.0
210
0.0
220
0.0
230
1.0
  2
SOLID
 70
     1
 71
     0
 91
        2
 92
        1
 93
        1
 72
     4
 94
        3
 73
     0
 74
     1
 95
       56
 96
       52
 40
0.0
 40
0.0
 40
0.0
 40
0.0
 40
1.0
 40
1.0
 40
1.0
 40
2.0
 40
2.0
 40
2.0
 40
3.0
 40
3.0
 40
3.0
 40
4.0
 40
4.0
 40
4.0
 40
5.0
 40
5.0
 40
5.0
 40
6.0
 40
6.0
 40
6.0
 40
7.0
 40
7.0
 40
7.0
 40
8.0
 40
8.0
 40
8.0
 40
9.0
 40
9.0
 40
9.0
 40
10.0
 40
10.0
 40
10.0
 40
11.0
 40
11.0
 40
11.0
 40
12.0
 40
12.0
 40
12.0
 40
13.0
 40
13.0
 40
13.0
 40
14.0
 40
14.0
 40
14.0
 40
15.0
 40
15.0
 40
15.0
 40
16.0
 40
16.0
 40
16.0
 40
17.0
 40
17.0
 40
17.0
 40
17.0
 10
6.291433375163253
 20
-15.14946288683763
 10
6.524149575191879
 20
-14.82941351625793
 10
6.798034666269242
 20
-14.78393825585263
 10
7.114122177040914
 20
-15.01372612471879
 10
7.429692923489799
 20
-15.24248046493938
 10
7.470861814538535
 20
-15.51739908466232
 10
7.238145614509908
 20
-15.83779296479055
 10
7.238145614509908
 20
-15.83779296479055
 10
6.082660588757113
 20
-17.42804904078188
 10
6.082660588757113
 20
-17.42804904078188
 10
5.849427624405699
 20
-17.74913194000716
 10
5.575370278554074
 20
-17.79495170996098
 10
5.259799532105189
 20
-17.56585286019187
 10
4.943712021333517
 20
-17.33640950087423
 10
4.902715385059044
 20
-17.06080186205424
 10
5.135948349410458
 20
-16.73971896282896
 10
5.135948349410458
 20
-16.73971896282896
 10
5.341965059428398
 20
-16.45653211394142
 10
5.341965059428398
 20
-16.45653211394142
 10
5.341965059428398
 20
-16.45653211394142
 10
5.586394584106873
 20
-16.63429904098032
 10
5.586394584106873
 20
-16.63429904098032
 10
5.586394584106873
 20
-16.63429904098032
 10
5.380377874088934
 20
-16.91748588986785
 10
5.380377874088934
 20
-16.91748588986785
 10
5.263761391913227
 20
-17.07802733948049
 10
5.281503633662263
 20
-17.21376410159934
 10
5.433776854110306
 20
-17.32400715712733
 10
5.433776854110306
 20
-17.32400715712733
 10
5.436188420949981
 20
-17.32607421441848
 10
5.436188420949981
 20
-17.32607421441848
 10
5.587600367526711
 20
-17.43597276039795
 10
5.72161458190293
 20
-17.41082356335563
 10
5.838231064078637
 20
-17.25028211374299
 10
5.838231064078637
 20
-17.25028211374299
 10
6.404260252305185
 20
-16.47169053407652
 10
6.404260252305185
 20
-16.47169053407652
 10
6.188769529702808
 20
-16.49373914518212
 10
6.038046602223128
 20
-16.47375759136767
 10
5.952780488963194
 20
-16.41174587263318
 10
5.936244030633995
 20
-16.3996880384348
 10
5.919535317530533
 20
-16.38625216604233
 10
5.903171113975596
 20
-16.37178276500428
 10
5.807397459485651
 20
-16.28565537787303
 10
5.753826224690016
 20
-16.19194878067423
 10
5.741940645265904
 20
-16.08997395431084
 10
5.72919379197048
 20
-15.98489854201072
 10
5.787243650896939
 20
-15.84364962711548
 10
5.916090222045283
 20
-15.66622720962511
 10
5.916090222045283
 20
-15.66622720962511
 10
6.291433375163253
 20
-15.14946288683763
 10
6.291433375163253
 20
-15.14946288683763
 97
        0
 97
        0
 92
        1
 93
        1
 72
     4
 94
        3
 73
     0
 74
     1
 95
       29
 96
       25
 40
0.0
 40
0.0
 40
0.0
 40
0.0
 40
1.0
 40
1.0
 40
1.0
 40
2.0
 40
2.0
 40
2.0
 40
3.0
 40
3.0
 40
3.0
 40
4.0
 40
4.0
 40
4.0
 40
5.0
 40
5.0
 40
5.0
 40
6.0
 40
6.0
 40
6.0
 40
7.0
 40
7.0
 40
7.0
 40
8.0
 40
8.0
 40
8.0
 40
8.0
 10
6.993716089831432
 20
-15.66002603775166
 10
7.110332572007139
 20
-15.49948458813902
 10
7.092590330258103
 20
-15.36374782602017
 10
6.940144855035798
 20
-15.25316026094366
 10
6.78752712503923
 20
-15.14188367677009
 10
6.652479382017436
 20
-15.16668836426388
 10
6.535862899841729
 20
-15.32722981387653
 10
6.535862899841729
 20
-15.32722981387653
 10
6.160519746723759
 20
-15.843994136664
 10
6.160519746723759
 20
-15.843994136664
 10
6.072325302301364
 20
-15.9652614977448
 10
6.050793455518552
 20
-16.06344671907442
 10
6.096096461149587
 20
-16.13820529110434
 10
6.115388995866986
 20
-16.17162271731126
 10
6.153457300978997
 20
-16.20882974855196
 10
6.210301376485619
 20
-16.24982638482643
 10
6.223737248878094
 20
-16.25981716173366
 10
6.237000866496306
 20
-16.26911891954383
 10
6.249919974565993
 20
-16.27704263915991
 10
6.382556150748111
 20
-16.36558159313083
 10
6.505373804797268
 20
-16.33250867647243
 10
6.618372936713462
 20
-16.17679036053914
 10
6.618372936713462
 20
-16.17679036053914
 10
6.993716089831432
 20
-15.66002603775166
 10
6.993716089831432
 20
-15.66002603775166
 97
        0
 97
        0
 75
     2
 76
     1
 98
        0
  0
ENDBLK
  5
D5
330
D2
100
AcDbEntity
  8
0
100
AcDbBlockEnd
  0
BLOCK
  5
E9
330
E7
100
AcDbEntity
  8
0
100
AcDbBlockBegin
  2
block 9
 70
     0
 10
0.0
 20
0.0
 30
0.0
  3
block 9
  1

  0
POLYLINE
  5
EB
330
E7
100
AcDbEntity
  8
Numbers
370
     0
100
AcDb2dPolyline
 66
     1
 10
0.0
 20
0.0
 30
0.0
  0
VERTEX
  5
EC
330
EB
100
AcDbEntity
  8
Numbers
370
     0
100
AcDbVertex
100
AcDb2dVertex
 10
11.6327094154946
 20
-19.63773328502112
 30
0.0
  0
VERTEX
  5
ED
330
EB
100
AcDbEntity
  8
Numbers
370
     0
100
AcDbVertex
100
AcDb2dVertex
 10
11.6327094154946
 20
-16.8809678777242
 30
0.0
  0
VERTEX
  5
EE
330
EB
100
AcDbEntity
  8
Numbers
370
     0
100
AcDbVertex
100
AcDb2dVertex
 10
11.19862738435312
 20
-16.8809678777242
 30
0.0
  0
VERTEX
  5
EF
330
EB
100
AcDbEntity
  8
Numbers
370
     0
100
AcDbVertex
100
AcDb2dVertex
 10
11.19862738435312
 20
-16.58675672328387
 30
0.0
  0
VERTEX
  5
F0
330
EB
100
AcDbEntity
  8
Numbers
370
     0
100
AcDbVertex
100
AcDb2dVertex
 10
12.36892632069249
 20
-16.58675672328387
 30
0.0
  0
VERTEX
  5
F1
330
EB
100
AcDbEntity
  8
Numbers
370
     0
100
AcDbVertex
100
AcDb2dVertex
 10
12.36892632069249
 20
-16.8809678777242
 30
0.0
  0
VERTEX
  5
F2
330
EB
100
AcDbEntity
  8
Numbers
370
     0
100
AcDbVertex
100
AcDb2dVertex
 10
11.93312174180839
 20
-16.8809678777242
 30
0.0
  0
VERTEX
  5
F3
330
EB
100
AcDbEntity
  8
Numbers
370
     0
100
AcDbVertex
100
AcDb2dVertex
 10
11.93312174180839
 20
-19.34283311148374
 30
0.0
  0
VERTEX
  5
F4
330
EB
100
AcDbEntity
  8
Numbers
370
     0
100
AcDbVertex
100
AcDb2dVertex
 10
12.36892632069249
 20
-19.34283311148374
 30
0.0
  0
VERTEX
  5
F5
330
EB
100
AcDbEntity
  8
Numbers
370
     0
100
AcDbVertex
100
AcDb2dVertex
 10
12.36892632069249
 20
-19.63773328502112
 30
0.0
  0
VERTEX
  5
F6
330
EB
100
AcDbEntity
  8
Numbers
370
     0
100
AcDbVertex
100
AcDb2dVertex
 10
11.6327094154946
 20
-19.63773328502112
 30
0.0
  0
SEQEND
  5
F7
330
EB
100
AcDbEntity
  8
Numbers
370
     0
  0
HATCH
  5
F8
330
E7
100
AcDbEntity
  8
Numbers
 62
   250
420
  2301728
100
AcDbHatch
 10
0.0
 20
0.0
 30
0.0
210
0.0
220
0.0
230
1.0
  2
SOLID
 70
     1
 71
     0
 91
        1
 92
        1
 93
       10
 72
     1
 10
11.6327094154946
 20
-19.63773328502112
 11
11.6327094154946
 21
-16.8809678777242
 72
     1
 10
11.6327094154946
 20
-16.8809678777242
 11
11.19862738435312
 21
-16.8809678777242
 72
     1
 10
11.19862738435312
 20
-16.8809678777242
 11
11.19862738435312
 21
-16.58675672328387
 72
     1
 10
11.19862738435312
 20
-16.58675672328387
 11
12.36892632069249
 21
-16.58675672328387
 72
     1
 10
12.36892632069249
 20
-16.58675672328387
 11
12.36892632069249
 21
-16.8809678777242
 72
     1
 10
12.36892632069249
 20
-16.8809678777242
 11
11.93312174180839
 21
-16.8809678777242
 72
     1
 10
11.93312174180839
 20
-16.8809678777242
 11
11.93312174180839
 21
-19.34283311148374
 72
     1
 10
11.93312174180839
 20
-19.34283311148374
 11
12.36892632069249
 21
-19.34283311148374
 72
     1
 10
12.36892632069249
 20
-19.34283311148374
 11
12.36892632069249
 21
-19.63773328502112
 72
     1
 10
12.36892632069249
 20
-19.63773328502112
 11
11.6327094154946
 21
-19.63773328502112
 97
        0
 75
     2
 76
     1
 98
        0
  0
SPLINE
  5
F9
330
E7
100
AcDbEntity
  8
Numbers
370
     0
100
AcDbSpline
210
0.0
220
0.0
230
1.0
 70
    11
 71
     3
 72
    77
 73
    73
 74
     0
 42
0.0000000001
 43
0.0000000001
 12
1.0
 22
0.0
 32
0.0
 13
1.0
 23
0.0
 33
0.0
 40
0.0
 40
0.0
 40
0.0
 40
0.0
 40
1.0
 40
1.0
 40
1.0
 40
2.0
 40
2.0
 40
2.0
 40
3.0
 40
3.0
 40
3.0
 40
4.0
 40
4.0
 40
4.0
 40
5.0
 40
5.0
 40
5.0
 40
6.0
 40
6.0
 40
6.0
 40
7.0
 40
7.0
 40
7.0
 40
8.0
 40
8.0
 40
8.0
 40
9.0
 40
9.0
 40
9.0
 40
10.0
 40
10.0
 40
10.0
 40
11.0
 40
11.0
 40
11.0
 40
12.0
 40
12.0
 40
12.0
 40
13.0
 40
13.0
 40
13.0
 40
14.0
 40
14.0
 40
14.0
 40
15.0
 40
15.0
 40
15.0
 40
16.0
 40
16.0
 40
16.0
 40
17.0
 40
17.0
 40
17.0
 40
18.0
 40
18.0
 40
18.0
 40
19.0
 40
19.0
 40
19.0
 40
20.0
 40
20.0
 40
20.0
 40
21.0
 40
21.0
 40
21.0
 40
22.0
 40
22.0
 40
22.0
 40
23.0
 40
23.0
 40
23.0
 40
24.0
 40
24.0
 40
24.0
 40
24.0
 10
9.927042640747407
 20
-18.04230956580192
 30
0.0
 10
9.927042640747407
 20
-18.19113769076472
 30
0.0
 10
9.96735025792483
 20
-18.28243272112384
 30
0.0
 10
10.04796549227968
 20
-18.31688367597634
 30
0.0
 10
10.08207193758365
 20
-18.33410915340259
 30
0.0
 10
10.13478189850797
 20
-18.34306640166423
 30
0.0
 10
10.20609537505264
 20
-18.34306640166423
 30
0.0
 10
10.22263183338184
 20
-18.34306640166423
 30
0.0
 10
10.23882378216252
 20
-18.34237738256719
 30
0.0
 10
10.25398220229762
 20
-18.34168836347013
 30
0.0
 10
10.39178602170761
 20
-18.33548719159668
 30
0.0
 10
10.46964517967426
 20
-18.26934135827989
 30
0.0
 10
10.4882486952946
 20
-18.14325086351974
 30
0.0
 10
10.4882486952946
 20
-18.14325086351974
 30
0.0
 10
10.48962673348871
 20
-18.08571776891607
 30
0.0
 10
10.48962673348871
 20
-18.08571776891607
 30
0.0
 10
10.48962673348871
 20
-18.08571776891607
 30
0.0
 10
10.79210611709364
 20
-18.08571776891607
 30
0.0
 10
10.79210611709364
 20
-18.08571776891607
 30
0.0
 10
10.79210611709364
 20
-18.08571776891607
 30
0.0
 10
10.73009439835914
 20
-19.64048936140932
 30
0.0
 10
10.73009439835914
 20
-19.64048936140932
 30
0.0
 10
10.73009439835914
 20
-19.64048936140932
 30
0.0
 10
9.624907766690995
 20
-19.64048936140932
 30
0.0
 10
9.624907766690995
 20
-19.64048936140932
 30
0.0
 10
9.624907766690995
 20
-19.64048936140932
 30
0.0
 10
9.624907766690995
 20
-19.34455565922636
 30
0.0
 10
9.624907766690995
 20
-19.34455565922636
 30
0.0
 10
9.624907766690995
 20
-19.34455565922636
 30
0.0
 10
10.43863932030701
 20
-19.34455565922636
 30
0.0
 10
10.43863932030701
 20
-19.34455565922636
 30
0.0
 10
10.43863932030701
 20
-19.34455565922636
 30
0.0
 10
10.48066948522706
 20
-18.38957519071511
 30
0.0
 10
10.48066948522706
 20
-18.38957519071511
 30
0.0
 10
10.34217664672001
 20
-18.5425374302602
 30
0.0
 10
10.20575086550412
 20
-18.62211913596947
 30
0.0
 10
10.07139214157938
 20
-18.62832030784292
 30
0.0
 10
10.05898979783248
 20
-18.62832030784292
 30
0.0
 10
10.04314235860033
 20
-18.62694226964882
 30
0.0
 10
10.02453884297998
 20
-18.62349717416357
 30
0.0
 10
9.886390514021459
 20
-18.61247286861077
 30
0.0
 10
9.782004120818389
 20
-18.55872937904087
 30
0.0
 10
9.711724172919292
 20
-18.46226670545388
 30
0.0
 10
9.653846568767094
 20
-18.38165147109903
 30
0.0
 10
9.624907766690995
 20
-18.24178059439789
 30
0.0
 10
9.624907766690995
 20
-18.04230956580192
 30
0.0
 10
9.624907766690995
 20
-18.04230956580192
 30
0.0
 10
9.624907766690995
 20
-17.12901475266219
 30
0.0
 10
9.624907766690995
 20
-17.12901475266219
 30
0.0
 10
9.624907766690995
 20
-16.73351779095551
 30
0.0
 10
9.819900171156137
 20
-16.53542480055365
 30
0.0
 10
10.21057399918347
 20
-16.53542480055365
 30
0.0
 10
10.60055880811375
 20
-16.53542480055365
 30
0.0
 10
10.79520670303036
 20
-16.73351779095551
 30
0.0
 10
10.79520670303036
 20
-17.12901475266219
 30
0.0
 10
10.79520670303036
 20
-17.12901475266219
 30
0.0
 10
10.79520670303036
 20
-17.43011609807303
 30
0.0
 10
10.79520670303036
 20
-17.43011609807303
 30
0.0
 10
10.79520670303036
 20
-17.43011609807303
 30
0.0
 10
10.49307182897395
 20
-17.43011609807303
 30
0.0
 10
10.49307182897395
 20
-17.43011609807303
 30
0.0
 10
10.49307182897395
 20
-17.43011609807303
 30
0.0
 10
10.49307182897395
 20
-17.12901475266219
 30
0.0
 10
10.49307182897395
 20
-17.12901475266219
 30
0.0
 10
10.49307182897395
 20
-16.9305772527118
 30
0.0
 10
10.39902072222663
 20
-16.83135850273661
 30
0.0
 10
10.21057399918347
 20
-16.83135850273661
 30
0.0
 10
10.02178276659178
 20
-16.83135850273661
 30
0.0
 10
9.927042640747407
 20
-16.9305772527118
 30
0.0
 10
9.927042640747407
 20
-17.12901475266219
 30
0.0
 10
9.927042640747407
 20
-17.12901475266219
 30
0.0
 10
9.927042640747407
 20
-18.04230956580192
 30
0.0
 10
9.927042640747407
 20
-18.04230956580192
 30
0.0
  0
HATCH
  5
FA
330
E7
100
AcDbEntity
  8
Numbers
 62
   250
420
  2301728
100
AcDbHatch
 10
0.0
 20
0.0
 30
0.0
210
0.0
220
0.0
230
1.0
  2
SOLID
 70
     1
 71
     0
 91
        1
 92
        1
 93
        1
 72
     4
 94
        3
 73
     0
 74
     1
 95
       77
 96
       73
 40
0.0
 40
0.0
 40
0.0
 40
0.0
 40
1.0
 40
1.0
 40
1.0
 40
2.0
 40
2.0
 40
2.0
 40
3.0
 40
3.0
 40
3.0
 40
4.0
 40
4.0
 40
4.0
 40
5.0
 40
5.0
 40
5.0
 40
6.0
 40
6.0
 40
6.0
 40
7.0
 40
7.0
 40
7.0
 40
8.0
 40
8.0
 40
8.0
 40
9.0
 40
9.0
 40
9.0
 40
10.0
 40
10.0
 40
10.0
 40
11.0
 40
11.0
 40
11.0
 40
12.0
 40
12.0
 40
12.0
 40
13.0
 40
13.0
 40
13.0
 40
14.0
 40
14.0
 40
14.0
 40
15.0
 40
15.0
 40
15.0
 40
16.0
 40
16.0
 40
16.0
 40
17.0
 40
17.0
 40
17.0
 40
18.0
 40
18.0
 40
18.0
 40
19.0
 40
19.0
 40
19.0
 40
20.0
 40
20.0
 40
20.0
 40
21.0
 40
21.0
 40
21.0
 40
22.0
 40
22.0
 40
22.0
 40
23.0
 40
23.0
 40
23.0
 40
24.0
 40
24.0
 40
24.0
 40
24.0
 10
9.927042640747407
 20
-18.04230956580192
 10
9.927042640747407
 20
-18.19113769076472
 10
9.96735025792483
 20
-18.28243272112384
 10
10.04796549227968
 20
-18.31688367597634
 10
10.08207193758365
 20
-18.33410915340259
 10
10.13478189850797
 20
-18.34306640166423
 10
10.20609537505264
 20
-18.34306640166423
 10
10.22263183338184
 20
-18.34306640166423
 10
10.23882378216252
 20
-18.34237738256719
 10
10.25398220229762
 20
-18.34168836347013
 10
10.39178602170761
 20
-18.33548719159668
 10
10.46964517967426
 20
-18.26934135827989
 10
10.4882486952946
 20
-18.14325086351974
 10
10.4882486952946
 20
-18.14325086351974
 10
10.48962673348871
 20
-18.08571776891607
 10
10.48962673348871
 20
-18.08571776891607
 10
10.48962673348871
 20
-18.08571776891607
 10
10.79210611709364
 20
-18.08571776891607
 10
10.79210611709364
 20
-18.08571776891607
 10
10.79210611709364
 20
-18.08571776891607
 10
10.73009439835914
 20
-19.64048936140932
 10
10.73009439835914
 20
-19.64048936140932
 10
10.73009439835914
 20
-19.64048936140932
 10
9.624907766690995
 20
-19.64048936140932
 10
9.624907766690995
 20
-19.64048936140932
 10
9.624907766690995
 20
-19.64048936140932
 10
9.624907766690995
 20
-19.34455565922636
 10
9.624907766690995
 20
-19.34455565922636
 10
9.624907766690995
 20
-19.34455565922636
 10
10.43863932030701
 20
-19.34455565922636
 10
10.43863932030701
 20
-19.34455565922636
 10
10.43863932030701
 20
-19.34455565922636
 10
10.48066948522706
 20
-18.38957519071511
 10
10.48066948522706
 20
-18.38957519071511
 10
10.34217664672001
 20
-18.5425374302602
 10
10.20575086550412
 20
-18.62211913596947
 10
10.07139214157938
 20
-18.62832030784292
 10
10.05898979783248
 20
-18.62832030784292
 10
10.04314235860033
 20
-18.62694226964882
 10
10.02453884297998
 20
-18.62349717416357
 10
9.886390514021459
 20
-18.61247286861077
 10
9.782004120818389
 20
-18.55872937904087
 10
9.711724172919292
 20
-18.46226670545388
 10
9.653846568767094
 20
-18.38165147109903
 10
9.624907766690995
 20
-18.24178059439789
 10
9.624907766690995
 20
-18.04230956580192
 10
9.624907766690995
 20
-18.04230956580192
 10
9.624907766690995
 20
-17.12901475266219
 10
9.624907766690995
 20
-17.12901475266219
 10
9.624907766690995
 20
-16.73351779095551
 10
9.819900171156137
 20
-16.53542480055365
 10
10.21057399918347
 20
-16.53542480055365
 10
10.60055880811375
 20
-16.53542480055365
 10
10.79520670303036
 20
-16.73351779095551
 10
10.79520670303036
 20
-17.12901475266219
 10
10.79520670303036
 20
-17.12901475266219
 10
10.79520670303036
 20
-17.43011609807303
 10
10.79520670303036
 20
-17.43011609807303
 10
10.79520670303036
 20
-17.43011609807303
 10
10.49307182897395
 20
-17.43011609807303
 10
10.49307182897395
 20
-17.43011609807303
 10
10.49307182897395
 20
-17.43011609807303
 10
10.49307182897395
 20
-17.12901475266219
 10
10.49307182897395
 20
-17.12901475266219
 10
10.49307182897395
 20
-16.9305772527118
 10
10.39902072222663
 20
-16.83135850273661
 10
10.21057399918347
 20
-16.83135850273661
 10
10.02178276659178
 20
-16.83135850273661
 10
9.927042640747407
 20
-16.9305772527118
 10
9.927042640747407
 20
-17.12901475266219
 10
9.927042640747407
 20
-17.12901475266219
 10
9.927042640747407
 20
-18.04230956580192
 10
9.927042640747407
 20
-18.04230956580192
 97
        0
 97
        0
 75
     2
 76
     1
 98
        0
  0
ENDBLK
  5
EA
330
E7
100
AcDbEntity
  8
0
100
AcDbBlockEnd
  0
BLOCK
  5
FD
330
FB
100
AcDbEntity
  8
0
100
AcDbBlockBegin
  2
block 10
 70
     0
 10
0.0
 20
0.0
 30
0.0
  3
block 10
  1

  0
POLYLINE
  5
FF
330
FB
100
AcDbEntity
  8
Numbers
370
     0
100
AcDb2dPolyline
 66
     1
 10
0.0
 20
0.0
 30
0.0
  0
VERTEX
  5
100
330
FF
100
AcDbEntity
  8
Numbers
370
     0
100
AcDbVertex
100
AcDb2dVertex
 10
16.60501572935569
 20
-17.61959634976177
 30
0.0
  0
VERTEX
  5
101
330
FF
100
AcDbEntity
  8
Numbers
370
     0
100
AcDbVertex
100
AcDb2dVertex
 10
14.98478732264269
 20
-15.38924153261102
 30
0.0
  0
VERTEX
  5
102
330
FF
100
AcDbEntity
  8
Numbers
370
     0
100
AcDbVertex
100
AcDb2dVertex
 10
14.63373209269573
 20
-15.64452310806804
 30
0.0
  0
VERTEX
  5
103
330
FF
100
AcDbEntity
  8
Numbers
370
     0
100
AcDbVertex
100
AcDb2dVertex
 10
14.46044378978767
 20
-15.40646701003727
 30
0.0
  0
VERTEX
  5
104
330
FF
100
AcDbEntity
  8
Numbers
370
     0
100
AcDbVertex
100
AcDb2dVertex
 10
15.40715602913432
 20
-14.71813693208436
 30
0.0
  0
VERTEX
  5
105
330
FF
100
AcDbEntity
  8
Numbers
370
     0
100
AcDbVertex
100
AcDb2dVertex
 10
15.58044433204239
 20
-14.95653753966364
 30
0.0
  0
VERTEX
  5
106
330
FF
100
AcDbEntity
  8
Numbers
370
     0
100
AcDbVertex
100
AcDb2dVertex
 10
15.22801106390133
 20
-15.21285264376623
 30
0.0
  0
VERTEX
  5
107
330
FF
100
AcDbEntity
  8
Numbers
370
     0
100
AcDbVertex
100
AcDb2dVertex
 10
16.67495116770626
 20
-17.20411783424064
 30
0.0
  0
VERTEX
  5
108
330
FF
100
AcDbEntity
  8
Numbers
370
     0
100
AcDbVertex
100
AcDb2dVertex
 10
17.02772894539585
 20
-16.94814723968657
 30
0.0
  0
VERTEX
  5
109
330
FF
100
AcDbEntity
  8
Numbers
370
     0
100
AcDbVertex
100
AcDb2dVertex
 10
17.20067273875539
 20
-17.18654784726586
 30
0.0
  0
VERTEX
  5
10A
330
FF
100
AcDbEntity
  8
Numbers
370
     0
100
AcDbVertex
100
AcDb2dVertex
 10
16.60501572935569
 20
-17.61959634976177
 30
0.0
  0
SEQEND
  5
10B
330
FF
100
AcDbEntity
  8
Numbers
370
     0
  0
HATCH
  5
10C
330
FB
100
AcDbEntity
  8
Numbers
 62
   250
420
  2301728
100
AcDbHatch
 10
0.0
 20
0.0
 30
0.0
210
0.0
220
0.0
230
1.0
  2
SOLID
 70
     1
 71
     0
 91
        1
 92
        1
 93
       10
 72
     1
 10
16.60501572935569
 20
-17.61959634976177
 11
14.98478732264269
 21
-15.38924153261102
 72
     1
 10
14.98478732264269
 20
-15.38924153261102
 11
14.63373209269573
 21
-15.64452310806804
 72
     1
 10
14.63373209269573
 20
-15.64452310806804
 11
14.46044378978767
 21
-15.40646701003727
 72
     1
 10
14.46044378978767
 20
-15.40646701003727
 11
15.40715602913432
 21
-14.71813693208436
 72
     1
 10
15.40715602913432
 20
-14.71813693208436
 11
15.58044433204239
 21
-14.95653753966364
 72
     1
 10
15.58044433204239
 20
-14.95653753966364
 11
15.22801106390133
 21
-15.21285264376623
 72
     1
 10
15.22801106390133
 20
-15.21285264376623
 11
16.67495116770626
 21
-17.20411783424064
 72
     1
 10
16.67495116770626
 20
-17.20411783424064
 11
17.02772894539585
 21
-16.94814723968657
 72
     1
 10
17.02772894539585
 20
-16.94814723968657
 11
17.20067273875539
 21
-17.18654784726586
 72
     1
 10
17.20067273875539
 20
-17.18654784726586
 11
16.60501572935569
 21
-17.61959634976177
 97
        0
 75
     2
 76
     1
 98
        0
  0
POLYLINE
  5
10D
330
FB
100
AcDbEntity
  8
Numbers
370
     0
100
AcDb2dPolyline
 66
     1
 10
0.0
 20
0.0
 30
0.0
  0
VERTEX
  5
10E
330
10D
100
AcDbEntity
  8
Numbers
370
     0
100
AcDbVertex
100
AcDb2dVertex
 10
15.01923827749519
 20
-18.77129177048079
 30
0.0
  0
VERTEX
  5
10F
330
10D
100
AcDbEntity
  8
Numbers
370
     0
100
AcDbVertex
100
AcDb2dVertex
 10
13.8623752135483
 20
-17.17862412764979
 30
0.0
  0
VERTEX
  5
110
330
10D
100
AcDbEntity
  8
Numbers
370
     0
100
AcDbVertex
100
AcDb2dVertex
 10
13.71837022226485
 20
-17.28335503040138
 30
0.0
  0
VERTEX
  5
111
330
10D
100
AcDbEntity
  8
Numbers
370
     0
100
AcDbVertex
100
AcDb2dVertex
 10
13.54508191935679
 20
-17.04495442282209
 30
0.0
  0
VERTEX
  5
112
330
10D
100
AcDbEntity
  8
Numbers
370
     0
100
AcDbVertex
100
AcDb2dVertex
 10
13.68908691064023
 20
-16.9402235200705
 30
0.0
  0
VERTEX
  5
113
330
10D
100
AcDbEntity
  8
Numbers
370
     0
100
AcDbVertex
100
AcDb2dVertex
 10
13.22606607742265
 20
-16.30288085529928
 30
0.0
  0
VERTEX
  5
114
330
10D
100
AcDbEntity
  8
Numbers
370
     0
100
AcDbVertex
100
AcDb2dVertex
 10
13.47032334732686
 20
-16.12545843780891
 30
0.0
  0
VERTEX
  5
115
330
10D
100
AcDbEntity
  8
Numbers
370
     0
100
AcDbVertex
100
AcDb2dVertex
 10
13.93334418054444
 20
-16.76245659303161
 30
0.0
  0
VERTEX
  5
116
330
10D
100
AcDbEntity
  8
Numbers
370
     0
100
AcDbVertex
100
AcDb2dVertex
 10
14.69505479233318
 20
-16.20917425810049
 30
0.0
  0
VERTEX
  5
117
330
10D
100
AcDbEntity
  8
Numbers
370
     0
100
AcDbVertex
100
AcDb2dVertex
 10
14.8773003435029
 20
-16.4603217189752
 30
0.0
  0
VERTEX
  5
118
330
10D
100
AcDbEntity
  8
Numbers
370
     0
100
AcDbVertex
100
AcDb2dVertex
 10
15.38924153261102
 20
-18.5025743226313
 30
0.0
  0
VERTEX
  5
119
330
10D
100
AcDbEntity
  8
Numbers
370
     0
100
AcDbVertex
100
AcDb2dVertex
 10
15.01923827749519
 20
-18.77129177048079
 30
0.0
  0
SEQEND
  5
11A
330
10D
100
AcDbEntity
  8
Numbers
370
     0
  0
POLYLINE
  5
11B
330
FB
100
AcDbEntity
  8
Numbers
370
     0
100
AcDb2dPolyline
 66
     1
 10
0.0
 20
0.0
 30
0.0
  0
VERTEX
  5
11C
330
11B
100
AcDbEntity
  8
Numbers
370
     0
100
AcDbVertex
100
AcDb2dVertex
 10
14.65991481838363
 20
-16.59915906703077
 30
0.0
  0
VERTEX
  5
11D
330
11B
100
AcDbEntity
  8
Numbers
370
     0
100
AcDbVertex
100
AcDb2dVertex
 10
14.10663248345251
 20
-17.0008572006109
 30
0.0
  0
VERTEX
  5
11E
330
11B
100
AcDbEntity
  8
Numbers
370
     0
100
AcDbVertex
100
AcDb2dVertex
 10
15.12534721844089
 20
-18.40301106310758
 30
0.0
  0
VERTEX
  5
11F
330
11B
100
AcDbEntity
  8
Numbers
370
     0
100
AcDbVertex
100
AcDb2dVertex
 10
14.65991481838363
 20
-16.59915906703077
 30
0.0
  0
SEQEND
  5
120
330
11B
100
AcDbEntity
  8
Numbers
370
     0
  0
HATCH
  5
121
330
FB
100
AcDbEntity
  8
Numbers
 62
   250
420
  2301728
100
AcDbHatch
 10
0.0
 20
0.0
 30
0.0
210
0.0
220
0.0
230
1.0
  2
SOLID
 70
     1
 71
     0
 91
        2
 92
        1
 93
       11
 72
     1
 10
15.01923827749519
 20
-18.77129177048079
 11
13.8623752135483
 21
-17.17862412764979
 72
     1
 10
13.8623752135483
 20
-17.17862412764979
 11
13.71837022226485
 21
-17.28335503040138
 72
     1
 10
13.71837022226485
 20
-17.28335503040138
 11
13.54508191935679
 21
-17.04495442282209
 72
     1
 10
13.54508191935679
 20
-17.04495442282209
 11
13.68908691064023
 21
-16.9402235200705
 72
     1
 10
13.68908691064023
 20
-16.9402235200705
 11
13.22606607742265
 21
-16.30288085529928
 72
     1
 10
13.22606607742265
 20
-16.30288085529928
 11
13.47032334732686
 21
-16.12545843780891
 72
     1
 10
13.47032334732686
 20
-16.12545843780891
 11
13.93334418054444
 21
-16.76245659303161
 72
     1
 10
13.93334418054444
 20
-16.76245659303161
 11
14.69505479233318
 21
-16.20917425810049
 72
     1
 10
14.69505479233318
 20
-16.20917425810049
 11
14.8773003435029
 21
-16.4603217189752
 72
     1
 10
14.8773003435029
 20
-16.4603217189752
 11
15.38924153261102
 21
-18.5025743226313
 72
     1
 10
15.38924153261102
 20
-18.5025743226313
 11
15.01923827749519
 21
-18.77129177048079
 97
        0
 92
        1
 93
        3
 72
     1
 10
14.65991481838363
 20
-16.59915906703077
 11
14.10663248345251
 21
-17.0008572006109
 72
     1
 10
14.10663248345251
 20
-17.0008572006109
 11
15.12534721844089
 21
-18.40301106310758
 72
     1
 10
15.12534721844089
 20
-18.40301106310758
 11
14.65991481838363
 21
-16.59915906703077
 97
        0
 75
     2
 76
     1
 98
        0
  0
ENDBLK
  5
FE
330
FB
100
AcDbEntity
  8
0
100
AcDbBlockEnd
  0
BLOCK
  5
124
330
122
100
AcDbEntity
  8
0
100
AcDbBlockBegin
  2
block 11
 70
     0
 10
0.0
 20
0.0
 30
0.0
  3
block 11
  1

  0
POLYLINE
  5
126
330
122
100
AcDbEntity
  8
Numbers
370
     0
100
AcDb2dPolyline
 66
     1
 10
0.0
 20
0.0
 30
0.0
  0
VERTEX
  5
127
330
126
100
AcDbEntity
  8
Numbers
370
     0
100
AcDbVertex
100
AcDb2dVertex
 10
19.38245170956411
 20
-13.11754556963728
 30
0.0
  0
VERTEX
  5
128
330
126
100
AcDbEntity
  8
Numbers
370
     0
100
AcDbVertex
100
AcDb2dVertex
 10
16.76073404528898
 20
-12.265573456135
 30
0.0
  0
VERTEX
  5
129
330
126
100
AcDbEntity
  8
Numbers
370
     0
100
AcDbVertex
100
AcDb2dVertex
 10
16.62671983091277
 20
-12.67864040481645
 30
0.0
  0
VERTEX
  5
12A
330
126
100
AcDbEntity
  8
Numbers
370
     0
100
AcDbVertex
100
AcDb2dVertex
 10
16.34663356796195
 20
-12.58768988400586
 30
0.0
  0
VERTEX
  5
12B
330
126
100
AcDbEntity
  8
Numbers
370
     0
100
AcDbVertex
100
AcDb2dVertex
 10
16.70802408436466
 20
-11.47423502317311
 30
0.0
  0
VERTEX
  5
12C
330
126
100
AcDbEntity
  8
Numbers
370
     0
100
AcDbVertex
100
AcDb2dVertex
 10
16.988454856864
 20
-11.56553005353223
 30
0.0
  0
VERTEX
  5
12D
330
126
100
AcDbEntity
  8
Numbers
370
     0
100
AcDbVertex
100
AcDb2dVertex
 10
16.85375162339073
 20
-11.97997504040779
 30
0.0
  0
VERTEX
  5
12E
330
126
100
AcDbEntity
  8
Numbers
370
     0
100
AcDbVertex
100
AcDb2dVertex
 10
19.19503851516652
 20
-12.74065212355095
 30
0.0
  0
VERTEX
  5
12F
330
126
100
AcDbEntity
  8
Numbers
370
     0
100
AcDbVertex
100
AcDb2dVertex
 10
19.32974174863979
 20
-12.32620713667539
 30
0.0
  0
VERTEX
  5
130
330
126
100
AcDbEntity
  8
Numbers
370
     0
100
AcDbVertex
100
AcDb2dVertex
 10
19.6098280115906
 20
-12.41715765748599
 30
0.0
  0
VERTEX
  5
131
330
126
100
AcDbEntity
  8
Numbers
370
     0
100
AcDbVertex
100
AcDb2dVertex
 10
19.38245170956411
 20
-13.11754556963728
 30
0.0
  0
SEQEND
  5
132
330
126
100
AcDbEntity
  8
Numbers
370
     0
  0
HATCH
  5
133
330
122
100
AcDbEntity
  8
Numbers
 62
   250
420
  2301728
100
AcDbHatch
 10
0.0
 20
0.0
 30
0.0
210
0.0
220
0.0
230
1.0
  2
SOLID
 70
     1
 71
     0
 91
        1
 92
        1
 93
       10
 72
     1
 10
19.38245170956411
 20
-13.11754556963728
 11
16.76073404528898
 21
-12.265573456135
 72
     1
 10
16.76073404528898
 20
-12.265573456135
 11
16.62671983091277
 21
-12.67864040481645
 72
     1
 10
16.62671983091277
 20
-12.67864040481645
 11
16.34663356796195
 21
-12.58768988400586
 72
     1
 10
16.34663356796195
 20
-12.58768988400586
 11
16.70802408436466
 21
-11.47423502317311
 72
     1
 10
16.70802408436466
 20
-11.47423502317311
 11
16.988454856864
 21
-11.56553005353223
 72
     1
 10
16.988454856864
 20
-11.56553005353223
 11
16.85375162339073
 21
-11.97997504040779
 72
     1
 10
16.85375162339073
 20
-11.97997504040779
 11
19.19503851516652
 21
-12.74065212355095
 72
     1
 10
19.19503851516652
 20
-12.74065212355095
 11
19.32974174863979
 21
-12.32620713667539
 72
     1
 10
19.32974174863979
 20
-12.32620713667539
 11
19.6098280115906
 21
-12.41715765748599
 72
     1
 10
19.6098280115906
 20
-12.41715765748599
 11
19.38245170956411
 21
-13.11754556963728
 97
        0
 75
     2
 76
     1
 98
        0
  0
SPLINE
  5
134
330
122
100
AcDbEntity
  8
Numbers
370
     0
100
AcDbSpline
210
0.0
220
0.0
230
1.0
 70
    11
 71
     3
 72
    80
 73
    76
 74
     0
 42
0.0000000001
 43
0.0000000001
 12
1.0
 22
0.0
 32
0.0
 13
1.0
 23
0.0
 33
0.0
 40
0.0
 40
0.0
 40
0.0
 40
0.0
 40
1.0
 40
1.0
 40
1.0
 40
2.0
 40
2.0
 40
2.0
 40
3.0
 40
3.0
 40
3.0
 40
4.0
 40
4.0
 40
4.0
 40
5.0
 40
5.0
 40
5.0
 40
6.0
 40
6.0
 40
6.0
 40
7.0
 40
7.0
 40
7.0
 40
8.0
 40
8.0
 40
8.0
 40
9.0
 40
9.0
 40
9.0
 40
10.0
 40
10.0
 40
10.0
 40
11.0
 40
11.0
 40
11.0
 40
12.0
 40
12.0
 40
12.0
 40
13.0
 40
13.0
 40
13.0
 40
14.0
 40
14.0
 40
14.0
 40
15.0
 40
15.0
 40
15.0
 40
16.0
 40
16.0
 40
16.0
 40
17.0
 40
17.0
 40
17.0
 40
18.0
 40
18.0
 40
18.0
 40
19.0
 40
19.0
 40
19.0
 40
20.0
 40
20.0
 40
20.0
 40
21.0
 40
21.0
 40
21.0
 40
22.0
 40
22.0
 40
22.0
 40
23.0
 40
23.0
 40
23.0
 40
24.0
 40
24.0
 40
24.0
 40
25.0
 40
25.0
 40
25.0
 40
25.0
 10
17.63854437493064
 20
-14.02946234458291
 30
0.0
 10
17.60547145827224
 20
-14.23168944956708
 30
0.0
 10
17.68436414488447
 20
-14.36260307800657
 30
0.0
 10
17.87487792521878
 20
-14.42116970125582
 30
0.0
 10
17.87487792521878
 20
-14.42116970125582
 30
0.0
 10
18.33927679663046
 20
-14.57206488350976
 30
0.0
 10
18.33927679663046
 20
-14.57206488350976
 30
0.0
 10
18.52806802922215
 20
-14.63338758314721
 30
0.0
 10
18.65140244759409
 20
-14.57447645034944
 30
0.0
 10
18.70962456129482
 20
-14.39567599466497
 30
0.0
 10
18.76819118454407
 20
-14.21584201033493
 30
0.0
 10
18.70273437032432
 20
-14.09491915880266
 30
0.0
 10
18.51394313773262
 20
-14.03359645916521
 30
0.0
 10
18.51394313773262
 20
-14.03359645916521
 30
0.0
 10
18.17942436611487
 20
-13.92473144183132
 30
0.0
 10
18.17942436611487
 20
-13.92473144183132
 30
0.0
 10
18.17942436611487
 20
-13.92473144183132
 30
0.0
 10
18.27278645376514
 20
-13.63741047836148
 30
0.0
 10
18.27278645376514
 20
-13.63741047836148
 30
0.0
 10
18.27278645376514
 20
-13.63741047836148
 30
0.0
 10
18.60764973493142
 20
-13.74627549569538
 30
0.0
 10
18.60764973493142
 20
-13.74627549569538
 30
0.0
 10
18.9838541619207
 20
-13.86857638542175
 30
0.0
 10
19.11235622352052
 20
-14.11593424126268
 30
0.0
 10
18.99281141018236
 20
-14.48766004412114
 30
0.0
 10
18.87223306819861
 20
-14.8580078087855
 30
0.0
 10
18.62349717416357
 20
-14.98203124625449
 30
0.0
 10
18.24591470898019
 20
-14.8593858469796
 30
0.0
 10
18.24591470898019
 20
-14.8593858469796
 30
0.0
 10
17.76670192698194
 20
-14.70366753104631
 30
0.0
 10
17.76670192698194
 20
-14.70366753104631
 30
0.0
 10
17.5730875607109
 20
-14.64096679321476
 30
0.0
 10
17.45526529511535
 20
-14.47973632450507
 30
0.0
 10
17.4132351301953
 20
-14.22066514401428
 30
0.0
 10
17.22823350263739
 20
-14.40601128112072
 30
0.0
 10
17.05012206604997
 20
-14.47077907624342
 30
0.0
 10
16.87924532998158
 20
-14.4153130389309
 30
0.0
 10
16.87924532998158
 20
-14.4153130389309
 30
0.0
 10
16.3762613891351
 20
-14.25201551293005
 30
0.0
 10
16.3762613891351
 20
-14.25201551293005
 30
0.0
 10
15.99902343350024
 20
-14.12937011365516
 30
0.0
 10
15.8701768623519
 20
-13.88270127691127
 30
0.0
 10
15.99075520433565
 20
-13.51235351224691
 30
0.0
 10
16.11236707496496
 20
-13.14097221893698
 30
0.0
 10
16.36144747854853
 20
-13.01660427191946
 30
0.0
 10
16.73799641508634
 20
-13.13890516164583
 30
0.0
 10
16.73799641508634
 20
-13.13890516164583
 30
0.0
 10
17.07251518670409
 20
-13.24777017897972
 30
0.0
 10
17.07251518670409
 20
-13.24777017897972
 30
0.0
 10
17.07251518670409
 20
-13.24777017897972
 30
0.0
 10
16.97949760860235
 20
-13.53509114244956
 30
0.0
 10
16.97949760860235
 20
-13.53509114244956
 30
0.0
 10
16.97949760860235
 20
-13.53509114244956
 30
0.0
 10
16.64463432743607
 20
-13.42622612511567
 30
0.0
 10
16.64463432743607
 20
-13.42622612511567
 30
0.0
 10
16.45584309484437
 20
-13.36490342547822
 30
0.0
 10
16.33250867647243
 20
-13.42450357737304
 30
0.0
 10
16.27394205322318
 20
-13.60433756170308
 30
0.0
 10
16.21571993952246
 20
-13.78313801738755
 30
0.0
 10
16.28083224419368
 20
-13.90337184982277
 30
0.0
 10
16.46962347678537
 20
-13.96469454946022
 30
0.0
 10
16.46962347678537
 20
-13.96469454946022
 30
0.0
 10
16.97260741763185
 20
-14.12799207546106
 30
0.0
 10
16.97260741763185
 20
-14.12799207546106
 30
0.0
 10
17.15519747835009
 20
-14.19069281329261
 30
0.0
 10
17.28335503040138
 20
-14.12558050862138
 30
0.0
 10
17.3567355642372
 20
-13.93334418054444
 30
0.0
 10
17.3567355642372
 20
-13.93334418054444
 30
0.0
 10
17.40186631509398
 20
-13.79450683248887
 30
0.0
 10
17.40186631509398
 20
-13.79450683248887
 30
0.0
 10
17.40186631509398
 20
-13.79450683248887
 30
0.0
 10
17.68505316398151
 20
-13.88649088194505
 30
0.0
 10
17.68505316398151
 20
-13.88649088194505
 30
0.0
 10
17.68505316398151
 20
-13.88649088194505
 30
0.0
 10
17.63854437493064
 20
-14.02946234458291
 30
0.0
 10
17.63854437493064
 20
-14.02946234458291
 30
0.0
  0
HATCH
  5
135
330
122
100
AcDbEntity
  8
Numbers
 62
   250
420
  2301728
100
AcDbHatch
 10
0.0
 20
0.0
 30
0.0
210
0.0
220
0.0
230
1.0
  2
SOLID
 70
     1
 71
     0
 91
        1
 92
        1
 93
        1
 72
     4
 94
        3
 73
     0
 74
     1
 95
       80
 96
       76
 40
0.0
 40
0.0
 40
0.0
 40
0.0
 40
1.0
 40
1.0
 40
1.0
 40
2.0
 40
2.0
 40
2.0
 40
3.0
 40
3.0
 40
3.0
 40
4.0
 40
4.0
 40
4.0
 40
5.0
 40
5.0
 40
5.0
 40
6.0
 40
6.0
 40
6.0
 40
7.0
 40
7.0
 40
7.0
 40
8.0
 40
8.0
 40
8.0
 40
9.0
 40
9.0
 40
9.0
 40
10.0
 40
10.0
 40
10.0
 40
11.0
 40
11.0
 40
11.0
 40
12.0
 40
12.0
 40
12.0
 40
13.0
 40
13.0
 40
13.0
 40
14.0
 40
14.0
 40
14.0
 40
15.0
 40
15.0
 40
15.0
 40
16.0
 40
16.0
 40
16.0
 40
17.0
 40
17.0
 40
17.0
 40
18.0
 40
18.0
 40
18.0
 40
19.0
 40
19.0
 40
19.0
 40
20.0
 40
20.0
 40
20.0
 40
21.0
 40
21.0
 40
21.0
 40
22.0
 40
22.0
 40
22.0
 40
23.0
 40
23.0
 40
23.0
 40
24.0
 40
24.0
 40
24.0
 40
25.0
 40
25.0
 40
25.0
 40
25.0
 10
17.63854437493064
 20
-14.02946234458291
 10
17.60547145827224
 20
-14.23168944956708
 10
17.68436414488447
 20
-14.36260307800657
 10
17.87487792521878
 20
-14.42116970125582
 10
17.87487792521878
 20
-14.42116970125582
 10
18.33927679663046
 20
-14.57206488350976
 10
18.33927679663046
 20
-14.57206488350976
 10
18.52806802922215
 20
-14.63338758314721
 10
18.65140244759409
 20
-14.57447645034944
 10
18.70962456129482
 20
-14.39567599466497
 10
18.76819118454407
 20
-14.21584201033493
 10
18.70273437032432
 20
-14.09491915880266
 10
18.51394313773262
 20
-14.03359645916521
 10
18.51394313773262
 20
-14.03359645916521
 10
18.17942436611487
 20
-13.92473144183132
 10
18.17942436611487
 20
-13.92473144183132
 10
18.17942436611487
 20
-13.92473144183132
 10
18.27278645376514
 20
-13.63741047836148
 10
18.27278645376514
 20
-13.63741047836148
 10
18.27278645376514
 20
-13.63741047836148
 10
18.60764973493142
 20
-13.74627549569538
 10
18.60764973493142
 20
-13.74627549569538
 10
18.9838541619207
 20
-13.86857638542175
 10
19.11235622352052
 20
-14.11593424126268
 10
18.99281141018236
 20
-14.48766004412114
 10
18.87223306819861
 20
-14.8580078087855
 10
18.62349717416357
 20
-14.98203124625449
 10
18.24591470898019
 20
-14.8593858469796
 10
18.24591470898019
 20
-14.8593858469796
 10
17.76670192698194
 20
-14.70366753104631
 10
17.76670192698194
 20
-14.70366753104631
 10
17.5730875607109
 20
-14.64096679321476
 10
17.45526529511535
 20
-14.47973632450507
 10
17.4132351301953
 20
-14.22066514401428
 10
17.22823350263739
 20
-14.40601128112072
 10
17.05012206604997
 20
-14.47077907624342
 10
16.87924532998158
 20
-14.4153130389309
 10
16.87924532998158
 20
-14.4153130389309
 10
16.3762613891351
 20
-14.25201551293005
 10
16.3762613891351
 20
-14.25201551293005
 10
15.99902343350024
 20
-14.12937011365516
 10
15.8701768623519
 20
-13.88270127691127
 10
15.99075520433565
 20
-13.51235351224691
 10
16.11236707496496
 20
-13.14097221893698
 10
16.36144747854853
 20
-13.01660427191946
 10
16.73799641508634
 20
-13.13890516164583
 10
16.73799641508634
 20
-13.13890516164583
 10
17.07251518670409
 20
-13.24777017897972
 10
17.07251518670409
 20
-13.24777017897972
 10
17.07251518670409
 20
-13.24777017897972
 10
16.97949760860235
 20
-13.53509114244956
 10
16.97949760860235
 20
-13.53509114244956
 10
16.97949760860235
 20
-13.53509114244956
 10
16.64463432743607
 20
-13.42622612511567
 10
16.64463432743607
 20
-13.42622612511567
 10
16.45584309484437
 20
-13.36490342547822
 10
16.33250867647243
 20
-13.42450357737304
 10
16.27394205322318
 20
-13.60433756170308
 10
16.21571993952246
 20
-13.78313801738755
 10
16.28083224419368
 20
-13.90337184982277
 10
16.46962347678537
 20
-13.96469454946022
 10
16.46962347678537
 20
-13.96469454946022
 10
16.97260741763185
 20
-14.12799207546106
 10
16.97260741763185
 20
-14.12799207546106
 10
17.15519747835009
 20
-14.19069281329261
 10
17.28335503040138
 20
-14.12558050862138
 10
17.3567355642372
 20
-13.93334418054444
 10
17.3567355642372
 20
-13.93334418054444
 10
17.40186631509398
 20
-13.79450683248887
 10
17.40186631509398
 20
-13.79450683248887
 10
17.40186631509398
 20
-13.79450683248887
 10
17.68505316398151
 20
-13.88649088194505
 10
17.68505316398151
 20
-13.88649088194505
 10
17.68505316398151
 20
-13.88649088194505
 10
17.63854437493064
 20
-14.02946234458291
 10
17.63854437493064
 20
-14.02946234458291
 97
        0
 97
        0
 75
     2
 76
     1
 98
        0
  0
ENDBLK
  5
125
330
122
100
AcDbEntity
  8
0
100
AcDbBlockEnd
  0
BLOCK
  5
138
330
136
100
AcDbEntity
  8
0
100
AcDbBlockBegin
  2
block 12
 70
     0
 10
0.0
 20
0.0
 30
0.0
  3
block 12
  1

  0
POLYLINE
  5
13A
330
136
100
AcDbEntity
  8
Numbers
370
     0
100
AcDb2dPolyline
 66
     1
 10
0.0
 20
0.0
 30
0.0
  0
VERTEX
  5
13B
330
13A
100
AcDbEntity
  8
Numbers
370
     0
100
AcDbVertex
100
AcDb2dVertex
 10
19.0045247348322
 20
-7.751464841812134
 30
0.0
  0
VERTEX
  5
13C
330
13A
100
AcDbEntity
  8
Numbers
370
     0
100
AcDbVertex
100
AcDb2dVertex
 10
16.3831515801056
 20
-8.603436955314418
 30
0.0
  0
VERTEX
  5
13D
330
13A
100
AcDbEntity
  8
Numbers
370
     0
100
AcDbVertex
100
AcDb2dVertex
 10
16.51716579448182
 20
-9.01615939444735
 30
0.0
  0
VERTEX
  5
13E
330
13A
100
AcDbEntity
  8
Numbers
370
     0
100
AcDbVertex
100
AcDb2dVertex
 10
16.23707953153101
 20
-9.10745442480647
 30
0.0
  0
VERTEX
  5
13F
330
13A
100
AcDbEntity
  8
Numbers
370
     0
100
AcDbVertex
100
AcDb2dVertex
 10
15.8756890151283
 20
-7.993999563973722
 30
0.0
  0
VERTEX
  5
140
330
13A
100
AcDbEntity
  8
Numbers
370
     0
100
AcDbVertex
100
AcDb2dVertex
 10
16.15543076853059
 20
-7.903049043163127
 30
0.0
  0
VERTEX
  5
141
330
13A
100
AcDbEntity
  8
Numbers
370
     0
100
AcDbVertex
100
AcDb2dVertex
 10
16.29013400200386
 20
-8.317838539587207
 30
0.0
  0
VERTEX
  5
142
330
13A
100
AcDbEntity
  8
Numbers
370
     0
100
AcDbVertex
100
AcDb2dVertex
 10
18.63176540332817
 20
-7.557161456444043
 30
0.0
  0
VERTEX
  5
143
330
13A
100
AcDbEntity
  8
Numbers
370
     0
100
AcDbVertex
100
AcDb2dVertex
 10
18.4970621698549
 20
-7.142371960019963
 30
0.0
  0
VERTEX
  5
144
330
13A
100
AcDbEntity
  8
Numbers
370
     0
100
AcDbVertex
100
AcDb2dVertex
 10
18.77714843280571
 20
-7.051421439209367
 30
0.0
  0
VERTEX
  5
145
330
13A
100
AcDbEntity
  8
Numbers
370
     0
100
AcDbVertex
100
AcDb2dVertex
 10
19.0045247348322
 20
-7.751464841812134
 30
0.0
  0
SEQEND
  5
146
330
13A
100
AcDbEntity
  8
Numbers
370
     0
  0
HATCH
  5
147
330
136
100
AcDbEntity
  8
Numbers
 62
   250
420
  2301728
100
AcDbHatch
 10
0.0
 20
0.0
 30
0.0
210
0.0
220
0.0
230
1.0
  2
SOLID
 70
     1
 71
     0
 91
        1
 92
        1
 93
       10
 72
     1
 10
19.0045247348322
 20
-7.751464841812134
 11
16.3831515801056
 21
-8.603436955314418
 72
     1
 10
16.3831515801056
 20
-8.603436955314418
 11
16.51716579448182
 21
-9.01615939444735
 72
     1
 10
16.51716579448182
 20
-9.01615939444735
 11
16.23707953153101
 21
-9.10745442480647
 72
     1
 10
16.23707953153101
 20
-9.10745442480647
 11
15.8756890151283
 21
-7.993999563973722
 72
     1
 10
15.8756890151283
 20
-7.993999563973722
 11
16.15543076853059
 21
-7.903049043163127
 72
     1
 10
16.15543076853059
 20
-7.903049043163127
 11
16.29013400200386
 21
-8.317838539587207
 72
     1
 10
16.29013400200386
 20
-8.317838539587207
 11
18.63176540332817
 21
-7.557161456444043
 72
     1
 10
18.63176540332817
 20
-7.557161456444043
 11
18.4970621698549
 21
-7.142371960019963
 72
     1
 10
18.4970621698549
 20
-7.142371960019963
 11
18.77714843280571
 21
-7.051421439209367
 72
     1
 10
18.77714843280571
 20
-7.051421439209367
 11
19.0045247348322
 21
-7.751464841812134
 97
        0
 75
     2
 76
     1
 98
        0
  0
SPLINE
  5
148
330
136
100
AcDbEntity
  8
Numbers
370
     0
100
AcDbSpline
210
0.0
220
0.0
230
1.0
 70
    11
 71
     3
 72
    62
 73
    58
 74
     0
 42
0.0000000001
 43
0.0000000001
 12
1.0
 22
0.0
 32
0.0
 13
1.0
 23
0.0
 33
0.0
 40
0.0
 40
0.0
 40
0.0
 40
0.0
 40
1.0
 40
1.0
 40
1.0
 40
2.0
 40
2.0
 40
2.0
 40
3.0
 40
3.0
 40
3.0
 40
4.0
 40
4.0
 40
4.0
 40
5.0
 40
5.0
 40
5.0
 40
6.0
 40
6.0
 40
6.0
 40
7.0
 40
7.0
 40
7.0
 40
8.0
 40
8.0
 40
8.0
 40
9.0
 40
9.0
 40
9.0
 40
10.0
 40
10.0
 40
10.0
 40
11.0
 40
11.0
 40
11.0
 40
12.0
 40
12.0
 40
12.0
 40
13.0
 40
13.0
 40
13.0
 40
14.0
 40
14.0
 40
14.0
 40
15.0
 40
15.0
 40
15.0
 40
16.0
 40
16.0
 40
16.0
 40
17.0
 40
17.0
 40
17.0
 40
18.0
 40
18.0
 40
18.0
 40
19.0
 40
19.0
 40
19.0
 40
19.0
 10
16.93815646277935
 20
-9.303480357917186
 30
0.0
 10
17.18792588545996
 20
-9.222520614013815
 30
0.0
 10
17.44458549911108
 20
-9.278675670423388
 30
0.0
 10
17.70882432282974
 20
-9.472290036694428
 30
0.0
 10
18.01543782101697
 20
-9.700699867366492
 30
0.0
 10
18.25073784265954
 20
-9.788894311788887
 30
0.0
 10
18.41403536866038
 20
-9.73721787951014
 30
0.0
 10
18.41403536866038
 20
-9.73721787951014
 30
0.0
 10
19.0141710021909
 20
-9.542225475044999
 30
0.0
 10
19.0141710021909
 20
-9.542225475044999
 30
0.0
 10
19.20399576342817
 20
-9.480213756310503
 30
0.0
 10
19.26979708719644
 20
-9.360324433423807
 30
0.0
 10
19.21191948304424
 20
-9.182557506384917
 30
0.0
 10
19.21191948304424
 20
-9.182557506384917
 30
0.0
 10
19.21123046394719
 20
-9.179801429996717
 30
0.0
 10
19.21123046394719
 20
-9.179801429996717
 30
0.0
 10
19.15300835024647
 20
-9.000656464763725
 30
0.0
 10
19.02898491277748
 20
-8.942089841514479
 30
0.0
 10
18.83916015154021
 20
-9.003412541151926
 30
0.0
 10
18.83916015154021
 20
-9.003412541151926
 30
0.0
 10
18.50774196585918
 20
-9.111244029840245
 30
0.0
 10
18.50774196585918
 20
-9.111244029840245
 30
0.0
 10
18.50774196585918
 20
-9.111244029840245
 30
0.0
 10
18.41403536866038
 20
-8.823923066370408
 30
0.0
 10
18.41403536866038
 20
-8.823923066370408
 30
0.0
 10
18.41403536866038
 20
-8.823923066370408
 30
0.0
 10
18.74614257343847
 20
-8.71609157768209
 30
0.0
 10
18.74614257343847
 20
-8.71609157768209
 30
0.0
 10
19.1244140577189
 20
-8.593446178407195
 30
0.0
 10
19.37383897085099
 20
-8.716780596779138
 30
0.0
 10
19.49441731283473
 20
-9.087817380540546
 30
0.0
 10
19.61499565481848
 20
-9.459543183399003
 30
0.0
 10
19.48614908367013
 20
-9.706212020142893
 30
0.0
 10
19.10753308984117
 20
-9.829546438514836
 30
0.0
 10
19.10753308984117
 20
-9.829546438514836
 30
0.0
 10
18.4970621698549
 20
-10.0276394289167
 30
0.0
 10
18.4970621698549
 20
-10.0276394289167
 30
0.0
 10
18.24246961349494
 20
-10.1103217205627
 30
0.0
 10
17.9827094139071
 20
-10.05485568325018
 30
0.0
 10
17.71743706154286
 20
-9.860552297882085
 30
0.0
 10
17.40944552516153
 20
-9.63214246721002
 30
0.0
 10
17.16897786029109
 20
-9.546359589627299
 30
0.0
 10
16.99465602873745
 20
-9.602859155585397
 30
0.0
 10
16.99465602873745
 20
-9.602859155585397
 30
0.0
 10
16.73386230050404
 20
-9.687608504522542
 30
0.0
 10
16.73386230050404
 20
-9.687608504522542
 30
0.0
 10
16.73386230050404
 20
-9.687608504522542
 30
0.0
 10
17.002235238805
 20
-10.51339789233693
 30
0.0
 10
17.002235238805
 20
-10.51339789233693
 30
0.0
 10
17.002235238805
 20
-10.51339789233693
 30
0.0
 10
16.72042642811156
 20
-10.60503743224457
 30
0.0
 10
16.72042642811156
 20
-10.60503743224457
 30
0.0
 10
16.72042642811156
 20
-10.60503743224457
 30
0.0
 10
16.35869140216033
 20
-9.491927080960352
 30
0.0
 10
16.35869140216033
 20
-9.491927080960352
 30
0.0
 10
16.35869140216033
 20
-9.491927080960352
 30
0.0
 10
16.93815646277935
 20
-9.303480357917186
 30
0.0
 10
16.93815646277935
 20
-9.303480357917186
 30
0.0
  0
HATCH
  5
149
330
136
100
AcDbEntity
  8
Numbers
 62
   250
420
  2301728
100
AcDbHatch
 10
0.0
 20
0.0
 30
0.0
210
0.0
220
0.0
230
1.0
  2
SOLID
 70
     1
 71
     0
 91
        1
 92
        1
 93
        1
 72
     4
 94
        3
 73
     0
 74
     1
 95
       62
 96
       58
 40
0.0
 40
0.0
 40
0.0
 40
0.0
 40
1.0
 40
1.0
 40
1.0
 40
2.0
 40
2.0
 40
2.0
 40
3.0
 40
3.0
 40
3.0
 40
4.0
 40
4.0
 40
4.0
 40
5.0
 40
5.0
 40
5.0
 40
6.0
 40
6.0
 40
6.0
 40
7.0
 40
7.0
 40
7.0
 40
8.0
 40
8.0
 40
8.0
 40
9.0
 40
9.0
 40
9.0
 40
10.0
 40
10.0
 40
10.0
 40
11.0
 40
11.0
 40
11.0
 40
12.0
 40
12.0
 40
12.0
 40
13.0
 40
13.0
 40
13.0
 40
14.0
 40
14.0
 40
14.0
 40
15.0
 40
15.0
 40
15.0
 40
16.0
 40
16.0
 40
16.0
 40
17.0
 40
17.0
 40
17.0
 40
18.0
 40
18.0
 40
18.0
 40
19.0
 40
19.0
 40
19.0
 40
19.0
 10
16.93815646277935
 20
-9.303480357917186
 10
17.18792588545996
 20
-9.222520614013815
 10
17.44458549911108
 20
-9.278675670423388
 10
17.70882432282974
 20
-9.472290036694428
 10
18.01543782101697
 20
-9.700699867366492
 10
18.25073784265954
 20
-9.788894311788887
 10
18.41403536866038
 20
-9.73721787951014
 10
18.41403536866038
 20
-9.73721787951014
 10
19.0141710021909
 20
-9.542225475044999
 10
19.0141710021909
 20
-9.542225475044999
 10
19.20399576342817
 20
-9.480213756310503
 10
19.26979708719644
 20
-9.360324433423807
 10
19.21191948304424
 20
-9.182557506384917
 10
19.21191948304424
 20
-9.182557506384917
 10
19.21123046394719
 20
-9.179801429996717
 10
19.21123046394719
 20
-9.179801429996717
 10
19.15300835024647
 20
-9.000656464763725
 10
19.02898491277748
 20
-8.942089841514479
 10
18.83916015154021
 20
-9.003412541151926
 10
18.83916015154021
 20
-9.003412541151926
 10
18.50774196585918
 20
-9.111244029840245
 10
18.50774196585918
 20
-9.111244029840245
 10
18.50774196585918
 20
-9.111244029840245
 10
18.41403536866038
 20
-8.823923066370408
 10
18.41403536866038
 20
-8.823923066370408
 10
18.41403536866038
 20
-8.823923066370408
 10
18.74614257343847
 20
-8.71609157768209
 10
18.74614257343847
 20
-8.71609157768209
 10
19.1244140577189
 20
-8.593446178407195
 10
19.37383897085099
 20
-8.716780596779138
 10
19.49441731283473
 20
-9.087817380540546
 10
19.61499565481848
 20
-9.459543183399003
 10
19.48614908367013
 20
-9.706212020142893
 10
19.10753308984117
 20
-9.829546438514836
 10
19.10753308984117
 20
-9.829546438514836
 10
18.4970621698549
 20
-10.0276394289167
 10
18.4970621698549
 20
-10.0276394289167
 10
18.24246961349494
 20
-10.1103217205627
 10
17.9827094139071
 20
-10.05485568325018
 10
17.71743706154286
 20
-9.860552297882085
 10
17.40944552516153
 20
-9.63214246721002
 10
17.16897786029109
 20
-9.546359589627299
 10
16.99465602873745
 20
-9.602859155585397
 10
16.99465602873745
 20
-9.602859155585397
 10
16.73386230050404
 20
-9.687608504522542
 10
16.73386230050404
 20
-9.687608504522542
 10
16.73386230050404
 20
-9.687608504522542
 10
17.002235238805
 20
-10.51339789233693
 10
17.002235238805
 20
-10.51339789233693
 10
17.002235238805
 20
-10.51339789233693
 10
16.72042642811156
 20
-10.60503743224457
 10
16.72042642811156
 20
-10.60503743224457
 10
16.72042642811156
 20
-10.60503743224457
 10
16.35869140216033
 20
-9.491927080960352
 10
16.35869140216033
 20
-9.491927080960352
 10
16.35869140216033
 20
-9.491927080960352
 10
16.93815646277935
 20
-9.303480357917186
 10
16.93815646277935
 20
-9.303480357917186
 97
        0
 97
        0
 75
     2
 76
     1
 98
        0
  0
ENDBLK
  5
139
330
136
100
AcDbEntity
  8
0
100
AcDbBlockEnd
  0
BLOCK
  5
14C
330
14A
100
AcDbEntity
  8
0
100
AcDbBlockBegin
  2
block 13
 70
     0
 10
0.0
 20
0.0
 30
0.0
  3
block 13
  1

  0
POLYLINE
  5
14E
330
14A
100
AcDbEntity
  8
Numbers
370
     0
100
AcDb2dPolyline
 66
     1
 10
0.0
 20
0.0
 30
0.0
  0
VERTEX
  5
14F
330
14E
100
AcDbEntity
  8
Numbers
370
     0
100
AcDbVertex
100
AcDb2dVertex
 10
15.55805121138827
 20
-3.664203558111727
 30
0.0
  0
VERTEX
  5
150
330
14E
100
AcDbEntity
  8
Numbers
370
     0
100
AcDbVertex
100
AcDb2dVertex
 10
13.93782280467527
 20
-5.893869356165422
 30
0.0
  0
VERTEX
  5
151
330
14E
100
AcDbEntity
  8
Numbers
370
     0
100
AcDbVertex
100
AcDb2dVertex
 10
14.28887803462223
 20
-6.149150931622435
 30
0.0
  0
VERTEX
  5
152
330
14E
100
AcDbEntity
  8
Numbers
370
     0
100
AcDbVertex
100
AcDb2dVertex
 10
14.11593424126268
 20
-6.387207029653198
 30
0.0
  0
VERTEX
  5
153
330
14E
100
AcDbEntity
  8
Numbers
370
     0
100
AcDbVertex
100
AcDb2dVertex
 10
13.16922200191603
 20
-5.699565970797331
 30
0.0
  0
VERTEX
  5
154
330
14E
100
AcDbEntity
  8
Numbers
370
     0
100
AcDbVertex
100
AcDb2dVertex
 10
13.34216579527557
 20
-5.461165363218043
 30
0.0
  0
VERTEX
  5
155
330
14E
100
AcDbEntity
  8
Numbers
370
     0
100
AcDbVertex
100
AcDb2dVertex
 10
13.69494357296515
 20
-5.71748046732063
 30
0.0
  0
VERTEX
  5
156
330
14E
100
AcDbEntity
  8
Numbers
370
     0
100
AcDbVertex
100
AcDb2dVertex
 10
15.14188367677009
 20
-3.725526257749174
 30
0.0
  0
VERTEX
  5
157
330
14E
100
AcDbEntity
  8
Numbers
370
     0
100
AcDbVertex
100
AcDb2dVertex
 10
14.7891058990805
 20
-3.469555663195111
 30
0.0
  0
VERTEX
  5
158
330
14E
100
AcDbEntity
  8
Numbers
370
     0
100
AcDbVertex
100
AcDb2dVertex
 10
14.96239420198857
 20
-3.231155055615822
 30
0.0
  0
VERTEX
  5
159
330
14E
100
AcDbEntity
  8
Numbers
370
     0
100
AcDbVertex
100
AcDb2dVertex
 10
15.55805121138827
 20
-3.664203558111727
 30
0.0
  0
SEQEND
  5
15A
330
14E
100
AcDbEntity
  8
Numbers
370
     0
  0
HATCH
  5
15B
330
14A
100
AcDbEntity
  8
Numbers
 62
   250
420
  2301728
100
AcDbHatch
 10
0.0
 20
0.0
 30
0.0
210
0.0
220
0.0
230
1.0
  2
SOLID
 70
     1
 71
     0
 91
        1
 92
        1
 93
       10
 72
     1
 10
15.55805121138827
 20
-3.664203558111727
 11
13.93782280467527
 21
-5.893869356165422
 72
     1
 10
13.93782280467527
 20
-5.893869356165422
 11
14.28887803462223
 21
-6.149150931622435
 72
     1
 10
14.28887803462223
 20
-6.149150931622435
 11
14.11593424126268
 21
-6.387207029653198
 72
     1
 10
14.11593424126268
 20
-6.387207029653198
 11
13.16922200191603
 21
-5.699565970797331
 72
     1
 10
13.16922200191603
 20
-5.699565970797331
 11
13.34216579527557
 21
-5.461165363218043
 72
     1
 10
13.34216579527557
 20
-5.461165363218043
 11
13.69494357296515
 21
-5.71748046732063
 72
     1
 10
13.69494357296515
 20
-5.71748046732063
 11
15.14188367677009
 21
-3.725526257749174
 72
     1
 10
15.14188367677009
 20
-3.725526257749174
 11
14.7891058990805
 21
-3.469555663195111
 72
     1
 10
14.7891058990805
 20
-3.469555663195111
 11
14.96239420198857
 21
-3.231155055615822
 72
     1
 10
14.96239420198857
 20
-3.231155055615822
 11
15.55805121138827
 21
-3.664203558111727
 97
        0
 75
     2
 76
     1
 98
        0
  0
POLYLINE
  5
15C
330
14A
100
AcDbEntity
  8
Numbers
370
     0
100
AcDb2dPolyline
 66
     1
 10
0.0
 20
0.0
 30
0.0
  0
VERTEX
  5
15D
330
15C
100
AcDbEntity
  8
Numbers
370
     0
100
AcDbVertex
100
AcDb2dVertex
 10
16.83135850273661
 20
-4.588867186352783
 30
0.0
  0
VERTEX
  5
15E
330
15C
100
AcDbEntity
  8
Numbers
370
     0
100
AcDbVertex
100
AcDb2dVertex
 10
15.21078558647508
 20
-6.819222003503528
 30
0.0
  0
VERTEX
  5
15F
330
15C
100
AcDbEntity
  8
Numbers
370
     0
100
AcDbVertex
100
AcDb2dVertex
 10
15.56218532597057
 20
-7.074159069412016
 30
0.0
  0
VERTEX
  5
160
330
15C
100
AcDbEntity
  8
Numbers
370
     0
100
AcDbVertex
100
AcDb2dVertex
 10
15.3888970230625
 20
-7.312559676991305
 30
0.0
  0
VERTEX
  5
161
330
15C
100
AcDbEntity
  8
Numbers
370
     0
100
AcDbVertex
100
AcDb2dVertex
 10
14.44218478371584
 20
-6.624229599038387
 30
0.0
  0
VERTEX
  5
162
330
15C
100
AcDbEntity
  8
Numbers
370
     0
100
AcDbVertex
100
AcDb2dVertex
 10
14.61547308662391
 20
-6.386173501007623
 30
0.0
  0
VERTEX
  5
163
330
15C
100
AcDbEntity
  8
Numbers
370
     0
100
AcDbVertex
100
AcDb2dVertex
 10
14.96790635476497
 20
-6.642488605110212
 30
0.0
  0
VERTEX
  5
164
330
15C
100
AcDbEntity
  8
Numbers
370
     0
100
AcDbVertex
100
AcDb2dVertex
 10
16.41519096811842
 20
-4.65087890508728
 30
0.0
  0
VERTEX
  5
165
330
15C
100
AcDbEntity
  8
Numbers
370
     0
100
AcDbVertex
100
AcDb2dVertex
 10
16.06241319042884
 20
-4.394563800984693
 30
0.0
  0
VERTEX
  5
166
330
15C
100
AcDbEntity
  8
Numbers
370
     0
100
AcDbVertex
100
AcDb2dVertex
 10
16.23535698378839
 20
-4.156163193405404
 30
0.0
  0
VERTEX
  5
167
330
15C
100
AcDbEntity
  8
Numbers
370
     0
100
AcDbVertex
100
AcDb2dVertex
 10
16.83135850273661
 20
-4.588867186352783
 30
0.0
  0
SEQEND
  5
168
330
15C
100
AcDbEntity
  8
Numbers
370
     0
  0
HATCH
  5
169
330
14A
100
AcDbEntity
  8
Numbers
 62
   250
420
  2301728
100
AcDbHatch
 10
0.0
 20
0.0
 30
0.0
210
0.0
220
0.0
230
1.0
  2
SOLID
 70
     1
 71
     0
 91
        1
 92
        1
 93
       10
 72
     1
 10
16.83135850273661
 20
-4.588867186352783
 11
15.21078558647508
 21
-6.819222003503528
 72
     1
 10
15.21078558647508
 20
-6.819222003503528
 11
15.56218532597057
 21
-7.074159069412016
 72
     1
 10
15.56218532597057
 20
-7.074159069412016
 11
15.3888970230625
 21
-7.312559676991305
 72
     1
 10
15.3888970230625
 20
-7.312559676991305
 11
14.44218478371584
 21
-6.624229599038387
 72
     1
 10
14.44218478371584
 20
-6.624229599038387
 11
14.61547308662391
 21
-6.386173501007623
 72
     1
 10
14.61547308662391
 20
-6.386173501007623
 11
14.96790635476497
 21
-6.642488605110212
 72
     1
 10
14.96790635476497
 20
-6.642488605110212
 11
16.41519096811842
 21
-4.65087890508728
 72
     1
 10
16.41519096811842
 20
-4.65087890508728
 11
16.06241319042884
 21
-4.394563800984693
 72
     1
 10
16.06241319042884
 20
-4.394563800984693
 11
16.23535698378839
 21
-4.156163193405404
 72
     1
 10
16.23535698378839
 20
-4.156163193405404
 11
16.83135850273661
 21
-4.588867186352783
 97
        0
 75
     2
 76
     1
 98
        0
  0
ENDBLK
  5
14D
330
14A
100
AcDbEntity
  8
0
100
AcDbBlockEnd
  0
ENDSEC
  0
SECTION
  2
ENTITIES
  0
SPLINE
  5
42
330
1F
100
AcDbEntity
  8
Small Ridges
 62
   250
420
  2301728
370
     9
100
AcDbSpline
210
0.0
220
0.0
230
1.0
 70
    11
 71
     3
 72
   101
 73
    97
 74
     0
 42
0.0000000001
 43
0.0000000001
 12
1.0
 22
0.0
 32
0.0
 13
1.0
 23
0.0
 33
0.0
 40
0.0
 40
0.0
 40
0.0
 40
0.0
 40
1.0
 40
1.0
 40
1.0
 40
2.0
 40
2.0
 40
2.0
 40
3.0
 40
3.0
 40
3.0
 40
4.0
 40
4.0
 40
4.0
 40
5.0
 40
5.0
 40
5.0
 40
6.0
 40
6.0
 40
6.0
 40
7.0
 40
7.0
 40
7.0
 40
8.0
 40
8.0
 40
8.0
 40
9.0
 40
9.0
 40
9.0
 40
10.0
 40
10.0
 40
10.0
 40
11.0
 40
11.0
 40
11.0
 40
12.0
 40
12.0
 40
12.0
 40
13.0
 40
13.0
 40
13.0
 40
14.0
 40
14.0
 40
14.0
 40
15.0
 40
15.0
 40
15.0
 40
16.0
 40
16.0
 40
16.0
 40
17.0
 40
17.0
 40
17.0
 40
18.0
 40
18.0
 40
18.0
 40
19.0
 40
19.0
 40
19.0
 40
20.0
 40
20.0
 40
20.0
 40
21.0
 40
21.0
 40
21.0
 40
22.0
 40
22.0
 40
22.0
 40
23.0
 40
23.0
 40
23.0
 40
24.0
 40
24.0
 40
24.0
 40
25.0
 40
25.0
 40
25.0
 40
26.0
 40
26.0
 40
26.0
 40
27.0
 40
27.0
 40
27.0
 40
28.0
 40
28.0
 40
28.0
 40
29.0
 40
29.0
 40
29.0
 40
30.0
 40
30.0
 40
30.0
 40
31.0
 40
31.0
 40
31.0
 40
32.0
 40
32.0
 40
32.0
 40
32.0
 10
20.50520716366188
 20
-14.10908525678937
 30
0.0
 10
20.32642546552375
 20
-14.65561616212824
 30
0.0
 10
20.10399135589108
 20
-15.17672137957041
 30
0.0
 10
19.84235224303551
 20
-15.67016304724728
 30
0.0
 10
19.55417817030076
 20
-15.60931083322805
 30
0.0
 10
19.03746919457777
 20
-15.97477483755624
 30
0.0
 10
18.61347002774919
 20
-16.55615276460289
 30
0.0
 10
18.19168825806673
 20
-17.14197140548002
 30
0.0
 10
18.00207286361057
 20
-17.74433612718548
 30
0.0
 10
18.14962993147911
 20
-17.99674586573428
 30
0.0
 10
17.34872611754254
 20
-18.81116482896669
 30
0.0
 10
16.42095802067168
 20
-19.48014445761643
 30
0.0
 10
15.40853355832376
 20
-19.97666822917729
 30
0.0
 10
15.20538580014414
 20
-19.75804329847371
 30
0.0
 10
14.57727450453975
 20
-19.74928496680688
 30
0.0
 10
13.8957680118588
 20
-19.97176230901034
 30
0.0
 10
13.2075490898753
 20
-20.19204387509651
 30
0.0
 10
12.70097800302011
 20
-20.5719476108897
 30
0.0
 10
12.66913035288094
 20
-20.86217896991257
 30
0.0
 10
11.56797770251917
 20
-21.05132064299979
 30
0.0
 10
10.42784968758954
 20
-21.05322681599436
 30
0.0
 10
9.287688101941091
 20
-20.85100392866826
 30
0.0
 10
9.253702536674739
 20
-20.5577912764405
 30
0.0
 10
8.7495741775418
 20
-20.18130889178128
 30
0.0
 10
8.068917474495366
 20
-19.95865183793346
 30
0.0
 10
7.388281236172351
 20
-19.73600147852423
 30
0.0
 10
6.759114138260606
 20
-19.74175919908193
 30
0.0
 10
6.558389789899628
 20
-19.95819332603687
 30
0.0
 10
5.519140183496448
 20
-19.44748519692708
 30
0.0
 10
4.60055794547784
 20
-18.77213181097366
 30
0.0
 10
3.824072216268771
 20
-17.96877532457917
 30
0.0
 10
3.969908376208773
 20
-17.71583199291477
 30
0.0
 10
3.785795045510518
 20
-17.10999092797629
 30
0.0
 10
3.360814868909554
 20
-16.52555863726135
 30
0.0
 10
2.942567586334574
 20
-15.94332881710358
 30
0.0
 10
2.430691460315775
 20
-15.57917340299084
 30
0.0
 10
2.137610603477643
 20
-15.63547156755811
 30
0.0
 10
1.614362215657543
 20
-14.63659706476538
 30
0.0
 10
1.261325128617869
 20
-13.54863925294768
 30
0.0
 10
1.096580500282657
 20
-12.41833647303205
 30
0.0
 10
1.364784754695424
 20
-12.30193096496969
 30
0.0
 10
1.56782500775639
 20
-11.70395779549946
 30
0.0
 10
1.573824990434129
 20
-10.982128229696
 30
0.0
 10
1.57537087040162
 20
-10.26255699048485
 30
0.0
 10
1.374545711361865
 20
-9.662372552541909
 30
0.0
 10
1.106120234804226
 20
-9.541149404247074
 30
0.0
 10
1.186687474282073
 20
-8.988475336917325
 30
0.0
 10
1.315249897297544
 20
-8.436662726029324
 30
0.0
 10
1.494031595435678
 20
-7.890131820690774
 30
0.0
 10
1.672813293573813
 20
-7.343600915352225
 30
0.0
 10
1.895226938482746
 20
-6.8224890034705
 30
0.0
 10
2.156866051338628
 20
-6.329047335793622
 30
0.0
 10
2.445040124073063
 20
-6.389899549813178
 30
0.0
 10
2.961749099796366
 20
-6.024435545484665
 30
0.0
 10
3.385768731348048
 20
-5.443064312877578
 30
0.0
 10
3.807530036307412
 20
-4.857238977560885
 30
0.0
 10
3.99714543076357
 20
-4.254874255855752
 30
0.0
 10
3.849588362894711
 20
-4.002464517306629
 30
0.0
 10
4.650492176831277
 20
-3.188045554074543
 30
0.0
 10
5.578260273702142
 20
-2.519065925424475
 30
0.0
 10
6.590684736050381
 20
-2.022542153863614
 30
0.0
 10
6.793832494229687
 20
-2.241167084567837
 30
0.0
 10
7.421964254557815
 20
-2.249932110673587
 30
0.0
 10
8.103450282515338
 20
-2.027448074030568
 30
0.0
 10
8.791669204498845
 20
-1.8071665079444
 30
0.0
 10
9.298240291353713
 20
-1.427262772151203
 30
0.0
 10
9.330094635932442
 20
-1.137010948404918
 30
0.0
 10
10.43124059185465
 20
-0.9478897400411133
 30
0.0
 10
11.57137530122352
 20
-0.9459631023234458
 30
0.0
 10
12.71153019243273
 20
-1.148206454372651
 30
0.0
 10
12.7455362224225
 20
-1.441425801039964
 30
0.0
 10
13.249671275995
 20
-1.817887720975447
 30
0.0
 10
13.9303075143177
 20
-2.040538080384351
 30
0.0
 10
14.61096421736413
 20
-2.263195134232817
 30
0.0
 10
15.24012462083664
 20
-2.257457878398534
 30
0.0
 10
15.44082850447419
 20
-2.04101705700436
 30
0.0
 10
16.48008480531661
 20
-2.551704721390404
 30
0.0
 10
17.3986603488963
 20
-3.227078572067889
 30
0.0
 10
18.17515277254429
 20
-4.030414593738318
 30
0.0
 10
18.02930991816537
 20
-4.283378390126459
 30
0.0
 10
18.2134232488633
 20
-4.889219455064932
 30
0.0
 10
18.63840342546459
 20
-5.473651745779557
 30
0.0
 10
19.05667117276267
 20
-6.055888260376573
 30
0.0
 10
19.56852683405837
 20
-6.420036980050071
 30
0.0
 10
19.86160769089618
 20
-6.363738815482797
 30
0.0
 10
20.3848560787166
 20
-7.362613318275852
 30
0.0
 10
20.73789316575595
 20
-8.450571130093227
 30
0.0
 10
20.90263779409149
 20
-9.58087391000886
 30
0.0
 10
20.6344335396784
 20
-9.697279418071535
 30
0.0
 10
20.43139328661711
 20
-10.29525258754177
 30
0.0
 10
20.42541376866311
 20
-11.01708884778479
 30
0.0
 10
20.42384742397252
 20
-11.73665339255606
 30
0.0
 10
20.62467258301228
 20
-12.33683783049932
 30
0.0
 10
20.89309805956928
 20
-12.45806097879415
 30
0.0
 10
20.81253082009175
 20
-13.0107350461239
 30
0.0
 10
20.68398886180002
 20
-13.56255435145115
 30
0.0
 10
20.50520716366188
 20
-14.10908525678937
 30
0.0
  0
INSERT
  5
44
330
1F
100
AcDbEntity
  8
Small Ridges
100
AcDbBlockReference
  2
block 2
 10
0.0
 20
0.0
 30
0.0
  0
INSERT
  5
72
330
1F
100
AcDbEntity
  8
Numbers
100
AcDbBlockReference
  2
block 3
 10
0.0
 20
0.0
 30
0.0
  0
ENDSEC
  0
SECTION
  2
OBJECTS
  0
DICTIONARY
  5
C
330
0
100
AcDbDictionary
281
     1
  3
ACAD_GROUP
350
D
  3
ACAD_LAYOUT
350
1A
  3
ACAD_MATERIAL
350
3B
  3
ACAD_MLEADERSTYLE
350
16C
  3
ACAD_MLINESTYLE
350
17
  3
ACAD_PLOTSETTINGS
350
19
  3
ACAD_PLOTSTYLENAME
350
E
  3
ACAD_TABLESTYLE
350
16B
  3
ACAD_VISUALSTYLE
350
2A
  0
SUN
  5
3F
330
29
100
AcDbSun
 90
        1
290
     0
 63
     7
421
 16777215
 40
1.0
291
     1
 91
  2455826
 92
 54000000
292
     0
 70
     2
 71
   256
280
     1
  0
DICTIONARY
  5
D
102
{ACAD_REACTORS
330
C
102
}
330
C
100
AcDbDictionary
281
     1
  0
DICTIONARY
  5
1A
102
{ACAD_REACTORS
330
C
102
}
330
C
100
AcDbDictionary
281
     1
  3
Layout1
350
1E
  3
Layout2
350
26
  3
Model
350
22
  0
DICTIONARY
  5
3B
102
{ACAD_REACTORS
330
C
102
}
330
C
100
AcDbDictionary
281
     1
  3
ByBlock
350
3D
  3
ByLayer
350
3C
  3
Global
350
3E
  0
DICTIONARY
  5
16C
102
{ACAD_REACTORS
330
C
102
}
330
C
100
AcDbDictionary
281
     1
  0
DICTIONARY
  5
17
102
{ACAD_REACTORS
330
C
102
}
330
C
100
AcDbDictionary
281
     1
  3
Standard
350
18
  0
DICTIONARY
  5
19
102
{ACAD_REACTORS
330
C
102
}
330
C
100
AcDbDictionary
281
     1
  0
ACDBDICTIONARYWDFLT
  5
E
102
{ACAD_REACTORS
330
C
102
}
330
C
100
AcDbDictionary
281
     1
  3
Normal
350
F
100
AcDbDictionaryWithDefault
340
F
  0
DICTIONARY
  5
16B
102
{ACAD_REACTORS
330
C
102
}
330
C
100
AcDbDictionary
281
     1
  0
DICTIONARY
  5
2A
102
{ACAD_REACTORS
330
C
102
}
330
C
100
AcDbDictionary
281
     1
  3
2dWireframe
350
2F
  3
3D Hidden
350
31
  3
3dWireframe
350
30
  3
Basic
350
32
  3
Brighten
350
36
  3
ColorChange
350
3A
  3
Conceptual
350
34
  3
Dim
350
35
  3
Facepattern
350
39
  3
Flat
350
2B
  3
FlatWithEdges
350
2C
  3
Gouraud
350
2D
  3
GouraudWithEdges
350
2E
  3
Linepattern
350
38
  3
Realistic
350
33
  3
Thicken
350
37
  0
LAYOUT
  5
1E
102
{ACAD_REACTORS
330
1A
102
}
330
1A
100
AcDbPlotSettings
  1

  2
none_device
  4

  6

 40
0.0
 41
0.0
 42
0.0
 43
0.0
 44
0.0
 45
0.0
 46
0.0
 47
0.0
 48
0.0
 49
0.0
140
0.0
141
0.0
142
1.0
143
1.0
 70
   688
 72
     0
 73
     0
 74
     5
  7

 75
    16
 76
     0
 77
     2
 78
   300
147
1.0
148
0.0
149
0.0
100
AcDbLayout
  1
Layout1
 70
     1
 71
     1
 10
0.0
 20
0.0
 11
12.0
 21
9.0
 12
0.0
 22
0.0
 32
0.0
 14
1.000000000000000E+20
 24
1.000000000000000E+20
 34
1.000000000000000E+20
 15
-1.000000000000000E+20
 25
-1.000000000000000E+20
 35
-1.000000000000000E+20
146
0.0
 13
0.0
 23
0.0
 33
0.0
 16
1.0
 26
0.0
 36
0.0
 17
0.0
 27
1.0
 37
0.0
 76
     0
330
1B
  0
LAYOUT
  5
26
102
{ACAD_REACTORS
330
1A
102
}
330
1A
100
AcDbPlotSettings
  1

  2
none_device
  4

  6

 40
0.0
 41
0.0
 42
0.0
 43
0.0
 44
0.0
 45
0.0
 46
0.0
 47
0.0
 48
0.0
 49
0.0
140
0.0
141
0.0
142
1.0
143
1.0
 70
   688
 72
     0
 73
     0
 74
     5
  7

 75
    16
 76
     0
 77
     2
 78
   300
147
1.0
148
0.0
149
0.0
100
AcDbLayout
  1
Layout2
 70
     1
 71
     2
 10
0.0
 20
0.0
 11
0.0
 21
0.0
 12
0.0
 22
0.0
 32
0.0
 14
0.0
 24
0.0
 34
0.0
 15
0.0
 25
0.0
 35
0.0
146
0.0
 13
0.0
 23
0.0
 33
0.0
 16
1.0
 26
0.0
 36
0.0
 17
0.0
 27
1.0
 37
0.0
 76
     0
330
23
  0
LAYOUT
  5
22
102
{ACAD_REACTORS
330
1A
102
}
330
1A
100
AcDbPlotSettings
  1

  2
none_device
  4

  6

 40
0.0
 41
0.0
 42
0.0
 43
0.0
 44
0.0
 45
0.0
 46
0.0
 47
0.0
 48
0.0
 49
0.0
140
0.0
141
0.0
142
1.0
143
1.0
 70
  1712
 72
     0
 73
     0
 74
     0
  7

 75
     0
 76
     0
 77
     2
 78
   300
147
1.0
148
0.0
149
0.0
100
AcDbLayout
  1
Model
 70
     1
 71
     0
 10
0.0
 20
0.0
 11
12.0
 21
9.0
 12
0.0
 22
0.0
 32
0.0
 14
1.000000000000000E+20
 24
1.000000000000000E+20
 34
1.000000000000000E+20
 15
-1.000000000000000E+20
 25
-1.000000000000000E+20
 35
-1.000000000000000E+20
146
0.0
 13
0.0
 23
0.0
 33
0.0
 16
1.0
 26
0.0
 36
0.0
 17
0.0
 27
1.0
 37
0.0
 76
     0
330
1F
331
29
  0
MATERIAL
  5
3D
102
{ACAD_REACTORS
330
3B
102
}
330
3B
100
AcDbMaterial
  1
ByBlock
 72
     1
 94
      127
  0
MATERIAL
  5
3C
102
{ACAD_REACTORS
330
3B
102
}
330
3B
100
AcDbMaterial
  1
ByLayer
 72
     1
 94
      127
  0
MATERIAL
  5
3E
102
{ACAD_REACTORS
330
3B
102
}
330
3B
100
AcDbMaterial
  1
Global
 72
     1
 94
      127
  0
MLINESTYLE
  5
18
102
{ACAD_REACTORS
330
17
102
}
330
17
100
AcDbMlineStyle
  2
Standard
 70
     0
  3

 62
   256
 51
90.0
 52
90.0
 71
     2
 49
0.5
 62
   256
  6
BYLAYER
 49
-0.5
 62
   256
  6
BYLAYER
  0
ACDBPLACEHOLDER
  5
F
102
{ACAD_REACTORS
330
E
102
}
330
E
  0
VISUALSTYLE
  5
2F
102
{ACAD_REACTORS
330
2A
102
}
330
2A
100
AcDbVisualStyle
  2
2dWireframe
 70
     4
177
     2
291
     0
 71
     0
176
     1
 72
     2
176
     1
 73
     0
176
     1
 90
        0
176
     1
 40
-0.6
176
     1
 41
-30.0
176
     1
 62
     5
 63
     7
421
 16777215
176
     1
 74
     1
176
     1
 91
        4
176
     1
 64
     7
176
     1
 65
   257
176
     1
 75
     1
176
     1
175
     1
176
     1
 42
1.0
176
     1
 92
        0
176
     1
 66
   257
176
     1
 43
1.0
176
     1
 76
     1
176
     1
 77
     6
176
     1
 78
     2
176
     1
 67
     7
176
     1
 79
     5
176
     1
170
     0
176
     1
171
     0
176
     1
290
     0
176
     1
 93
        1
176
     1
 44
0.0
176
     1
173
     0
176
     1
  0
VISUALSTYLE
  5
31
102
{ACAD_REACTORS
330
2A
102
}
330
2A
100
AcDbVisualStyle
  2
3D Hidden
 70
     6
177
     2
291
     0
 71
     1
176
     1
 72
     2
176
     1
 73
     2
176
     1
 90
        0
176
     1
 40
-0.6
176
     1
 41
-30.0
176
     1
 62
     5
 63
     7
421
 16777215
176
     1
 74
     2
176
     1
 91
        2
176
     1
 64
     7
176
     1
 65
   257
176
     1
 75
     2
176
     1
175
     1
176
     1
 42
40.0
176
     1
 92
        0
176
     1
 66
   257
176
     1
 43
1.0
176
     1
 76
     1
176
     1
 77
     6
176
     1
 78
     2
176
     1
 67
     7
176
     1
 79
     3
176
     1
170
     0
176
     1
171
     0
176
     1
290
     0
176
     1
 93
        1
176
     1
 44
0.0
176
     1
173
     0
176
     1
  0
VISUALSTYLE
  5
30
102
{ACAD_REACTORS
330
2A
102
}
330
2A
100
AcDbVisualStyle
  2
3dWireframe
 70
     5
177
     2
291
     0
 71
     0
176
     1
 72
     2
176
     1
 73
     0
176
     1
 90
        0
176
     1
 40
-0.6
176
     1
 41
-30.0
176
     1
 62
     5
 63
     7
421
 16777215
176
     1
 74
     1
176
     1
 91
        4
176
     1
 64
     7
176
     1
 65
   257
176
     1
 75
     1
176
     1
175
     1
176
     1
 42
1.0
176
     1
 92
        0
176
     1
 66
   257
176
     1
 43
1.0
176
     1
 76
     1
176
     1
 77
     6
176
     1
 78
     2
176
     1
 67
     7
176
     1
 79
     5
176
     1
170
     0
176
     1
171
     0
176
     1
290
     0
176
     1
 93
        1
176
     1
 44
0.0
176
     1
173
     0
176
     1
  0
VISUALSTYLE
  5
32
102
{ACAD_REACTORS
330
2A
102
}
330
2A
100
AcDbVisualStyle
  2
Basic
 70
     7
177
     2
291
     1
 71
     1
176
     1
 72
     0
176
     1
 73
     1
176
     1
 90
        0
176
     1
 40
-0.6
176
     1
 41
-30.0
176
     1
 62
     5
 63
     7
421
 16777215
176
     1
 74
     0
176
     1
 91
        4
176
     1
 64
     7
176
     1
 65
   257
176
     1
 75
     1
176
     1
175
     1
176
     1
 42
1.0
176
     1
 92
        8
176
     1
 66
     7
176
     1
 43
1.0
176
     1
 76
     1
176
     1
 77
     6
176
     1
 78
     2
176
     1
 67
     7
176
     1
 79
     5
176
     1
170
     0
176
     1
171
     0
176
     1
290
     0
176
     1
 93
        1
176
     1
 44
0.0
176
     1
173
     0
176
     1
  0
VISUALSTYLE
  5
36
102
{ACAD_REACTORS
330
2A
102
}
330
2A
100
AcDbVisualStyle
  2
Brighten
 70
    12
177
     2
291
     1
 71
     2
176
     1
 72
     2
176
     1
 73
     0
176
     1
 90
        0
176
     1
 40
-0.6
176
     1
 41
-30.0
176
     1
 62
     5
 63
     7
421
 16777215
176
     1
 74
     1
176
     1
 91
        4
176
     1
 64
     7
176
     1
 65
   257
176
     1
 75
     1
176
     1
175
     1
176
     1
 42
1.0
176
     1
 92
        8
176
     1
 66
     7
176
     1
 43
1.0
176
     1
 76
     1
176
     1
 77
     6
176
     1
 78
     2
176
     1
 67
     7
176
     1
 79
     5
176
     1
170
     0
176
     1
171
     0
176
     1
290
     0
176
     1
 93
        1
176
     1
 44
50.0
176
     1
173
     0
176
     1
  0
VISUALSTYLE
  5
3A
102
{ACAD_REACTORS
330
2A
102
}
330
2A
100
AcDbVisualStyle
  2
ColorChange
 70
    16
177
     2
291
     1
 71
     2
176
     1
 72
     2
176
     1
 73
     3
176
     1
 90
        0
176
     1
 40
-0.6
176
     1
 41
-30.0
176
     1
 62
     5
 63
     8
421
  8421504
176
     1
 74
     1
176
     1
 91
        4
176
     1
 64
     7
176
     1
 65
   257
176
     1
 75
     1
176
     1
175
     1
176
     1
 42
1.0
176
     1
 92
        8
176
     1
 66
     8
424
  8421504
176
     1
 43
1.0
176
     1
 76
     1
176
     1
 77
     6
176
     1
 78
     2
176
     1
 67
     7
176
     1
 79
     5
176
     1
170
     0
176
     1
171
     0
176
     1
290
     0
176
     1
 93
        1
176
     1
 44
0.0
176
     1
173
     0
176
     1
  0
VISUALSTYLE
  5
34
102
{ACAD_REACTORS
330
2A
102
}
330
2A
100
AcDbVisualStyle
  2
Conceptual
 70
     9
177
     2
291
     0
 71
     3
176
     1
 72
     2
176
     1
 73
     0
176
     1
 90
        0
176
     1
 40
-0.6
176
     1
 41
-30.0
176
     1
 62
     5
 63
     7
421
 16777215
176
     1
 74
     2
176
     1
 91
        2
176
     1
 64
     7
176
     1
 65
   257
176
     1
 75
     1
176
     1
175
     1
176
     1
 42
40.0
176
     1
 92
        8
176
     1
 66
     7
176
     1
 43
1.0
176
     1
 76
     1
176
     1
 77
     6
176
     1
 78
     2
176
     1
 67
     7
176
     1
 79
     3
176
     1
170
     0
176
     1
171
     0
176
     1
290
     0
176
     1
 93
        1
176
     1
 44
0.0
176
     1
173
     0
176
     1
  0
VISUALSTYLE
  5
35
102
{ACAD_REACTORS
330
2A
102
}
330
2A
100
AcDbVisualStyle
  2
Dim
 70
    11
177
     2
291
     1
 71
     2
176
     1
 72
     2
176
     1
 73
     0
176
     1
 90
        0
176
     1
 40
-0.6
176
     1
 41
-30.0
176
     1
 62
     5
 63
     7
421
 16777215
176
     1
 74
     1
176
     1
 91
        4
176
     1
 64
     7
176
     1
 65
   257
176
     1
 75
     1
176
     1
175
     1
176
     1
 42
1.0
176
     1
 92
        8
176
     1
 66
     7
176
     1
 43
1.0
176
     1
 76
     1
176
     1
 77
     6
176
     1
 78
     2
176
     1
 67
     7
176
     1
 79
     5
176
     1
170
     0
176
     1
171
     0
176
     1
290
     0
176
     1
 93
        1
176
     1
 44
-50.0
176
     1
173
     0
176
     1
  0
VISUALSTYLE
  5
39
102
{ACAD_REACTORS
330
2A
102
}
330
2A
100
AcDbVisualStyle
  2
Facepattern
 70
    15
177
     2
291
     1
 71
     2
176
     1
 72
     2
176
     1
 73
     0
176
     1
 90
        0
176
     1
 40
-0.6
176
     1
 41
-30.0
176
     1
 62
     5
 63
     7
421
 16777215
176
     1
 74
     1
176
     1
 91
        4
176
     1
 64
     7
176
     1
 65
   257
176
     1
 75
     1
176
     1
175
     1
176
     1
 42
1.0
176
     1
 92
        8
176
     1
 66
     7
176
     1
 43
1.0
176
     1
 76
     1
176
     1
 77
     6
176
     1
 78
     2
176
     1
 67
     7
176
     1
 79
     5
176
     1
170
     0
176
     1
171
     0
176
     1
290
     0
176
     1
 93
        1
176
     1
 44
0.0
176
     1
173
     0
176
     1
  0
VISUALSTYLE
  5
2B
102
{ACAD_REACTORS
330
2A
102
}
330
2A
100
AcDbVisualStyle
  2
Flat
 70
     0
177
     2
291
     1
 71
     2
176
     1
 72
     1
176
     1
 73
     1
176
     1
 90
        2
176
     1
 40
-0.6
176
     1
 41
30.0
176
     1
 62
     5
 63
     7
421
 16777215
176
     1
 74
     0
176
     1
 91
        4
176
     1
 64
     7
176
     1
 65
   257
176
     1
 75
     1
176
     1
175
     1
176
     1
 42
1.0
176
     1
 92
        8
176
     1
 66
     7
176
     1
 43
1.0
176
     1
 76
     1
176
     1
 77
     6
176
     1
 78
     2
176
     1
 67
     7
176
     1
 79
     5
176
     1
170
     0
176
     1
171
     0
176
     1
290
     0
176
     1
 93
       13
176
     1
 44
0.0
176
     1
173
     0
176
     1
  0
VISUALSTYLE
  5
2C
102
{ACAD_REACTORS
330
2A
102
}
330
2A
100
AcDbVisualStyle
  2
FlatWithEdges
 70
     1
177
     2
291
     1
 71
     2
176
     1
 72
     1
176
     1
 73
     1
176
     1
 90
        2
176
     1
 40
-0.6
176
     1
 41
30.0
176
     1
 62
     5
 63
     7
421
 16777215
176
     1
 74
     1
176
     1
 91
        4
176
     1
 64
     7
176
     1
 65
   257
176
     1
 75
     1
176
     1
175
     1
176
     1
 42
1.0
176
     1
 92
        0
176
     1
 66
   257
176
     1
 43
1.0
176
     1
 76
     1
176
     1
 77
     6
176
     1
 78
     2
176
     1
 67
     7
176
     1
 79
     5
176
     1
170
     0
176
     1
171
     0
176
     1
290
     0
176
     1
 93
       13
176
     1
 44
0.0
176
     1
173
     0
176
     1
  0
VISUALSTYLE
  5
2D
102
{ACAD_REACTORS
330
2A
102
}
330
2A
100
AcDbVisualStyle
  2
Gouraud
 70
     2
177
     2
291
     1
 71
     2
176
     1
 72
     2
176
     1
 73
     1
176
     1
 90
        2
176
     1
 40
-0.6
176
     1
 41
30.0
176
     1
 62
     5
 63
     7
421
 16777215
176
     1
 74
     0
176
     1
 91
        4
176
     1
 64
     7
176
     1
 65
   257
176
     1
 75
     1
176
     1
175
     1
176
     1
 42
1.0
176
     1
 92
        0
176
     1
 66
     7
176
     1
 43
1.0
176
     1
 76
     1
176
     1
 77
     6
176
     1
 78
     2
176
     1
 67
     7
176
     1
 79
     5
176
     1
170
     0
176
     1
171
     0
176
     1
290
     0
176
     1
 93
       13
176
     1
 44
0.0
176
     1
173
     0
176
     1
  0
VISUALSTYLE
  5
2E
102
{ACAD_REACTORS
330
2A
102
}
330
2A
100
AcDbVisualStyle
  2
GouraudWithEdges
 70
     3
177
     2
291
     1
 71
     2
176
     1
 72
     2
176
     1
 73
     1
176
     1
 90
        2
176
     1
 40
-0.6
176
     1
 41
30.0
176
     1
 62
     5
 63
     7
421
 16777215
176
     1
 74
     1
176
     1
 91
        4
176
     1
 64
     7
176
     1
 65
   257
176
     1
 75
     1
176
     1
175
     1
176
     1
 42
1.0
176
     1
 92
        0
176
     1
 66
   257
176
     1
 43
1.0
176
     1
 76
     1
176
     1
 77
     6
176
     1
 78
     2
176
     1
 67
     7
176
     1
 79
     5
176
     1
170
     0
176
     1
171
     0
176
     1
290
     0
176
     1
 93
       13
176
     1
 44
0.0
176
     1
173
     0
176
     1
  0
VISUALSTYLE
  5
38
102
{ACAD_REACTORS
330
2A
102
}
330
2A
100
AcDbVisualStyle
  2
Linepattern
 70
    14
177
     2
291
     1
 71
     2
176
     1
 72
     2
176
     1
 73
     0
176
     1
 90
        0
176
     1
 40
-0.6
176
     1
 41
-30.0
176
     1
 62
     5
 63
     7
421
 16777215
176
     1
 74
     1
176
     1
 91
        4
176
     1
 64
     7
176
     1
 65
   257
176
     1
 75
     7
176
     1
175
     7
176
     1
 42
1.0
176
     1
 92
        8
176
     1
 66
     7
176
     1
 43
1.0
176
     1
 76
     1
176
     1
 77
     6
176
     1
 78
     2
176
     1
 67
     7
176
     1
 79
     5
176
     1
170
     0
176
     1
171
     0
176
     1
290
     0
176
     1
 93
        1
176
     1
 44
0.0
176
     1
173
     0
176
     1
  0
VISUALSTYLE
  5
33
102
{ACAD_REACTORS
330
2A
102
}
330
2A
100
AcDbVisualStyle
  2
Realistic
 70
     8
177
     2
291
     0
 71
     2
176
     1
 72
     2
176
     1
 73
     0
176
     1
 90
        0
176
     1
 40
-0.6
176
     1
 41
-30.0
176
     1
 62
     5
 63
     7
421
 16777215
176
     1
 74
     1
176
     1
 91
        0
176
     1
 64
     7
176
     1
 65
   257
176
     1
 75
     1
176
     1
175
     1
176
     1
 42
1.0
176
     1
 92
        8
176
     1
 66
     8
424
  7895160
176
     1
 43
1.0
176
     1
 76
     1
176
     1
 77
     6
176
     1
 78
     2
176
     1
 67
     7
176
     1
 79
     5
176
     1
170
     0
176
     1
171
     0
176
     1
290
     0
176
     1
 93
       13
176
     1
 44
0.0
176
     1
173
     0
176
     1
  0
VISUALSTYLE
  5
37
102
{ACAD_REACTORS
330
2A
102
}
330
2A
100
AcDbVisualStyle
  2
Thicken
 70
    13
177
     2
291
     1
 71
     2
176
     1
 72
     2
176
     1
 73
     0
176
     1
 90
        0
176
     1
 40
-0.6
176
     1
 41
-30.0
176
     1
 62
     5
 63
     7
421
 16777215
176
     1
 74
     1
176
     1
 91
        4
176
     1
 64
     7
176
     1
 65
   257
176
     1
 75
     1
176
     1
175
     1
176
     1
 42
1.0
176
     1
 92
       12
176
     1
 66
     7
176
     1
 43
1.0
176
     1
 76
     1
176
     1
 77
     6
176
     1
 78
     2
176
     1
 67
     7
176
     1
 79
     5
176
     1
170
     0
176
     1
171
     0
176
     1
290
     0
176
     1
 93
        1
176
     1
 44
0.0
176
     1
173
     0
176
     1
  0
ENDSEC
  0
EOF
