  0
SECTION
  2
HEADER
  9
$ACADVER
  1
AC1024
  9
$ACADMAINTVER
 70
     6
  9
$DWGCODEPAGE
  3
ANSI_1252
  9
$INSBASE
 10
0.0
 20
0.0
 30
0.0
  9
$EXTMIN
 10
1.000000000000000E+20
 20
1.000000000000000E+20
 30
1.000000000000000E+20
  9
$EXTMAX
 10
-1.000000000000000E+20
 20
-1.000000000000000E+20
 30
-1.000000000000000E+20
  9
$LIMMIN
 10
0.0
 20
0.0
  9
$LIMMAX
 10
12.0
 20
9.0
  9
$ORTHOMODE
 70
     0
  9
$REGENMODE
 70
     1
  9
$FILLMODE
 70
     1
  9
$QTEXTMODE
 70
     0
  9
$MIRRTEXT
 70
     1
  9
$LTSCALE
 40
1.0
  9
$ATTMODE
 70
     1
  9
$TEXTSIZE
 40
0.2
  9
$TRACEWID
 40
0.05
  9
$TEXTSTYLE
  7
Standard
  9
$CLAYER
  8
0
  9
$CELTYPE
  6
ByLayer
  9
$CECOLOR
 62
   256
  9
$CELTSCALE
 40
1.0
  9
$DISPSILH
 70
     0
  9
$DIMSCALE
 40
1.0
  9
$DIMASZ
 40
0.18
  9
$DIMEXO
 40
0.0625
  9
$DIMDLI
 40
0.38
  9
$DIMRND
 40
0.0
  9
$DIMDLE
 40
0.0
  9
$DIMEXE
 40
0.18
  9
$DIMTP
 40
0.0
  9
$DIMTM
 40
0.0
  9
$DIMTXT
 40
0.18
  9
$DIMCEN
 40
0.09
  9
$DIMTSZ
 40
0.0
  9
$DIMTOL
 70
     0
  9
$DIMLIM
 70
     0
  9
$DIMTIH
 70
     1
  9
$DIMTOH
 70
     1
  9
$DIMSE1
 70
     0
  9
$DIMSE2
 70
     0
  9
$DIMTAD
 70
     0
  9
$DIMZIN
 70
     0
  9
$DIMBLK
  1

  9
$DIMASO
 70
     1
  9
$DIMSHO
 70
     1
  9
$DIMPOST
  1

  9
$DIMAPOST
  1

  9
$DIMALT
 70
     0
  9
$DIMALTD
 70
     2
  9
$DIMALTF
 40
25.4
  9
$DIMLFAC
 40
1.0
  9
$DIMTOFL
 70
     0
  9
$DIMTVP
 40
0.0
  9
$DIMTIX
 70
     0
  9
$DIMSOXD
 70
     0
  9
$DIMSAH
 70
     0
  9
$DIMBLK1
  1

  9
$DIMBLK2
  1

  9
$DIMSTYLE
  2
Standard
  9
$DIMCLRD
 70
     0
  9
$DIMCLRE
 70
     0
  9
$DIMCLRT
 70
     0
  9
$DIMTFAC
 40
1.0
  9
$DIMGAP
 40
0.09
  9
$DIMJUST
 70
     0
  9
$DIMSD1
 70
     0
  9
$DIMSD2
 70
     0
  9
$DIMTOLJ
 70
     1
  9
$DIMTZIN
 70
     0
  9
$DIMALTZ
 70
     0
  9
$DIMALTTZ
 70
     0
  9
$DIMUPT
 70
     0
  9
$DIMDEC
 70
     4
  9
$DIMTDEC
 70
     4
  9
$DIMALTU
 70
     2
  9
$DIMALTTD
 70
     2
  9
$DIMTXSTY
  7
Standard
  9
$DIMAUNIT
 70
     0
  9
$DIMADEC
 70
     0
  9
$DIMALTRND
 40
0.0
  9
$DIMAZIN
 70
     0
  9
$DIMDSEP
 70
    46
  9
$DIMATFIT
 70
     3
  9
$DIMFRAC
 70
     0
  9
$DIMLDRBLK
  1

  9
$DIMLUNIT
 70
     2
  9
$DIMLWD
 70
    -2
  9
$DIMLWE
 70
    -2
  9
$DIMTMOVE
 70
     0
  9
$DIMFXL
 40
1.0
  9
$DIMFXLON
 70
     0
  9
$DIMJOGANG
 40
0.7853981633974483
  9
$DIMTFILL
 70
     0
  9
$DIMTFILLCLR
 70
     0
  9
$DIMARCSYM
 70
     0
  9
$DIMLTYPE
  6

  9
$DIMLTEX1
  6

  9
$DIMLTEX2
  6

  9
$DIMTXTDIRECTION
 70
     0
  9
$LUNITS
 70
     2
  9
$LUPREC
 70
     4
  9
$SKETCHINC
 40
0.1
  9
$FILLETRAD
 40
0.5
  9
$AUNITS
 70
     0
  9
$AUPREC
 70
     0
  9
$MENU
  1
.
  9
$ELEVATION
 40
0.0
  9
$PELEVATION
 40
0.0
  9
$THICKNESS
 40
0.0
  9
$LIMCHECK
 70
     0
  9
$CHAMFERA
 40
0.5
  9
$CHAMFERB
 40
0.5
  9
$CHAMFERC
 40
1.0
  9
$CHAMFERD
 40
0.0
  9
$SKPOLY
 70
     0
  9
$TDCREATE
 40
2459968.014305451
  9
$TDUCREATE
 40
2459967.972638785
  9
$TDUPDATE
 40
2459968.014305544
  9
$TDUUPDATE
 40
2459967.972638877
  9
$TDINDWG
 40
0.0000000116
  9
$TDUSRTIMER
 40
0.0000000116
  9
$USRTIMER
 70
     1
  9
$ANGBASE
 50
0.0
  9
$ANGDIR
 70
     0
  9
$PDMODE
 70
     0
  9
$PDSIZE
 40
0.0
  9
$PLINEWID
 40
0.0
  9
$SPLFRAME
 70
     0
  9
$SPLINETYPE
 70
     6
  9
$SPLINESEGS
 70
     8
  9
$HANDSEED
  5
B5
  9
$SURFTAB1
 70
     6
  9
$SURFTAB2
 70
     6
  9
$SURFTYPE
 70
     6
  9
$SURFU
 70
     6
  9
$SURFV
 70
     6
  9
$UCSBASE
  2

  9
$UCSNAME
  2

  9
$UCSORG
 10
0.0
 20
0.0
 30
0.0
  9
$UCSXDIR
 10
1.0
 20
0.0
 30
0.0
  9
$UCSYDIR
 10
0.0
 20
1.0
 30
0.0
  9
$UCSORTHOREF
  2

  9
$UCSORTHOVIEW
 70
     0
  9
$UCSORGTOP
 10
0.0
 20
0.0
 30
0.0
  9
$UCSORGBOTTOM
 10
0.0
 20
0.0
 30
0.0
  9
$UCSORGLEFT
 10
0.0
 20
0.0
 30
0.0
  9
$UCSORGRIGHT
 10
0.0
 20
0.0
 30
0.0
  9
$UCSORGFRONT
 10
0.0
 20
0.0
 30
0.0
  9
$UCSORGBACK
 10
0.0
 20
0.0
 30
0.0
  9
$PUCSBASE
  2

  9
$PUCSNAME
  2

  9
$PUCSORG
 10
0.0
 20
0.0
 30
0.0
  9
$PUCSXDIR
 10
1.0
 20
0.0
 30
0.0
  9
$PUCSYDIR
 10
0.0
 20
1.0
 30
0.0
  9
$PUCSORTHOREF
  2

  9
$PUCSORTHOVIEW
 70
     0
  9
$PUCSORGTOP
 10
0.0
 20
0.0
 30
0.0
  9
$PUCSORGBOTTOM
 10
0.0
 20
0.0
 30
0.0
  9
$PUCSORGLEFT
 10
0.0
 20
0.0
 30
0.0
  9
$PUCSORGRIGHT
 10
0.0
 20
0.0
 30
0.0
  9
$PUCSORGFRONT
 10
0.0
 20
0.0
 30
0.0
  9
$PUCSORGBACK
 10
0.0
 20
0.0
 30
0.0
  9
$USERI1
 70
     0
  9
$USERI2
 70
     0
  9
$USERI3
 70
     0
  9
$USERI4
 70
     0
  9
$USERI5
 70
     0
  9
$USERR1
 40
0.0
  9
$USERR2
 40
0.0
  9
$USERR3
 40
0.0
  9
$USERR4
 40
0.0
  9
$USERR5
 40
0.0
  9
$WORLDVIEW
 70
     1
  9
$SHADEDGE
 70
     3
  9
$SHADEDIF
 70
    70
  9
$TILEMODE
 70
     1
  9
$MAXACTVP
 70
    64
  9
$PINSBASE
 10
0.0
 20
0.0
 30
0.0
  9
$PLIMCHECK
 70
     0
  9
$PEXTMIN
 10
1.000000000000000E+20
 20
1.000000000000000E+20
 30
1.000000000000000E+20
  9
$PEXTMAX
 10
-1.000000000000000E+20
 20
-1.000000000000000E+20
 30
-1.000000000000000E+20
  9
$PLIMMIN
 10
0.0
 20
0.0
  9
$PLIMMAX
 10
12.0
 20
9.0
  9
$UNITMODE
 70
     0
  9
$VISRETAIN
 70
     1
  9
$PLINEGEN
 70
     0
  9
$PSLTSCALE
 70
     1
  9
$TREEDEPTH
 70
  3020
  9
$CMLSTYLE
  2
Standard
  9
$CMLJUST
 70
     0
  9
$CMLSCALE
 40
1.0
  9
$PROXYGRAPHICS
 70
     1
  9
$MEASUREMENT
 70
     0
  9
$CELWEIGHT
370
    -1
  9
$ENDCAPS
280
     0
  9
$JOINSTYLE
280
     0
  9
$LWDISPLAY
290
     1
  9
$INSUNITS
 70
     1
  9
$HYPERLINKBASE
  1

  9
$STYLESHEET
  1

  9
$XEDIT
290
     1
  9
$CEPSNTYPE
380
     0
  9
$PSTYLEMODE
290
     1
  9
$FINGERPRINTGUID
  2
{17932E1C-859E-417E-A2D5-31ED6F3978EE}
  9
$VERSIONGUID
  2
{FAEB1C32-E019-11D5-929B-00C0DF256EC4}
  9
$EXTNAMES
290
     1
  9
$PSVPSCALE
 40
0.0
  9
$OLESTARTUP
290
     0
  9
$SORTENTS
280
   127
  9
$INDEXCTL
280
     0
  9
$HIDETEXT
280
     1
  9
$XCLIPFRAME
280
     2
  9
$HALOGAP
280
     0
  9
$OBSCOLOR
 70
   257
  9
$OBSLTYPE
280
     0
  9
$INTERSECTIONDISPLAY
280
     0
  9
$INTERSECTIONCOLOR
 70
   257
  9
$DIMASSOC
280
     2
  9
$PROJECTNAME
  1

  9
$CAMERADISPLAY
290
     0
  9
$LENSLENGTH
 40
50.0
  9
$CAMERAHEIGHT
 40
0.0
  9
$STEPSPERSEC
 40
2.0
  9
$STEPSIZE
 40
6.0
  9
$3DDWFPREC
 40
2.0
  9
$PSOLWIDTH
 40
0.25
  9
$PSOLHEIGHT
 40
4.0
  9
$LOFTANG1
 40
1.570796326794897
  9
$LOFTANG2
 40
1.570796326794897
  9
$LOFTMAG1
 40
0.0
  9
$LOFTMAG2
 40
0.0
  9
$LOFTPARAM
 70
     7
  9
$LOFTNORMALS
280
     1
  9
$LATITUDE
 40
37.795
  9
$LONGITUDE
 40
-122.394
  9
$NORTHDIRECTION
 40
0.0
  9
$TIMEZONE
 70
 -8000
  9
$LIGHTGLYPHDISPLAY
280
     1
  9
$TILEMODELIGHTSYNCH
280
     1
  9
$CMATERIAL
347
3C
  9
$SOLIDHIST
280
     1
  9
$SHOWHIST
280
     1
  9
$DWFFRAME
280
     2
  9
$DGNFRAME
280
     2
  9
$REALWORLDSCALE
290
     1
  9
$INTERFERECOLOR
 62
   256
  9
$CSHADOW
280
     0
  9
$SHADOWPLANELOCATION
 40
0.0
  0
ENDSEC
  0
SECTION
  2
CLASSES
  0
CLASS
  1
ACDBDICTIONARYWDFLT
  2
AcDbDictionaryWithDefault
  3
ObjectDBX Classes
 90
        0
 91
        4
280
     0
281
     0
  0
CLASS
  1
VISUALSTYLE
  2
AcDbVisualStyle
  3
ObjectDBX Classes
 90
     4095
 91
        4
280
     0
281
     0
  0
CLASS
  1
MATERIAL
  2
AcDbMaterial
  3
ObjectDBX Classes
 90
     1153
 91
        4
280
     0
281
     0
  0
CLASS
  1
SUN
  2
AcDbSun
  3
SCENEOE
 90
     1024
 91
        4
280
     0
281
     0
  0
ENDSEC
  0
SECTION
  2
TABLES
  0
TABLE
  2
VPORT
  5
8
330
0
100
AcDbSymbolTable
 70
     1
  0
VPORT
  5
29
330
8
100
AcDbSymbolTableRecord
100
AcDbViewportTableRecord
  2
*Active
 70
     0
 10
0.0
 20
0.0
 11
1.0
 21
1.0
 12
0.0
 22
0.0
 13
0.0
 23
0.0
 14
0.5
 24
0.5
 15
0.5
 25
0.5
 16
0.0
 26
0.0
 36
1.0
 17
10.99961110836131
 27
-10.99961110836131
 37
0.0
 40
21.99922221672262
 41
1.0
 42
50.0
 43
0.0
 44
0.0
 50
0.0
 51
0.0
 71
     0
 72
   100
 73
     1
 74
     3
 75
     0
 76
     0
 77
     0
 78
     0
281
     0
 65
     1
110
0.0
120
0.0
130
0.0
111
1.0
121
0.0
131
0.0
112
0.0
122
1.0
132
0.0
 79
     0
146
0.0
 60
     3
 61
     5
292
     1
282
     1
141
0.0
142
0.0
 63
   250
361
3F
  0
ENDTAB
  0
TABLE
  2
LTYPE
  5
5
330
0
100
AcDbSymbolTable
 70
     1
  0
LTYPE
  5
14
330
5
100
AcDbSymbolTableRecord
100
AcDbLinetypeTableRecord
  2
ByBlock
 70
     0
  3

 72
    65
 73
     0
 40
0.0
  0
LTYPE
  5
15
330
5
100
AcDbSymbolTableRecord
100
AcDbLinetypeTableRecord
  2
ByLayer
 70
     0
  3

 72
    65
 73
     0
 40
0.0
  0
LTYPE
  5
16
330
5
100
AcDbSymbolTableRecord
100
AcDbLinetypeTableRecord
  2
Continuous
 70
     0
  3
Solid line
 72
    65
 73
     0
 40
0.0
  0
ENDTAB
  0
TABLE
  2
LAYER
  5
2
330
0
100
AcDbSymbolTable
 70
     5
  0
LAYER
  5
10
330
2
100
AcDbSymbolTableRecord
100
AcDbLayerTableRecord
  2
0
 70
     0
 62
     7
  6
Continuous
370
    -3
390
F
347
3E
  0
LAYER
  5
40
330
2
100
AcDbSymbolTableRecord
100
AcDbLayerTableRecord
  2
Big Ridges
 70
     5
 62
     7
  6
Continuous
370
    -3
390
F
347
3E
  0
LAYER
  5
41
330
2
100
AcDbSymbolTableRecord
100
AcDbLayerTableRecord
  2
Small Ridges
 70
     0
 62
     7
  6
Continuous
370
    -3
390
F
347
3E
  0
LAYER
  5
6C
330
2
100
AcDbSymbolTableRecord
100
AcDbLayerTableRecord
  2
Numbers
 70
     0
 62
     7
  6
Continuous
370
    -3
390
F
347
3E
  0
LAYER
  5
B2
330
2
100
AcDbSymbolTableRecord
100
AcDbLayerTableRecord
  2
Icons
 70
     0
 62
     7
  6
Continuous
370
    -3
390
F
347
3E
  0
ENDTAB
  0
TABLE
  2
STYLE
  5
3
330
0
100
AcDbSymbolTable
 70
     1
  0
STYLE
  5
11
330
3
100
AcDbSymbolTableRecord
100
AcDbTextStyleTableRecord
  2
Standard
 70
     0
 40
0.0
 41
1.0
 50
0.0
 71
     0
 42
0.2
  3
txt
  4

  0
ENDTAB
  0
TABLE
  2
VIEW
  5
6
330
0
100
AcDbSymbolTable
 70
     0
  0
ENDTAB
  0
TABLE
  2
UCS
  5
7
330
0
100
AcDbSymbolTable
 70
     0
  0
ENDTAB
  0
TABLE
  2
APPID
  5
9
330
0
100
AcDbSymbolTable
 70
     1
  0
APPID
  5
12
330
9
100
AcDbSymbolTableRecord
100
AcDbRegAppTableRecord
  2
ACAD
 70
     0
  0
ENDTAB
  0
TABLE
  2
DIMSTYLE
  5
A
330
0
100
AcDbSymbolTable
 70
     1
100
AcDbDimStyleTable
  0
DIMSTYLE
105
27
330
A
100
AcDbSymbolTableRecord
100
AcDbDimStyleTableRecord
  2
Standard
 70
     0
178
     0
340
11
  0
ENDTAB
  0
TABLE
  2
BLOCK_RECORD
  5
1
330
0
100
AcDbSymbolTable
 70
     2
  0
BLOCK_RECORD
  5
1F
330
1
100
AcDbSymbolTableRecord
100
AcDbBlockTableRecord
  2
*Model_Space
340
22
 70
     0
280
     1
281
     0
  0
BLOCK_RECORD
  5
1B
330
1
100
AcDbSymbolTableRecord
100
AcDbBlockTableRecord
  2
*Paper_Space
340
1E
 70
     0
280
     1
281
     0
  0
BLOCK_RECORD
  5
23
330
1
100
AcDbSymbolTableRecord
100
AcDbBlockTableRecord
  2
*Paper_Space0
340
26
 70
     0
280
     1
281
     0
  0
BLOCK_RECORD
  5
6D
330
1
100
AcDbSymbolTableRecord
100
AcDbBlockTableRecord
  2
block 2
340
0
102
{BLKREFS
331
6E
102
}
 70
     0
280
     1
281
     0
  0
ENDTAB
  0
ENDSEC
  0
SECTION
  2
BLOCKS
  0
BLOCK
  5
20
330
1F
100
AcDbEntity
  8
0
100
AcDbBlockBegin
  2
*Model_Space
 70
     0
 10
0.0
 20
0.0
 30
0.0
  3
*Model_Space
  1

  0
ENDBLK
  5
21
330
1F
100
AcDbEntity
  8
0
100
AcDbBlockEnd
  0
BLOCK
  5
1C
330
1B
100
AcDbEntity
 67
     1
  8
0
100
AcDbBlockBegin
  2
*Paper_Space
 70
     0
 10
0.0
 20
0.0
 30
0.0
  3
*Paper_Space
  1

  0
ENDBLK
  5
1D
330
1B
100
AcDbEntity
 67
     1
  8
0
100
AcDbBlockEnd
  0
BLOCK
  5
24
330
23
100
AcDbEntity
  8
0
100
AcDbBlockBegin
  2
*Paper_Space0
 70
     0
 10
0.0
 20
0.0
 30
0.0
  3
*Paper_Space0
  1

  0
ENDBLK
  5
25
330
23
100
AcDbEntity
  8
0
100
AcDbBlockEnd
  0
BLOCK
  5
6F
330
6D
100
AcDbEntity
  8
0
100
AcDbBlockBegin
  2
block 2
 70
     0
 10
0.0
 20
0.0
 30
0.0
  3
block 2
  1

  0
SPLINE
  5
71
330
6D
100
AcDbEntity
  8
Numbers
370
     0
100
AcDbSpline
210
0.0
220
0.0
230
1.0
 70
    11
 71
     3
 72
    23
 73
    19
 74
     0
 42
0.0000000001
 43
0.0000000001
 12
1.0
 22
0.0
 32
0.0
 13
1.0
 23
0.0
 33
0.0
 40
0.0
 40
0.0
 40
0.0
 40
0.0
 40
1.0
 40
1.0
 40
1.0
 40
2.0
 40
2.0
 40
2.0
 40
3.0
 40
3.0
 40
3.0
 40
4.0
 40
4.0
 40
4.0
 40
5.0
 40
5.0
 40
5.0
 40
6.0
 40
6.0
 40
6.0
 40
6.0
 10
11.6712944849294
 20
-5.256526691394201
 30
0.0
 10
11.66750487989562
 20
-5.696982149183394
 30
0.0
 10
11.45218641206751
 20
-5.916262476819546
 30
0.0
 10
11.02516682667079
 20
-5.915401202948233
 30
0.0
 10
10.59952527946817
 20
-5.914367674302659
 30
0.0
 10
10.3881686714481
 20
-5.693881563246669
 30
0.0
 10
10.39195827648187
 20
-5.25359836023174
 30
0.0
 10
10.39195827648187
 20
-5.25359836023174
 30
0.0
 10
10.40970051823091
 20
-3.067685274840718
 30
0.0
 10
10.40970051823091
 20
-3.067685274840718
 30
0.0
 10
10.41331786849042
 20
-2.625851778857426
 30
0.0
 10
10.62794731722149
 20
-2.405710177349961
 30
0.0
 10
11.05393337397263
 20
-2.407088215544062
 30
0.0
 10
11.48112521414361
 20
-2.408293998963899
 30
0.0
 10
11.69265407693795
 20
-2.629296874342676
 30
0.0
 10
11.6892089814527
 20
-3.070785860777443
 30
0.0
 10
11.6892089814527
 20
-3.070785860777443
 30
0.0
 10
11.6712944849294
 20
-5.256526691394201
 30
0.0
 10
11.6712944849294
 20
-5.256526691394201
 30
0.0
  0
SPLINE
  5
72
330
6D
100
AcDbEntity
  8
Numbers
370
     0
100
AcDbSpline
210
0.0
220
0.0
230
1.0
 70
    11
 71
     3
 72
    26
 73
    22
 74
     0
 42
0.0000000001
 43
0.0000000001
 12
1.0
 22
0.0
 32
0.0
 13
1.0
 23
0.0
 33
0.0
 40
0.0
 40
0.0
 40
0.0
 40
0.0
 40
1.0
 40
1.0
 40
1.0
 40
2.0
 40
2.0
 40
2.0
 40
3.0
 40
3.0
 40
3.0
 40
4.0
 40
4.0
 40
4.0
 40
5.0
 40
5.0
 40
5.0
 40
6.0
 40
6.0
 40
6.0
 40
7.0
 40
7.0
 40
7.0
 40
7.0
 10
11.35847981486871
 20
-3.06992458690613
 30
0.0
 10
11.36054687215986
 20
-2.849093966301615
 30
0.0
 10
11.25857204579647
 20
-2.738506401225096
 30
0.0
 10
11.05289984532705
 20
-2.737645127353783
 30
0.0
 10
11.05289984532705
 20
-2.737645127353783
 30
0.0
 10
11.0494547498418
 20
-2.737817382128046
 30
0.0
 10
11.0494547498418
 20
-2.737817382128046
 30
0.0
 10
10.84498833279223
 20
-2.737472872579521
 30
0.0
 10
10.74197997778326
 20
-2.847888182881778
 30
0.0
 10
10.74008517526637
 20
-3.06854654871203
 30
0.0
 10
10.74008517526637
 20
-3.06854654871203
 30
0.0
 10
10.72234293351733
 20
-5.254459634103052
 30
0.0
 10
10.72234293351733
 20
-5.254459634103052
 30
0.0
 10
10.72044813100044
 20
-5.475117999933304
 30
0.0
 10
10.82207844781531
 20
-5.585361055461298
 30
0.0
 10
11.02792290305899
 20
-5.585877819784086
 30
0.0
 10
11.23445637739972
 20
-5.586566838881136
 30
0.0
 10
11.33884277060279
 20
-5.476323783353141
 30
0.0
 10
11.34056531834542
 20
-5.25566541752289
 30
0.0
 10
11.34056531834542
 20
-5.25566541752289
 30
0.0
 10
11.35847981486871
 20
-3.06992458690613
 30
0.0
 10
11.35847981486871
 20
-3.06992458690613
 30
0.0
  0
HATCH
  5
73
330
6D
100
AcDbEntity
  8
Numbers
 62
   250
420
  2301728
100
AcDbHatch
 10
0.0
 20
0.0
 30
0.0
210
0.0
220
0.0
230
1.0
  2
SOLID
 70
     1
 71
     0
 91
        2
 92
        1
 93
        1
 72
     4
 94
        3
 73
     0
 74
     1
 95
       23
 96
       19
 40
0.0
 40
0.0
 40
0.0
 40
0.0
 40
1.0
 40
1.0
 40
1.0
 40
2.0
 40
2.0
 40
2.0
 40
3.0
 40
3.0
 40
3.0
 40
4.0
 40
4.0
 40
4.0
 40
5.0
 40
5.0
 40
5.0
 40
6.0
 40
6.0
 40
6.0
 40
6.0
 10
11.6712944849294
 20
-5.256526691394201
 10
11.66750487989562
 20
-5.696982149183394
 10
11.45218641206751
 20
-5.916262476819546
 10
11.02516682667079
 20
-5.915401202948233
 10
10.59952527946817
 20
-5.914367674302659
 10
10.3881686714481
 20
-5.693881563246669
 10
10.39195827648187
 20
-5.25359836023174
 10
10.39195827648187
 20
-5.25359836023174
 10
10.40970051823091
 20
-3.067685274840718
 10
10.40970051823091
 20
-3.067685274840718
 10
10.41331786849042
 20
-2.625851778857426
 10
10.62794731722149
 20
-2.405710177349961
 10
11.05393337397263
 20
-2.407088215544062
 10
11.48112521414361
 20
-2.408293998963899
 10
11.69265407693795
 20
-2.629296874342676
 10
11.6892089814527
 20
-3.070785860777443
 10
11.6892089814527
 20
-3.070785860777443
 10
11.6712944849294
 20
-5.256526691394201
 10
11.6712944849294
 20
-5.256526691394201
 97
        0
 97
        0
 92
        1
 93
        1
 72
     4
 94
        3
 73
     0
 74
     1
 95
       26
 96
       22
 40
0.0
 40
0.0
 40
0.0
 40
0.0
 40
1.0
 40
1.0
 40
1.0
 40
2.0
 40
2.0
 40
2.0
 40
3.0
 40
3.0
 40
3.0
 40
4.0
 40
4.0
 40
4.0
 40
5.0
 40
5.0
 40
5.0
 40
6.0
 40
6.0
 40
6.0
 40
7.0
 40
7.0
 40
7.0
 40
7.0
 10
11.35847981486871
 20
-3.06992458690613
 10
11.36054687215986
 20
-2.849093966301615
 10
11.25857204579647
 20
-2.738506401225096
 10
11.05289984532705
 20
-2.737645127353783
 10
11.05289984532705
 20
-2.737645127353783
 10
11.0494547498418
 20
-2.737817382128046
 10
11.0494547498418
 20
-2.737817382128046
 10
10.84498833279223
 20
-2.737472872579521
 10
10.74197997778326
 20
-2.847888182881778
 10
10.74008517526637
 20
-3.06854654871203
 10
10.74008517526637
 20
-3.06854654871203
 10
10.72234293351733
 20
-5.254459634103052
 10
10.72234293351733
 20
-5.254459634103052
 10
10.72044813100044
 20
-5.475117999933304
 10
10.82207844781531
 20
-5.585361055461298
 10
11.02792290305899
 20
-5.585877819784086
 10
11.23445637739972
 20
-5.586566838881136
 10
11.33884277060279
 20
-5.476323783353141
 10
11.34056531834542
 20
-5.25566541752289
 10
11.34056531834542
 20
-5.25566541752289
 10
11.35847981486871
 20
-3.06992458690613
 10
11.35847981486871
 20
-3.06992458690613
 97
        0
 97
        0
 75
     2
 76
     1
 98
        0
  0
POLYLINE
  5
74
330
6D
100
AcDbEntity
  8
Numbers
370
     0
100
AcDb2dPolyline
 66
     1
 10
0.0
 20
0.0
 30
0.0
  0
VERTEX
  5
75
330
74
100
AcDbEntity
  8
Numbers
370
     0
100
AcDbVertex
100
AcDb2dVertex
 10
16.14509548207484
 20
-4.215418835751701
 30
0.0
  0
VERTEX
  5
76
330
74
100
AcDbEntity
  8
Numbers
370
     0
100
AcDbVertex
100
AcDb2dVertex
 10
14.31299370301898
 20
-6.68107367454501
 30
0.0
  0
VERTEX
  5
77
330
74
100
AcDbEntity
  8
Numbers
370
     0
100
AcDbVertex
100
AcDb2dVertex
 10
14.69298773504203
 20
-6.963399249561234
 30
0.0
  0
VERTEX
  5
78
330
74
100
AcDbEntity
  8
Numbers
370
     0
100
AcDbVertex
100
AcDb2dVertex
 10
14.49730631147984
 20
-7.227293563731371
 30
0.0
  0
VERTEX
  5
79
330
74
100
AcDbEntity
  8
Numbers
370
     0
100
AcDbVertex
100
AcDb2dVertex
 10
13.47239040461801
 20
-6.465582951942633
 30
0.0
  0
VERTEX
  5
7A
330
74
100
AcDbEntity
  8
Numbers
370
     0
100
AcDbVertex
100
AcDb2dVertex
 10
13.6680718281802
 20
-6.202377656869545
 30
0.0
  0
VERTEX
  5
7B
330
74
100
AcDbEntity
  8
Numbers
370
     0
100
AcDbVertex
100
AcDb2dVertex
 10
14.04978840794589
 20
-6.485564505757082
 30
0.0
  0
VERTEX
  5
7C
330
74
100
AcDbEntity
  8
Numbers
370
     0
100
AcDbVertex
100
AcDb2dVertex
 10
15.68586425389103
 20
-4.283287216811122
 30
0.0
  0
VERTEX
  5
7D
330
74
100
AcDbEntity
  8
Numbers
370
     0
100
AcDbVertex
100
AcDb2dVertex
 10
15.30449218367388
 20
-3.999928113149324
 30
0.0
  0
VERTEX
  5
7E
330
74
100
AcDbEntity
  8
Numbers
370
     0
100
AcDbVertex
100
AcDb2dVertex
 10
15.50017360723607
 20
-3.736378308527711
 30
0.0
  0
VERTEX
  5
7F
330
74
100
AcDbEntity
  8
Numbers
370
     0
100
AcDbVertex
100
AcDb2dVertex
 10
16.14509548207484
 20
-4.215418835751701
 30
0.0
  0
SEQEND
  5
80
330
74
100
AcDbEntity
  8
Numbers
370
     0
  0
HATCH
  5
81
330
6D
100
AcDbEntity
  8
Numbers
 62
   250
420
  2301728
100
AcDbHatch
 10
0.0
 20
0.0
 30
0.0
210
0.0
220
0.0
230
1.0
  2
SOLID
 70
     1
 71
     0
 91
        1
 92
        1
 93
       10
 72
     1
 10
16.14509548207484
 20
-4.215418835751701
 11
14.31299370301898
 21
-6.68107367454501
 72
     1
 10
14.31299370301898
 20
-6.68107367454501
 11
14.69298773504203
 21
-6.963399249561234
 72
     1
 10
14.69298773504203
 20
-6.963399249561234
 11
14.49730631147984
 21
-7.227293563731371
 72
     1
 10
14.49730631147984
 20
-7.227293563731371
 11
13.47239040461801
 21
-6.465582951942633
 72
     1
 10
13.47239040461801
 20
-6.465582951942633
 11
13.6680718281802
 21
-6.202377656869545
 72
     1
 10
13.6680718281802
 20
-6.202377656869545
 11
14.04978840794589
 21
-6.485564505757082
 72
     1
 10
14.04978840794589
 20
-6.485564505757082
 11
15.68586425389103
 21
-4.283287216811122
 72
     1
 10
15.68586425389103
 20
-4.283287216811122
 11
15.30449218367388
 21
-3.999928113149324
 72
     1
 10
15.30449218367388
 20
-3.999928113149324
 11
15.50017360723607
 21
-3.736378308527711
 72
     1
 10
15.50017360723607
 20
-3.736378308527711
 11
16.14509548207484
 21
-4.215418835751701
 97
        0
 75
     2
 76
     1
 98
        0
  0
SPLINE
  5
82
330
6D
100
AcDbEntity
  8
Numbers
370
     0
100
AcDbSpline
210
0.0
220
0.0
230
1.0
 70
    11
 71
     3
 72
    62
 73
    58
 74
     0
 42
0.0000000001
 43
0.0000000001
 12
1.0
 22
0.0
 32
0.0
 13
1.0
 23
0.0
 33
0.0
 40
0.0
 40
0.0
 40
0.0
 40
0.0
 40
1.0
 40
1.0
 40
1.0
 40
2.0
 40
2.0
 40
2.0
 40
3.0
 40
3.0
 40
3.0
 40
4.0
 40
4.0
 40
4.0
 40
5.0
 40
5.0
 40
5.0
 40
6.0
 40
6.0
 40
6.0
 40
7.0
 40
7.0
 40
7.0
 40
8.0
 40
8.0
 40
8.0
 40
9.0
 40
9.0
 40
9.0
 40
10.0
 40
10.0
 40
10.0
 40
11.0
 40
11.0
 40
11.0
 40
12.0
 40
12.0
 40
12.0
 40
13.0
 40
13.0
 40
13.0
 40
14.0
 40
14.0
 40
14.0
 40
15.0
 40
15.0
 40
15.0
 40
16.0
 40
16.0
 40
16.0
 40
17.0
 40
17.0
 40
17.0
 40
18.0
 40
18.0
 40
18.0
 40
19.0
 40
19.0
 40
19.0
 40
19.0
 10
16.25637206624841
 20
-8.58965657337342
 30
0.0
 10
16.53404676235954
 20
-8.499739581208399
 30
0.0
 10
16.81826713989266
 20
-8.560545516523058
 30
0.0
 10
17.10799967020217
 20
-8.772246634091662
 30
0.0
 10
17.4449300086596
 20
-9.022188311546536
 30
0.0
 10
17.70469020824744
 20
-9.118134220810745
 30
0.0
 10
17.88624674032011
 20
-9.060601126207072
 30
0.0
 10
17.88624674032011
 20
-9.060601126207072
 30
0.0
 10
18.55425075491005
 20
-8.845282658378958
 30
0.0
 10
18.55425075491005
 20
-8.845282658378958
 30
0.0
 10
18.76543510815586
 20
-8.77706976777101
 30
0.0
 10
18.84019368018578
 20
-8.645811629782992
 30
0.0
 10
18.77852647099981
 20
-8.45064697054359
 30
0.0
 10
18.77852647099981
 20
-8.45064697054359
 30
0.0
 10
18.77749294235424
 20
-8.447201875058338
 30
0.0
 10
18.77749294235424
 20
-8.447201875058338
 30
0.0
 10
18.71548122361974
 20
-8.251348196721885
 30
0.0
 10
18.57905544240385
 20
-8.18726942069624
 30
0.0
 10
18.36787108915803
 20
-8.255482311304185
 30
0.0
 10
18.36787108915803
 20
-8.255482311304185
 30
0.0
 10
17.99890136268777
 20
-8.374854869868091
 30
0.0
 10
17.99890136268777
 20
-8.374854869868091
 30
0.0
 10
17.99890136268777
 20
-8.374854869868091
 30
0.0
 10
17.89899359361553
 20
-8.059628632967732
 30
0.0
 10
17.89899359361553
 20
-8.059628632967732
 30
0.0
 10
17.89899359361553
 20
-8.059628632967732
 30
0.0
 10
18.26830782963431
 20
-7.94060058395235
 30
0.0
 10
18.26830782963431
 20
-7.94060058395235
 30
0.0
 10
18.68929849793184
 20
-7.804863821833506
 30
0.0
 10
18.96387260810625
 20
-7.939739310081038
 30
0.0
 10
19.0927191792546
 20
-8.345916067791993
 30
0.0
 10
19.22156575040294
 20
-8.752954099374262
 30
0.0
 10
19.07514919227982
 20
-9.024255368837686
 30
0.0
 10
18.65415852398229
 20
-9.15999213095653
 30
0.0
 10
18.65415852398229
 20
-9.15999213095653
 30
0.0
 10
17.9744411847425
 20
-9.379272458592682
 30
0.0
 10
17.9744411847425
 20
-9.379272458592682
 30
0.0
 10
17.69125433585496
 20
-9.470739743726066
 30
0.0
 10
17.40393337238513
 20
-9.410450572734193
 30
0.0
 10
17.11247829433299
 20
-9.198060436068541
 30
0.0
 10
16.77451442722998
 20
-8.948635522936453
 30
0.0
 10
16.5085530557687
 20
-8.85510118051192
 30
0.0
 10
16.31493868949766
 20
-8.917457408794942
 30
0.0
 10
16.31493868949766
 20
-8.917457408794942
 30
0.0
 10
16.02451714009109
 20
-9.011336260768
 30
0.0
 10
16.02451714009109
 20
-9.011336260768
 30
0.0
 10
16.02451714009109
 20
-9.011336260768
 30
0.0
 10
16.31046006536683
 20
-9.916190589968869
 30
0.0
 10
16.31046006536683
 20
-9.916190589968869
 30
0.0
 10
16.31046006536683
 20
-9.916190589968869
 30
0.0
 10
15.99730088575762
 20
-10.01730414246095
 30
0.0
 10
15.99730088575762
 20
-10.01730414246095
 30
0.0
 10
15.99730088575762
 20
-10.01730414246095
 30
0.0
 10
15.61145019140964
 20
-8.797568085908248
 30
0.0
 10
15.61145019140964
 20
-8.797568085908248
 30
0.0
 10
15.61145019140964
 20
-8.797568085908248
 30
0.0
 10
16.25637206624841
 20
-8.58965657337342
 30
0.0
 10
16.25637206624841
 20
-8.58965657337342
 30
0.0
  0
HATCH
  5
83
330
6D
100
AcDbEntity
  8
Numbers
 62
   250
420
  2301728
100
AcDbHatch
 10
0.0
 20
0.0
 30
0.0
210
0.0
220
0.0
230
1.0
  2
SOLID
 70
     1
 71
     0
 91
        1
 92
        1
 93
        1
 72
     4
 94
        3
 73
     0
 74
     1
 95
       62
 96
       58
 40
0.0
 40
0.0
 40
0.0
 40
0.0
 40
1.0
 40
1.0
 40
1.0
 40
2.0
 40
2.0
 40
2.0
 40
3.0
 40
3.0
 40
3.0
 40
4.0
 40
4.0
 40
4.0
 40
5.0
 40
5.0
 40
5.0
 40
6.0
 40
6.0
 40
6.0
 40
7.0
 40
7.0
 40
7.0
 40
8.0
 40
8.0
 40
8.0
 40
9.0
 40
9.0
 40
9.0
 40
10.0
 40
10.0
 40
10.0
 40
11.0
 40
11.0
 40
11.0
 40
12.0
 40
12.0
 40
12.0
 40
13.0
 40
13.0
 40
13.0
 40
14.0
 40
14.0
 40
14.0
 40
15.0
 40
15.0
 40
15.0
 40
16.0
 40
16.0
 40
16.0
 40
17.0
 40
17.0
 40
17.0
 40
18.0
 40
18.0
 40
18.0
 40
19.0
 40
19.0
 40
19.0
 40
19.0
 10
16.25637206624841
 20
-8.58965657337342
 10
16.53404676235954
 20
-8.499739581208399
 10
16.81826713989266
 20
-8.560545516523058
 10
17.10799967020217
 20
-8.772246634091662
 10
17.4449300086596
 20
-9.022188311546536
 10
17.70469020824744
 20
-9.118134220810745
 10
17.88624674032011
 20
-9.060601126207072
 10
17.88624674032011
 20
-9.060601126207072
 10
18.55425075491005
 20
-8.845282658378958
 10
18.55425075491005
 20
-8.845282658378958
 10
18.76543510815586
 20
-8.77706976777101
 10
18.84019368018578
 20
-8.645811629782992
 10
18.77852647099981
 20
-8.45064697054359
 10
18.77852647099981
 20
-8.45064697054359
 10
18.77749294235424
 20
-8.447201875058338
 10
18.77749294235424
 20
-8.447201875058338
 10
18.71548122361974
 20
-8.251348196721885
 10
18.57905544240385
 20
-8.18726942069624
 10
18.36787108915803
 20
-8.255482311304185
 10
18.36787108915803
 20
-8.255482311304185
 10
17.99890136268777
 20
-8.374854869868091
 10
17.99890136268777
 20
-8.374854869868091
 10
17.99890136268777
 20
-8.374854869868091
 10
17.89899359361553
 20
-8.059628632967732
 10
17.89899359361553
 20
-8.059628632967732
 10
17.89899359361553
 20
-8.059628632967732
 10
18.26830782963431
 20
-7.94060058395235
 10
18.26830782963431
 20
-7.94060058395235
 10
18.68929849793184
 20
-7.804863821833506
 10
18.96387260810625
 20
-7.939739310081038
 10
19.0927191792546
 20
-8.345916067791993
 10
19.22156575040294
 20
-8.752954099374262
 10
19.07514919227982
 20
-9.024255368837686
 10
18.65415852398229
 20
-9.15999213095653
 10
18.65415852398229
 20
-9.15999213095653
 10
17.9744411847425
 20
-9.379272458592682
 10
17.9744411847425
 20
-9.379272458592682
 10
17.69125433585496
 20
-9.470739743726066
 10
17.40393337238513
 20
-9.410450572734193
 10
17.11247829433299
 20
-9.198060436068541
 10
16.77451442722998
 20
-8.948635522936453
 10
16.5085530557687
 20
-8.85510118051192
 10
16.31493868949766
 20
-8.917457408794942
 10
16.31493868949766
 20
-8.917457408794942
 10
16.02451714009109
 20
-9.011336260768
 10
16.02451714009109
 20
-9.011336260768
 10
16.02451714009109
 20
-9.011336260768
 10
16.31046006536683
 20
-9.916190589968869
 10
16.31046006536683
 20
-9.916190589968869
 10
16.31046006536683
 20
-9.916190589968869
 10
15.99730088575762
 20
-10.01730414246095
 10
15.99730088575762
 20
-10.01730414246095
 10
15.99730088575762
 20
-10.01730414246095
 10
15.61145019140964
 20
-8.797568085908248
 10
15.61145019140964
 20
-8.797568085908248
 10
15.61145019140964
 20
-8.797568085908248
 10
16.25637206624841
 20
-8.58965657337342
 10
16.25637206624841
 20
-8.58965657337342
 97
        0
 97
        0
 75
     2
 76
     1
 98
        0
  0
SPLINE
  5
84
330
6D
100
AcDbEntity
  8
Numbers
370
     0
100
AcDbSpline
210
0.0
220
0.0
230
1.0
 70
    11
 71
     3
 72
    80
 73
    76
 74
     0
 42
0.0000000001
 43
0.0000000001
 12
1.0
 22
0.0
 32
0.0
 13
1.0
 23
0.0
 33
0.0
 40
0.0
 40
0.0
 40
0.0
 40
0.0
 40
1.0
 40
1.0
 40
1.0
 40
2.0
 40
2.0
 40
2.0
 40
3.0
 40
3.0
 40
3.0
 40
4.0
 40
4.0
 40
4.0
 40
5.0
 40
5.0
 40
5.0
 40
6.0
 40
6.0
 40
6.0
 40
7.0
 40
7.0
 40
7.0
 40
8.0
 40
8.0
 40
8.0
 40
9.0
 40
9.0
 40
9.0
 40
10.0
 40
10.0
 40
10.0
 40
11.0
 40
11.0
 40
11.0
 40
12.0
 40
12.0
 40
12.0
 40
13.0
 40
13.0
 40
13.0
 40
14.0
 40
14.0
 40
14.0
 40
15.0
 40
15.0
 40
15.0
 40
16.0
 40
16.0
 40
16.0
 40
17.0
 40
17.0
 40
17.0
 40
18.0
 40
18.0
 40
18.0
 40
19.0
 40
19.0
 40
19.0
 40
20.0
 40
20.0
 40
20.0
 40
21.0
 40
21.0
 40
21.0
 40
22.0
 40
22.0
 40
22.0
 40
23.0
 40
23.0
 40
23.0
 40
24.0
 40
24.0
 40
24.0
 40
25.0
 40
25.0
 40
25.0
 40
25.0
 10
17.58376735671517
 20
-13.11134439776383
 30
0.0
 10
17.54931640186267
 20
-13.33355305656245
 30
0.0
 10
17.63785535583359
 20
-13.47583550010326
 30
0.0
 10
17.84938421862793
 20
-13.53956976658039
 30
0.0
 10
17.84938421862793
 20
-13.53956976658039
 30
0.0
 10
18.36580403186688
 20
-13.70183376393565
 30
0.0
 10
18.36580403186688
 20
-13.70183376393565
 30
0.0
 10
18.5756103469186
 20
-13.76797959725245
 30
0.0
 10
18.71203612813449
 20
-13.70286729258123
 30
0.0
 10
18.77439235641751
 20
-13.50649684992199
 30
0.0
 10
18.83778211334611
 20
-13.30874836906865
 30
0.0
 10
18.76440157951029
 20
-13.17680121198358
 30
0.0
 10
18.55459526445857
 20
-13.11065537866678
 30
0.0
 10
18.55459526445857
 20
-13.11065537866678
 30
0.0
 10
18.18252495205159
 20
-12.99352213216829
 30
0.0
 10
18.18252495205159
 20
-12.99352213216829
 30
0.0
 10
18.18252495205159
 20
-12.99352213216829
 30
0.0
 10
18.28346624976941
 20
-12.6779513857194
 30
0.0
 10
18.28346624976941
 20
-12.6779513857194
 30
0.0
 10
18.28346624976941
 20
-12.6779513857194
 30
0.0
 10
18.65519205262787
 20
-12.7950846322179
 30
0.0
 10
18.65519205262787
 20
-12.7950846322179
 30
0.0
 10
19.07377115408573
 20
-12.92668727975444
 30
0.0
 10
19.21880967401474
 20
-13.19712727534655
 30
0.0
 10
19.08927408376935
 20
-13.60571559989718
 30
0.0
 10
18.95904947442691
 20
-14.01258137670519
 30
0.0
 10
18.68447536425249
 20
-14.15004068656666
 30
0.0
 10
18.26486273414906
 20
-14.01809352948159
 30
0.0
 10
18.26486273414906
 20
-14.01809352948159
 30
0.0
 10
17.73225097212944
 20
-13.8499728698014
 30
0.0
 10
17.73225097212944
 20
-13.8499728698014
 30
0.0
 10
17.51693250430132
 20
-13.78175997919345
 30
0.0
 10
17.38498534721625
 20
-13.60606010944571
 30
0.0
 10
17.33640950087423
 20
-13.32218424146112
 30
0.0
 10
17.13280435769597
 20
-13.52647840373644
 30
0.0
 10
16.93574489593967
 20
-13.59882540892668
 30
0.0
 10
16.74557562515388
 20
-13.53888074748334
 30
0.0
 10
16.74557562515388
 20
-13.53888074748334
 30
0.0
 10
16.18678113744636
 20
-13.36249185863854
 30
0.0
 10
16.18678113744636
 20
-13.36249185863854
 30
0.0
 10
15.76716850734293
 20
-13.23054470155347
 30
0.0
 10
15.62212998741391
 20
-12.96113823460694
 30
0.0
 10
15.75235459675636
 20
-12.55392794825041
 30
0.0
 10
15.8839572442929
 20
-12.1456841332483
 30
0.0
 10
16.15853135446731
 20
-12.00822482338683
 30
0.0
 10
16.57711045592517
 20
-12.13982747092338
 30
0.0
 10
16.57711045592517
 20
-12.13982747092338
 30
0.0
 10
16.94918076833215
 20
-12.25696071742187
 30
0.0
 10
16.94918076833215
 20
-12.25696071742187
 30
0.0
 10
16.94918076833215
 20
-12.25696071742187
 30
0.0
 10
16.84858398016285
 20
-12.57322048296781
 30
0.0
 10
16.84858398016285
 20
-12.57322048296781
 30
0.0
 10
16.84858398016285
 20
-12.57322048296781
 30
0.0
 10
16.47616915820735
 20
-12.45574272692079
 30
0.0
 10
16.47616915820735
 20
-12.45574272692079
 30
0.0
 10
16.26636284315563
 20
-12.38959689360399
 30
0.0
 10
16.12993706193974
 20
-12.45539821737226
 30
0.0
 10
16.06723632410819
 20
-12.6531466982256
 30
0.0
 10
16.00419107672812
 20
-12.84917263133632
 30
0.0
 10
16.07791612011247
 20
-12.98043076932434
 30
0.0
 10
16.28772243516418
 20
-13.04692111218966
 30
0.0
 10
16.28772243516418
 20
-13.04692111218966
 30
0.0
 10
16.8465169228717
 20
-13.22296549148593
 30
0.0
 10
16.8465169228717
 20
-13.22296549148593
 30
0.0
 10
17.04977755650145
 20
-13.29083387254535
 30
0.0
 10
17.19137098094521
 20
-13.21883137690363
 30
0.0
 10
17.27095268665449
 20
-13.00730251410929
 30
0.0
 10
17.27095268665449
 20
-13.00730251410929
 30
0.0
 10
17.31952853299651
 20
-12.85502929366124
 30
0.0
 10
17.31952853299651
 20
-12.85502929366124
 30
0.0
 10
17.31952853299651
 20
-12.85502929366124
 30
0.0
 10
17.63406575079982
 20
-12.95424804363644
 30
0.0
 10
17.63406575079982
 20
-12.95424804363644
 30
0.0
 10
17.63406575079982
 20
-12.95424804363644
 30
0.0
 10
17.58376735671517
 20
-13.11134439776383
 30
0.0
 10
17.58376735671517
 20
-13.11134439776383
 30
0.0
  0
HATCH
  5
85
330
6D
100
AcDbEntity
  8
Numbers
 62
   250
420
  2301728
100
AcDbHatch
 10
0.0
 20
0.0
 30
0.0
210
0.0
220
0.0
230
1.0
  2
SOLID
 70
     1
 71
     0
 91
        1
 92
        1
 93
        1
 72
     4
 94
        3
 73
     0
 74
     1
 95
       80
 96
       76
 40
0.0
 40
0.0
 40
0.0
 40
0.0
 40
1.0
 40
1.0
 40
1.0
 40
2.0
 40
2.0
 40
2.0
 40
3.0
 40
3.0
 40
3.0
 40
4.0
 40
4.0
 40
4.0
 40
5.0
 40
5.0
 40
5.0
 40
6.0
 40
6.0
 40
6.0
 40
7.0
 40
7.0
 40
7.0
 40
8.0
 40
8.0
 40
8.0
 40
9.0
 40
9.0
 40
9.0
 40
10.0
 40
10.0
 40
10.0
 40
11.0
 40
11.0
 40
11.0
 40
12.0
 40
12.0
 40
12.0
 40
13.0
 40
13.0
 40
13.0
 40
14.0
 40
14.0
 40
14.0
 40
15.0
 40
15.0
 40
15.0
 40
16.0
 40
16.0
 40
16.0
 40
17.0
 40
17.0
 40
17.0
 40
18.0
 40
18.0
 40
18.0
 40
19.0
 40
19.0
 40
19.0
 40
20.0
 40
20.0
 40
20.0
 40
21.0
 40
21.0
 40
21.0
 40
22.0
 40
22.0
 40
22.0
 40
23.0
 40
23.0
 40
23.0
 40
24.0
 40
24.0
 40
24.0
 40
25.0
 40
25.0
 40
25.0
 40
25.0
 10
17.58376735671517
 20
-13.11134439776383
 10
17.54931640186267
 20
-13.33355305656245
 10
17.63785535583359
 20
-13.47583550010326
 10
17.84938421862793
 20
-13.53956976658039
 10
17.84938421862793
 20
-13.53956976658039
 10
18.36580403186688
 20
-13.70183376393565
 10
18.36580403186688
 20
-13.70183376393565
 10
18.5756103469186
 20
-13.76797959725245
 10
18.71203612813449
 20
-13.70286729258123
 10
18.77439235641751
 20
-13.50649684992199
 10
18.83778211334611
 20
-13.30874836906865
 10
18.76440157951029
 20
-13.17680121198358
 10
18.55459526445857
 20
-13.11065537866678
 10
18.55459526445857
 20
-13.11065537866678
 10
18.18252495205159
 20
-12.99352213216829
 10
18.18252495205159
 20
-12.99352213216829
 10
18.18252495205159
 20
-12.99352213216829
 10
18.28346624976941
 20
-12.6779513857194
 10
18.28346624976941
 20
-12.6779513857194
 10
18.28346624976941
 20
-12.6779513857194
 10
18.65519205262787
 20
-12.7950846322179
 10
18.65519205262787
 20
-12.7950846322179
 10
19.07377115408573
 20
-12.92668727975444
 10
19.21880967401474
 20
-13.19712727534655
 10
19.08927408376935
 20
-13.60571559989718
 10
18.95904947442691
 20
-14.01258137670519
 10
18.68447536425249
 20
-14.15004068656666
 10
18.26486273414906
 20
-14.01809352948159
 10
18.26486273414906
 20
-14.01809352948159
 10
17.73225097212944
 20
-13.8499728698014
 10
17.73225097212944
 20
-13.8499728698014
 10
17.51693250430132
 20
-13.78175997919345
 10
17.38498534721625
 20
-13.60606010944571
 10
17.33640950087423
 20
-13.32218424146112
 10
17.13280435769597
 20
-13.52647840373644
 10
16.93574489593967
 20
-13.59882540892668
 10
16.74557562515388
 20
-13.53888074748334
 10
16.74557562515388
 20
-13.53888074748334
 10
16.18678113744636
 20
-13.36249185863854
 10
16.18678113744636
 20
-13.36249185863854
 10
15.76716850734293
 20
-13.23054470155347
 10
15.62212998741391
 20
-12.96113823460694
 10
15.75235459675636
 20
-12.55392794825041
 10
15.8839572442929
 20
-12.1456841332483
 10
16.15853135446731
 20
-12.00822482338683
 10
16.57711045592517
 20
-12.13982747092338
 10
16.57711045592517
 20
-12.13982747092338
 10
16.94918076833215
 20
-12.25696071742187
 10
16.94918076833215
 20
-12.25696071742187
 10
16.94918076833215
 20
-12.25696071742187
 10
16.84858398016285
 20
-12.57322048296781
 10
16.84858398016285
 20
-12.57322048296781
 10
16.84858398016285
 20
-12.57322048296781
 10
16.47616915820735
 20
-12.45574272692079
 10
16.47616915820735
 20
-12.45574272692079
 10
16.26636284315563
 20
-12.38959689360399
 10
16.12993706193974
 20
-12.45539821737226
 10
16.06723632410819
 20
-12.6531466982256
 10
16.00419107672812
 20
-12.84917263133632
 10
16.07791612011247
 20
-12.98043076932434
 10
16.28772243516418
 20
-13.04692111218966
 10
16.28772243516418
 20
-13.04692111218966
 10
16.8465169228717
 20
-13.22296549148593
 10
16.8465169228717
 20
-13.22296549148593
 10
17.04977755650145
 20
-13.29083387254535
 10
17.19137098094521
 20
-13.21883137690363
 10
17.27095268665449
 20
-13.00730251410929
 10
17.27095268665449
 20
-13.00730251410929
 10
17.31952853299651
 20
-12.85502929366124
 10
17.31952853299651
 20
-12.85502929366124
 10
17.31952853299651
 20
-12.85502929366124
 10
17.63406575079982
 20
-12.95424804363644
 10
17.63406575079982
 20
-12.95424804363644
 10
17.63406575079982
 20
-12.95424804363644
 10
17.58376735671517
 20
-13.11134439776383
 10
17.58376735671517
 20
-13.11134439776383
 97
        0
 97
        0
 75
     2
 76
     1
 98
        0
  0
POLYLINE
  5
86
330
6D
100
AcDbEntity
  8
Numbers
370
     0
100
AcDb2dPolyline
 66
     1
 10
0.0
 20
0.0
 30
0.0
  0
VERTEX
  5
87
330
86
100
AcDbEntity
  8
Numbers
370
     0
100
AcDbVertex
100
AcDb2dVertex
 10
15.49603949265377
 20
-18.22593315516574
 30
0.0
  0
VERTEX
  5
88
330
86
100
AcDbEntity
  8
Numbers
370
     0
100
AcDbVertex
100
AcDb2dVertex
 10
14.20412868568508
 20
-16.4672119099457
 30
0.0
  0
VERTEX
  5
89
330
86
100
AcDbEntity
  8
Numbers
370
     0
100
AcDbVertex
100
AcDb2dVertex
 10
14.04703233155769
 20
-16.58365613734714
 30
0.0
  0
VERTEX
  5
8A
330
86
100
AcDbEntity
  8
Numbers
370
     0
100
AcDbVertex
100
AcDb2dVertex
 10
13.85376247483517
 20
-16.32045084227406
 30
0.0
  0
VERTEX
  5
8B
330
86
100
AcDbEntity
  8
Numbers
370
     0
100
AcDbVertex
100
AcDb2dVertex
 10
14.01085882896256
 20
-16.20400661487261
 30
0.0
  0
VERTEX
  5
8C
330
86
100
AcDbEntity
  8
Numbers
370
     0
100
AcDbVertex
100
AcDb2dVertex
 10
13.49443901572361
 20
-15.50086262633312
 30
0.0
  0
VERTEX
  5
8D
330
86
100
AcDbEntity
  8
Numbers
370
     0
100
AcDbVertex
100
AcDb2dVertex
 10
13.76074489673343
 20
-15.3034586550283
 30
0.0
  0
VERTEX
  5
8E
330
86
100
AcDbEntity
  8
Numbers
370
     0
100
AcDbVertex
100
AcDb2dVertex
 10
14.2775092195209
 20
-16.00729166266484
 30
0.0
  0
VERTEX
  5
8F
330
86
100
AcDbEntity
  8
Numbers
370
     0
100
AcDbVertex
100
AcDb2dVertex
 10
15.10708821236906
 20
-15.3930311376448
 30
0.0
  0
VERTEX
  5
90
330
86
100
AcDbEntity
  8
Numbers
370
     0
100
AcDbVertex
100
AcDb2dVertex
 10
15.31069335554733
 20
-15.67001681465888
 30
0.0
  0
VERTEX
  5
91
330
86
100
AcDbEntity
  8
Numbers
370
     0
100
AcDbVertex
100
AcDb2dVertex
 10
15.89946017397653
 20
-17.9275878861431
 30
0.0
  0
VERTEX
  5
92
330
86
100
AcDbEntity
  8
Numbers
370
     0
100
AcDbVertex
100
AcDb2dVertex
 10
15.49603949265377
 20
-18.22593315516574
 30
0.0
  0
SEQEND
  5
93
330
86
100
AcDbEntity
  8
Numbers
370
     0
  0
POLYLINE
  5
94
330
6D
100
AcDbEntity
  8
Numbers
370
     0
100
AcDb2dPolyline
 66
     1
 10
0.0
 20
0.0
 30
0.0
  0
VERTEX
  5
95
330
94
100
AcDbEntity
  8
Numbers
370
     0
100
AcDbVertex
100
AcDb2dVertex
 10
15.07332627661361
 20
-15.82401258284955
 30
0.0
  0
VERTEX
  5
96
330
94
100
AcDbEntity
  8
Numbers
370
     0
100
AcDbVertex
100
AcDb2dVertex
 10
14.47077907624342
 20
-16.27049695773793
 30
0.0
  0
VERTEX
  5
97
330
94
100
AcDbEntity
  8
Numbers
370
     0
100
AcDbVertex
100
AcDb2dVertex
 10
15.60800509592439
 20
-17.81837835926068
 30
0.0
  0
VERTEX
  5
98
330
94
100
AcDbEntity
  8
Numbers
370
     0
100
AcDbVertex
100
AcDb2dVertex
 10
15.07332627661361
 20
-15.82401258284955
 30
0.0
  0
SEQEND
  5
99
330
94
100
AcDbEntity
  8
Numbers
370
     0
  0
HATCH
  5
9A
330
6D
100
AcDbEntity
  8
Numbers
 62
   250
420
  2301728
100
AcDbHatch
 10
0.0
 20
0.0
 30
0.0
210
0.0
220
0.0
230
1.0
  2
SOLID
 70
     1
 71
     0
 91
        2
 92
        1
 93
       11
 72
     1
 10
15.49603949265377
 20
-18.22593315516574
 11
14.20412868568508
 21
-16.4672119099457
 72
     1
 10
14.20412868568508
 20
-16.4672119099457
 11
14.04703233155769
 21
-16.58365613734714
 72
     1
 10
14.04703233155769
 20
-16.58365613734714
 11
13.85376247483517
 21
-16.32045084227406
 72
     1
 10
13.85376247483517
 20
-16.32045084227406
 11
14.01085882896256
 21
-16.20400661487261
 72
     1
 10
14.01085882896256
 20
-16.20400661487261
 11
13.49443901572361
 21
-15.50086262633312
 72
     1
 10
13.49443901572361
 20
-15.50086262633312
 11
13.76074489673343
 21
-15.3034586550283
 72
     1
 10
13.76074489673343
 20
-15.3034586550283
 11
14.2775092195209
 21
-16.00729166266484
 72
     1
 10
14.2775092195209
 20
-16.00729166266484
 11
15.10708821236906
 21
-15.3930311376448
 72
     1
 10
15.10708821236906
 20
-15.3930311376448
 11
15.31069335554733
 21
-15.67001681465888
 72
     1
 10
15.31069335554733
 20
-15.67001681465888
 11
15.89946017397653
 21
-17.9275878861431
 72
     1
 10
15.89946017397653
 20
-17.9275878861431
 11
15.49603949265377
 21
-18.22593315516574
 97
        0
 92
        1
 93
        3
 72
     1
 10
15.07332627661361
 20
-15.82401258284955
 11
14.47077907624342
 21
-16.27049695773793
 72
     1
 10
14.47077907624342
 20
-16.27049695773793
 11
15.60800509592439
 21
-17.81837835926068
 72
     1
 10
15.60800509592439
 20
-17.81837835926068
 11
15.07332627661361
 21
-15.82401258284955
 97
        0
 75
     2
 76
     1
 98
        0
  0
SPLINE
  5
9B
330
6D
100
AcDbEntity
  8
Numbers
370
     0
100
AcDbSpline
210
0.0
220
0.0
230
1.0
 70
    11
 71
     3
 72
    77
 73
    73
 74
     0
 42
0.0000000001
 43
0.0000000001
 12
1.0
 22
0.0
 32
0.0
 13
1.0
 23
0.0
 33
0.0
 40
0.0
 40
0.0
 40
0.0
 40
0.0
 40
1.0
 40
1.0
 40
1.0
 40
2.0
 40
2.0
 40
2.0
 40
3.0
 40
3.0
 40
3.0
 40
4.0
 40
4.0
 40
4.0
 40
5.0
 40
5.0
 40
5.0
 40
6.0
 40
6.0
 40
6.0
 40
7.0
 40
7.0
 40
7.0
 40
8.0
 40
8.0
 40
8.0
 40
9.0
 40
9.0
 40
9.0
 40
10.0
 40
10.0
 40
10.0
 40
11.0
 40
11.0
 40
11.0
 40
12.0
 40
12.0
 40
12.0
 40
13.0
 40
13.0
 40
13.0
 40
14.0
 40
14.0
 40
14.0
 40
15.0
 40
15.0
 40
15.0
 40
16.0
 40
16.0
 40
16.0
 40
17.0
 40
17.0
 40
17.0
 40
18.0
 40
18.0
 40
18.0
 40
19.0
 40
19.0
 40
19.0
 40
20.0
 40
20.0
 40
20.0
 40
21.0
 40
21.0
 40
21.0
 40
22.0
 40
22.0
 40
22.0
 40
23.0
 40
23.0
 40
23.0
 40
24.0
 40
24.0
 40
24.0
 40
24.0
 10
10.6508572021984
 20
-17.75085448774979
 30
0.0
 10
10.64930690923003
 20
-17.91621907104178
 30
0.0
 10
10.69254285756992
 20
-18.01784938785665
 30
0.0
 10
10.78039279244379
 20
-18.05643445729145
 30
0.0
 10
10.81759982368449
 20
-18.07607150155737
 30
0.0
 10
10.8749606635139
 20
-18.0860622784646
 30
0.0
 10
10.95299207625481
 20
-18.0860622784646
 30
0.0
 10
10.97090657277811
 20
-18.0860622784646
 30
0.0
 10
10.98847655975288
 20
-18.08571776891607
 30
0.0
 10
11.00535752763061
 20
-18.0846842402705
 30
0.0
 10
11.15573594556176
 20
-18.07813855884852
 30
0.0
 10
11.24151882314448
 20
-18.0047580250127
 30
0.0
 10
11.26322292470156
 20
-17.86488714831156
 30
0.0
 10
11.26322292470156
 20
-17.86488714831156
 30
0.0
 10
11.26546223676697
 20
-17.80080837228591
 30
0.0
 10
11.26546223676697
 20
-17.80080837228591
 30
0.0
 10
11.26546223676697
 20
-17.80080837228591
 30
0.0
 10
11.59619140335095
 20
-17.80218641048001
 30
0.0
 10
11.59619140335095
 20
-17.80218641048001
 30
0.0
 10
11.59619140335095
 20
-17.80218641048001
 30
0.0
 10
11.51282009260791
 20
-19.53093532497838
 30
0.0
 10
11.51282009260791
 20
-19.53093532497838
 30
0.0
 10
11.51282009260791
 20
-19.53093532497838
 30
0.0
 10
10.30462510593079
 20
-19.52749022949313
 30
0.0
 10
10.30462510593079
 20
-19.52749022949313
 30
0.0
 10
10.30462510593079
 20
-19.52749022949313
 30
0.0
 10
10.30755343709325
 20
-19.19779459155472
 30
0.0
 10
10.30755343709325
 20
-19.19779459155472
 30
0.0
 10
10.30755343709325
 20
-19.19779459155472
 30
0.0
 10
11.19707709138476
 20
-19.20055066794292
 30
0.0
 10
11.19707709138476
 20
-19.20055066794292
 30
0.0
 10
11.19707709138476
 20
-19.20055066794292
 30
0.0
 10
11.25237087392302
 20
-18.13877223938892
 30
0.0
 10
11.25237087392302
 20
-18.13877223938892
 30
0.0
 10
11.09940863437793
 20
-18.30861544681174
 30
0.0
 10
10.94954698076956
 20
-18.3964653816856
 30
0.0
 10
10.80278591309792
 20
-18.40301106310758
 30
0.0
 10
10.78917778593118
 20
-18.40301106310758
 30
0.0
 10
10.77212456327919
 20
-18.40094400581643
 30
0.0
 10
10.75179849991622
 20
-18.39784341987971
 30
0.0
 10
10.60055880811375
 20
-18.38475205703576
 30
0.0
 10
10.48704291187477
 20
-18.32480739559241
 30
0.0
 10
10.41107855642501
 20
-18.21732041645262
 30
0.0
 10
10.34872232814199
 20
-18.12774793383612
 30
0.0
 10
10.31840548787179
 20
-17.97134059880578
 30
0.0
 10
10.32047254516294
 20
-17.74982095910421
 30
0.0
 10
10.32047254516294
 20
-17.74982095910421
 30
0.0
 10
10.32942979342459
 20
-16.73420681005256
 30
0.0
 10
10.32942979342459
 20
-16.73420681005256
 30
0.0
 10
10.33339165323262
 20
-16.29426811658616
 30
0.0
 10
10.548882375835
 20
-16.07481553417574
 30
0.0
 10
10.97590196123172
 20
-16.07584906282132
 30
0.0
 10
11.40188801798286
 20
-16.07722710101542
 30
0.0
 10
11.61272786168015
 20
-16.29805772161993
 30
0.0
 10
11.60893825664638
 20
-16.73799641508634
 30
0.0
 10
11.60893825664638
 20
-16.73799641508634
 30
0.0
 10
11.60583767070965
 20
-17.07285969625262
 30
0.0
 10
11.60583767070965
 20
-17.07285969625262
 30
0.0
 10
11.60583767070965
 20
-17.07285969625262
 30
0.0
 10
11.27545301367419
 20
-17.07182616760704
 30
0.0
 10
11.27545301367419
 20
-17.07182616760704
 30
0.0
 10
11.27545301367419
 20
-17.07182616760704
 30
0.0
 10
11.27838134483665
 20
-16.73765190553781
 30
0.0
 10
11.27838134483665
 20
-16.73765190553781
 30
0.0
 10
11.2804484021278
 20
-16.5168212849333
 30
0.0
 10
11.17864583053867
 20
-16.40588921030825
 30
0.0
 10
10.97297363006926
 20
-16.40554470075973
 30
0.0
 10
10.76626790095427
 20
-16.40485568166267
 30
0.0
 10
10.6618815077512
 20
-16.51440971809362
 30
0.0
 10
10.65981445046005
 20
-16.73524033869813
 30
0.0
 10
10.65981445046005
 20
-16.73524033869813
 30
0.0
 10
10.6508572021984
 20
-17.75085448774979
 30
0.0
 10
10.6508572021984
 20
-17.75085448774979
 30
0.0
  0
HATCH
  5
9C
330
6D
100
AcDbEntity
  8
Numbers
 62
   250
420
  2301728
100
AcDbHatch
 10
0.0
 20
0.0
 30
0.0
210
0.0
220
0.0
230
1.0
  2
SOLID
 70
     1
 71
     0
 91
        1
 92
        1
 93
        1
 72
     4
 94
        3
 73
     0
 74
     1
 95
       77
 96
       73
 40
0.0
 40
0.0
 40
0.0
 40
0.0
 40
1.0
 40
1.0
 40
1.0
 40
2.0
 40
2.0
 40
2.0
 40
3.0
 40
3.0
 40
3.0
 40
4.0
 40
4.0
 40
4.0
 40
5.0
 40
5.0
 40
5.0
 40
6.0
 40
6.0
 40
6.0
 40
7.0
 40
7.0
 40
7.0
 40
8.0
 40
8.0
 40
8.0
 40
9.0
 40
9.0
 40
9.0
 40
10.0
 40
10.0
 40
10.0
 40
11.0
 40
11.0
 40
11.0
 40
12.0
 40
12.0
 40
12.0
 40
13.0
 40
13.0
 40
13.0
 40
14.0
 40
14.0
 40
14.0
 40
15.0
 40
15.0
 40
15.0
 40
16.0
 40
16.0
 40
16.0
 40
17.0
 40
17.0
 40
17.0
 40
18.0
 40
18.0
 40
18.0
 40
19.0
 40
19.0
 40
19.0
 40
20.0
 40
20.0
 40
20.0
 40
21.0
 40
21.0
 40
21.0
 40
22.0
 40
22.0
 40
22.0
 40
23.0
 40
23.0
 40
23.0
 40
24.0
 40
24.0
 40
24.0
 40
24.0
 10
10.6508572021984
 20
-17.75085448774979
 10
10.64930690923003
 20
-17.91621907104178
 10
10.69254285756992
 20
-18.01784938785665
 10
10.78039279244379
 20
-18.05643445729145
 10
10.81759982368449
 20
-18.07607150155737
 10
10.8749606635139
 20
-18.0860622784646
 10
10.95299207625481
 20
-18.0860622784646
 10
10.97090657277811
 20
-18.0860622784646
 10
10.98847655975288
 20
-18.08571776891607
 10
11.00535752763061
 20
-18.0846842402705
 10
11.15573594556176
 20
-18.07813855884852
 10
11.24151882314448
 20
-18.0047580250127
 10
11.26322292470156
 20
-17.86488714831156
 10
11.26322292470156
 20
-17.86488714831156
 10
11.26546223676697
 20
-17.80080837228591
 10
11.26546223676697
 20
-17.80080837228591
 10
11.26546223676697
 20
-17.80080837228591
 10
11.59619140335095
 20
-17.80218641048001
 10
11.59619140335095
 20
-17.80218641048001
 10
11.59619140335095
 20
-17.80218641048001
 10
11.51282009260791
 20
-19.53093532497838
 10
11.51282009260791
 20
-19.53093532497838
 10
11.51282009260791
 20
-19.53093532497838
 10
10.30462510593079
 20
-19.52749022949313
 10
10.30462510593079
 20
-19.52749022949313
 10
10.30462510593079
 20
-19.52749022949313
 10
10.30755343709325
 20
-19.19779459155472
 10
10.30755343709325
 20
-19.19779459155472
 10
10.30755343709325
 20
-19.19779459155472
 10
11.19707709138476
 20
-19.20055066794292
 10
11.19707709138476
 20
-19.20055066794292
 10
11.19707709138476
 20
-19.20055066794292
 10
11.25237087392302
 20
-18.13877223938892
 10
11.25237087392302
 20
-18.13877223938892
 10
11.09940863437793
 20
-18.30861544681174
 10
10.94954698076956
 20
-18.3964653816856
 10
10.80278591309792
 20
-18.40301106310758
 10
10.78917778593118
 20
-18.40301106310758
 10
10.77212456327919
 20
-18.40094400581643
 10
10.75179849991622
 20
-18.39784341987971
 10
10.60055880811375
 20
-18.38475205703576
 10
10.48704291187477
 20
-18.32480739559241
 10
10.41107855642501
 20
-18.21732041645262
 10
10.34872232814199
 20
-18.12774793383612
 10
10.31840548787179
 20
-17.97134059880578
 10
10.32047254516294
 20
-17.74982095910421
 10
10.32047254516294
 20
-17.74982095910421
 10
10.32942979342459
 20
-16.73420681005256
 10
10.32942979342459
 20
-16.73420681005256
 10
10.33339165323262
 20
-16.29426811658616
 10
10.548882375835
 20
-16.07481553417574
 10
10.97590196123172
 20
-16.07584906282132
 10
11.40188801798286
 20
-16.07722710101542
 10
11.61272786168015
 20
-16.29805772161993
 10
11.60893825664638
 20
-16.73799641508634
 10
11.60893825664638
 20
-16.73799641508634
 10
11.60583767070965
 20
-17.07285969625262
 10
11.60583767070965
 20
-17.07285969625262
 10
11.60583767070965
 20
-17.07285969625262
 10
11.27545301367419
 20
-17.07182616760704
 10
11.27545301367419
 20
-17.07182616760704
 10
11.27545301367419
 20
-17.07182616760704
 10
11.27838134483665
 20
-16.73765190553781
 10
11.27838134483665
 20
-16.73765190553781
 10
11.2804484021278
 20
-16.5168212849333
 10
11.17864583053867
 20
-16.40588921030825
 10
10.97297363006926
 20
-16.40554470075973
 10
10.76626790095427
 20
-16.40485568166267
 10
10.6618815077512
 20
-16.51440971809362
 10
10.65981445046005
 20
-16.73524033869813
 10
10.65981445046005
 20
-16.73524033869813
 10
10.6508572021984
 20
-17.75085448774979
 10
10.6508572021984
 20
-17.75085448774979
 97
        0
 97
        0
 75
     2
 76
     1
 98
        0
  0
SPLINE
  5
9D
330
6D
100
AcDbEntity
  8
Numbers
370
     0
100
AcDbSpline
210
0.0
220
0.0
230
1.0
 70
    11
 71
     3
 72
    56
 73
    52
 74
     0
 42
0.0000000001
 43
0.0000000001
 12
1.0
 22
0.0
 32
0.0
 13
1.0
 23
0.0
 33
0.0
 40
0.0
 40
0.0
 40
0.0
 40
0.0
 40
1.0
 40
1.0
 40
1.0
 40
2.0
 40
2.0
 40
2.0
 40
3.0
 40
3.0
 40
3.0
 40
4.0
 40
4.0
 40
4.0
 40
5.0
 40
5.0
 40
5.0
 40
6.0
 40
6.0
 40
6.0
 40
7.0
 40
7.0
 40
7.0
 40
8.0
 40
8.0
 40
8.0
 40
9.0
 40
9.0
 40
9.0
 40
10.0
 40
10.0
 40
10.0
 40
11.0
 40
11.0
 40
11.0
 40
12.0
 40
12.0
 40
12.0
 40
13.0
 40
13.0
 40
13.0
 40
14.0
 40
14.0
 40
14.0
 40
15.0
 40
15.0
 40
15.0
 40
16.0
 40
16.0
 40
16.0
 40
17.0
 40
17.0
 40
17.0
 40
17.0
 10
7.130486380595851
 20
-15.23731282171151
 30
0.0
 10
7.394897459088776
 20
-14.88453504402192
 30
0.0
 10
7.697549097467975
 20
-14.83561468813138
 30
0.0
 10
8.038613550507709
 20
-15.09089626358839
 30
0.0
 10
8.378988984450393
 20
-15.34548881994835
 30
0.0
 10
8.416712780013878
 20
-15.64934624174739
 30
0.0
 10
8.152301701520953
 20
-16.00281303853402
 30
0.0
 10
8.152301701520953
 20
-16.00281303853402
 30
0.0
 10
6.839548066866502
 20
-17.75636664052619
 30
0.0
 10
6.839548066866502
 20
-17.75636664052619
 30
0.0
 10
6.574275714502265
 20
-18.11052245640987
 30
0.0
 10
6.271624076123066
 20
-18.16013183139747
 30
0.0
 10
5.931593151728907
 20
-17.9055392750375
 30
0.0
 10
5.590356443914911
 20
-17.64991319003197
 30
0.0
 10
5.552288138802901
 20
-17.34536674913588
 30
0.0
 10
5.817388236392875
 20
-16.99155544280072
 30
0.0
 10
5.817388236392875
 20
-16.99155544280072
 30
0.0
 10
6.051482474615602
 20
-16.67839626319151
 30
0.0
 10
6.051482474615602
 20
-16.67839626319151
 30
0.0
 10
6.051482474615602
 20
-16.67839626319151
 30
0.0
 10
6.315549043560002
 20
-16.87648925359338
 30
0.0
 10
6.315549043560002
 20
-16.87648925359338
 30
0.0
 10
6.315549043560002
 20
-16.87648925359338
 30
0.0
 10
6.081454805337276
 20
-17.18861490455701
 30
0.0
 10
6.081454805337276
 20
-17.18861490455701
 30
0.0
 10
5.948818629155157
 20
-17.36603732204738
 30
0.0
 10
5.964666068387306
 20
-17.51589897565575
 30
0.0
 10
6.129169377807986
 20
-17.63888888447917
 30
0.0
 10
6.129169377807986
 20
-17.63888888447917
 30
0.0
 10
6.131580944647661
 20
-17.64061143222179
 30
0.0
 10
6.131580944647661
 20
-17.64061143222179
 30
0.0
 10
6.295050725422765
 20
-17.76291232194816
 30
0.0
 10
6.442845321739983
 20
-17.73569606761469
 30
0.0
 10
6.575481497922103
 20
-17.55861815967285
 30
0.0
 10
6.575481497922103
 20
-17.55861815967285
 30
0.0
 10
7.218508570243984
 20
-16.69975585520006
 30
0.0
 10
7.218508570243984
 20
-16.69975585520006
 30
0.0
 10
6.980969236536008
 20
-16.72352701404829
 30
0.0
 10
6.816293672341065
 20
-16.70113389339416
 30
0.0
 10
6.724137368110632
 20
-16.63223198368917
 30
0.0
 10
6.706395126361596
 20
-16.61845160174817
 30
0.0
 10
6.688480629838296
 20
-16.60398220071012
 30
0.0
 10
6.670910642863523
 20
-16.58744574238092
 30
0.0
 10
6.56773003308029
 20
-16.4920165974395
 30
0.0
 10
6.511574976670718
 20
-16.38797471378495
 30
0.0
 10
6.501411944989231
 20
-16.27497558186876
 30
0.0
 10
6.490043129887906
 20
-16.15853135446731
 30
0.0
 10
6.55739474662454
 20
-16.00281303853402
 30
0.0
 10
6.703811304747658
 20
-15.80747612452035
 30
0.0
 10
6.703811304747658
 20
-15.80747612452035
 30
0.0
 10
7.130486380595851
 20
-15.23731282171151
 30
0.0
 10
7.130486380595851
 20
-15.23731282171151
 30
0.0
  0
SPLINE
  5
9E
330
6D
100
AcDbEntity
  8
Numbers
370
     0
100
AcDbSpline
210
0.0
220
0.0
230
1.0
 70
    11
 71
     3
 72
    29
 73
    25
 74
     0
 42
0.0000000001
 43
0.0000000001
 12
1.0
 22
0.0
 32
0.0
 13
1.0
 23
0.0
 33
0.0
 40
0.0
 40
0.0
 40
0.0
 40
0.0
 40
1.0
 40
1.0
 40
1.0
 40
2.0
 40
2.0
 40
2.0
 40
3.0
 40
3.0
 40
3.0
 40
4.0
 40
4.0
 40
4.0
 40
5.0
 40
5.0
 40
5.0
 40
6.0
 40
6.0
 40
6.0
 40
7.0
 40
7.0
 40
7.0
 40
8.0
 40
8.0
 40
8.0
 40
8.0
 10
7.888579642125078
 20
-15.80506455768068
 30
0.0
 10
8.020871308758672
 20
-15.62833115928736
 30
0.0
 10
8.005196124300785
 20
-15.47778048658194
 30
0.0
 10
7.84103732442863
 20
-15.35479057775852
 30
0.0
 10
7.6758449959109
 20
-15.23145615938658
 30
0.0
 10
7.527016870948107
 20
-15.25798339462301
 30
0.0
 10
7.394208439991726
 20
-15.43540581211337
 30
0.0
 10
7.394208439991726
 20
-15.43540581211337
 30
0.0
 10
6.967705618917796
 20
-16.00488009582517
 30
0.0
 10
6.967705618917796
 20
-16.00488009582517
 30
0.0
 10
6.867625595071289
 20
-16.13854980065286
 30
0.0
 10
6.84144286938339
 20
-16.24672579888971
 30
0.0
 10
6.8891574418541
 20
-16.33009710963275
 30
0.0
 10
6.909483505217074
 20
-16.36695963132493
 30
0.0
 10
6.950135631943022
 20
-16.40830077714793
 30
0.0
 10
7.011458331580469
 20
-16.45446505665027
 30
0.0
 10
7.025927732618518
 20
-16.46480034310602
 30
0.0
 10
7.040397133656568
 20
-16.47513562956177
 30
0.0
 10
7.054522025146092
 20
-16.48409287782342
 30
0.0
 10
7.197837997332485
 20
-16.58296711825009
 30
0.0
 10
7.333402504677067
 20
-16.54644910610644
 30
0.0
 10
7.461732311502622
 20
-16.374883350941
 30
0.0
 10
7.461732311502622
 20
-16.374883350941
 30
0.0
 10
7.888579642125078
 20
-15.80506455768068
 30
0.0
 10
7.888579642125078
 20
-15.80506455768068
 30
0.0
  0
HATCH
  5
9F
330
6D
100
AcDbEntity
  8
Numbers
 62
   250
420
  2301728
100
AcDbHatch
 10
0.0
 20
0.0
 30
0.0
210
0.0
220
0.0
230
1.0
  2
SOLID
 70
     1
 71
     0
 91
        2
 92
        1
 93
        1
 72
     4
 94
        3
 73
     0
 74
     1
 95
       56
 96
       52
 40
0.0
 40
0.0
 40
0.0
 40
0.0
 40
1.0
 40
1.0
 40
1.0
 40
2.0
 40
2.0
 40
2.0
 40
3.0
 40
3.0
 40
3.0
 40
4.0
 40
4.0
 40
4.0
 40
5.0
 40
5.0
 40
5.0
 40
6.0
 40
6.0
 40
6.0
 40
7.0
 40
7.0
 40
7.0
 40
8.0
 40
8.0
 40
8.0
 40
9.0
 40
9.0
 40
9.0
 40
10.0
 40
10.0
 40
10.0
 40
11.0
 40
11.0
 40
11.0
 40
12.0
 40
12.0
 40
12.0
 40
13.0
 40
13.0
 40
13.0
 40
14.0
 40
14.0
 40
14.0
 40
15.0
 40
15.0
 40
15.0
 40
16.0
 40
16.0
 40
16.0
 40
17.0
 40
17.0
 40
17.0
 40
17.0
 10
7.130486380595851
 20
-15.23731282171151
 10
7.394897459088776
 20
-14.88453504402192
 10
7.697549097467975
 20
-14.83561468813138
 10
8.038613550507709
 20
-15.09089626358839
 10
8.378988984450393
 20
-15.34548881994835
 10
8.416712780013878
 20
-15.64934624174739
 10
8.152301701520953
 20
-16.00281303853402
 10
8.152301701520953
 20
-16.00281303853402
 10
6.839548066866502
 20
-17.75636664052619
 10
6.839548066866502
 20
-17.75636664052619
 10
6.574275714502265
 20
-18.11052245640987
 10
6.271624076123066
 20
-18.16013183139747
 10
5.931593151728907
 20
-17.9055392750375
 10
5.590356443914911
 20
-17.64991319003197
 10
5.552288138802901
 20
-17.34536674913588
 10
5.817388236392875
 20
-16.99155544280072
 10
5.817388236392875
 20
-16.99155544280072
 10
6.051482474615602
 20
-16.67839626319151
 10
6.051482474615602
 20
-16.67839626319151
 10
6.051482474615602
 20
-16.67839626319151
 10
6.315549043560002
 20
-16.87648925359338
 10
6.315549043560002
 20
-16.87648925359338
 10
6.315549043560002
 20
-16.87648925359338
 10
6.081454805337276
 20
-17.18861490455701
 10
6.081454805337276
 20
-17.18861490455701
 10
5.948818629155157
 20
-17.36603732204738
 10
5.964666068387306
 20
-17.51589897565575
 10
6.129169377807986
 20
-17.63888888447917
 10
6.129169377807986
 20
-17.63888888447917
 10
6.131580944647661
 20
-17.64061143222179
 10
6.131580944647661
 20
-17.64061143222179
 10
6.295050725422765
 20
-17.76291232194816
 10
6.442845321739983
 20
-17.73569606761469
 10
6.575481497922103
 20
-17.55861815967285
 10
6.575481497922103
 20
-17.55861815967285
 10
7.218508570243984
 20
-16.69975585520006
 10
7.218508570243984
 20
-16.69975585520006
 10
6.980969236536008
 20
-16.72352701404829
 10
6.816293672341065
 20
-16.70113389339416
 10
6.724137368110632
 20
-16.63223198368917
 10
6.706395126361596
 20
-16.61845160174817
 10
6.688480629838296
 20
-16.60398220071012
 10
6.670910642863523
 20
-16.58744574238092
 10
6.56773003308029
 20
-16.4920165974395
 10
6.511574976670718
 20
-16.38797471378495
 10
6.501411944989231
 20
-16.27497558186876
 10
6.490043129887906
 20
-16.15853135446731
 10
6.55739474662454
 20
-16.00281303853402
 10
6.703811304747658
 20
-15.80747612452035
 10
6.703811304747658
 20
-15.80747612452035
 10
7.130486380595851
 20
-15.23731282171151
 10
7.130486380595851
 20
-15.23731282171151
 97
        0
 97
        0
 92
        1
 93
        1
 72
     4
 94
        3
 73
     0
 74
     1
 95
       29
 96
       25
 40
0.0
 40
0.0
 40
0.0
 40
0.0
 40
1.0
 40
1.0
 40
1.0
 40
2.0
 40
2.0
 40
2.0
 40
3.0
 40
3.0
 40
3.0
 40
4.0
 40
4.0
 40
4.0
 40
5.0
 40
5.0
 40
5.0
 40
6.0
 40
6.0
 40
6.0
 40
7.0
 40
7.0
 40
7.0
 40
8.0
 40
8.0
 40
8.0
 40
8.0
 10
7.888579642125078
 20
-15.80506455768068
 10
8.020871308758672
 20
-15.62833115928736
 10
8.005196124300785
 20
-15.47778048658194
 10
7.84103732442863
 20
-15.35479057775852
 10
7.6758449959109
 20
-15.23145615938658
 10
7.527016870948107
 20
-15.25798339462301
 10
7.394208439991726
 20
-15.43540581211337
 10
7.394208439991726
 20
-15.43540581211337
 10
6.967705618917796
 20
-16.00488009582517
 10
6.967705618917796
 20
-16.00488009582517
 10
6.867625595071289
 20
-16.13854980065286
 10
6.84144286938339
 20
-16.24672579888971
 10
6.8891574418541
 20
-16.33009710963275
 10
6.909483505217074
 20
-16.36695963132493
 10
6.950135631943022
 20
-16.40830077714793
 10
7.011458331580469
 20
-16.45446505665027
 10
7.025927732618518
 20
-16.46480034310602
 10
7.040397133656568
 20
-16.47513562956177
 10
7.054522025146092
 20
-16.48409287782342
 10
7.197837997332485
 20
-16.58296711825009
 10
7.333402504677067
 20
-16.54644910610644
 10
7.461732311502622
 20
-16.374883350941
 10
7.461732311502622
 20
-16.374883350941
 10
7.888579642125078
 20
-15.80506455768068
 10
7.888579642125078
 20
-15.80506455768068
 97
        0
 97
        0
 75
     2
 76
     1
 98
        0
  0
POLYLINE
  5
A0
330
6D
100
AcDbEntity
  8
Numbers
370
     0
100
AcDb2dPolyline
 66
     1
 10
0.0
 20
0.0
 30
0.0
  0
VERTEX
  5
A1
330
A0
100
AcDbEntity
  8
Numbers
370
     0
100
AcDbVertex
100
AcDb2dVertex
 10
3.459909395836412
 20
-14.11869031765088
 30
0.0
  0
VERTEX
  5
A2
330
A0
100
AcDbEntity
  8
Numbers
370
     0
100
AcDbVertex
100
AcDb2dVertex
 10
3.147783744872776
 20
-14.2182535771746
 30
0.0
  0
VERTEX
  5
A3
330
A0
100
AcDbEntity
  8
Numbers
370
     0
100
AcDbVertex
100
AcDb2dVertex
 10
2.754181585682983
 20
-12.95631510092759
 30
0.0
  0
VERTEX
  5
A4
330
A0
100
AcDbEntity
  8
Numbers
370
     0
100
AcDbVertex
100
AcDb2dVertex
 10
3.008774142042946
 20
-12.87501084747569
 30
0.0
  0
VERTEX
  5
A5
330
A0
100
AcDbEntity
  8
Numbers
370
     0
100
AcDbVertex
100
AcDb2dVertex
 10
6.193592663382158
 20
-12.58734537445733
 30
0.0
  0
VERTEX
  5
A6
330
A0
100
AcDbEntity
  8
Numbers
370
     0
100
AcDbVertex
100
AcDb2dVertex
 10
6.294533961099978
 20
-12.91015082142524
 30
0.0
  0
VERTEX
  5
A7
330
A0
100
AcDbEntity
  8
Numbers
370
     0
100
AcDbVertex
100
AcDb2dVertex
 10
3.171899413269525
 20
-13.1950602180554
 30
0.0
  0
VERTEX
  5
A8
330
A0
100
AcDbEntity
  8
Numbers
370
     0
100
AcDbVertex
100
AcDb2dVertex
 10
3.459909395836412
 20
-14.11869031765088
 30
0.0
  0
SEQEND
  5
A9
330
A0
100
AcDbEntity
  8
Numbers
370
     0
  0
HATCH
  5
AA
330
6D
100
AcDbEntity
  8
Numbers
 62
   250
420
  2301728
100
AcDbHatch
 10
0.0
 20
0.0
 30
0.0
210
0.0
220
0.0
230
1.0
  2
SOLID
 70
     1
 71
     0
 91
        1
 92
        1
 93
        7
 72
     1
 10
3.459909395836412
 20
-14.11869031765088
 11
3.147783744872776
 21
-14.2182535771746
 72
     1
 10
3.147783744872776
 20
-14.2182535771746
 11
2.754181585682983
 21
-12.95631510092759
 72
     1
 10
2.754181585682983
 20
-12.95631510092759
 11
3.008774142042946
 21
-12.87501084747569
 72
     1
 10
3.008774142042946
 20
-12.87501084747569
 11
6.193592663382158
 21
-12.58734537445733
 72
     1
 10
6.193592663382158
 20
-12.58734537445733
 11
6.294533961099978
 21
-12.91015082142524
 72
     1
 10
6.294533961099978
 20
-12.91015082142524
 11
3.171899413269525
 21
-13.1950602180554
 72
     1
 10
3.171899413269525
 20
-13.1950602180554
 11
3.459909395836412
 21
-14.11869031765088
 97
        0
 75
     2
 76
     1
 98
        0
  0
SPLINE
  5
AB
330
6D
100
AcDbEntity
  8
Numbers
370
     0
100
AcDbSpline
210
0.0
220
0.0
230
1.0
 70
    11
 71
     3
 72
    41
 73
    37
 74
     0
 42
0.0000000001
 43
0.0000000001
 12
1.0
 22
0.0
 32
0.0
 13
1.0
 23
0.0
 33
0.0
 40
0.0
 40
0.0
 40
0.0
 40
0.0
 40
1.0
 40
1.0
 40
1.0
 40
2.0
 40
2.0
 40
2.0
 40
3.0
 40
3.0
 40
3.0
 40
4.0
 40
4.0
 40
4.0
 40
5.0
 40
5.0
 40
5.0
 40
6.0
 40
6.0
 40
6.0
 40
7.0
 40
7.0
 40
7.0
 40
8.0
 40
8.0
 40
8.0
 40
9.0
 40
9.0
 40
9.0
 40
10.0
 40
10.0
 40
10.0
 40
11.0
 40
11.0
 40
11.0
 40
12.0
 40
12.0
 40
12.0
 40
12.0
 10
3.353628200116454
 20
-9.163092716893255
 30
0.0
 10
2.935738117755649
 20
-9.029767521614087
 30
0.0
 10
2.791905381246468
 20
-8.758983016473449
 30
0.0
 10
2.922819009685962
 20
-8.351083711019868
 30
0.0
 10
3.054593911996768
 20
-7.944390188986125
 30
0.0
 10
3.330029296042493
 20
-7.808136662544494
 30
0.0
 10
3.748952907048873
 20
-7.942323131694975
 30
0.0
 10
3.748952907048873
 20
-7.942323131694975
 30
0.0
 10
4.320149738503297
 20
-8.124568682864691
 30
0.0
 10
4.320149738503297
 20
-8.124568682864691
 30
0.0
 10
4.508940971094987
 20
-8.18520236340509
 30
0.0
 10
4.627107746239057
 20
-8.356940373344793
 30
0.0
 10
4.674994573484029
 20
-8.64150526042643
 30
0.0
 10
4.879288735759345
 20
-8.437900117248164
 30
0.0
 10
5.076520452289897
 20
-8.366069876380704
 30
0.0
 10
5.266517468301426
 20
-8.427048066469627
 30
0.0
 10
5.266517468301426
 20
-8.427048066469627
 30
0.0
 10
5.824450682137638
 20
-8.605504012605568
 30
0.0
 10
5.824450682137638
 20
-8.605504012605568
 30
0.0
 10
6.24354654791828
 20
-8.739345972207525
 30
0.0
 10
6.387379284427461
 20
-9.009785967799637
 30
0.0
 10
6.255604382116655
 20
-9.416134980284856
 30
0.0
 10
6.122623696386011
 20
-9.82368977618991
 30
0.0
 10
5.847188312340286
 20
-9.960287812180068
 30
0.0
 10
5.429125975205219
 20
-9.826618107352374
 30
0.0
 10
5.429125975205219
 20
-9.826618107352374
 30
0.0
 10
4.871020506594745
 20
-9.648506670764958
 30
0.0
 10
4.871020506594745
 20
-9.648506670764958
 30
0.0
 10
4.681195745357479
 20
-9.587700735450298
 30
0.0
 10
4.562856715439147
 20
-9.415790470736331
 30
0.0
 10
4.515831162065487
 20
-9.132948131397319
 30
0.0
 10
4.310503471144597
 20
-9.335347491155748
 30
0.0
 10
4.113788518936831
 20
-9.40597194860337
 30
0.0
 10
3.92499728634514
 20
-9.346027287160021
 30
0.0
 10
3.92499728634514
 20
-9.346027287160021
 30
0.0
 10
3.353628200116454
 20
-9.163092716893255
 30
0.0
 10
3.353628200116454
 20
-9.163092716893255
 30
0.0
  0
SPLINE
  5
AC
330
6D
100
AcDbEntity
  8
Numbers
370
     0
100
AcDbSpline
210
0.0
220
0.0
230
1.0
 70
    11
 71
     3
 72
    29
 73
    25
 74
     0
 42
0.0000000001
 43
0.0000000001
 12
1.0
 22
0.0
 32
0.0
 13
1.0
 23
0.0
 33
0.0
 40
0.0
 40
0.0
 40
0.0
 40
0.0
 40
1.0
 40
1.0
 40
1.0
 40
2.0
 40
2.0
 40
2.0
 40
3.0
 40
3.0
 40
3.0
 40
4.0
 40
4.0
 40
4.0
 40
5.0
 40
5.0
 40
5.0
 40
6.0
 40
6.0
 40
6.0
 40
7.0
 40
7.0
 40
7.0
 40
8.0
 40
8.0
 40
8.0
 40
8.0
 10
4.026972112708535
 20
-9.030456540711135
 30
0.0
 10
4.233333332275
 20
-9.09987521473892
 30
0.0
 10
4.367003037102694
 20
-9.051127113622636
 30
0.0
 10
4.428325736740141
 20
-8.88421223736228
 30
0.0
 10
4.435043672936378
 20
-8.867159014710294
 30
0.0
 10
4.441417099584091
 20
-8.84890000863847
 30
0.0
 10
4.447962781006065
 20
-8.829435219146808
 30
0.0
 10
4.471044920757239
 20
-8.758121742602137
 30
0.0
 10
4.481207952438726
 20
-8.700760902772727
 30
0.0
 10
4.478279621276264
 20
-8.657180444884316
 30
0.0
 10
4.466221787077889
 20
-8.560201006974534
 30
0.0
 10
4.379577635623856
 20
-8.488198511332811
 30
0.0
 10
4.218174912139901
 20
-8.439967174539314
 30
0.0
 10
4.218174912139901
 20
-8.439967174539314
 30
0.0
 10
3.646633571136953
 20
-8.257377113821073
 30
0.0
 10
3.646633571136953
 20
-8.257377113821073
 30
0.0
 10
3.437344020408025
 20
-8.190714516181488
 30
0.0
 10
3.300745984417869
 20
-8.255310056529924
 30
0.0
 10
3.237356227489272
 20
-8.451335989640638
 30
0.0
 10
3.173277451463625
 20
-8.648739960945454
 30
0.0
 10
3.246141220976659
 20
-8.780859372804786
 30
0.0
 10
3.455775281254112
 20
-8.847866479992895
 30
0.0
 10
3.455775281254112
 20
-8.847866479992895
 30
0.0
 10
4.026972112708535
 20
-9.030456540711135
 30
0.0
 10
4.026972112708535
 20
-9.030456540711135
 30
0.0
  0
SPLINE
  5
AD
330
6D
100
AcDbEntity
  8
Numbers
370
     0
100
AcDbSpline
210
0.0
220
0.0
230
1.0
 70
    11
 71
     3
 72
    23
 73
    19
 74
     0
 42
0.0000000001
 43
0.0000000001
 12
1.0
 22
0.0
 32
0.0
 13
1.0
 23
0.0
 33
0.0
 40
0.0
 40
0.0
 40
0.0
 40
0.0
 40
1.0
 40
1.0
 40
1.0
 40
2.0
 40
2.0
 40
2.0
 40
3.0
 40
3.0
 40
3.0
 40
4.0
 40
4.0
 40
4.0
 40
5.0
 40
5.0
 40
5.0
 40
6.0
 40
6.0
 40
6.0
 40
6.0
 10
5.531273056342877
 20
-9.511564125226275
 30
0.0
 10
5.740907116620329
 20
-9.57822672286586
 30
0.0
 10
5.877505152610485
 20
-9.512942163420377
 30
0.0
 10
5.94141167386187
 20
-9.315538192115561
 30
0.0
 10
6.004801430790467
 20
-9.119512259004845
 30
0.0
 10
5.93176540650317
 20
-8.988081866242563
 30
0.0
 10
5.72230360099998
 20
-8.92073024950593
 30
0.0
 10
5.72230360099998
 20
-8.92073024950593
 30
0.0
 10
5.167298718326231
 20
-8.743480086789825
 30
0.0
 10
5.167298718326231
 20
-8.743480086789825
 30
0.0
 10
4.953530543466479
 20
-8.671305336373841
 30
0.0
 10
4.814176431088123
 20
-8.735728621948013
 30
0.0
 10
4.749064126416901
 20
-8.936405433963817
 30
0.0
 10
4.684640840842729
 20
-9.136048717334043
 30
0.0
 10
4.760432941518225
 20
-9.2685126387419
 30
0.0
 10
4.97644042844339
 20
-9.333969452961647
 30
0.0
 10
4.97644042844339
 20
-9.333969452961647
 30
0.0
 10
5.531273056342877
 20
-9.511564125226275
 30
0.0
 10
5.531273056342877
 20
-9.511564125226275
 30
0.0
  0
HATCH
  5
AE
330
6D
100
AcDbEntity
  8
Numbers
 62
   250
420
  2301728
100
AcDbHatch
 10
0.0
 20
0.0
 30
0.0
210
0.0
220
0.0
230
1.0
  2
SOLID
 70
     1
 71
     0
 91
        3
 92
        1
 93
        1
 72
     4
 94
        3
 73
     0
 74
     1
 95
       41
 96
       37
 40
0.0
 40
0.0
 40
0.0
 40
0.0
 40
1.0
 40
1.0
 40
1.0
 40
2.0
 40
2.0
 40
2.0
 40
3.0
 40
3.0
 40
3.0
 40
4.0
 40
4.0
 40
4.0
 40
5.0
 40
5.0
 40
5.0
 40
6.0
 40
6.0
 40
6.0
 40
7.0
 40
7.0
 40
7.0
 40
8.0
 40
8.0
 40
8.0
 40
9.0
 40
9.0
 40
9.0
 40
10.0
 40
10.0
 40
10.0
 40
11.0
 40
11.0
 40
11.0
 40
12.0
 40
12.0
 40
12.0
 40
12.0
 10
3.353628200116454
 20
-9.163092716893255
 10
2.935738117755649
 20
-9.029767521614087
 10
2.791905381246468
 20
-8.758983016473449
 10
2.922819009685962
 20
-8.351083711019868
 10
3.054593911996768
 20
-7.944390188986125
 10
3.330029296042493
 20
-7.808136662544494
 10
3.748952907048873
 20
-7.942323131694975
 10
3.748952907048873
 20
-7.942323131694975
 10
4.320149738503297
 20
-8.124568682864691
 10
4.320149738503297
 20
-8.124568682864691
 10
4.508940971094987
 20
-8.18520236340509
 10
4.627107746239057
 20
-8.356940373344793
 10
4.674994573484029
 20
-8.64150526042643
 10
4.879288735759345
 20
-8.437900117248164
 10
5.076520452289897
 20
-8.366069876380704
 10
5.266517468301426
 20
-8.427048066469627
 10
5.266517468301426
 20
-8.427048066469627
 10
5.824450682137638
 20
-8.605504012605568
 10
5.824450682137638
 20
-8.605504012605568
 10
6.24354654791828
 20
-8.739345972207525
 10
6.387379284427461
 20
-9.009785967799637
 10
6.255604382116655
 20
-9.416134980284856
 10
6.122623696386011
 20
-9.82368977618991
 10
5.847188312340286
 20
-9.960287812180068
 10
5.429125975205219
 20
-9.826618107352374
 10
5.429125975205219
 20
-9.826618107352374
 10
4.871020506594745
 20
-9.648506670764958
 10
4.871020506594745
 20
-9.648506670764958
 10
4.681195745357479
 20
-9.587700735450298
 10
4.562856715439147
 20
-9.415790470736331
 10
4.515831162065487
 20
-9.132948131397319
 10
4.310503471144597
 20
-9.335347491155748
 10
4.113788518936831
 20
-9.40597194860337
 10
3.92499728634514
 20
-9.346027287160021
 10
3.92499728634514
 20
-9.346027287160021
 10
3.353628200116454
 20
-9.163092716893255
 10
3.353628200116454
 20
-9.163092716893255
 97
        0
 97
        0
 92
        1
 93
        1
 72
     4
 94
        3
 73
     0
 74
     1
 95
       29
 96
       25
 40
0.0
 40
0.0
 40
0.0
 40
0.0
 40
1.0
 40
1.0
 40
1.0
 40
2.0
 40
2.0
 40
2.0
 40
3.0
 40
3.0
 40
3.0
 40
4.0
 40
4.0
 40
4.0
 40
5.0
 40
5.0
 40
5.0
 40
6.0
 40
6.0
 40
6.0
 40
7.0
 40
7.0
 40
7.0
 40
8.0
 40
8.0
 40
8.0
 40
8.0
 10
4.026972112708535
 20
-9.030456540711135
 10
4.233333332275
 20
-9.09987521473892
 10
4.367003037102694
 20
-9.051127113622636
 10
4.428325736740141
 20
-8.88421223736228
 10
4.435043672936378
 20
-8.867159014710294
 10
4.441417099584091
 20
-8.84890000863847
 10
4.447962781006065
 20
-8.829435219146808
 10
4.471044920757239
 20
-8.758121742602137
 10
4.481207952438726
 20
-8.700760902772727
 10
4.478279621276264
 20
-8.657180444884316
 10
4.466221787077889
 20
-8.560201006974534
 10
4.379577635623856
 20
-8.488198511332811
 10
4.218174912139901
 20
-8.439967174539314
 10
4.218174912139901
 20
-8.439967174539314
 10
3.646633571136953
 20
-8.257377113821073
 10
3.646633571136953
 20
-8.257377113821073
 10
3.437344020408025
 20
-8.190714516181488
 10
3.300745984417869
 20
-8.255310056529924
 10
3.237356227489272
 20
-8.451335989640638
 10
3.173277451463625
 20
-8.648739960945454
 10
3.246141220976659
 20
-8.780859372804786
 10
3.455775281254112
 20
-8.847866479992895
 10
3.455775281254112
 20
-8.847866479992895
 10
4.026972112708535
 20
-9.030456540711135
 10
4.026972112708535
 20
-9.030456540711135
 97
        0
 97
        0
 92
        1
 93
        1
 72
     4
 94
        3
 73
     0
 74
     1
 95
       23
 96
       19
 40
0.0
 40
0.0
 40
0.0
 40
0.0
 40
1.0
 40
1.0
 40
1.0
 40
2.0
 40
2.0
 40
2.0
 40
3.0
 40
3.0
 40
3.0
 40
4.0
 40
4.0
 40
4.0
 40
5.0
 40
5.0
 40
5.0
 40
6.0
 40
6.0
 40
6.0
 40
6.0
 10
5.531273056342877
 20
-9.511564125226275
 10
5.740907116620329
 20
-9.57822672286586
 10
5.877505152610485
 20
-9.512942163420377
 10
5.94141167386187
 20
-9.315538192115561
 10
6.004801430790467
 20
-9.119512259004845
 10
5.93176540650317
 20
-8.988081866242563
 10
5.72230360099998
 20
-8.92073024950593
 10
5.72230360099998
 20
-8.92073024950593
 10
5.167298718326231
 20
-8.743480086789825
 10
5.167298718326231
 20
-8.743480086789825
 10
4.953530543466479
 20
-8.671305336373841
 10
4.814176431088123
 20
-8.735728621948013
 10
4.749064126416901
 20
-8.936405433963817
 10
4.684640840842729
 20
-9.136048717334043
 10
4.760432941518225
 20
-9.2685126387419
 10
4.97644042844339
 20
-9.333969452961647
 10
4.97644042844339
 20
-9.333969452961647
 10
5.531273056342877
 20
-9.511564125226275
 10
5.531273056342877
 20
-9.511564125226275
 97
        0
 97
        0
 75
     2
 76
     1
 98
        0
  0
SPLINE
  5
AF
330
6D
100
AcDbEntity
  8
Numbers
370
     0
100
AcDbSpline
210
0.0
220
0.0
230
1.0
 70
    11
 71
     3
 72
    56
 73
    52
 74
     0
 42
0.0000000001
 43
0.0000000001
 12
1.0
 22
0.0
 32
0.0
 13
1.0
 23
0.0
 33
0.0
 40
0.0
 40
0.0
 40
0.0
 40
0.0
 40
1.0
 40
1.0
 40
1.0
 40
2.0
 40
2.0
 40
2.0
 40
3.0
 40
3.0
 40
3.0
 40
4.0
 40
4.0
 40
4.0
 40
5.0
 40
5.0
 40
5.0
 40
6.0
 40
6.0
 40
6.0
 40
7.0
 40
7.0
 40
7.0
 40
8.0
 40
8.0
 40
8.0
 40
9.0
 40
9.0
 40
9.0
 40
10.0
 40
10.0
 40
10.0
 40
11.0
 40
11.0
 40
11.0
 40
12.0
 40
12.0
 40
12.0
 40
13.0
 40
13.0
 40
13.0
 40
14.0
 40
14.0
 40
14.0
 40
15.0
 40
15.0
 40
15.0
 40
16.0
 40
16.0
 40
16.0
 40
17.0
 40
17.0
 40
17.0
 40
17.0
 10
5.889046222486072
 20
-4.967827689730266
 30
0.0
 10
5.630319551543809
 20
-4.613671873846582
 30
0.0
 10
5.67321099033517
 20
-4.309297687724759
 30
0.0
 10
6.017548284085891
 20
-4.054360621816271
 30
0.0
 10
6.361885577836612
 20
-3.801146103650408
 30
0.0
 10
6.663675942344498
 20
-3.851961262057843
 30
0.0
 10
6.923263887158074
 20
-4.207322861361364
 30
0.0
 10
6.923263887158074
 20
-4.207322861361364
 30
0.0
 10
8.208284503156262
 20
-5.966733125678456
 30
0.0
 10
8.208284503156262
 20
-5.966733125678456
 30
0.0
 10
8.466838919324262
 20
-6.320888941562139
 30
0.0
 10
8.423430716210115
 20
-6.624918618135437
 30
0.0
 10
8.078576658136607
 20
-6.878994410172613
 30
0.0
 10
7.734067109611622
 20
-7.132208928338476
 30
0.0
 10
7.432793509426524
 20
-7.081393769931041
 30
0.0
 10
7.173894583709999
 20
-6.727237954047357
 30
0.0
 10
7.173894583709999
 20
-6.727237954047357
 30
0.0
 10
6.943934460069572
 20
-6.412528481469785
 30
0.0
 10
6.943934460069572
 20
-6.412528481469785
 30
0.0
 10
6.943934460069572
 20
-6.412528481469785
 30
0.0
 10
7.210929360176435
 20
-6.215985784036282
 30
0.0
 10
7.210929360176435
 20
-6.215985784036282
 30
0.0
 10
7.210929360176435
 20
-6.215985784036282
 30
0.0
 10
7.441061738591124
 20
-6.53103976616238
 30
0.0
 10
7.441061738591124
 20
-6.53103976616238
 30
0.0
 10
7.570252819287993
 20
-6.707600909781434
 30
0.0
 10
7.718047415605211
 20
-6.735161673663432
 30
0.0
 10
7.884962291865565
 20
-6.6140665673569
 30
0.0
 10
7.884962291865565
 20
-6.6140665673569
 30
0.0
 10
7.887718368253765
 20
-6.61199951006575
 30
0.0
 10
7.887718368253765
 20
-6.61199951006575
 30
0.0
 10
8.053082951545758
 20
-6.490387639436431
 30
0.0
 10
8.070652938520531
 20
-6.340870495376588
 30
0.0
 10
7.941117348275138
 20
-6.16327582311196
 30
0.0
 10
7.941117348275138
 20
-6.16327582311196
 30
0.0
 10
7.310492619700155
 20
-5.29993489450835
 30
0.0
 10
7.310492619700155
 20
-5.29993489450835
 30
0.0
 10
7.26243353768092
 20
-5.536268444796488
 30
0.0
 10
7.190947806361986
 20
-5.688713920018794
 30
0.0
 10
7.096035425743352
 20
-5.758821613143629
 30
0.0
 10
7.079671222188415
 20
-5.77070719256774
 30
0.0
 10
7.062101235213642
 20
-5.78242051721759
 30
0.0
 10
7.04332546481903
 20
-5.793272567996127
 30
0.0
 10
6.921369084641186
 20
-5.864586044540798
 30
0.0
 10
6.804580347691216
 20
-5.889046222486072
 30
0.0
 10
6.693303763517647
 20
-5.867342120928998
 30
0.0
 10
6.577893064761777
 20
-5.844087726403561
 30
0.0
 10
6.449046493613433
 20
-5.735050454295404
 30
0.0
 10
6.306419540524089
 20
-5.539541285507476
 30
0.0
 10
6.306419540524089
 20
-5.539541285507476
 30
0.0
 10
5.889046222486072
 20
-4.967827689730266
 30
0.0
 10
5.889046222486072
 20
-4.967827689730266
 30
0.0
  0
SPLINE
  5
B0
330
6D
100
AcDbEntity
  8
Numbers
370
     0
100
AcDbSpline
210
0.0
220
0.0
230
1.0
 70
    11
 71
     3
 72
    29
 73
    25
 74
     0
 42
0.0000000001
 43
0.0000000001
 12
1.0
 22
0.0
 32
0.0
 13
1.0
 23
0.0
 33
0.0
 40
0.0
 40
0.0
 40
0.0
 40
0.0
 40
1.0
 40
1.0
 40
1.0
 40
2.0
 40
2.0
 40
2.0
 40
3.0
 40
3.0
 40
3.0
 40
4.0
 40
4.0
 40
4.0
 40
5.0
 40
5.0
 40
5.0
 40
6.0
 40
6.0
 40
6.0
 40
7.0
 40
7.0
 40
7.0
 40
8.0
 40
8.0
 40
8.0
 40
8.0
 10
6.656096732276948
 20
-4.403865558794867
 30
0.0
 10
6.526388887257292
 20
-4.225926376981713
 30
0.0
 10
6.378422036165811
 20
-4.198365613099714
 30
0.0
 10
6.212196179002507
 20
-4.320838757600346
 30
0.0
 10
6.045109047967889
 20
-4.443311902100977
 30
0.0
 10
6.026333277573278
 20
-4.593690320032133
 30
0.0
 10
6.156041122592934
 20
-4.771629501845287
 30
0.0
 10
6.156041122592934
 20
-4.771629501845287
 30
0.0
 10
6.573586695405215
 20
-5.342998588073973
 30
0.0
 10
6.573586695405215
 20
-5.342998588073973
 30
0.0
 10
6.671082897637785
 20
-5.476496038127404
 30
0.0
 10
6.76616753303068
 20
-5.532823349311239
 30
0.0
 10
6.859529620680951
 20
-5.512497285948265
 30
0.0
 10
6.900870766503949
 20
-5.50181748994399
 30
0.0
 10
6.951341415362859
 20
-5.474773490384779
 30
0.0
 10
7.010597057709156
 20
-5.431365287270631
 30
0.0
 10
7.026272242167043
 20
-5.419996472169307
 30
0.0
 10
7.040397133656568
 20
-5.408799911842245
 30
0.0
 10
7.053488496500517
 20
-5.397603351515182
 30
0.0
 10
7.192498099330348
 20
-5.288049315084238
 30
0.0
 10
7.199216035526585
 20
-5.147489419286044
 30
0.0
 10
7.073470050314966
 20
-4.975234645023552
 30
0.0
 10
7.073470050314966
 20
-4.975234645023552
 30
0.0
 10
6.656096732276948
 20
-4.403865558794867
 30
0.0
 10
6.656096732276948
 20
-4.403865558794867
 30
0.0
  0
HATCH
  5
B1
330
6D
100
AcDbEntity
  8
Numbers
 62
   250
420
  2301728
100
AcDbHatch
 10
0.0
 20
0.0
 30
0.0
210
0.0
220
0.0
230
1.0
  2
SOLID
 70
     1
 71
     0
 91
        2
 92
        1
 93
        1
 72
     4
 94
        3
 73
     0
 74
     1
 95
       56
 96
       52
 40
0.0
 40
0.0
 40
0.0
 40
0.0
 40
1.0
 40
1.0
 40
1.0
 40
2.0
 40
2.0
 40
2.0
 40
3.0
 40
3.0
 40
3.0
 40
4.0
 40
4.0
 40
4.0
 40
5.0
 40
5.0
 40
5.0
 40
6.0
 40
6.0
 40
6.0
 40
7.0
 40
7.0
 40
7.0
 40
8.0
 40
8.0
 40
8.0
 40
9.0
 40
9.0
 40
9.0
 40
10.0
 40
10.0
 40
10.0
 40
11.0
 40
11.0
 40
11.0
 40
12.0
 40
12.0
 40
12.0
 40
13.0
 40
13.0
 40
13.0
 40
14.0
 40
14.0
 40
14.0
 40
15.0
 40
15.0
 40
15.0
 40
16.0
 40
16.0
 40
16.0
 40
17.0
 40
17.0
 40
17.0
 40
17.0
 10
5.889046222486072
 20
-4.967827689730266
 10
5.630319551543809
 20
-4.613671873846582
 10
5.67321099033517
 20
-4.309297687724759
 10
6.017548284085891
 20
-4.054360621816271
 10
6.361885577836612
 20
-3.801146103650408
 10
6.663675942344498
 20
-3.851961262057843
 10
6.923263887158074
 20
-4.207322861361364
 10
6.923263887158074
 20
-4.207322861361364
 10
8.208284503156262
 20
-5.966733125678456
 10
8.208284503156262
 20
-5.966733125678456
 10
8.466838919324262
 20
-6.320888941562139
 10
8.423430716210115
 20
-6.624918618135437
 10
8.078576658136607
 20
-6.878994410172613
 10
7.734067109611622
 20
-7.132208928338476
 10
7.432793509426524
 20
-7.081393769931041
 10
7.173894583709999
 20
-6.727237954047357
 10
7.173894583709999
 20
-6.727237954047357
 10
6.943934460069572
 20
-6.412528481469785
 10
6.943934460069572
 20
-6.412528481469785
 10
6.943934460069572
 20
-6.412528481469785
 10
7.210929360176435
 20
-6.215985784036282
 10
7.210929360176435
 20
-6.215985784036282
 10
7.210929360176435
 20
-6.215985784036282
 10
7.441061738591124
 20
-6.53103976616238
 10
7.441061738591124
 20
-6.53103976616238
 10
7.570252819287993
 20
-6.707600909781434
 10
7.718047415605211
 20
-6.735161673663432
 10
7.884962291865565
 20
-6.6140665673569
 10
7.884962291865565
 20
-6.6140665673569
 10
7.887718368253765
 20
-6.61199951006575
 10
7.887718368253765
 20
-6.61199951006575
 10
8.053082951545758
 20
-6.490387639436431
 10
8.070652938520531
 20
-6.340870495376588
 10
7.941117348275138
 20
-6.16327582311196
 10
7.941117348275138
 20
-6.16327582311196
 10
7.310492619700155
 20
-5.29993489450835
 10
7.310492619700155
 20
-5.29993489450835
 10
7.26243353768092
 20
-5.536268444796488
 10
7.190947806361986
 20
-5.688713920018794
 10
7.096035425743352
 20
-5.758821613143629
 10
7.079671222188415
 20
-5.77070719256774
 10
7.062101235213642
 20
-5.78242051721759
 10
7.04332546481903
 20
-5.793272567996127
 10
6.921369084641186
 20
-5.864586044540798
 10
6.804580347691216
 20
-5.889046222486072
 10
6.693303763517647
 20
-5.867342120928998
 10
6.577893064761777
 20
-5.844087726403561
 10
6.449046493613433
 20
-5.735050454295404
 10
6.306419540524089
 20
-5.539541285507476
 10
6.306419540524089
 20
-5.539541285507476
 10
5.889046222486072
 20
-4.967827689730266
 10
5.889046222486072
 20
-4.967827689730266
 97
        0
 97
        0
 92
        1
 93
        1
 72
     4
 94
        3
 73
     0
 74
     1
 95
       29
 96
       25
 40
0.0
 40
0.0
 40
0.0
 40
0.0
 40
1.0
 40
1.0
 40
1.0
 40
2.0
 40
2.0
 40
2.0
 40
3.0
 40
3.0
 40
3.0
 40
4.0
 40
4.0
 40
4.0
 40
5.0
 40
5.0
 40
5.0
 40
6.0
 40
6.0
 40
6.0
 40
7.0
 40
7.0
 40
7.0
 40
8.0
 40
8.0
 40
8.0
 40
8.0
 10
6.656096732276948
 20
-4.403865558794867
 10
6.526388887257292
 20
-4.225926376981713
 10
6.378422036165811
 20
-4.198365613099714
 10
6.212196179002507
 20
-4.320838757600346
 10
6.045109047967889
 20
-4.443311902100977
 10
6.026333277573278
 20
-4.593690320032133
 10
6.156041122592934
 20
-4.771629501845287
 10
6.156041122592934
 20
-4.771629501845287
 10
6.573586695405215
 20
-5.342998588073973
 10
6.573586695405215
 20
-5.342998588073973
 10
6.671082897637785
 20
-5.476496038127404
 10
6.76616753303068
 20
-5.532823349311239
 10
6.859529620680951
 20
-5.512497285948265
 10
6.900870766503949
 20
-5.50181748994399
 10
6.951341415362859
 20
-5.474773490384779
 10
7.010597057709156
 20
-5.431365287270631
 10
7.026272242167043
 20
-5.419996472169307
 10
7.040397133656568
 20
-5.408799911842245
 10
7.053488496500517
 20
-5.397603351515182
 10
7.192498099330348
 20
-5.288049315084238
 10
7.199216035526585
 20
-5.147489419286044
 10
7.073470050314966
 20
-4.975234645023552
 10
7.073470050314966
 20
-4.975234645023552
 10
6.656096732276948
 20
-4.403865558794867
 10
6.656096732276948
 20
-4.403865558794867
 97
        0
 97
        0
 75
     2
 76
     1
 98
        0
  0
ENDBLK
  5
70
330
6D
100
AcDbEntity
  8
0
100
AcDbBlockEnd
  0
ENDSEC
  0
SECTION
  2
ENTITIES
  0
SPLINE
  5
42
330
1F
100
AcDbEntity
  8
Small Ridges
 62
   250
420
  2301728
370
     9
100
AcDbSpline
210
0.0
220
0.0
230
1.0
 70
    11
 71
     3
 72
   101
 73
    97
 74
     0
 42
0.0000000001
 43
0.0000000001
 12
1.0
 22
0.0
 32
0.0
 13
1.0
 23
0.0
 33
0.0
 40
0.0
 40
0.0
 40
0.0
 40
0.0
 40
1.0
 40
1.0
 40
1.0
 40
2.0
 40
2.0
 40
2.0
 40
3.0
 40
3.0
 40
3.0
 40
4.0
 40
4.0
 40
4.0
 40
5.0
 40
5.0
 40
5.0
 40
6.0
 40
6.0
 40
6.0
 40
7.0
 40
7.0
 40
7.0
 40
8.0
 40
8.0
 40
8.0
 40
9.0
 40
9.0
 40
9.0
 40
10.0
 40
10.0
 40
10.0
 40
11.0
 40
11.0
 40
11.0
 40
12.0
 40
12.0
 40
12.0
 40
13.0
 40
13.0
 40
13.0
 40
14.0
 40
14.0
 40
14.0
 40
15.0
 40
15.0
 40
15.0
 40
16.0
 40
16.0
 40
16.0
 40
17.0
 40
17.0
 40
17.0
 40
18.0
 40
18.0
 40
18.0
 40
19.0
 40
19.0
 40
19.0
 40
20.0
 40
20.0
 40
20.0
 40
21.0
 40
21.0
 40
21.0
 40
22.0
 40
22.0
 40
22.0
 40
23.0
 40
23.0
 40
23.0
 40
24.0
 40
24.0
 40
24.0
 40
25.0
 40
25.0
 40
25.0
 40
26.0
 40
26.0
 40
26.0
 40
27.0
 40
27.0
 40
27.0
 40
28.0
 40
28.0
 40
28.0
 40
29.0
 40
29.0
 40
29.0
 40
30.0
 40
30.0
 40
30.0
 40
31.0
 40
31.0
 40
31.0
 40
32.0
 40
32.0
 40
32.0
 40
32.0
 10
20.50520716366188
 20
-14.10908525678937
 30
0.0
 10
20.32642546552375
 20
-14.65561616212824
 30
0.0
 10
20.10399135589108
 20
-15.17672137957041
 30
0.0
 10
19.84235224303551
 20
-15.67016304724728
 30
0.0
 10
19.55417817030076
 20
-15.60931083322805
 30
0.0
 10
19.03746919457777
 20
-15.97477483755624
 30
0.0
 10
18.61347002774919
 20
-16.55615276460289
 30
0.0
 10
18.19168825806673
 20
-17.14197140548002
 30
0.0
 10
18.00207286361057
 20
-17.74433612718548
 30
0.0
 10
18.14962993147911
 20
-17.99674586573428
 30
0.0
 10
17.34872611754254
 20
-18.81116482896669
 30
0.0
 10
16.42095802067168
 20
-19.48014445761643
 30
0.0
 10
15.40853355832376
 20
-19.97666822917729
 30
0.0
 10
15.20538580014414
 20
-19.75804329847371
 30
0.0
 10
14.57727450453975
 20
-19.74928496680688
 30
0.0
 10
13.8957680118588
 20
-19.97176230901034
 30
0.0
 10
13.2075490898753
 20
-20.19204387509651
 30
0.0
 10
12.70097800302011
 20
-20.5719476108897
 30
0.0
 10
12.66913035288094
 20
-20.86217896991257
 30
0.0
 10
11.56797770251917
 20
-21.05132064299979
 30
0.0
 10
10.42784968758954
 20
-21.05322681599436
 30
0.0
 10
9.287688101941091
 20
-20.85100392866826
 30
0.0
 10
9.253702536674739
 20
-20.5577912764405
 30
0.0
 10
8.7495741775418
 20
-20.18130889178128
 30
0.0
 10
8.068917474495366
 20
-19.95865183793346
 30
0.0
 10
7.388281236172351
 20
-19.73600147852423
 30
0.0
 10
6.759114138260606
 20
-19.74175919908193
 30
0.0
 10
6.558389789899628
 20
-19.95819332603687
 30
0.0
 10
5.519140183496448
 20
-19.44748519692708
 30
0.0
 10
4.60055794547784
 20
-18.77213181097366
 30
0.0
 10
3.824072216268771
 20
-17.96877532457917
 30
0.0
 10
3.969908376208773
 20
-17.71583199291477
 30
0.0
 10
3.785795045510518
 20
-17.10999092797629
 30
0.0
 10
3.360814868909554
 20
-16.52555863726135
 30
0.0
 10
2.942567586334574
 20
-15.94332881710358
 30
0.0
 10
2.430691460315775
 20
-15.57917340299084
 30
0.0
 10
2.137610603477643
 20
-15.63547156755811
 30
0.0
 10
1.614362215657543
 20
-14.63659706476538
 30
0.0
 10
1.261325128617869
 20
-13.54863925294768
 30
0.0
 10
1.096580500282657
 20
-12.41833647303205
 30
0.0
 10
1.364784754695424
 20
-12.30193096496969
 30
0.0
 10
1.56782500775639
 20
-11.70395779549946
 30
0.0
 10
1.573824990434129
 20
-10.982128229696
 30
0.0
 10
1.57537087040162
 20
-10.26255699048485
 30
0.0
 10
1.374545711361865
 20
-9.662372552541909
 30
0.0
 10
1.106120234804226
 20
-9.541149404247074
 30
0.0
 10
1.186687474282073
 20
-8.988475336917325
 30
0.0
 10
1.315249897297544
 20
-8.436662726029324
 30
0.0
 10
1.494031595435678
 20
-7.890131820690774
 30
0.0
 10
1.672813293573813
 20
-7.343600915352225
 30
0.0
 10
1.895226938482746
 20
-6.8224890034705
 30
0.0
 10
2.156866051338628
 20
-6.329047335793622
 30
0.0
 10
2.445040124073063
 20
-6.389899549813178
 30
0.0
 10
2.961749099796366
 20
-6.024435545484665
 30
0.0
 10
3.385768731348048
 20
-5.443064312877578
 30
0.0
 10
3.807530036307412
 20
-4.857238977560885
 30
0.0
 10
3.99714543076357
 20
-4.254874255855752
 30
0.0
 10
3.849588362894711
 20
-4.002464517306629
 30
0.0
 10
4.650492176831277
 20
-3.188045554074543
 30
0.0
 10
5.578260273702142
 20
-2.519065925424475
 30
0.0
 10
6.590684736050381
 20
-2.022542153863614
 30
0.0
 10
6.793832494229687
 20
-2.241167084567837
 30
0.0
 10
7.421964254557815
 20
-2.249932110673587
 30
0.0
 10
8.103450282515338
 20
-2.027448074030568
 30
0.0
 10
8.791669204498845
 20
-1.8071665079444
 30
0.0
 10
9.298240291353713
 20
-1.427262772151203
 30
0.0
 10
9.330094635932442
 20
-1.137010948404918
 30
0.0
 10
10.43124059185465
 20
-0.9478897400411133
 30
0.0
 10
11.57137530122352
 20
-0.9459631023234458
 30
0.0
 10
12.71153019243273
 20
-1.148206454372651
 30
0.0
 10
12.7455362224225
 20
-1.441425801039964
 30
0.0
 10
13.249671275995
 20
-1.817887720975447
 30
0.0
 10
13.9303075143177
 20
-2.040538080384351
 30
0.0
 10
14.61096421736413
 20
-2.263195134232817
 30
0.0
 10
15.24012462083664
 20
-2.257457878398534
 30
0.0
 10
15.44082850447419
 20
-2.04101705700436
 30
0.0
 10
16.48008480531661
 20
-2.551704721390404
 30
0.0
 10
17.3986603488963
 20
-3.227078572067889
 30
0.0
 10
18.17515277254429
 20
-4.030414593738318
 30
0.0
 10
18.02930991816537
 20
-4.283378390126459
 30
0.0
 10
18.2134232488633
 20
-4.889219455064932
 30
0.0
 10
18.63840342546459
 20
-5.473651745779557
 30
0.0
 10
19.05667117276267
 20
-6.055888260376573
 30
0.0
 10
19.56852683405837
 20
-6.420036980050071
 30
0.0
 10
19.86160769089618
 20
-6.363738815482797
 30
0.0
 10
20.3848560787166
 20
-7.362613318275852
 30
0.0
 10
20.73789316575595
 20
-8.450571130093227
 30
0.0
 10
20.90263779409149
 20
-9.58087391000886
 30
0.0
 10
20.6344335396784
 20
-9.697279418071535
 30
0.0
 10
20.43139328661711
 20
-10.29525258754177
 30
0.0
 10
20.42541376866311
 20
-11.01708884778479
 30
0.0
 10
20.42384742397252
 20
-11.73665339255606
 30
0.0
 10
20.62467258301228
 20
-12.33683783049932
 30
0.0
 10
20.89309805956928
 20
-12.45806097879415
 30
0.0
 10
20.81253082009175
 20
-13.0107350461239
 30
0.0
 10
20.68398886180002
 20
-13.56255435145115
 30
0.0
 10
20.50520716366188
 20
-14.10908525678937
 30
0.0
  0
POLYLINE
  5
43
330
1F
100
AcDbEntity
  8
Small Ridges
 62
   250
420
  2301728
370
     9
100
AcDb2dPolyline
 66
     1
 10
0.0
 20
0.0
 30
0.0
  0
VERTEX
  5
44
330
43
100
AcDbEntity
  8
Small Ridges
 62
   250
420
  2301728
370
     9
100
AcDbVertex
100
AcDb2dVertex
 10
13.93119444096157
 20
-2.039055555045702
 30
0.0
  0
VERTEX
  5
45
330
43
100
AcDbEntity
  8
Small Ridges
 62
   250
420
  2301728
370
     9
100
AcDbVertex
100
AcDb2dVertex
 10
12.0861666636452
 20
-7.672916664748437
 30
0.0
  0
SEQEND
  5
46
330
43
100
AcDbEntity
  8
Small Ridges
 62
   250
420
  2301728
370
     9
  0
POLYLINE
  5
47
330
1F
100
AcDbEntity
  8
Small Ridges
 62
   250
420
  2301728
370
     9
100
AcDb2dPolyline
 66
     1
 10
0.0
 20
0.0
 30
0.0
  0
VERTEX
  5
48
330
47
100
AcDbEntity
  8
Small Ridges
 62
   250
420
  2301728
370
     9
100
AcDbVertex
100
AcDb2dVertex
 10
9.923638886408018
 20
-7.669388886971465
 30
0.0
  0
VERTEX
  5
49
330
47
100
AcDbEntity
  8
Small Ridges
 62
   250
420
  2301728
370
     9
100
AcDbVertex
100
AcDb2dVertex
 10
8.10330555352982
 20
-2.028472221715104
 30
0.0
  0
SEQEND
  5
4A
330
47
100
AcDbEntity
  8
Small Ridges
 62
   250
420
  2301728
370
     9
  0
POLYLINE
  5
4B
330
1F
100
AcDbEntity
  8
Small Ridges
 62
   250
420
  2301728
370
     9
100
AcDb2dPolyline
 66
     1
 10
0.0
 20
0.0
 30
0.0
  0
VERTEX
  5
4C
330
4B
100
AcDbEntity
  8
Small Ridges
 62
   250
420
  2301728
370
     9
100
AcDbVertex
100
AcDb2dVertex
 10
8.173861109067673
 20
-8.939388886654093
 30
0.0
  0
VERTEX
  5
4D
330
4B
100
AcDbEntity
  8
Small Ridges
 62
   250
420
  2301728
370
     9
100
AcDbVertex
100
AcDb2dVertex
 10
3.383138888043156
 20
-5.443361109750374
 30
0.0
  0
SEQEND
  5
4E
330
4B
100
AcDbEntity
  8
Small Ridges
 62
   250
420
  2301728
370
     9
  0
POLYLINE
  5
4F
330
1F
100
AcDbEntity
  8
Small Ridges
 62
   250
420
  2301728
370
     9
100
AcDb2dPolyline
 66
     1
 10
0.0
 20
0.0
 30
0.0
  0
VERTEX
  5
50
330
4F
100
AcDbEntity
  8
Small Ridges
 62
   250
420
  2301728
370
     9
100
AcDbVertex
100
AcDb2dVertex
 10
7.500055553680619
 20
-10.99255555280737
 30
0.0
  0
VERTEX
  5
51
330
4F
100
AcDbEntity
  8
Small Ridges
 62
   250
420
  2301728
370
     9
100
AcDbVertex
100
AcDb2dVertex
 10
1.573388888495554
 20
-10.98197221947677
 30
0.0
  0
SEQEND
  5
52
330
4F
100
AcDbEntity
  8
Small Ridges
 62
   250
420
  2301728
370
     9
  0
POLYLINE
  5
53
330
1F
100
AcDbEntity
  8
Small Ridges
 62
   250
420
  2301728
370
     9
100
AcDb2dPolyline
 66
     1
 10
0.0
 20
0.0
 30
0.0
  0
VERTEX
  5
54
330
53
100
AcDbEntity
  8
Small Ridges
 62
   250
420
  2301728
370
     9
100
AcDbVertex
100
AcDb2dVertex
 10
8.166805553514047
 20
-13.04924999673761
 30
0.0
  0
VERTEX
  5
55
330
53
100
AcDbEntity
  8
Small Ridges
 62
   250
420
  2301728
370
     9
100
AcDbVertex
100
AcDb2dVertex
 10
3.361972221381639
 20
-16.52411110698014
 30
0.0
  0
SEQEND
  5
56
330
53
100
AcDbEntity
  8
Small Ridges
 62
   250
420
  2301728
370
     9
  0
POLYLINE
  5
57
330
1F
100
AcDbEntity
  8
Small Ridges
 62
   250
420
  2301728
370
     9
100
AcDb2dPolyline
 66
     1
 10
0.0
 20
0.0
 30
0.0
  0
VERTEX
  5
58
330
57
100
AcDbEntity
  8
Small Ridges
 62
   250
420
  2301728
370
     9
100
AcDbVertex
100
AcDb2dVertex
 10
9.91305555307742
 20
-14.32630555197419
 30
0.0
  0
VERTEX
  5
59
330
57
100
AcDbEntity
  8
Small Ridges
 62
   250
420
  2301728
370
     9
100
AcDbVertex
100
AcDb2dVertex
 10
8.068027775760733
 20
-19.9601666616766
 30
0.0
  0
SEQEND
  5
5A
330
57
100
AcDbEntity
  8
Small Ridges
 62
   250
420
  2301728
370
     9
  0
POLYLINE
  5
5B
330
1F
100
AcDbEntity
  8
Small Ridges
 62
   250
420
  2301728
370
     9
100
AcDb2dPolyline
 66
     1
 10
0.0
 20
0.0
 30
0.0
  0
VERTEX
  5
5C
330
5B
100
AcDbEntity
  8
Small Ridges
 62
   250
420
  2301728
370
     9
100
AcDbVertex
100
AcDb2dVertex
 10
13.89591666319248
 20
-19.97074999500752
 30
0.0
  0
VERTEX
  5
5D
330
5B
100
AcDbEntity
  8
Small Ridges
 62
   250
420
  2301728
370
     9
100
AcDbVertex
100
AcDb2dVertex
 10
12.07558333031428
 20
-14.32983332975116
 30
0.0
  0
SEQEND
  5
5E
330
5B
100
AcDbEntity
  8
Small Ridges
 62
   250
420
  2301728
370
     9
  0
POLYLINE
  5
5F
330
1F
100
AcDbEntity
  8
Small Ridges
 62
   250
420
  2301728
370
     9
100
AcDb2dPolyline
 66
     1
 10
0.0
 20
0.0
 30
0.0
  0
VERTEX
  5
60
330
5F
100
AcDbEntity
  8
Small Ridges
 62
   250
420
  2301728
370
     9
100
AcDbVertex
100
AcDb2dVertex
 10
18.61608332867947
 20
-16.55586110697225
 30
0.0
  0
VERTEX
  5
61
330
5F
100
AcDbEntity
  8
Small Ridges
 62
   250
420
  2301728
370
     9
100
AcDbVertex
100
AcDb2dVertex
 10
13.82536110765495
 20
-13.05983333006853
 30
0.0
  0
SEQEND
  5
62
330
5F
100
AcDbEntity
  8
Small Ridges
 62
   250
420
  2301728
370
     9
  0
POLYLINE
  5
63
330
1F
100
AcDbEntity
  8
Small Ridges
 62
   250
420
  2301728
370
     9
100
AcDb2dPolyline
 66
     1
 10
0.0
 20
0.0
 30
0.0
  0
VERTEX
  5
64
330
63
100
AcDbEntity
  8
Small Ridges
 62
   250
420
  2301728
370
     9
100
AcDbVertex
100
AcDb2dVertex
 10
20.42583332822675
 20
-11.01724999724586
 30
0.0
  0
VERTEX
  5
65
330
63
100
AcDbEntity
  8
Small Ridges
 62
   250
420
  2301728
370
     9
100
AcDbVertex
100
AcDb2dVertex
 10
14.499166663042
 20
-11.00666666391494
 30
0.0
  0
SEQEND
  5
66
330
63
100
AcDbEntity
  8
Small Ridges
 62
   250
420
  2301728
370
     9
  0
POLYLINE
  5
67
330
1F
100
AcDbEntity
  8
Small Ridges
 62
   250
420
  2301728
370
     9
100
AcDb2dPolyline
 66
     1
 10
0.0
 20
0.0
 30
0.0
  0
VERTEX
  5
68
330
67
100
AcDbEntity
  8
Small Ridges
 62
   250
420
  2301728
370
     9
100
AcDbVertex
100
AcDb2dVertex
 10
18.63724999534066
 20
-5.475111109742487
 30
0.0
  0
VERTEX
  5
69
330
67
100
AcDbEntity
  8
Small Ridges
 62
   250
420
  2301728
370
     9
100
AcDbVertex
100
AcDb2dVertex
 10
13.8324166632089
 20
-8.94997221998469
 30
0.0
  0
SEQEND
  5
6A
330
67
100
AcDbEntity
  8
Small Ridges
 62
   250
420
  2301728
370
     9
  0
SPLINE
  5
6B
330
1F
100
AcDbEntity
  8
Small Ridges
 62
   250
420
  2301728
370
     9
100
AcDbSpline
210
0.0
220
0.0
230
1.0
 70
    11
 71
     3
 72
    41
 73
    37
 74
     0
 42
0.0000000001
 43
0.0000000001
 12
1.0
 22
0.0
 32
0.0
 13
1.0
 23
0.0
 33
0.0
 40
0.0
 40
0.0
 40
0.0
 40
0.0
 40
1.0
 40
1.0
 40
1.0
 40
2.0
 40
2.0
 40
2.0
 40
3.0
 40
3.0
 40
3.0
 40
4.0
 40
4.0
 40
4.0
 40
5.0
 40
5.0
 40
5.0
 40
6.0
 40
6.0
 40
6.0
 40
7.0
 40
7.0
 40
7.0
 40
8.0
 40
8.0
 40
8.0
 40
9.0
 40
9.0
 40
9.0
 40
10.0
 40
10.0
 40
10.0
 40
11.0
 40
11.0
 40
11.0
 40
12.0
 40
12.0
 40
12.0
 40
12.0
 10
14.49915805030316
 20
-11.00667097028436
 30
0.0
 10
14.49915805030316
 20
-11.36295843899954
 30
0.0
 10
14.44272307988541
 20
-11.72986110817865
 30
0.0
 10
14.32630038433075
 20
-12.08617010874061
 30
0.0
 10
14.20989922062287
 20
-12.44598880032817
 30
0.0
 10
14.04055124567606
 20
-12.77055985873227
 30
0.0
 10
13.82536196892864
 20
-13.05981868841256
 30
0.0
 10
13.39145219256143
 20
-13.66307643972659
 30
0.0
 10
12.77055985873227
 20
-14.10404866183857
 30
0.0
 10
12.07557644012347
 20
-14.32983160720313
 30
0.0
 10
11.39471791300419
 20
-14.54855210682293
 30
0.0
 10
10.64329952397763
 20
-14.56618668933806
 30
0.0
 10
9.913046940338578
 20
-14.32630038433075
 30
0.0
 10
9.17928466567393
 20
-14.08641407932345
 30
0.0
 10
8.583089360104662
 20
-13.62780727469635
 30
0.0
 10
8.166814166252568
 20
-13.0492465516422
 30
0.0
 10
7.736414080910949
 20
-12.45658246894532
 30
0.0
 10
7.496527775903647
 20
-11.73690202207663
 30
0.0
 10
7.500058998776027
 20
-10.99254607879483
 30
0.0
 10
7.500058998776027
 20
-10.63623707823287
 30
0.0
 10
7.556493969193776
 20
-10.26935594090054
 30
0.0
 10
7.672916664748437
 20
-9.913046940338578
 30
0.0
 10
7.789339360303099
 20
-9.553206716904233
 30
0.0
 10
7.958665803403129
 20
-9.228657190346915
 30
0.0
 10
8.173855080150547
 20
-8.939376828819844
 30
0.0
 10
8.607786388364547
 20
-8.336140609352597
 30
0.0
 10
9.228657190346915
 20
-7.895168387240618
 30
0.0
 10
9.923640608955722
 20
-7.669385441876057
 30
0.0
 10
10.604499136075
 20
-7.450664942256258
 30
0.0
 10
11.35591752510156
 20
-7.433030359741135
 30
0.0
 10
12.08617010874061
 20
-7.672916664748437
 30
0.0
 10
12.81995391525204
 20
-7.912802969755741
 30
0.0
 10
13.41614922082131
 20
-8.371409774382842
 30
0.0
 10
13.8324244146734
 20
-8.949970497436986
 30
0.0
 10
14.26280296816824
 20
-9.542634580133873
 30
0.0
 10
14.50268927317554
 20
-10.26229349515578
 30
0.0
 10
14.49915805030316
 20
-11.00667097028436
 30
0.0
  0
INSERT
  5
6E
330
1F
100
AcDbEntity
  8
Numbers
100
AcDbBlockReference
  2
block 2
 10
0.0
 20
0.0
 30
0.0
  0
ENDSEC
  0
SECTION
  2
OBJECTS
  0
DICTIONARY
  5
C
330
0
100
AcDbDictionary
281
     1
  3
ACAD_GROUP
350
D
  3
ACAD_LAYOUT
350
1A
  3
ACAD_MATERIAL
350
3B
  3
ACAD_MLEADERSTYLE
350
B4
  3
ACAD_MLINESTYLE
350
17
  3
ACAD_PLOTSETTINGS
350
19
  3
ACAD_PLOTSTYLENAME
350
E
  3
ACAD_TABLESTYLE
350
B3
  3
ACAD_VISUALSTYLE
350
2A
  0
SUN
  5
3F
330
29
100
AcDbSun
 90
        1
290
     0
 63
     7
421
 16777215
 40
1.0
291
     1
 91
  2455826
 92
 54000000
292
     0
 70
     2
 71
   256
280
     1
  0
DICTIONARY
  5
D
102
{ACAD_REACTORS
330
C
102
}
330
C
100
AcDbDictionary
281
     1
  0
DICTIONARY
  5
1A
102
{ACAD_REACTORS
330
C
102
}
330
C
100
AcDbDictionary
281
     1
  3
Layout1
350
1E
  3
Layout2
350
26
  3
Model
350
22
  0
DICTIONARY
  5
3B
102
{ACAD_REACTORS
330
C
102
}
330
C
100
AcDbDictionary
281
     1
  3
ByBlock
350
3D
  3
ByLayer
350
3C
  3
Global
350
3E
  0
DICTIONARY
  5
B4
102
{ACAD_REACTORS
330
C
102
}
330
C
100
AcDbDictionary
281
     1
  0
DICTIONARY
  5
17
102
{ACAD_REACTORS
330
C
102
}
330
C
100
AcDbDictionary
281
     1
  3
Standard
350
18
  0
DICTIONARY
  5
19
102
{ACAD_REACTORS
330
C
102
}
330
C
100
AcDbDictionary
281
     1
  0
ACDBDICTIONARYWDFLT
  5
E
102
{ACAD_REACTORS
330
C
102
}
330
C
100
AcDbDictionary
281
     1
  3
Normal
350
F
100
AcDbDictionaryWithDefault
340
F
  0
DICTIONARY
  5
B3
102
{ACAD_REACTORS
330
C
102
}
330
C
100
AcDbDictionary
281
     1
  0
DICTIONARY
  5
2A
102
{ACAD_REACTORS
330
C
102
}
330
C
100
AcDbDictionary
281
     1
  3
2dWireframe
350
2F
  3
3D Hidden
350
31
  3
3dWireframe
350
30
  3
Basic
350
32
  3
Brighten
350
36
  3
ColorChange
350
3A
  3
Conceptual
350
34
  3
Dim
350
35
  3
Facepattern
350
39
  3
Flat
350
2B
  3
FlatWithEdges
350
2C
  3
Gouraud
350
2D
  3
GouraudWithEdges
350
2E
  3
Linepattern
350
38
  3
Realistic
350
33
  3
Thicken
350
37
  0
LAYOUT
  5
1E
102
{ACAD_REACTORS
330
1A
102
}
330
1A
100
AcDbPlotSettings
  1

  2
none_device
  4

  6

 40
0.0
 41
0.0
 42
0.0
 43
0.0
 44
0.0
 45
0.0
 46
0.0
 47
0.0
 48
0.0
 49
0.0
140
0.0
141
0.0
142
1.0
143
1.0
 70
   688
 72
     0
 73
     0
 74
     5
  7

 75
    16
 76
     0
 77
     2
 78
   300
147
1.0
148
0.0
149
0.0
100
AcDbLayout
  1
Layout1
 70
     1
 71
     1
 10
0.0
 20
0.0
 11
12.0
 21
9.0
 12
0.0
 22
0.0
 32
0.0
 14
1.000000000000000E+20
 24
1.000000000000000E+20
 34
1.000000000000000E+20
 15
-1.000000000000000E+20
 25
-1.000000000000000E+20
 35
-1.000000000000000E+20
146
0.0
 13
0.0
 23
0.0
 33
0.0
 16
1.0
 26
0.0
 36
0.0
 17
0.0
 27
1.0
 37
0.0
 76
     0
330
1B
  0
LAYOUT
  5
26
102
{ACAD_REACTORS
330
1A
102
}
330
1A
100
AcDbPlotSettings
  1

  2
none_device
  4

  6

 40
0.0
 41
0.0
 42
0.0
 43
0.0
 44
0.0
 45
0.0
 46
0.0
 47
0.0
 48
0.0
 49
0.0
140
0.0
141
0.0
142
1.0
143
1.0
 70
   688
 72
     0
 73
     0
 74
     5
  7

 75
    16
 76
     0
 77
     2
 78
   300
147
1.0
148
0.0
149
0.0
100
AcDbLayout
  1
Layout2
 70
     1
 71
     2
 10
0.0
 20
0.0
 11
0.0
 21
0.0
 12
0.0
 22
0.0
 32
0.0
 14
0.0
 24
0.0
 34
0.0
 15
0.0
 25
0.0
 35
0.0
146
0.0
 13
0.0
 23
0.0
 33
0.0
 16
1.0
 26
0.0
 36
0.0
 17
0.0
 27
1.0
 37
0.0
 76
     0
330
23
  0
LAYOUT
  5
22
102
{ACAD_REACTORS
330
1A
102
}
330
1A
100
AcDbPlotSettings
  1

  2
none_device
  4

  6

 40
0.0
 41
0.0
 42
0.0
 43
0.0
 44
0.0
 45
0.0
 46
0.0
 47
0.0
 48
0.0
 49
0.0
140
0.0
141
0.0
142
1.0
143
1.0
 70
  1712
 72
     0
 73
     0
 74
     0
  7

 75
     0
 76
     0
 77
     2
 78
   300
147
1.0
148
0.0
149
0.0
100
AcDbLayout
  1
Model
 70
     1
 71
     0
 10
0.0
 20
0.0
 11
12.0
 21
9.0
 12
0.0
 22
0.0
 32
0.0
 14
1.000000000000000E+20
 24
1.000000000000000E+20
 34
1.000000000000000E+20
 15
-1.000000000000000E+20
 25
-1.000000000000000E+20
 35
-1.000000000000000E+20
146
0.0
 13
0.0
 23
0.0
 33
0.0
 16
1.0
 26
0.0
 36
0.0
 17
0.0
 27
1.0
 37
0.0
 76
     0
330
1F
331
29
  0
MATERIAL
  5
3D
102
{ACAD_REACTORS
330
3B
102
}
330
3B
100
AcDbMaterial
  1
ByBlock
 72
     1
 94
      127
  0
MATERIAL
  5
3C
102
{ACAD_REACTORS
330
3B
102
}
330
3B
100
AcDbMaterial
  1
ByLayer
 72
     1
 94
      127
  0
MATERIAL
  5
3E
102
{ACAD_REACTORS
330
3B
102
}
330
3B
100
AcDbMaterial
  1
Global
 72
     1
 94
      127
  0
MLINESTYLE
  5
18
102
{ACAD_REACTORS
330
17
102
}
330
17
100
AcDbMlineStyle
  2
Standard
 70
     0
  3

 62
   256
 51
90.0
 52
90.0
 71
     2
 49
0.5
 62
   256
  6
BYLAYER
 49
-0.5
 62
   256
  6
BYLAYER
  0
ACDBPLACEHOLDER
  5
F
102
{ACAD_REACTORS
330
E
102
}
330
E
  0
VISUALSTYLE
  5
2F
102
{ACAD_REACTORS
330
2A
102
}
330
2A
100
AcDbVisualStyle
  2
2dWireframe
 70
     4
177
     2
291
     0
 71
     0
176
     1
 72
     2
176
     1
 73
     0
176
     1
 90
        0
176
     1
 40
-0.6
176
     1
 41
-30.0
176
     1
 62
     5
 63
     7
421
 16777215
176
     1
 74
     1
176
     1
 91
        4
176
     1
 64
     7
176
     1
 65
   257
176
     1
 75
     1
176
     1
175
     1
176
     1
 42
1.0
176
     1
 92
        0
176
     1
 66
   257
176
     1
 43
1.0
176
     1
 76
     1
176
     1
 77
     6
176
     1
 78
     2
176
     1
 67
     7
176
     1
 79
     5
176
     1
170
     0
176
     1
171
     0
176
     1
290
     0
176
     1
 93
        1
176
     1
 44
0.0
176
     1
173
     0
176
     1
  0
VISUALSTYLE
  5
31
102
{ACAD_REACTORS
330
2A
102
}
330
2A
100
AcDbVisualStyle
  2
3D Hidden
 70
     6
177
     2
291
     0
 71
     1
176
     1
 72
     2
176
     1
 73
     2
176
     1
 90
        0
176
     1
 40
-0.6
176
     1
 41
-30.0
176
     1
 62
     5
 63
     7
421
 16777215
176
     1
 74
     2
176
     1
 91
        2
176
     1
 64
     7
176
     1
 65
   257
176
     1
 75
     2
176
     1
175
     1
176
     1
 42
40.0
176
     1
 92
        0
176
     1
 66
   257
176
     1
 43
1.0
176
     1
 76
     1
176
     1
 77
     6
176
     1
 78
     2
176
     1
 67
     7
176
     1
 79
     3
176
     1
170
     0
176
     1
171
     0
176
     1
290
     0
176
     1
 93
        1
176
     1
 44
0.0
176
     1
173
     0
176
     1
  0
VISUALSTYLE
  5
30
102
{ACAD_REACTORS
330
2A
102
}
330
2A
100
AcDbVisualStyle
  2
3dWireframe
 70
     5
177
     2
291
     0
 71
     0
176
     1
 72
     2
176
     1
 73
     0
176
     1
 90
        0
176
     1
 40
-0.6
176
     1
 41
-30.0
176
     1
 62
     5
 63
     7
421
 16777215
176
     1
 74
     1
176
     1
 91
        4
176
     1
 64
     7
176
     1
 65
   257
176
     1
 75
     1
176
     1
175
     1
176
     1
 42
1.0
176
     1
 92
        0
176
     1
 66
   257
176
     1
 43
1.0
176
     1
 76
     1
176
     1
 77
     6
176
     1
 78
     2
176
     1
 67
     7
176
     1
 79
     5
176
     1
170
     0
176
     1
171
     0
176
     1
290
     0
176
     1
 93
        1
176
     1
 44
0.0
176
     1
173
     0
176
     1
  0
VISUALSTYLE
  5
32
102
{ACAD_REACTORS
330
2A
102
}
330
2A
100
AcDbVisualStyle
  2
Basic
 70
     7
177
     2
291
     1
 71
     1
176
     1
 72
     0
176
     1
 73
     1
176
     1
 90
        0
176
     1
 40
-0.6
176
     1
 41
-30.0
176
     1
 62
     5
 63
     7
421
 16777215
176
     1
 74
     0
176
     1
 91
        4
176
     1
 64
     7
176
     1
 65
   257
176
     1
 75
     1
176
     1
175
     1
176
     1
 42
1.0
176
     1
 92
        8
176
     1
 66
     7
176
     1
 43
1.0
176
     1
 76
     1
176
     1
 77
     6
176
     1
 78
     2
176
     1
 67
     7
176
     1
 79
     5
176
     1
170
     0
176
     1
171
     0
176
     1
290
     0
176
     1
 93
        1
176
     1
 44
0.0
176
     1
173
     0
176
     1
  0
VISUALSTYLE
  5
36
102
{ACAD_REACTORS
330
2A
102
}
330
2A
100
AcDbVisualStyle
  2
Brighten
 70
    12
177
     2
291
     1
 71
     2
176
     1
 72
     2
176
     1
 73
     0
176
     1
 90
        0
176
     1
 40
-0.6
176
     1
 41
-30.0
176
     1
 62
     5
 63
     7
421
 16777215
176
     1
 74
     1
176
     1
 91
        4
176
     1
 64
     7
176
     1
 65
   257
176
     1
 75
     1
176
     1
175
     1
176
     1
 42
1.0
176
     1
 92
        8
176
     1
 66
     7
176
     1
 43
1.0
176
     1
 76
     1
176
     1
 77
     6
176
     1
 78
     2
176
     1
 67
     7
176
     1
 79
     5
176
     1
170
     0
176
     1
171
     0
176
     1
290
     0
176
     1
 93
        1
176
     1
 44
50.0
176
     1
173
     0
176
     1
  0
VISUALSTYLE
  5
3A
102
{ACAD_REACTORS
330
2A
102
}
330
2A
100
AcDbVisualStyle
  2
ColorChange
 70
    16
177
     2
291
     1
 71
     2
176
     1
 72
     2
176
     1
 73
     3
176
     1
 90
        0
176
     1
 40
-0.6
176
     1
 41
-30.0
176
     1
 62
     5
 63
     8
421
  8421504
176
     1
 74
     1
176
     1
 91
        4
176
     1
 64
     7
176
     1
 65
   257
176
     1
 75
     1
176
     1
175
     1
176
     1
 42
1.0
176
     1
 92
        8
176
     1
 66
     8
424
  8421504
176
     1
 43
1.0
176
     1
 76
     1
176
     1
 77
     6
176
     1
 78
     2
176
     1
 67
     7
176
     1
 79
     5
176
     1
170
     0
176
     1
171
     0
176
     1
290
     0
176
     1
 93
        1
176
     1
 44
0.0
176
     1
173
     0
176
     1
  0
VISUALSTYLE
  5
34
102
{ACAD_REACTORS
330
2A
102
}
330
2A
100
AcDbVisualStyle
  2
Conceptual
 70
     9
177
     2
291
     0
 71
     3
176
     1
 72
     2
176
     1
 73
     0
176
     1
 90
        0
176
     1
 40
-0.6
176
     1
 41
-30.0
176
     1
 62
     5
 63
     7
421
 16777215
176
     1
 74
     2
176
     1
 91
        2
176
     1
 64
     7
176
     1
 65
   257
176
     1
 75
     1
176
     1
175
     1
176
     1
 42
40.0
176
     1
 92
        8
176
     1
 66
     7
176
     1
 43
1.0
176
     1
 76
     1
176
     1
 77
     6
176
     1
 78
     2
176
     1
 67
     7
176
     1
 79
     3
176
     1
170
     0
176
     1
171
     0
176
     1
290
     0
176
     1
 93
        1
176
     1
 44
0.0
176
     1
173
     0
176
     1
  0
VISUALSTYLE
  5
35
102
{ACAD_REACTORS
330
2A
102
}
330
2A
100
AcDbVisualStyle
  2
Dim
 70
    11
177
     2
291
     1
 71
     2
176
     1
 72
     2
176
     1
 73
     0
176
     1
 90
        0
176
     1
 40
-0.6
176
     1
 41
-30.0
176
     1
 62
     5
 63
     7
421
 16777215
176
     1
 74
     1
176
     1
 91
        4
176
     1
 64
     7
176
     1
 65
   257
176
     1
 75
     1
176
     1
175
     1
176
     1
 42
1.0
176
     1
 92
        8
176
     1
 66
     7
176
     1
 43
1.0
176
     1
 76
     1
176
     1
 77
     6
176
     1
 78
     2
176
     1
 67
     7
176
     1
 79
     5
176
     1
170
     0
176
     1
171
     0
176
     1
290
     0
176
     1
 93
        1
176
     1
 44
-50.0
176
     1
173
     0
176
     1
  0
VISUALSTYLE
  5
39
102
{ACAD_REACTORS
330
2A
102
}
330
2A
100
AcDbVisualStyle
  2
Facepattern
 70
    15
177
     2
291
     1
 71
     2
176
     1
 72
     2
176
     1
 73
     0
176
     1
 90
        0
176
     1
 40
-0.6
176
     1
 41
-30.0
176
     1
 62
     5
 63
     7
421
 16777215
176
     1
 74
     1
176
     1
 91
        4
176
     1
 64
     7
176
     1
 65
   257
176
     1
 75
     1
176
     1
175
     1
176
     1
 42
1.0
176
     1
 92
        8
176
     1
 66
     7
176
     1
 43
1.0
176
     1
 76
     1
176
     1
 77
     6
176
     1
 78
     2
176
     1
 67
     7
176
     1
 79
     5
176
     1
170
     0
176
     1
171
     0
176
     1
290
     0
176
     1
 93
        1
176
     1
 44
0.0
176
     1
173
     0
176
     1
  0
VISUALSTYLE
  5
2B
102
{ACAD_REACTORS
330
2A
102
}
330
2A
100
AcDbVisualStyle
  2
Flat
 70
     0
177
     2
291
     1
 71
     2
176
     1
 72
     1
176
     1
 73
     1
176
     1
 90
        2
176
     1
 40
-0.6
176
     1
 41
30.0
176
     1
 62
     5
 63
     7
421
 16777215
176
     1
 74
     0
176
     1
 91
        4
176
     1
 64
     7
176
     1
 65
   257
176
     1
 75
     1
176
     1
175
     1
176
     1
 42
1.0
176
     1
 92
        8
176
     1
 66
     7
176
     1
 43
1.0
176
     1
 76
     1
176
     1
 77
     6
176
     1
 78
     2
176
     1
 67
     7
176
     1
 79
     5
176
     1
170
     0
176
     1
171
     0
176
     1
290
     0
176
     1
 93
       13
176
     1
 44
0.0
176
     1
173
     0
176
     1
  0
VISUALSTYLE
  5
2C
102
{ACAD_REACTORS
330
2A
102
}
330
2A
100
AcDbVisualStyle
  2
FlatWithEdges
 70
     1
177
     2
291
     1
 71
     2
176
     1
 72
     1
176
     1
 73
     1
176
     1
 90
        2
176
     1
 40
-0.6
176
     1
 41
30.0
176
     1
 62
     5
 63
     7
421
 16777215
176
     1
 74
     1
176
     1
 91
        4
176
     1
 64
     7
176
     1
 65
   257
176
     1
 75
     1
176
     1
175
     1
176
     1
 42
1.0
176
     1
 92
        0
176
     1
 66
   257
176
     1
 43
1.0
176
     1
 76
     1
176
     1
 77
     6
176
     1
 78
     2
176
     1
 67
     7
176
     1
 79
     5
176
     1
170
     0
176
     1
171
     0
176
     1
290
     0
176
     1
 93
       13
176
     1
 44
0.0
176
     1
173
     0
176
     1
  0
VISUALSTYLE
  5
2D
102
{ACAD_REACTORS
330
2A
102
}
330
2A
100
AcDbVisualStyle
  2
Gouraud
 70
     2
177
     2
291
     1
 71
     2
176
     1
 72
     2
176
     1
 73
     1
176
     1
 90
        2
176
     1
 40
-0.6
176
     1
 41
30.0
176
     1
 62
     5
 63
     7
421
 16777215
176
     1
 74
     0
176
     1
 91
        4
176
     1
 64
     7
176
     1
 65
   257
176
     1
 75
     1
176
     1
175
     1
176
     1
 42
1.0
176
     1
 92
        0
176
     1
 66
     7
176
     1
 43
1.0
176
     1
 76
     1
176
     1
 77
     6
176
     1
 78
     2
176
     1
 67
     7
176
     1
 79
     5
176
     1
170
     0
176
     1
171
     0
176
     1
290
     0
176
     1
 93
       13
176
     1
 44
0.0
176
     1
173
     0
176
     1
  0
VISUALSTYLE
  5
2E
102
{ACAD_REACTORS
330
2A
102
}
330
2A
100
AcDbVisualStyle
  2
GouraudWithEdges
 70
     3
177
     2
291
     1
 71
     2
176
     1
 72
     2
176
     1
 73
     1
176
     1
 90
        2
176
     1
 40
-0.6
176
     1
 41
30.0
176
     1
 62
     5
 63
     7
421
 16777215
176
     1
 74
     1
176
     1
 91
        4
176
     1
 64
     7
176
     1
 65
   257
176
     1
 75
     1
176
     1
175
     1
176
     1
 42
1.0
176
     1
 92
        0
176
     1
 66
   257
176
     1
 43
1.0
176
     1
 76
     1
176
     1
 77
     6
176
     1
 78
     2
176
     1
 67
     7
176
     1
 79
     5
176
     1
170
     0
176
     1
171
     0
176
     1
290
     0
176
     1
 93
       13
176
     1
 44
0.0
176
     1
173
     0
176
     1
  0
VISUALSTYLE
  5
38
102
{ACAD_REACTORS
330
2A
102
}
330
2A
100
AcDbVisualStyle
  2
Linepattern
 70
    14
177
     2
291
     1
 71
     2
176
     1
 72
     2
176
     1
 73
     0
176
     1
 90
        0
176
     1
 40
-0.6
176
     1
 41
-30.0
176
     1
 62
     5
 63
     7
421
 16777215
176
     1
 74
     1
176
     1
 91
        4
176
     1
 64
     7
176
     1
 65
   257
176
     1
 75
     7
176
     1
175
     7
176
     1
 42
1.0
176
     1
 92
        8
176
     1
 66
     7
176
     1
 43
1.0
176
     1
 76
     1
176
     1
 77
     6
176
     1
 78
     2
176
     1
 67
     7
176
     1
 79
     5
176
     1
170
     0
176
     1
171
     0
176
     1
290
     0
176
     1
 93
        1
176
     1
 44
0.0
176
     1
173
     0
176
     1
  0
VISUALSTYLE
  5
33
102
{ACAD_REACTORS
330
2A
102
}
330
2A
100
AcDbVisualStyle
  2
Realistic
 70
     8
177
     2
291
     0
 71
     2
176
     1
 72
     2
176
     1
 73
     0
176
     1
 90
        0
176
     1
 40
-0.6
176
     1
 41
-30.0
176
     1
 62
     5
 63
     7
421
 16777215
176
     1
 74
     1
176
     1
 91
        0
176
     1
 64
     7
176
     1
 65
   257
176
     1
 75
     1
176
     1
175
     1
176
     1
 42
1.0
176
     1
 92
        8
176
     1
 66
     8
424
  7895160
176
     1
 43
1.0
176
     1
 76
     1
176
     1
 77
     6
176
     1
 78
     2
176
     1
 67
     7
176
     1
 79
     5
176
     1
170
     0
176
     1
171
     0
176
     1
290
     0
176
     1
 93
       13
176
     1
 44
0.0
176
     1
173
     0
176
     1
  0
VISUALSTYLE
  5
37
102
{ACAD_REACTORS
330
2A
102
}
330
2A
100
AcDbVisualStyle
  2
Thicken
 70
    13
177
     2
291
     1
 71
     2
176
     1
 72
     2
176
     1
 73
     0
176
     1
 90
        0
176
     1
 40
-0.6
176
     1
 41
-30.0
176
     1
 62
     5
 63
     7
421
 16777215
176
     1
 74
     1
176
     1
 91
        4
176
     1
 64
     7
176
     1
 65
   257
176
     1
 75
     1
176
     1
175
     1
176
     1
 42
1.0
176
     1
 92
       12
176
     1
 66
     7
176
     1
 43
1.0
176
     1
 76
     1
176
     1
 77
     6
176
     1
 78
     2
176
     1
 67
     7
176
     1
 79
     5
176
     1
170
     0
176
     1
171
     0
176
     1
290
     0
176
     1
 93
        1
176
     1
 44
0.0
176
     1
173
     0
176
     1
  0
ENDSEC
  0
EOF
