  0
SECTION
  2
HEADER
  9
$ACADVER
  1
AC1024
  9
$ACADMAINTVER
 70
     6
  9
$DWGCODEPAGE
  3
ANSI_1252
  9
$INSBASE
 10
0.0
 20
0.0
 30
0.0
  9
$EXTMIN
 10
1.000000000000000E+20
 20
1.000000000000000E+20
 30
1.000000000000000E+20
  9
$EXTMAX
 10
-1.000000000000000E+20
 20
-1.000000000000000E+20
 30
-1.000000000000000E+20
  9
$LIMMIN
 10
0.0
 20
0.0
  9
$LIMMAX
 10
12.0
 20
9.0
  9
$ORTHOMODE
 70
     0
  9
$REGENMODE
 70
     1
  9
$FILLMODE
 70
     1
  9
$QTEXTMODE
 70
     0
  9
$MIRRTEXT
 70
     1
  9
$LTSCALE
 40
1.0
  9
$ATTMODE
 70
     1
  9
$TEXTSIZE
 40
0.2
  9
$TRACEWID
 40
0.05
  9
$TEXTSTYLE
  7
Standard
  9
$CLAYER
  8
0
  9
$CELTYPE
  6
ByLayer
  9
$CECOLOR
 62
   256
  9
$CELTSCALE
 40
1.0
  9
$DISPSILH
 70
     0
  9
$DIMSCALE
 40
1.0
  9
$DIMASZ
 40
0.18
  9
$DIMEXO
 40
0.0625
  9
$DIMDLI
 40
0.38
  9
$DIMRND
 40
0.0
  9
$DIMDLE
 40
0.0
  9
$DIMEXE
 40
0.18
  9
$DIMTP
 40
0.0
  9
$DIMTM
 40
0.0
  9
$DIMTXT
 40
0.18
  9
$DIMCEN
 40
0.09
  9
$DIMTSZ
 40
0.0
  9
$DIMTOL
 70
     0
  9
$DIMLIM
 70
     0
  9
$DIMTIH
 70
     1
  9
$DIMTOH
 70
     1
  9
$DIMSE1
 70
     0
  9
$DIMSE2
 70
     0
  9
$DIMTAD
 70
     0
  9
$DIMZIN
 70
     0
  9
$DIMBLK
  1

  9
$DIMASO
 70
     1
  9
$DIMSHO
 70
     1
  9
$DIMPOST
  1

  9
$DIMAPOST
  1

  9
$DIMALT
 70
     0
  9
$DIMALTD
 70
     2
  9
$DIMALTF
 40
25.4
  9
$DIMLFAC
 40
1.0
  9
$DIMTOFL
 70
     0
  9
$DIMTVP
 40
0.0
  9
$DIMTIX
 70
     0
  9
$DIMSOXD
 70
     0
  9
$DIMSAH
 70
     0
  9
$DIMBLK1
  1

  9
$DIMBLK2
  1

  9
$DIMSTYLE
  2
Standard
  9
$DIMCLRD
 70
     0
  9
$DIMCLRE
 70
     0
  9
$DIMCLRT
 70
     0
  9
$DIMTFAC
 40
1.0
  9
$DIMGAP
 40
0.09
  9
$DIMJUST
 70
     0
  9
$DIMSD1
 70
     0
  9
$DIMSD2
 70
     0
  9
$DIMTOLJ
 70
     1
  9
$DIMTZIN
 70
     0
  9
$DIMALTZ
 70
     0
  9
$DIMALTTZ
 70
     0
  9
$DIMUPT
 70
     0
  9
$DIMDEC
 70
     4
  9
$DIMTDEC
 70
     4
  9
$DIMALTU
 70
     2
  9
$DIMALTTD
 70
     2
  9
$DIMTXSTY
  7
Standard
  9
$DIMAUNIT
 70
     0
  9
$DIMADEC
 70
     0
  9
$DIMALTRND
 40
0.0
  9
$DIMAZIN
 70
     0
  9
$DIMDSEP
 70
    46
  9
$DIMATFIT
 70
     3
  9
$DIMFRAC
 70
     0
  9
$DIMLDRBLK
  1

  9
$DIMLUNIT
 70
     2
  9
$DIMLWD
 70
    -2
  9
$DIMLWE
 70
    -2
  9
$DIMTMOVE
 70
     0
  9
$DIMFXL
 40
1.0
  9
$DIMFXLON
 70
     0
  9
$DIMJOGANG
 40
0.7853981633974483
  9
$DIMTFILL
 70
     0
  9
$DIMTFILLCLR
 70
     0
  9
$DIMARCSYM
 70
     0
  9
$DIMLTYPE
  6

  9
$DIMLTEX1
  6

  9
$DIMLTEX2
  6

  9
$DIMTXTDIRECTION
 70
     0
  9
$LUNITS
 70
     2
  9
$LUPREC
 70
     4
  9
$SKETCHINC
 40
0.1
  9
$FILLETRAD
 40
0.5
  9
$AUNITS
 70
     0
  9
$AUPREC
 70
     0
  9
$MENU
  1
.
  9
$ELEVATION
 40
0.0
  9
$PELEVATION
 40
0.0
  9
$THICKNESS
 40
0.0
  9
$LIMCHECK
 70
     0
  9
$CHAMFERA
 40
0.5
  9
$CHAMFERB
 40
0.5
  9
$CHAMFERC
 40
1.0
  9
$CHAMFERD
 40
0.0
  9
$SKPOLY
 70
     0
  9
$TDCREATE
 40
2459963.01125412
  9
$TDUCREATE
 40
2459962.969587454
  9
$TDUPDATE
 40
2459963.01125434
  9
$TDUUPDATE
 40
2459962.969587673
  9
$TDINDWG
 40
0.0000000116
  9
$TDUSRTIMER
 40
0.0000000116
  9
$USRTIMER
 70
     1
  9
$ANGBASE
 50
0.0
  9
$ANGDIR
 70
     0
  9
$PDMODE
 70
     0
  9
$PDSIZE
 40
0.0
  9
$PLINEWID
 40
0.0
  9
$SPLFRAME
 70
     0
  9
$SPLINETYPE
 70
     6
  9
$SPLINESEGS
 70
     8
  9
$HANDSEED
  5
AA
  9
$SURFTAB1
 70
     6
  9
$SURFTAB2
 70
     6
  9
$SURFTYPE
 70
     6
  9
$SURFU
 70
     6
  9
$SURFV
 70
     6
  9
$UCSBASE
  2

  9
$UCSNAME
  2

  9
$UCSORG
 10
0.0
 20
0.0
 30
0.0
  9
$UCSXDIR
 10
1.0
 20
0.0
 30
0.0
  9
$UCSYDIR
 10
0.0
 20
1.0
 30
0.0
  9
$UCSORTHOREF
  2

  9
$UCSORTHOVIEW
 70
     0
  9
$UCSORGTOP
 10
0.0
 20
0.0
 30
0.0
  9
$UCSORGBOTTOM
 10
0.0
 20
0.0
 30
0.0
  9
$UCSORGLEFT
 10
0.0
 20
0.0
 30
0.0
  9
$UCSORGRIGHT
 10
0.0
 20
0.0
 30
0.0
  9
$UCSORGFRONT
 10
0.0
 20
0.0
 30
0.0
  9
$UCSORGBACK
 10
0.0
 20
0.0
 30
0.0
  9
$PUCSBASE
  2

  9
$PUCSNAME
  2

  9
$PUCSORG
 10
0.0
 20
0.0
 30
0.0
  9
$PUCSXDIR
 10
1.0
 20
0.0
 30
0.0
  9
$PUCSYDIR
 10
0.0
 20
1.0
 30
0.0
  9
$PUCSORTHOREF
  2

  9
$PUCSORTHOVIEW
 70
     0
  9
$PUCSORGTOP
 10
0.0
 20
0.0
 30
0.0
  9
$PUCSORGBOTTOM
 10
0.0
 20
0.0
 30
0.0
  9
$PUCSORGLEFT
 10
0.0
 20
0.0
 30
0.0
  9
$PUCSORGRIGHT
 10
0.0
 20
0.0
 30
0.0
  9
$PUCSORGFRONT
 10
0.0
 20
0.0
 30
0.0
  9
$PUCSORGBACK
 10
0.0
 20
0.0
 30
0.0
  9
$USERI1
 70
     0
  9
$USERI2
 70
     0
  9
$USERI3
 70
     0
  9
$USERI4
 70
     0
  9
$USERI5
 70
     0
  9
$USERR1
 40
0.0
  9
$USERR2
 40
0.0
  9
$USERR3
 40
0.0
  9
$USERR4
 40
0.0
  9
$USERR5
 40
0.0
  9
$WORLDVIEW
 70
     1
  9
$SHADEDGE
 70
     3
  9
$SHADEDIF
 70
    70
  9
$TILEMODE
 70
     1
  9
$MAXACTVP
 70
    64
  9
$PINSBASE
 10
0.0
 20
0.0
 30
0.0
  9
$PLIMCHECK
 70
     0
  9
$PEXTMIN
 10
1.000000000000000E+20
 20
1.000000000000000E+20
 30
1.000000000000000E+20
  9
$PEXTMAX
 10
-1.000000000000000E+20
 20
-1.000000000000000E+20
 30
-1.000000000000000E+20
  9
$PLIMMIN
 10
0.0
 20
0.0
  9
$PLIMMAX
 10
12.0
 20
9.0
  9
$UNITMODE
 70
     0
  9
$VISRETAIN
 70
     1
  9
$PLINEGEN
 70
     0
  9
$PSLTSCALE
 70
     1
  9
$TREEDEPTH
 70
  3020
  9
$CMLSTYLE
  2
Standard
  9
$CMLJUST
 70
     0
  9
$CMLSCALE
 40
1.0
  9
$PROXYGRAPHICS
 70
     1
  9
$MEASUREMENT
 70
     0
  9
$CELWEIGHT
370
    -1
  9
$ENDCAPS
280
     0
  9
$JOINSTYLE
280
     0
  9
$LWDISPLAY
290
     1
  9
$INSUNITS
 70
     1
  9
$HYPERLINKBASE
  1

  9
$STYLESHEET
  1

  9
$XEDIT
290
     1
  9
$CEPSNTYPE
380
     0
  9
$PSTYLEMODE
290
     1
  9
$FINGERPRINTGUID
  2
{E0FEACA2-0847-4D7B-9F9E-A9D765E79864}
  9
$VERSIONGUID
  2
{FAEB1C32-E019-11D5-929B-00C0DF256EC4}
  9
$EXTNAMES
290
     1
  9
$PSVPSCALE
 40
0.0
  9
$OLESTARTUP
290
     0
  9
$SORTENTS
280
   127
  9
$INDEXCTL
280
     0
  9
$HIDETEXT
280
     1
  9
$XCLIPFRAME
280
     2
  9
$HALOGAP
280
     0
  9
$OBSCOLOR
 70
   257
  9
$OBSLTYPE
280
     0
  9
$INTERSECTIONDISPLAY
280
     0
  9
$INTERSECTIONCOLOR
 70
   257
  9
$DIMASSOC
280
     2
  9
$PROJECTNAME
  1

  9
$CAMERADISPLAY
290
     0
  9
$LENSLENGTH
 40
50.0
  9
$CAMERAHEIGHT
 40
0.0
  9
$STEPSPERSEC
 40
2.0
  9
$STEPSIZE
 40
6.0
  9
$3DDWFPREC
 40
2.0
  9
$PSOLWIDTH
 40
0.25
  9
$PSOLHEIGHT
 40
4.0
  9
$LOFTANG1
 40
1.570796326794897
  9
$LOFTANG2
 40
1.570796326794897
  9
$LOFTMAG1
 40
0.0
  9
$LOFTMAG2
 40
0.0
  9
$LOFTPARAM
 70
     7
  9
$LOFTNORMALS
280
     1
  9
$LATITUDE
 40
37.795
  9
$LONGITUDE
 40
-122.394
  9
$NORTHDIRECTION
 40
0.0
  9
$TIMEZONE
 70
 -8000
  9
$LIGHTGLYPHDISPLAY
280
     1
  9
$TILEMODELIGHTSYNCH
280
     1
  9
$CMATERIAL
347
3C
  9
$SOLIDHIST
280
     1
  9
$SHOWHIST
280
     1
  9
$DWFFRAME
280
     2
  9
$DGNFRAME
280
     2
  9
$REALWORLDSCALE
290
     1
  9
$INTERFERECOLOR
 62
   256
  9
$CSHADOW
280
     0
  9
$SHADOWPLANELOCATION
 40
0.0
  0
ENDSEC
  0
SECTION
  2
CLASSES
  0
CLASS
  1
ACDBDICTIONARYWDFLT
  2
AcDbDictionaryWithDefault
  3
ObjectDBX Classes
 90
        0
 91
        4
280
     0
281
     0
  0
CLASS
  1
VISUALSTYLE
  2
AcDbVisualStyle
  3
ObjectDBX Classes
 90
     4095
 91
        4
280
     0
281
     0
  0
CLASS
  1
MATERIAL
  2
AcDbMaterial
  3
ObjectDBX Classes
 90
     1153
 91
        4
280
     0
281
     0
  0
CLASS
  1
SUN
  2
AcDbSun
  3
SCENEOE
 90
     1024
 91
        4
280
     0
281
     0
  0
ENDSEC
  0
SECTION
  2
TABLES
  0
TABLE
  2
VPORT
  5
8
330
0
100
AcDbSymbolTable
 70
     1
  0
VPORT
  5
29
330
8
100
AcDbSymbolTableRecord
100
AcDbViewportTableRecord
  2
*Active
 70
     0
 10
0.0
 20
0.0
 11
1.0
 21
1.0
 12
0.0
 22
0.0
 13
0.0
 23
0.0
 14
0.5
 24
0.5
 15
0.5
 25
0.5
 16
0.0
 26
0.0
 36
1.0
 17
13.50080555218051
 27
-13.50080555218051
 37
0.0
 40
27.00161110436102
 41
1.0
 42
50.0
 43
0.0
 44
0.0
 50
0.0
 51
0.0
 71
     0
 72
   100
 73
     1
 74
     3
 75
     0
 76
     0
 77
     0
 78
     0
281
     0
 65
     1
110
0.0
120
0.0
130
0.0
111
1.0
121
0.0
131
0.0
112
0.0
122
1.0
132
0.0
 79
     0
146
0.0
 60
     3
 61
     5
292
     1
282
     1
141
0.0
142
0.0
 63
   250
361
3F
  0
ENDTAB
  0
TABLE
  2
LTYPE
  5
5
330
0
100
AcDbSymbolTable
 70
     1
  0
LTYPE
  5
14
330
5
100
AcDbSymbolTableRecord
100
AcDbLinetypeTableRecord
  2
ByBlock
 70
     0
  3

 72
    65
 73
     0
 40
0.0
  0
LTYPE
  5
15
330
5
100
AcDbSymbolTableRecord
100
AcDbLinetypeTableRecord
  2
ByLayer
 70
     0
  3

 72
    65
 73
     0
 40
0.0
  0
LTYPE
  5
16
330
5
100
AcDbSymbolTableRecord
100
AcDbLinetypeTableRecord
  2
Continuous
 70
     0
  3
Solid line
 72
    65
 73
     0
 40
0.0
  0
ENDTAB
  0
TABLE
  2
LAYER
  5
2
330
0
100
AcDbSymbolTable
 70
     6
  0
LAYER
  5
10
330
2
100
AcDbSymbolTableRecord
100
AcDbLayerTableRecord
  2
0
 70
     0
 62
     7
  6
Continuous
370
    -3
390
F
347
3E
  0
LAYER
  5
40
330
2
100
AcDbSymbolTableRecord
100
AcDbLayerTableRecord
  2
Layer 1
 70
     1
 62
     7
  6
Continuous
370
    -3
390
F
347
3E
  0
LAYER
  5
41
330
2
100
AcDbSymbolTableRecord
100
AcDbLayerTableRecord
  2
Thin
 70
     5
 62
     7
  6
Continuous
370
    -3
390
F
347
3E
  0
LAYER
  5
42
330
2
100
AcDbSymbolTableRecord
100
AcDbLayerTableRecord
  2
Base
 70
     5
 62
     7
  6
Continuous
370
    -3
390
F
347
3E
  0
LAYER
  5
43
330
2
100
AcDbSymbolTableRecord
100
AcDbLayerTableRecord
  2
Icons
 70
     5
 62
     7
  6
Continuous
370
    -3
390
F
347
3E
  0
LAYER
  5
44
330
2
100
AcDbSymbolTableRecord
100
AcDbLayerTableRecord
  2
Test
 70
     0
 62
     7
  6
Continuous
370
    -3
390
F
347
3E
  0
ENDTAB
  0
TABLE
  2
STYLE
  5
3
330
0
100
AcDbSymbolTable
 70
     1
  0
STYLE
  5
11
330
3
100
AcDbSymbolTableRecord
100
AcDbTextStyleTableRecord
  2
Standard
 70
     0
 40
0.0
 41
1.0
 50
0.0
 71
     0
 42
0.2
  3
txt
  4

  0
ENDTAB
  0
TABLE
  2
VIEW
  5
6
330
0
100
AcDbSymbolTable
 70
     0
  0
ENDTAB
  0
TABLE
  2
UCS
  5
7
330
0
100
AcDbSymbolTable
 70
     0
  0
ENDTAB
  0
TABLE
  2
APPID
  5
9
330
0
100
AcDbSymbolTable
 70
     1
  0
APPID
  5
12
330
9
100
AcDbSymbolTableRecord
100
AcDbRegAppTableRecord
  2
ACAD
 70
     0
  0
ENDTAB
  0
TABLE
  2
DIMSTYLE
  5
A
330
0
100
AcDbSymbolTable
 70
     1
100
AcDbDimStyleTable
  0
DIMSTYLE
105
27
330
A
100
AcDbSymbolTableRecord
100
AcDbDimStyleTableRecord
  2
Standard
 70
     0
178
     0
340
11
  0
ENDTAB
  0
TABLE
  2
BLOCK_RECORD
  5
1
330
0
100
AcDbSymbolTable
 70
     4
  0
BLOCK_RECORD
  5
1F
330
1
100
AcDbSymbolTableRecord
100
AcDbBlockTableRecord
  2
*Model_Space
340
22
 70
     0
280
     1
281
     0
  0
BLOCK_RECORD
  5
1B
330
1
100
AcDbSymbolTableRecord
100
AcDbBlockTableRecord
  2
*Paper_Space
340
1E
 70
     0
280
     1
281
     0
  0
BLOCK_RECORD
  5
23
330
1
100
AcDbSymbolTableRecord
100
AcDbBlockTableRecord
  2
*Paper_Space0
340
26
 70
     0
280
     1
281
     0
  0
BLOCK_RECORD
  5
45
330
1
100
AcDbSymbolTableRecord
100
AcDbBlockTableRecord
  2
block 2
340
0
102
{BLKREFS
331
46
102
}
 70
     0
280
     1
281
     0
  0
BLOCK_RECORD
  5
5C
330
1
100
AcDbSymbolTableRecord
100
AcDbBlockTableRecord
  2
block 3
340
0
102
{BLKREFS
331
5D
102
}
 70
     0
280
     1
281
     0
  0
BLOCK_RECORD
  5
A1
330
1
100
AcDbSymbolTableRecord
100
AcDbBlockTableRecord
  2
block 4
340
0
102
{BLKREFS
331
A2
102
}
 70
     0
280
     1
281
     0
  0
ENDTAB
  0
ENDSEC
  0
SECTION
  2
BLOCKS
  0
BLOCK
  5
20
330
1F
100
AcDbEntity
  8
0
100
AcDbBlockBegin
  2
*Model_Space
 70
     0
 10
0.0
 20
0.0
 30
0.0
  3
*Model_Space
  1

  0
ENDBLK
  5
21
330
1F
100
AcDbEntity
  8
0
100
AcDbBlockEnd
  0
BLOCK
  5
1C
330
1B
100
AcDbEntity
 67
     1
  8
0
100
AcDbBlockBegin
  2
*Paper_Space
 70
     0
 10
0.0
 20
0.0
 30
0.0
  3
*Paper_Space
  1

  0
ENDBLK
  5
1D
330
1B
100
AcDbEntity
 67
     1
  8
0
100
AcDbBlockEnd
  0
BLOCK
  5
24
330
23
100
AcDbEntity
  8
0
100
AcDbBlockBegin
  2
*Paper_Space0
 70
     0
 10
0.0
 20
0.0
 30
0.0
  3
*Paper_Space0
  1

  0
ENDBLK
  5
25
330
23
100
AcDbEntity
  8
0
100
AcDbBlockEnd
  0
BLOCK
  5
47
330
45
100
AcDbEntity
  8
0
100
AcDbBlockBegin
  2
block 2
 70
     0
 10
0.0
 20
0.0
 30
0.0
  3
block 2
  1

  0
SPLINE
  5
49
330
45
100
AcDbEntity
  8
Test
 62
   250
420
  2301728
370
     9
100
AcDbSpline
210
0.0
220
0.0
230
1.0
 70
     8
 71
     3
 72
    23
 73
    19
 74
     0
 42
0.0000000001
 43
0.0000000001
 12
1.0
 22
0.0
 32
0.0
 13
1.0
 23
0.0
 33
0.0
 40
0.0
 40
0.0
 40
0.0
 40
0.0
 40
1.0
 40
1.0
 40
1.0
 40
2.0
 40
2.0
 40
2.0
 40
3.0
 40
3.0
 40
3.0
 40
4.0
 40
4.0
 40
4.0
 40
5.0
 40
5.0
 40
5.0
 40
6.0
 40
6.0
 40
6.0
 40
6.0
 10
10.53713370851871
 20
-9.423537845400336
 30
0.0
 10
8.645720655915097
 20
-6.821914530598028
 30
0.0
 10
6.554617138389558
 20
-3.940521747875547
 30
0.0
 10
6.554617138389558
 20
-3.940521747875547
 30
0.0
 10
6.653383719582314
 20
-3.866430663095893
 30
0.0
 10
6.752171832621853
 20
-3.792361110163021
 30
0.0
 10
6.84389749991663
 20
-3.718270025383366
 30
0.0
 10
7.471830747643762
 20
-3.203206718491733
 30
0.0
 10
7.877533804725496
 20
-2.659936692314617
 30
0.0
 10
7.881065027597876
 20
-2.331855942884918
 30
0.0
 10
8.995833331084375
 20
-1.770929802345896
 30
0.0
 10
10.20938974761041
 20
-1.368779499983326
 30
0.0
 10
11.48644358029896
 20
-1.164162360006268
 30
0.0
 10
11.70163285704638
 20
-1.464014858303701
 30
0.0
 10
12.52361110798021
 20
-1.6827353579235
 30
0.0
 10
13.50081244237133
 20
-1.6827353579235
 30
0.0
 10
13.50081244237133
 20
-1.6827353579235
 30
0.0
 10
13.50081244237133
 20
-8.447045061594585
 30
0.0
 10
13.50081244237133
 20
-8.447045061594585
 30
0.0
  0
SPLINE
  5
4A
330
45
100
AcDbEntity
  8
Test
 62
   250
420
  2301728
370
     9
100
AcDbSpline
210
0.0
220
0.0
230
1.0
 70
     8
 71
     3
 72
    26
 73
    22
 74
     0
 42
0.0000000001
 43
0.0000000001
 12
1.0
 22
0.0
 32
0.0
 13
1.0
 23
0.0
 33
0.0
 40
0.0
 40
0.0
 40
0.0
 40
0.0
 40
1.0
 40
1.0
 40
1.0
 40
2.0
 40
2.0
 40
2.0
 40
3.0
 40
3.0
 40
3.0
 40
4.0
 40
4.0
 40
4.0
 40
5.0
 40
5.0
 40
5.0
 40
6.0
 40
6.0
 40
6.0
 40
7.0
 40
7.0
 40
7.0
 40
7.0
 10
8.70787577062664
 20
-11.94550797346779
 30
0.0
 10
8.50283076798935
 20
-11.87736023036404
 30
0.0
 10
8.297766821164355
 20
-11.81231933404406
 30
0.0
 10
8.092723081472913
 20
-11.74396446782139
 30
0.0
 10
5.210534666666117
 20
-10.80911627605206
 30
0.0
 10
2.261296080977645
 20
-9.849549524176068
 30
0.0
 10
2.261296080977645
 20
-9.849549524176068
 30
0.0
 10
2.300118000727054
 20
-9.729595605749026
 30
0.0
 10
2.335387165757299
 20
-9.613194442041147
 30
0.0
 10
2.363615416889565
 20
-9.500302969358867
 30
0.0
 10
2.568232556866623
 20
-8.713615415302066
 30
0.0
 10
2.578804693636983
 20
-8.032735356336001
 30
0.0
 10
2.38831244514945
 20
-7.768152023068813
 30
0.0
 10
2.959810722458832
 20
-6.660446165327076
 30
0.0
 10
3.707697888613006
 20
-5.619747414773449
 30
0.0
 10
4.621380274994829
 20
-4.702512273672462
 30
0.0
 10
4.970648361658814
 20
-4.818934969227124
 30
0.0
 10
5.764398361460376
 20
-4.51555124805731
 30
0.0
 10
6.554617138389558
 20
-3.940521747875547
 30
0.0
 10
6.554617138389558
 20
-3.940521747875547
 30
0.0
 10
8.051066807375419
 20
-6.002523575994373
 30
0.0
 10
9.65715952393698
 20
-8.212814880037403
 30
0.0
  0
SPLINE
  5
4B
330
45
100
AcDbEntity
  8
Test
 62
   250
420
  2301728
370
     9
100
AcDbSpline
210
0.0
220
0.0
230
1.0
 70
     8
 71
     3
 72
    26
 73
    22
 74
     0
 42
0.0000000001
 43
0.0000000001
 12
1.0
 22
0.0
 32
0.0
 13
1.0
 23
0.0
 33
0.0
 40
0.0
 40
0.0
 40
0.0
 40
0.0
 40
1.0
 40
1.0
 40
1.0
 40
2.0
 40
2.0
 40
2.0
 40
3.0
 40
3.0
 40
3.0
 40
4.0
 40
4.0
 40
4.0
 40
5.0
 40
5.0
 40
5.0
 40
6.0
 40
6.0
 40
6.0
 40
7.0
 40
7.0
 40
7.0
 40
7.0
 10
8.659461718743373
 20
-15.07186483853501
 30
0.0
 10
8.659461718743373
 20
-15.07186483853501
 30
0.0
 10
8.092723081472913
 20
-15.25763888507448
 30
0.0
 10
8.092723081472913
 20
-15.25763888507448
 30
0.0
 10
5.210534666666117
 20
-16.19248707684381
 30
0.0
 10
2.261296080977645
 20
-17.1520538287198
 30
0.0
 10
2.261296080977645
 20
-17.1520538287198
 30
0.0
 10
2.222495693075019
 20
-17.03563113316514
 30
0.0
 10
2.183695305172392
 20
-16.91920843761048
 30
0.0
 10
2.137832471525004
 20
-16.80984818780058
 30
0.0
 10
1.84502088712555
 20
-16.05138888487604
 30
0.0
 10
1.44991149866096
 20
-15.49752519008178
 30
0.0
 10
1.142996554618765
 20
-15.39522738601664
 30
0.0
 10
0.9525043061312316
 20
-14.1605051641031
 30
0.0
 10
0.9454418603864695
 20
-12.88342979956777
 30
0.0
 10
1.146527777491146
 20
-11.60286627585362
 30
0.0
 10
1.495774332308348
 20
-11.49348449419694
 30
0.0
 10
1.957912359807831
 20
-10.77735680204741
 30
0.0
 10
2.261296080977645
 20
-9.849549524176068
 30
0.0
 10
2.261296080977645
 20
-9.849549524176068
 30
0.0
 10
4.634135318397766
 20
-10.62157849830656
 30
0.0
 10
7.203053898642413
 20
-11.45530896638315
 30
0.0
  0
SPLINE
  5
4C
330
45
100
AcDbEntity
  8
Test
 62
   250
420
  2301728
370
     9
100
AcDbSpline
210
0.0
220
0.0
230
1.0
 70
     8
 71
     3
 72
    11
 73
     7
 74
     0
 42
0.0000000001
 43
0.0000000001
 12
1.0
 22
0.0
 32
0.0
 13
1.0
 23
0.0
 33
0.0
 40
0.0
 40
0.0
 40
0.0
 40
0.0
 40
1.0
 40
1.0
 40
1.0
 40
2.0
 40
2.0
 40
2.0
 40
2.0
 10
7.212274407264762
 20
-15.54426451948457
 30
0.0
 10
7.52334614196211
 20
-15.44330760813567
 30
0.0
 10
7.83714969849078
 20
-15.3414910275763
 30
0.0
 10
8.150202377790263
 20
-15.23995126367027
 30
0.0
 10
8.150202377790263
 20
-15.23995126367027
 30
0.0
 10
8.69863765428927
 20
-15.06017696582004
 30
0.0
 10
8.69863765428927
 20
-15.06017696582004
 30
0.0
  0
SPLINE
  5
4D
330
45
100
AcDbEntity
  8
Test
 62
   250
420
  2301728
370
     9
100
AcDbSpline
210
0.0
220
0.0
230
1.0
 70
     8
 71
     3
 72
    23
 73
    19
 74
     0
 42
0.0000000001
 43
0.0000000001
 12
1.0
 22
0.0
 32
0.0
 13
1.0
 23
0.0
 33
0.0
 40
0.0
 40
0.0
 40
0.0
 40
0.0
 40
1.0
 40
1.0
 40
1.0
 40
2.0
 40
2.0
 40
2.0
 40
3.0
 40
3.0
 40
3.0
 40
4.0
 40
4.0
 40
4.0
 40
5.0
 40
5.0
 40
5.0
 40
6.0
 40
6.0
 40
6.0
 40
6.0
 10
10.53322003598476
 20
-17.58344873959647
 30
0.0
 10
8.642837281432056
 20
-20.18366190844833
 30
0.0
 10
6.554617138389558
 20
-23.06108160502032
 30
0.0
 10
6.554617138389558
 20
-23.06108160502032
 30
0.0
 10
6.455829025350019
 20
-22.98699052024067
 30
0.0
 10
6.353531221284881
 20
-22.91996188120578
 30
0.0
 10
6.254743108245342
 20
-22.85646446504326
 30
0.0
 10
5.570353358253679
 20
-22.41549224293128
 30
0.0
 10
4.924785528011426
 20
-22.20030296618387
 30
0.0
 10
4.61433936109685
 20
-22.29555985635102
 30
0.0
 10
3.735926139745272
 20
-21.41008418925469
 30
0.0
 10
2.980976527846336
 20
-20.37995757547142
 30
0.0
 10
2.391843668021831
 20
-19.22992010695467
 30
0.0
 10
2.61056416764163
 20
-18.93004607681046
 30
0.0
 10
2.564701333994241
 20
-18.08339232946353
 30
0.0
 10
2.261296080977645
 20
-17.1520538287198
 30
0.0
 10
2.261296080977645
 20
-17.1520538287198
 30
0.0
 10
4.633731681638698
 20
-16.38015618218514
 30
0.0
 10
7.202398388155421
 20
-15.54650712940626
 30
0.0
  0
SPLINE
  5
4E
330
45
100
AcDbEntity
  8
Test
 62
   250
420
  2301728
370
     9
100
AcDbSpline
210
0.0
220
0.0
230
1.0
 70
     8
 71
     3
 72
    23
 73
    19
 74
     0
 42
0.0000000001
 43
0.0000000001
 12
1.0
 22
0.0
 32
0.0
 13
1.0
 23
0.0
 33
0.0
 40
0.0
 40
0.0
 40
0.0
 40
0.0
 40
1.0
 40
1.0
 40
1.0
 40
2.0
 40
2.0
 40
2.0
 40
3.0
 40
3.0
 40
3.0
 40
4.0
 40
4.0
 40
4.0
 40
5.0
 40
5.0
 40
5.0
 40
6.0
 40
6.0
 40
6.0
 40
6.0
 10
13.50081244237133
 20
-19.4360088846478
 30
0.0
 10
13.50081244237133
 20
-22.38177024271621
 30
0.0
 10
13.50081244237133
 20
-25.31884646312558
 30
0.0
 10
13.50081244237133
 20
-25.31884646312558
 30
0.0
 10
13.3773273010719
 20
-25.31884646312558
 30
0.0
 10
13.25386369161926
 20
-25.32237768599797
 30
0.0
 10
13.1374409960646
 20
-25.32944013174273
 30
0.0
 10
12.32605641374791
 20
-25.37530296539012
 30
0.0
 10
11.6769358287865
 20
-25.57638888249479
 30
0.0
 10
11.48291235742658
 20
-25.84097221576198
 30
0.0
 10
10.25172135838542
 20
-25.6398862986573
 30
0.0
 10
9.03110249611462
 20
-25.25181782409069
 30
0.0
 10
7.877533804725496
 20
-24.66621618713857
 30
0.0
 10
7.881065027597876
 20
-24.29580382693386
 30
0.0
 10
7.34483591531874
 20
-23.63611110520208
 30
0.0
 10
6.554617138389558
 20
-23.06108160502032
 30
0.0
 10
6.554617138389558
 20
-23.06108160502032
 30
0.0
 10
8.107007039213984
 20
-20.92199809302893
 30
0.0
 10
9.746495618989538
 20
-18.6658475979322
 30
0.0
  0
SPLINE
  5
4F
330
45
100
AcDbEntity
  8
Test
 62
   250
420
  2301728
370
     9
100
AcDbSpline
210
0.0
220
0.0
230
1.0
 70
    24
 71
     3
 72
     8
 73
     4
 74
     0
 42
0.0000000001
 43
0.0000000001
 12
1.0
 22
0.0
 32
0.0
 13
1.0
 23
0.0
 33
0.0
 40
0.0
 40
0.0
 40
0.0
 40
0.0
 40
1.0
 40
1.0
 40
1.0
 40
1.0
 10
13.50081244237133
 20
-18.54158496268517
 30
0.0
 10
13.50081244237133
 20
-18.83790902199509
 30
0.0
 10
13.50081244237133
 20
-19.13700215628135
 30
0.0
 10
13.50081244237133
 20
-19.4360088846478
 30
0.0
  0
SPLINE
  5
50
330
45
100
AcDbEntity
  8
Test
 62
   250
420
  2301728
370
     9
100
AcDbSpline
210
0.0
220
0.0
230
1.0
 70
     8
 71
     3
 72
    23
 73
    19
 74
     0
 42
0.0000000001
 43
0.0000000001
 12
1.0
 22
0.0
 32
0.0
 13
1.0
 23
0.0
 33
0.0
 40
0.0
 40
0.0
 40
0.0
 40
0.0
 40
1.0
 40
1.0
 40
1.0
 40
2.0
 40
2.0
 40
2.0
 40
3.0
 40
3.0
 40
3.0
 40
4.0
 40
4.0
 40
4.0
 40
5.0
 40
5.0
 40
5.0
 40
6.0
 40
6.0
 40
6.0
 40
6.0
 10
16.48952680925223
 20
-17.61253172477434
 30
0.0
 10
18.37430229572199
 20
-20.20506920765154
 30
0.0
 10
20.44700774635309
 20
-23.06108160502032
 30
0.0
 10
20.44700774635309
 20
-23.06108160502032
 30
0.0
 10
20.34821963331355
 20
-23.13515115795319
 30
0.0
 10
20.2494530521208
 20
-23.20924224273285
 30
0.0
 10
20.15772738482602
 20
-23.2833333275125
 30
0.0
 10
19.52977260525211
 20
-23.79837510255735
 30
0.0
 10
19.12409108001716
 20
-24.34166666058125
 30
0.0
 10
19.12055985714477
 20
-24.66974741001095
 30
0.0
 10
18.00577002181149
 20
-25.23065201870319
 30
0.0
 10
16.79221360528545
 20
-25.63282385291254
 30
0.0
 10
15.5151597725969
 20
-25.8374409928896
 30
0.0
 10
15.29997049584949
 20
-25.53758849459217
 30
0.0
 10
14.47799224491566
 20
-25.31884646312558
 30
0.0
 10
13.50081244237133
 20
-25.31884646312558
 30
0.0
 10
13.50081244237133
 20
-25.31884646312558
 30
0.0
 10
13.50081244237133
 20
-22.51449322602634
 30
0.0
 10
13.50081244237133
 20
-19.63794169490127
 30
0.0
  0
SPLINE
  5
51
330
45
100
AcDbEntity
  8
Test
 62
   250
420
  2301728
370
     9
100
AcDbSpline
210
0.0
220
0.0
230
1.0
 70
     8
 71
     3
 72
     8
 73
     4
 74
     0
 42
0.0000000001
 43
0.0000000001
 12
1.0
 22
0.0
 32
0.0
 13
1.0
 23
0.0
 33
0.0
 40
0.0
 40
0.0
 40
0.0
 40
0.0
 40
1.0
 40
1.0
 40
1.0
 40
1.0
 10
17.13373381207161
 20
-18.4997902072594
 30
0.0
 10
16.91213943499776
 20
-18.19486690880279
 30
0.0
 10
16.68964752219239
 20
-17.8887593165596
 30
0.0
 10
16.46956929118074
 20
-17.58603663306033
 30
0.0
  0
SPLINE
  5
52
330
45
100
AcDbEntity
  8
Test
 62
   250
420
  2301728
370
     9
100
AcDbSpline
210
0.0
220
0.0
230
1.0
 70
     8
 71
     3
 72
    29
 73
    25
 74
     0
 42
0.0000000001
 43
0.0000000001
 12
1.0
 22
0.0
 32
0.0
 13
1.0
 23
0.0
 33
0.0
 40
0.0
 40
0.0
 40
0.0
 40
0.0
 40
1.0
 40
1.0
 40
1.0
 40
2.0
 40
2.0
 40
2.0
 40
3.0
 40
3.0
 40
3.0
 40
4.0
 40
4.0
 40
4.0
 40
5.0
 40
5.0
 40
5.0
 40
6.0
 40
6.0
 40
6.0
 40
7.0
 40
7.0
 40
7.0
 40
8.0
 40
8.0
 40
8.0
 40
8.0
 10
18.25271877256356
 20
-15.04595929935266
 30
0.0
 10
18.25271877256356
 20
-15.04595929935266
 30
0.0
 10
18.27388457795106
 20
-15.04949052222504
 30
0.0
 10
18.27388457795106
 20
-15.04949052222504
 30
0.0
 10
18.48556416367288
 20
-15.12005038413231
 30
0.0
 10
18.69722221754792
 20
-15.18707902316721
 30
0.0
 10
18.90888027142296
 20
-15.25763888507448
 30
0.0
 10
21.79109021807653
 20
-16.19248707684381
 30
0.0
 10
24.74030727191822
 20
-17.1520538287198
 30
0.0
 10
24.74030727191822
 20
-17.1520538287198
 30
0.0
 10
24.7015068840156
 20
-17.27198621530006
 30
0.0
 10
24.66621618713857
 20
-17.38840891085472
 30
0.0
 10
24.63800946785308
 20
-17.501300383537
 30
0.0
 10
24.43339232787603
 20
-18.2879879375938
 30
0.0
 10
24.42279865925888
 20
-18.96884646471308
 30
0.0
 10
24.6133124395932
 20
-19.23342979798027
 30
0.0
 10
24.04181416228382
 20
-20.34115718756879
 30
0.0
 10
23.29392699612965
 20
-21.38185593812242
 30
0.0
 10
22.38022307790104
 20
-22.29906954737662
 30
0.0
 10
22.03097652308384
 20
-22.18266838366874
 30
0.0
 10
21.23722652328227
 20
-22.48605210483856
 30
0.0
 10
20.44700774635309
 20
-23.06108160502032
 30
0.0
 10
20.44700774635309
 20
-23.06108160502032
 30
0.0
 10
18.81808570864702
 20
-20.81656512892452
 30
0.0
 10
17.13521999343631
 20
-18.50087024750395
 30
0.0
  0
SPLINE
  5
53
330
45
100
AcDbEntity
  8
Test
 62
   250
420
  2301728
370
     9
100
AcDbSpline
210
0.0
220
0.0
230
1.0
 70
     8
 71
     3
 72
    11
 73
     7
 74
     0
 42
0.0000000001
 43
0.0000000001
 12
1.0
 22
0.0
 32
0.0
 13
1.0
 23
0.0
 33
0.0
 40
0.0
 40
0.0
 40
0.0
 40
0.0
 40
1.0
 40
1.0
 40
1.0
 40
2.0
 40
2.0
 40
2.0
 40
2.0
 10
19.58839715251176
 20
-15.47809342309134
 30
0.0
 10
19.36245434087662
 20
-15.40477461461339
 30
0.0
 10
19.13546025258078
 20
-15.3311303689001
 30
0.0
 10
18.90888027142296
 20
-15.25763888507448
 30
0.0
 10
18.7790743555699
 20
-15.21436584476416
 30
0.0
 10
18.64926843971686
 20
-15.17242094643048
 30
0.0
 10
18.51945755725056
 20
-15.13017514093022
 30
0.0
  0
SPLINE
  5
54
330
45
100
AcDbEntity
  8
Test
 62
   250
420
  2301728
370
     9
100
AcDbSpline
210
0.0
220
0.0
230
1.0
 70
     8
 71
     3
 72
    26
 73
    22
 74
     0
 42
0.0000000001
 43
0.0000000001
 12
1.0
 22
0.0
 32
0.0
 13
1.0
 23
0.0
 33
0.0
 40
0.0
 40
0.0
 40
0.0
 40
0.0
 40
1.0
 40
1.0
 40
1.0
 40
2.0
 40
2.0
 40
2.0
 40
3.0
 40
3.0
 40
3.0
 40
4.0
 40
4.0
 40
4.0
 40
5.0
 40
5.0
 40
5.0
 40
6.0
 40
6.0
 40
6.0
 40
7.0
 40
7.0
 40
7.0
 40
7.0
 10
18.34034137971133
 20
-11.93032862862239
 30
0.0
 10
18.34034137971133
 20
-11.93032862862239
 30
0.0
 10
18.90888027142296
 20
-11.74396446782139
 30
0.0
 10
18.90888027142296
 20
-11.74396446782139
 30
0.0
 10
21.79109021807653
 20
-10.80911627605206
 30
0.0
 10
24.74030727191822
 20
-9.849549524176068
 30
0.0
 10
24.74030727191822
 20
-9.849549524176068
 30
0.0
 10
24.77910765982085
 20
-9.96597221973073
 30
0.0
 10
24.81790804772347
 20
-10.08237338343861
 30
0.0
 10
24.86377088137086
 20
-10.19175516509529
 30
0.0
 10
25.15658246577032
 20
-10.95021446801982
 30
0.0
 10
25.55169185423491
 20
-11.50407816281409
 30
0.0
 10
25.8586067982771
 20
-11.60637596687922
 30
0.0
 10
26.04912057861142
 20
-12.84109818879277
 30
0.0
 10
26.0561614925094
 20
-14.11815202148131
 30
0.0
 10
25.85507557540472
 20
-15.39873707704224
 30
0.0
 10
25.50582902058752
 20
-15.50809732685214
 30
0.0
 10
25.04369099308804
 20
-16.22424655084845
 30
0.0
 10
24.74030727191822
 20
-17.1520538287198
 30
0.0
 10
24.74030727191822
 20
-17.1520538287198
 30
0.0
 10
22.23655917459604
 20
-16.33742629015542
 30
0.0
 10
19.58839715251176
 20
-15.47809342309134
 30
0.0
  0
SPLINE
  5
55
330
45
100
AcDbEntity
  8
Test
 62
   250
420
  2301728
370
     9
100
AcDbSpline
210
0.0
220
0.0
230
1.0
 70
     8
 71
     3
 72
    11
 73
     7
 74
     0
 42
0.0000000001
 43
0.0000000001
 12
1.0
 22
0.0
 32
0.0
 13
1.0
 23
0.0
 33
0.0
 40
0.0
 40
0.0
 40
0.0
 40
0.0
 40
1.0
 40
1.0
 40
1.0
 40
2.0
 40
2.0
 40
2.0
 40
2.0
 10
19.58811555657896
 20
-11.52437770954797
 30
0.0
 10
19.35753397671241
 20
-11.59920180583289
 30
0.0
 10
19.12587953671946
 20
-11.67435802081436
 30
0.0
 10
18.89464770578194
 20
-11.74935833759639
 30
0.0
 10
18.89464770578194
 20
-11.74935833759639
 30
0.0
 10
18.30186599051846
 20
-11.94366917281536
 30
0.0
 10
18.30186599051846
 20
-11.94366917281536
 30
0.0
  0
SPLINE
  5
56
330
45
100
AcDbEntity
  8
Test
 62
   250
420
  2301728
370
     9
100
AcDbSpline
210
0.0
220
0.0
230
1.0
 70
     8
 71
     3
 72
    23
 73
    19
 74
     0
 42
0.0000000001
 43
0.0000000001
 12
1.0
 22
0.0
 32
0.0
 13
1.0
 23
0.0
 33
0.0
 40
0.0
 40
0.0
 40
0.0
 40
0.0
 40
1.0
 40
1.0
 40
1.0
 40
2.0
 40
2.0
 40
2.0
 40
3.0
 40
3.0
 40
3.0
 40
4.0
 40
4.0
 40
4.0
 40
5.0
 40
5.0
 40
5.0
 40
6.0
 40
6.0
 40
6.0
 40
6.0
 10
16.43943582759587
 20
-9.457971358583858
 30
0.0
 10
18.33738199411357
 20
-6.847407190942229
 30
0.0
 10
20.44700774635309
 20
-3.940521747875547
 30
0.0
 10
20.44700774635309
 20
-3.940521747875547
 30
0.0
 10
20.54577432754585
 20
-4.014612832655201
 30
0.0
 10
20.64809366345777
 20
-4.081641471690094
 30
0.0
 10
20.74686024465052
 20
-4.145138887852604
 30
0.0
 10
21.43124999464219
 20
-4.586111109964584
 30
0.0
 10
22.07683935673122
 20
-4.801300386712001
 30
0.0
 10
22.3872855236458
 20
-4.706043496544844
 30
0.0
 10
23.26569874499738
 20
-5.591519163641183
 30
0.0
 10
24.02064835689631
 20
-6.621624245577667
 30
0.0
 10
24.60978121672082
 20
-7.771683245941194
 30
0.0
 10
24.39106071710102
 20
-8.071557276085409
 30
0.0
 10
24.43692355074841
 20
-8.91821102343234
 30
0.0
 10
24.74030727191822
 20
-9.849549524176068
 30
0.0
 10
24.74030727191822
 20
-9.849549524176068
 30
0.0
 10
22.23655917459604
 20
-10.66417706274045
 30
0.0
 10
19.58839715251176
 20
-11.52350992980485
 30
0.0
  0
SPLINE
  5
57
330
45
100
AcDbEntity
  8
Test
 62
   250
420
  2301728
370
     9
100
AcDbSpline
210
0.0
220
0.0
230
1.0
 70
     8
 71
     3
 72
    23
 73
    19
 74
     0
 42
0.0000000001
 43
0.0000000001
 12
1.0
 22
0.0
 32
0.0
 13
1.0
 23
0.0
 33
0.0
 40
0.0
 40
0.0
 40
0.0
 40
0.0
 40
1.0
 40
1.0
 40
1.0
 40
2.0
 40
2.0
 40
2.0
 40
3.0
 40
3.0
 40
3.0
 40
4.0
 40
4.0
 40
4.0
 40
5.0
 40
5.0
 40
5.0
 40
6.0
 40
6.0
 40
6.0
 40
6.0
 10
13.50081244237133
 20
-7.172992041819885
 30
0.0
 10
13.50081244237133
 20
-7.172992041819885
 30
0.0
 10
13.50081244237133
 20
-1.6827353579235
 30
0.0
 10
13.50081244237133
 20
-1.6827353579235
 30
0.0
 10
13.62427605182397
 20
-1.6827353579235
 30
0.0
 10
13.74773966127661
 20
-1.679225666897902
 30
0.0
 10
13.86416235683127
 20
-1.67216322115314
 30
0.0
 10
14.67554693914795
 20
-1.626300387505751
 30
0.0
 10
15.32466752410937
 20
-1.425214470401075
 30
0.0
 10
15.51869099546929
 20
-1.160631137133887
 30
0.0
 10
16.74988199451045
 20
-1.361717054238564
 30
0.0
 10
17.97050085678125
 20
-1.749763996958392
 30
0.0
 10
19.12409108001716
 20
-2.335387165757299
 30
0.0
 10
19.12055985714477
 20
-2.705799525962005
 30
0.0
 10
19.65676743757713
 20
-3.365492247693783
 30
0.0
 10
20.44700774635309
 20
-3.940521747875547
 30
0.0
 10
20.44700774635309
 20
-3.940521747875547
 30
0.0
 10
18.33738199411357
 20
-6.847407190942229
 30
0.0
 10
16.43943582759587
 20
-9.457971358583858
 30
0.0
  0
POLYLINE
  5
58
330
45
100
AcDbEntity
  8
Test
 62
   250
420
  2301728
370
     9
100
AcDb2dPolyline
 66
     1
 10
0.0
 20
0.0
 30
0.0
  0
VERTEX
  5
59
330
58
100
AcDbEntity
  8
Test
 62
   250
420
  2301728
370
     9
100
AcDbVertex
100
AcDb2dVertex
 10
13.50081244237133
 20
-8.454215684160967
 30
0.0
  0
VERTEX
  5
5A
330
58
100
AcDbEntity
  8
Test
 62
   250
420
  2301728
370
     9
100
AcDbVertex
100
AcDb2dVertex
 10
13.50081244237133
 20
-7.172992041819885
 30
0.0
  0
SEQEND
  5
5B
330
58
100
AcDbEntity
  8
Test
 62
   250
420
  2301728
370
     9
  0
ENDBLK
  5
48
330
45
100
AcDbEntity
  8
0
100
AcDbBlockEnd
  0
BLOCK
  5
5E
330
5C
100
AcDbEntity
  8
0
100
AcDbBlockBegin
  2
block 3
 70
     0
 10
0.0
 20
0.0
 30
0.0
  3
block 3
  1

  0
SPLINE
  5
60
330
5C
100
AcDbEntity
  8
Test
370
     0
100
AcDbSpline
210
0.0
220
0.0
230
1.0
 70
    11
 71
     3
 72
    23
 73
    19
 74
     0
 42
0.0000000001
 43
0.0000000001
 12
1.0
 22
0.0
 32
0.0
 13
1.0
 23
0.0
 33
0.0
 40
0.0
 40
0.0
 40
0.0
 40
0.0
 40
1.0
 40
1.0
 40
1.0
 40
2.0
 40
2.0
 40
2.0
 40
3.0
 40
3.0
 40
3.0
 40
4.0
 40
4.0
 40
4.0
 40
5.0
 40
5.0
 40
5.0
 40
6.0
 40
6.0
 40
6.0
 40
6.0
 10
11.70350612771649
 20
-5.656157767683183
 30
0.0
 10
11.85457356474469
 20
-6.13295898284176
 30
0.0
 10
11.6947211342291
 20
-6.446118162450971
 30
0.0
 10
11.22394883616971
 20
-6.595118542188026
 30
0.0
 10
10.75438232153016
 20
-6.743774412376557
 30
0.0
 10
10.44432372785767
 20
-6.579271102955877
 30
0.0
 10
10.29325629082946
 20
-6.102642142571562
 30
0.0
 10
10.29325629082946
 20
-6.102642142571562
 30
0.0
 10
9.543086748916313
 20
-3.733966741688036
 30
0.0
 10
9.543086748916313
 20
-3.733966741688036
 30
0.0
 10
9.391502547565318
 20
-3.255615233561096
 30
0.0
 10
9.550665958983862
 20
-2.942283799177624
 30
0.0
 10
10.02023247362341
 20
-2.793800183763356
 30
0.0
 10
10.4910047716828
 20
-2.644627549252037
 30
0.0
 10
10.8019246392266
 20
-2.808958603898455
 30
0.0
 10
10.95333658580333
 20
-3.287310112025395
 30
0.0
 10
10.95333658580333
 20
-3.287310112025395
 30
0.0
 10
11.70350612771649
 20
-5.656157767683183
 30
0.0
 10
11.70350612771649
 20
-5.656157767683183
 30
0.0
  0
SPLINE
  5
61
330
5C
100
AcDbEntity
  8
Test
370
     0
100
AcDbSpline
210
0.0
220
0.0
230
1.0
 70
    11
 71
     3
 72
    26
 73
    22
 74
     0
 42
0.0000000001
 43
0.0000000001
 12
1.0
 22
0.0
 32
0.0
 13
1.0
 23
0.0
 33
0.0
 40
0.0
 40
0.0
 40
0.0
 40
0.0
 40
1.0
 40
1.0
 40
1.0
 40
2.0
 40
2.0
 40
2.0
 40
3.0
 40
3.0
 40
3.0
 40
4.0
 40
4.0
 40
4.0
 40
5.0
 40
5.0
 40
5.0
 40
6.0
 40
6.0
 40
6.0
 40
7.0
 40
7.0
 40
7.0
 40
7.0
 10
10.58936224778669
 20
-3.402720810781264
 30
0.0
 10
10.51357014711119
 20
-3.163286674556401
 30
0.0
 10
10.36250271008299
 20
-3.079743109039092
 30
0.0
 10
10.13564317237928
 20
-3.151573349906551
 30
0.0
 10
10.13564317237928
 20
-3.151573349906551
 30
0.0
 10
10.13185356734551
 20
-3.152779133326389
 30
0.0
 10
10.13185356734551
 20
-3.152779133326389
 30
0.0
 10
9.906372067835907
 20
-3.224264864645323
 30
0.0
 10
9.831613495805986
 20
-3.379638671030091
 30
0.0
 10
9.907405596481482
 20
-3.618556042932167
 30
0.0
 10
9.907405596481482
 20
-3.618556042932167
 30
0.0
 10
10.65723062884611
 20
-5.986886934267168
 30
0.0
 10
10.65723062884611
 20
-5.986886934267168
 30
0.0
 10
10.73302272952161
 20
-6.226321070492031
 30
0.0
 10
10.88409016654981
 20
-6.30986463600934
 30
0.0
 10
11.11094970425351
 20
-6.238378904690405
 30
0.0
 10
11.33884277060279
 20
-6.166031899500159
 30
0.0
 10
11.41497938082681
 20
-6.010485838341129
 30
0.0
 10
11.33918728015131
 20
-5.771051702116266
 30
0.0
 10
11.33918728015131
 20
-5.771051702116266
 30
0.0
 10
10.58936224778669
 20
-3.402720810781264
 30
0.0
 10
10.58936224778669
 20
-3.402720810781264
 30
0.0
  0
HATCH
  5
62
330
5C
100
AcDbEntity
  8
Test
 62
   250
420
  2301728
100
AcDbHatch
 10
0.0
 20
0.0
 30
0.0
210
0.0
220
0.0
230
1.0
  2
SOLID
 70
     1
 71
     0
 91
        2
 92
        1
 93
        1
 72
     4
 94
        3
 73
     0
 74
     1
 95
       23
 96
       19
 40
0.0
 40
0.0
 40
0.0
 40
0.0
 40
1.0
 40
1.0
 40
1.0
 40
2.0
 40
2.0
 40
2.0
 40
3.0
 40
3.0
 40
3.0
 40
4.0
 40
4.0
 40
4.0
 40
5.0
 40
5.0
 40
5.0
 40
6.0
 40
6.0
 40
6.0
 40
6.0
 10
11.70350612771649
 20
-5.656157767683183
 10
11.85457356474469
 20
-6.13295898284176
 10
11.6947211342291
 20
-6.446118162450971
 10
11.22394883616971
 20
-6.595118542188026
 10
10.75438232153016
 20
-6.743774412376557
 10
10.44432372785767
 20
-6.579271102955877
 10
10.29325629082946
 20
-6.102642142571562
 10
10.29325629082946
 20
-6.102642142571562
 10
9.543086748916313
 20
-3.733966741688036
 10
9.543086748916313
 20
-3.733966741688036
 10
9.391502547565318
 20
-3.255615233561096
 10
9.550665958983862
 20
-2.942283799177624
 10
10.02023247362341
 20
-2.793800183763356
 10
10.4910047716828
 20
-2.644627549252037
 10
10.8019246392266
 20
-2.808958603898455
 10
10.95333658580333
 20
-3.287310112025395
 10
10.95333658580333
 20
-3.287310112025395
 10
11.70350612771649
 20
-5.656157767683183
 10
11.70350612771649
 20
-5.656157767683183
 97
        0
 97
        0
 92
        1
 93
        1
 72
     4
 94
        3
 73
     0
 74
     1
 95
       26
 96
       22
 40
0.0
 40
0.0
 40
0.0
 40
0.0
 40
1.0
 40
1.0
 40
1.0
 40
2.0
 40
2.0
 40
2.0
 40
3.0
 40
3.0
 40
3.0
 40
4.0
 40
4.0
 40
4.0
 40
5.0
 40
5.0
 40
5.0
 40
6.0
 40
6.0
 40
6.0
 40
7.0
 40
7.0
 40
7.0
 40
7.0
 10
10.58936224778669
 20
-3.402720810781264
 10
10.51357014711119
 20
-3.163286674556401
 10
10.36250271008299
 20
-3.079743109039092
 10
10.13564317237928
 20
-3.151573349906551
 10
10.13564317237928
 20
-3.151573349906551
 10
10.13185356734551
 20
-3.152779133326389
 10
10.13185356734551
 20
-3.152779133326389
 10
9.906372067835907
 20
-3.224264864645323
 10
9.831613495805986
 20
-3.379638671030091
 10
9.907405596481482
 20
-3.618556042932167
 10
9.907405596481482
 20
-3.618556042932167
 10
10.65723062884611
 20
-5.986886934267168
 10
10.65723062884611
 20
-5.986886934267168
 10
10.73302272952161
 20
-6.226321070492031
 10
10.88409016654981
 20
-6.30986463600934
 10
11.11094970425351
 20
-6.238378904690405
 10
11.33884277060279
 20
-6.166031899500159
 10
11.41497938082681
 20
-6.010485838341129
 10
11.33918728015131
 20
-5.771051702116266
 10
11.33918728015131
 20
-5.771051702116266
 10
10.58936224778669
 20
-3.402720810781264
 10
10.58936224778669
 20
-3.402720810781264
 97
        0
 97
        0
 75
     2
 76
     1
 98
        0
  0
POLYLINE
  5
63
330
5C
100
AcDbEntity
  8
Test
370
     0
100
AcDb2dPolyline
 66
     1
 10
0.0
 20
0.0
 30
0.0
  0
VERTEX
  5
64
330
63
100
AcDbEntity
  8
Test
370
     0
100
AcDbVertex
100
AcDb2dVertex
 10
17.0201497353283
 20
-2.954858397698786
 30
0.0
  0
VERTEX
  5
65
330
63
100
AcDbEntity
  8
Test
370
     0
100
AcDbVertex
100
AcDb2dVertex
 10
15.92702093785852
 20
-6.262494573087155
 30
0.0
  0
VERTEX
  5
66
330
63
100
AcDbEntity
  8
Test
370
     0
100
AcDbVertex
100
AcDb2dVertex
 10
16.4479193752283
 20
-6.434921602123909
 30
0.0
  0
VERTEX
  5
67
330
63
100
AcDbEntity
  8
Test
370
     0
100
AcDbVertex
100
AcDb2dVertex
 10
16.33113063827833
 20
-6.78821614413628
 30
0.0
  0
VERTEX
  5
68
330
63
100
AcDbEntity
  8
Test
370
     0
100
AcDbVertex
100
AcDb2dVertex
 10
14.92656520894197
 20
-6.323817272724601
 30
0.0
  0
VERTEX
  5
69
330
63
100
AcDbEntity
  8
Test
370
     0
100
AcDbVertex
100
AcDb2dVertex
 10
15.04335394589194
 20
-5.970350475937968
 30
0.0
  0
VERTEX
  5
6A
330
63
100
AcDbEntity
  8
Test
370
     0
100
AcDbVertex
100
AcDb2dVertex
 10
15.56597493100434
 20
-6.143122014523247
 30
0.0
  0
VERTEX
  5
6B
330
63
100
AcDbEntity
  8
Test
370
     0
100
AcDbVertex
100
AcDb2dVertex
 10
16.54265950107267
 20
-3.188608126372987
 30
0.0
  0
VERTEX
  5
6C
330
63
100
AcDbEntity
  8
Test
370
     0
100
AcDbVertex
100
AcDb2dVertex
 10
16.01969400641174
 20
-3.01600884256197
 30
0.0
  0
VERTEX
  5
6D
330
63
100
AcDbEntity
  8
Test
370
     0
100
AcDbVertex
100
AcDb2dVertex
 10
16.13648274336171
 20
-2.662542045775337
 30
0.0
  0
VERTEX
  5
6E
330
63
100
AcDbEntity
  8
Test
370
     0
100
AcDbVertex
100
AcDb2dVertex
 10
17.0201497353283
 20
-2.954858397698786
 30
0.0
  0
SEQEND
  5
6F
330
63
100
AcDbEntity
  8
Test
370
     0
  0
HATCH
  5
70
330
5C
100
AcDbEntity
  8
Test
 62
   250
420
  2301728
100
AcDbHatch
 10
0.0
 20
0.0
 30
0.0
210
0.0
220
0.0
230
1.0
  2
SOLID
 70
     1
 71
     0
 91
        1
 92
        1
 93
       10
 72
     1
 10
17.0201497353283
 20
-2.954858397698786
 11
15.92702093785852
 21
-6.262494573087155
 72
     1
 10
15.92702093785852
 20
-6.262494573087155
 11
16.4479193752283
 21
-6.434921602123909
 72
     1
 10
16.4479193752283
 20
-6.434921602123909
 11
16.33113063827833
 21
-6.78821614413628
 72
     1
 10
16.33113063827833
 20
-6.78821614413628
 11
14.92656520894197
 21
-6.323817272724601
 72
     1
 10
14.92656520894197
 20
-6.323817272724601
 11
15.04335394589194
 21
-5.970350475937968
 72
     1
 10
15.04335394589194
 20
-5.970350475937968
 11
15.56597493100434
 21
-6.143122014523247
 72
     1
 10
15.56597493100434
 20
-6.143122014523247
 11
16.54265950107267
 21
-3.188608126372987
 72
     1
 10
16.54265950107267
 20
-3.188608126372987
 11
16.01969400641174
 21
-3.01600884256197
 72
     1
 10
16.01969400641174
 20
-3.01600884256197
 11
16.13648274336171
 21
-2.662542045775337
 72
     1
 10
16.13648274336171
 20
-2.662542045775337
 11
17.0201497353283
 21
-2.954858397698786
 97
        0
 75
     2
 76
     1
 98
        0
  0
SPLINE
  5
71
330
5C
100
AcDbEntity
  8
Test
370
     0
100
AcDbSpline
210
0.0
220
0.0
230
1.0
 70
    11
 71
     3
 72
    62
 73
    58
 74
     0
 42
0.0000000001
 43
0.0000000001
 12
1.0
 22
0.0
 32
0.0
 13
1.0
 23
0.0
 33
0.0
 40
0.0
 40
0.0
 40
0.0
 40
0.0
 40
1.0
 40
1.0
 40
1.0
 40
2.0
 40
2.0
 40
2.0
 40
3.0
 40
3.0
 40
3.0
 40
4.0
 40
4.0
 40
4.0
 40
5.0
 40
5.0
 40
5.0
 40
6.0
 40
6.0
 40
6.0
 40
7.0
 40
7.0
 40
7.0
 40
8.0
 40
8.0
 40
8.0
 40
9.0
 40
9.0
 40
9.0
 40
10.0
 40
10.0
 40
10.0
 40
11.0
 40
11.0
 40
11.0
 40
12.0
 40
12.0
 40
12.0
 40
13.0
 40
13.0
 40
13.0
 40
14.0
 40
14.0
 40
14.0
 40
15.0
 40
15.0
 40
15.0
 40
16.0
 40
16.0
 40
16.0
 40
17.0
 40
17.0
 40
17.0
 40
18.0
 40
18.0
 40
18.0
 40
19.0
 40
19.0
 40
19.0
 40
19.0
 10
19.39623209150511
 20
-8.133870440674865
 30
0.0
 10
19.66563855845165
 20
-7.9399115648553
 30
0.0
 10
19.99636772503563
 20
-7.90873345071379
 30
0.0
 10
20.38841959125706
 20
-8.039647079153283
 30
0.0
 10
20.84627278124677
 20
-8.196054414183626
 30
0.0
 10
21.16322156588975
 20
-8.211729598641513
 30
0.0
 10
21.33995496428307
 20
-8.085811358655631
 30
0.0
 10
21.33995496428307
 20
-8.085811358655631
 30
0.0
 10
21.98659938686446
 20
-7.619862194275591
 30
0.0
 10
21.98659938686446
 20
-7.619862194275591
 30
0.0
 10
22.19158256823683
 20
-7.472412107506897
 30
0.0
 10
22.22465548489523
 20
-7.302913409632605
 30
0.0
 10
22.08650715593671
 20
-7.110677081555664
 30
0.0
 10
22.08650715593671
 20
-7.110677081555664
 30
0.0
 10
22.08409558909703
 20
-7.10757649561894
 30
0.0
 10
22.08409558909703
 20
-7.10757649561894
 30
0.0
 10
21.94525824104146
 20
-6.914823403219211
 30
0.0
 10
21.7733479763275
 20
-6.892258027790825
 30
0.0
 10
21.56870930450366
 20
-7.039363605010993
 30
0.0
 10
21.56870930450366
 20
-7.039363605010993
 30
0.0
 10
21.21110839313472
 20
-7.296884492533418
 30
0.0
 10
21.21110839313472
 20
-7.296884492533418
 30
0.0
 10
21.21110839313472
 20
-7.296884492533418
 30
0.0
 10
20.98752169614201
 20
-6.987170408409458
 30
0.0
 10
20.98752169614201
 20
-6.987170408409458
 30
0.0
 10
20.98752169614201
 20
-6.987170408409458
 30
0.0
 10
21.34546711705947
 20
-6.729305011338507
 30
0.0
 10
21.34546711705947
 20
-6.729305011338507
 30
0.0
 10
21.75336642251305
 20
-6.435782875995221
 30
0.0
 10
22.10166557607181
 20
-6.488148327371019
 30
0.0
 10
22.38933104909017
 20
-6.887951658434263
 30
0.0
 10
22.67803005075411
 20
-7.288444008594556
 30
0.0
 10
22.61808538931076
 20
-7.63570963350774
 30
0.0
 10
22.21018608385718
 20
-7.92957627839955
 30
0.0
 10
22.21018608385718
 20
-7.92957627839955
 30
0.0
 10
21.55217284617446
 20
-8.404138181492716
 30
0.0
 10
21.55217284617446
 20
-8.404138181492716
 30
0.0
 10
21.27759873600004
 20
-8.601542152797531
 30
0.0
 10
20.94307996438229
 20
-8.634959579004455
 30
0.0
 10
20.54896104086971
 20
-8.503529186242174
 30
0.0
 10
20.09076334133148
 20
-8.347466360760356
 30
0.0
 10
19.76761338481504
 20
-8.337131074304606
 30
0.0
 10
19.57985568086892
 20
-8.472523326874924
 30
0.0
 10
19.57985568086892
 20
-8.472523326874924
 30
0.0
 10
19.29839137972401
 20
-8.675267196181878
 30
0.0
 10
19.29839137972401
 20
-8.675267196181878
 30
0.0
 10
19.29839137972401
 20
-8.675267196181878
 30
0.0
 10
19.94021266862606
 20
-9.565479869570437
 30
0.0
 10
19.94021266862606
 20
-9.565479869570437
 30
0.0
 10
19.94021266862606
 20
-9.565479869570437
 30
0.0
 10
19.63635524682702
 20
-9.7842434328838
 30
0.0
 10
19.63635524682702
 20
-9.7842434328838
 30
0.0
 10
19.63635524682702
 20
-9.7842434328838
 30
0.0
 10
18.77163628002931
 20
-8.583972165822757
 30
0.0
 10
18.77163628002931
 20
-8.583972165822757
 30
0.0
 10
18.77163628002931
 20
-8.583972165822757
 30
0.0
 10
19.39623209150511
 20
-8.133870440674865
 30
0.0
 10
19.39623209150511
 20
-8.133870440674865
 30
0.0
  0
HATCH
  5
72
330
5C
100
AcDbEntity
  8
Test
 62
   250
420
  2301728
100
AcDbHatch
 10
0.0
 20
0.0
 30
0.0
210
0.0
220
0.0
230
1.0
  2
SOLID
 70
     1
 71
     0
 91
        1
 92
        1
 93
        1
 72
     4
 94
        3
 73
     0
 74
     1
 95
       62
 96
       58
 40
0.0
 40
0.0
 40
0.0
 40
0.0
 40
1.0
 40
1.0
 40
1.0
 40
2.0
 40
2.0
 40
2.0
 40
3.0
 40
3.0
 40
3.0
 40
4.0
 40
4.0
 40
4.0
 40
5.0
 40
5.0
 40
5.0
 40
6.0
 40
6.0
 40
6.0
 40
7.0
 40
7.0
 40
7.0
 40
8.0
 40
8.0
 40
8.0
 40
9.0
 40
9.0
 40
9.0
 40
10.0
 40
10.0
 40
10.0
 40
11.0
 40
11.0
 40
11.0
 40
12.0
 40
12.0
 40
12.0
 40
13.0
 40
13.0
 40
13.0
 40
14.0
 40
14.0
 40
14.0
 40
15.0
 40
15.0
 40
15.0
 40
16.0
 40
16.0
 40
16.0
 40
17.0
 40
17.0
 40
17.0
 40
18.0
 40
18.0
 40
18.0
 40
19.0
 40
19.0
 40
19.0
 40
19.0
 10
19.39623209150511
 20
-8.133870440674865
 10
19.66563855845165
 20
-7.9399115648553
 10
19.99636772503563
 20
-7.90873345071379
 10
20.38841959125706
 20
-8.039647079153283
 10
20.84627278124677
 20
-8.196054414183626
 10
21.16322156588975
 20
-8.211729598641513
 10
21.33995496428307
 20
-8.085811358655631
 10
21.33995496428307
 20
-8.085811358655631
 10
21.98659938686446
 20
-7.619862194275591
 10
21.98659938686446
 20
-7.619862194275591
 10
22.19158256823683
 20
-7.472412107506897
 10
22.22465548489523
 20
-7.302913409632605
 10
22.08650715593671
 20
-7.110677081555664
 10
22.08650715593671
 20
-7.110677081555664
 10
22.08409558909703
 20
-7.10757649561894
 10
22.08409558909703
 20
-7.10757649561894
 10
21.94525824104146
 20
-6.914823403219211
 10
21.7733479763275
 20
-6.892258027790825
 10
21.56870930450366
 20
-7.039363605010993
 10
21.56870930450366
 20
-7.039363605010993
 10
21.21110839313472
 20
-7.296884492533418
 10
21.21110839313472
 20
-7.296884492533418
 10
21.21110839313472
 20
-7.296884492533418
 10
20.98752169614201
 20
-6.987170408409458
 10
20.98752169614201
 20
-6.987170408409458
 10
20.98752169614201
 20
-6.987170408409458
 10
21.34546711705947
 20
-6.729305011338507
 10
21.34546711705947
 20
-6.729305011338507
 10
21.75336642251305
 20
-6.435782875995221
 10
22.10166557607181
 20
-6.488148327371019
 10
22.38933104909017
 20
-6.887951658434263
 10
22.67803005075411
 20
-7.288444008594556
 10
22.61808538931076
 20
-7.63570963350774
 10
22.21018608385718
 20
-7.92957627839955
 10
22.21018608385718
 20
-7.92957627839955
 10
21.55217284617446
 20
-8.404138181492716
 10
21.55217284617446
 20
-8.404138181492716
 10
21.27759873600004
 20
-8.601542152797531
 10
20.94307996438229
 20
-8.634959579004455
 10
20.54896104086971
 20
-8.503529186242174
 10
20.09076334133148
 20
-8.347466360760356
 10
19.76761338481504
 20
-8.337131074304606
 10
19.57985568086892
 20
-8.472523326874924
 10
19.57985568086892
 20
-8.472523326874924
 10
19.29839137972401
 20
-8.675267196181878
 10
19.29839137972401
 20
-8.675267196181878
 10
19.29839137972401
 20
-8.675267196181878
 10
19.94021266862606
 20
-9.565479869570437
 10
19.94021266862606
 20
-9.565479869570437
 10
19.94021266862606
 20
-9.565479869570437
 10
19.63635524682702
 20
-9.7842434328838
 10
19.63635524682702
 20
-9.7842434328838
 10
19.63635524682702
 20
-9.7842434328838
 10
18.77163628002931
 20
-8.583972165822757
 10
18.77163628002931
 20
-8.583972165822757
 10
18.77163628002931
 20
-8.583972165822757
 10
19.39623209150511
 20
-8.133870440674865
 10
19.39623209150511
 20
-8.133870440674865
 97
        0
 97
        0
 75
     2
 76
     1
 98
        0
  0
SPLINE
  5
73
330
5C
100
AcDbEntity
  8
Test
370
     0
100
AcDbSpline
210
0.0
220
0.0
230
1.0
 70
    11
 71
     3
 72
    80
 73
    76
 74
     0
 42
0.0000000001
 43
0.0000000001
 12
1.0
 22
0.0
 32
0.0
 13
1.0
 23
0.0
 33
0.0
 40
0.0
 40
0.0
 40
0.0
 40
0.0
 40
1.0
 40
1.0
 40
1.0
 40
2.0
 40
2.0
 40
2.0
 40
3.0
 40
3.0
 40
3.0
 40
4.0
 40
4.0
 40
4.0
 40
5.0
 40
5.0
 40
5.0
 40
6.0
 40
6.0
 40
6.0
 40
7.0
 40
7.0
 40
7.0
 40
8.0
 40
8.0
 40
8.0
 40
9.0
 40
9.0
 40
9.0
 40
10.0
 40
10.0
 40
10.0
 40
11.0
 40
11.0
 40
11.0
 40
12.0
 40
12.0
 40
12.0
 40
13.0
 40
13.0
 40
13.0
 40
14.0
 40
14.0
 40
14.0
 40
15.0
 40
15.0
 40
15.0
 40
16.0
 40
16.0
 40
16.0
 40
17.0
 40
17.0
 40
17.0
 40
18.0
 40
18.0
 40
18.0
 40
19.0
 40
19.0
 40
19.0
 40
20.0
 40
20.0
 40
20.0
 40
21.0
 40
21.0
 40
21.0
 40
22.0
 40
22.0
 40
22.0
 40
23.0
 40
23.0
 40
23.0
 40
24.0
 40
24.0
 40
24.0
 40
25.0
 40
25.0
 40
25.0
 40
25.0
 10
22.67320691707475
 20
-13.40004339942777
 30
0.0
 10
22.71144747696103
 20
-13.65635850353036
 30
0.0
 10
22.85683050643857
 20
-13.78313801738755
 30
0.0
 10
23.10866698641033
 20
-13.78003743145083
 30
0.0
 10
23.10866698641033
 20
-13.78003743145083
 30
0.0
 10
23.72602809736711
 20
-13.78279350783902
 30
0.0
 10
23.72602809736711
 20
-13.78279350783902
 30
0.0
 10
23.97683104869329
 20
-13.7838270364846
 30
0.0
 10
24.10292154345344
 20
-13.66566026134053
 30
0.0
 10
24.10361056255049
 20
-13.42777641808403
 30
0.0
 10
24.10464409119606
 20
-13.18868679140769
 30
0.0
 10
23.97993163463002
 20
-13.068797468521
 30
0.0
 10
23.72912868330383
 20
-13.06776393987542
 30
0.0
 10
23.72912868330383
 20
-13.06776393987542
 30
0.0
 10
23.28402234660955
 20
-13.06569688258427
 30
0.0
 10
23.28402234660955
 20
-13.06569688258427
 30
0.0
 10
23.28402234660955
 20
-13.06569688258427
 30
0.0
 10
23.28574489435218
 20
-12.68363579327006
 30
0.0
 10
23.28574489435218
 20
-12.68363579327006
 30
0.0
 10
23.28574489435218
 20
-12.68363579327006
 30
0.0
 10
23.73085123104645
 20
-12.68553059578695
 30
0.0
 10
23.73085123104645
 20
-12.68553059578695
 30
0.0
 10
24.23107909550473
 20
-12.68794216262663
 30
0.0
 10
24.48084851818534
 20
-12.93581678279035
 30
0.0
 10
24.48015949908829
 20
-13.42932671105239
 30
0.0
 10
24.47774793224862
 20
-13.92197536544312
 30
0.0
 10
24.22591145227686
 20
-14.16726616399291
 30
0.0
 10
23.72430554962448
 20
-14.16519910670176
 30
0.0
 10
23.72430554962448
 20
-14.16519910670176
 30
0.0
 10
23.08765190395031
 20
-14.16209852076503
 30
0.0
 10
23.08765190395031
 20
-14.16209852076503
 30
0.0
 10
22.83030327120215
 20
-14.16106499211946
 30
0.0
 10
22.62635361847536
 20
-14.01258137670519
 30
0.0
 10
22.47614745531846
 20
-13.7163031649737
 30
0.0
 10
22.32456325396747
 20
-14.01085882896256
 30
0.0
 10
22.13508300227873
 20
-14.15796440618273
 30
0.0
 10
21.90770670025224
 20
-14.15693087753716
 30
0.0
 10
21.90770670025224
 20
-14.15693087753716
 30
0.0
 10
21.2397026856623
 20
-14.15383029160043
 30
0.0
 10
21.2397026856623
 20
-14.15383029160043
 30
0.0
 10
20.73809678300992
 20
-14.15210774385781
 30
0.0
 10
20.48832736032931
 20
-13.90474988801687
 30
0.0
 10
20.49039441762046
 20
-13.41210123362614
 30
0.0
 10
20.49418402265423
 20
-12.91824679581558
 30
0.0
 10
20.74567599307747
 20
-12.67226697816874
 30
0.0
 10
21.24624836708427
 20
-12.67485079978268
 30
0.0
 10
21.24624836708427
 20
-12.67485079978268
 30
0.0
 10
21.69101019423003
 20
-12.6765733475253
 30
0.0
 10
21.69101019423003
 20
-12.6765733475253
 30
0.0
 10
21.69101019423003
 20
-12.6765733475253
 30
0.0
 10
21.6892876464874
 20
-13.05897894638803
 30
0.0
 10
21.6892876464874
 20
-13.05897894638803
 30
0.0
 10
21.6892876464874
 20
-13.05897894638803
 30
0.0
 10
21.24452581934165
 20
-13.05691188909688
 30
0.0
 10
21.24452581934165
 20
-13.05691188909688
 30
0.0
 10
20.99372286801546
 20
-13.05553385090278
 30
0.0
 10
20.86763237325532
 20
-13.17456189991817
 30
0.0
 10
20.86659884460974
 20
-13.41382378136877
 30
0.0
 10
20.86556531596417
 20
-13.65153536985101
 30
0.0
 10
20.99062228207874
 20
-13.77073567364065
 30
0.0
 10
21.24142523340492
 20
-13.77176920228622
 30
0.0
 10
21.24142523340492
 20
-13.77176920228622
 30
0.0
 10
21.90942924799486
 20
-13.77521429777148
 30
0.0
 10
21.90942924799486
 20
-13.77521429777148
 30
0.0
 10
22.15368651789908
 20
-13.78003743145083
 30
0.0
 10
22.28322210814448
 20
-13.65222438894806
 30
0.0
 10
22.297346999634
 20
-13.39246418936022
 30
0.0
 10
22.297346999634
 20
-13.39246418936022
 30
0.0
 10
22.29803601873105
 20
-13.20849609044788
 30
0.0
 10
22.29803601873105
 20
-13.20849609044788
 30
0.0
 10
22.29803601873105
 20
-13.20849609044788
 30
0.0
 10
22.67424044572033
 20
-13.2102186381905
 30
0.0
 10
22.67424044572033
 20
-13.2102186381905
 30
0.0
 10
22.67424044572033
 20
-13.2102186381905
 30
0.0
 10
22.67320691707475
 20
-13.40004339942777
 30
0.0
 10
22.67320691707475
 20
-13.40004339942777
 30
0.0
  0
HATCH
  5
74
330
5C
100
AcDbEntity
  8
Test
 62
   250
420
  2301728
100
AcDbHatch
 10
0.0
 20
0.0
 30
0.0
210
0.0
220
0.0
230
1.0
  2
SOLID
 70
     1
 71
     0
 91
        1
 92
        1
 93
        1
 72
     4
 94
        3
 73
     0
 74
     1
 95
       80
 96
       76
 40
0.0
 40
0.0
 40
0.0
 40
0.0
 40
1.0
 40
1.0
 40
1.0
 40
2.0
 40
2.0
 40
2.0
 40
3.0
 40
3.0
 40
3.0
 40
4.0
 40
4.0
 40
4.0
 40
5.0
 40
5.0
 40
5.0
 40
6.0
 40
6.0
 40
6.0
 40
7.0
 40
7.0
 40
7.0
 40
8.0
 40
8.0
 40
8.0
 40
9.0
 40
9.0
 40
9.0
 40
10.0
 40
10.0
 40
10.0
 40
11.0
 40
11.0
 40
11.0
 40
12.0
 40
12.0
 40
12.0
 40
13.0
 40
13.0
 40
13.0
 40
14.0
 40
14.0
 40
14.0
 40
15.0
 40
15.0
 40
15.0
 40
16.0
 40
16.0
 40
16.0
 40
17.0
 40
17.0
 40
17.0
 40
18.0
 40
18.0
 40
18.0
 40
19.0
 40
19.0
 40
19.0
 40
20.0
 40
20.0
 40
20.0
 40
21.0
 40
21.0
 40
21.0
 40
22.0
 40
22.0
 40
22.0
 40
23.0
 40
23.0
 40
23.0
 40
24.0
 40
24.0
 40
24.0
 40
25.0
 40
25.0
 40
25.0
 40
25.0
 10
22.67320691707475
 20
-13.40004339942777
 10
22.71144747696103
 20
-13.65635850353036
 10
22.85683050643857
 20
-13.78313801738755
 10
23.10866698641033
 20
-13.78003743145083
 10
23.10866698641033
 20
-13.78003743145083
 10
23.72602809736711
 20
-13.78279350783902
 10
23.72602809736711
 20
-13.78279350783902
 10
23.97683104869329
 20
-13.7838270364846
 10
24.10292154345344
 20
-13.66566026134053
 10
24.10361056255049
 20
-13.42777641808403
 10
24.10464409119606
 20
-13.18868679140769
 10
23.97993163463002
 20
-13.068797468521
 10
23.72912868330383
 20
-13.06776393987542
 10
23.72912868330383
 20
-13.06776393987542
 10
23.28402234660955
 20
-13.06569688258427
 10
23.28402234660955
 20
-13.06569688258427
 10
23.28402234660955
 20
-13.06569688258427
 10
23.28574489435218
 20
-12.68363579327006
 10
23.28574489435218
 20
-12.68363579327006
 10
23.28574489435218
 20
-12.68363579327006
 10
23.73085123104645
 20
-12.68553059578695
 10
23.73085123104645
 20
-12.68553059578695
 10
24.23107909550473
 20
-12.68794216262663
 10
24.48084851818534
 20
-12.93581678279035
 10
24.48015949908829
 20
-13.42932671105239
 10
24.47774793224862
 20
-13.92197536544312
 10
24.22591145227686
 20
-14.16726616399291
 10
23.72430554962448
 20
-14.16519910670176
 10
23.72430554962448
 20
-14.16519910670176
 10
23.08765190395031
 20
-14.16209852076503
 10
23.08765190395031
 20
-14.16209852076503
 10
22.83030327120215
 20
-14.16106499211946
 10
22.62635361847536
 20
-14.01258137670519
 10
22.47614745531846
 20
-13.7163031649737
 10
22.32456325396747
 20
-14.01085882896256
 10
22.13508300227873
 20
-14.15796440618273
 10
21.90770670025224
 20
-14.15693087753716
 10
21.90770670025224
 20
-14.15693087753716
 10
21.2397026856623
 20
-14.15383029160043
 10
21.2397026856623
 20
-14.15383029160043
 10
20.73809678300992
 20
-14.15210774385781
 10
20.48832736032931
 20
-13.90474988801687
 10
20.49039441762046
 20
-13.41210123362614
 10
20.49418402265423
 20
-12.91824679581558
 10
20.74567599307747
 20
-12.67226697816874
 10
21.24624836708427
 20
-12.67485079978268
 10
21.24624836708427
 20
-12.67485079978268
 10
21.69101019423003
 20
-12.6765733475253
 10
21.69101019423003
 20
-12.6765733475253
 10
21.69101019423003
 20
-12.6765733475253
 10
21.6892876464874
 20
-13.05897894638803
 10
21.6892876464874
 20
-13.05897894638803
 10
21.6892876464874
 20
-13.05897894638803
 10
21.24452581934165
 20
-13.05691188909688
 10
21.24452581934165
 20
-13.05691188909688
 10
20.99372286801546
 20
-13.05553385090278
 10
20.86763237325532
 20
-13.17456189991817
 10
20.86659884460974
 20
-13.41382378136877
 10
20.86556531596417
 20
-13.65153536985101
 10
20.99062228207874
 20
-13.77073567364065
 10
21.24142523340492
 20
-13.77176920228622
 10
21.24142523340492
 20
-13.77176920228622
 10
21.90942924799486
 20
-13.77521429777148
 10
21.90942924799486
 20
-13.77521429777148
 10
22.15368651789908
 20
-13.78003743145083
 10
22.28322210814448
 20
-13.65222438894806
 10
22.297346999634
 20
-13.39246418936022
 10
22.297346999634
 20
-13.39246418936022
 10
22.29803601873105
 20
-13.20849609044788
 10
22.29803601873105
 20
-13.20849609044788
 10
22.29803601873105
 20
-13.20849609044788
 10
22.67424044572033
 20
-13.2102186381905
 10
22.67424044572033
 20
-13.2102186381905
 10
22.67424044572033
 20
-13.2102186381905
 10
22.67320691707475
 20
-13.40004339942777
 10
22.67320691707475
 20
-13.40004339942777
 97
        0
 97
        0
 75
     2
 76
     1
 98
        0
  0
POLYLINE
  5
75
330
5C
100
AcDbEntity
  8
Test
370
     0
100
AcDb2dPolyline
 66
     1
 10
0.0
 20
0.0
 30
0.0
  0
VERTEX
  5
76
330
75
100
AcDbEntity
  8
Test
370
     0
100
AcDbVertex
100
AcDb2dVertex
 10
21.86567653533219
 20
-20.45353189592829
 30
0.0
  0
VERTEX
  5
77
330
75
100
AcDbEntity
  8
Test
370
     0
100
AcDbVertex
100
AcDb2dVertex
 10
19.86235351065941
 20
-18.97730848049873
 30
0.0
  0
VERTEX
  5
78
330
75
100
AcDbEntity
  8
Test
370
     0
100
AcDbVertex
100
AcDb2dVertex
 10
19.72868380583172
 20
-19.15920952211992
 30
0.0
  0
VERTEX
  5
79
330
75
100
AcDbEntity
  8
Test
370
     0
100
AcDbVertex
100
AcDb2dVertex
 10
19.42896049861498
 20
-18.93803439196688
 30
0.0
  0
VERTEX
  5
7A
330
75
100
AcDbEntity
  8
Test
370
     0
100
AcDbVertex
100
AcDb2dVertex
 10
19.56228569389415
 20
-18.75682236944274
 30
0.0
  0
VERTEX
  5
7B
330
75
100
AcDbEntity
  8
Test
370
     0
100
AcDbVertex
100
AcDb2dVertex
 10
18.76130099357356
 20
-18.16633300327092
 30
0.0
  0
VERTEX
  5
7C
330
75
100
AcDbEntity
  8
Test
370
     0
100
AcDbVertex
100
AcDb2dVertex
 10
18.98764376695448
 20
-17.85903048598663
 30
0.0
  0
VERTEX
  5
7D
330
75
100
AcDbEntity
  8
Test
370
     0
100
AcDbVertex
100
AcDb2dVertex
 10
19.78931748637212
 20
-18.44917534260993
 30
0.0
  0
VERTEX
  5
7E
330
75
100
AcDbEntity
  8
Test
370
     0
100
AcDbVertex
100
AcDb2dVertex
 10
20.49452853220276
 20
-17.491783307259
 30
0.0
  0
VERTEX
  5
7F
330
75
100
AcDbEntity
  8
Test
370
     0
100
AcDbVertex
100
AcDb2dVertex
 10
20.81009927865164
 20
-17.72398274296484
 30
0.0
  0
VERTEX
  5
80
330
75
100
AcDbEntity
  8
Test
370
     0
100
AcDbVertex
100
AcDb2dVertex
 10
22.20846353611455
 20
-19.98809949587103
 30
0.0
  0
VERTEX
  5
81
330
75
100
AcDbEntity
  8
Test
370
     0
100
AcDbVertex
100
AcDb2dVertex
 10
21.86567653533219
 20
-20.45353189592829
 30
0.0
  0
SEQEND
  5
82
330
75
100
AcDbEntity
  8
Test
370
     0
  0
POLYLINE
  5
83
330
5C
100
AcDbEntity
  8
Test
370
     0
100
AcDb2dPolyline
 66
     1
 10
0.0
 20
0.0
 30
0.0
  0
VERTEX
  5
84
330
83
100
AcDbEntity
  8
Test
370
     0
100
AcDbVertex
100
AcDb2dVertex
 10
20.6013264922455
 20
-17.97409667519398
 30
0.0
  0
VERTEX
  5
85
330
83
100
AcDbEntity
  8
Test
370
     0
100
AcDbVertex
100
AcDb2dVertex
 10
20.08869628404033
 20
-18.66966145366592
 30
0.0
  0
VERTEX
  5
86
330
83
100
AcDbEntity
  8
Test
370
     0
100
AcDbVertex
100
AcDb2dVertex
 10
21.85258517248824
 20
-19.96949598025068
 30
0.0
  0
VERTEX
  5
87
330
83
100
AcDbEntity
  8
Test
370
     0
100
AcDbVertex
100
AcDb2dVertex
 10
20.6013264922455
 20
-17.97409667519398
 30
0.0
  0
SEQEND
  5
88
330
83
100
AcDbEntity
  8
Test
370
     0
  0
HATCH
  5
89
330
5C
100
AcDbEntity
  8
Test
 62
   250
420
  2301728
100
AcDbHatch
 10
0.0
 20
0.0
 30
0.0
210
0.0
220
0.0
230
1.0
  2
SOLID
 70
     1
 71
     0
 91
        2
 92
        1
 93
       11
 72
     1
 10
21.86567653533219
 20
-20.45353189592829
 11
19.86235351065941
 21
-18.97730848049873
 72
     1
 10
19.86235351065941
 20
-18.97730848049873
 11
19.72868380583172
 21
-19.15920952211992
 72
     1
 10
19.72868380583172
 20
-19.15920952211992
 11
19.42896049861498
 21
-18.93803439196688
 72
     1
 10
19.42896049861498
 20
-18.93803439196688
 11
19.56228569389415
 21
-18.75682236944274
 72
     1
 10
19.56228569389415
 20
-18.75682236944274
 11
18.76130099357356
 21
-18.16633300327092
 72
     1
 10
18.76130099357356
 20
-18.16633300327092
 11
18.98764376695448
 21
-17.85903048598663
 72
     1
 10
18.98764376695448
 20
-17.85903048598663
 11
19.78931748637212
 21
-18.44917534260993
 72
     1
 10
19.78931748637212
 20
-18.44917534260993
 11
20.49452853220276
 21
-17.491783307259
 72
     1
 10
20.49452853220276
 20
-17.491783307259
 11
20.81009927865164
 21
-17.72398274296484
 72
     1
 10
20.81009927865164
 20
-17.72398274296484
 11
22.20846353611455
 21
-19.98809949587103
 72
     1
 10
22.20846353611455
 20
-19.98809949587103
 11
21.86567653533219
 21
-20.45353189592829
 97
        0
 92
        1
 93
        3
 72
     1
 10
20.6013264922455
 20
-17.97409667519398
 11
20.08869628404033
 21
-18.66966145366592
 72
     1
 10
20.08869628404033
 20
-18.66966145366592
 11
21.85258517248824
 21
-19.96949598025068
 72
     1
 10
21.85258517248824
 20
-19.96949598025068
 11
20.6013264922455
 21
-17.97409667519398
 97
        0
 75
     2
 76
     1
 98
        0
  0
SPLINE
  5
8A
330
5C
100
AcDbEntity
  8
Test
370
     0
100
AcDbSpline
210
0.0
220
0.0
230
1.0
 70
    11
 71
     3
 72
    77
 73
    73
 74
     0
 42
0.0000000001
 43
0.0000000001
 12
1.0
 22
0.0
 32
0.0
 13
1.0
 23
0.0
 33
0.0
 40
0.0
 40
0.0
 40
0.0
 40
0.0
 40
1.0
 40
1.0
 40
1.0
 40
2.0
 40
2.0
 40
2.0
 40
3.0
 40
3.0
 40
3.0
 40
4.0
 40
4.0
 40
4.0
 40
5.0
 40
5.0
 40
5.0
 40
6.0
 40
6.0
 40
6.0
 40
7.0
 40
7.0
 40
7.0
 40
8.0
 40
8.0
 40
8.0
 40
9.0
 40
9.0
 40
9.0
 40
10.0
 40
10.0
 40
10.0
 40
11.0
 40
11.0
 40
11.0
 40
12.0
 40
12.0
 40
12.0
 40
13.0
 40
13.0
 40
13.0
 40
14.0
 40
14.0
 40
14.0
 40
15.0
 40
15.0
 40
15.0
 40
16.0
 40
16.0
 40
16.0
 40
17.0
 40
17.0
 40
17.0
 40
18.0
 40
18.0
 40
18.0
 40
19.0
 40
19.0
 40
19.0
 40
20.0
 40
20.0
 40
20.0
 40
21.0
 40
21.0
 40
21.0
 40
22.0
 40
22.0
 40
22.0
 40
23.0
 40
23.0
 40
23.0
 40
24.0
 40
24.0
 40
24.0
 40
24.0
 10
15.75648871133866
 20
-22.07754990767506
 30
0.0
 10
15.81298827729675
 20
-22.25669487290805
 30
0.0
 10
15.8963595880398
 20
-22.35143499875242
 30
0.0
 10
16.00625813401927
 20
-22.3621147947567
 30
0.0
 10
16.05414496126424
 20
-22.3703830239213
 30
0.0
 10
16.12097981367809
 20
-22.36108126611112
 30
0.0
 10
16.20710720080934
 20
-22.33386501177765
 30
0.0
 10
16.22708875462379
 20
-22.3276638399042
 30
0.0
 10
16.24603677979266
 20
-22.3207736489337
 30
0.0
 10
16.26429578586448
 20
-22.3138834579632
 30
0.0
 10
16.42759331186533
 20
-22.25428330606837
 30
0.0
 10
16.49683973111885
 20
-22.14472926963743
 30
0.0
 10
16.471346024528
 20
-21.98591036776741
 30
0.0
 10
16.471346024528
 20
-21.98591036776741
 30
0.0
 10
16.45136447071355
 20
-21.91597492941684
 30
0.0
 10
16.45136447071355
 20
-21.91597492941684
 30
0.0
 10
16.45136447071355
 20
-21.91597492941684
 30
0.0
 10
16.81585557305298
 20
-21.80125324975802
 30
0.0
 10
16.81585557305298
 20
-21.80125324975802
 30
0.0
 10
16.81585557305298
 20
-21.80125324975802
 30
0.0
 10
17.33124185764636
 20
-23.69950086213068
 30
0.0
 10
17.33124185764636
 20
-23.69950086213068
 30
0.0
 10
17.33124185764636
 20
-23.69950086213068
 30
0.0
 10
15.99902343350024
 20
-24.11911349223411
 30
0.0
 10
15.99902343350024
 20
-24.11911349223411
 30
0.0
 10
15.99902343350024
 20
-24.11911349223411
 30
0.0
 10
15.8867133206811
 20
-23.76220159996223
 30
0.0
 10
15.8867133206811
 20
-23.76220159996223
 30
0.0
 10
15.8867133206811
 20
-23.76220159996223
 30
0.0
 10
16.86753200533173
 20
-23.45283202538679
 30
0.0
 10
16.86753200533173
 20
-23.45283202538679
 30
0.0
 10
16.86753200533173
 20
-23.45283202538679
 30
0.0
 10
16.5554063543681
 20
-22.28563367498415
 30
0.0
 10
16.5554063543681
 20
-22.28563367498415
 30
0.0
 10
16.4465413370342
 20
-22.52265624436934
 30
0.0
 10
16.31218261310946
 20
-22.67045084068656
 30
0.0
 10
16.15267469214239
 20
-22.72936197348433
 30
0.0
 10
16.13751627200729
 20
-22.73349608806663
 30
0.0
 10
16.11856824683841
 20
-22.73763020264893
 30
0.0
 10
16.09479708799019
 20
-22.74073078858565
 30
0.0
 10
15.92357584237327
 20
-22.77966036756898
 30
0.0
 10
15.77750379379868
 20
-22.75451117052665
 30
0.0
 10
15.65623643271789
 20
-22.66528319745868
 30
0.0
 10
15.55563964454859
 20
-22.59018011588023
 30
0.0
 10
15.46744520012619
 20
-22.43239474265579
 30
0.0
 10
15.39199760899922
 20
-22.19192707778535
 30
0.0
 10
15.39199760899922
 20
-22.19192707778535
 30
0.0
 10
15.04542100318309
 20
-21.09156357979655
 30
0.0
 10
15.04542100318309
 20
-21.09156357979655
 30
0.0
 10
14.89487033047767
 20
-20.6137288359924
 30
0.0
 10
15.05541178009031
 20
-20.30125867548024
 30
0.0
 10
15.52601182337544
 20
-20.15243055051745
 30
0.0
 10
15.99592284756352
 20
-20.00463595420023
 30
0.0
 10
16.30598144123601
 20
-20.16931151839517
 30
0.0
 10
16.4561876043929
 20
-20.64645724310228
 30
0.0
 10
16.4561876043929
 20
-20.64645724310228
 30
0.0
 10
16.57056477450319
 20
-21.00922579769908
 30
0.0
 10
16.57056477450319
 20
-21.00922579769908
 30
0.0
 10
16.57056477450319
 20
-21.00922579769908
 30
0.0
 10
16.20607367216376
 20
-21.12429198690643
 30
0.0
 10
16.20607367216376
 20
-21.12429198690643
 30
0.0
 10
16.20607367216376
 20
-21.12429198690643
 30
0.0
 10
16.09204101160199
 20
-20.76152343230962
 30
0.0
 10
16.09204101160199
 20
-20.76152343230962
 30
0.0
 10
16.01659342047502
 20
-20.52208929608476
 30
0.0
 10
15.86535372867255
 20
-20.43837347579318
 30
0.0
 10
15.63866644574311
 20
-20.51003146188638
 30
0.0
 10
15.41060112461957
 20
-20.5820339575281
 30
0.0
 10
15.33412000484703
 20
-20.73706325436435
 30
0.0
 10
15.409567595974
 20
-20.97649739058921
 30
0.0
 10
15.409567595974
 20
-20.97649739058921
 30
0.0
 10
15.75648871133866
 20
-22.07754990767506
 30
0.0
 10
15.75648871133866
 20
-22.07754990767506
 30
0.0
  0
HATCH
  5
8B
330
5C
100
AcDbEntity
  8
Test
 62
   250
420
  2301728
100
AcDbHatch
 10
0.0
 20
0.0
 30
0.0
210
0.0
220
0.0
230
1.0
  2
SOLID
 70
     1
 71
     0
 91
        1
 92
        1
 93
        1
 72
     4
 94
        3
 73
     0
 74
     1
 95
       77
 96
       73
 40
0.0
 40
0.0
 40
0.0
 40
0.0
 40
1.0
 40
1.0
 40
1.0
 40
2.0
 40
2.0
 40
2.0
 40
3.0
 40
3.0
 40
3.0
 40
4.0
 40
4.0
 40
4.0
 40
5.0
 40
5.0
 40
5.0
 40
6.0
 40
6.0
 40
6.0
 40
7.0
 40
7.0
 40
7.0
 40
8.0
 40
8.0
 40
8.0
 40
9.0
 40
9.0
 40
9.0
 40
10.0
 40
10.0
 40
10.0
 40
11.0
 40
11.0
 40
11.0
 40
12.0
 40
12.0
 40
12.0
 40
13.0
 40
13.0
 40
13.0
 40
14.0
 40
14.0
 40
14.0
 40
15.0
 40
15.0
 40
15.0
 40
16.0
 40
16.0
 40
16.0
 40
17.0
 40
17.0
 40
17.0
 40
18.0
 40
18.0
 40
18.0
 40
19.0
 40
19.0
 40
19.0
 40
20.0
 40
20.0
 40
20.0
 40
21.0
 40
21.0
 40
21.0
 40
22.0
 40
22.0
 40
22.0
 40
23.0
 40
23.0
 40
23.0
 40
24.0
 40
24.0
 40
24.0
 40
24.0
 10
15.75648871133866
 20
-22.07754990767506
 10
15.81298827729675
 20
-22.25669487290805
 10
15.8963595880398
 20
-22.35143499875242
 10
16.00625813401927
 20
-22.3621147947567
 10
16.05414496126424
 20
-22.3703830239213
 10
16.12097981367809
 20
-22.36108126611112
 10
16.20710720080934
 20
-22.33386501177765
 10
16.22708875462379
 20
-22.3276638399042
 10
16.24603677979266
 20
-22.3207736489337
 10
16.26429578586448
 20
-22.3138834579632
 10
16.42759331186533
 20
-22.25428330606837
 10
16.49683973111885
 20
-22.14472926963743
 10
16.471346024528
 20
-21.98591036776741
 10
16.471346024528
 20
-21.98591036776741
 10
16.45136447071355
 20
-21.91597492941684
 10
16.45136447071355
 20
-21.91597492941684
 10
16.45136447071355
 20
-21.91597492941684
 10
16.81585557305298
 20
-21.80125324975802
 10
16.81585557305298
 20
-21.80125324975802
 10
16.81585557305298
 20
-21.80125324975802
 10
17.33124185764636
 20
-23.69950086213068
 10
17.33124185764636
 20
-23.69950086213068
 10
17.33124185764636
 20
-23.69950086213068
 10
15.99902343350024
 20
-24.11911349223411
 10
15.99902343350024
 20
-24.11911349223411
 10
15.99902343350024
 20
-24.11911349223411
 10
15.8867133206811
 20
-23.76220159996223
 10
15.8867133206811
 20
-23.76220159996223
 10
15.8867133206811
 20
-23.76220159996223
 10
16.86753200533173
 20
-23.45283202538679
 10
16.86753200533173
 20
-23.45283202538679
 10
16.86753200533173
 20
-23.45283202538679
 10
16.5554063543681
 20
-22.28563367498415
 10
16.5554063543681
 20
-22.28563367498415
 10
16.4465413370342
 20
-22.52265624436934
 10
16.31218261310946
 20
-22.67045084068656
 10
16.15267469214239
 20
-22.72936197348433
 10
16.13751627200729
 20
-22.73349608806663
 10
16.11856824683841
 20
-22.73763020264893
 10
16.09479708799019
 20
-22.74073078858565
 10
15.92357584237327
 20
-22.77966036756898
 10
15.77750379379868
 20
-22.75451117052665
 10
15.65623643271789
 20
-22.66528319745868
 10
15.55563964454859
 20
-22.59018011588023
 10
15.46744520012619
 20
-22.43239474265579
 10
15.39199760899922
 20
-22.19192707778535
 10
15.39199760899922
 20
-22.19192707778535
 10
15.04542100318309
 20
-21.09156357979655
 10
15.04542100318309
 20
-21.09156357979655
 10
14.89487033047767
 20
-20.6137288359924
 10
15.05541178009031
 20
-20.30125867548024
 10
15.52601182337544
 20
-20.15243055051745
 10
15.99592284756352
 20
-20.00463595420023
 10
16.30598144123601
 20
-20.16931151839517
 10
16.4561876043929
 20
-20.64645724310228
 10
16.4561876043929
 20
-20.64645724310228
 10
16.57056477450319
 20
-21.00922579769908
 10
16.57056477450319
 20
-21.00922579769908
 10
16.57056477450319
 20
-21.00922579769908
 10
16.20607367216376
 20
-21.12429198690643
 10
16.20607367216376
 20
-21.12429198690643
 10
16.20607367216376
 20
-21.12429198690643
 10
16.09204101160199
 20
-20.76152343230962
 10
16.09204101160199
 20
-20.76152343230962
 10
16.01659342047502
 20
-20.52208929608476
 10
15.86535372867255
 20
-20.43837347579318
 10
15.63866644574311
 20
-20.51003146188638
 10
15.41060112461957
 20
-20.5820339575281
 10
15.33412000484703
 20
-20.73706325436435
 10
15.409567595974
 20
-20.97649739058921
 10
15.409567595974
 20
-20.97649739058921
 10
15.75648871133866
 20
-22.07754990767506
 10
15.75648871133866
 20
-22.07754990767506
 97
        0
 97
        0
 75
     2
 76
     1
 98
        0
  0
SPLINE
  5
8C
330
5C
100
AcDbEntity
  8
Test
370
     0
100
AcDbSpline
210
0.0
220
0.0
230
1.0
 70
    11
 71
     3
 72
    56
 73
    52
 74
     0
 42
0.0000000001
 43
0.0000000001
 12
1.0
 22
0.0
 32
0.0
 13
1.0
 23
0.0
 33
0.0
 40
0.0
 40
0.0
 40
0.0
 40
0.0
 40
1.0
 40
1.0
 40
1.0
 40
2.0
 40
2.0
 40
2.0
 40
3.0
 40
3.0
 40
3.0
 40
4.0
 40
4.0
 40
4.0
 40
5.0
 40
5.0
 40
5.0
 40
6.0
 40
6.0
 40
6.0
 40
7.0
 40
7.0
 40
7.0
 40
8.0
 40
8.0
 40
8.0
 40
9.0
 40
9.0
 40
9.0
 40
10.0
 40
10.0
 40
10.0
 40
11.0
 40
11.0
 40
11.0
 40
12.0
 40
12.0
 40
12.0
 40
13.0
 40
13.0
 40
13.0
 40
14.0
 40
14.0
 40
14.0
 40
15.0
 40
15.0
 40
15.0
 40
16.0
 40
16.0
 40
16.0
 40
17.0
 40
17.0
 40
17.0
 40
17.0
 10
10.19283175743443
 20
-20.59753688721173
 30
0.0
 10
10.35130614975592
 20
-20.1228027293443
 30
0.0
 10
10.6646375841394
 20
-19.96363931792576
 30
0.0
 10
11.13299831535911
 20
-20.1200466529561
 30
0.0
 10
11.59998100838473
 20
-20.27610947843792
 30
0.0
 10
11.75449354089818
 20
-20.5916802248868
 30
0.0
 10
11.59619140335095
 20
-21.06606987320571
 30
0.0
 10
11.59619140335095
 20
-21.06606987320571
 30
0.0
 10
10.80898708497137
 20
-23.42251518511659
 30
0.0
 10
10.80898708497137
 20
-23.42251518511659
 30
0.0
 10
10.65016818310135
 20
-23.89862738117812
 30
0.0
 10
10.33700900349214
 20
-24.05847981169372
 30
0.0
 10
9.870198565240784
 20
-23.9024169862119
 30
0.0
 10
9.401493324472543
 20
-23.74600965118156
 30
0.0
 10
9.246808537184826
 20
-23.43009439518415
 30
0.0
 10
9.405799693829106
 20
-22.95398219912262
 30
0.0
 10
9.405799693829106
 20
-22.95398219912262
 30
0.0
 10
9.546015080078774
 20
-22.53402505947066
 30
0.0
 10
9.546015080078774
 20
-22.53402505947066
 30
0.0
 10
9.546015080078774
 20
-22.53402505947066
 30
0.0
 10
9.908439125127057
 20
-22.65529242055145
 30
0.0
 10
9.908439125127057
 20
-22.65529242055145
 30
0.0
 10
9.908439125127057
 20
-22.65529242055145
 30
0.0
 10
9.768223738877388
 20
-23.07524956020341
 30
0.0
 10
9.768223738877388
 20
-23.07524956020341
 30
0.0
 10
9.688642033168117
 20
-23.31296114868565
 30
0.0
 10
9.761678057455415
 20
-23.46936848371599
 30
0.0
 10
9.987331811739278
 20
-23.54481607484296
 30
0.0
 10
9.987331811739278
 20
-23.54481607484296
 30
0.0
 10
9.990949161998792
 20
-23.54619411303706
 30
0.0
 10
9.990949161998792
 20
-23.54619411303706
 30
0.0
 10
10.21522487808856
 20
-23.62129719461551
 30
0.0
 10
10.36715358898807
 20
-23.53964843161509
 30
0.0
 10
10.44656303992308
 20
-23.30159233358432
 30
0.0
 10
10.44656303992308
 20
-23.30159233358432
 30
0.0
 10
10.83206922472254
 20
-22.14782985557416
 30
0.0
 10
10.83206922472254
 20
-22.14782985557416
 30
0.0
 10
10.58074950907356
 20
-22.256005853811
 30
0.0
 10
10.39195827648187
 20
-22.28976778956645
 30
0.0
 10
10.26569552694747
 20
-22.24739311509787
 30
0.0
 10
10.24089083945367
 20
-22.2394693954818
 30
0.0
 10
10.2159138971856
 20
-22.22947861857457
 30
0.0
 10
10.19076470014328
 20
-22.21845431302178
 30
0.0
 10
10.04245333950328
 20
-22.15093044151088
 30
0.0
 10
9.94185655133398
 20
-22.05791286340913
 30
0.0
 10
9.888974335635396
 20
-21.94009059781359
 30
0.0
 10
9.833336043548611
 20
-21.81813421763574
 30
0.0
 10
9.84918348278076
 20
-21.6258978895588
 30
0.0
 10
9.93686116288037
 20
-21.36303710403424
 30
0.0
 10
9.93686116288037
 20
-21.36303710403424
 30
0.0
 10
10.19283175743443
 20
-20.59753688721173
 30
0.0
 10
10.19283175743443
 20
-20.59753688721173
 30
0.0
  0
SPLINE
  5
8D
330
5C
100
AcDbEntity
  8
Test
370
     0
100
AcDbSpline
210
0.0
220
0.0
230
1.0
 70
    11
 71
     3
 72
    29
 73
    25
 74
     0
 42
0.0000000001
 43
0.0000000001
 12
1.0
 22
0.0
 32
0.0
 13
1.0
 23
0.0
 33
0.0
 40
0.0
 40
0.0
 40
0.0
 40
0.0
 40
1.0
 40
1.0
 40
1.0
 40
2.0
 40
2.0
 40
2.0
 40
3.0
 40
3.0
 40
3.0
 40
4.0
 40
4.0
 40
4.0
 40
5.0
 40
5.0
 40
5.0
 40
6.0
 40
6.0
 40
6.0
 40
7.0
 40
7.0
 40
7.0
 40
8.0
 40
8.0
 40
8.0
 40
8.0
 10
11.23342284875415
 20
-20.94514702167344
 30
0.0
 10
11.31300455446342
 20
-20.7074354331912
 30
0.0
 10
11.23996853017612
 20
-20.5503390790638
 30
0.0
 10
11.01448703066652
 20
-20.47489148793683
 30
0.0
 10
10.78779974773708
 20
-20.39978840635839
 30
0.0
 10
10.63466525341772
 20
-20.48040364071323
 30
0.0
 10
10.55508354770845
 20
-20.71811522919547
 30
0.0
 10
10.55508354770845
 20
-20.71811522919547
 30
0.0
 10
10.29945746270291
 20
-21.48430446511503
 30
0.0
 10
10.29945746270291
 20
-21.48430446511503
 30
0.0
 10
10.23951280125957
 20
-21.66379393989655
 30
0.0
 10
10.25088161636089
 20
-21.79022894420522
 30
0.0
 10
10.33408067232967
 20
-21.86326496849252
 30
0.0
 10
10.37008192015054
 20
-21.89633788515092
 30
0.0
 10
10.43002658159388
 20
-21.92665472542112
 30
0.0
 10
10.51425916620824
 20
-21.95455999885164
 30
0.0
 10
10.53406846524843
 20
-21.96145018982214
 30
0.0
 10
10.55336099996583
 20
-21.96730685214706
 30
0.0
 10
10.57248127990896
 20
-21.97178547627789
 30
0.0
 10
10.76575113663148
 20
-22.02862955178451
 30
0.0
 10
10.90097113442754
 20
-21.94112412645917
 30
0.0
 10
10.97779676374861
 20
-21.71064723849595
 30
0.0
 10
10.97779676374861
 20
-21.71064723849595
 30
0.0
 10
11.23342284875415
 20
-20.94514702167344
 30
0.0
 10
11.23342284875415
 20
-20.94514702167344
 30
0.0
  0
HATCH
  5
8E
330
5C
100
AcDbEntity
  8
Test
 62
   250
420
  2301728
100
AcDbHatch
 10
0.0
 20
0.0
 30
0.0
210
0.0
220
0.0
230
1.0
  2
SOLID
 70
     1
 71
     0
 91
        2
 92
        1
 93
        1
 72
     4
 94
        3
 73
     0
 74
     1
 95
       56
 96
       52
 40
0.0
 40
0.0
 40
0.0
 40
0.0
 40
1.0
 40
1.0
 40
1.0
 40
2.0
 40
2.0
 40
2.0
 40
3.0
 40
3.0
 40
3.0
 40
4.0
 40
4.0
 40
4.0
 40
5.0
 40
5.0
 40
5.0
 40
6.0
 40
6.0
 40
6.0
 40
7.0
 40
7.0
 40
7.0
 40
8.0
 40
8.0
 40
8.0
 40
9.0
 40
9.0
 40
9.0
 40
10.0
 40
10.0
 40
10.0
 40
11.0
 40
11.0
 40
11.0
 40
12.0
 40
12.0
 40
12.0
 40
13.0
 40
13.0
 40
13.0
 40
14.0
 40
14.0
 40
14.0
 40
15.0
 40
15.0
 40
15.0
 40
16.0
 40
16.0
 40
16.0
 40
17.0
 40
17.0
 40
17.0
 40
17.0
 10
10.19283175743443
 20
-20.59753688721173
 10
10.35130614975592
 20
-20.1228027293443
 10
10.6646375841394
 20
-19.96363931792576
 10
11.13299831535911
 20
-20.1200466529561
 10
11.59998100838473
 20
-20.27610947843792
 10
11.75449354089818
 20
-20.5916802248868
 10
11.59619140335095
 20
-21.06606987320571
 10
11.59619140335095
 20
-21.06606987320571
 10
10.80898708497137
 20
-23.42251518511659
 10
10.80898708497137
 20
-23.42251518511659
 10
10.65016818310135
 20
-23.89862738117812
 10
10.33700900349214
 20
-24.05847981169372
 10
9.870198565240784
 20
-23.9024169862119
 10
9.401493324472543
 20
-23.74600965118156
 10
9.246808537184826
 20
-23.43009439518415
 10
9.405799693829106
 20
-22.95398219912262
 10
9.405799693829106
 20
-22.95398219912262
 10
9.546015080078774
 20
-22.53402505947066
 10
9.546015080078774
 20
-22.53402505947066
 10
9.546015080078774
 20
-22.53402505947066
 10
9.908439125127057
 20
-22.65529242055145
 10
9.908439125127057
 20
-22.65529242055145
 10
9.908439125127057
 20
-22.65529242055145
 10
9.768223738877388
 20
-23.07524956020341
 10
9.768223738877388
 20
-23.07524956020341
 10
9.688642033168117
 20
-23.31296114868565
 10
9.761678057455415
 20
-23.46936848371599
 10
9.987331811739278
 20
-23.54481607484296
 10
9.987331811739278
 20
-23.54481607484296
 10
9.990949161998792
 20
-23.54619411303706
 10
9.990949161998792
 20
-23.54619411303706
 10
10.21522487808856
 20
-23.62129719461551
 10
10.36715358898807
 20
-23.53964843161509
 10
10.44656303992308
 20
-23.30159233358432
 10
10.44656303992308
 20
-23.30159233358432
 10
10.83206922472254
 20
-22.14782985557416
 10
10.83206922472254
 20
-22.14782985557416
 10
10.58074950907356
 20
-22.256005853811
 10
10.39195827648187
 20
-22.28976778956645
 10
10.26569552694747
 20
-22.24739311509787
 10
10.24089083945367
 20
-22.2394693954818
 10
10.2159138971856
 20
-22.22947861857457
 10
10.19076470014328
 20
-22.21845431302178
 10
10.04245333950328
 20
-22.15093044151088
 10
9.94185655133398
 20
-22.05791286340913
 10
9.888974335635396
 20
-21.94009059781359
 10
9.833336043548611
 20
-21.81813421763574
 10
9.84918348278076
 20
-21.6258978895588
 10
9.93686116288037
 20
-21.36303710403424
 10
9.93686116288037
 20
-21.36303710403424
 10
10.19283175743443
 20
-20.59753688721173
 10
10.19283175743443
 20
-20.59753688721173
 97
        0
 97
        0
 92
        1
 93
        1
 72
     4
 94
        3
 73
     0
 74
     1
 95
       29
 96
       25
 40
0.0
 40
0.0
 40
0.0
 40
0.0
 40
1.0
 40
1.0
 40
1.0
 40
2.0
 40
2.0
 40
2.0
 40
3.0
 40
3.0
 40
3.0
 40
4.0
 40
4.0
 40
4.0
 40
5.0
 40
5.0
 40
5.0
 40
6.0
 40
6.0
 40
6.0
 40
7.0
 40
7.0
 40
7.0
 40
8.0
 40
8.0
 40
8.0
 40
8.0
 10
11.23342284875415
 20
-20.94514702167344
 10
11.31300455446342
 20
-20.7074354331912
 10
11.23996853017612
 20
-20.5503390790638
 10
11.01448703066652
 20
-20.47489148793683
 10
10.78779974773708
 20
-20.39978840635839
 10
10.63466525341772
 20
-20.48040364071323
 10
10.55508354770845
 20
-20.71811522919547
 10
10.55508354770845
 20
-20.71811522919547
 10
10.29945746270291
 20
-21.48430446511503
 10
10.29945746270291
 20
-21.48430446511503
 10
10.23951280125957
 20
-21.66379393989655
 10
10.25088161636089
 20
-21.79022894420522
 10
10.33408067232967
 20
-21.86326496849252
 10
10.37008192015054
 20
-21.89633788515092
 10
10.43002658159388
 20
-21.92665472542112
 10
10.51425916620824
 20
-21.95455999885164
 10
10.53406846524843
 20
-21.96145018982214
 10
10.55336099996583
 20
-21.96730685214706
 10
10.57248127990896
 20
-21.97178547627789
 10
10.76575113663148
 20
-22.02862955178451
 10
10.90097113442754
 20
-21.94112412645917
 10
10.97779676374861
 20
-21.71064723849595
 10
10.97779676374861
 20
-21.71064723849595
 10
11.23342284875415
 20
-20.94514702167344
 10
11.23342284875415
 20
-20.94514702167344
 97
        0
 97
        0
 75
     2
 76
     1
 98
        0
  0
POLYLINE
  5
8F
330
5C
100
AcDbEntity
  8
Test
370
     0
100
AcDb2dPolyline
 66
     1
 10
0.0
 20
0.0
 30
0.0
  0
VERTEX
  5
90
330
8F
100
AcDbEntity
  8
Test
370
     0
100
AcDbVertex
100
AcDb2dVertex
 10
5.149556476577194
 20
-20.1889485626611
 30
0.0
  0
VERTEX
  5
91
330
8F
100
AcDbEntity
  8
Test
370
     0
100
AcDbVertex
100
AcDb2dVertex
 10
4.846732583423734
 20
-20.40564506868331
 30
0.0
  0
VERTEX
  5
92
330
8F
100
AcDbEntity
  8
Test
370
     0
100
AcDbVertex
100
AcDb2dVertex
 10
3.957036674357963
 20
-19.1629991271537
 30
0.0
  0
VERTEX
  5
93
330
8F
100
AcDbEntity
  8
Test
370
     0
100
AcDbVertex
100
AcDb2dVertex
 10
4.204050020650376
 20
-18.98592121921185
 30
0.0
  0
VERTEX
  5
94
330
8F
100
AcDbEntity
  8
Test
370
     0
100
AcDbVertex
100
AcDb2dVertex
 10
7.558194985089618
 20
-17.56860893658007
 30
0.0
  0
VERTEX
  5
95
330
8F
100
AcDbEntity
  8
Test
370
     0
100
AcDbVertex
100
AcDb2dVertex
 10
7.786260306213157
 20
-17.88728026896568
 30
0.0
  0
VERTEX
  5
96
330
8F
100
AcDbEntity
  8
Test
370
     0
100
AcDbVertex
100
AcDb2dVertex
 10
4.498261175090713
 20
-19.27944335455514
 30
0.0
  0
VERTEX
  5
97
330
8F
100
AcDbEntity
  8
Test
370
     0
100
AcDbVertex
100
AcDb2dVertex
 10
5.149556476577194
 20
-20.1889485626611
 30
0.0
  0
SEQEND
  5
98
330
8F
100
AcDbEntity
  8
Test
370
     0
  0
HATCH
  5
99
330
5C
100
AcDbEntity
  8
Test
 62
   250
420
  2301728
100
AcDbHatch
 10
0.0
 20
0.0
 30
0.0
210
0.0
220
0.0
230
1.0
  2
SOLID
 70
     1
 71
     0
 91
        1
 92
        1
 93
        7
 72
     1
 10
5.149556476577194
 20
-20.1889485626611
 11
4.846732583423734
 21
-20.40564506868331
 72
     1
 10
4.846732583423734
 20
-20.40564506868331
 11
3.957036674357963
 21
-19.1629991271537
 72
     1
 10
3.957036674357963
 20
-19.1629991271537
 11
4.204050020650376
 21
-18.98592121921185
 72
     1
 10
4.204050020650376
 20
-18.98592121921185
 11
7.558194985089618
 21
-17.56860893658007
 72
     1
 10
7.558194985089618
 20
-17.56860893658007
 11
7.786260306213157
 21
-17.88728026896568
 72
     1
 10
7.786260306213157
 20
-17.88728026896568
 11
4.498261175090713
 21
-19.27944335455514
 72
     1
 10
4.498261175090713
 20
-19.27944335455514
 11
5.149556476577194
 21
-20.1889485626611
 97
        0
 75
     2
 76
     1
 98
        0
  0
SPLINE
  5
9A
330
5C
100
AcDbEntity
  8
Test
370
     0
100
AcDbSpline
210
0.0
220
0.0
230
1.0
 70
    11
 71
     3
 72
    41
 73
    37
 74
     0
 42
0.0000000001
 43
0.0000000001
 12
1.0
 22
0.0
 32
0.0
 13
1.0
 23
0.0
 33
0.0
 40
0.0
 40
0.0
 40
0.0
 40
0.0
 40
1.0
 40
1.0
 40
1.0
 40
2.0
 40
2.0
 40
2.0
 40
3.0
 40
3.0
 40
3.0
 40
4.0
 40
4.0
 40
4.0
 40
5.0
 40
5.0
 40
5.0
 40
6.0
 40
6.0
 40
6.0
 40
7.0
 40
7.0
 40
7.0
 40
8.0
 40
8.0
 40
8.0
 40
9.0
 40
9.0
 40
9.0
 40
10.0
 40
10.0
 40
10.0
 40
11.0
 40
11.0
 40
11.0
 40
12.0
 40
12.0
 40
12.0
 40
12.0
 10
3.028583441083132
 20
-14.02567273954914
 30
0.0
 10
2.528355576624856
 20
-14.02222764406389
 30
0.0
 10
2.279447427815555
 20
-13.77314724048033
 30
0.0
 10
2.281686739880967
 20
-13.27946505744402
 30
0.0
 10
2.285476344914742
 20
-12.78733316737608
 30
0.0
 10
2.537829589209293
 20
-12.54273138792334
 30
0.0
 10
3.039607746635931
 20
-12.54652099295712
 30
0.0
 10
3.039607746635931
 20
-12.54652099295712
 30
0.0
 10
3.723459200458024
 20
-12.55134412663647
 30
0.0
 10
3.723459200458024
 20
-12.55134412663647
 30
0.0
 10
3.949457464290413
 20
-12.55289441960483
 30
0.0
 10
4.13721516823653
 20
-12.70206705411615
 30
0.0
 10
4.286387802747847
 20
-12.99834526584764
 30
0.0
 10
4.439005532744416
 20
-12.70447862095583
 30
0.0
 10
4.628830293981681
 20
-12.55806206283271
 30
0.0
 10
4.856034341233908
 20
-12.55978461057533
 30
0.0
 10
4.856034341233908
 20
-12.55978461057533
 30
0.0
 10
5.524038355823852
 20
-12.56495225380321
 30
0.0
 10
5.524038355823852
 20
-12.56495225380321
 30
0.0
 10
6.025816513250491
 20
-12.56839734928846
 30
0.0
 10
6.274552407285529
 20
-12.81609971467792
 30
0.0
 10
6.271107311800279
 20
-13.30892062384291
 30
0.0
 10
6.266284178120929
 20
-13.80277506165347
 30
0.0
 10
6.013414169503591
 20
-14.04772135065474
 30
0.0
 10
5.513358559819578
 20
-14.04427625516949
 30
0.0
 10
5.513358559819578
 20
-14.04427625516949
 30
0.0
 10
4.845010035681109
 20
-14.03910861194161
 30
0.0
 10
4.845010035681109
 20
-14.03910861194161
 30
0.0
 10
4.617805988428882
 20
-14.03773057374751
 30
0.0
 10
4.430048284482766
 20
-13.88890244878472
 30
0.0
 10
4.282081433391285
 20
-13.5941745300216
 30
0.0
 10
4.12825791997488
 20
-13.88683539149357
 30
0.0
 10
3.938433158737614
 20
-14.03221842097111
 30
0.0
 10
3.712434894905225
 20
-14.03084038277701
 30
0.0
 10
3.712434894905225
 20
-14.03084038277701
 30
0.0
 10
3.028583441083132
 20
-14.02567273954914
 30
0.0
 10
3.028583441083132
 20
-14.02567273954914
 30
0.0
  0
SPLINE
  5
9B
330
5C
100
AcDbEntity
  8
Test
370
     0
100
AcDbSpline
210
0.0
220
0.0
230
1.0
 70
    11
 71
     3
 72
    29
 73
    25
 74
     0
 42
0.0000000001
 43
0.0000000001
 12
1.0
 22
0.0
 32
0.0
 13
1.0
 23
0.0
 33
0.0
 40
0.0
 40
0.0
 40
0.0
 40
0.0
 40
1.0
 40
1.0
 40
1.0
 40
2.0
 40
2.0
 40
2.0
 40
3.0
 40
3.0
 40
3.0
 40
4.0
 40
4.0
 40
4.0
 40
5.0
 40
5.0
 40
5.0
 40
6.0
 40
6.0
 40
6.0
 40
7.0
 40
7.0
 40
7.0
 40
8.0
 40
8.0
 40
8.0
 40
8.0
 10
3.71553548084195
 20
-13.64860703868854
 30
0.0
 10
3.963582355779938
 20
-13.65429144623921
 30
0.0
 10
4.092256672154019
 20
-13.55472818671548
 30
0.0
 10
4.101730684738456
 20
-13.34974500534312
 30
0.0
 10
4.102936468158294
 20
-13.32907443243162
 30
0.0
 10
4.103969996803869
 20
-13.30685356655176
 30
0.0
 10
4.103969996803869
 20
-13.28308240770354
 30
0.0
 10
4.104831270675181
 20
-13.19695502057229
 30
0.0
 10
4.096046277187794
 20
-13.13012016815844
 30
0.0
 10
4.078131780664495
 20
-13.08309461478478
 30
0.0
 10
4.031967501162147
 20
-12.98111978842139
 30
0.0
 10
3.91259494259824
 20
-12.930993649111
 30
0.0
 10
3.720703124069825
 20
-12.93357747072494
 30
0.0
 10
3.720703124069825
 20
-12.93357747072494
 30
0.0
 10
3.036679415473469
 20
-12.92840982749706
 30
0.0
 10
3.036679415473469
 20
-12.92840982749706
 30
0.0
 10
2.785876464147281
 20
-12.92668727975444
 30
0.0
 10
2.659613714612874
 20
-13.04450954534998
 30
0.0
 10
2.657891166870249
 20
-13.28222113383222
 30
0.0
 10
2.656168619127625
 20
-13.52131076050856
 30
0.0
 10
2.780708820919406
 20
-13.64206135726657
 30
0.0
 10
3.031511772245594
 20
-13.64378390500919
 30
0.0
 10
3.031511772245594
 20
-13.64378390500919
 30
0.0
 10
3.71553548084195
 20
-13.64860703868854
 30
0.0
 10
3.71553548084195
 20
-13.64860703868854
 30
0.0
  0
SPLINE
  5
9C
330
5C
100
AcDbEntity
  8
Test
370
     0
100
AcDbSpline
210
0.0
220
0.0
230
1.0
 70
    11
 71
     3
 72
    23
 73
    19
 74
     0
 42
0.0000000001
 43
0.0000000001
 12
1.0
 22
0.0
 32
0.0
 13
1.0
 23
0.0
 33
0.0
 40
0.0
 40
0.0
 40
0.0
 40
0.0
 40
1.0
 40
1.0
 40
1.0
 40
2.0
 40
2.0
 40
2.0
 40
3.0
 40
3.0
 40
3.0
 40
4.0
 40
4.0
 40
4.0
 40
5.0
 40
5.0
 40
5.0
 40
6.0
 40
6.0
 40
6.0
 40
6.0
 10
5.516114636207777
 20
-13.66187065630676
 30
0.0
 10
5.766917587533965
 20
-13.6639377135979
 30
0.0
 10
5.893180337068372
 20
-13.54525417413105
 30
0.0
 10
5.894902884810997
 20
-13.30616454745471
 30
0.0
 10
5.896625432553622
 20
-13.06862521374673
 30
0.0
 10
5.77208523076184
 20
-12.94856363608578
 30
0.0
 10
5.521454534209915
 20
-12.94684108834315
 30
0.0
 10
5.521454534209915
 20
-12.94684108834315
 30
0.0
 10
4.857240124653746
 20
-12.94167344511528
 30
0.0
 10
4.857240124653746
 20
-12.94167344511528
 30
0.0
 10
4.599891491905583
 20
-12.93616129233888
 30
0.0
 10
4.470183646885927
 20
-13.05450032225721
 30
0.0
 10
4.468461099143302
 20
-13.29772406351585
 30
0.0
 10
4.466566296626414
 20
-13.53922525703186
 30
0.0
 10
4.594379339129183
 20
-13.65928683469282
 30
0.0
 10
4.851727971877346
 20
-13.6570475226274
 30
0.0
 10
4.851727971877346
 20
-13.6570475226274
 30
0.0
 10
5.516114636207777
 20
-13.66187065630676
 30
0.0
 10
5.516114636207777
 20
-13.66187065630676
 30
0.0
  0
HATCH
  5
9D
330
5C
100
AcDbEntity
  8
Test
 62
   250
420
  2301728
100
AcDbHatch
 10
0.0
 20
0.0
 30
0.0
210
0.0
220
0.0
230
1.0
  2
SOLID
 70
     1
 71
     0
 91
        3
 92
        1
 93
        1
 72
     4
 94
        3
 73
     0
 74
     1
 95
       41
 96
       37
 40
0.0
 40
0.0
 40
0.0
 40
0.0
 40
1.0
 40
1.0
 40
1.0
 40
2.0
 40
2.0
 40
2.0
 40
3.0
 40
3.0
 40
3.0
 40
4.0
 40
4.0
 40
4.0
 40
5.0
 40
5.0
 40
5.0
 40
6.0
 40
6.0
 40
6.0
 40
7.0
 40
7.0
 40
7.0
 40
8.0
 40
8.0
 40
8.0
 40
9.0
 40
9.0
 40
9.0
 40
10.0
 40
10.0
 40
10.0
 40
11.0
 40
11.0
 40
11.0
 40
12.0
 40
12.0
 40
12.0
 40
12.0
 10
3.028583441083132
 20
-14.02567273954914
 10
2.528355576624856
 20
-14.02222764406389
 10
2.279447427815555
 20
-13.77314724048033
 10
2.281686739880967
 20
-13.27946505744402
 10
2.285476344914742
 20
-12.78733316737608
 10
2.537829589209293
 20
-12.54273138792334
 10
3.039607746635931
 20
-12.54652099295712
 10
3.039607746635931
 20
-12.54652099295712
 10
3.723459200458024
 20
-12.55134412663647
 10
3.723459200458024
 20
-12.55134412663647
 10
3.949457464290413
 20
-12.55289441960483
 10
4.13721516823653
 20
-12.70206705411615
 10
4.286387802747847
 20
-12.99834526584764
 10
4.439005532744416
 20
-12.70447862095583
 10
4.628830293981681
 20
-12.55806206283271
 10
4.856034341233908
 20
-12.55978461057533
 10
4.856034341233908
 20
-12.55978461057533
 10
5.524038355823852
 20
-12.56495225380321
 10
5.524038355823852
 20
-12.56495225380321
 10
6.025816513250491
 20
-12.56839734928846
 10
6.274552407285529
 20
-12.81609971467792
 10
6.271107311800279
 20
-13.30892062384291
 10
6.266284178120929
 20
-13.80277506165347
 10
6.013414169503591
 20
-14.04772135065474
 10
5.513358559819578
 20
-14.04427625516949
 10
5.513358559819578
 20
-14.04427625516949
 10
4.845010035681109
 20
-14.03910861194161
 10
4.845010035681109
 20
-14.03910861194161
 10
4.617805988428882
 20
-14.03773057374751
 10
4.430048284482766
 20
-13.88890244878472
 10
4.282081433391285
 20
-13.5941745300216
 10
4.12825791997488
 20
-13.88683539149357
 10
3.938433158737614
 20
-14.03221842097111
 10
3.712434894905225
 20
-14.03084038277701
 10
3.712434894905225
 20
-14.03084038277701
 10
3.028583441083132
 20
-14.02567273954914
 10
3.028583441083132
 20
-14.02567273954914
 97
        0
 97
        0
 92
        1
 93
        1
 72
     4
 94
        3
 73
     0
 74
     1
 95
       29
 96
       25
 40
0.0
 40
0.0
 40
0.0
 40
0.0
 40
1.0
 40
1.0
 40
1.0
 40
2.0
 40
2.0
 40
2.0
 40
3.0
 40
3.0
 40
3.0
 40
4.0
 40
4.0
 40
4.0
 40
5.0
 40
5.0
 40
5.0
 40
6.0
 40
6.0
 40
6.0
 40
7.0
 40
7.0
 40
7.0
 40
8.0
 40
8.0
 40
8.0
 40
8.0
 10
3.71553548084195
 20
-13.64860703868854
 10
3.963582355779938
 20
-13.65429144623921
 10
4.092256672154019
 20
-13.55472818671548
 10
4.101730684738456
 20
-13.34974500534312
 10
4.102936468158294
 20
-13.32907443243162
 10
4.103969996803869
 20
-13.30685356655176
 10
4.103969996803869
 20
-13.28308240770354
 10
4.104831270675181
 20
-13.19695502057229
 10
4.096046277187794
 20
-13.13012016815844
 10
4.078131780664495
 20
-13.08309461478478
 10
4.031967501162147
 20
-12.98111978842139
 10
3.91259494259824
 20
-12.930993649111
 10
3.720703124069825
 20
-12.93357747072494
 10
3.720703124069825
 20
-12.93357747072494
 10
3.036679415473469
 20
-12.92840982749706
 10
3.036679415473469
 20
-12.92840982749706
 10
2.785876464147281
 20
-12.92668727975444
 10
2.659613714612874
 20
-13.04450954534998
 10
2.657891166870249
 20
-13.28222113383222
 10
2.656168619127625
 20
-13.52131076050856
 10
2.780708820919406
 20
-13.64206135726657
 10
3.031511772245594
 20
-13.64378390500919
 10
3.031511772245594
 20
-13.64378390500919
 10
3.71553548084195
 20
-13.64860703868854
 10
3.71553548084195
 20
-13.64860703868854
 97
        0
 97
        0
 92
        1
 93
        1
 72
     4
 94
        3
 73
     0
 74
     1
 95
       23
 96
       19
 40
0.0
 40
0.0
 40
0.0
 40
0.0
 40
1.0
 40
1.0
 40
1.0
 40
2.0
 40
2.0
 40
2.0
 40
3.0
 40
3.0
 40
3.0
 40
4.0
 40
4.0
 40
4.0
 40
5.0
 40
5.0
 40
5.0
 40
6.0
 40
6.0
 40
6.0
 40
6.0
 10
5.516114636207777
 20
-13.66187065630676
 10
5.766917587533965
 20
-13.6639377135979
 10
5.893180337068372
 20
-13.54525417413105
 10
5.894902884810997
 20
-13.30616454745471
 10
5.896625432553622
 20
-13.06862521374673
 10
5.77208523076184
 20
-12.94856363608578
 10
5.521454534209915
 20
-12.94684108834315
 10
5.521454534209915
 20
-12.94684108834315
 10
4.857240124653746
 20
-12.94167344511528
 10
4.857240124653746
 20
-12.94167344511528
 10
4.599891491905583
 20
-12.93616129233888
 10
4.470183646885927
 20
-13.05450032225721
 10
4.468461099143302
 20
-13.29772406351585
 10
4.466566296626414
 20
-13.53922525703186
 10
4.594379339129183
 20
-13.65928683469282
 10
4.851727971877346
 20
-13.6570475226274
 10
4.851727971877346
 20
-13.6570475226274
 10
5.516114636207777
 20
-13.66187065630676
 10
5.516114636207777
 20
-13.66187065630676
 97
        0
 97
        0
 75
     2
 76
     1
 98
        0
  0
SPLINE
  5
9E
330
5C
100
AcDbEntity
  8
Test
370
     0
100
AcDbSpline
210
0.0
220
0.0
230
1.0
 70
    11
 71
     3
 72
    56
 73
    52
 74
     0
 42
0.0000000001
 43
0.0000000001
 12
1.0
 22
0.0
 32
0.0
 13
1.0
 23
0.0
 33
0.0
 40
0.0
 40
0.0
 40
0.0
 40
0.0
 40
1.0
 40
1.0
 40
1.0
 40
2.0
 40
2.0
 40
2.0
 40
3.0
 40
3.0
 40
3.0
 40
4.0
 40
4.0
 40
4.0
 40
5.0
 40
5.0
 40
5.0
 40
6.0
 40
6.0
 40
6.0
 40
7.0
 40
7.0
 40
7.0
 40
8.0
 40
8.0
 40
8.0
 40
9.0
 40
9.0
 40
9.0
 40
10.0
 40
10.0
 40
10.0
 40
11.0
 40
11.0
 40
11.0
 40
12.0
 40
12.0
 40
12.0
 40
13.0
 40
13.0
 40
13.0
 40
14.0
 40
14.0
 40
14.0
 40
15.0
 40
15.0
 40
15.0
 40
16.0
 40
16.0
 40
16.0
 40
17.0
 40
17.0
 40
17.0
 40
17.0
 10
4.627796765336107
 20
-7.806069605253344
 30
0.0
 10
4.225754122207451
 20
-7.508241100553495
 30
0.0
 10
4.171321613540503
 20
-7.160286456543262
 30
0.0
 10
4.464326984561001
 20
-6.762722437545431
 30
0.0
 10
4.757676865130025
 20
-6.367225475838749
 30
0.0
 10
5.105803763914522
 20
-6.31882188427099
 30
0.0
 10
5.50870768091449
 20
-6.617339408067887
 30
0.0
 10
5.50870768091449
 20
-6.617339408067887
 30
0.0
 10
7.504796005068246
 20
-8.097007918982692
 30
0.0
 10
7.504796005068246
 20
-8.097007918982692
 30
0.0
 10
7.906666393422639
 20
-8.395008678456804
 30
0.0
 10
7.960582137766799
 20
-8.742274303369987
 30
0.0
 10
7.666370983326463
 20
-9.139149303270768
 30
0.0
 10
7.373193357531702
 20
-9.53464626497745
 30
0.0
 10
7.025583223069994
 20
-9.583566620867998
 30
0.0
 10
6.623885089489862
 20
-9.285393606619625
 30
0.0
 10
6.623885089489862
 20
-9.285393606619625
 30
0.0
 10
6.266456432895191
 20
-9.020810273352437
 30
0.0
 10
6.266456432895191
 20
-9.020810273352437
 30
0.0
 10
6.266456432895191
 20
-9.020810273352437
 30
0.0
 10
6.493832734921681
 20
-8.713852265616676
 30
0.0
 10
6.493832734921681
 20
-8.713852265616676
 30
0.0
 10
6.493832734921681
 20
-8.713852265616676
 30
0.0
 10
6.851261391516352
 20
-8.978435598883864
 30
0.0
 10
6.851261391516352
 20
-8.978435598883864
 30
0.0
 10
7.051765948757892
 20
-9.127263723846657
 30
0.0
 10
7.223331703923334
 20
-9.106593150935158
 30
0.0
 10
7.365786402238415
 20
-8.916251625375104
 30
0.0
 10
7.365786402238415
 20
-8.916251625375104
 30
0.0
 10
7.36819796907809
 20
-8.912806529889854
 30
0.0
 10
7.36819796907809
 20
-8.912806529889854
 30
0.0
 10
7.509102374424808
 20
-8.72315402342685
 30
0.0
 10
7.478613279380347
 20
-8.553483070778297
 30
0.0
 10
7.277247448267494
 20
-8.403965926718453
 30
0.0
 10
7.277247448267494
 20
-8.403965926718453
 30
0.0
 10
6.297979056585228
 20
-7.678256562750575
 30
0.0
 10
6.297979056585228
 20
-7.678256562750575
 30
0.0
 10
6.323989527498864
 20
-7.952830672924987
 30
0.0
 10
6.296428763616865
 20
-8.144550236679141
 30
0.0
 10
6.215469019713495
 20
-8.253587508787298
 30
0.0
 10
6.201516382998232
 20
-8.27236327918191
 30
0.0
 10
6.186013453314608
 20
-8.291483559125046
 30
0.0
 10
6.169132485436884
 20
-8.309570310422608
 30
0.0
 10
6.059233939457414
 20
-8.429459633309301
 30
0.0
 10
5.93934461657072
 20
-8.496983504820198
 30
0.0
 10
5.809809026325325
 20
-8.511452905858249
 30
0.0
 10
5.675794811949107
 20
-8.525750052122035
 30
0.0
 10
5.49768337536169
 20
-8.45081922531785
 30
0.0
 10
5.276163735660126
 20
-8.286660425445696
 30
0.0
 10
5.276163735660126
 20
-8.286660425445696
 30
0.0
 10
4.627796765336107
 20
-7.806069605253344
 30
0.0
 10
4.627796765336107
 20
-7.806069605253344
 30
0.0
  0
SPLINE
  5
9F
330
5C
100
AcDbEntity
  8
Test
370
     0
100
AcDbSpline
210
0.0
220
0.0
230
1.0
 70
    11
 71
     3
 72
    29
 73
    25
 74
     0
 42
0.0000000001
 43
0.0000000001
 12
1.0
 22
0.0
 32
0.0
 13
1.0
 23
0.0
 33
0.0
 40
0.0
 40
0.0
 40
0.0
 40
0.0
 40
1.0
 40
1.0
 40
1.0
 40
2.0
 40
2.0
 40
2.0
 40
3.0
 40
3.0
 40
3.0
 40
4.0
 40
4.0
 40
4.0
 40
5.0
 40
5.0
 40
5.0
 40
6.0
 40
6.0
 40
6.0
 40
7.0
 40
7.0
 40
7.0
 40
8.0
 40
8.0
 40
8.0
 40
8.0
 10
5.281159124113739
 20
-6.924297415803649
 30
0.0
 10
5.079793293000885
 20
-6.774952526518068
 30
0.0
 10
4.908055283061181
 20
-6.795967608978092
 30
0.0
 10
4.766634113391675
 20
-6.986825898860933
 30
0.0
 10
4.624179415076594
 20
-7.179234481712136
 30
0.0
 10
4.653634981475481
 20
-7.34959445345774
 30
0.0
 10
4.855173067362596
 20
-7.499111597517584
 30
0.0
 10
4.855173067362596
 20
-7.499111597517584
 30
0.0
 10
5.503712292460878
 20
-7.979702417709936
 30
0.0
 10
5.503712292460878
 20
-7.979702417709936
 30
0.0
 10
5.654951984263346
 20
-8.091495766206293
 30
0.0
 10
5.77828640263529
 20
-8.120434568282391
 30
0.0
 10
5.873887802350973
 20
-8.066002059615444
 30
0.0
 10
5.915917967271021
 20
-8.040680607798858
 30
0.0
 10
5.961909991999106
 20
-7.993310544876673
 30
0.0
 10
6.012725150406541
 20
-7.925269909042989
 30
0.0
 10
6.025644258476228
 20
-7.907183157745427
 30
0.0
 10
6.037702092674603
 20
-7.890302189867702
 30
0.0
 10
6.048381888678877
 20
-7.873593476764241
 30
0.0
 10
6.164481606531797
 20
-7.705817326632574
 30
0.0
 10
6.124863008451423
 20
-7.549926755925019
 30
0.0
 10
5.92969834921202
 20
-7.404888235996
 30
0.0
 10
5.92969834921202
 20
-7.404888235996
 30
0.0
 10
5.281159124113739
 20
-6.924297415803649
 30
0.0
 10
5.281159124113739
 20
-6.924297415803649
 30
0.0
  0
HATCH
  5
A0
330
5C
100
AcDbEntity
  8
Test
 62
   250
420
  2301728
100
AcDbHatch
 10
0.0
 20
0.0
 30
0.0
210
0.0
220
0.0
230
1.0
  2
SOLID
 70
     1
 71
     0
 91
        2
 92
        1
 93
        1
 72
     4
 94
        3
 73
     0
 74
     1
 95
       56
 96
       52
 40
0.0
 40
0.0
 40
0.0
 40
0.0
 40
1.0
 40
1.0
 40
1.0
 40
2.0
 40
2.0
 40
2.0
 40
3.0
 40
3.0
 40
3.0
 40
4.0
 40
4.0
 40
4.0
 40
5.0
 40
5.0
 40
5.0
 40
6.0
 40
6.0
 40
6.0
 40
7.0
 40
7.0
 40
7.0
 40
8.0
 40
8.0
 40
8.0
 40
9.0
 40
9.0
 40
9.0
 40
10.0
 40
10.0
 40
10.0
 40
11.0
 40
11.0
 40
11.0
 40
12.0
 40
12.0
 40
12.0
 40
13.0
 40
13.0
 40
13.0
 40
14.0
 40
14.0
 40
14.0
 40
15.0
 40
15.0
 40
15.0
 40
16.0
 40
16.0
 40
16.0
 40
17.0
 40
17.0
 40
17.0
 40
17.0
 10
4.627796765336107
 20
-7.806069605253344
 10
4.225754122207451
 20
-7.508241100553495
 10
4.171321613540503
 20
-7.160286456543262
 10
4.464326984561001
 20
-6.762722437545431
 10
4.757676865130025
 20
-6.367225475838749
 10
5.105803763914522
 20
-6.31882188427099
 10
5.50870768091449
 20
-6.617339408067887
 10
5.50870768091449
 20
-6.617339408067887
 10
7.504796005068246
 20
-8.097007918982692
 10
7.504796005068246
 20
-8.097007918982692
 10
7.906666393422639
 20
-8.395008678456804
 10
7.960582137766799
 20
-8.742274303369987
 10
7.666370983326463
 20
-9.139149303270768
 10
7.373193357531702
 20
-9.53464626497745
 10
7.025583223069994
 20
-9.583566620867998
 10
6.623885089489862
 20
-9.285393606619625
 10
6.623885089489862
 20
-9.285393606619625
 10
6.266456432895191
 20
-9.020810273352437
 10
6.266456432895191
 20
-9.020810273352437
 10
6.266456432895191
 20
-9.020810273352437
 10
6.493832734921681
 20
-8.713852265616676
 10
6.493832734921681
 20
-8.713852265616676
 10
6.493832734921681
 20
-8.713852265616676
 10
6.851261391516352
 20
-8.978435598883864
 10
6.851261391516352
 20
-8.978435598883864
 10
7.051765948757892
 20
-9.127263723846657
 10
7.223331703923334
 20
-9.106593150935158
 10
7.365786402238415
 20
-8.916251625375104
 10
7.365786402238415
 20
-8.916251625375104
 10
7.36819796907809
 20
-8.912806529889854
 10
7.36819796907809
 20
-8.912806529889854
 10
7.509102374424808
 20
-8.72315402342685
 10
7.478613279380347
 20
-8.553483070778297
 10
7.277247448267494
 20
-8.403965926718453
 10
7.277247448267494
 20
-8.403965926718453
 10
6.297979056585228
 20
-7.678256562750575
 10
6.297979056585228
 20
-7.678256562750575
 10
6.323989527498864
 20
-7.952830672924987
 10
6.296428763616865
 20
-8.144550236679141
 10
6.215469019713495
 20
-8.253587508787298
 10
6.201516382998232
 20
-8.27236327918191
 10
6.186013453314608
 20
-8.291483559125046
 10
6.169132485436884
 20
-8.309570310422608
 10
6.059233939457414
 20
-8.429459633309301
 10
5.93934461657072
 20
-8.496983504820198
 10
5.809809026325325
 20
-8.511452905858249
 10
5.675794811949107
 20
-8.525750052122035
 10
5.49768337536169
 20
-8.45081922531785
 10
5.276163735660126
 20
-8.286660425445696
 10
5.276163735660126
 20
-8.286660425445696
 10
4.627796765336107
 20
-7.806069605253344
 10
4.627796765336107
 20
-7.806069605253344
 97
        0
 97
        0
 92
        1
 93
        1
 72
     4
 94
        3
 73
     0
 74
     1
 95
       29
 96
       25
 40
0.0
 40
0.0
 40
0.0
 40
0.0
 40
1.0
 40
1.0
 40
1.0
 40
2.0
 40
2.0
 40
2.0
 40
3.0
 40
3.0
 40
3.0
 40
4.0
 40
4.0
 40
4.0
 40
5.0
 40
5.0
 40
5.0
 40
6.0
 40
6.0
 40
6.0
 40
7.0
 40
7.0
 40
7.0
 40
8.0
 40
8.0
 40
8.0
 40
8.0
 10
5.281159124113739
 20
-6.924297415803649
 10
5.079793293000885
 20
-6.774952526518068
 10
4.908055283061181
 20
-6.795967608978092
 10
4.766634113391675
 20
-6.986825898860933
 10
4.624179415076594
 20
-7.179234481712136
 10
4.653634981475481
 20
-7.34959445345774
 10
4.855173067362596
 20
-7.499111597517584
 10
4.855173067362596
 20
-7.499111597517584
 10
5.503712292460878
 20
-7.979702417709936
 10
5.503712292460878
 20
-7.979702417709936
 10
5.654951984263346
 20
-8.091495766206293
 10
5.77828640263529
 20
-8.120434568282391
 10
5.873887802350973
 20
-8.066002059615444
 10
5.915917967271021
 20
-8.040680607798858
 10
5.961909991999106
 20
-7.993310544876673
 10
6.012725150406541
 20
-7.925269909042989
 10
6.025644258476228
 20
-7.907183157745427
 10
6.037702092674603
 20
-7.890302189867702
 10
6.048381888678877
 20
-7.873593476764241
 10
6.164481606531797
 20
-7.705817326632574
 10
6.124863008451423
 20
-7.549926755925019
 10
5.92969834921202
 20
-7.404888235996
 10
5.92969834921202
 20
-7.404888235996
 10
5.281159124113739
 20
-6.924297415803649
 10
5.281159124113739
 20
-6.924297415803649
 97
        0
 97
        0
 75
     2
 76
     1
 98
        0
  0
ENDBLK
  5
5F
330
5C
100
AcDbEntity
  8
0
100
AcDbBlockEnd
  0
BLOCK
  5
A3
330
A1
100
AcDbEntity
  8
0
100
AcDbBlockBegin
  2
block 4
 70
     0
 10
0.0
 20
0.0
 30
0.0
  3
block 4
  1

  0
SPLINE
  5
A5
330
A1
100
AcDbEntity
  8
Test
370
     0
100
AcDbSpline
210
0.0
220
0.0
230
1.0
 70
    11
 71
     3
 72
    68
 73
    64
 74
     0
 42
0.0000000001
 43
0.0000000001
 12
1.0
 22
0.0
 32
0.0
 13
1.0
 23
0.0
 33
0.0
 40
0.0
 40
0.0
 40
0.0
 40
0.0
 40
1.0
 40
1.0
 40
1.0
 40
2.0
 40
2.0
 40
2.0
 40
3.0
 40
3.0
 40
3.0
 40
4.0
 40
4.0
 40
4.0
 40
5.0
 40
5.0
 40
5.0
 40
6.0
 40
6.0
 40
6.0
 40
7.0
 40
7.0
 40
7.0
 40
8.0
 40
8.0
 40
8.0
 40
9.0
 40
9.0
 40
9.0
 40
10.0
 40
10.0
 40
10.0
 40
11.0
 40
11.0
 40
11.0
 40
12.0
 40
12.0
 40
12.0
 40
13.0
 40
13.0
 40
13.0
 40
14.0
 40
14.0
 40
14.0
 40
15.0
 40
15.0
 40
15.0
 40
16.0
 40
16.0
 40
16.0
 40
17.0
 40
17.0
 40
17.0
 40
18.0
 40
18.0
 40
18.0
 40
19.0
 40
19.0
 40
19.0
 40
20.0
 40
20.0
 40
20.0
 40
21.0
 40
21.0
 40
21.0
 40
21.0
 10
11.17035779877401
 20
-11.36241981609928
 30
0.0
 10
11.21538350057637
 20
-11.35330300610459
 30
0.0
 10
11.25731493946649
 20
-11.34471541709122
 30
0.0
 10
11.2992866016175
 20
-11.33633002316249
 30
0.0
 10
11.63245494185853
 20
-11.26976669188139
 30
0.0
 10
11.96169958781931
 20
-11.18743784602699
 30
0.0
 10
12.28693007569413
 20
-11.08924007637469
 30
0.0
 10
12.57912879071054
 20
-11.00101567181471
 30
0.0
 10
12.86715476628227
 20
-10.90061271200321
 30
0.0
 10
13.15070779202008
 20
-10.78765870797623
 30
0.0
 10
13.26001766113488
 20
-10.7441147170389
 30
0.0
 10
13.36819819671783
 20
-10.69769807640324
 30
0.0
 10
13.47636578688253
 20
-10.65135880004524
 30
0.0
 10
13.49439628711309
 20
-10.64363439295037
 30
0.0
 10
13.50854408688421
 20
-10.64435856574665
 30
0.0
 10
13.52610423695987
 20
-10.65197910128111
 30
0.0
 10
13.82849099523567
 20
-10.78320640916541
 30
0.0
 10
14.13566139335756
 20
-10.90208602375935
 30
0.0
 10
14.44878914913806
 20
-11.00521245274941
 30
0.0
 10
14.70828743233133
 20
-11.09067655533558
 30
0.0
 10
14.97053384264006
 20
-11.16685447872129
 30
0.0
 10
15.23581379569071
 20
-11.23233101141563
 30
0.0
 10
15.42350754890904
 20
-11.27865772763662
 30
0.0
 10
15.61251618663651
 20
-11.31909797776689
 30
0.0
 10
15.80220106829453
 20
-11.35639603611918
 30
0.0
 10
15.81115621468638
 20
-11.35815692106912
 30
0.0
 10
15.82004108595721
 20
-11.36027395910168
 30
0.0
 10
15.83068776685155
 20
-11.36260336361965
 30
0.0
 10
15.83068776685155
 20
-11.37272590923304
 30
0.0
 10
15.83068776685155
 20
-11.38187261697676
 30
0.0
 10
15.83068776685155
 20
-11.39101932471984
 30
0.0
 10
15.83068776685155
 20
-12.09877286376046
 30
0.0
 10
15.83226834063503
 20
-12.80653133438781
 30
0.0
 10
15.8301089217723
 20
-13.51427824660758
 30
0.0
 10
15.82875828325575
 20
-13.9567865078216
 30
0.0
 10
15.73023811107259
 20
-14.37845727086507
 30
0.0
 10
15.53535841846538
 20
-14.77576260135311
 30
0.0
 10
15.24712809023847
 20
-15.36338344024625
 30
0.0
 10
14.80908445680278
 20
-15.80526415695472
 30
0.0
 10
14.22655116683149
 20
-16.10323313753393
 30
0.0
 10
14.00163933944428
 20
-16.21827659352609
 30
0.0
 10
13.76454063475251
 20
-16.30029135890395
 30
0.0
 10
13.51772207938634
 20
-16.35400805894427
 30
0.0
 10
13.50664943262483
 20
-16.35641775587166
 30
0.0
 10
13.49409977541745
 20
-16.35618782060601
 30
0.0
 10
13.48300123782138
 20
-16.35373497228917
 30
0.0
 10
12.98524532688148
 20
-16.24371803682189
 30
0.0
 10
12.54200688249787
 20
-16.02435054664565
 30
0.0
 10
12.15944684442575
 20
-15.68669954751087
 30
0.0
 10
11.74841952592268
 20
-15.32392334312485
 30
0.0
 10
11.46313289307759
 20
-14.87887778015774
 30
0.0
 10
11.30054446464669
 20
-14.35533521480011
 30
0.0
 10
11.24704876136953
 20
-14.18307609745692
 30
0.0
 10
11.2109859115645
 20
-14.00703845944264
 30
0.0
 10
11.19017415011552
 20
-13.82792998355667
 30
0.0
 10
11.17676362267065
 20
-13.7125160420562
 30
0.0
 10
11.17035749055056
 20
-13.59663236684772
 30
0.0
 10
11.17035764466293
 20
-13.48041827527946
 30
0.0
 10
11.17035826110983
 20
-12.78612966525858
 30
0.0
 10
11.17035779877401
 20
-12.09184090112532
 30
0.0
 10
11.17035779877401
 20
-11.39755229110444
 30
0.0
 10
11.17035779877401
 20
-11.38669201082898
 30
0.0
 10
11.17035779877401
 20
-11.37583188466588
 30
0.0
 10
11.17035779877401
 20
-11.36241981609928
 30
0.0
  0
HATCH
  5
A6
330
A1
100
AcDbEntity
  8
Test
 62
   250
420
  2301728
100
AcDbHatch
 10
0.0
 20
0.0
 30
0.0
210
0.0
220
0.0
230
1.0
  2
SOLID
 70
     1
 71
     0
 91
        1
 92
        1
 93
        1
 72
     4
 94
        3
 73
     0
 74
     1
 95
       68
 96
       64
 40
0.0
 40
0.0
 40
0.0
 40
0.0
 40
1.0
 40
1.0
 40
1.0
 40
2.0
 40
2.0
 40
2.0
 40
3.0
 40
3.0
 40
3.0
 40
4.0
 40
4.0
 40
4.0
 40
5.0
 40
5.0
 40
5.0
 40
6.0
 40
6.0
 40
6.0
 40
7.0
 40
7.0
 40
7.0
 40
8.0
 40
8.0
 40
8.0
 40
9.0
 40
9.0
 40
9.0
 40
10.0
 40
10.0
 40
10.0
 40
11.0
 40
11.0
 40
11.0
 40
12.0
 40
12.0
 40
12.0
 40
13.0
 40
13.0
 40
13.0
 40
14.0
 40
14.0
 40
14.0
 40
15.0
 40
15.0
 40
15.0
 40
16.0
 40
16.0
 40
16.0
 40
17.0
 40
17.0
 40
17.0
 40
18.0
 40
18.0
 40
18.0
 40
19.0
 40
19.0
 40
19.0
 40
20.0
 40
20.0
 40
20.0
 40
21.0
 40
21.0
 40
21.0
 40
21.0
 10
11.17035779877401
 20
-11.36241981609928
 10
11.21538350057637
 20
-11.35330300610459
 10
11.25731493946649
 20
-11.34471541709122
 10
11.2992866016175
 20
-11.33633002316249
 10
11.63245494185853
 20
-11.26976669188139
 10
11.96169958781931
 20
-11.18743784602699
 10
12.28693007569413
 20
-11.08924007637469
 10
12.57912879071054
 20
-11.00101567181471
 10
12.86715476628227
 20
-10.90061271200321
 10
13.15070779202008
 20
-10.78765870797623
 10
13.26001766113488
 20
-10.7441147170389
 10
13.36819819671783
 20
-10.69769807640324
 10
13.47636578688253
 20
-10.65135880004524
 10
13.49439628711309
 20
-10.64363439295037
 10
13.50854408688421
 20
-10.64435856574665
 10
13.52610423695987
 20
-10.65197910128111
 10
13.82849099523567
 20
-10.78320640916541
 10
14.13566139335756
 20
-10.90208602375935
 10
14.44878914913806
 20
-11.00521245274941
 10
14.70828743233133
 20
-11.09067655533558
 10
14.97053384264006
 20
-11.16685447872129
 10
15.23581379569071
 20
-11.23233101141563
 10
15.42350754890904
 20
-11.27865772763662
 10
15.61251618663651
 20
-11.31909797776689
 10
15.80220106829453
 20
-11.35639603611918
 10
15.81115621468638
 20
-11.35815692106912
 10
15.82004108595721
 20
-11.36027395910168
 10
15.83068776685155
 20
-11.36260336361965
 10
15.83068776685155
 20
-11.37272590923304
 10
15.83068776685155
 20
-11.38187261697676
 10
15.83068776685155
 20
-11.39101932471984
 10
15.83068776685155
 20
-12.09877286376046
 10
15.83226834063503
 20
-12.80653133438781
 10
15.8301089217723
 20
-13.51427824660758
 10
15.82875828325575
 20
-13.9567865078216
 10
15.73023811107259
 20
-14.37845727086507
 10
15.53535841846538
 20
-14.77576260135311
 10
15.24712809023847
 20
-15.36338344024625
 10
14.80908445680278
 20
-15.80526415695472
 10
14.22655116683149
 20
-16.10323313753393
 10
14.00163933944428
 20
-16.21827659352609
 10
13.76454063475251
 20
-16.30029135890395
 10
13.51772207938634
 20
-16.35400805894427
 10
13.50664943262483
 20
-16.35641775587166
 10
13.49409977541745
 20
-16.35618782060601
 10
13.48300123782138
 20
-16.35373497228917
 10
12.98524532688148
 20
-16.24371803682189
 10
12.54200688249787
 20
-16.02435054664565
 10
12.15944684442575
 20
-15.68669954751087
 10
11.74841952592268
 20
-15.32392334312485
 10
11.46313289307759
 20
-14.87887778015774
 10
11.30054446464669
 20
-14.35533521480011
 10
11.24704876136953
 20
-14.18307609745692
 10
11.2109859115645
 20
-14.00703845944264
 10
11.19017415011552
 20
-13.82792998355667
 10
11.17676362267065
 20
-13.7125160420562
 10
11.17035749055056
 20
-13.59663236684772
 10
11.17035764466293
 20
-13.48041827527946
 10
11.17035826110983
 20
-12.78612966525858
 10
11.17035779877401
 20
-12.09184090112532
 10
11.17035779877401
 20
-11.39755229110444
 10
11.17035779877401
 20
-11.38669201082898
 10
11.17035779877401
 20
-11.37583188466588
 10
11.17035779877401
 20
-11.36241981609928
 97
        0
 97
        0
 75
     2
 76
     1
 98
        0
  0
ENDBLK
  5
A4
330
A1
100
AcDbEntity
  8
0
100
AcDbBlockEnd
  0
ENDSEC
  0
SECTION
  2
ENTITIES
  0
INSERT
  5
46
330
1F
100
AcDbEntity
  8
Test
100
AcDbBlockReference
  2
block 2
 10
0.0
 20
0.0
 30
0.0
  0
INSERT
  5
5D
330
1F
100
AcDbEntity
  8
Test
100
AcDbBlockReference
  2
block 3
 10
0.0
 20
0.0
 30
0.0
  0
INSERT
  5
A2
330
1F
100
AcDbEntity
  8
Test
100
AcDbBlockReference
  2
block 4
 10
0.0
 20
0.0
 30
0.0
  0
SPLINE
  5
A7
330
1F
100
AcDbEntity
  8
Test
 62
   250
420
  2301728
370
     9
100
AcDbSpline
210
0.0
220
0.0
230
1.0
 70
    11
 71
     3
 72
    17
 73
    13
 74
     0
 42
0.0000000001
 43
0.0000000001
 12
1.0
 22
0.0
 32
0.0
 13
1.0
 23
0.0
 33
0.0
 40
0.0
 40
0.0
 40
0.0
 40
0.0
 40
1.0
 40
1.0
 40
1.0
 40
2.0
 40
2.0
 40
2.0
 40
3.0
 40
3.0
 40
3.0
 40
4.0
 40
4.0
 40
4.0
 40
4.0
 10
18.50080167519744
 20
-13.50080170558749
 30
0.0
 10
18.50080167519744
 20
-16.26222545389715
 30
0.0
 10
16.26222542475695
 20
-18.50080170433763
 30
0.0
 10
13.50080167644729
 20
-18.50080170433763
 30
0.0
 10
10.73937792813763
 20
-18.50080170433763
 30
0.0
 10
8.500801677697146
 20
-16.26222545389715
 30
0.0
 10
8.500801677697146
 20
-13.50080170558749
 30
0.0
 10
8.500801677697146
 20
-10.73937795727783
 30
0.0
 10
10.73937792813763
 20
-8.50080170683734
 30
0.0
 10
13.50080167644729
 20
-8.50080170683734
 30
0.0
 10
16.26222542475695
 20
-8.50080170683734
 30
0.0
 10
18.50080167519744
 20
-10.73937795727783
 30
0.0
 10
18.50080167519744
 20
-13.50080170558749
 30
0.0
  0
ENDSEC
  0
SECTION
  2
OBJECTS
  0
DICTIONARY
  5
C
330
0
100
AcDbDictionary
281
     1
  3
ACAD_GROUP
350
D
  3
ACAD_LAYOUT
350
1A
  3
ACAD_MATERIAL
350
3B
  3
ACAD_MLEADERSTYLE
350
A9
  3
ACAD_MLINESTYLE
350
17
  3
ACAD_PLOTSETTINGS
350
19
  3
ACAD_PLOTSTYLENAME
350
E
  3
ACAD_TABLESTYLE
350
A8
  3
ACAD_VISUALSTYLE
350
2A
  0
SUN
  5
3F
330
29
100
AcDbSun
 90
        1
290
     0
 63
     7
421
 16777215
 40
1.0
291
     1
 91
  2455826
 92
 54000000
292
     0
 70
     2
 71
   256
280
     1
  0
DICTIONARY
  5
D
102
{ACAD_REACTORS
330
C
102
}
330
C
100
AcDbDictionary
281
     1
  0
DICTIONARY
  5
1A
102
{ACAD_REACTORS
330
C
102
}
330
C
100
AcDbDictionary
281
     1
  3
Layout1
350
1E
  3
Layout2
350
26
  3
Model
350
22
  0
DICTIONARY
  5
3B
102
{ACAD_REACTORS
330
C
102
}
330
C
100
AcDbDictionary
281
     1
  3
ByBlock
350
3D
  3
ByLayer
350
3C
  3
Global
350
3E
  0
DICTIONARY
  5
A9
102
{ACAD_REACTORS
330
C
102
}
330
C
100
AcDbDictionary
281
     1
  0
DICTIONARY
  5
17
102
{ACAD_REACTORS
330
C
102
}
330
C
100
AcDbDictionary
281
     1
  3
Standard
350
18
  0
DICTIONARY
  5
19
102
{ACAD_REACTORS
330
C
102
}
330
C
100
AcDbDictionary
281
     1
  0
ACDBDICTIONARYWDFLT
  5
E
102
{ACAD_REACTORS
330
C
102
}
330
C
100
AcDbDictionary
281
     1
  3
Normal
350
F
100
AcDbDictionaryWithDefault
340
F
  0
DICTIONARY
  5
A8
102
{ACAD_REACTORS
330
C
102
}
330
C
100
AcDbDictionary
281
     1
  0
DICTIONARY
  5
2A
102
{ACAD_REACTORS
330
C
102
}
330
C
100
AcDbDictionary
281
     1
  3
2dWireframe
350
2F
  3
3D Hidden
350
31
  3
3dWireframe
350
30
  3
Basic
350
32
  3
Brighten
350
36
  3
ColorChange
350
3A
  3
Conceptual
350
34
  3
Dim
350
35
  3
Facepattern
350
39
  3
Flat
350
2B
  3
FlatWithEdges
350
2C
  3
Gouraud
350
2D
  3
GouraudWithEdges
350
2E
  3
Linepattern
350
38
  3
Realistic
350
33
  3
Thicken
350
37
  0
LAYOUT
  5
1E
102
{ACAD_REACTORS
330
1A
102
}
330
1A
100
AcDbPlotSettings
  1

  2
none_device
  4

  6

 40
0.0
 41
0.0
 42
0.0
 43
0.0
 44
0.0
 45
0.0
 46
0.0
 47
0.0
 48
0.0
 49
0.0
140
0.0
141
0.0
142
1.0
143
1.0
 70
   688
 72
     0
 73
     0
 74
     5
  7

 75
    16
 76
     0
 77
     2
 78
   300
147
1.0
148
0.0
149
0.0
100
AcDbLayout
  1
Layout1
 70
     1
 71
     1
 10
0.0
 20
0.0
 11
12.0
 21
9.0
 12
0.0
 22
0.0
 32
0.0
 14
1.000000000000000E+20
 24
1.000000000000000E+20
 34
1.000000000000000E+20
 15
-1.000000000000000E+20
 25
-1.000000000000000E+20
 35
-1.000000000000000E+20
146
0.0
 13
0.0
 23
0.0
 33
0.0
 16
1.0
 26
0.0
 36
0.0
 17
0.0
 27
1.0
 37
0.0
 76
     0
330
1B
  0
LAYOUT
  5
26
102
{ACAD_REACTORS
330
1A
102
}
330
1A
100
AcDbPlotSettings
  1

  2
none_device
  4

  6

 40
0.0
 41
0.0
 42
0.0
 43
0.0
 44
0.0
 45
0.0
 46
0.0
 47
0.0
 48
0.0
 49
0.0
140
0.0
141
0.0
142
1.0
143
1.0
 70
   688
 72
     0
 73
     0
 74
     5
  7

 75
    16
 76
     0
 77
     2
 78
   300
147
1.0
148
0.0
149
0.0
100
AcDbLayout
  1
Layout2
 70
     1
 71
     2
 10
0.0
 20
0.0
 11
0.0
 21
0.0
 12
0.0
 22
0.0
 32
0.0
 14
0.0
 24
0.0
 34
0.0
 15
0.0
 25
0.0
 35
0.0
146
0.0
 13
0.0
 23
0.0
 33
0.0
 16
1.0
 26
0.0
 36
0.0
 17
0.0
 27
1.0
 37
0.0
 76
     0
330
23
  0
LAYOUT
  5
22
102
{ACAD_REACTORS
330
1A
102
}
330
1A
100
AcDbPlotSettings
  1

  2
none_device
  4

  6

 40
0.0
 41
0.0
 42
0.0
 43
0.0
 44
0.0
 45
0.0
 46
0.0
 47
0.0
 48
0.0
 49
0.0
140
0.0
141
0.0
142
1.0
143
1.0
 70
  1712
 72
     0
 73
     0
 74
     0
  7

 75
     0
 76
     0
 77
     2
 78
   300
147
1.0
148
0.0
149
0.0
100
AcDbLayout
  1
Model
 70
     1
 71
     0
 10
0.0
 20
0.0
 11
12.0
 21
9.0
 12
0.0
 22
0.0
 32
0.0
 14
1.000000000000000E+20
 24
1.000000000000000E+20
 34
1.000000000000000E+20
 15
-1.000000000000000E+20
 25
-1.000000000000000E+20
 35
-1.000000000000000E+20
146
0.0
 13
0.0
 23
0.0
 33
0.0
 16
1.0
 26
0.0
 36
0.0
 17
0.0
 27
1.0
 37
0.0
 76
     0
330
1F
331
29
  0
MATERIAL
  5
3D
102
{ACAD_REACTORS
330
3B
102
}
330
3B
100
AcDbMaterial
  1
ByBlock
 72
     1
 94
      127
  0
MATERIAL
  5
3C
102
{ACAD_REACTORS
330
3B
102
}
330
3B
100
AcDbMaterial
  1
ByLayer
 72
     1
 94
      127
  0
MATERIAL
  5
3E
102
{ACAD_REACTORS
330
3B
102
}
330
3B
100
AcDbMaterial
  1
Global
 72
     1
 94
      127
  0
MLINESTYLE
  5
18
102
{ACAD_REACTORS
330
17
102
}
330
17
100
AcDbMlineStyle
  2
Standard
 70
     0
  3

 62
   256
 51
90.0
 52
90.0
 71
     2
 49
0.5
 62
   256
  6
BYLAYER
 49
-0.5
 62
   256
  6
BYLAYER
  0
ACDBPLACEHOLDER
  5
F
102
{ACAD_REACTORS
330
E
102
}
330
E
  0
VISUALSTYLE
  5
2F
102
{ACAD_REACTORS
330
2A
102
}
330
2A
100
AcDbVisualStyle
  2
2dWireframe
 70
     4
177
     2
291
     0
 71
     0
176
     1
 72
     2
176
     1
 73
     0
176
     1
 90
        0
176
     1
 40
-0.6
176
     1
 41
-30.0
176
     1
 62
     5
 63
     7
421
 16777215
176
     1
 74
     1
176
     1
 91
        4
176
     1
 64
     7
176
     1
 65
   257
176
     1
 75
     1
176
     1
175
     1
176
     1
 42
1.0
176
     1
 92
        0
176
     1
 66
   257
176
     1
 43
1.0
176
     1
 76
     1
176
     1
 77
     6
176
     1
 78
     2
176
     1
 67
     7
176
     1
 79
     5
176
     1
170
     0
176
     1
171
     0
176
     1
290
     0
176
     1
 93
        1
176
     1
 44
0.0
176
     1
173
     0
176
     1
  0
VISUALSTYLE
  5
31
102
{ACAD_REACTORS
330
2A
102
}
330
2A
100
AcDbVisualStyle
  2
3D Hidden
 70
     6
177
     2
291
     0
 71
     1
176
     1
 72
     2
176
     1
 73
     2
176
     1
 90
        0
176
     1
 40
-0.6
176
     1
 41
-30.0
176
     1
 62
     5
 63
     7
421
 16777215
176
     1
 74
     2
176
     1
 91
        2
176
     1
 64
     7
176
     1
 65
   257
176
     1
 75
     2
176
     1
175
     1
176
     1
 42
40.0
176
     1
 92
        0
176
     1
 66
   257
176
     1
 43
1.0
176
     1
 76
     1
176
     1
 77
     6
176
     1
 78
     2
176
     1
 67
     7
176
     1
 79
     3
176
     1
170
     0
176
     1
171
     0
176
     1
290
     0
176
     1
 93
        1
176
     1
 44
0.0
176
     1
173
     0
176
     1
  0
VISUALSTYLE
  5
30
102
{ACAD_REACTORS
330
2A
102
}
330
2A
100
AcDbVisualStyle
  2
3dWireframe
 70
     5
177
     2
291
     0
 71
     0
176
     1
 72
     2
176
     1
 73
     0
176
     1
 90
        0
176
     1
 40
-0.6
176
     1
 41
-30.0
176
     1
 62
     5
 63
     7
421
 16777215
176
     1
 74
     1
176
     1
 91
        4
176
     1
 64
     7
176
     1
 65
   257
176
     1
 75
     1
176
     1
175
     1
176
     1
 42
1.0
176
     1
 92
        0
176
     1
 66
   257
176
     1
 43
1.0
176
     1
 76
     1
176
     1
 77
     6
176
     1
 78
     2
176
     1
 67
     7
176
     1
 79
     5
176
     1
170
     0
176
     1
171
     0
176
     1
290
     0
176
     1
 93
        1
176
     1
 44
0.0
176
     1
173
     0
176
     1
  0
VISUALSTYLE
  5
32
102
{ACAD_REACTORS
330
2A
102
}
330
2A
100
AcDbVisualStyle
  2
Basic
 70
     7
177
     2
291
     1
 71
     1
176
     1
 72
     0
176
     1
 73
     1
176
     1
 90
        0
176
     1
 40
-0.6
176
     1
 41
-30.0
176
     1
 62
     5
 63
     7
421
 16777215
176
     1
 74
     0
176
     1
 91
        4
176
     1
 64
     7
176
     1
 65
   257
176
     1
 75
     1
176
     1
175
     1
176
     1
 42
1.0
176
     1
 92
        8
176
     1
 66
     7
176
     1
 43
1.0
176
     1
 76
     1
176
     1
 77
     6
176
     1
 78
     2
176
     1
 67
     7
176
     1
 79
     5
176
     1
170
     0
176
     1
171
     0
176
     1
290
     0
176
     1
 93
        1
176
     1
 44
0.0
176
     1
173
     0
176
     1
  0
VISUALSTYLE
  5
36
102
{ACAD_REACTORS
330
2A
102
}
330
2A
100
AcDbVisualStyle
  2
Brighten
 70
    12
177
     2
291
     1
 71
     2
176
     1
 72
     2
176
     1
 73
     0
176
     1
 90
        0
176
     1
 40
-0.6
176
     1
 41
-30.0
176
     1
 62
     5
 63
     7
421
 16777215
176
     1
 74
     1
176
     1
 91
        4
176
     1
 64
     7
176
     1
 65
   257
176
     1
 75
     1
176
     1
175
     1
176
     1
 42
1.0
176
     1
 92
        8
176
     1
 66
     7
176
     1
 43
1.0
176
     1
 76
     1
176
     1
 77
     6
176
     1
 78
     2
176
     1
 67
     7
176
     1
 79
     5
176
     1
170
     0
176
     1
171
     0
176
     1
290
     0
176
     1
 93
        1
176
     1
 44
50.0
176
     1
173
     0
176
     1
  0
VISUALSTYLE
  5
3A
102
{ACAD_REACTORS
330
2A
102
}
330
2A
100
AcDbVisualStyle
  2
ColorChange
 70
    16
177
     2
291
     1
 71
     2
176
     1
 72
     2
176
     1
 73
     3
176
     1
 90
        0
176
     1
 40
-0.6
176
     1
 41
-30.0
176
     1
 62
     5
 63
     8
421
  8421504
176
     1
 74
     1
176
     1
 91
        4
176
     1
 64
     7
176
     1
 65
   257
176
     1
 75
     1
176
     1
175
     1
176
     1
 42
1.0
176
     1
 92
        8
176
     1
 66
     8
424
  8421504
176
     1
 43
1.0
176
     1
 76
     1
176
     1
 77
     6
176
     1
 78
     2
176
     1
 67
     7
176
     1
 79
     5
176
     1
170
     0
176
     1
171
     0
176
     1
290
     0
176
     1
 93
        1
176
     1
 44
0.0
176
     1
173
     0
176
     1
  0
VISUALSTYLE
  5
34
102
{ACAD_REACTORS
330
2A
102
}
330
2A
100
AcDbVisualStyle
  2
Conceptual
 70
     9
177
     2
291
     0
 71
     3
176
     1
 72
     2
176
     1
 73
     0
176
     1
 90
        0
176
     1
 40
-0.6
176
     1
 41
-30.0
176
     1
 62
     5
 63
     7
421
 16777215
176
     1
 74
     2
176
     1
 91
        2
176
     1
 64
     7
176
     1
 65
   257
176
     1
 75
     1
176
     1
175
     1
176
     1
 42
40.0
176
     1
 92
        8
176
     1
 66
     7
176
     1
 43
1.0
176
     1
 76
     1
176
     1
 77
     6
176
     1
 78
     2
176
     1
 67
     7
176
     1
 79
     3
176
     1
170
     0
176
     1
171
     0
176
     1
290
     0
176
     1
 93
        1
176
     1
 44
0.0
176
     1
173
     0
176
     1
  0
VISUALSTYLE
  5
35
102
{ACAD_REACTORS
330
2A
102
}
330
2A
100
AcDbVisualStyle
  2
Dim
 70
    11
177
     2
291
     1
 71
     2
176
     1
 72
     2
176
     1
 73
     0
176
     1
 90
        0
176
     1
 40
-0.6
176
     1
 41
-30.0
176
     1
 62
     5
 63
     7
421
 16777215
176
     1
 74
     1
176
     1
 91
        4
176
     1
 64
     7
176
     1
 65
   257
176
     1
 75
     1
176
     1
175
     1
176
     1
 42
1.0
176
     1
 92
        8
176
     1
 66
     7
176
     1
 43
1.0
176
     1
 76
     1
176
     1
 77
     6
176
     1
 78
     2
176
     1
 67
     7
176
     1
 79
     5
176
     1
170
     0
176
     1
171
     0
176
     1
290
     0
176
     1
 93
        1
176
     1
 44
-50.0
176
     1
173
     0
176
     1
  0
VISUALSTYLE
  5
39
102
{ACAD_REACTORS
330
2A
102
}
330
2A
100
AcDbVisualStyle
  2
Facepattern
 70
    15
177
     2
291
     1
 71
     2
176
     1
 72
     2
176
     1
 73
     0
176
     1
 90
        0
176
     1
 40
-0.6
176
     1
 41
-30.0
176
     1
 62
     5
 63
     7
421
 16777215
176
     1
 74
     1
176
     1
 91
        4
176
     1
 64
     7
176
     1
 65
   257
176
     1
 75
     1
176
     1
175
     1
176
     1
 42
1.0
176
     1
 92
        8
176
     1
 66
     7
176
     1
 43
1.0
176
     1
 76
     1
176
     1
 77
     6
176
     1
 78
     2
176
     1
 67
     7
176
     1
 79
     5
176
     1
170
     0
176
     1
171
     0
176
     1
290
     0
176
     1
 93
        1
176
     1
 44
0.0
176
     1
173
     0
176
     1
  0
VISUALSTYLE
  5
2B
102
{ACAD_REACTORS
330
2A
102
}
330
2A
100
AcDbVisualStyle
  2
Flat
 70
     0
177
     2
291
     1
 71
     2
176
     1
 72
     1
176
     1
 73
     1
176
     1
 90
        2
176
     1
 40
-0.6
176
     1
 41
30.0
176
     1
 62
     5
 63
     7
421
 16777215
176
     1
 74
     0
176
     1
 91
        4
176
     1
 64
     7
176
     1
 65
   257
176
     1
 75
     1
176
     1
175
     1
176
     1
 42
1.0
176
     1
 92
        8
176
     1
 66
     7
176
     1
 43
1.0
176
     1
 76
     1
176
     1
 77
     6
176
     1
 78
     2
176
     1
 67
     7
176
     1
 79
     5
176
     1
170
     0
176
     1
171
     0
176
     1
290
     0
176
     1
 93
       13
176
     1
 44
0.0
176
     1
173
     0
176
     1
  0
VISUALSTYLE
  5
2C
102
{ACAD_REACTORS
330
2A
102
}
330
2A
100
AcDbVisualStyle
  2
FlatWithEdges
 70
     1
177
     2
291
     1
 71
     2
176
     1
 72
     1
176
     1
 73
     1
176
     1
 90
        2
176
     1
 40
-0.6
176
     1
 41
30.0
176
     1
 62
     5
 63
     7
421
 16777215
176
     1
 74
     1
176
     1
 91
        4
176
     1
 64
     7
176
     1
 65
   257
176
     1
 75
     1
176
     1
175
     1
176
     1
 42
1.0
176
     1
 92
        0
176
     1
 66
   257
176
     1
 43
1.0
176
     1
 76
     1
176
     1
 77
     6
176
     1
 78
     2
176
     1
 67
     7
176
     1
 79
     5
176
     1
170
     0
176
     1
171
     0
176
     1
290
     0
176
     1
 93
       13
176
     1
 44
0.0
176
     1
173
     0
176
     1
  0
VISUALSTYLE
  5
2D
102
{ACAD_REACTORS
330
2A
102
}
330
2A
100
AcDbVisualStyle
  2
Gouraud
 70
     2
177
     2
291
     1
 71
     2
176
     1
 72
     2
176
     1
 73
     1
176
     1
 90
        2
176
     1
 40
-0.6
176
     1
 41
30.0
176
     1
 62
     5
 63
     7
421
 16777215
176
     1
 74
     0
176
     1
 91
        4
176
     1
 64
     7
176
     1
 65
   257
176
     1
 75
     1
176
     1
175
     1
176
     1
 42
1.0
176
     1
 92
        0
176
     1
 66
     7
176
     1
 43
1.0
176
     1
 76
     1
176
     1
 77
     6
176
     1
 78
     2
176
     1
 67
     7
176
     1
 79
     5
176
     1
170
     0
176
     1
171
     0
176
     1
290
     0
176
     1
 93
       13
176
     1
 44
0.0
176
     1
173
     0
176
     1
  0
VISUALSTYLE
  5
2E
102
{ACAD_REACTORS
330
2A
102
}
330
2A
100
AcDbVisualStyle
  2
GouraudWithEdges
 70
     3
177
     2
291
     1
 71
     2
176
     1
 72
     2
176
     1
 73
     1
176
     1
 90
        2
176
     1
 40
-0.6
176
     1
 41
30.0
176
     1
 62
     5
 63
     7
421
 16777215
176
     1
 74
     1
176
     1
 91
        4
176
     1
 64
     7
176
     1
 65
   257
176
     1
 75
     1
176
     1
175
     1
176
     1
 42
1.0
176
     1
 92
        0
176
     1
 66
   257
176
     1
 43
1.0
176
     1
 76
     1
176
     1
 77
     6
176
     1
 78
     2
176
     1
 67
     7
176
     1
 79
     5
176
     1
170
     0
176
     1
171
     0
176
     1
290
     0
176
     1
 93
       13
176
     1
 44
0.0
176
     1
173
     0
176
     1
  0
VISUALSTYLE
  5
38
102
{ACAD_REACTORS
330
2A
102
}
330
2A
100
AcDbVisualStyle
  2
Linepattern
 70
    14
177
     2
291
     1
 71
     2
176
     1
 72
     2
176
     1
 73
     0
176
     1
 90
        0
176
     1
 40
-0.6
176
     1
 41
-30.0
176
     1
 62
     5
 63
     7
421
 16777215
176
     1
 74
     1
176
     1
 91
        4
176
     1
 64
     7
176
     1
 65
   257
176
     1
 75
     7
176
     1
175
     7
176
     1
 42
1.0
176
     1
 92
        8
176
     1
 66
     7
176
     1
 43
1.0
176
     1
 76
     1
176
     1
 77
     6
176
     1
 78
     2
176
     1
 67
     7
176
     1
 79
     5
176
     1
170
     0
176
     1
171
     0
176
     1
290
     0
176
     1
 93
        1
176
     1
 44
0.0
176
     1
173
     0
176
     1
  0
VISUALSTYLE
  5
33
102
{ACAD_REACTORS
330
2A
102
}
330
2A
100
AcDbVisualStyle
  2
Realistic
 70
     8
177
     2
291
     0
 71
     2
176
     1
 72
     2
176
     1
 73
     0
176
     1
 90
        0
176
     1
 40
-0.6
176
     1
 41
-30.0
176
     1
 62
     5
 63
     7
421
 16777215
176
     1
 74
     1
176
     1
 91
        0
176
     1
 64
     7
176
     1
 65
   257
176
     1
 75
     1
176
     1
175
     1
176
     1
 42
1.0
176
     1
 92
        8
176
     1
 66
     8
424
  7895160
176
     1
 43
1.0
176
     1
 76
     1
176
     1
 77
     6
176
     1
 78
     2
176
     1
 67
     7
176
     1
 79
     5
176
     1
170
     0
176
     1
171
     0
176
     1
290
     0
176
     1
 93
       13
176
     1
 44
0.0
176
     1
173
     0
176
     1
  0
VISUALSTYLE
  5
37
102
{ACAD_REACTORS
330
2A
102
}
330
2A
100
AcDbVisualStyle
  2
Thicken
 70
    13
177
     2
291
     1
 71
     2
176
     1
 72
     2
176
     1
 73
     0
176
     1
 90
        0
176
     1
 40
-0.6
176
     1
 41
-30.0
176
     1
 62
     5
 63
     7
421
 16777215
176
     1
 74
     1
176
     1
 91
        4
176
     1
 64
     7
176
     1
 65
   257
176
     1
 75
     1
176
     1
175
     1
176
     1
 42
1.0
176
     1
 92
       12
176
     1
 66
     7
176
     1
 43
1.0
176
     1
 76
     1
176
     1
 77
     6
176
     1
 78
     2
176
     1
 67
     7
176
     1
 79
     5
176
     1
170
     0
176
     1
171
     0
176
     1
290
     0
176
     1
 93
        1
176
     1
 44
0.0
176
     1
173
     0
176
     1
  0
ENDSEC
  0
EOF
