  0
SECTION
  2
HEADER
  9
$ACADVER
  1
AC1024
  9
$ACADMAINTVER
 70
     6
  9
$DWGCODEPAGE
  3
ANSI_1252
  9
$INSBASE
 10
0.0
 20
0.0
 30
0.0
  9
$EXTMIN
 10
1.000000000000000E+20
 20
1.000000000000000E+20
 30
1.000000000000000E+20
  9
$EXTMAX
 10
-1.000000000000000E+20
 20
-1.000000000000000E+20
 30
-1.000000000000000E+20
  9
$LIMMIN
 10
0.0
 20
0.0
  9
$LIMMAX
 10
12.0
 20
9.0
  9
$ORTHOMODE
 70
     0
  9
$REGENMODE
 70
     1
  9
$FILLMODE
 70
     1
  9
$QTEXTMODE
 70
     0
  9
$MIRRTEXT
 70
     1
  9
$LTSCALE
 40
1.0
  9
$ATTMODE
 70
     1
  9
$TEXTSIZE
 40
0.2
  9
$TRACEWID
 40
0.05
  9
$TEXTSTYLE
  7
Standard
  9
$CLAYER
  8
0
  9
$CELTYPE
  6
ByLayer
  9
$CECOLOR
 62
   256
  9
$CELTSCALE
 40
1.0
  9
$DISPSILH
 70
     0
  9
$DIMSCALE
 40
1.0
  9
$DIMASZ
 40
0.18
  9
$DIMEXO
 40
0.0625
  9
$DIMDLI
 40
0.38
  9
$DIMRND
 40
0.0
  9
$DIMDLE
 40
0.0
  9
$DIMEXE
 40
0.18
  9
$DIMTP
 40
0.0
  9
$DIMTM
 40
0.0
  9
$DIMTXT
 40
0.18
  9
$DIMCEN
 40
0.09
  9
$DIMTSZ
 40
0.0
  9
$DIMTOL
 70
     0
  9
$DIMLIM
 70
     0
  9
$DIMTIH
 70
     1
  9
$DIMTOH
 70
     1
  9
$DIMSE1
 70
     0
  9
$DIMSE2
 70
     0
  9
$DIMTAD
 70
     0
  9
$DIMZIN
 70
     0
  9
$DIMBLK
  1

  9
$DIMASO
 70
     1
  9
$DIMSHO
 70
     1
  9
$DIMPOST
  1

  9
$DIMAPOST
  1

  9
$DIMALT
 70
     0
  9
$DIMALTD
 70
     2
  9
$DIMALTF
 40
25.4
  9
$DIMLFAC
 40
1.0
  9
$DIMTOFL
 70
     0
  9
$DIMTVP
 40
0.0
  9
$DIMTIX
 70
     0
  9
$DIMSOXD
 70
     0
  9
$DIMSAH
 70
     0
  9
$DIMBLK1
  1

  9
$DIMBLK2
  1

  9
$DIMSTYLE
  2
Standard
  9
$DIMCLRD
 70
     0
  9
$DIMCLRE
 70
     0
  9
$DIMCLRT
 70
     0
  9
$DIMTFAC
 40
1.0
  9
$DIMGAP
 40
0.09
  9
$DIMJUST
 70
     0
  9
$DIMSD1
 70
     0
  9
$DIMSD2
 70
     0
  9
$DIMTOLJ
 70
     1
  9
$DIMTZIN
 70
     0
  9
$DIMALTZ
 70
     0
  9
$DIMALTTZ
 70
     0
  9
$DIMUPT
 70
     0
  9
$DIMDEC
 70
     4
  9
$DIMTDEC
 70
     4
  9
$DIMALTU
 70
     2
  9
$DIMALTTD
 70
     2
  9
$DIMTXSTY
  7
Standard
  9
$DIMAUNIT
 70
     0
  9
$DIMADEC
 70
     0
  9
$DIMALTRND
 40
0.0
  9
$DIMAZIN
 70
     0
  9
$DIMDSEP
 70
    46
  9
$DIMATFIT
 70
     3
  9
$DIMFRAC
 70
     0
  9
$DIMLDRBLK
  1

  9
$DIMLUNIT
 70
     2
  9
$DIMLWD
 70
    -2
  9
$DIMLWE
 70
    -2
  9
$DIMTMOVE
 70
     0
  9
$DIMFXL
 40
1.0
  9
$DIMFXLON
 70
     0
  9
$DIMJOGANG
 40
0.7853981633974483
  9
$DIMTFILL
 70
     0
  9
$DIMTFILLCLR
 70
     0
  9
$DIMARCSYM
 70
     0
  9
$DIMLTYPE
  6

  9
$DIMLTEX1
  6

  9
$DIMLTEX2
  6

  9
$DIMTXTDIRECTION
 70
     0
  9
$LUNITS
 70
     2
  9
$LUPREC
 70
     4
  9
$SKETCHINC
 40
0.1
  9
$FILLETRAD
 40
0.5
  9
$AUNITS
 70
     0
  9
$AUPREC
 70
     0
  9
$MENU
  1
.
  9
$ELEVATION
 40
0.0
  9
$PELEVATION
 40
0.0
  9
$THICKNESS
 40
0.0
  9
$LIMCHECK
 70
     0
  9
$CHAMFERA
 40
0.5
  9
$CHAMFERB
 40
0.5
  9
$CHAMFERC
 40
1.0
  9
$CHAMFERD
 40
0.0
  9
$SKPOLY
 70
     0
  9
$TDCREATE
 40
2459963.050342743
  9
$TDUCREATE
 40
2459963.008676076
  9
$TDUPDATE
 40
2459963.050342813
  9
$TDUUPDATE
 40
2459963.008676146
  9
$TDINDWG
 40
0.0000000116
  9
$TDUSRTIMER
 40
0.0000000116
  9
$USRTIMER
 70
     1
  9
$ANGBASE
 50
0.0
  9
$ANGDIR
 70
     0
  9
$PDMODE
 70
     0
  9
$PDSIZE
 40
0.0
  9
$PLINEWID
 40
0.0
  9
$SPLFRAME
 70
     0
  9
$SPLINETYPE
 70
     6
  9
$SPLINESEGS
 70
     8
  9
$HANDSEED
  5
CB
  9
$SURFTAB1
 70
     6
  9
$SURFTAB2
 70
     6
  9
$SURFTYPE
 70
     6
  9
$SURFU
 70
     6
  9
$SURFV
 70
     6
  9
$UCSBASE
  2

  9
$UCSNAME
  2

  9
$UCSORG
 10
0.0
 20
0.0
 30
0.0
  9
$UCSXDIR
 10
1.0
 20
0.0
 30
0.0
  9
$UCSYDIR
 10
0.0
 20
1.0
 30
0.0
  9
$UCSORTHOREF
  2

  9
$UCSORTHOVIEW
 70
     0
  9
$UCSORGTOP
 10
0.0
 20
0.0
 30
0.0
  9
$UCSORGBOTTOM
 10
0.0
 20
0.0
 30
0.0
  9
$UCSORGLEFT
 10
0.0
 20
0.0
 30
0.0
  9
$UCSORGRIGHT
 10
0.0
 20
0.0
 30
0.0
  9
$UCSORGFRONT
 10
0.0
 20
0.0
 30
0.0
  9
$UCSORGBACK
 10
0.0
 20
0.0
 30
0.0
  9
$PUCSBASE
  2

  9
$PUCSNAME
  2

  9
$PUCSORG
 10
0.0
 20
0.0
 30
0.0
  9
$PUCSXDIR
 10
1.0
 20
0.0
 30
0.0
  9
$PUCSYDIR
 10
0.0
 20
1.0
 30
0.0
  9
$PUCSORTHOREF
  2

  9
$PUCSORTHOVIEW
 70
     0
  9
$PUCSORGTOP
 10
0.0
 20
0.0
 30
0.0
  9
$PUCSORGBOTTOM
 10
0.0
 20
0.0
 30
0.0
  9
$PUCSORGLEFT
 10
0.0
 20
0.0
 30
0.0
  9
$PUCSORGRIGHT
 10
0.0
 20
0.0
 30
0.0
  9
$PUCSORGFRONT
 10
0.0
 20
0.0
 30
0.0
  9
$PUCSORGBACK
 10
0.0
 20
0.0
 30
0.0
  9
$USERI1
 70
     0
  9
$USERI2
 70
     0
  9
$USERI3
 70
     0
  9
$USERI4
 70
     0
  9
$USERI5
 70
     0
  9
$USERR1
 40
0.0
  9
$USERR2
 40
0.0
  9
$USERR3
 40
0.0
  9
$USERR4
 40
0.0
  9
$USERR5
 40
0.0
  9
$WORLDVIEW
 70
     1
  9
$SHADEDGE
 70
     3
  9
$SHADEDIF
 70
    70
  9
$TILEMODE
 70
     1
  9
$MAXACTVP
 70
    64
  9
$PINSBASE
 10
0.0
 20
0.0
 30
0.0
  9
$PLIMCHECK
 70
     0
  9
$PEXTMIN
 10
1.000000000000000E+20
 20
1.000000000000000E+20
 30
1.000000000000000E+20
  9
$PEXTMAX
 10
-1.000000000000000E+20
 20
-1.000000000000000E+20
 30
-1.000000000000000E+20
  9
$PLIMMIN
 10
0.0
 20
0.0
  9
$PLIMMAX
 10
12.0
 20
9.0
  9
$UNITMODE
 70
     0
  9
$VISRETAIN
 70
     1
  9
$PLINEGEN
 70
     0
  9
$PSLTSCALE
 70
     1
  9
$TREEDEPTH
 70
  3020
  9
$CMLSTYLE
  2
Standard
  9
$CMLJUST
 70
     0
  9
$CMLSCALE
 40
1.0
  9
$PROXYGRAPHICS
 70
     1
  9
$MEASUREMENT
 70
     0
  9
$CELWEIGHT
370
    -1
  9
$ENDCAPS
280
     0
  9
$JOINSTYLE
280
     0
  9
$LWDISPLAY
290
     1
  9
$INSUNITS
 70
     1
  9
$HYPERLINKBASE
  1

  9
$STYLESHEET
  1

  9
$XEDIT
290
     1
  9
$CEPSNTYPE
380
     0
  9
$PSTYLEMODE
290
     1
  9
$FINGERPRINTGUID
  2
{70B01307-418C-4995-B05C-DBE0BCBC4039}
  9
$VERSIONGUID
  2
{FAEB1C32-E019-11D5-929B-00C0DF256EC4}
  9
$EXTNAMES
290
     1
  9
$PSVPSCALE
 40
0.0
  9
$OLESTARTUP
290
     0
  9
$SORTENTS
280
   127
  9
$INDEXCTL
280
     0
  9
$HIDETEXT
280
     1
  9
$XCLIPFRAME
280
     2
  9
$HALOGAP
280
     0
  9
$OBSCOLOR
 70
   257
  9
$OBSLTYPE
280
     0
  9
$INTERSECTIONDISPLAY
280
     0
  9
$INTERSECTIONCOLOR
 70
   257
  9
$DIMASSOC
280
     2
  9
$PROJECTNAME
  1

  9
$CAMERADISPLAY
290
     0
  9
$LENSLENGTH
 40
50.0
  9
$CAMERAHEIGHT
 40
0.0
  9
$STEPSPERSEC
 40
2.0
  9
$STEPSIZE
 40
6.0
  9
$3DDWFPREC
 40
2.0
  9
$PSOLWIDTH
 40
0.25
  9
$PSOLHEIGHT
 40
4.0
  9
$LOFTANG1
 40
1.570796326794897
  9
$LOFTANG2
 40
1.570796326794897
  9
$LOFTMAG1
 40
0.0
  9
$LOFTMAG2
 40
0.0
  9
$LOFTPARAM
 70
     7
  9
$LOFTNORMALS
280
     1
  9
$LATITUDE
 40
37.795
  9
$LONGITUDE
 40
-122.394
  9
$NORTHDIRECTION
 40
0.0
  9
$TIMEZONE
 70
 -8000
  9
$LIGHTGLYPHDISPLAY
280
     1
  9
$TILEMODELIGHTSYNCH
280
     1
  9
$CMATERIAL
347
3C
  9
$SOLIDHIST
280
     1
  9
$SHOWHIST
280
     1
  9
$DWFFRAME
280
     2
  9
$DGNFRAME
280
     2
  9
$REALWORLDSCALE
290
     1
  9
$INTERFERECOLOR
 62
   256
  9
$CSHADOW
280
     0
  9
$SHADOWPLANELOCATION
 40
0.0
  0
ENDSEC
  0
SECTION
  2
CLASSES
  0
CLASS
  1
ACDBDICTIONARYWDFLT
  2
AcDbDictionaryWithDefault
  3
ObjectDBX Classes
 90
        0
 91
        4
280
     0
281
     0
  0
CLASS
  1
VISUALSTYLE
  2
AcDbVisualStyle
  3
ObjectDBX Classes
 90
     4095
 91
        4
280
     0
281
     0
  0
CLASS
  1
MATERIAL
  2
AcDbMaterial
  3
ObjectDBX Classes
 90
     1153
 91
        4
280
     0
281
     0
  0
CLASS
  1
SUN
  2
AcDbSun
  3
SCENEOE
 90
     1024
 91
        4
280
     0
281
     0
  0
ENDSEC
  0
SECTION
  2
TABLES
  0
TABLE
  2
VPORT
  5
8
330
0
100
AcDbSymbolTable
 70
     1
  0
VPORT
  5
29
330
8
100
AcDbSymbolTableRecord
100
AcDbViewportTableRecord
  2
*Active
 70
     0
 10
0.0
 20
0.0
 11
1.0
 21
1.0
 12
0.0
 22
0.0
 13
0.0
 23
0.0
 14
0.5
 24
0.5
 15
0.5
 25
0.5
 16
0.0
 26
0.0
 36
1.0
 17
10.99961110836131
 27
-10.99961110836131
 37
0.0
 40
21.99922221672262
 41
1.0
 42
50.0
 43
0.0
 44
0.0
 50
0.0
 51
0.0
 71
     0
 72
   100
 73
     1
 74
     3
 75
     0
 76
     0
 77
     0
 78
     0
281
     0
 65
     1
110
0.0
120
0.0
130
0.0
111
1.0
121
0.0
131
0.0
112
0.0
122
1.0
132
0.0
 79
     0
146
0.0
 60
     3
 61
     5
292
     1
282
     1
141
0.0
142
0.0
 63
   250
361
3F
  0
ENDTAB
  0
TABLE
  2
LTYPE
  5
5
330
0
100
AcDbSymbolTable
 70
     1
  0
LTYPE
  5
14
330
5
100
AcDbSymbolTableRecord
100
AcDbLinetypeTableRecord
  2
ByBlock
 70
     0
  3

 72
    65
 73
     0
 40
0.0
  0
LTYPE
  5
15
330
5
100
AcDbSymbolTableRecord
100
AcDbLinetypeTableRecord
  2
ByLayer
 70
     0
  3

 72
    65
 73
     0
 40
0.0
  0
LTYPE
  5
16
330
5
100
AcDbSymbolTableRecord
100
AcDbLinetypeTableRecord
  2
Continuous
 70
     0
  3
Solid line
 72
    65
 73
     0
 40
0.0
  0
ENDTAB
  0
TABLE
  2
LAYER
  5
2
330
0
100
AcDbSymbolTable
 70
     5
  0
LAYER
  5
10
330
2
100
AcDbSymbolTableRecord
100
AcDbLayerTableRecord
  2
0
 70
     0
 62
     7
  6
Continuous
370
    -3
390
F
347
3E
  0
LAYER
  5
40
330
2
100
AcDbSymbolTableRecord
100
AcDbLayerTableRecord
  2
Outline
 70
     0
 62
     7
  6
Continuous
370
    -3
390
F
347
3E
  0
LAYER
  5
42
330
2
100
AcDbSymbolTableRecord
100
AcDbLayerTableRecord
  2
Lines
 70
     0
 62
     7
  6
Continuous
370
    -3
390
F
347
3E
  0
LAYER
  5
70
330
2
100
AcDbSymbolTableRecord
100
AcDbLayerTableRecord
  2
Icons
 70
     0
 62
     7
  6
Continuous
370
    -3
390
F
347
3E
  0
LAYER
  5
83
330
2
100
AcDbSymbolTableRecord
100
AcDbLayerTableRecord
  2
Numbers
 70
     0
 62
     7
  6
Continuous
370
    -3
390
F
347
3E
  0
ENDTAB
  0
TABLE
  2
STYLE
  5
3
330
0
100
AcDbSymbolTable
 70
     1
  0
STYLE
  5
11
330
3
100
AcDbSymbolTableRecord
100
AcDbTextStyleTableRecord
  2
Standard
 70
     0
 40
0.0
 41
1.0
 50
0.0
 71
     0
 42
0.2
  3
txt
  4

  0
ENDTAB
  0
TABLE
  2
VIEW
  5
6
330
0
100
AcDbSymbolTable
 70
     0
  0
ENDTAB
  0
TABLE
  2
UCS
  5
7
330
0
100
AcDbSymbolTable
 70
     0
  0
ENDTAB
  0
TABLE
  2
APPID
  5
9
330
0
100
AcDbSymbolTable
 70
     1
  0
APPID
  5
12
330
9
100
AcDbSymbolTableRecord
100
AcDbRegAppTableRecord
  2
ACAD
 70
     0
  0
ENDTAB
  0
TABLE
  2
DIMSTYLE
  5
A
330
0
100
AcDbSymbolTable
 70
     1
100
AcDbDimStyleTable
  0
DIMSTYLE
105
27
330
A
100
AcDbSymbolTableRecord
100
AcDbDimStyleTableRecord
  2
Standard
 70
     0
178
     0
340
11
  0
ENDTAB
  0
TABLE
  2
BLOCK_RECORD
  5
1
330
0
100
AcDbSymbolTable
 70
     4
  0
BLOCK_RECORD
  5
1F
330
1
100
AcDbSymbolTableRecord
100
AcDbBlockTableRecord
  2
*Model_Space
340
22
 70
     0
280
     1
281
     0
  0
BLOCK_RECORD
  5
1B
330
1
100
AcDbSymbolTableRecord
100
AcDbBlockTableRecord
  2
*Paper_Space
340
1E
 70
     0
280
     1
281
     0
  0
BLOCK_RECORD
  5
23
330
1
100
AcDbSymbolTableRecord
100
AcDbBlockTableRecord
  2
*Paper_Space0
340
26
 70
     0
280
     1
281
     0
  0
BLOCK_RECORD
  5
43
330
1
100
AcDbSymbolTableRecord
100
AcDbBlockTableRecord
  2
block 2
340
0
102
{BLKREFS
331
44
102
}
 70
     0
280
     1
281
     0
  0
BLOCK_RECORD
  5
71
330
1
100
AcDbSymbolTableRecord
100
AcDbBlockTableRecord
  2
block 3
340
0
102
{BLKREFS
331
72
102
}
 70
     0
280
     1
281
     0
  0
BLOCK_RECORD
  5
84
330
1
100
AcDbSymbolTableRecord
100
AcDbBlockTableRecord
  2
block 4
340
0
102
{BLKREFS
331
85
102
}
 70
     0
280
     1
281
     0
  0
ENDTAB
  0
ENDSEC
  0
SECTION
  2
BLOCKS
  0
BLOCK
  5
20
330
1F
100
AcDbEntity
  8
0
100
AcDbBlockBegin
  2
*Model_Space
 70
     0
 10
0.0
 20
0.0
 30
0.0
  3
*Model_Space
  1

  0
ENDBLK
  5
21
330
1F
100
AcDbEntity
  8
0
100
AcDbBlockEnd
  0
BLOCK
  5
1C
330
1B
100
AcDbEntity
 67
     1
  8
0
100
AcDbBlockBegin
  2
*Paper_Space
 70
     0
 10
0.0
 20
0.0
 30
0.0
  3
*Paper_Space
  1

  0
ENDBLK
  5
1D
330
1B
100
AcDbEntity
 67
     1
  8
0
100
AcDbBlockEnd
  0
BLOCK
  5
24
330
23
100
AcDbEntity
  8
0
100
AcDbBlockBegin
  2
*Paper_Space0
 70
     0
 10
0.0
 20
0.0
 30
0.0
  3
*Paper_Space0
  1

  0
ENDBLK
  5
25
330
23
100
AcDbEntity
  8
0
100
AcDbBlockEnd
  0
BLOCK
  5
45
330
43
100
AcDbEntity
  8
0
100
AcDbBlockBegin
  2
block 2
 70
     0
 10
0.0
 20
0.0
 30
0.0
  3
block 2
  1

  0
POLYLINE
  5
47
330
43
100
AcDbEntity
  8
Lines
 62
   250
420
  2301728
370
     9
100
AcDb2dPolyline
 66
     1
 10
0.0
 20
0.0
 30
0.0
  0
VERTEX
  5
48
330
47
100
AcDbEntity
  8
Lines
 62
   250
420
  2301728
370
     9
100
AcDbVertex
100
AcDb2dVertex
 10
18.17863888434446
 20
-5.743222220786327
 30
0.0
  0
VERTEX
  5
49
330
47
100
AcDbEntity
  8
Lines
 62
   250
420
  2301728
370
     9
100
AcDbVertex
100
AcDb2dVertex
 10
13.82536110765495
 20
-8.932333331100468
 30
0.0
  0
SEQEND
  5
4A
330
47
100
AcDbEntity
  8
Lines
 62
   250
420
  2301728
370
     9
  0
POLYLINE
  5
4B
330
43
100
AcDbEntity
  8
Lines
 62
   250
420
  2301728
370
     9
100
AcDb2dPolyline
 66
     1
 10
0.0
 20
0.0
 30
0.0
  0
VERTEX
  5
4C
330
4B
100
AcDbEntity
  8
Lines
 62
   250
420
  2301728
370
     9
100
AcDbVertex
100
AcDb2dVertex
 10
13.71952777434769
 20
-2.529416666034338
 30
0.0
  0
VERTEX
  5
4D
330
4B
100
AcDbEntity
  8
Lines
 62
   250
420
  2301728
370
     9
100
AcDbVertex
100
AcDb2dVertex
 10
12.06852777476098
 20
-7.669388886971465
 30
0.0
  0
SEQEND
  5
4E
330
4B
100
AcDbEntity
  8
Lines
 62
   250
420
  2301728
370
     9
  0
POLYLINE
  5
4F
330
43
100
AcDbEntity
  8
Lines
 62
   250
420
  2301728
370
     9
100
AcDb2dPolyline
 66
     1
 10
0.0
 20
0.0
 30
0.0
  0
VERTEX
  5
50
330
4F
100
AcDbEntity
  8
Lines
 62
   250
420
  2301728
370
     9
100
AcDbVertex
100
AcDb2dVertex
 10
9.905999997523475
 20
-7.676444442525411
 30
0.0
  0
VERTEX
  5
51
330
4F
100
AcDbEntity
  8
Lines
 62
   250
420
  2301728
370
     9
100
AcDbVertex
100
AcDb2dVertex
 10
8.219722220167355
 20
-2.547055554918882
 30
0.0
  0
SEQEND
  5
52
330
4F
100
AcDbEntity
  8
Lines
 62
   250
420
  2301728
370
     9
  0
POLYLINE
  5
53
330
43
100
AcDbEntity
  8
Lines
 62
   250
420
  2301728
370
     9
100
AcDb2dPolyline
 66
     1
 10
0.0
 20
0.0
 30
0.0
  0
VERTEX
  5
54
330
53
100
AcDbEntity
  8
Lines
 62
   250
420
  2301728
370
     9
100
AcDbVertex
100
AcDb2dVertex
 10
8.159749997960102
 20
-8.953499997761664
 30
0.0
  0
VERTEX
  5
55
330
53
100
AcDbEntity
  8
Lines
 62
   250
420
  2301728
370
     9
100
AcDbVertex
100
AcDb2dVertex
 10
3.781777776832423
 20
-5.796138887439957
 30
0.0
  0
SEQEND
  5
56
330
53
100
AcDbEntity
  8
Lines
 62
   250
420
  2301728
370
     9
  0
POLYLINE
  5
57
330
43
100
AcDbEntity
  8
Lines
 62
   250
420
  2301728
370
     9
100
AcDb2dPolyline
 66
     1
 10
0.0
 20
0.0
 30
0.0
  0
VERTEX
  5
58
330
57
100
AcDbEntity
  8
Lines
 62
   250
420
  2301728
370
     9
100
AcDbVertex
100
AcDb2dVertex
 10
7.500055553680619
 20
-11.01372221946888
 30
0.0
  0
VERTEX
  5
59
330
57
100
AcDbEntity
  8
Lines
 62
   250
420
  2301728
370
     9
100
AcDbVertex
100
AcDb2dVertex
 10
2.10255555502993
 20
-11.03136110835343
 30
0.0
  0
SEQEND
  5
5A
330
57
100
AcDbEntity
  8
Lines
 62
   250
420
  2301728
370
     9
  0
POLYLINE
  5
5B
330
43
100
AcDbEntity
  8
Lines
 62
   250
420
  2301728
370
     9
100
AcDb2dPolyline
 66
     1
 10
0.0
 20
0.0
 30
0.0
  0
VERTEX
  5
5C
330
5B
100
AcDbEntity
  8
Lines
 62
   250
420
  2301728
370
     9
100
AcDbVertex
100
AcDb2dVertex
 10
8.173861109067673
 20
-13.06688888562248
 30
0.0
  0
VERTEX
  5
5D
330
5B
100
AcDbEntity
  8
Lines
 62
   250
420
  2301728
370
     9
100
AcDbVertex
100
AcDb2dVertex
 10
3.820583332378162
 20
-16.25599999593598
 30
0.0
  0
SEQEND
  5
5E
330
5B
100
AcDbEntity
  8
Lines
 62
   250
420
  2301728
370
     9
  0
POLYLINE
  5
5F
330
43
100
AcDbEntity
  8
Lines
 62
   250
420
  2301728
370
     9
100
AcDb2dPolyline
 66
     1
 10
0.0
 20
0.0
 30
0.0
  0
VERTEX
  5
60
330
5F
100
AcDbEntity
  8
Lines
 62
   250
420
  2301728
370
     9
100
AcDbVertex
100
AcDb2dVertex
 10
9.930694441961963
 20
-14.32983332975116
 30
0.0
  0
VERTEX
  5
61
330
5F
100
AcDbEntity
  8
Lines
 62
   250
420
  2301728
370
     9
100
AcDbVertex
100
AcDb2dVertex
 10
8.27969444237461
 20
-19.46980555068829
 30
0.0
  0
SEQEND
  5
62
330
5F
100
AcDbEntity
  8
Lines
 62
   250
420
  2301728
370
     9
  0
POLYLINE
  5
63
330
43
100
AcDbEntity
  8
Lines
 62
   250
420
  2301728
370
     9
100
AcDb2dPolyline
 66
     1
 10
0.0
 20
0.0
 30
0.0
  0
VERTEX
  5
64
330
63
100
AcDbEntity
  8
Lines
 62
   250
420
  2301728
370
     9
100
AcDbVertex
100
AcDb2dVertex
 10
13.77949999655495
 20
-19.45216666180342
 30
0.0
  0
VERTEX
  5
65
330
63
100
AcDbEntity
  8
Lines
 62
   250
420
  2301728
370
     9
100
AcDbVertex
100
AcDb2dVertex
 10
12.09322221919915
 20
-14.32277777419721
 30
0.0
  0
SEQEND
  5
66
330
63
100
AcDbEntity
  8
Lines
 62
   250
420
  2301728
370
     9
  0
POLYLINE
  5
67
330
43
100
AcDbEntity
  8
Lines
 62
   250
420
  2301728
370
     9
100
AcDb2dPolyline
 66
     1
 10
0.0
 20
0.0
 30
0.0
  0
VERTEX
  5
68
330
67
100
AcDbEntity
  8
Lines
 62
   250
420
  2301728
370
     9
100
AcDbVertex
100
AcDb2dVertex
 10
18.21744443988988
 20
-16.20308332928267
 30
0.0
  0
VERTEX
  5
69
330
67
100
AcDbEntity
  8
Lines
 62
   250
420
  2301728
370
     9
100
AcDbVertex
100
AcDb2dVertex
 10
13.8394722187622
 20
-13.04572221896064
 30
0.0
  0
SEQEND
  5
6A
330
67
100
AcDbEntity
  8
Lines
 62
   250
420
  2301728
370
     9
  0
POLYLINE
  5
6B
330
43
100
AcDbEntity
  8
Lines
 62
   250
420
  2301728
370
     9
100
AcDb2dPolyline
 66
     1
 10
0.0
 20
0.0
 30
0.0
  0
VERTEX
  5
6C
330
6B
100
AcDbEntity
  8
Lines
 62
   250
420
  2301728
370
     9
100
AcDbVertex
100
AcDb2dVertex
 10
19.89666666169237
 20
-10.9678611083692
 30
0.0
  0
VERTEX
  5
6D
330
6B
100
AcDbEntity
  8
Lines
 62
   250
420
  2301728
370
     9
100
AcDbVertex
100
AcDb2dVertex
 10
14.499166663042
 20
-10.98549999725374
 30
0.0
  0
SEQEND
  5
6E
330
6B
100
AcDbEntity
  8
Lines
 62
   250
420
  2301728
370
     9
  0
SPLINE
  5
6F
330
43
100
AcDbEntity
  8
Lines
 62
   250
420
  2301728
370
     9
100
AcDbSpline
210
0.0
220
0.0
230
1.0
 70
    11
 71
     3
 72
    41
 73
    37
 74
     0
 42
0.0000000001
 43
0.0000000001
 12
1.0
 22
0.0
 32
0.0
 13
1.0
 23
0.0
 33
0.0
 40
0.0
 40
0.0
 40
0.0
 40
0.0
 40
1.0
 40
1.0
 40
1.0
 40
2.0
 40
2.0
 40
2.0
 40
3.0
 40
3.0
 40
3.0
 40
4.0
 40
4.0
 40
4.0
 40
5.0
 40
5.0
 40
5.0
 40
6.0
 40
6.0
 40
6.0
 40
7.0
 40
7.0
 40
7.0
 40
8.0
 40
8.0
 40
8.0
 40
9.0
 40
9.0
 40
9.0
 40
10.0
 40
10.0
 40
10.0
 40
11.0
 40
11.0
 40
11.0
 40
12.0
 40
12.0
 40
12.0
 40
12.0
 10
14.49915805030316
 20
-10.98550516489685
 30
0.0
 10
14.50268927317554
 20
-11.71573621668912
 30
0.0
 10
14.27690632781098
 20
-12.44245757745579
 30
0.0
 10
13.83946532857138
 20
-13.04571532876982
 30
0.0
 10
13.62780727469635
 20
-13.33852691316928
 30
0.0
 10
13.37028638717392
 20
-13.60311024643646
 30
0.0
 10
13.06688113415733
 20
-13.82536196892864
 30
0.0
 10
12.76349741298751
 20
-14.04761369142082
 30
0.0
 10
12.43541666355781
 20
-14.21340891164847
 30
0.0
 10
12.09323255448537
 20
-14.32276916145837
 30
0.0
 10
11.38767699910621
 20
-14.55912424359329
 30
0.0
 10
10.62566494146251
 20
-14.55561455256769
 30
0.0
 10
9.930703054700484
 20
-14.32983160720313
 30
0.0
 10
9.24982299573442
 20
-14.11464233045571
 30
0.0
 10
8.62895219375205
 20
-13.68777346798648
 30
0.0
 10
8.173855080150547
 20
-13.06688113415733
 30
0.0
 10
7.722310721268207
 20
-12.44598880032817
 30
0.0
 10
7.503590221648408
 20
-11.72632988530627
 30
0.0
 10
7.500058998776027
 20
-11.01371188418234
 30
0.0
 10
7.496527775903647
 20
-10.28345930054329
 30
0.0
 10
7.722310721268207
 20
-9.556737939776614
 30
0.0
 10
8.159751720507806
 20
-8.953501720309369
 30
0.0
 10
8.371409774382842
 20
-8.660690135909915
 30
0.0
 10
8.62895219375205
 20
-8.396106802642727
 30
0.0
 10
8.932335914921865
 20
-8.173855080150547
 30
0.0
 10
9.235719636091678
 20
-7.951603357658366
 30
0.0
 10
9.563800385521377
 20
-7.785808137430719
 30
0.0
 10
9.9060060264406
 20
-7.676447887620819
 30
0.0
 10
10.61156158181977
 20
-7.440071273639115
 30
0.0
 10
11.37355210761668
 20
-7.443602496511495
 30
0.0
 10
12.06853552622549
 20
-7.669385441876057
 30
0.0
 10
12.74939405334477
 20
-7.884574718623475
 30
0.0
 10
13.37028638717392
 20
-8.311443581092712
 30
0.0
 10
13.82536196892864
 20
-8.932335914921865
 30
0.0
 10
14.27690632781098
 20
-9.553206716904233
 30
0.0
 10
14.49564835927757
 20
-10.27288716377292
 30
0.0
 10
14.49915805030316
 20
-10.98550516489685
 30
0.0
  0
ENDBLK
  5
46
330
43
100
AcDbEntity
  8
0
100
AcDbBlockEnd
  0
BLOCK
  5
73
330
71
100
AcDbEntity
  8
0
100
AcDbBlockBegin
  2
block 3
 70
     0
 10
0.0
 20
0.0
 30
0.0
  3
block 3
  1

  0
SPLINE
  5
75
330
71
100
AcDbEntity
  8
Icons
370
     0
100
AcDbSpline
210
0.0
220
0.0
230
1.0
 70
    11
 71
     3
 72
   125
 73
   121
 74
     0
 42
0.0000000001
 43
0.0000000001
 12
1.0
 22
0.0
 32
0.0
 13
1.0
 23
0.0
 33
0.0
 40
0.0
 40
0.0
 40
0.0
 40
0.0
 40
1.0
 40
1.0
 40
1.0
 40
2.0
 40
2.0
 40
2.0
 40
3.0
 40
3.0
 40
3.0
 40
4.0
 40
4.0
 40
4.0
 40
5.0
 40
5.0
 40
5.0
 40
6.0
 40
6.0
 40
6.0
 40
7.0
 40
7.0
 40
7.0
 40
8.0
 40
8.0
 40
8.0
 40
9.0
 40
9.0
 40
9.0
 40
10.0
 40
10.0
 40
10.0
 40
11.0
 40
11.0
 40
11.0
 40
12.0
 40
12.0
 40
12.0
 40
13.0
 40
13.0
 40
13.0
 40
14.0
 40
14.0
 40
14.0
 40
15.0
 40
15.0
 40
15.0
 40
16.0
 40
16.0
 40
16.0
 40
17.0
 40
17.0
 40
17.0
 40
18.0
 40
18.0
 40
18.0
 40
19.0
 40
19.0
 40
19.0
 40
20.0
 40
20.0
 40
20.0
 40
21.0
 40
21.0
 40
21.0
 40
22.0
 40
22.0
 40
22.0
 40
23.0
 40
23.0
 40
23.0
 40
24.0
 40
24.0
 40
24.0
 40
25.0
 40
25.0
 40
25.0
 40
26.0
 40
26.0
 40
26.0
 40
27.0
 40
27.0
 40
27.0
 40
28.0
 40
28.0
 40
28.0
 40
29.0
 40
29.0
 40
29.0
 40
30.0
 40
30.0
 40
30.0
 40
31.0
 40
31.0
 40
31.0
 40
32.0
 40
32.0
 40
32.0
 40
33.0
 40
33.0
 40
33.0
 40
34.0
 40
34.0
 40
34.0
 40
35.0
 40
35.0
 40
35.0
 40
36.0
 40
36.0
 40
36.0
 40
37.0
 40
37.0
 40
37.0
 40
38.0
 40
38.0
 40
38.0
 40
39.0
 40
39.0
 40
39.0
 40
40.0
 40
40.0
 40
40.0
 40
40.0
 10
10.16177531549164
 20
-13.14961109580318
 30
0.0
 10
9.96472720608279
 20
-13.14950271796259
 30
0.0
 10
9.768550454508121
 20
-13.14055070836378
 30
0.0
 10
9.59499649329539
 20
-13.04234102164738
 30
0.0
 10
9.31328198946621
 20
-12.88292559995345
 30
0.0
 10
9.122354518582004
 20
-12.65866641594257
 30
0.0
 10
9.083834360859088
 20
-12.3176253405045
 30
0.0
 10
9.00915303360964
 20
-11.65642861096186
 30
0.0
 10
9.22239611593006
 20
-11.09302481921409
 30
0.0
 10
9.640525301438187
 20
-10.59414037878032
 30
0.0
 10
9.913505237742452
 20
-10.26843881383681
 30
0.0
 10
10.24619731788277
 20
-10.01626424376527
 30
0.0
 10
10.61743390463296
 20
-9.812955652292263
 30
0.0
 10
10.68135399874404
 20
-9.777949609911216
 30
0.0
 10
10.74094056879057
 20
-9.797069339469086
 30
0.0
 10
10.75576709083948
 20
-9.86196179956317
 30
0.0
 10
10.76133409922907
 20
-9.886327450097681
 30
0.0
 10
10.75228050346813
 20
-9.931055707261908
 30
0.0
 10
10.73522862310102
 20
-9.94077589899229
 30
0.0
 10
10.63255044578215
 20
-9.999306001852009
 30
0.0
 10
10.62277144101034
 20
-10.09995491249037
 30
0.0
 10
10.61338302997436
 20
-10.19809292532784
 30
0.0
 10
10.60732846580667
 20
-10.2613832719363
 30
0.0
 10
10.60861989615015
 20
-10.32848158233682
 30
0.0
 10
10.62310957987154
 20
-10.3899884632071
 30
0.0
 10
10.65371389239885
 20
-10.51989996871166
 30
0.0
 10
10.7743641501997
 20
-10.55253903906137
 30
0.0
 10
10.86496441200009
 20
-10.45490028680776
 30
0.0
 10
10.90880758346868
 20
-10.40765101657769
 30
0.0
 10
10.94019698507064
 20
-10.3468536493024
 30
0.0
 10
10.96898416247714
 20
-10.28814913037183
 30
0.0
 10
11.00208882402905
 20
-10.22064028471206
 30
0.0
 10
11.02279751722791
 20
-10.14712817372815
 30
0.0
 10
11.05466970598134
 20
-10.07892455386173
 30
0.0
 10
11.13588126773894
 20
-9.905139531093722
 30
0.0
 10
11.28542895933547
 20
-9.810326839400096
 30
0.0
 10
11.45900633016231
 20
-9.753549495223837
 30
0.0
 10
11.66823654231947
 20
-9.685110261932785
 30
0.0
 10
11.86119909616118
 20
-9.591509957011304
 30
0.0
 10
12.02592185294087
 20
-9.443116489412176
 30
0.0
 10
12.07116396557085
 20
-9.40235934081772
 30
0.0
 10
12.11015917949167
 20
-9.400777746869123
 30
0.0
 10
12.15025898036057
 20
-9.428116273811197
 30
0.0
 10
12.18954349086448
 20
-9.454899183693712
 30
0.0
 10
12.19937119341149
 20
-9.493008372646047
 30
0.0
 10
12.18138740812277
 20
-9.549710069089887
 30
0.0
 10
12.17616012813457
 20
-9.56618956995663
 30
0.0
 10
12.16621364347426
 20
-9.58247738655116
 30
0.0
 10
12.16607318579348
 20
-9.59891844941058
 30
0.0
 10
12.1659148096424
 20
-9.617398749711574
 30
0.0
 10
12.16882887300982
 20
-9.644204129932776
 30
0.0
 10
12.18066720124858
 20
-9.65220400408009
 30
0.0
 10
12.19303643640071
 20
-9.660562753382596
 30
0.0
 10
12.22242330452307
 20
-9.657561409728775
 30
0.0
 10
12.23598325088019
 20
-9.64783392055649
 30
0.0
 10
12.28323020904841
 20
-9.613940629587447
 30
0.0
 10
12.32682064339521
 20
-9.574954663907937
 30
0.0
 10
12.37184542232975
 20
-9.537958876633969
 30
0.0
 10
12.64228859465424
 20
-9.315741892391909
 30
0.0
 10
12.91222311364903
 20
-9.092896461179317
 30
0.0
 10
13.18421594458388
 20
-8.8725928154526
 30
0.0
 10
13.20527014633796
 20
-8.855539815181094
 30
0.0
 10
13.24296973930519
 20
-8.845742241672626
 30
0.0
 10
13.2691815702207
 20
-8.851060468731694
 30
0.0
 10
13.32762699386139
 20
-8.862918828808192
 30
0.0
 10
13.34165455447288
 20
-8.911684594030085
 30
0.0
 10
13.3058722377494
 20
-8.962897567009223
 30
0.0
 10
13.24179290046554
 20
-9.054609677072568
 30
0.0
 10
13.17593009744253
 20
-9.145073491172358
 30
0.0
 10
13.11114615969323
 20
-9.236295950154949
 30
0.0
 10
12.81818843034414
 20
-9.64881163317878
 30
0.0
 10
12.52406195436659
 20
-10.06050841324241
 30
0.0
 10
12.23348940452531
 20
-10.4746978836308
 30
0.0
 10
12.1713232973796
 20
-10.5633106403464
 30
0.0
 10
12.11962822364173
 20
-10.6596893195773
 30
0.0
 10
12.0682250475524
 20
-10.75524215966853
 30
0.0
 10
12.04501745036553
 20
-10.79838260922028
 30
0.0
 10
12.01924606699245
 20
-10.85126824965958
 30
0.0
 10
12.06405524627756
 20
-10.89541011045613
 30
0.0
 10
12.10868177277418
 20
-10.93937177503025
 30
0.0
 10
12.16156871374813
 20
-10.91585262768017
 30
0.0
 10
12.20990609749323
 20
-10.89640198444929
 30
0.0
 10
12.23602833606177
 20
-10.88589048998197
 30
0.0
 10
12.26084657245582
 20
-10.87140644190795
 30
0.0
 10
12.28479084994832
 20
-10.85638353921294
 30
0.0
 10
12.32176416688264
 20
-10.83318634629912
 30
0.0
 10
12.35859962720484
 20
-10.82503734424396
 30
0.0
 10
12.3923970399122
 20
-10.85845644603585
 30
0.0
 10
12.42563233288803
 20
-10.8913196417604
 30
0.0
 10
12.42525922410955
 20
-10.92820582291156
 30
0.0
 10
12.40467928378473
 20
-10.97064774115787
 30
0.0
 10
12.28524516985481
 20
-11.21695849206045
 30
0.0
 10
12.11859559958004
 20
-11.41589974558176
 30
0.0
 10
11.86990573832997
 20
-11.54391593941687
 30
0.0
 10
11.71151889459085
 20
-11.62544699904756
 30
0.0
 10
11.60477336918194
 20
-11.75986933476492
 30
0.0
 10
11.54431385175944
 20
-11.92823763308098
 30
0.0
 10
11.53390842307214
 20
-11.95721468846288
 30
0.0
 10
11.52905887598227
 20
-11.98966792694309
 30
0.0
 10
11.52889414166536
 20
-12.02055416635884
 30
0.0
 10
11.52845745122203
 20
-12.1024019782891
 30
0.0
 10
11.57829016015427
 20
-12.13967066096458
 30
0.0
 10
11.65668548760811
 20
-12.11419059722579
 30
0.0
 10
11.69502812242903
 20
-12.10172887965025
 30
0.0
 10
11.73096939331785
 20
-12.0803108173606
 30
0.0
 10
11.76599595523561
 20
-12.05956643172728
 30
0.0
 10
11.82438097629309
 20
-12.02498812055666
 30
0.0
 10
11.8575567337071
 20
-12.02387486338186
 30
0.0
 10
11.89872326153099
 20
-12.06011583512456
 30
0.0
 10
11.93535034739356
 20
-12.09236012112959
 30
0.0
 10
11.93832885944914
 20
-12.12696241992857
 30
0.0
 10
11.91007750208524
 20
-12.18880454958426
 30
0.0
 10
11.80944275281678
 20
-12.40909623762188
 30
0.0
 10
11.64753146171421
 20
-12.57712610806896
 30
0.0
 10
11.45179067806665
 20
-12.712976719216
 30
0.0
 10
11.204619840624
 20
-12.88452034374604
 30
0.0
 10
10.94175632543525
 20
-13.02810450856071
 30
0.0
 10
10.64384861886558
 20
-13.0880767592132
 30
0.0
 10
10.4854476137556
 20
-13.11996440987119
 30
0.0
 10
10.32261019788431
 20
-13.12981378798824
 30
0.0
 10
10.16177531549164
 20
-13.14961109580318
 30
0.0
  0
SPLINE
  5
76
330
71
100
AcDbEntity
  8
Icons
370
     0
100
AcDbSpline
210
0.0
220
0.0
230
1.0
 70
    11
 71
     3
 72
    38
 73
    34
 74
     0
 42
0.0000000001
 43
0.0000000001
 12
1.0
 22
0.0
 32
0.0
 13
1.0
 23
0.0
 33
0.0
 40
0.0
 40
0.0
 40
0.0
 40
0.0
 40
1.0
 40
1.0
 40
1.0
 40
2.0
 40
2.0
 40
2.0
 40
3.0
 40
3.0
 40
3.0
 40
4.0
 40
4.0
 40
4.0
 40
5.0
 40
5.0
 40
5.0
 40
6.0
 40
6.0
 40
6.0
 40
7.0
 40
7.0
 40
7.0
 40
8.0
 40
8.0
 40
8.0
 40
9.0
 40
9.0
 40
9.0
 40
10.0
 40
10.0
 40
10.0
 40
11.0
 40
11.0
 40
11.0
 40
11.0
 10
9.615721659925693
 20
-12.04007113682712
 30
0.0
 10
9.606922101821839
 20
-12.3416222173755
 30
0.0
 10
9.743565966506509
 20
-12.6110316096085
 30
0.0
 10
10.02679620668331
 20
-12.65494602144403
 30
0.0
 10
10.09026270340733
 20
-12.66478672933307
 30
0.0
 10
10.15602825538222
 20
-12.67217000582143
 30
0.0
 10
10.21959070262098
 20
-12.66689388355382
 30
0.0
 10
10.50664747532683
 20
-12.64306752115261
 30
0.0
 10
10.64867721290612
 20
-12.52776448148242
 30
0.0
 10
10.7038468802002
 20
-12.27386150161469
 30
0.0
 10
10.74010634842906
 20
-12.10698737245598
 30
0.0
 10
10.75060657160098
 20
-11.93448886690221
 30
0.0
 10
10.77208850456421
 20
-11.76443912252175
 30
0.0
 10
10.7893585856491
 20
-11.62773044788776
 30
0.0
 10
10.82493339493433
 20
-11.49942264541123
 30
0.0
 10
10.92588576352569
 20
-11.39728216668355
 30
0.0
 10
10.94866403996098
 20
-11.37423612473196
 30
0.0
 10
10.96842189824236
 20
-11.34569055765607
 30
0.0
 10
10.98156668521877
 20
-11.31611901369402
 30
0.0
 10
11.01773930667
 20
-11.23474170609423
 30
0.0
 10
10.96611648482499
 20
-11.13899898802791
 30
0.0
 10
10.88107817378268
 20
-11.13768949471058
 30
0.0
 10
10.84190767676737
 20
-11.13708662491244
 30
0.0
 10
10.7981410923063
 20
-11.15617124004915
 30
0.0
 10
10.76369644713832
 20
-11.17783640381417
 30
0.0
 10
10.64291700295143
 20
-11.25380493467124
 30
0.0
 10
10.51458333429635
 20
-11.296851456762
 30
0.0
 10
10.37066796680218
 20
-11.28973551227956
 30
0.0
 10
10.20600431207136
 20
-11.28159416892458
 30
0.0
 10
10.06536975855531
 20
-11.33699085166931
 30
0.0
 10
9.945693095018083
 20
-11.45019511833834
 30
0.0
 10
9.752029408802274
 20
-11.63338430305498
 30
0.0
 10
9.62568786935407
 20
-11.84919897476695
 30
0.0
 10
9.615721659925693
 20
-12.04007113682712
 30
0.0
  0
SPLINE
  5
77
330
71
100
AcDbEntity
  8
Icons
370
     0
100
AcDbSpline
210
0.0
220
0.0
230
1.0
 70
    11
 71
     3
 72
    29
 73
    25
 74
     0
 42
0.0000000001
 43
0.0000000001
 12
1.0
 22
0.0
 32
0.0
 13
1.0
 23
0.0
 33
0.0
 40
0.0
 40
0.0
 40
0.0
 40
0.0
 40
1.0
 40
1.0
 40
1.0
 40
2.0
 40
2.0
 40
2.0
 40
3.0
 40
3.0
 40
3.0
 40
4.0
 40
4.0
 40
4.0
 40
5.0
 40
5.0
 40
5.0
 40
6.0
 40
6.0
 40
6.0
 40
7.0
 40
7.0
 40
7.0
 40
8.0
 40
8.0
 40
8.0
 40
8.0
 10
11.54171914176155
 20
-11.22958985708246
 30
0.0
 10
11.53810134495202
 20
-11.22275078185598
 30
0.0
 10
11.53306452095637
 20
-11.19933134211814
 30
0.0
 10
11.52258221625378
 20
-11.19656756268933
 30
0.0
 10
11.50548799627539
 20
-11.19206135659735
 30
0.0
 10
11.47951633065322
 20
-11.19462167469415
 30
0.0
 10
11.46656474524095
 20
-11.20537275644152
 30
0.0
 10
11.38900233761461
 20
-11.26975815274639
 30
0.0
 10
11.31269393385035
 20
-11.3358327983207
 30
0.0
 10
11.23882851110844
 20
-11.40442469986302
 30
0.0
 10
11.1961952698469
 20
-11.44401469137176
 30
0.0
 10
11.15672810655802
 20
-11.4875840281647
 30
0.0
 10
11.11981735976231
 20
-11.53262470251514
 30
0.0
 10
11.07171609520464
 20
-11.59132098472967
 30
0.0
 10
11.07693773954483
 20
-11.66180617488866
 30
0.0
 10
11.12813702078953
 20
-11.70613242251649
 30
0.0
 10
11.18151874272945
 20
-11.75234820166316
 30
0.0
 10
11.25405718719667
 20
-11.74718392532619
 30
0.0
 10
11.30412572630922
 20
-11.68942402765147
 30
0.0
 10
11.34429199892004
 20
-11.64308773234679
 30
0.0
 10
11.3829771077149
 20
-11.59487635590287
 30
0.0
 10
11.41702711304081
 20
-11.54395784551553
 30
0.0
 10
11.47877647126468
 20
-11.45161703560089
 30
0.0
 10
11.5221177810817
 20
-11.35084876483368
 30
0.0
 10
11.54171914176155
 20
-11.22958985708246
 30
0.0
  0
HATCH
  5
78
330
71
100
AcDbEntity
  8
Icons
 62
     7
420
 16777215
100
AcDbHatch
 10
0.0
 20
0.0
 30
0.0
210
0.0
220
0.0
230
1.0
  2
SOLID
 70
     1
 71
     0
 91
        3
 92
        1
 93
        1
 72
     4
 94
        3
 73
     0
 74
     1
 95
      125
 96
      121
 40
0.0
 40
0.0
 40
0.0
 40
0.0
 40
1.0
 40
1.0
 40
1.0
 40
2.0
 40
2.0
 40
2.0
 40
3.0
 40
3.0
 40
3.0
 40
4.0
 40
4.0
 40
4.0
 40
5.0
 40
5.0
 40
5.0
 40
6.0
 40
6.0
 40
6.0
 40
7.0
 40
7.0
 40
7.0
 40
8.0
 40
8.0
 40
8.0
 40
9.0
 40
9.0
 40
9.0
 40
10.0
 40
10.0
 40
10.0
 40
11.0
 40
11.0
 40
11.0
 40
12.0
 40
12.0
 40
12.0
 40
13.0
 40
13.0
 40
13.0
 40
14.0
 40
14.0
 40
14.0
 40
15.0
 40
15.0
 40
15.0
 40
16.0
 40
16.0
 40
16.0
 40
17.0
 40
17.0
 40
17.0
 40
18.0
 40
18.0
 40
18.0
 40
19.0
 40
19.0
 40
19.0
 40
20.0
 40
20.0
 40
20.0
 40
21.0
 40
21.0
 40
21.0
 40
22.0
 40
22.0
 40
22.0
 40
23.0
 40
23.0
 40
23.0
 40
24.0
 40
24.0
 40
24.0
 40
25.0
 40
25.0
 40
25.0
 40
26.0
 40
26.0
 40
26.0
 40
27.0
 40
27.0
 40
27.0
 40
28.0
 40
28.0
 40
28.0
 40
29.0
 40
29.0
 40
29.0
 40
30.0
 40
30.0
 40
30.0
 40
31.0
 40
31.0
 40
31.0
 40
32.0
 40
32.0
 40
32.0
 40
33.0
 40
33.0
 40
33.0
 40
34.0
 40
34.0
 40
34.0
 40
35.0
 40
35.0
 40
35.0
 40
36.0
 40
36.0
 40
36.0
 40
37.0
 40
37.0
 40
37.0
 40
38.0
 40
38.0
 40
38.0
 40
39.0
 40
39.0
 40
39.0
 40
40.0
 40
40.0
 40
40.0
 40
40.0
 10
10.16177531549164
 20
-13.14961109580318
 10
9.96472720608279
 20
-13.14950271796259
 10
9.768550454508121
 20
-13.14055070836378
 10
9.59499649329539
 20
-13.04234102164738
 10
9.31328198946621
 20
-12.88292559995345
 10
9.122354518582004
 20
-12.65866641594257
 10
9.083834360859088
 20
-12.3176253405045
 10
9.00915303360964
 20
-11.65642861096186
 10
9.22239611593006
 20
-11.09302481921409
 10
9.640525301438187
 20
-10.59414037878032
 10
9.913505237742452
 20
-10.26843881383681
 10
10.24619731788277
 20
-10.01626424376527
 10
10.61743390463296
 20
-9.812955652292263
 10
10.68135399874404
 20
-9.777949609911216
 10
10.74094056879057
 20
-9.797069339469086
 10
10.75576709083948
 20
-9.86196179956317
 10
10.76133409922907
 20
-9.886327450097681
 10
10.75228050346813
 20
-9.931055707261908
 10
10.73522862310102
 20
-9.94077589899229
 10
10.63255044578215
 20
-9.999306001852009
 10
10.62277144101034
 20
-10.09995491249037
 10
10.61338302997436
 20
-10.19809292532784
 10
10.60732846580667
 20
-10.2613832719363
 10
10.60861989615015
 20
-10.32848158233682
 10
10.62310957987154
 20
-10.3899884632071
 10
10.65371389239885
 20
-10.51989996871166
 10
10.7743641501997
 20
-10.55253903906137
 10
10.86496441200009
 20
-10.45490028680776
 10
10.90880758346868
 20
-10.40765101657769
 10
10.94019698507064
 20
-10.3468536493024
 10
10.96898416247714
 20
-10.28814913037183
 10
11.00208882402905
 20
-10.22064028471206
 10
11.02279751722791
 20
-10.14712817372815
 10
11.05466970598134
 20
-10.07892455386173
 10
11.13588126773894
 20
-9.905139531093722
 10
11.28542895933547
 20
-9.810326839400096
 10
11.45900633016231
 20
-9.753549495223837
 10
11.66823654231947
 20
-9.685110261932785
 10
11.86119909616118
 20
-9.591509957011304
 10
12.02592185294087
 20
-9.443116489412176
 10
12.07116396557085
 20
-9.40235934081772
 10
12.11015917949167
 20
-9.400777746869123
 10
12.15025898036057
 20
-9.428116273811197
 10
12.18954349086448
 20
-9.454899183693712
 10
12.19937119341149
 20
-9.493008372646047
 10
12.18138740812277
 20
-9.549710069089887
 10
12.17616012813457
 20
-9.56618956995663
 10
12.16621364347426
 20
-9.58247738655116
 10
12.16607318579348
 20
-9.59891844941058
 10
12.1659148096424
 20
-9.617398749711574
 10
12.16882887300982
 20
-9.644204129932776
 10
12.18066720124858
 20
-9.65220400408009
 10
12.19303643640071
 20
-9.660562753382596
 10
12.22242330452307
 20
-9.657561409728775
 10
12.23598325088019
 20
-9.64783392055649
 10
12.28323020904841
 20
-9.613940629587447
 10
12.32682064339521
 20
-9.574954663907937
 10
12.37184542232975
 20
-9.537958876633969
 10
12.64228859465424
 20
-9.315741892391909
 10
12.91222311364903
 20
-9.092896461179317
 10
13.18421594458388
 20
-8.8725928154526
 10
13.20527014633796
 20
-8.855539815181094
 10
13.24296973930519
 20
-8.845742241672626
 10
13.2691815702207
 20
-8.851060468731694
 10
13.32762699386139
 20
-8.862918828808192
 10
13.34165455447288
 20
-8.911684594030085
 10
13.3058722377494
 20
-8.962897567009223
 10
13.24179290046554
 20
-9.054609677072568
 10
13.17593009744253
 20
-9.145073491172358
 10
13.11114615969323
 20
-9.236295950154949
 10
12.81818843034414
 20
-9.64881163317878
 10
12.52406195436659
 20
-10.06050841324241
 10
12.23348940452531
 20
-10.4746978836308
 10
12.1713232973796
 20
-10.5633106403464
 10
12.11962822364173
 20
-10.6596893195773
 10
12.0682250475524
 20
-10.75524215966853
 10
12.04501745036553
 20
-10.79838260922028
 10
12.01924606699245
 20
-10.85126824965958
 10
12.06405524627756
 20
-10.89541011045613
 10
12.10868177277418
 20
-10.93937177503025
 10
12.16156871374813
 20
-10.91585262768017
 10
12.20990609749323
 20
-10.89640198444929
 10
12.23602833606177
 20
-10.88589048998197
 10
12.26084657245582
 20
-10.87140644190795
 10
12.28479084994832
 20
-10.85638353921294
 10
12.32176416688264
 20
-10.83318634629912
 10
12.35859962720484
 20
-10.82503734424396
 10
12.3923970399122
 20
-10.85845644603585
 10
12.42563233288803
 20
-10.8913196417604
 10
12.42525922410955
 20
-10.92820582291156
 10
12.40467928378473
 20
-10.97064774115787
 10
12.28524516985481
 20
-11.21695849206045
 10
12.11859559958004
 20
-11.41589974558176
 10
11.86990573832997
 20
-11.54391593941687
 10
11.71151889459085
 20
-11.62544699904756
 10
11.60477336918194
 20
-11.75986933476492
 10
11.54431385175944
 20
-11.92823763308098
 10
11.53390842307214
 20
-11.95721468846288
 10
11.52905887598227
 20
-11.98966792694309
 10
11.52889414166536
 20
-12.02055416635884
 10
11.52845745122203
 20
-12.1024019782891
 10
11.57829016015427
 20
-12.13967066096458
 10
11.65668548760811
 20
-12.11419059722579
 10
11.69502812242903
 20
-12.10172887965025
 10
11.73096939331785
 20
-12.0803108173606
 10
11.76599595523561
 20
-12.05956643172728
 10
11.82438097629309
 20
-12.02498812055666
 10
11.8575567337071
 20
-12.02387486338186
 10
11.89872326153099
 20
-12.06011583512456
 10
11.93535034739356
 20
-12.09236012112959
 10
11.93832885944914
 20
-12.12696241992857
 10
11.91007750208524
 20
-12.18880454958426
 10
11.80944275281678
 20
-12.40909623762188
 10
11.64753146171421
 20
-12.57712610806896
 10
11.45179067806665
 20
-12.712976719216
 10
11.204619840624
 20
-12.88452034374604
 10
10.94175632543525
 20
-13.02810450856071
 10
10.64384861886558
 20
-13.0880767592132
 10
10.4854476137556
 20
-13.11996440987119
 10
10.32261019788431
 20
-13.12981378798824
 10
10.16177531549164
 20
-13.14961109580318
 97
        0
 97
        0
 92
        1
 93
        1
 72
     4
 94
        3
 73
     0
 74
     1
 95
       38
 96
       34
 40
0.0
 40
0.0
 40
0.0
 40
0.0
 40
1.0
 40
1.0
 40
1.0
 40
2.0
 40
2.0
 40
2.0
 40
3.0
 40
3.0
 40
3.0
 40
4.0
 40
4.0
 40
4.0
 40
5.0
 40
5.0
 40
5.0
 40
6.0
 40
6.0
 40
6.0
 40
7.0
 40
7.0
 40
7.0
 40
8.0
 40
8.0
 40
8.0
 40
9.0
 40
9.0
 40
9.0
 40
10.0
 40
10.0
 40
10.0
 40
11.0
 40
11.0
 40
11.0
 40
11.0
 10
9.615721659925693
 20
-12.04007113682712
 10
9.606922101821839
 20
-12.3416222173755
 10
9.743565966506509
 20
-12.6110316096085
 10
10.02679620668331
 20
-12.65494602144403
 10
10.09026270340733
 20
-12.66478672933307
 10
10.15602825538222
 20
-12.67217000582143
 10
10.21959070262098
 20
-12.66689388355382
 10
10.50664747532683
 20
-12.64306752115261
 10
10.64867721290612
 20
-12.52776448148242
 10
10.7038468802002
 20
-12.27386150161469
 10
10.74010634842906
 20
-12.10698737245598
 10
10.75060657160098
 20
-11.93448886690221
 10
10.77208850456421
 20
-11.76443912252175
 10
10.7893585856491
 20
-11.62773044788776
 10
10.82493339493433
 20
-11.49942264541123
 10
10.92588576352569
 20
-11.39728216668355
 10
10.94866403996098
 20
-11.37423612473196
 10
10.96842189824236
 20
-11.34569055765607
 10
10.98156668521877
 20
-11.31611901369402
 10
11.01773930667
 20
-11.23474170609423
 10
10.96611648482499
 20
-11.13899898802791
 10
10.88107817378268
 20
-11.13768949471058
 10
10.84190767676737
 20
-11.13708662491244
 10
10.7981410923063
 20
-11.15617124004915
 10
10.76369644713832
 20
-11.17783640381417
 10
10.64291700295143
 20
-11.25380493467124
 10
10.51458333429635
 20
-11.296851456762
 10
10.37066796680218
 20
-11.28973551227956
 10
10.20600431207136
 20
-11.28159416892458
 10
10.06536975855531
 20
-11.33699085166931
 10
9.945693095018083
 20
-11.45019511833834
 10
9.752029408802274
 20
-11.63338430305498
 10
9.62568786935407
 20
-11.84919897476695
 10
9.615721659925693
 20
-12.04007113682712
 97
        0
 97
        0
 92
        1
 93
        1
 72
     4
 94
        3
 73
     0
 74
     1
 95
       29
 96
       25
 40
0.0
 40
0.0
 40
0.0
 40
0.0
 40
1.0
 40
1.0
 40
1.0
 40
2.0
 40
2.0
 40
2.0
 40
3.0
 40
3.0
 40
3.0
 40
4.0
 40
4.0
 40
4.0
 40
5.0
 40
5.0
 40
5.0
 40
6.0
 40
6.0
 40
6.0
 40
7.0
 40
7.0
 40
7.0
 40
8.0
 40
8.0
 40
8.0
 40
8.0
 10
11.54171914176155
 20
-11.22958985708246
 10
11.53810134495202
 20
-11.22275078185598
 10
11.53306452095637
 20
-11.19933134211814
 10
11.52258221625378
 20
-11.19656756268933
 10
11.50548799627539
 20
-11.19206135659735
 10
11.47951633065322
 20
-11.19462167469415
 10
11.46656474524095
 20
-11.20537275644152
 10
11.38900233761461
 20
-11.26975815274639
 10
11.31269393385035
 20
-11.3358327983207
 10
11.23882851110844
 20
-11.40442469986302
 10
11.1961952698469
 20
-11.44401469137176
 10
11.15672810655802
 20
-11.4875840281647
 10
11.11981735976231
 20
-11.53262470251514
 10
11.07171609520464
 20
-11.59132098472967
 10
11.07693773954483
 20
-11.66180617488866
 10
11.12813702078953
 20
-11.70613242251649
 10
11.18151874272945
 20
-11.75234820166316
 10
11.25405718719667
 20
-11.74718392532619
 10
11.30412572630922
 20
-11.68942402765147
 10
11.34429199892004
 20
-11.64308773234679
 10
11.3829771077149
 20
-11.59487635590287
 10
11.41702711304081
 20
-11.54395784551553
 10
11.47877647126468
 20
-11.45161703560089
 10
11.5221177810817
 20
-11.35084876483368
 10
11.54171914176155
 20
-11.22958985708246
 97
        0
 97
        0
 75
     2
 76
     1
 98
        0
  0
SPLINE
  5
79
330
71
100
AcDbEntity
  8
Icons
370
     0
100
AcDbSpline
210
0.0
220
0.0
230
1.0
 70
    11
 71
     3
 72
    29
 73
    25
 74
     0
 42
0.0000000001
 43
0.0000000001
 12
1.0
 22
0.0
 32
0.0
 13
1.0
 23
0.0
 33
0.0
 40
0.0
 40
0.0
 40
0.0
 40
0.0
 40
1.0
 40
1.0
 40
1.0
 40
2.0
 40
2.0
 40
2.0
 40
3.0
 40
3.0
 40
3.0
 40
4.0
 40
4.0
 40
4.0
 40
5.0
 40
5.0
 40
5.0
 40
6.0
 40
6.0
 40
6.0
 40
7.0
 40
7.0
 40
7.0
 40
8.0
 40
8.0
 40
8.0
 40
8.0
 10
10.96314331940998
 20
-9.468873639163569
 30
0.0
 10
10.97933265667256
 20
-9.44126503464335
 30
0.0
 10
10.99129814824487
 20
-9.40980533194954
 30
0.0
 10
11.01239237754678
 20
-9.386668758374599
 30
0.0
 10
11.15648389515844
 20
-9.228626845174514
 30
0.0
 10
11.33148867439196
 20
-9.111345620913287
 30
0.0
 10
11.51902655607217
 20
-9.011870839669365
 30
0.0
 10
11.54154313614924
 20
-8.999927348799314
 30
0.0
 10
11.57014419267816
 20
-8.994390830708141
 30
0.0
 10
11.59584968232485
 20
-8.994613619421008
 30
0.0
 10
11.64421567782074
 20
-8.995032861033037
 30
0.0
 10
11.67462534374633
 20
-9.044316780708634
 30
0.0
 10
11.65490173286247
 20
-9.088313740332568
 30
0.0
 10
11.64479282594613
 20
-9.11086370078417
 30
0.0
 10
11.63105109382512
 20
-9.133710580392023
 30
0.0
 10
11.61340949350321
 20
-9.150653396526778
 30
0.0
 10
11.47353445189103
 20
-9.284989102223458
 30
0.0
 10
11.33246523098316
 20
-9.418084242909183
 30
0.0
 10
11.19143271403855
 20
-9.551210740916638
 30
0.0
 10
11.15408917840122
 20
-9.586460922444843
 30
0.0
 10
11.11203322976896
 20
-9.607670827028594
 30
0.0
 10
11.05855223372781
 20
-9.590646185624871
 30
0.0
 10
11.00858109016726
 20
-9.574739064257857
 30
0.0
 10
10.97099016404711
 20
-9.524902814982815
 30
0.0
 10
10.96314331940998
 20
-9.468873639163569
 30
0.0
  0
HATCH
  5
7A
330
71
100
AcDbEntity
  8
Icons
 62
     7
420
 16777215
100
AcDbHatch
 10
0.0
 20
0.0
 30
0.0
210
0.0
220
0.0
230
1.0
  2
SOLID
 70
     1
 71
     0
 91
        1
 92
        1
 93
        1
 72
     4
 94
        3
 73
     0
 74
     1
 95
       29
 96
       25
 40
0.0
 40
0.0
 40
0.0
 40
0.0
 40
1.0
 40
1.0
 40
1.0
 40
2.0
 40
2.0
 40
2.0
 40
3.0
 40
3.0
 40
3.0
 40
4.0
 40
4.0
 40
4.0
 40
5.0
 40
5.0
 40
5.0
 40
6.0
 40
6.0
 40
6.0
 40
7.0
 40
7.0
 40
7.0
 40
8.0
 40
8.0
 40
8.0
 40
8.0
 10
10.96314331940998
 20
-9.468873639163569
 10
10.97933265667256
 20
-9.44126503464335
 10
10.99129814824487
 20
-9.40980533194954
 10
11.01239237754678
 20
-9.386668758374599
 10
11.15648389515844
 20
-9.228626845174514
 10
11.33148867439196
 20
-9.111345620913287
 10
11.51902655607217
 20
-9.011870839669365
 10
11.54154313614924
 20
-8.999927348799314
 10
11.57014419267816
 20
-8.994390830708141
 10
11.59584968232485
 20
-8.994613619421008
 10
11.64421567782074
 20
-8.995032861033037
 10
11.67462534374633
 20
-9.044316780708634
 10
11.65490173286247
 20
-9.088313740332568
 10
11.64479282594613
 20
-9.11086370078417
 10
11.63105109382512
 20
-9.133710580392023
 10
11.61340949350321
 20
-9.150653396526778
 10
11.47353445189103
 20
-9.284989102223458
 10
11.33246523098316
 20
-9.418084242909183
 10
11.19143271403855
 20
-9.551210740916638
 10
11.15408917840122
 20
-9.586460922444843
 10
11.11203322976896
 20
-9.607670827028594
 10
11.05855223372781
 20
-9.590646185624871
 10
11.00858109016726
 20
-9.574739064257857
 10
10.97099016404711
 20
-9.524902814982815
 10
10.96314331940998
 20
-9.468873639163569
 97
        0
 97
        0
 75
     2
 76
     1
 98
        0
  0
SPLINE
  5
7B
330
71
100
AcDbEntity
  8
Icons
370
     0
100
AcDbSpline
210
0.0
220
0.0
230
1.0
 70
    11
 71
     3
 72
    32
 73
    28
 74
     0
 42
0.0000000001
 43
0.0000000001
 12
1.0
 22
0.0
 32
0.0
 13
1.0
 23
0.0
 33
0.0
 40
0.0
 40
0.0
 40
0.0
 40
0.0
 40
1.0
 40
1.0
 40
1.0
 40
2.0
 40
2.0
 40
2.0
 40
3.0
 40
3.0
 40
3.0
 40
4.0
 40
4.0
 40
4.0
 40
5.0
 40
5.0
 40
5.0
 40
6.0
 40
6.0
 40
6.0
 40
7.0
 40
7.0
 40
7.0
 40
8.0
 40
8.0
 40
8.0
 40
9.0
 40
9.0
 40
9.0
 40
9.0
 10
12.63463769715155
 20
-10.43259872836619
 30
0.0
 10
12.63944880623474
 20
-10.42150170455291
 30
0.0
 10
12.64393622683247
 20
-10.39397618971058
 30
0.0
 10
12.65981199087839
 20
-10.37727747659886
 30
0.0
 10
12.77632568327506
 20
-10.25472294789404
 30
0.0
 10
12.9012937142291
 20
-10.14264826732671
 30
0.0
 10
13.06125247016159
 20
-10.07805955419339
 30
0.0
 10
13.07143131691183
 20
-10.07394972198947
 30
0.0
 10
13.08211997302287
 20
-10.06690718543098
 30
0.0
 10
13.09216240819857
 20
-10.06755644094535
 30
0.0
 10
13.11124904638872
 20
-10.06879035878205
 30
0.0
 10
13.13524765730443
 20
-10.06903341415119
 30
0.0
 10
13.14729638305723
 20
-10.0802925712124
 30
0.0
 10
13.15685473054713
 20
-10.08922449478552
 30
0.0
 10
13.15881015579171
 20
-10.11779347147424
 30
0.0
 10
13.15176183907971
 20
-10.13107336949152
 30
0.0
 10
13.1143631029981
 20
-10.20153861812645
 30
0.0
 10
13.07957005919879
 20
-10.27492544432733
 30
0.0
 10
13.0314008778613
 20
-10.33773401530927
 30
0.0
 10
12.97522300764491
 20
-10.41098587497159
 30
0.0
 10
12.907868925541
 20
-10.47607659426132
 30
0.0
 10
12.84203473426813
 20
-10.54135068885577
 30
0.0
 10
12.80578913840365
 20
-10.57728820264644
 30
0.0
 10
12.75877540934675
 20
-10.58585164156382
 30
0.0
 10
12.71126025214866
 20
-10.56170029014474
 30
0.0
 10
12.66478581122345
 20
-10.53807825609788
 30
0.0
 10
12.63563535129726
 20
-10.50114236564337
 30
0.0
 10
12.63463769715155
 20
-10.43259872836619
 30
0.0
  0
HATCH
  5
7C
330
71
100
AcDbEntity
  8
Icons
 62
     7
420
 16777215
100
AcDbHatch
 10
0.0
 20
0.0
 30
0.0
210
0.0
220
0.0
230
1.0
  2
SOLID
 70
     1
 71
     0
 91
        1
 92
        1
 93
        1
 72
     4
 94
        3
 73
     0
 74
     1
 95
       32
 96
       28
 40
0.0
 40
0.0
 40
0.0
 40
0.0
 40
1.0
 40
1.0
 40
1.0
 40
2.0
 40
2.0
 40
2.0
 40
3.0
 40
3.0
 40
3.0
 40
4.0
 40
4.0
 40
4.0
 40
5.0
 40
5.0
 40
5.0
 40
6.0
 40
6.0
 40
6.0
 40
7.0
 40
7.0
 40
7.0
 40
8.0
 40
8.0
 40
8.0
 40
9.0
 40
9.0
 40
9.0
 40
9.0
 10
12.63463769715155
 20
-10.43259872836619
 10
12.63944880623474
 20
-10.42150170455291
 10
12.64393622683247
 20
-10.39397618971058
 10
12.65981199087839
 20
-10.37727747659886
 10
12.77632568327506
 20
-10.25472294789404
 10
12.9012937142291
 20
-10.14264826732671
 10
13.06125247016159
 20
-10.07805955419339
 10
13.07143131691183
 20
-10.07394972198947
 10
13.08211997302287
 20
-10.06690718543098
 10
13.09216240819857
 20
-10.06755644094535
 10
13.11124904638872
 20
-10.06879035878205
 10
13.13524765730443
 20
-10.06903341415119
 10
13.14729638305723
 20
-10.0802925712124
 10
13.15685473054713
 20
-10.08922449478552
 10
13.15881015579171
 20
-10.11779347147424
 10
13.15176183907971
 20
-10.13107336949152
 10
13.1143631029981
 20
-10.20153861812645
 10
13.07957005919879
 20
-10.27492544432733
 10
13.0314008778613
 20
-10.33773401530927
 10
12.97522300764491
 20
-10.41098587497159
 10
12.907868925541
 20
-10.47607659426132
 10
12.84203473426813
 20
-10.54135068885577
 10
12.80578913840365
 20
-10.57728820264644
 10
12.75877540934675
 20
-10.58585164156382
 10
12.71126025214866
 20
-10.56170029014474
 10
12.66478581122345
 20
-10.53807825609788
 10
12.63563535129726
 20
-10.50114236564337
 10
12.63463769715155
 20
-10.43259872836619
 97
        0
 97
        0
 75
     2
 76
     1
 98
        0
  0
SPLINE
  5
7D
330
71
100
AcDbEntity
  8
Icons
370
     0
100
AcDbSpline
210
0.0
220
0.0
230
1.0
 70
    11
 71
     3
 72
    26
 73
    22
 74
     0
 42
0.0000000001
 43
0.0000000001
 12
1.0
 22
0.0
 32
0.0
 13
1.0
 23
0.0
 33
0.0
 40
0.0
 40
0.0
 40
0.0
 40
0.0
 40
1.0
 40
1.0
 40
1.0
 40
2.0
 40
2.0
 40
2.0
 40
3.0
 40
3.0
 40
3.0
 40
4.0
 40
4.0
 40
4.0
 40
5.0
 40
5.0
 40
5.0
 40
6.0
 40
6.0
 40
6.0
 40
7.0
 40
7.0
 40
7.0
 40
7.0
 10
12.29824530854
 20
-9.26881219228607
 30
0.0
 10
12.27424351854201
 20
-9.248737292696058
 30
0.0
 10
12.24473700128368
 20
-9.232586754699067
 30
0.0
 10
12.2278627160713
 20
-9.207827114590133
 30
0.0
 10
12.20583629283809
 20
-9.175508481387658
 30
0.0
 10
12.20941825270832
 20
-9.133385230116208
 30
0.0
 10
12.23830427070504
 20
-9.10762472065292
 30
0.0
 10
12.29179841659146
 20
-9.059919179715662
 30
0.0
 10
12.34958519197033
 20
-9.016460063186804
 30
0.0
 10
12.4088811649004
 20
-8.976073458426292
 30
0.0
 10
12.43738858297547
 20
-8.95665724322287
 30
0.0
 10
12.47922907646153
 20
-8.954855353252876
 30
0.0
 10
12.49796890556374
 20
-8.986759043830638
 30
0.0
 10
12.51095199280453
 20
-9.008862270826064
 30
0.0
 10
12.51281811470798
 20
-9.051797416623582
 30
0.0
 10
12.49948475028792
 20
-9.072326347111675
 30
0.0
 10
12.46219063494778
 20
-9.129746877643274
 30
0.0
 10
12.41608814676932
 20
-9.18188015911576
 30
0.0
 10
12.36979751466112
 20
-9.232766806418256
 30
0.0
 10
12.35540146939422
 20
-9.24859249990191
 30
0.0
 10
12.32929714929534
 20
-9.253767541770195
 30
0.0
 10
12.29824530854
 20
-9.26881219228607
 30
0.0
  0
HATCH
  5
7E
330
71
100
AcDbEntity
  8
Icons
 62
     7
420
 16777215
100
AcDbHatch
 10
0.0
 20
0.0
 30
0.0
210
0.0
220
0.0
230
1.0
  2
SOLID
 70
     1
 71
     0
 91
        1
 92
        1
 93
        1
 72
     4
 94
        3
 73
     0
 74
     1
 95
       26
 96
       22
 40
0.0
 40
0.0
 40
0.0
 40
0.0
 40
1.0
 40
1.0
 40
1.0
 40
2.0
 40
2.0
 40
2.0
 40
3.0
 40
3.0
 40
3.0
 40
4.0
 40
4.0
 40
4.0
 40
5.0
 40
5.0
 40
5.0
 40
6.0
 40
6.0
 40
6.0
 40
7.0
 40
7.0
 40
7.0
 40
7.0
 10
12.29824530854
 20
-9.26881219228607
 10
12.27424351854201
 20
-9.248737292696058
 10
12.24473700128368
 20
-9.232586754699067
 10
12.2278627160713
 20
-9.207827114590133
 10
12.20583629283809
 20
-9.175508481387658
 10
12.20941825270832
 20
-9.133385230116208
 10
12.23830427070504
 20
-9.10762472065292
 10
12.29179841659146
 20
-9.059919179715662
 10
12.34958519197033
 20
-9.016460063186804
 10
12.4088811649004
 20
-8.976073458426292
 10
12.43738858297547
 20
-8.95665724322287
 10
12.47922907646153
 20
-8.954855353252876
 10
12.49796890556374
 20
-8.986759043830638
 10
12.51095199280453
 20
-9.008862270826064
 10
12.51281811470798
 20
-9.051797416623582
 10
12.49948475028792
 20
-9.072326347111675
 10
12.46219063494778
 20
-9.129746877643274
 10
12.41608814676932
 20
-9.18188015911576
 10
12.36979751466112
 20
-9.232766806418256
 10
12.35540146939422
 20
-9.24859249990191
 10
12.32929714929534
 20
-9.253767541770195
 10
12.29824530854
 20
-9.26881219228607
 97
        0
 97
        0
 75
     2
 76
     1
 98
        0
  0
SPLINE
  5
7F
330
71
100
AcDbEntity
  8
Icons
370
     0
100
AcDbSpline
210
0.0
220
0.0
230
1.0
 70
    11
 71
     3
 72
    38
 73
    34
 74
     0
 42
0.0000000001
 43
0.0000000001
 12
1.0
 22
0.0
 32
0.0
 13
1.0
 23
0.0
 33
0.0
 40
0.0
 40
0.0
 40
0.0
 40
0.0
 40
1.0
 40
1.0
 40
1.0
 40
2.0
 40
2.0
 40
2.0
 40
3.0
 40
3.0
 40
3.0
 40
4.0
 40
4.0
 40
4.0
 40
5.0
 40
5.0
 40
5.0
 40
6.0
 40
6.0
 40
6.0
 40
7.0
 40
7.0
 40
7.0
 40
8.0
 40
8.0
 40
8.0
 40
9.0
 40
9.0
 40
9.0
 40
10.0
 40
10.0
 40
10.0
 40
11.0
 40
11.0
 40
11.0
 40
11.0
 10
9.615721659925693
 20
-12.04007113682712
 30
0.0
 10
9.62568786935407
 20
-11.84919897476695
 30
0.0
 10
9.752029408802274
 20
-11.63338430305498
 30
0.0
 10
9.945693095018083
 20
-11.45019511833834
 30
0.0
 10
10.06536975855531
 20
-11.33699085166931
 30
0.0
 10
10.20600431207136
 20
-11.28159416892458
 30
0.0
 10
10.37066796680218
 20
-11.28973551227956
 30
0.0
 10
10.51458333429635
 20
-11.296851456762
 30
0.0
 10
10.64291700295143
 20
-11.25380493467124
 30
0.0
 10
10.76369644713832
 20
-11.17783640381417
 30
0.0
 10
10.7981410923063
 20
-11.15617124004915
 30
0.0
 10
10.84190767676737
 20
-11.13708662491244
 30
0.0
 10
10.88107817378268
 20
-11.13768949471058
 30
0.0
 10
10.96611648482499
 20
-11.13899898802791
 30
0.0
 10
11.01773930667
 20
-11.23474170609423
 30
0.0
 10
10.98156668521877
 20
-11.31611901369402
 30
0.0
 10
10.96842189824236
 20
-11.34569055765607
 30
0.0
 10
10.94866403996098
 20
-11.37423612473196
 30
0.0
 10
10.92588576352569
 20
-11.39728216668355
 30
0.0
 10
10.82493339493433
 20
-11.49942264541123
 30
0.0
 10
10.7893585856491
 20
-11.62773044788776
 30
0.0
 10
10.77208850456421
 20
-11.76443912252175
 30
0.0
 10
10.75060657160098
 20
-11.93448886690221
 30
0.0
 10
10.74010634842906
 20
-12.10698737245598
 30
0.0
 10
10.7038468802002
 20
-12.27386150161469
 30
0.0
 10
10.64867721290612
 20
-12.52776448148242
 30
0.0
 10
10.50664747532683
 20
-12.64306752115261
 30
0.0
 10
10.21959070262098
 20
-12.66689388355382
 30
0.0
 10
10.15602825538222
 20
-12.67217000582143
 30
0.0
 10
10.09026270340733
 20
-12.66478672933307
 30
0.0
 10
10.02679620668331
 20
-12.65494602144403
 30
0.0
 10
9.743565966506509
 20
-12.6110316096085
 30
0.0
 10
9.606922101821839
 20
-12.3416222173755
 30
0.0
 10
9.615721659925693
 20
-12.04007113682712
 30
0.0
  0
HATCH
  5
80
330
71
100
AcDbEntity
  8
Icons
 62
    18
420
        0
100
AcDbHatch
 10
0.0
 20
0.0
 30
0.0
210
0.0
220
0.0
230
1.0
  2
SOLID
 70
     1
 71
     0
 91
        1
 92
        1
 93
        1
 72
     4
 94
        3
 73
     0
 74
     1
 95
       38
 96
       34
 40
0.0
 40
0.0
 40
0.0
 40
0.0
 40
1.0
 40
1.0
 40
1.0
 40
2.0
 40
2.0
 40
2.0
 40
3.0
 40
3.0
 40
3.0
 40
4.0
 40
4.0
 40
4.0
 40
5.0
 40
5.0
 40
5.0
 40
6.0
 40
6.0
 40
6.0
 40
7.0
 40
7.0
 40
7.0
 40
8.0
 40
8.0
 40
8.0
 40
9.0
 40
9.0
 40
9.0
 40
10.0
 40
10.0
 40
10.0
 40
11.0
 40
11.0
 40
11.0
 40
11.0
 10
9.615721659925693
 20
-12.04007113682712
 10
9.62568786935407
 20
-11.84919897476695
 10
9.752029408802274
 20
-11.63338430305498
 10
9.945693095018083
 20
-11.45019511833834
 10
10.06536975855531
 20
-11.33699085166931
 10
10.20600431207136
 20
-11.28159416892458
 10
10.37066796680218
 20
-11.28973551227956
 10
10.51458333429635
 20
-11.296851456762
 10
10.64291700295143
 20
-11.25380493467124
 10
10.76369644713832
 20
-11.17783640381417
 10
10.7981410923063
 20
-11.15617124004915
 10
10.84190767676737
 20
-11.13708662491244
 10
10.88107817378268
 20
-11.13768949471058
 10
10.96611648482499
 20
-11.13899898802791
 10
11.01773930667
 20
-11.23474170609423
 10
10.98156668521877
 20
-11.31611901369402
 10
10.96842189824236
 20
-11.34569055765607
 10
10.94866403996098
 20
-11.37423612473196
 10
10.92588576352569
 20
-11.39728216668355
 10
10.82493339493433
 20
-11.49942264541123
 10
10.7893585856491
 20
-11.62773044788776
 10
10.77208850456421
 20
-11.76443912252175
 10
10.75060657160098
 20
-11.93448886690221
 10
10.74010634842906
 20
-12.10698737245598
 10
10.7038468802002
 20
-12.27386150161469
 10
10.64867721290612
 20
-12.52776448148242
 10
10.50664747532683
 20
-12.64306752115261
 10
10.21959070262098
 20
-12.66689388355382
 10
10.15602825538222
 20
-12.67217000582143
 10
10.09026270340733
 20
-12.66478672933307
 10
10.02679620668331
 20
-12.65494602144403
 10
9.743565966506509
 20
-12.6110316096085
 10
9.606922101821839
 20
-12.3416222173755
 10
9.615721659925693
 20
-12.04007113682712
 97
        0
 97
        0
 75
     2
 76
     1
 98
        0
  0
SPLINE
  5
81
330
71
100
AcDbEntity
  8
Icons
370
     0
100
AcDbSpline
210
0.0
220
0.0
230
1.0
 70
    11
 71
     3
 72
    29
 73
    25
 74
     0
 42
0.0000000001
 43
0.0000000001
 12
1.0
 22
0.0
 32
0.0
 13
1.0
 23
0.0
 33
0.0
 40
0.0
 40
0.0
 40
0.0
 40
0.0
 40
1.0
 40
1.0
 40
1.0
 40
2.0
 40
2.0
 40
2.0
 40
3.0
 40
3.0
 40
3.0
 40
4.0
 40
4.0
 40
4.0
 40
5.0
 40
5.0
 40
5.0
 40
6.0
 40
6.0
 40
6.0
 40
7.0
 40
7.0
 40
7.0
 40
8.0
 40
8.0
 40
8.0
 40
8.0
 10
11.54171914176155
 20
-11.22958985708246
 30
0.0
 10
11.5221177810817
 20
-11.35084876483368
 30
0.0
 10
11.47877647126468
 20
-11.45161703560089
 30
0.0
 10
11.41702711304081
 20
-11.54395784551553
 30
0.0
 10
11.3829771077149
 20
-11.59487635590287
 30
0.0
 10
11.34429199892004
 20
-11.64308773234679
 30
0.0
 10
11.30412572630922
 20
-11.68942402765147
 30
0.0
 10
11.25405718719667
 20
-11.74718392532619
 30
0.0
 10
11.18151874272945
 20
-11.75234820166316
 30
0.0
 10
11.12813702078953
 20
-11.70613242251649
 30
0.0
 10
11.07693773954483
 20
-11.66180617488866
 30
0.0
 10
11.07171609520464
 20
-11.59132098472967
 30
0.0
 10
11.11981735976231
 20
-11.53262470251514
 30
0.0
 10
11.15672810655802
 20
-11.4875840281647
 30
0.0
 10
11.1961952698469
 20
-11.44401469137176
 30
0.0
 10
11.23882851110844
 20
-11.40442469986302
 30
0.0
 10
11.31269393385035
 20
-11.3358327983207
 30
0.0
 10
11.38900233761461
 20
-11.26975815274639
 30
0.0
 10
11.46656474524095
 20
-11.20537275644152
 30
0.0
 10
11.47951633065322
 20
-11.19462167469415
 30
0.0
 10
11.50548799627539
 20
-11.19206135659735
 30
0.0
 10
11.52258221625378
 20
-11.19656756268933
 30
0.0
 10
11.53306452095637
 20
-11.19933134211814
 30
0.0
 10
11.53810134495202
 20
-11.22275078185598
 30
0.0
 10
11.54171914176155
 20
-11.22958985708246
 30
0.0
  0
HATCH
  5
82
330
71
100
AcDbEntity
  8
Icons
 62
    18
420
        0
100
AcDbHatch
 10
0.0
 20
0.0
 30
0.0
210
0.0
220
0.0
230
1.0
  2
SOLID
 70
     1
 71
     0
 91
        1
 92
        1
 93
        1
 72
     4
 94
        3
 73
     0
 74
     1
 95
       29
 96
       25
 40
0.0
 40
0.0
 40
0.0
 40
0.0
 40
1.0
 40
1.0
 40
1.0
 40
2.0
 40
2.0
 40
2.0
 40
3.0
 40
3.0
 40
3.0
 40
4.0
 40
4.0
 40
4.0
 40
5.0
 40
5.0
 40
5.0
 40
6.0
 40
6.0
 40
6.0
 40
7.0
 40
7.0
 40
7.0
 40
8.0
 40
8.0
 40
8.0
 40
8.0
 10
11.54171914176155
 20
-11.22958985708246
 10
11.5221177810817
 20
-11.35084876483368
 10
11.47877647126468
 20
-11.45161703560089
 10
11.41702711304081
 20
-11.54395784551553
 10
11.3829771077149
 20
-11.59487635590287
 10
11.34429199892004
 20
-11.64308773234679
 10
11.30412572630922
 20
-11.68942402765147
 10
11.25405718719667
 20
-11.74718392532619
 10
11.18151874272945
 20
-11.75234820166316
 10
11.12813702078953
 20
-11.70613242251649
 10
11.07693773954483
 20
-11.66180617488866
 10
11.07171609520464
 20
-11.59132098472967
 10
11.11981735976231
 20
-11.53262470251514
 10
11.15672810655802
 20
-11.4875840281647
 10
11.1961952698469
 20
-11.44401469137176
 10
11.23882851110844
 20
-11.40442469986302
 10
11.31269393385035
 20
-11.3358327983207
 10
11.38900233761461
 20
-11.26975815274639
 10
11.46656474524095
 20
-11.20537275644152
 10
11.47951633065322
 20
-11.19462167469415
 10
11.50548799627539
 20
-11.19206135659735
 10
11.52258221625378
 20
-11.19656756268933
 10
11.53306452095637
 20
-11.19933134211814
 10
11.53810134495202
 20
-11.22275078185598
 10
11.54171914176155
 20
-11.22958985708246
 97
        0
 97
        0
 75
     2
 76
     1
 98
        0
  0
ENDBLK
  5
74
330
71
100
AcDbEntity
  8
0
100
AcDbBlockEnd
  0
BLOCK
  5
86
330
84
100
AcDbEntity
  8
0
100
AcDbBlockBegin
  2
block 4
 70
     0
 10
0.0
 20
0.0
 30
0.0
  3
block 4
  1

  0
SPLINE
  5
88
330
84
100
AcDbEntity
  8
Numbers
370
     0
100
AcDbSpline
210
0.0
220
0.0
230
1.0
 70
    11
 71
     3
 72
    23
 73
    19
 74
     0
 42
0.0000000001
 43
0.0000000001
 12
1.0
 22
0.0
 32
0.0
 13
1.0
 23
0.0
 33
0.0
 40
0.0
 40
0.0
 40
0.0
 40
0.0
 40
1.0
 40
1.0
 40
1.0
 40
2.0
 40
2.0
 40
2.0
 40
3.0
 40
3.0
 40
3.0
 40
4.0
 40
4.0
 40
4.0
 40
5.0
 40
5.0
 40
5.0
 40
6.0
 40
6.0
 40
6.0
 40
6.0
 10
11.78842773142789
 20
-5.28202039798505
 30
0.0
 10
11.78842773142789
 20
-5.809809026325325
 30
0.0
 10
11.52797851274301
 20
-6.073531085721201
 30
0.0
 10
11.00673556582471
 20
-6.073358830946939
 30
0.0
 10
10.48755967619756
 20
-6.073186576172676
 30
0.0
 10
10.22779947660972
 20
-5.809292262002538
 30
0.0
 10
10.22779947660972
 20
-5.281503633662263
 30
0.0
 10
10.22779947660972
 20
-5.281503633662263
 30
0.0
 10
10.22848849570677
 20
-2.660302733709925
 30
0.0
 10
10.22848849570677
 20
-2.660302733709925
 30
0.0
 10
10.22883300525529
 20
-2.131136067175549
 30
0.0
 10
10.48859320484313
 20
-1.866724988682624
 30
0.0
 10
11.00845811356733
 20
-1.866897243456887
 30
0.0
 10
11.52935655093711
 20
-1.867241753005412
 30
0.0
 10
11.79015027917052
 20
-2.131825086272599
 30
0.0
 10
11.78980576962199
 20
-2.660991752806974
 30
0.0
 10
11.78980576962199
 20
-2.660991752806974
 30
0.0
 10
11.78842773142789
 20
-5.28202039798505
 30
0.0
 10
11.78842773142789
 20
-5.28202039798505
 30
0.0
  0
SPLINE
  5
89
330
84
100
AcDbEntity
  8
Numbers
370
     0
100
AcDbSpline
210
0.0
220
0.0
230
1.0
 70
    11
 71
     3
 72
    26
 73
    22
 74
     0
 42
0.0000000001
 43
0.0000000001
 12
1.0
 22
0.0
 32
0.0
 13
1.0
 23
0.0
 33
0.0
 40
0.0
 40
0.0
 40
0.0
 40
0.0
 40
1.0
 40
1.0
 40
1.0
 40
2.0
 40
2.0
 40
2.0
 40
3.0
 40
3.0
 40
3.0
 40
4.0
 40
4.0
 40
4.0
 40
5.0
 40
5.0
 40
5.0
 40
6.0
 40
6.0
 40
6.0
 40
7.0
 40
7.0
 40
7.0
 40
7.0
 10
11.38672959784776
 20
-2.660819498032712
 30
0.0
 10
11.38672959784776
 20
-2.396236164765524
 30
0.0
 10
11.26132812218467
 20
-2.263944498131931
 30
0.0
 10
11.00983615176143
 20
-2.263944498131931
 30
0.0
 10
11.00983615176143
 20
-2.263944498131931
 30
0.0
 10
11.00604654672765
 20
-2.264116752906193
 30
0.0
 10
11.00604654672765
 20
-2.264116752906193
 30
0.0
 10
10.75662163359557
 20
-2.263772243357668
 30
0.0
 10
10.631564667481
 20
-2.396063909991262
 30
0.0
 10
10.631564667481
 20
-2.660647243258449
 30
0.0
 10
10.631564667481
 20
-2.660647243258449
 30
0.0
 10
10.63122015793247
 20
-5.281503633662263
 30
0.0
 10
10.63122015793247
 20
-5.281503633662263
 30
0.0
 10
10.63087564838395
 20
-5.546259221703713
 30
0.0
 10
10.75558810494999
 20
-5.678550888337307
 30
0.0
 10
11.00708007537323
 20
-5.678895397885832
 30
0.0
 10
11.25891655534499
 20
-5.678895397885832
 30
0.0
 10
11.38535155965366
 20
-5.546603731252238
 30
0.0
 10
11.38535155965366
 20
-5.281848143210788
 30
0.0
 10
11.38535155965366
 20
-5.281848143210788
 30
0.0
 10
11.38672959784776
 20
-2.660819498032712
 30
0.0
 10
11.38672959784776
 20
-2.660819498032712
 30
0.0
  0
HATCH
  5
8A
330
84
100
AcDbEntity
  8
Numbers
 62
   250
420
  2301728
100
AcDbHatch
 10
0.0
 20
0.0
 30
0.0
210
0.0
220
0.0
230
1.0
  2
SOLID
 70
     1
 71
     0
 91
        2
 92
        1
 93
        1
 72
     4
 94
        3
 73
     0
 74
     1
 95
       23
 96
       19
 40
0.0
 40
0.0
 40
0.0
 40
0.0
 40
1.0
 40
1.0
 40
1.0
 40
2.0
 40
2.0
 40
2.0
 40
3.0
 40
3.0
 40
3.0
 40
4.0
 40
4.0
 40
4.0
 40
5.0
 40
5.0
 40
5.0
 40
6.0
 40
6.0
 40
6.0
 40
6.0
 10
11.78842773142789
 20
-5.28202039798505
 10
11.78842773142789
 20
-5.809809026325325
 10
11.52797851274301
 20
-6.073531085721201
 10
11.00673556582471
 20
-6.073358830946939
 10
10.48755967619756
 20
-6.073186576172676
 10
10.22779947660972
 20
-5.809292262002538
 10
10.22779947660972
 20
-5.281503633662263
 10
10.22779947660972
 20
-5.281503633662263
 10
10.22848849570677
 20
-2.660302733709925
 10
10.22848849570677
 20
-2.660302733709925
 10
10.22883300525529
 20
-2.131136067175549
 10
10.48859320484313
 20
-1.866724988682624
 10
11.00845811356733
 20
-1.866897243456887
 10
11.52935655093711
 20
-1.867241753005412
 10
11.79015027917052
 20
-2.131825086272599
 10
11.78980576962199
 20
-2.660991752806974
 10
11.78980576962199
 20
-2.660991752806974
 10
11.78842773142789
 20
-5.28202039798505
 10
11.78842773142789
 20
-5.28202039798505
 97
        0
 97
        0
 92
        1
 93
        1
 72
     4
 94
        3
 73
     0
 74
     1
 95
       26
 96
       22
 40
0.0
 40
0.0
 40
0.0
 40
0.0
 40
1.0
 40
1.0
 40
1.0
 40
2.0
 40
2.0
 40
2.0
 40
3.0
 40
3.0
 40
3.0
 40
4.0
 40
4.0
 40
4.0
 40
5.0
 40
5.0
 40
5.0
 40
6.0
 40
6.0
 40
6.0
 40
7.0
 40
7.0
 40
7.0
 40
7.0
 10
11.38672959784776
 20
-2.660819498032712
 10
11.38672959784776
 20
-2.396236164765524
 10
11.26132812218467
 20
-2.263944498131931
 10
11.00983615176143
 20
-2.263944498131931
 10
11.00983615176143
 20
-2.263944498131931
 10
11.00604654672765
 20
-2.264116752906193
 10
11.00604654672765
 20
-2.264116752906193
 10
10.75662163359557
 20
-2.263772243357668
 10
10.631564667481
 20
-2.396063909991262
 10
10.631564667481
 20
-2.660647243258449
 10
10.631564667481
 20
-2.660647243258449
 10
10.63122015793247
 20
-5.281503633662263
 10
10.63122015793247
 20
-5.281503633662263
 10
10.63087564838395
 20
-5.546259221703713
 10
10.75558810494999
 20
-5.678550888337307
 10
11.00708007537323
 20
-5.678895397885832
 10
11.25891655534499
 20
-5.678895397885832
 10
11.38535155965366
 20
-5.546603731252238
 10
11.38535155965366
 20
-5.281848143210788
 10
11.38535155965366
 20
-5.281848143210788
 10
11.38672959784776
 20
-2.660819498032712
 10
11.38672959784776
 20
-2.660819498032712
 97
        0
 97
        0
 75
     2
 76
     1
 98
        0
  0
POLYLINE
  5
8B
330
84
100
AcDbEntity
  8
Numbers
370
     0
100
AcDb2dPolyline
 66
     1
 10
0.0
 20
0.0
 30
0.0
  0
VERTEX
  5
8C
330
8B
100
AcDbEntity
  8
Numbers
370
     0
100
AcDbVertex
100
AcDb2dVertex
 10
16.47306857227062
 20
-3.774791123188247
 30
0.0
  0
VERTEX
  5
8D
330
8B
100
AcDbEntity
  8
Numbers
370
     0
100
AcDbVertex
100
AcDb2dVertex
 10
14.31781683669832
 20
-6.751870386766893
 30
0.0
  0
VERTEX
  5
8E
330
8B
100
AcDbEntity
  8
Numbers
370
     0
100
AcDbVertex
100
AcDb2dVertex
 10
14.78669433224083
 20
-7.091556801612528
 30
0.0
  0
VERTEX
  5
8F
330
8B
100
AcDbEntity
  8
Numbers
370
     0
100
AcDbVertex
100
AcDb2dVertex
 10
14.55656195382614
 20
-7.409366860126825
 30
0.0
  0
VERTEX
  5
90
330
8B
100
AcDbEntity
  8
Numbers
370
     0
100
AcDbVertex
100
AcDb2dVertex
 10
13.29221191073945
 20
-6.494349499244469
 30
0.0
  0
VERTEX
  5
91
330
8B
100
AcDbEntity
  8
Numbers
370
     0
100
AcDbVertex
100
AcDb2dVertex
 10
13.52268879870266
 20
-6.176367185955908
 30
0.0
  0
VERTEX
  5
92
330
8B
100
AcDbEntity
  8
Numbers
370
     0
100
AcDbVertex
100
AcDb2dVertex
 10
13.99294433243927
 20
-6.516914874672855
 30
0.0
  0
VERTEX
  5
93
330
8B
100
AcDbEntity
  8
Numbers
370
     0
100
AcDbVertex
100
AcDb2dVertex
 10
15.91771918004835
 20
-3.858162433931293
 30
0.0
  0
VERTEX
  5
94
330
8B
100
AcDbEntity
  8
Numbers
370
     0
100
AcDbVertex
100
AcDb2dVertex
 10
15.44711913676322
 20
-3.517442490440084
 30
0.0
  0
VERTEX
  5
95
330
8B
100
AcDbEntity
  8
Numbers
370
     0
100
AcDbVertex
100
AcDb2dVertex
 10
15.67759602472644
 20
-3.199287922377262
 30
0.0
  0
VERTEX
  5
96
330
8B
100
AcDbEntity
  8
Numbers
370
     0
100
AcDbVertex
100
AcDb2dVertex
 10
16.47306857227062
 20
-3.774791123188247
 30
0.0
  0
SEQEND
  5
97
330
8B
100
AcDbEntity
  8
Numbers
370
     0
  0
HATCH
  5
98
330
84
100
AcDbEntity
  8
Numbers
 62
   250
420
  2301728
100
AcDbHatch
 10
0.0
 20
0.0
 30
0.0
210
0.0
220
0.0
230
1.0
  2
SOLID
 70
     1
 71
     0
 91
        1
 92
        1
 93
       10
 72
     1
 10
16.47306857227062
 20
-3.774791123188247
 11
14.31781683669832
 21
-6.751870386766893
 72
     1
 10
14.31781683669832
 20
-6.751870386766893
 11
14.78669433224083
 21
-7.091556801612528
 72
     1
 10
14.78669433224083
 20
-7.091556801612528
 11
14.55656195382614
 21
-7.409366860126825
 72
     1
 10
14.55656195382614
 20
-7.409366860126825
 11
13.29221191073945
 21
-6.494349499244469
 72
     1
 10
13.29221191073945
 20
-6.494349499244469
 11
13.52268879870266
 21
-6.176367185955908
 72
     1
 10
13.52268879870266
 20
-6.176367185955908
 11
13.99294433243927
 21
-6.516914874672855
 72
     1
 10
13.99294433243927
 20
-6.516914874672855
 11
15.91771918004835
 21
-3.858162433931293
 72
     1
 10
15.91771918004835
 20
-3.858162433931293
 11
15.44711913676322
 21
-3.517442490440084
 72
     1
 10
15.44711913676322
 20
-3.517442490440084
 11
15.67759602472644
 21
-3.199287922377262
 72
     1
 10
15.67759602472644
 20
-3.199287922377262
 11
16.47306857227062
 21
-3.774791123188247
 97
        0
 75
     2
 76
     1
 98
        0
  0
SPLINE
  5
99
330
84
100
AcDbEntity
  8
Numbers
370
     0
100
AcDbSpline
210
0.0
220
0.0
230
1.0
 70
    11
 71
     3
 72
    62
 73
    58
 74
     0
 42
0.0000000001
 43
0.0000000001
 12
1.0
 22
0.0
 32
0.0
 13
1.0
 23
0.0
 33
0.0
 40
0.0
 40
0.0
 40
0.0
 40
0.0
 40
1.0
 40
1.0
 40
1.0
 40
2.0
 40
2.0
 40
2.0
 40
3.0
 40
3.0
 40
3.0
 40
4.0
 40
4.0
 40
4.0
 40
5.0
 40
5.0
 40
5.0
 40
6.0
 40
6.0
 40
6.0
 40
7.0
 40
7.0
 40
7.0
 40
8.0
 40
8.0
 40
8.0
 40
9.0
 40
9.0
 40
9.0
 40
10.0
 40
10.0
 40
10.0
 40
11.0
 40
11.0
 40
11.0
 40
12.0
 40
12.0
 40
12.0
 40
13.0
 40
13.0
 40
13.0
 40
14.0
 40
14.0
 40
14.0
 40
15.0
 40
15.0
 40
15.0
 40
16.0
 40
16.0
 40
16.0
 40
17.0
 40
17.0
 40
17.0
 40
18.0
 40
18.0
 40
18.0
 40
19.0
 40
19.0
 40
19.0
 40
19.0
 10
16.27635362006286
 20
-8.460637747450813
 30
0.0
 10
16.60983886303504
 20
-8.352806258762493
 30
0.0
 10
16.95193684472035
 20
-8.428081595115202
 30
0.0
 10
17.30333658421583
 20
-8.686119246960414
 30
0.0
 10
17.71226941831499
 20
-8.991182452179288
 30
0.0
 10
18.02611761702125
 20
-9.109176972549095
 30
0.0
 10
18.24384765168904
 20
-9.039930553295573
 30
0.0
 10
18.24384765168904
 20
-9.039930553295573
 30
0.0
 10
19.04414333291258
 20
-8.780514863256261
 30
0.0
 10
19.04414333291258
 20
-8.780514863256261
 30
0.0
 10
19.29735785107844
 20
-8.698349335933052
 30
0.0
 10
19.38520778595231
 20
-8.538841414965985
 30
0.0
 10
19.30838215663124
 20
-8.301646590806532
 30
0.0
 10
19.30838215663124
 20
-8.301646590806532
 30
0.0
 10
19.30700411843714
 20
-8.297856985772759
 30
0.0
 10
19.30700411843714
 20
-8.297856985772759
 30
0.0
 10
19.22983397956754
 20
-8.059111868644944
 30
0.0
 10
19.06446939627555
 20
-7.980735946355511
 30
0.0
 10
18.81159938765821
 20
-8.062729218904456
 30
0.0
 10
18.81159938765821
 20
-8.062729218904456
 30
0.0
 10
18.36924912735213
 20
-8.20604519109085
 30
0.0
 10
18.36924912735213
 20
-8.20604519109085
 30
0.0
 10
18.36924912735213
 20
-8.20604519109085
 30
0.0
 10
18.24488118033461
 20
-7.822778318356805
 30
0.0
 10
18.24488118033461
 20
-7.822778318356805
 30
0.0
 10
18.24488118033461
 20
-7.822778318356805
 30
0.0
 10
18.68723144064069
 20
-7.67929009139615
 30
0.0
 10
18.68723144064069
 20
-7.67929009139615
 30
0.0
 10
19.19193792922979
 20
-7.515820310621045
 30
0.0
 10
19.52473415310493
 20
-7.681012639138775
 30
0.0
 10
19.68458658362052
 20
-8.175383841272126
 30
0.0
 10
19.84512803323316
 20
-8.670788572051054
 30
0.0
 10
19.6732177685192
 20
-9.0003119552152
 30
0.0
 10
19.16851127993009
 20
-9.163953990764567
 30
0.0
 10
19.16851127993009
 20
-9.163953990764567
 30
0.0
 10
18.35443521676556
 20
-9.427676050160443
 30
0.0
 10
18.35443521676556
 20
-9.427676050160443
 30
0.0
 10
18.01474880191993
 20
-9.537919105688438
 30
0.0
 10
17.66851670565232
 20
-9.463332788432778
 30
0.0
 10
17.31504990886568
 20
-9.204089353167728
 30
0.0
 10
16.90473903657243
 20
-8.899542912271642
 30
0.0
 10
16.58365613734714
 20
-8.784993487387085
 30
0.0
 10
16.35180121118983
 20
-8.860096568965531
 30
0.0
 10
16.35180121118983
 20
-8.860096568965531
 30
0.0
 10
16.00384656717959
 20
-8.972751191333202
 30
0.0
 10
16.00384656717959
 20
-8.972751191333202
 30
0.0
 10
16.00384656717959
 20
-8.972751191333202
 30
0.0
 10
16.36041394990295
 20
-10.07397596319331
 30
0.0
 10
16.36041394990295
 20
-10.07397596319331
 30
0.0
 10
16.36041394990295
 20
-10.07397596319331
 30
0.0
 10
15.98489854201072
 20
-10.19576008859689
 30
0.0
 10
15.98489854201072
 20
-10.19576008859689
 30
0.0
 10
15.98489854201072
 20
-10.19576008859689
 30
0.0
 10
15.50361870272132
 20
-8.711268444002739
 30
0.0
 10
15.50361870272132
 20
-8.711268444002739
 30
0.0
 10
15.50361870272132
 20
-8.711268444002739
 30
0.0
 10
16.27635362006286
 20
-8.460637747450813
 30
0.0
 10
16.27635362006286
 20
-8.460637747450813
 30
0.0
  0
HATCH
  5
9A
330
84
100
AcDbEntity
  8
Numbers
 62
   250
420
  2301728
100
AcDbHatch
 10
0.0
 20
0.0
 30
0.0
210
0.0
220
0.0
230
1.0
  2
SOLID
 70
     1
 71
     0
 91
        1
 92
        1
 93
        1
 72
     4
 94
        3
 73
     0
 74
     1
 95
       62
 96
       58
 40
0.0
 40
0.0
 40
0.0
 40
0.0
 40
1.0
 40
1.0
 40
1.0
 40
2.0
 40
2.0
 40
2.0
 40
3.0
 40
3.0
 40
3.0
 40
4.0
 40
4.0
 40
4.0
 40
5.0
 40
5.0
 40
5.0
 40
6.0
 40
6.0
 40
6.0
 40
7.0
 40
7.0
 40
7.0
 40
8.0
 40
8.0
 40
8.0
 40
9.0
 40
9.0
 40
9.0
 40
10.0
 40
10.0
 40
10.0
 40
11.0
 40
11.0
 40
11.0
 40
12.0
 40
12.0
 40
12.0
 40
13.0
 40
13.0
 40
13.0
 40
14.0
 40
14.0
 40
14.0
 40
15.0
 40
15.0
 40
15.0
 40
16.0
 40
16.0
 40
16.0
 40
17.0
 40
17.0
 40
17.0
 40
18.0
 40
18.0
 40
18.0
 40
19.0
 40
19.0
 40
19.0
 40
19.0
 10
16.27635362006286
 20
-8.460637747450813
 10
16.60983886303504
 20
-8.352806258762493
 10
16.95193684472035
 20
-8.428081595115202
 10
17.30333658421583
 20
-8.686119246960414
 10
17.71226941831499
 20
-8.991182452179288
 10
18.02611761702125
 20
-9.109176972549095
 10
18.24384765168904
 20
-9.039930553295573
 10
18.24384765168904
 20
-9.039930553295573
 10
19.04414333291258
 20
-8.780514863256261
 10
19.04414333291258
 20
-8.780514863256261
 10
19.29735785107844
 20
-8.698349335933052
 10
19.38520778595231
 20
-8.538841414965985
 10
19.30838215663124
 20
-8.301646590806532
 10
19.30838215663124
 20
-8.301646590806532
 10
19.30700411843714
 20
-8.297856985772759
 10
19.30700411843714
 20
-8.297856985772759
 10
19.22983397956754
 20
-8.059111868644944
 10
19.06446939627555
 20
-7.980735946355511
 10
18.81159938765821
 20
-8.062729218904456
 10
18.81159938765821
 20
-8.062729218904456
 10
18.36924912735213
 20
-8.20604519109085
 10
18.36924912735213
 20
-8.20604519109085
 10
18.36924912735213
 20
-8.20604519109085
 10
18.24488118033461
 20
-7.822778318356805
 10
18.24488118033461
 20
-7.822778318356805
 10
18.24488118033461
 20
-7.822778318356805
 10
18.68723144064069
 20
-7.67929009139615
 10
18.68723144064069
 20
-7.67929009139615
 10
19.19193792922979
 20
-7.515820310621045
 10
19.52473415310493
 20
-7.681012639138775
 10
19.68458658362052
 20
-8.175383841272126
 10
19.84512803323316
 20
-8.670788572051054
 10
19.6732177685192
 20
-9.0003119552152
 10
19.16851127993009
 20
-9.163953990764567
 10
19.16851127993009
 20
-9.163953990764567
 10
18.35443521676556
 20
-9.427676050160443
 10
18.35443521676556
 20
-9.427676050160443
 10
18.01474880191993
 20
-9.537919105688438
 10
17.66851670565232
 20
-9.463332788432778
 10
17.31504990886568
 20
-9.204089353167728
 10
16.90473903657243
 20
-8.899542912271642
 10
16.58365613734714
 20
-8.784993487387085
 10
16.35180121118983
 20
-8.860096568965531
 10
16.35180121118983
 20
-8.860096568965531
 10
16.00384656717959
 20
-8.972751191333202
 10
16.00384656717959
 20
-8.972751191333202
 10
16.00384656717959
 20
-8.972751191333202
 10
16.36041394990295
 20
-10.07397596319331
 10
16.36041394990295
 20
-10.07397596319331
 10
16.36041394990295
 20
-10.07397596319331
 10
15.98489854201072
 20
-10.19576008859689
 10
15.98489854201072
 20
-10.19576008859689
 10
15.98489854201072
 20
-10.19576008859689
 10
15.50361870272132
 20
-8.711268444002739
 10
15.50361870272132
 20
-8.711268444002739
 10
15.50361870272132
 20
-8.711268444002739
 10
16.27635362006286
 20
-8.460637747450813
 10
16.27635362006286
 20
-8.460637747450813
 97
        0
 97
        0
 75
     2
 76
     1
 98
        0
  0
SPLINE
  5
9B
330
84
100
AcDbEntity
  8
Numbers
370
     0
100
AcDbSpline
210
0.0
220
0.0
230
1.0
 70
    11
 71
     3
 72
    80
 73
    76
 74
     0
 42
0.0000000001
 43
0.0000000001
 12
1.0
 22
0.0
 32
0.0
 13
1.0
 23
0.0
 33
0.0
 40
0.0
 40
0.0
 40
0.0
 40
0.0
 40
1.0
 40
1.0
 40
1.0
 40
2.0
 40
2.0
 40
2.0
 40
3.0
 40
3.0
 40
3.0
 40
4.0
 40
4.0
 40
4.0
 40
5.0
 40
5.0
 40
5.0
 40
6.0
 40
6.0
 40
6.0
 40
7.0
 40
7.0
 40
7.0
 40
8.0
 40
8.0
 40
8.0
 40
9.0
 40
9.0
 40
9.0
 40
10.0
 40
10.0
 40
10.0
 40
11.0
 40
11.0
 40
11.0
 40
12.0
 40
12.0
 40
12.0
 40
13.0
 40
13.0
 40
13.0
 40
14.0
 40
14.0
 40
14.0
 40
15.0
 40
15.0
 40
15.0
 40
16.0
 40
16.0
 40
16.0
 40
17.0
 40
17.0
 40
17.0
 40
18.0
 40
18.0
 40
18.0
 40
19.0
 40
19.0
 40
19.0
 40
20.0
 40
20.0
 40
20.0
 40
21.0
 40
21.0
 40
21.0
 40
22.0
 40
22.0
 40
22.0
 40
23.0
 40
23.0
 40
23.0
 40
24.0
 40
24.0
 40
24.0
 40
25.0
 40
25.0
 40
25.0
 40
25.0
 10
17.88245713528633
 20
-13.20539550451115
 30
0.0
 10
17.83835991307513
 20
-13.47514648100621
 30
0.0
 10
17.94343532537525
 20
-13.64877929346281
 30
0.0
 10
18.19802788173521
 20
-13.7273274705265
 30
0.0
 10
18.19802788173521
 20
-13.7273274705265
 30
0.0
 10
18.81711154043461
 20
-13.92783202776804
 30
0.0
 10
18.81711154043461
 20
-13.92783202776804
 30
0.0
 10
19.06860351085785
 20
-14.00982530031699
 30
0.0
 10
19.23327907505279
 20
-13.93093261370477
 30
0.0
 10
19.31113823301944
 20
-13.69253200612548
 30
0.0
 10
19.38865288143756
 20
-13.45275336035209
 30
0.0
 10
19.30183647520926
 20
-13.29186740119092
 30
0.0
 10
19.04965548568898
 20
-13.2102186381905
 30
0.0
 10
19.04965548568898
 20
-13.2102186381905
 30
0.0
 10
18.60351562034912
 20
-13.06552462781001
 30
0.0
 10
18.60351562034912
 20
-13.06552462781001
 30
0.0
 10
18.60351562034912
 20
-13.06552462781001
 30
0.0
 10
18.72822807691517
 20
-12.6820855003017
 30
0.0
 10
18.72822807691517
 20
-12.6820855003017
 30
0.0
 10
18.72822807691517
 20
-12.6820855003017
 30
0.0
 10
19.17402343270649
 20
-12.8267795106822
 30
0.0
 10
19.17402343270649
 20
-12.8267795106822
 30
0.0
 10
19.67631835445592
 20
-12.98973252713451
 30
0.0
 10
19.84788410962136
 20
-13.3190836555244
 30
0.0
 10
19.6883761886543
 20
-13.81483289585185
 30
0.0
 10
19.52783473904165
 20
-14.3092040979852
 30
0.0
 10
19.19607204381209
 20
-14.47456868127719
 30
0.0
 10
18.69274359341709
 20
-14.31161566482487
 30
0.0
 10
18.69274359341709
 20
-14.31161566482487
 30
0.0
 10
18.05367838090325
 20
-14.10422091661284
 30
0.0
 10
18.05367838090325
 20
-14.10422091661284
 30
0.0
 10
17.79529621950951
 20
-14.02016058677274
 30
0.0
 10
17.63819986538212
 20
-13.80553113804167
 30
0.0
 10
17.58238931852107
 20
-13.45998806087112
 30
0.0
 10
17.33572048177718
 20
-13.70769042626058
 30
0.0
 10
17.09835340284347
 20
-13.79450683248887
 30
0.0
 10
16.8699435721714
 20
-13.720437279556
 30
0.0
 10
16.8699435721714
 20
-13.720437279556
 30
0.0
 10
16.19952799074179
 20
-13.50270724488821
 30
0.0
 10
16.19952799074179
 20
-13.50270724488821
 30
0.0
 10
15.69619954034678
 20
-13.33940971888737
 30
0.0
 10
15.52463378518134
 20
-13.01074760959454
 30
0.0
 10
15.68517523479398
 20
-12.51672091700971
 30
0.0
 10
15.84709472260073
 20
-12.02131618623078
 30
0.0
 10
16.17920192737881
 20
-11.85560709339027
 30
0.0
 10
16.68115233957971
 20
-12.01856010984258
 30
0.0
 10
16.68115233957971
 20
-12.01856010984258
 30
0.0
 10
17.12729220491957
 20
-12.16325412022308
 30
0.0
 10
17.12729220491957
 20
-12.16325412022308
 30
0.0
 10
17.12729220491957
 20
-12.16325412022308
 30
0.0
 10
17.00326876745057
 20
-12.54634873818286
 30
0.0
 10
17.00326876745057
 20
-12.54634873818286
 30
0.0
 10
17.00326876745057
 20
-12.54634873818286
 30
0.0
 10
16.55678439256219
 20
-12.40165472780236
 30
0.0
 10
16.55678439256219
 20
-12.40165472780236
 30
0.0
 10
16.30529242213895
 20
-12.32000596480194
 30
0.0
 10
16.14061685794401
 20
-12.39924316096269
 30
0.0
 10
16.06241319042884
 20
-12.63902180673608
 30
0.0
 10
15.98524305155925
 20
-12.87776692386389
 30
0.0
 10
16.07240396733607
 20
-13.03796386392801
 30
0.0
 10
16.3238959377593
 20
-13.11926811737991
 30
0.0
 10
16.3238959377593
 20
-13.11926811737991
 30
0.0
 10
16.99465602873745
 20
-13.33699815204769
 30
0.0
 10
16.99465602873745
 20
-13.33699815204769
 30
0.0
 10
17.23822427954461
 20
-13.42002495324222
 30
0.0
 10
17.409101015613
 20
-13.33355305656245
 30
0.0
 10
17.5069417273941
 20
-13.07723795245986
 30
0.0
 10
17.5069417273941
 20
-13.07723795245986
 30
0.0
 10
17.56654187928892
 20
-12.89223632490194
 30
0.0
 10
17.56654187928892
 20
-12.89223632490194
 30
0.0
 10
17.56654187928892
 20
-12.89223632490194
 30
0.0
 10
17.94446885402083
 20
-13.01453721462831
 30
0.0
 10
17.94446885402083
 20
-13.01453721462831
 30
0.0
 10
17.94446885402083
 20
-13.01453721462831
 30
0.0
 10
17.88245713528633
 20
-13.20539550451115
 30
0.0
 10
17.88245713528633
 20
-13.20539550451115
 30
0.0
  0
HATCH
  5
9C
330
84
100
AcDbEntity
  8
Numbers
 62
   250
420
  2301728
100
AcDbHatch
 10
0.0
 20
0.0
 30
0.0
210
0.0
220
0.0
230
1.0
  2
SOLID
 70
     1
 71
     0
 91
        1
 92
        1
 93
        1
 72
     4
 94
        3
 73
     0
 74
     1
 95
       80
 96
       76
 40
0.0
 40
0.0
 40
0.0
 40
0.0
 40
1.0
 40
1.0
 40
1.0
 40
2.0
 40
2.0
 40
2.0
 40
3.0
 40
3.0
 40
3.0
 40
4.0
 40
4.0
 40
4.0
 40
5.0
 40
5.0
 40
5.0
 40
6.0
 40
6.0
 40
6.0
 40
7.0
 40
7.0
 40
7.0
 40
8.0
 40
8.0
 40
8.0
 40
9.0
 40
9.0
 40
9.0
 40
10.0
 40
10.0
 40
10.0
 40
11.0
 40
11.0
 40
11.0
 40
12.0
 40
12.0
 40
12.0
 40
13.0
 40
13.0
 40
13.0
 40
14.0
 40
14.0
 40
14.0
 40
15.0
 40
15.0
 40
15.0
 40
16.0
 40
16.0
 40
16.0
 40
17.0
 40
17.0
 40
17.0
 40
18.0
 40
18.0
 40
18.0
 40
19.0
 40
19.0
 40
19.0
 40
20.0
 40
20.0
 40
20.0
 40
21.0
 40
21.0
 40
21.0
 40
22.0
 40
22.0
 40
22.0
 40
23.0
 40
23.0
 40
23.0
 40
24.0
 40
24.0
 40
24.0
 40
25.0
 40
25.0
 40
25.0
 40
25.0
 10
17.88245713528633
 20
-13.20539550451115
 10
17.83835991307513
 20
-13.47514648100621
 10
17.94343532537525
 20
-13.64877929346281
 10
18.19802788173521
 20
-13.7273274705265
 10
18.19802788173521
 20
-13.7273274705265
 10
18.81711154043461
 20
-13.92783202776804
 10
18.81711154043461
 20
-13.92783202776804
 10
19.06860351085785
 20
-14.00982530031699
 10
19.23327907505279
 20
-13.93093261370477
 10
19.31113823301944
 20
-13.69253200612548
 10
19.38865288143756
 20
-13.45275336035209
 10
19.30183647520926
 20
-13.29186740119092
 10
19.04965548568898
 20
-13.2102186381905
 10
19.04965548568898
 20
-13.2102186381905
 10
18.60351562034912
 20
-13.06552462781001
 10
18.60351562034912
 20
-13.06552462781001
 10
18.60351562034912
 20
-13.06552462781001
 10
18.72822807691517
 20
-12.6820855003017
 10
18.72822807691517
 20
-12.6820855003017
 10
18.72822807691517
 20
-12.6820855003017
 10
19.17402343270649
 20
-12.8267795106822
 10
19.17402343270649
 20
-12.8267795106822
 10
19.67631835445592
 20
-12.98973252713451
 10
19.84788410962136
 20
-13.3190836555244
 10
19.6883761886543
 20
-13.81483289585185
 10
19.52783473904165
 20
-14.3092040979852
 10
19.19607204381209
 20
-14.47456868127719
 10
18.69274359341709
 20
-14.31161566482487
 10
18.69274359341709
 20
-14.31161566482487
 10
18.05367838090325
 20
-14.10422091661284
 10
18.05367838090325
 20
-14.10422091661284
 10
17.79529621950951
 20
-14.02016058677274
 10
17.63819986538212
 20
-13.80553113804167
 10
17.58238931852107
 20
-13.45998806087112
 10
17.33572048177718
 20
-13.70769042626058
 10
17.09835340284347
 20
-13.79450683248887
 10
16.8699435721714
 20
-13.720437279556
 10
16.8699435721714
 20
-13.720437279556
 10
16.19952799074179
 20
-13.50270724488821
 10
16.19952799074179
 20
-13.50270724488821
 10
15.69619954034678
 20
-13.33940971888737
 10
15.52463378518134
 20
-13.01074760959454
 10
15.68517523479398
 20
-12.51672091700971
 10
15.84709472260073
 20
-12.02131618623078
 10
16.17920192737881
 20
-11.85560709339027
 10
16.68115233957971
 20
-12.01856010984258
 10
16.68115233957971
 20
-12.01856010984258
 10
17.12729220491957
 20
-12.16325412022308
 10
17.12729220491957
 20
-12.16325412022308
 10
17.12729220491957
 20
-12.16325412022308
 10
17.00326876745057
 20
-12.54634873818286
 10
17.00326876745057
 20
-12.54634873818286
 10
17.00326876745057
 20
-12.54634873818286
 10
16.55678439256219
 20
-12.40165472780236
 10
16.55678439256219
 20
-12.40165472780236
 10
16.30529242213895
 20
-12.32000596480194
 10
16.14061685794401
 20
-12.39924316096269
 10
16.06241319042884
 20
-12.63902180673608
 10
15.98524305155925
 20
-12.87776692386389
 10
16.07240396733607
 20
-13.03796386392801
 10
16.3238959377593
 20
-13.11926811737991
 10
16.3238959377593
 20
-13.11926811737991
 10
16.99465602873745
 20
-13.33699815204769
 10
16.99465602873745
 20
-13.33699815204769
 10
17.23822427954461
 20
-13.42002495324222
 10
17.409101015613
 20
-13.33355305656245
 10
17.5069417273941
 20
-13.07723795245986
 10
17.5069417273941
 20
-13.07723795245986
 10
17.56654187928892
 20
-12.89223632490194
 10
17.56654187928892
 20
-12.89223632490194
 10
17.56654187928892
 20
-12.89223632490194
 10
17.94446885402083
 20
-13.01453721462831
 10
17.94446885402083
 20
-13.01453721462831
 10
17.94446885402083
 20
-13.01453721462831
 10
17.88245713528633
 20
-13.20539550451115
 10
17.88245713528633
 20
-13.20539550451115
 97
        0
 97
        0
 75
     2
 76
     1
 98
        0
  0
POLYLINE
  5
9D
330
84
100
AcDbEntity
  8
Numbers
370
     0
100
AcDb2dPolyline
 66
     1
 10
0.0
 20
0.0
 30
0.0
  0
VERTEX
  5
9E
330
9D
100
AcDbEntity
  8
Numbers
370
     0
100
AcDbVertex
100
AcDb2dVertex
 10
15.74064127210651
 20
-18.75647785989421
 30
0.0
  0
VERTEX
  5
9F
330
9D
100
AcDbEntity
  8
Numbers
370
     0
100
AcDbVertex
100
AcDb2dVertex
 10
14.20068359019983
 20
-16.63050943594654
 30
0.0
  0
VERTEX
  5
A0
330
9D
100
AcDbEntity
  8
Numbers
370
     0
100
AcDbVertex
100
AcDb2dVertex
 10
14.00810275257436
 20
-16.77003580309916
 30
0.0
  0
VERTEX
  5
A1
330
9D
100
AcDbEntity
  8
Numbers
370
     0
100
AcDbVertex
100
AcDb2dVertex
 10
13.77762586461115
 20
-16.45170898026207
 30
0.0
  0
VERTEX
  5
A2
330
9D
100
AcDbEntity
  8
Numbers
370
     0
100
AcDbVertex
100
AcDb2dVertex
 10
13.97020670223661
 20
-16.31252712265798
 30
0.0
  0
VERTEX
  5
A3
330
9D
100
AcDbEntity
  8
Numbers
370
     0
100
AcDbVertex
100
AcDb2dVertex
 10
13.35387911992542
 20
-15.46227755689832
 30
0.0
  0
VERTEX
  5
A4
330
9D
100
AcDbEntity
  8
Numbers
370
     0
100
AcDbVertex
100
AcDb2dVertex
 10
13.6804741719271
 20
-15.22559949706166
 30
0.0
  0
VERTEX
  5
A5
330
9D
100
AcDbEntity
  8
Numbers
370
     0
100
AcDbVertex
100
AcDb2dVertex
 10
14.29645724468977
 20
-16.07584906282132
 30
0.0
  0
VERTEX
  5
A6
330
9D
100
AcDbEntity
  8
Numbers
370
     0
100
AcDbVertex
100
AcDb2dVertex
 10
15.31276041283848
 20
-15.33997666717195
 30
0.0
  0
VERTEX
  5
A7
330
9D
100
AcDbEntity
  8
Numbers
370
     0
100
AcDbVertex
100
AcDb2dVertex
 10
15.55495062545154
 20
-15.67449543878971
 30
0.0
  0
VERTEX
  5
A8
330
9D
100
AcDbEntity
  8
Numbers
370
     0
100
AcDbVertex
100
AcDb2dVertex
 10
16.23466796469133
 20
-18.39853243897676
 30
0.0
  0
VERTEX
  5
A9
330
9D
100
AcDbEntity
  8
Numbers
370
     0
100
AcDbVertex
100
AcDb2dVertex
 10
15.74064127210651
 20
-18.75647785989421
 30
0.0
  0
SEQEND
  5
AA
330
9D
100
AcDbEntity
  8
Numbers
370
     0
  0
POLYLINE
  5
AB
330
84
100
AcDbEntity
  8
Numbers
370
     0
100
AcDb2dPolyline
 66
     1
 10
0.0
 20
0.0
 30
0.0
  0
VERTEX
  5
AC
330
AB
100
AcDbEntity
  8
Numbers
370
     0
100
AcDbVertex
100
AcDb2dVertex
 10
15.26521809514203
 20
-15.8591525567991
 30
0.0
  0
VERTEX
  5
AD
330
AB
100
AcDbEntity
  8
Numbers
370
     0
100
AcDbVertex
100
AcDb2dVertex
 10
14.52693413265299
 20
-16.3941758856584
 30
0.0
  0
VERTEX
  5
AE
330
AB
100
AcDbEntity
  8
Numbers
370
     0
100
AcDbVertex
100
AcDb2dVertex
 10
15.88292371564733
 20
-18.26520724369759
 30
0.0
  0
VERTEX
  5
AF
330
AB
100
AcDbEntity
  8
Numbers
370
     0
100
AcDbVertex
100
AcDb2dVertex
 10
15.26521809514203
 20
-15.8591525567991
 30
0.0
  0
SEQEND
  5
B0
330
AB
100
AcDbEntity
  8
Numbers
370
     0
  0
HATCH
  5
B1
330
84
100
AcDbEntity
  8
Numbers
 62
   250
420
  2301728
100
AcDbHatch
 10
0.0
 20
0.0
 30
0.0
210
0.0
220
0.0
230
1.0
  2
SOLID
 70
     1
 71
     0
 91
        2
 92
        1
 93
       11
 72
     1
 10
15.74064127210651
 20
-18.75647785989421
 11
14.20068359019983
 21
-16.63050943594654
 72
     1
 10
14.20068359019983
 20
-16.63050943594654
 11
14.00810275257436
 21
-16.77003580309916
 72
     1
 10
14.00810275257436
 20
-16.77003580309916
 11
13.77762586461115
 21
-16.45170898026207
 72
     1
 10
13.77762586461115
 20
-16.45170898026207
 11
13.97020670223661
 21
-16.31252712265798
 72
     1
 10
13.97020670223661
 20
-16.31252712265798
 11
13.35387911992542
 21
-15.46227755689832
 72
     1
 10
13.35387911992542
 20
-15.46227755689832
 11
13.6804741719271
 21
-15.22559949706166
 72
     1
 10
13.6804741719271
 20
-15.22559949706166
 11
14.29645724468977
 21
-16.07584906282132
 72
     1
 10
14.29645724468977
 20
-16.07584906282132
 11
15.31276041283848
 21
-15.33997666717195
 72
     1
 10
15.31276041283848
 20
-15.33997666717195
 11
15.55495062545154
 21
-15.67449543878971
 72
     1
 10
15.55495062545154
 20
-15.67449543878971
 11
16.23466796469133
 21
-18.39853243897676
 72
     1
 10
16.23466796469133
 20
-18.39853243897676
 11
15.74064127210651
 21
-18.75647785989421
 97
        0
 92
        1
 93
        3
 72
     1
 10
15.26521809514203
 20
-15.8591525567991
 11
14.52693413265299
 21
-16.3941758856584
 72
     1
 10
14.52693413265299
 20
-16.3941758856584
 11
15.88292371564733
 21
-18.26520724369759
 72
     1
 10
15.88292371564733
 20
-18.26520724369759
 11
15.26521809514203
 21
-15.8591525567991
 97
        0
 75
     2
 76
     1
 98
        0
  0
SPLINE
  5
B2
330
84
100
AcDbEntity
  8
Numbers
370
     0
100
AcDbSpline
210
0.0
220
0.0
230
1.0
 70
    11
 71
     3
 72
    77
 73
    73
 74
     0
 42
0.0000000001
 43
0.0000000001
 12
1.0
 22
0.0
 32
0.0
 13
1.0
 23
0.0
 33
0.0
 40
0.0
 40
0.0
 40
0.0
 40
0.0
 40
1.0
 40
1.0
 40
1.0
 40
2.0
 40
2.0
 40
2.0
 40
3.0
 40
3.0
 40
3.0
 40
4.0
 40
4.0
 40
4.0
 40
5.0
 40
5.0
 40
5.0
 40
6.0
 40
6.0
 40
6.0
 40
7.0
 40
7.0
 40
7.0
 40
8.0
 40
8.0
 40
8.0
 40
9.0
 40
9.0
 40
9.0
 40
10.0
 40
10.0
 40
10.0
 40
11.0
 40
11.0
 40
11.0
 40
12.0
 40
12.0
 40
12.0
 40
13.0
 40
13.0
 40
13.0
 40
14.0
 40
14.0
 40
14.0
 40
15.0
 40
15.0
 40
15.0
 40
16.0
 40
16.0
 40
16.0
 40
17.0
 40
17.0
 40
17.0
 40
18.0
 40
18.0
 40
18.0
 40
19.0
 40
19.0
 40
19.0
 40
20.0
 40
20.0
 40
20.0
 40
21.0
 40
21.0
 40
21.0
 40
22.0
 40
22.0
 40
22.0
 40
23.0
 40
23.0
 40
23.0
 40
24.0
 40
24.0
 40
24.0
 40
24.0
 10
10.6012478272108
 20
-17.93413356756508
 30
0.0
 10
10.60090331766227
 20
-18.13257106751547
 30
0.0
 10
10.65430229768365
 20
-18.25452744769331
 30
0.0
 10
10.76144476727492
 20
-18.30034721764714
 30
0.0
 10
10.80726453722874
 20
-18.32411837649536
 30
0.0
 10
10.87719997557931
 20
-18.33583170114521
 30
0.0
 10
10.97228461097221
 20
-18.33617621069374
 30
0.0
 10
10.99467773162633
 20
-18.33617621069374
 30
0.0
 10
11.01569281408636
 20
-18.33548719159668
 30
0.0
 10
11.03636338699785
 20
-18.33445366295111
 30
0.0
 10
11.21964246681314
 20
-18.32652994333504
 30
0.0
 10
11.32402886001621
 20
-18.23868000846116
 30
0.0
 10
11.34917805705854
 20
-18.07055934878097
 30
0.0
 10
11.34917805705854
 20
-18.07055934878097
 30
0.0
 10
11.35124511434969
 20
-17.99407822900843
 30
0.0
 10
11.35124511434969
 20
-17.99407822900843
 30
0.0
 10
11.35124511434969
 20
-17.99407822900843
 30
0.0
 10
11.75466579567244
 20
-17.995111757654
 30
0.0
 10
11.75466579567244
 20
-17.995111757654
 30
0.0
 10
11.75466579567244
 20
-17.995111757654
 30
0.0
 10
11.66647135125005
 20
-20.06837022067735
 30
0.0
 10
11.66647135125005
 20
-20.06837022067735
 30
0.0
 10
11.66647135125005
 20
-20.06837022067735
 30
0.0
 10
10.19265950266017
 20
-20.06423610609505
 30
0.0
 10
10.19265950266017
 20
-20.06423610609505
 30
0.0
 10
10.19265950266017
 20
-20.06423610609505
 30
0.0
 10
10.19369303130574
 20
-19.66942816348542
 30
0.0
 10
10.19369303130574
 20
-19.66942816348542
 30
0.0
 10
10.19369303130574
 20
-19.66942816348542
 30
0.0
 10
11.27889810915944
 20
-19.67218423987362
 30
0.0
 10
11.27889810915944
 20
-19.67218423987362
 30
0.0
 10
11.27889810915944
 20
-19.67218423987362
 30
0.0
 10
11.33815375150574
 20
-18.39887694852528
 30
0.0
 10
11.33815375150574
 20
-18.39887694852528
 30
0.0
 10
11.1528076143993
 20
-18.60248209170355
 30
0.0
 10
10.97056206322958
 20
-18.70824652310072
 30
0.0
 10
10.79141709799659
 20
-18.71582573316827
 30
0.0
 10
10.77488063966739
 20
-18.71582573316827
 30
0.0
 10
10.75421006675589
 20
-18.71375867587712
 30
0.0
 10
10.72940537926209
 20
-18.70962456129482
 30
0.0
 10
10.5447482612527
 20
-18.69412163161119
 30
0.0
 10
10.40591091319713
 20
-18.62211913596947
 30
0.0
 10
10.31254882554686
 20
-18.49361707436965
 30
0.0
 10
10.23572319622579
 20
-18.38578558568133
 30
0.0
 10
10.19748263633952
 20
-18.19906141038079
 30
0.0
 10
10.19817165543657
 20
-17.9331000389195
 30
0.0
 10
10.19817165543657
 20
-17.9331000389195
 30
0.0
 10
10.20161675092182
 20
-16.71525878488369
 30
0.0
 10
10.20161675092182
 20
-16.71525878488369
 30
0.0
 10
10.20299478911592
 20
-16.18747015654341
 30
0.0
 10
10.46413302689786
 20
-15.92460937101885
 30
0.0
 10
10.98503146426763
 20
-15.92598740921295
 30
0.0
 10
11.50420735389478
 20
-15.92736544740705
 30
0.0
 10
11.76362304393409
 20
-16.19194878067423
 30
0.0
 10
11.76224500574
 20
-16.71973740901451
 30
0.0
 10
11.76224500574
 20
-16.71973740901451
 30
0.0
 10
11.76086696754589
 20
-17.12040201394907
 30
0.0
 10
11.76086696754589
 20
-17.12040201394907
 30
0.0
 10
11.76086696754589
 20
-17.12040201394907
 30
0.0
 10
11.35779079577166
 20
-17.11971299485202
 30
0.0
 10
11.35779079577166
 20
-17.11971299485202
 30
0.0
 10
11.35779079577166
 20
-17.11971299485202
 30
0.0
 10
11.35882432441724
 20
-16.71870388036893
 30
0.0
 10
11.35882432441724
 20
-16.71870388036893
 30
0.0
 10
11.35951334351429
 20
-16.45377603755322
 30
0.0
 10
11.23480088694824
 20
-16.32148437091963
 30
0.0
 10
10.98399793562206
 20
-16.3211398613711
 30
0.0
 10
10.73181694610177
 20
-16.32045084227406
 30
0.0
 10
10.6053819417931
 20
-16.4520534898106
 30
0.0
 10
10.60469292269605
 20
-16.71663682307778
 30
0.0
 10
10.60469292269605
 20
-16.71663682307778
 30
0.0
 10
10.6012478272108
 20
-17.93413356756508
 30
0.0
 10
10.6012478272108
 20
-17.93413356756508
 30
0.0
  0
HATCH
  5
B3
330
84
100
AcDbEntity
  8
Numbers
 62
   250
420
  2301728
100
AcDbHatch
 10
0.0
 20
0.0
 30
0.0
210
0.0
220
0.0
230
1.0
  2
SOLID
 70
     1
 71
     0
 91
        1
 92
        1
 93
        1
 72
     4
 94
        3
 73
     0
 74
     1
 95
       77
 96
       73
 40
0.0
 40
0.0
 40
0.0
 40
0.0
 40
1.0
 40
1.0
 40
1.0
 40
2.0
 40
2.0
 40
2.0
 40
3.0
 40
3.0
 40
3.0
 40
4.0
 40
4.0
 40
4.0
 40
5.0
 40
5.0
 40
5.0
 40
6.0
 40
6.0
 40
6.0
 40
7.0
 40
7.0
 40
7.0
 40
8.0
 40
8.0
 40
8.0
 40
9.0
 40
9.0
 40
9.0
 40
10.0
 40
10.0
 40
10.0
 40
11.0
 40
11.0
 40
11.0
 40
12.0
 40
12.0
 40
12.0
 40
13.0
 40
13.0
 40
13.0
 40
14.0
 40
14.0
 40
14.0
 40
15.0
 40
15.0
 40
15.0
 40
16.0
 40
16.0
 40
16.0
 40
17.0
 40
17.0
 40
17.0
 40
18.0
 40
18.0
 40
18.0
 40
19.0
 40
19.0
 40
19.0
 40
20.0
 40
20.0
 40
20.0
 40
21.0
 40
21.0
 40
21.0
 40
22.0
 40
22.0
 40
22.0
 40
23.0
 40
23.0
 40
23.0
 40
24.0
 40
24.0
 40
24.0
 40
24.0
 10
10.6012478272108
 20
-17.93413356756508
 10
10.60090331766227
 20
-18.13257106751547
 10
10.65430229768365
 20
-18.25452744769331
 10
10.76144476727492
 20
-18.30034721764714
 10
10.80726453722874
 20
-18.32411837649536
 10
10.87719997557931
 20
-18.33583170114521
 10
10.97228461097221
 20
-18.33617621069374
 10
10.99467773162633
 20
-18.33617621069374
 10
11.01569281408636
 20
-18.33548719159668
 10
11.03636338699785
 20
-18.33445366295111
 10
11.21964246681314
 20
-18.32652994333504
 10
11.32402886001621
 20
-18.23868000846116
 10
11.34917805705854
 20
-18.07055934878097
 10
11.34917805705854
 20
-18.07055934878097
 10
11.35124511434969
 20
-17.99407822900843
 10
11.35124511434969
 20
-17.99407822900843
 10
11.35124511434969
 20
-17.99407822900843
 10
11.75466579567244
 20
-17.995111757654
 10
11.75466579567244
 20
-17.995111757654
 10
11.75466579567244
 20
-17.995111757654
 10
11.66647135125005
 20
-20.06837022067735
 10
11.66647135125005
 20
-20.06837022067735
 10
11.66647135125005
 20
-20.06837022067735
 10
10.19265950266017
 20
-20.06423610609505
 10
10.19265950266017
 20
-20.06423610609505
 10
10.19265950266017
 20
-20.06423610609505
 10
10.19369303130574
 20
-19.66942816348542
 10
10.19369303130574
 20
-19.66942816348542
 10
10.19369303130574
 20
-19.66942816348542
 10
11.27889810915944
 20
-19.67218423987362
 10
11.27889810915944
 20
-19.67218423987362
 10
11.27889810915944
 20
-19.67218423987362
 10
11.33815375150574
 20
-18.39887694852528
 10
11.33815375150574
 20
-18.39887694852528
 10
11.1528076143993
 20
-18.60248209170355
 10
10.97056206322958
 20
-18.70824652310072
 10
10.79141709799659
 20
-18.71582573316827
 10
10.77488063966739
 20
-18.71582573316827
 10
10.75421006675589
 20
-18.71375867587712
 10
10.72940537926209
 20
-18.70962456129482
 10
10.5447482612527
 20
-18.69412163161119
 10
10.40591091319713
 20
-18.62211913596947
 10
10.31254882554686
 20
-18.49361707436965
 10
10.23572319622579
 20
-18.38578558568133
 10
10.19748263633952
 20
-18.19906141038079
 10
10.19817165543657
 20
-17.9331000389195
 10
10.19817165543657
 20
-17.9331000389195
 10
10.20161675092182
 20
-16.71525878488369
 10
10.20161675092182
 20
-16.71525878488369
 10
10.20299478911592
 20
-16.18747015654341
 10
10.46413302689786
 20
-15.92460937101885
 10
10.98503146426763
 20
-15.92598740921295
 10
11.50420735389478
 20
-15.92736544740705
 10
11.76362304393409
 20
-16.19194878067423
 10
11.76224500574
 20
-16.71973740901451
 10
11.76224500574
 20
-16.71973740901451
 10
11.76086696754589
 20
-17.12040201394907
 10
11.76086696754589
 20
-17.12040201394907
 10
11.76086696754589
 20
-17.12040201394907
 10
11.35779079577166
 20
-17.11971299485202
 10
11.35779079577166
 20
-17.11971299485202
 10
11.35779079577166
 20
-17.11971299485202
 10
11.35882432441724
 20
-16.71870388036893
 10
11.35882432441724
 20
-16.71870388036893
 10
11.35951334351429
 20
-16.45377603755322
 10
11.23480088694824
 20
-16.32148437091963
 10
10.98399793562206
 20
-16.3211398613711
 10
10.73181694610177
 20
-16.32045084227406
 10
10.6053819417931
 20
-16.4520534898106
 10
10.60469292269605
 20
-16.71663682307778
 10
10.60469292269605
 20
-16.71663682307778
 10
10.6012478272108
 20
-17.93413356756508
 10
10.6012478272108
 20
-17.93413356756508
 97
        0
 97
        0
 75
     2
 76
     1
 98
        0
  0
SPLINE
  5
B4
330
84
100
AcDbEntity
  8
Numbers
370
     0
100
AcDbSpline
210
0.0
220
0.0
230
1.0
 70
    11
 71
     3
 72
    56
 73
    52
 74
     0
 42
0.0000000001
 43
0.0000000001
 12
1.0
 22
0.0
 32
0.0
 13
1.0
 23
0.0
 33
0.0
 40
0.0
 40
0.0
 40
0.0
 40
0.0
 40
1.0
 40
1.0
 40
1.0
 40
2.0
 40
2.0
 40
2.0
 40
3.0
 40
3.0
 40
3.0
 40
4.0
 40
4.0
 40
4.0
 40
5.0
 40
5.0
 40
5.0
 40
6.0
 40
6.0
 40
6.0
 40
7.0
 40
7.0
 40
7.0
 40
8.0
 40
8.0
 40
8.0
 40
9.0
 40
9.0
 40
9.0
 40
10.0
 40
10.0
 40
10.0
 40
11.0
 40
11.0
 40
11.0
 40
12.0
 40
12.0
 40
12.0
 40
13.0
 40
13.0
 40
13.0
 40
14.0
 40
14.0
 40
14.0
 40
15.0
 40
15.0
 40
15.0
 40
16.0
 40
16.0
 40
16.0
 40
17.0
 40
17.0
 40
17.0
 40
17.0
 10
6.99354383505717
 20
-15.15221896322583
 30
0.0
 10
7.305669486020805
 20
-14.72640516124896
 30
0.0
 10
7.671883136102863
 20
-14.66714951890266
 30
0.0
 10
8.091840275754818
 20
-14.97548556483252
 30
0.0
 10
8.511108396309723
 20
-15.28244357256828
 30
0.0
 10
8.564507376331095
 20
-15.64865722265034
 30
0.0
 10
8.252726234915986
 20
-16.07447102462721
 30
0.0
 10
8.252726234915986
 20
-16.07447102462721
 30
0.0
 10
6.703466795199134
 20
-18.18872612392504
 30
0.0
 10
6.703466795199134
 20
-18.18872612392504
 30
0.0
 10
6.390652125138448
 20
-18.6155734545475
 30
0.0
 10
6.02512749415344
 20
-18.67551811599084
 30
0.0
 10
5.605859373598536
 20
-18.36821559870656
 30
0.0
 10
5.185557724398056
 20
-18.06056857187375
 30
0.0
 10
5.131814234828158
 20
-17.69332139314611
 30
0.0
 10
5.444628904888843
 20
-17.26647406252366
 30
0.0
 10
5.444628904888843
 20
-17.26647406252366
 30
0.0
 10
5.72092556280588
 20
-16.88958061643733
 30
0.0
 10
5.72092556280588
 20
-16.88958061643733
 30
0.0
 10
5.72092556280588
 20
-16.88958061643733
 30
0.0
 10
6.046142576613464
 20
-17.12763671446809
 30
0.0
 10
6.046142576613464
 20
-17.12763671446809
 30
0.0
 10
6.046142576613464
 20
-17.12763671446809
 30
0.0
 10
5.769845918696427
 20
-17.50487467010295
 30
0.0
 10
5.769845918696427
 20
-17.50487467010295
 30
0.0
 10
5.613438583666085
 20
-17.71812608063991
 30
0.0
 10
5.636176213868734
 20
-17.89864908406701
 30
0.0
 10
5.838747828401424
 20
-18.04713269948127
 30
0.0
 10
5.838747828401424
 20
-18.04713269948127
 30
0.0
 10
5.842192923886675
 20
-18.04954426632095
 30
0.0
 10
5.842192923886675
 20
-18.04954426632095
 30
0.0
 10
6.043386500225265
 20
-18.19699435308964
 30
0.0
 10
6.221842446361206
 20
-18.16392143643124
 30
0.0
 10
6.378249781391549
 20
-17.95032551634575
 30
0.0
 10
6.378249781391549
 20
-17.95032551634575
 30
0.0
 10
7.137204316792088
 20
-16.91507432302818
 30
0.0
 10
7.137204316792088
 20
-16.91507432302818
 30
0.0
 10
6.849538843773726
 20
-16.94366861555575
 30
0.0
 10
6.649034286532186
 20
-16.91645236122228
 30
0.0
 10
6.536035154615991
 20
-16.83308105047923
 30
0.0
 10
6.513642033961868
 20
-16.81723361124708
 30
0.0
 10
6.491593422856268
 20
-16.79931911472378
 30
0.0
 10
6.469889321299195
 20
-16.77968207045786
 30
0.0
 10
6.342765297893475
 20
-16.66427137170199
 30
0.0
 10
6.271451821348804
 20
-16.53886989603889
 30
0.0
 10
6.256293401213704
 20
-16.40313313392005
 30
0.0
 10
6.239756942884505
 20
-16.26291774767038
 30
0.0
 10
6.317616100851152
 20
-16.07481553417574
 30
0.0
 10
6.490559894210693
 20
-15.83882649343613
 30
0.0
 10
6.490559894210693
 20
-15.83882649343613
 30
0.0
 10
6.99354383505717
 20
-15.15221896322583
 30
0.0
 10
6.99354383505717
 20
-15.15221896322583
 30
0.0
  0
SPLINE
  5
B5
330
84
100
AcDbEntity
  8
Numbers
370
     0
100
AcDbSpline
210
0.0
220
0.0
230
1.0
 70
    11
 71
     3
 72
    29
 73
    25
 74
     0
 42
0.0000000001
 43
0.0000000001
 12
1.0
 22
0.0
 32
0.0
 13
1.0
 23
0.0
 33
0.0
 40
0.0
 40
0.0
 40
0.0
 40
0.0
 40
1.0
 40
1.0
 40
1.0
 40
2.0
 40
2.0
 40
2.0
 40
3.0
 40
3.0
 40
3.0
 40
4.0
 40
4.0
 40
4.0
 40
5.0
 40
5.0
 40
5.0
 40
6.0
 40
6.0
 40
6.0
 40
7.0
 40
7.0
 40
7.0
 40
8.0
 40
8.0
 40
8.0
 40
8.0
 10
7.927509221108401
 20
-15.83641492659645
 30
0.0
 10
8.083916556138744
 20
-15.62281900651096
 30
0.0
 10
8.061178925936094
 20
-15.44195149353535
 30
0.0
 10
7.858607311403405
 20
-15.2938123876696
 30
0.0
 10
7.655002168225138
 20
-15.14463975315829
 30
0.0
 10
7.475168183895097
 20
-15.17702365071963
 30
0.0
 10
7.318760848864755
 20
-15.3902750612566
 30
0.0
 10
7.318760848864755
 20
-15.3902750612566
 30
0.0
 10
6.815776908018278
 20
-16.07757161056394
 30
0.0
 10
6.815776908018278
 20
-16.07757161056394
 30
0.0
 10
6.697610132874209
 20
-16.23880207927363
 30
0.0
 10
6.668326821249585
 20
-16.3693711981646
 30
0.0
 10
6.728271482692932
 20
-16.46927896723685
 30
0.0
 10
6.753765189283781
 20
-16.51372069899657
 30
0.0
 10
6.804408092916954
 20
-16.56367458353269
 30
0.0
 10
6.879855684043926
 20
-16.61879611129669
 30
0.0
 10
6.897770180567225
 20
-16.63223198368917
 30
0.0
 10
6.915340167541999
 20
-16.64428981788754
 30
0.0
 10
6.932910154516772
 20
-16.65531412344034
 30
0.0
 10
7.10895453381304
 20
-16.77416991768146
 30
0.0
 10
7.272596569362407
 20
-16.73007269547026
 30
0.0
 10
7.4241807707134
 20
-16.52336696635527
 30
0.0
 10
7.4241807707134
 20
-16.52336696635527
 30
0.0
 10
7.927509221108401
 20
-15.83641492659645
 30
0.0
 10
7.927509221108401
 20
-15.83641492659645
 30
0.0
  0
HATCH
  5
B6
330
84
100
AcDbEntity
  8
Numbers
 62
   250
420
  2301728
100
AcDbHatch
 10
0.0
 20
0.0
 30
0.0
210
0.0
220
0.0
230
1.0
  2
SOLID
 70
     1
 71
     0
 91
        2
 92
        1
 93
        1
 72
     4
 94
        3
 73
     0
 74
     1
 95
       56
 96
       52
 40
0.0
 40
0.0
 40
0.0
 40
0.0
 40
1.0
 40
1.0
 40
1.0
 40
2.0
 40
2.0
 40
2.0
 40
3.0
 40
3.0
 40
3.0
 40
4.0
 40
4.0
 40
4.0
 40
5.0
 40
5.0
 40
5.0
 40
6.0
 40
6.0
 40
6.0
 40
7.0
 40
7.0
 40
7.0
 40
8.0
 40
8.0
 40
8.0
 40
9.0
 40
9.0
 40
9.0
 40
10.0
 40
10.0
 40
10.0
 40
11.0
 40
11.0
 40
11.0
 40
12.0
 40
12.0
 40
12.0
 40
13.0
 40
13.0
 40
13.0
 40
14.0
 40
14.0
 40
14.0
 40
15.0
 40
15.0
 40
15.0
 40
16.0
 40
16.0
 40
16.0
 40
17.0
 40
17.0
 40
17.0
 40
17.0
 10
6.99354383505717
 20
-15.15221896322583
 10
7.305669486020805
 20
-14.72640516124896
 10
7.671883136102863
 20
-14.66714951890266
 10
8.091840275754818
 20
-14.97548556483252
 10
8.511108396309723
 20
-15.28244357256828
 10
8.564507376331095
 20
-15.64865722265034
 10
8.252726234915986
 20
-16.07447102462721
 10
8.252726234915986
 20
-16.07447102462721
 10
6.703466795199134
 20
-18.18872612392504
 10
6.703466795199134
 20
-18.18872612392504
 10
6.390652125138448
 20
-18.6155734545475
 10
6.02512749415344
 20
-18.67551811599084
 10
5.605859373598536
 20
-18.36821559870656
 10
5.185557724398056
 20
-18.06056857187375
 10
5.131814234828158
 20
-17.69332139314611
 10
5.444628904888843
 20
-17.26647406252366
 10
5.444628904888843
 20
-17.26647406252366
 10
5.72092556280588
 20
-16.88958061643733
 10
5.72092556280588
 20
-16.88958061643733
 10
5.72092556280588
 20
-16.88958061643733
 10
6.046142576613464
 20
-17.12763671446809
 10
6.046142576613464
 20
-17.12763671446809
 10
6.046142576613464
 20
-17.12763671446809
 10
5.769845918696427
 20
-17.50487467010295
 10
5.769845918696427
 20
-17.50487467010295
 10
5.613438583666085
 20
-17.71812608063991
 10
5.636176213868734
 20
-17.89864908406701
 10
5.838747828401424
 20
-18.04713269948127
 10
5.838747828401424
 20
-18.04713269948127
 10
5.842192923886675
 20
-18.04954426632095
 10
5.842192923886675
 20
-18.04954426632095
 10
6.043386500225265
 20
-18.19699435308964
 10
6.221842446361206
 20
-18.16392143643124
 10
6.378249781391549
 20
-17.95032551634575
 10
6.378249781391549
 20
-17.95032551634575
 10
7.137204316792088
 20
-16.91507432302818
 10
7.137204316792088
 20
-16.91507432302818
 10
6.849538843773726
 20
-16.94366861555575
 10
6.649034286532186
 20
-16.91645236122228
 10
6.536035154615991
 20
-16.83308105047923
 10
6.513642033961868
 20
-16.81723361124708
 10
6.491593422856268
 20
-16.79931911472378
 10
6.469889321299195
 20
-16.77968207045786
 10
6.342765297893475
 20
-16.66427137170199
 10
6.271451821348804
 20
-16.53886989603889
 10
6.256293401213704
 20
-16.40313313392005
 10
6.239756942884505
 20
-16.26291774767038
 10
6.317616100851152
 20
-16.07481553417574
 10
6.490559894210693
 20
-15.83882649343613
 10
6.490559894210693
 20
-15.83882649343613
 10
6.99354383505717
 20
-15.15221896322583
 10
6.99354383505717
 20
-15.15221896322583
 97
        0
 97
        0
 92
        1
 93
        1
 72
     4
 94
        3
 73
     0
 74
     1
 95
       29
 96
       25
 40
0.0
 40
0.0
 40
0.0
 40
0.0
 40
1.0
 40
1.0
 40
1.0
 40
2.0
 40
2.0
 40
2.0
 40
3.0
 40
3.0
 40
3.0
 40
4.0
 40
4.0
 40
4.0
 40
5.0
 40
5.0
 40
5.0
 40
6.0
 40
6.0
 40
6.0
 40
7.0
 40
7.0
 40
7.0
 40
8.0
 40
8.0
 40
8.0
 40
8.0
 10
7.927509221108401
 20
-15.83641492659645
 10
8.083916556138744
 20
-15.62281900651096
 10
8.061178925936094
 20
-15.44195149353535
 10
7.858607311403405
 20
-15.2938123876696
 10
7.655002168225138
 20
-15.14463975315829
 10
7.475168183895097
 20
-15.17702365071963
 10
7.318760848864755
 20
-15.3902750612566
 10
7.318760848864755
 20
-15.3902750612566
 10
6.815776908018278
 20
-16.07757161056394
 10
6.815776908018278
 20
-16.07757161056394
 10
6.697610132874209
 20
-16.23880207927363
 10
6.668326821249585
 20
-16.3693711981646
 10
6.728271482692932
 20
-16.46927896723685
 10
6.753765189283781
 20
-16.51372069899657
 10
6.804408092916954
 20
-16.56367458353269
 10
6.879855684043926
 20
-16.61879611129669
 10
6.897770180567225
 20
-16.63223198368917
 10
6.915340167541999
 20
-16.64428981788754
 10
6.932910154516772
 20
-16.65531412344034
 10
7.10895453381304
 20
-16.77416991768146
 10
7.272596569362407
 20
-16.73007269547026
 10
7.4241807707134
 20
-16.52336696635527
 10
7.4241807707134
 20
-16.52336696635527
 10
7.927509221108401
 20
-15.83641492659645
 10
7.927509221108401
 20
-15.83641492659645
 97
        0
 97
        0
 75
     2
 76
     1
 98
        0
  0
POLYLINE
  5
B7
330
84
100
AcDbEntity
  8
Numbers
370
     0
100
AcDb2dPolyline
 66
     1
 10
0.0
 20
0.0
 30
0.0
  0
VERTEX
  5
B8
330
B7
100
AcDbEntity
  8
Numbers
370
     0
100
AcDbVertex
100
AcDb2dVertex
 10
2.982763671129309
 20
-14.39843207105317
 30
0.0
  0
VERTEX
  5
B9
330
B7
100
AcDbEntity
  8
Numbers
370
     0
100
AcDbVertex
100
AcDb2dVertex
 10
2.608281791882652
 20
-14.51728786529429
 30
0.0
  0
VERTEX
  5
BA
330
B7
100
AcDbEntity
  8
Numbers
370
     0
100
AcDbVertex
100
AcDb2dVertex
 10
2.1208007807198
 20
-12.98043076932434
 30
0.0
  0
VERTEX
  5
BB
330
B7
100
AcDbEntity
  8
Numbers
370
     0
100
AcDbVertex
100
AcDb2dVertex
 10
2.426036240712936
 20
-12.88327907664029
 30
0.0
  0
VERTEX
  5
BC
330
B7
100
AcDbEntity
  8
Numbers
370
     0
100
AcDbVertex
100
AcDb2dVertex
 10
6.253537324825505
 20
-12.55461696734746
 30
0.0
  0
VERTEX
  5
BD
330
B7
100
AcDbEntity
  8
Numbers
370
     0
100
AcDbVertex
100
AcDb2dVertex
 10
6.378249781391549
 20
-12.94839138131151
 30
0.0
  0
VERTEX
  5
BE
330
B7
100
AcDbEntity
  8
Numbers
370
     0
100
AcDbVertex
100
AcDb2dVertex
 10
2.625507269308901
 20
-13.27326388557057
 30
0.0
  0
VERTEX
  5
BF
330
B7
100
AcDbEntity
  8
Numbers
370
     0
100
AcDbVertex
100
AcDb2dVertex
 10
2.982763671129309
 20
-14.39843207105317
 30
0.0
  0
SEQEND
  5
C0
330
B7
100
AcDbEntity
  8
Numbers
370
     0
  0
HATCH
  5
C1
330
84
100
AcDbEntity
  8
Numbers
 62
   250
420
  2301728
100
AcDbHatch
 10
0.0
 20
0.0
 30
0.0
210
0.0
220
0.0
230
1.0
  2
SOLID
 70
     1
 71
     0
 91
        1
 92
        1
 93
        7
 72
     1
 10
2.982763671129309
 20
-14.39843207105317
 11
2.608281791882652
 21
-14.51728786529429
 72
     1
 10
2.608281791882652
 20
-14.51728786529429
 11
2.1208007807198
 21
-12.98043076932434
 72
     1
 10
2.1208007807198
 20
-12.98043076932434
 11
2.426036240712936
 21
-12.88327907664029
 72
     1
 10
2.426036240712936
 20
-12.88327907664029
 11
6.253537324825505
 21
-12.55461696734746
 72
     1
 10
6.253537324825505
 20
-12.55461696734746
 11
6.378249781391549
 21
-12.94839138131151
 72
     1
 10
6.378249781391549
 20
-12.94839138131151
 11
2.625507269308901
 21
-13.27326388557057
 72
     1
 10
2.625507269308901
 20
-13.27326388557057
 11
2.982763671129309
 21
-14.39843207105317
 97
        0
 75
     2
 76
     1
 98
        0
  0
SPLINE
  5
C2
330
84
100
AcDbEntity
  8
Numbers
370
     0
100
AcDbSpline
210
0.0
220
0.0
230
1.0
 70
    11
 71
     3
 72
    41
 73
    37
 74
     0
 42
0.0000000001
 43
0.0000000001
 12
1.0
 22
0.0
 32
0.0
 13
1.0
 23
0.0
 33
0.0
 40
0.0
 40
0.0
 40
0.0
 40
0.0
 40
1.0
 40
1.0
 40
1.0
 40
2.0
 40
2.0
 40
2.0
 40
3.0
 40
3.0
 40
3.0
 40
4.0
 40
4.0
 40
4.0
 40
5.0
 40
5.0
 40
5.0
 40
6.0
 40
6.0
 40
6.0
 40
7.0
 40
7.0
 40
7.0
 40
8.0
 40
8.0
 40
8.0
 40
9.0
 40
9.0
 40
9.0
 40
10.0
 40
10.0
 40
10.0
 40
11.0
 40
11.0
 40
11.0
 40
12.0
 40
12.0
 40
12.0
 40
12.0
 10
2.836347113006191
 20
-9.123646373587144
 30
0.0
 10
2.335430229450865
 20
-8.957592771198103
 30
0.0
 10
2.165931531576573
 20
-8.627552623711168
 30
0.0
 10
2.32819552893184
 20
-8.132492402480766
 30
0.0
 10
2.491493054932683
 20
-7.639326983767252
 30
0.0
 10
2.824289278807817
 20
-7.475857202992147
 30
0.0
 10
3.326584200557243
 20
-7.641910805381189
 30
0.0
 10
3.326584200557243
 20
-7.641910805381189
 30
0.0
 10
4.011469183024911
 20
-7.868253578762103
 30
0.0
 10
4.011469183024911
 20
-7.868253578762103
 30
0.0
 10
4.237811956405825
 20
-7.94335666034055
 30
0.0
 10
4.378027342655494
 20
-8.153851994489315
 30
0.0
 10
4.432115341773915
 20
-8.499739581208399
 30
0.0
 10
4.680162216711904
 20
-8.253932018335822
 30
0.0
 10
4.918218314742668
 20
-8.168321395527364
 30
0.0
 10
5.145939126317682
 20
-8.243768986654336
 30
0.0
 10
5.145939126317682
 20
-8.243768986654336
 30
0.0
 10
5.8149766695532
 20
-8.4652886263559
 30
0.0
 10
5.8149766695532
 20
-8.4652886263559
 30
0.0
 10
6.317271591302627
 20
-8.631514483519204
 30
0.0
 10
6.487114798725444
 20
-8.961037866683352
 30
0.0
 10
6.323817272724601
 20
-9.454375540171128
 30
0.0
 10
6.158797198981135
 20
-9.948402232755955
 30
0.0
 10
5.826000975106
 20
-10.11256103262811
 30
0.0
 10
5.324739582002149
 20
-9.946679685013331
 30
0.0
 10
5.324739582002149
 20
-9.946679685013331
 30
0.0
 10
4.655702038766631
 20
-9.725332300086029
 30
0.0
 10
4.655702038766631
 20
-9.725332300086029
 30
0.0
 10
4.427981227191616
 20
-9.65005696373332
 30
0.0
 10
4.287765840941947
 20
-9.440250648681605
 30
0.0
 10
4.2347113704691
 20
-9.096085609705145
 30
0.0
 10
3.985630966885537
 20
-9.340515134383622
 30
0.0
 10
3.747574868854773
 20
-9.425092228546506
 30
0.0
 10
3.521232095473859
 20
-9.350161401742321
 30
0.0
 10
3.521232095473859
 20
-9.350161401742321
 30
0.0
 10
2.836347113006191
 20
-9.123646373587144
 30
0.0
 10
2.836347113006191
 20
-9.123646373587144
 30
0.0
  0
SPLINE
  5
C3
330
84
100
AcDbEntity
  8
Numbers
370
     0
100
AcDbSpline
210
0.0
220
0.0
230
1.0
 70
    11
 71
     3
 72
    29
 73
    25
 74
     0
 42
0.0000000001
 43
0.0000000001
 12
1.0
 22
0.0
 32
0.0
 13
1.0
 23
0.0
 33
0.0
 40
0.0
 40
0.0
 40
0.0
 40
0.0
 40
1.0
 40
1.0
 40
1.0
 40
2.0
 40
2.0
 40
2.0
 40
3.0
 40
3.0
 40
3.0
 40
4.0
 40
4.0
 40
4.0
 40
5.0
 40
5.0
 40
5.0
 40
6.0
 40
6.0
 40
6.0
 40
7.0
 40
7.0
 40
7.0
 40
8.0
 40
8.0
 40
8.0
 40
8.0
 10
3.648011609331053
 20
-8.967411293331065
 30
0.0
 10
3.895369465171991
 20
-9.05353868046231
 30
0.0
 10
4.056944443430209
 20
-8.99548882153585
 30
0.0
 10
4.13239203455718
 20
-8.792572697454634
 30
0.0
 10
4.14066026372178
 20
-8.772074379317399
 30
0.0
 10
4.148928492886379
 20
-8.750025768211799
 30
0.0
 10
4.156507702953929
 20
-8.7265991189121
 30
0.0
 10
4.185101995481502
 20
-8.640299477006593
 30
0.0
 10
4.198193358325452
 20
-8.57036403865602
 30
0.0
 10
4.195437281937252
 20
-8.517137313408911
 30
0.0
 10
4.182001409544777
 20
-8.399487302587628
 30
0.0
 10
4.078648544987282
 20
-8.310948348616709
 30
0.0
 10
3.885034178716241
 20
-8.25100368717336
 30
0.0
 10
3.885034178716241
 20
-8.25100368717336
 30
0.0
 10
3.200149196248574
 20
-8.024660913792447
 30
0.0
 10
3.200149196248574
 20
-8.024660913792447
 30
0.0
 10
2.949001735373861
 20
-7.9412896030494
 30
0.0
 10
2.783981661630393
 20
-8.018976506241785
 30
0.0
 10
2.705088975018172
 20
-8.25720485904681
 30
0.0
 10
2.625851778857426
 20
-8.49646674049741
 30
0.0
 10
2.711979165988672
 20
-8.657869463981367
 30
0.0
 10
2.963126626863385
 20
-8.74106851995015
 30
0.0
 10
2.963126626863385
 20
-8.74106851995015
 30
0.0
 10
3.648011609331053
 20
-8.967411293331065
 30
0.0
 10
3.648011609331053
 20
-8.967411293331065
 30
0.0
  0
SPLINE
  5
C4
330
84
100
AcDbEntity
  8
Numbers
370
     0
100
AcDbSpline
210
0.0
220
0.0
230
1.0
 70
    11
 71
     3
 72
    23
 73
    19
 74
     0
 42
0.0000000001
 43
0.0000000001
 12
1.0
 22
0.0
 32
0.0
 13
1.0
 23
0.0
 33
0.0
 40
0.0
 40
0.0
 40
0.0
 40
0.0
 40
1.0
 40
1.0
 40
1.0
 40
2.0
 40
2.0
 40
2.0
 40
3.0
 40
3.0
 40
3.0
 40
4.0
 40
4.0
 40
4.0
 40
5.0
 40
5.0
 40
5.0
 40
6.0
 40
6.0
 40
6.0
 40
6.0
 10
5.451174586310818
 20
-9.564101831376336
 30
0.0
 10
5.702666556734056
 20
-9.64730088734512
 30
0.0
 10
5.867686630477523
 20
-9.569097219829949
 30
0.0
 10
5.946923826638269
 20
-9.329663083605084
 30
0.0
 10
6.025816513250491
 20
-9.091606985574321
 30
0.0
 10
5.939689126119244
 20
-8.930893281187416
 30
0.0
 10
5.688541665244531
 20
-8.847866479992895
 30
0.0
 10
5.688541665244531
 20
-8.847866479992895
 30
0.0
 10
5.023293727042788
 20
-8.627897133259692
 30
0.0
 10
5.023293727042788
 20
-8.627897133259692
 30
0.0
 10
4.766634113391675
 20
-8.538669160191722
 30
0.0
 10
4.598168944162958
 20
-8.615667044287056
 30
0.0
 10
4.517898219356637
 20
-8.858890785545695
 30
0.0
 10
4.437627494550315
 20
-9.10125325293302
 30
0.0
 10
4.526855467618287
 20
-9.262655976416974
 30
0.0
 10
4.786271157657599
 20
-9.344132484643135
 30
0.0
 10
4.786271157657599
 20
-9.344132484643135
 30
0.0
 10
5.451174586310818
 20
-9.564101831376336
 30
0.0
 10
5.451174586310818
 20
-9.564101831376336
 30
0.0
  0
HATCH
  5
C5
330
84
100
AcDbEntity
  8
Numbers
 62
   250
420
  2301728
100
AcDbHatch
 10
0.0
 20
0.0
 30
0.0
210
0.0
220
0.0
230
1.0
  2
SOLID
 70
     1
 71
     0
 91
        3
 92
        1
 93
        1
 72
     4
 94
        3
 73
     0
 74
     1
 95
       41
 96
       37
 40
0.0
 40
0.0
 40
0.0
 40
0.0
 40
1.0
 40
1.0
 40
1.0
 40
2.0
 40
2.0
 40
2.0
 40
3.0
 40
3.0
 40
3.0
 40
4.0
 40
4.0
 40
4.0
 40
5.0
 40
5.0
 40
5.0
 40
6.0
 40
6.0
 40
6.0
 40
7.0
 40
7.0
 40
7.0
 40
8.0
 40
8.0
 40
8.0
 40
9.0
 40
9.0
 40
9.0
 40
10.0
 40
10.0
 40
10.0
 40
11.0
 40
11.0
 40
11.0
 40
12.0
 40
12.0
 40
12.0
 40
12.0
 10
2.836347113006191
 20
-9.123646373587144
 10
2.335430229450865
 20
-8.957592771198103
 10
2.165931531576573
 20
-8.627552623711168
 10
2.32819552893184
 20
-8.132492402480766
 10
2.491493054932683
 20
-7.639326983767252
 10
2.824289278807817
 20
-7.475857202992147
 10
3.326584200557243
 20
-7.641910805381189
 10
3.326584200557243
 20
-7.641910805381189
 10
4.011469183024911
 20
-7.868253578762103
 10
4.011469183024911
 20
-7.868253578762103
 10
4.237811956405825
 20
-7.94335666034055
 10
4.378027342655494
 20
-8.153851994489315
 10
4.432115341773915
 20
-8.499739581208399
 10
4.680162216711904
 20
-8.253932018335822
 10
4.918218314742668
 20
-8.168321395527364
 10
5.145939126317682
 20
-8.243768986654336
 10
5.145939126317682
 20
-8.243768986654336
 10
5.8149766695532
 20
-8.4652886263559
 10
5.8149766695532
 20
-8.4652886263559
 10
6.317271591302627
 20
-8.631514483519204
 10
6.487114798725444
 20
-8.961037866683352
 10
6.323817272724601
 20
-9.454375540171128
 10
6.158797198981135
 20
-9.948402232755955
 10
5.826000975106
 20
-10.11256103262811
 10
5.324739582002149
 20
-9.946679685013331
 10
5.324739582002149
 20
-9.946679685013331
 10
4.655702038766631
 20
-9.725332300086029
 10
4.655702038766631
 20
-9.725332300086029
 10
4.427981227191616
 20
-9.65005696373332
 10
4.287765840941947
 20
-9.440250648681605
 10
4.2347113704691
 20
-9.096085609705145
 10
3.985630966885537
 20
-9.340515134383622
 10
3.747574868854773
 20
-9.425092228546506
 10
3.521232095473859
 20
-9.350161401742321
 10
3.521232095473859
 20
-9.350161401742321
 10
2.836347113006191
 20
-9.123646373587144
 10
2.836347113006191
 20
-9.123646373587144
 97
        0
 97
        0
 92
        1
 93
        1
 72
     4
 94
        3
 73
     0
 74
     1
 95
       29
 96
       25
 40
0.0
 40
0.0
 40
0.0
 40
0.0
 40
1.0
 40
1.0
 40
1.0
 40
2.0
 40
2.0
 40
2.0
 40
3.0
 40
3.0
 40
3.0
 40
4.0
 40
4.0
 40
4.0
 40
5.0
 40
5.0
 40
5.0
 40
6.0
 40
6.0
 40
6.0
 40
7.0
 40
7.0
 40
7.0
 40
8.0
 40
8.0
 40
8.0
 40
8.0
 10
3.648011609331053
 20
-8.967411293331065
 10
3.895369465171991
 20
-9.05353868046231
 10
4.056944443430209
 20
-8.99548882153585
 10
4.13239203455718
 20
-8.792572697454634
 10
4.14066026372178
 20
-8.772074379317399
 10
4.148928492886379
 20
-8.750025768211799
 10
4.156507702953929
 20
-8.7265991189121
 10
4.185101995481502
 20
-8.640299477006593
 10
4.198193358325452
 20
-8.57036403865602
 10
4.195437281937252
 20
-8.517137313408911
 10
4.182001409544777
 20
-8.399487302587628
 10
4.078648544987282
 20
-8.310948348616709
 10
3.885034178716241
 20
-8.25100368717336
 10
3.885034178716241
 20
-8.25100368717336
 10
3.200149196248574
 20
-8.024660913792447
 10
3.200149196248574
 20
-8.024660913792447
 10
2.949001735373861
 20
-7.9412896030494
 10
2.783981661630393
 20
-8.018976506241785
 10
2.705088975018172
 20
-8.25720485904681
 10
2.625851778857426
 20
-8.49646674049741
 10
2.711979165988672
 20
-8.657869463981367
 10
2.963126626863385
 20
-8.74106851995015
 10
2.963126626863385
 20
-8.74106851995015
 10
3.648011609331053
 20
-8.967411293331065
 10
3.648011609331053
 20
-8.967411293331065
 97
        0
 97
        0
 92
        1
 93
        1
 72
     4
 94
        3
 73
     0
 74
     1
 95
       23
 96
       19
 40
0.0
 40
0.0
 40
0.0
 40
0.0
 40
1.0
 40
1.0
 40
1.0
 40
2.0
 40
2.0
 40
2.0
 40
3.0
 40
3.0
 40
3.0
 40
4.0
 40
4.0
 40
4.0
 40
5.0
 40
5.0
 40
5.0
 40
6.0
 40
6.0
 40
6.0
 40
6.0
 10
5.451174586310818
 20
-9.564101831376336
 10
5.702666556734056
 20
-9.64730088734512
 10
5.867686630477523
 20
-9.569097219829949
 10
5.946923826638269
 20
-9.329663083605084
 10
6.025816513250491
 20
-9.091606985574321
 10
5.939689126119244
 20
-8.930893281187416
 10
5.688541665244531
 20
-8.847866479992895
 10
5.688541665244531
 20
-8.847866479992895
 10
5.023293727042788
 20
-8.627897133259692
 10
5.023293727042788
 20
-8.627897133259692
 10
4.766634113391675
 20
-8.538669160191722
 10
4.598168944162958
 20
-8.615667044287056
 10
4.517898219356637
 20
-8.858890785545695
 10
4.437627494550315
 20
-9.10125325293302
 10
4.526855467618287
 20
-9.262655976416974
 10
4.786271157657599
 20
-9.344132484643135
 10
4.786271157657599
 20
-9.344132484643135
 10
5.451174586310818
 20
-9.564101831376336
 10
5.451174586310818
 20
-9.564101831376336
 97
        0
 97
        0
 75
     2
 76
     1
 98
        0
  0
SPLINE
  5
C6
330
84
100
AcDbEntity
  8
Numbers
370
     0
100
AcDbSpline
210
0.0
220
0.0
230
1.0
 70
    11
 71
     3
 72
    56
 73
    52
 74
     0
 42
0.0000000001
 43
0.0000000001
 12
1.0
 22
0.0
 32
0.0
 13
1.0
 23
0.0
 33
0.0
 40
0.0
 40
0.0
 40
0.0
 40
0.0
 40
1.0
 40
1.0
 40
1.0
 40
2.0
 40
2.0
 40
2.0
 40
3.0
 40
3.0
 40
3.0
 40
4.0
 40
4.0
 40
4.0
 40
5.0
 40
5.0
 40
5.0
 40
6.0
 40
6.0
 40
6.0
 40
7.0
 40
7.0
 40
7.0
 40
8.0
 40
8.0
 40
8.0
 40
9.0
 40
9.0
 40
9.0
 40
10.0
 40
10.0
 40
10.0
 40
11.0
 40
11.0
 40
11.0
 40
12.0
 40
12.0
 40
12.0
 40
13.0
 40
13.0
 40
13.0
 40
14.0
 40
14.0
 40
14.0
 40
15.0
 40
15.0
 40
15.0
 40
16.0
 40
16.0
 40
16.0
 40
17.0
 40
17.0
 40
17.0
 40
17.0
 10
5.501128470846941
 20
-4.681023490583216
 30
0.0
 10
5.19348144401413
 20
-4.252281357443874
 30
0.0
 10
5.251014538617802
 20
-3.885378688264767
 30
0.0
 10
5.673383245109433
 20
-3.580487737820156
 30
0.0
 10
6.095407442052537
 20
-3.277663844666695
 30
0.0
 10
6.46058756348902
 20
-3.341053601595292
 30
0.0
 10
6.769268118967405
 20
-3.771173772928734
 30
0.0
 10
6.769268118967405
 20
-3.771173772928734
 30
0.0
 10
8.297167966675708
 20
-5.900587292361659
 30
0.0
 10
8.297167966675708
 20
-5.900587292361659
 30
0.0
 10
8.605159503057044
 20
-6.329329425501001
 30
0.0
 10
8.547281898904847
 20
-6.695543075583059
 30
0.0
 10
8.123879663767642
 20
-6.999228242607832
 30
0.0
 10
7.701855466824536
 20
-7.302224390535556
 30
0.0
 10
7.337364364485103
 20
-7.239179143155483
 30
0.0
 10
7.029372828103768
 20
-6.810437010016141
 30
0.0
 10
7.029372828103768
 20
-6.810437010016141
 30
0.0
 10
6.755832246574931
 20
-6.429409449347509
 30
0.0
 10
6.755832246574931
 20
-6.429409449347509
 30
0.0
 10
6.755832246574931
 20
-6.429409449347509
 30
0.0
 10
7.083460827222191
 20
-6.194281682479208
 30
0.0
 10
7.083460827222191
 20
-6.194281682479208
 30
0.0
 10
7.083460827222191
 20
-6.194281682479208
 30
0.0
 10
7.357001408751028
 20
-6.575481497922103
 30
0.0
 10
7.357001408751028
 20
-6.575481497922103
 30
0.0
 10
7.510308157844645
 20
-6.789421927556117
 30
0.0
 10
7.689453123077637
 20
-6.823700627634353
 30
0.0
 10
7.893747285352952
 20
-6.67831759815681
 30
0.0
 10
7.893747285352952
 20
-6.67831759815681
 30
0.0
 10
7.897192380838202
 20
-6.67625054086566
 30
0.0
 10
7.897192380838202
 20
-6.67625054086566
 30
0.0
 10
8.099763995370893
 20
-6.530695256613854
 30
0.0
 10
8.124224173316167
 20
-6.350344507961025
 30
0.0
 10
7.969883895576974
 20
-6.135542804455698
 30
0.0
 10
7.969883895576974
 20
-6.135542804455698
 30
0.0
 10
7.220231117986609
 20
-5.09116210810221
 30
0.0
 10
7.220231117986609
 20
-5.09116210810221
 30
0.0
 10
7.157874889703587
 20
-5.375037976086796
 30
0.0
 10
7.068302407087091
 20
-5.559006074999138
 30
0.0
 10
6.951858179685646
 20
-5.642377385742184
 30
0.0
 10
6.931876625871197
 20
-5.656846786780233
 30
0.0
 10
6.910172524314124
 20
-5.670627168721232
 30
0.0
 10
6.887434894111475
 20
-5.683374022016657
 30
0.0
 10
6.737917750051632
 20
-5.76864013527659
 30
0.0
 10
6.595979816059339
 20
-5.797578937352688
 30
0.0
 10
6.46127658258607
 20
-5.770362683019215
 30
0.0
 10
6.321750215433451
 20
-5.741596135717379
 30
0.0
 10
6.167409937694259
 20
-5.609132214309523
 30
0.0
 10
5.997566730271441
 20
-5.372970918795646
 30
0.0
 10
5.997566730271441
 20
-5.372970918795646
 30
0.0
 10
5.501128470846941
 20
-4.681023490583216
 30
0.0
 10
5.501128470846941
 20
-4.681023490583216
 30
0.0
  0
SPLINE
  5
C7
330
84
100
AcDbEntity
  8
Numbers
370
     0
100
AcDbSpline
210
0.0
220
0.0
230
1.0
 70
    11
 71
     3
 72
    29
 73
    25
 74
     0
 42
0.0000000001
 43
0.0000000001
 12
1.0
 22
0.0
 32
0.0
 13
1.0
 23
0.0
 33
0.0
 40
0.0
 40
0.0
 40
0.0
 40
0.0
 40
1.0
 40
1.0
 40
1.0
 40
2.0
 40
2.0
 40
2.0
 40
3.0
 40
3.0
 40
3.0
 40
4.0
 40
4.0
 40
4.0
 40
5.0
 40
5.0
 40
5.0
 40
6.0
 40
6.0
 40
6.0
 40
7.0
 40
7.0
 40
7.0
 40
8.0
 40
8.0
 40
8.0
 40
8.0
 10
6.441639538320146
 20
-4.006129285022773
 30
0.0
 10
6.287643770129479
 20
-3.790983071968921
 30
0.0
 10
6.108498804896486
 20
-3.756876626664948
 30
0.0
 10
5.904549152169697
 20
-3.903120930013803
 30
0.0
 10
5.699910480345856
 20
-4.050054252459709
 30
0.0
 10
5.674416773755008
 20
-4.231094020209587
 30
0.0
 10
5.8287570514942
 20
-4.445895723714915
 30
0.0
 10
5.8287570514942
 20
-4.445895723714915
 30
0.0
 10
6.325195310918701
 20
-5.138015406701608
 30
0.0
 10
6.325195310918701
 20
-5.138015406701608
 30
0.0
 10
6.440950519223096
 20
-5.2992458754113
 30
0.0
 10
6.555672198881916
 20
-5.367975530342034
 30
0.0
 10
6.669015840346635
 20
-5.344032116719548
 30
0.0
 10
6.719314234431283
 20
-5.331629772972648
 30
0.0
 10
6.780981443617255
 20
-5.2992458754113
 30
0.0
 10
6.854017467904551
 20
-5.247052678809765
 30
0.0
 10
6.872965493073425
 20
-5.233444551643028
 30
0.0
 10
6.890190970499675
 20
-5.220008679250554
 30
0.0
 10
6.906382919280349
 20
-5.206917316406604
 30
0.0
 10
7.077259655348741
 20
-5.075831433192848
 30
0.0
 10
7.087594941804491
 20
-4.906332735318556
 30
0.0
 10
6.938077797744648
 20
-4.697904458460941
 30
0.0
 10
6.938077797744648
 20
-4.697904458460941
 30
0.0
 10
6.441639538320146
 20
-4.006129285022773
 30
0.0
 10
6.441639538320146
 20
-4.006129285022773
 30
0.0
  0
HATCH
  5
C8
330
84
100
AcDbEntity
  8
Numbers
 62
   250
420
  2301728
100
AcDbHatch
 10
0.0
 20
0.0
 30
0.0
210
0.0
220
0.0
230
1.0
  2
SOLID
 70
     1
 71
     0
 91
        2
 92
        1
 93
        1
 72
     4
 94
        3
 73
     0
 74
     1
 95
       56
 96
       52
 40
0.0
 40
0.0
 40
0.0
 40
0.0
 40
1.0
 40
1.0
 40
1.0
 40
2.0
 40
2.0
 40
2.0
 40
3.0
 40
3.0
 40
3.0
 40
4.0
 40
4.0
 40
4.0
 40
5.0
 40
5.0
 40
5.0
 40
6.0
 40
6.0
 40
6.0
 40
7.0
 40
7.0
 40
7.0
 40
8.0
 40
8.0
 40
8.0
 40
9.0
 40
9.0
 40
9.0
 40
10.0
 40
10.0
 40
10.0
 40
11.0
 40
11.0
 40
11.0
 40
12.0
 40
12.0
 40
12.0
 40
13.0
 40
13.0
 40
13.0
 40
14.0
 40
14.0
 40
14.0
 40
15.0
 40
15.0
 40
15.0
 40
16.0
 40
16.0
 40
16.0
 40
17.0
 40
17.0
 40
17.0
 40
17.0
 10
5.501128470846941
 20
-4.681023490583216
 10
5.19348144401413
 20
-4.252281357443874
 10
5.251014538617802
 20
-3.885378688264767
 10
5.673383245109433
 20
-3.580487737820156
 10
6.095407442052537
 20
-3.277663844666695
 10
6.46058756348902
 20
-3.341053601595292
 10
6.769268118967405
 20
-3.771173772928734
 10
6.769268118967405
 20
-3.771173772928734
 10
8.297167966675708
 20
-5.900587292361659
 10
8.297167966675708
 20
-5.900587292361659
 10
8.605159503057044
 20
-6.329329425501001
 10
8.547281898904847
 20
-6.695543075583059
 10
8.123879663767642
 20
-6.999228242607832
 10
7.701855466824536
 20
-7.302224390535556
 10
7.337364364485103
 20
-7.239179143155483
 10
7.029372828103768
 20
-6.810437010016141
 10
7.029372828103768
 20
-6.810437010016141
 10
6.755832246574931
 20
-6.429409449347509
 10
6.755832246574931
 20
-6.429409449347509
 10
6.755832246574931
 20
-6.429409449347509
 10
7.083460827222191
 20
-6.194281682479208
 10
7.083460827222191
 20
-6.194281682479208
 10
7.083460827222191
 20
-6.194281682479208
 10
7.357001408751028
 20
-6.575481497922103
 10
7.357001408751028
 20
-6.575481497922103
 10
7.510308157844645
 20
-6.789421927556117
 10
7.689453123077637
 20
-6.823700627634353
 10
7.893747285352952
 20
-6.67831759815681
 10
7.893747285352952
 20
-6.67831759815681
 10
7.897192380838202
 20
-6.67625054086566
 10
7.897192380838202
 20
-6.67625054086566
 10
8.099763995370893
 20
-6.530695256613854
 10
8.124224173316167
 20
-6.350344507961025
 10
7.969883895576974
 20
-6.135542804455698
 10
7.969883895576974
 20
-6.135542804455698
 10
7.220231117986609
 20
-5.09116210810221
 10
7.220231117986609
 20
-5.09116210810221
 10
7.157874889703587
 20
-5.375037976086796
 10
7.068302407087091
 20
-5.559006074999138
 10
6.951858179685646
 20
-5.642377385742184
 10
6.931876625871197
 20
-5.656846786780233
 10
6.910172524314124
 20
-5.670627168721232
 10
6.887434894111475
 20
-5.683374022016657
 10
6.737917750051632
 20
-5.76864013527659
 10
6.595979816059339
 20
-5.797578937352688
 10
6.46127658258607
 20
-5.770362683019215
 10
6.321750215433451
 20
-5.741596135717379
 10
6.167409937694259
 20
-5.609132214309523
 10
5.997566730271441
 20
-5.372970918795646
 10
5.997566730271441
 20
-5.372970918795646
 10
5.501128470846941
 20
-4.681023490583216
 10
5.501128470846941
 20
-4.681023490583216
 97
        0
 97
        0
 92
        1
 93
        1
 72
     4
 94
        3
 73
     0
 74
     1
 95
       29
 96
       25
 40
0.0
 40
0.0
 40
0.0
 40
0.0
 40
1.0
 40
1.0
 40
1.0
 40
2.0
 40
2.0
 40
2.0
 40
3.0
 40
3.0
 40
3.0
 40
4.0
 40
4.0
 40
4.0
 40
5.0
 40
5.0
 40
5.0
 40
6.0
 40
6.0
 40
6.0
 40
7.0
 40
7.0
 40
7.0
 40
8.0
 40
8.0
 40
8.0
 40
8.0
 10
6.441639538320146
 20
-4.006129285022773
 10
6.287643770129479
 20
-3.790983071968921
 10
6.108498804896486
 20
-3.756876626664948
 10
5.904549152169697
 20
-3.903120930013803
 10
5.699910480345856
 20
-4.050054252459709
 10
5.674416773755008
 20
-4.231094020209587
 10
5.8287570514942
 20
-4.445895723714915
 10
5.8287570514942
 20
-4.445895723714915
 10
6.325195310918701
 20
-5.138015406701608
 10
6.325195310918701
 20
-5.138015406701608
 10
6.440950519223096
 20
-5.2992458754113
 10
6.555672198881916
 20
-5.367975530342034
 10
6.669015840346635
 20
-5.344032116719548
 10
6.719314234431283
 20
-5.331629772972648
 10
6.780981443617255
 20
-5.2992458754113
 10
6.854017467904551
 20
-5.247052678809765
 10
6.872965493073425
 20
-5.233444551643028
 10
6.890190970499675
 20
-5.220008679250554
 10
6.906382919280349
 20
-5.206917316406604
 10
7.077259655348741
 20
-5.075831433192848
 10
7.087594941804491
 20
-4.906332735318556
 10
6.938077797744648
 20
-4.697904458460941
 10
6.938077797744648
 20
-4.697904458460941
 10
6.441639538320146
 20
-4.006129285022773
 10
6.441639538320146
 20
-4.006129285022773
 97
        0
 97
        0
 75
     2
 76
     1
 98
        0
  0
ENDBLK
  5
87
330
84
100
AcDbEntity
  8
0
100
AcDbBlockEnd
  0
ENDSEC
  0
SECTION
  2
ENTITIES
  0
SPLINE
  5
41
330
1F
100
AcDbEntity
  8
Outline
 62
   250
420
  2301728
370
     9
100
AcDbSpline
210
0.0
220
0.0
230
1.0
 70
    11
 71
     3
 72
   101
 73
    97
 74
     0
 42
0.0000000001
 43
0.0000000001
 12
1.0
 22
0.0
 32
0.0
 13
1.0
 23
0.0
 33
0.0
 40
0.0
 40
0.0
 40
0.0
 40
0.0
 40
1.0
 40
1.0
 40
1.0
 40
2.0
 40
2.0
 40
2.0
 40
3.0
 40
3.0
 40
3.0
 40
4.0
 40
4.0
 40
4.0
 40
5.0
 40
5.0
 40
5.0
 40
6.0
 40
6.0
 40
6.0
 40
7.0
 40
7.0
 40
7.0
 40
8.0
 40
8.0
 40
8.0
 40
9.0
 40
9.0
 40
9.0
 40
10.0
 40
10.0
 40
10.0
 40
11.0
 40
11.0
 40
11.0
 40
12.0
 40
12.0
 40
12.0
 40
13.0
 40
13.0
 40
13.0
 40
14.0
 40
14.0
 40
14.0
 40
15.0
 40
15.0
 40
15.0
 40
16.0
 40
16.0
 40
16.0
 40
17.0
 40
17.0
 40
17.0
 40
18.0
 40
18.0
 40
18.0
 40
19.0
 40
19.0
 40
19.0
 40
20.0
 40
20.0
 40
20.0
 40
21.0
 40
21.0
 40
21.0
 40
22.0
 40
22.0
 40
22.0
 40
23.0
 40
23.0
 40
23.0
 40
24.0
 40
24.0
 40
24.0
 40
25.0
 40
25.0
 40
25.0
 40
26.0
 40
26.0
 40
26.0
 40
27.0
 40
27.0
 40
27.0
 40
28.0
 40
28.0
 40
28.0
 40
29.0
 40
29.0
 40
29.0
 40
30.0
 40
30.0
 40
30.0
 40
31.0
 40
31.0
 40
31.0
 40
32.0
 40
32.0
 40
32.0
 40
32.0
 10
16.90536467328234
 20
-19.07098785148084
 30
0.0
 10
16.65770507640039
 20
-19.2522652823669
 30
0.0
 10
16.40740161485757
 20
-19.41797349107833
 30
0.0
 10
16.1487507156243
 20
-19.57231396031078
 30
0.0
 10
15.77871917982882
 20
-19.17428561939882
 30
0.0
 10
14.80016851669115
 20
-19.10362202411076
 30
0.0
 10
13.77592828141566
 20
-19.44237315507609
 30
0.0
 10
12.74673551827788
 20
-19.78037324087607
 30
0.0
 10
12.00274273236555
 20
-20.41238984296842
 30
0.0
 10
11.93853588762355
 20
-20.95778279180791
 30
0.0
 10
11.3367020592653
 20
-21.01357841795155
 30
0.0
 10
10.73055791827364
 20
-21.01569299644217
 30
0.0
 10
10.13073753370516
 20
-20.96071889979867
 30
0.0
 10
10.05801417447894
 20
-20.41938603114473
 30
0.0
 10
9.31170891200545
 20
-19.79397702041695
 30
0.0
 10
8.28254927941048
 20
-19.46307546655106
 30
0.0
 10
7.253407021559127
 20
-19.13216119503159
 30
0.0
 10
6.277376195316164
 20
-19.20828073520513
 30
0.0
 10
5.910032302089371
 20
-19.60831234449321
 30
0.0
 10
5.391409780349319
 20
-19.30591864593878
 30
0.0
 10
4.898816878019884
 20
-18.94951675883317
 30
0.0
 10
4.43926638280652
 20
-18.54267243682379
 30
0.0
 10
4.702365245886443
 20
-18.06591388368341
 30
0.0
 10
4.464996969445425
 20
-17.12046891266534
 30
0.0
 10
3.827397418619042
 20
-16.24938613662524
 30
0.0
 10
3.189797867792338
 20
-15.37830336058577
 30
0.0
 10
2.360333075107521
 20
-14.86625058051329
 30
0.0
 10
1.826348195619781
 20
-14.97292709257145
 30
0.0
 10
1.577461810833601
 20
-14.41191131606019
 30
0.0
 10
1.386620739654347
 20
-13.83461185078485
 30
0.0
 10
1.255142257322428
 20
-13.24884340023061
 30
0.0
 10
1.747500683003816
 20
-13.01960552163849
 30
0.0
 10
2.11509353755739
 20
-12.11224349275789
 30
0.0
 10
2.110748413372892
 20
-11.03121659120271
 30
0.0
 10
2.106420663932333
 20
-9.95017697199393
 30
0.0
 10
1.735874326644696
 20
-9.049753364609085
 30
0.0
 10
1.241835464217694
 20
-8.816780779702833
 30
0.0
 10
1.370746580450553
 20
-8.22840286614968
 30
0.0
 10
1.555999983741891
 20
-7.65127114448511
 30
0.0
 10
1.791107560027983
 20
-7.094457408639641
 30
0.0
 10
2.330382345752058
 20
-7.198098011190796
 30
0.0
 10
3.157726631736411
 20
-6.679955479391824
 30
0.0
 10
3.791018846011772
 20
-5.801079621813344
 30
0.0
 10
4.423542640377518
 20
-4.927169009750416
 30
0.0
 10
4.651967955825896
 20
-3.973018096628331
 30
0.0
 10
4.384412658448253
 20
-3.499981036243485
 30
0.0
 10
4.609717870590896
 20
-3.300083988996107
 30
0.0
 10
4.843348488589371
 20
-3.111597491277855
 30
0.0
 10
5.091008085471319
 20
-2.93032006039148
 30
0.0
 10
5.338667682353266
 20
-2.749042629505106
 30
0.0
 10
5.588975800986764
 20
-2.583304328397113
 30
0.0
 10
5.847609325476094
 20
-2.428976576817925
 30
0.0
 10
6.21764086127157
 20
-2.827004917729886
 30
0.0
 10
7.196204242062512
 20
-2.897685887761892
 30
0.0
 10
8.223298592397317
 20
-2.55681896924965
 30
0.0
 10
9.24962452282283
 20
-2.220917296252638
 30
0.0
 10
9.993634683478463
 20
-1.588887976507026
 30
0.0
 10
10.05785424587405
 20
-1.043512402410832
 30
0.0
 10
10.66252015745732
 20
-0.9856437987707513
 30
0.0
 10
11.26865158079571
 20
-0.9835118455368314
 30
0.0
 10
11.87132142333316
 20
-1.036400247030631
 30
0.0
 10
11.93629026386863
 20
-1.57905970510537
 30
0.0
 10
12.68466850383856
 20
-2.207300799058171
 30
0.0
 10
13.71666021965888
 20
-2.536129375427945
 30
0.0
 10
14.74580247751055
 20
-2.867043646947422
 30
0.0
 10
15.72108691567787
 20
-2.795846542239277
 30
0.0
 10
16.08709150182996
 20
-2.388043039516509
 30
0.0
 10
16.60779971871972
 20
-2.693286196040223
 30
0.0
 10
17.10040533870274
 20
-3.049705457889771
 30
0.0
 10
17.55994311626252
 20
-3.456532405155218
 30
0.0
 10
17.29684425318291
 20
-3.933290958295594
 30
0.0
 10
17.53421252962393
 20
-4.878735929313344
 30
0.0
 10
18.17181208045064
 20
-5.749818705353449
 30
0.0
 10
18.8094116312767
 20
-6.620901481393553
 30
0.0
 10
19.63887642396152
 20
-7.132954261465714
 30
0.0
 10
20.17286130344926
 20
-7.026277749407555
 30
0.0
 10
20.42176040588902
 20
-7.587310900662115
 30
0.0
 10
20.61258875941501
 20
-8.164592991193832
 30
0.0
 10
20.74615293689663
 20
-8.753210899717363
 30
0.0
 10
20.24679103769049
 20
-8.978822839867988
 30
0.0
 10
19.88411596151165
 20
-9.88696134922079
 30
0.0
 10
19.88846108569647
 20
-10.9679882507763
 30
0.0
 10
19.889956751912
 20
-12.05110084748151
 30
0.0
 10
20.26258878434902
 20
-12.954373912835
 30
0.0
 10
20.76022349282031
 20
-13.18033836712615
 30
0.0
 10
20.62846291861849
 20
-13.770801975829
 30
0.0
 10
20.44322223298041
 20
-14.34795107223751
 30
0.0
 10
20.20528257346961
 20
-14.9068377855791
 30
0.0
 10
19.66599507009195
 20
-14.80317980828465
 30
0.0
 10
18.83863340936398
 20
-15.32133505773688
 30
0.0
 10
18.20820802780152
 20
-16.19811250251239
 30
0.0
 10
17.57283011837614
 20
-17.07413890212191
 30
0.0
 10
17.3443920852745
 20
-18.0282724405007
 30
0.0
 10
17.61194738265214
 20
-18.5013095008849
 30
0.0
 10
17.38665954525279
 20
-18.70119383047934
 30
0.0
 10
17.15302427016429
 20
-18.88971042059479
 30
0.0
 10
16.90536467328234
 20
-19.07098785148084
 30
0.0
  0
INSERT
  5
44
330
1F
100
AcDbEntity
  8
Lines
100
AcDbBlockReference
  2
block 2
 10
0.0
 20
0.0
 30
0.0
  0
INSERT
  5
72
330
1F
100
AcDbEntity
  8
Icons
100
AcDbBlockReference
  2
block 3
 10
0.0
 20
0.0
 30
0.0
  0
INSERT
  5
85
330
1F
100
AcDbEntity
  8
Numbers
100
AcDbBlockReference
  2
block 4
 10
0.0
 20
0.0
 30
0.0
  0
ENDSEC
  0
SECTION
  2
OBJECTS
  0
DICTIONARY
  5
C
330
0
100
AcDbDictionary
281
     1
  3
ACAD_GROUP
350
D
  3
ACAD_LAYOUT
350
1A
  3
ACAD_MATERIAL
350
3B
  3
ACAD_MLEADERSTYLE
350
CA
  3
ACAD_MLINESTYLE
350
17
  3
ACAD_PLOTSETTINGS
350
19
  3
ACAD_PLOTSTYLENAME
350
E
  3
ACAD_TABLESTYLE
350
C9
  3
ACAD_VISUALSTYLE
350
2A
  0
SUN
  5
3F
330
29
100
AcDbSun
 90
        1
290
     0
 63
     7
421
 16777215
 40
1.0
291
     1
 91
  2455826
 92
 54000000
292
     0
 70
     2
 71
   256
280
     1
  0
DICTIONARY
  5
D
102
{ACAD_REACTORS
330
C
102
}
330
C
100
AcDbDictionary
281
     1
  0
DICTIONARY
  5
1A
102
{ACAD_REACTORS
330
C
102
}
330
C
100
AcDbDictionary
281
     1
  3
Layout1
350
1E
  3
Layout2
350
26
  3
Model
350
22
  0
DICTIONARY
  5
3B
102
{ACAD_REACTORS
330
C
102
}
330
C
100
AcDbDictionary
281
     1
  3
ByBlock
350
3D
  3
ByLayer
350
3C
  3
Global
350
3E
  0
DICTIONARY
  5
CA
102
{ACAD_REACTORS
330
C
102
}
330
C
100
AcDbDictionary
281
     1
  0
DICTIONARY
  5
17
102
{ACAD_REACTORS
330
C
102
}
330
C
100
AcDbDictionary
281
     1
  3
Standard
350
18
  0
DICTIONARY
  5
19
102
{ACAD_REACTORS
330
C
102
}
330
C
100
AcDbDictionary
281
     1
  0
ACDBDICTIONARYWDFLT
  5
E
102
{ACAD_REACTORS
330
C
102
}
330
C
100
AcDbDictionary
281
     1
  3
Normal
350
F
100
AcDbDictionaryWithDefault
340
F
  0
DICTIONARY
  5
C9
102
{ACAD_REACTORS
330
C
102
}
330
C
100
AcDbDictionary
281
     1
  0
DICTIONARY
  5
2A
102
{ACAD_REACTORS
330
C
102
}
330
C
100
AcDbDictionary
281
     1
  3
2dWireframe
350
2F
  3
3D Hidden
350
31
  3
3dWireframe
350
30
  3
Basic
350
32
  3
Brighten
350
36
  3
ColorChange
350
3A
  3
Conceptual
350
34
  3
Dim
350
35
  3
Facepattern
350
39
  3
Flat
350
2B
  3
FlatWithEdges
350
2C
  3
Gouraud
350
2D
  3
GouraudWithEdges
350
2E
  3
Linepattern
350
38
  3
Realistic
350
33
  3
Thicken
350
37
  0
LAYOUT
  5
1E
102
{ACAD_REACTORS
330
1A
102
}
330
1A
100
AcDbPlotSettings
  1

  2
none_device
  4

  6

 40
0.0
 41
0.0
 42
0.0
 43
0.0
 44
0.0
 45
0.0
 46
0.0
 47
0.0
 48
0.0
 49
0.0
140
0.0
141
0.0
142
1.0
143
1.0
 70
   688
 72
     0
 73
     0
 74
     5
  7

 75
    16
 76
     0
 77
     2
 78
   300
147
1.0
148
0.0
149
0.0
100
AcDbLayout
  1
Layout1
 70
     1
 71
     1
 10
0.0
 20
0.0
 11
12.0
 21
9.0
 12
0.0
 22
0.0
 32
0.0
 14
1.000000000000000E+20
 24
1.000000000000000E+20
 34
1.000000000000000E+20
 15
-1.000000000000000E+20
 25
-1.000000000000000E+20
 35
-1.000000000000000E+20
146
0.0
 13
0.0
 23
0.0
 33
0.0
 16
1.0
 26
0.0
 36
0.0
 17
0.0
 27
1.0
 37
0.0
 76
     0
330
1B
  0
LAYOUT
  5
26
102
{ACAD_REACTORS
330
1A
102
}
330
1A
100
AcDbPlotSettings
  1

  2
none_device
  4

  6

 40
0.0
 41
0.0
 42
0.0
 43
0.0
 44
0.0
 45
0.0
 46
0.0
 47
0.0
 48
0.0
 49
0.0
140
0.0
141
0.0
142
1.0
143
1.0
 70
   688
 72
     0
 73
     0
 74
     5
  7

 75
    16
 76
     0
 77
     2
 78
   300
147
1.0
148
0.0
149
0.0
100
AcDbLayout
  1
Layout2
 70
     1
 71
     2
 10
0.0
 20
0.0
 11
0.0
 21
0.0
 12
0.0
 22
0.0
 32
0.0
 14
0.0
 24
0.0
 34
0.0
 15
0.0
 25
0.0
 35
0.0
146
0.0
 13
0.0
 23
0.0
 33
0.0
 16
1.0
 26
0.0
 36
0.0
 17
0.0
 27
1.0
 37
0.0
 76
     0
330
23
  0
LAYOUT
  5
22
102
{ACAD_REACTORS
330
1A
102
}
330
1A
100
AcDbPlotSettings
  1

  2
none_device
  4

  6

 40
0.0
 41
0.0
 42
0.0
 43
0.0
 44
0.0
 45
0.0
 46
0.0
 47
0.0
 48
0.0
 49
0.0
140
0.0
141
0.0
142
1.0
143
1.0
 70
  1712
 72
     0
 73
     0
 74
     0
  7

 75
     0
 76
     0
 77
     2
 78
   300
147
1.0
148
0.0
149
0.0
100
AcDbLayout
  1
Model
 70
     1
 71
     0
 10
0.0
 20
0.0
 11
12.0
 21
9.0
 12
0.0
 22
0.0
 32
0.0
 14
1.000000000000000E+20
 24
1.000000000000000E+20
 34
1.000000000000000E+20
 15
-1.000000000000000E+20
 25
-1.000000000000000E+20
 35
-1.000000000000000E+20
146
0.0
 13
0.0
 23
0.0
 33
0.0
 16
1.0
 26
0.0
 36
0.0
 17
0.0
 27
1.0
 37
0.0
 76
     0
330
1F
331
29
  0
MATERIAL
  5
3D
102
{ACAD_REACTORS
330
3B
102
}
330
3B
100
AcDbMaterial
  1
ByBlock
 72
     1
 94
      127
  0
MATERIAL
  5
3C
102
{ACAD_REACTORS
330
3B
102
}
330
3B
100
AcDbMaterial
  1
ByLayer
 72
     1
 94
      127
  0
MATERIAL
  5
3E
102
{ACAD_REACTORS
330
3B
102
}
330
3B
100
AcDbMaterial
  1
Global
 72
     1
 94
      127
  0
MLINESTYLE
  5
18
102
{ACAD_REACTORS
330
17
102
}
330
17
100
AcDbMlineStyle
  2
Standard
 70
     0
  3

 62
   256
 51
90.0
 52
90.0
 71
     2
 49
0.5
 62
   256
  6
BYLAYER
 49
-0.5
 62
   256
  6
BYLAYER
  0
ACDBPLACEHOLDER
  5
F
102
{ACAD_REACTORS
330
E
102
}
330
E
  0
VISUALSTYLE
  5
2F
102
{ACAD_REACTORS
330
2A
102
}
330
2A
100
AcDbVisualStyle
  2
2dWireframe
 70
     4
177
     2
291
     0
 71
     0
176
     1
 72
     2
176
     1
 73
     0
176
     1
 90
        0
176
     1
 40
-0.6
176
     1
 41
-30.0
176
     1
 62
     5
 63
     7
421
 16777215
176
     1
 74
     1
176
     1
 91
        4
176
     1
 64
     7
176
     1
 65
   257
176
     1
 75
     1
176
     1
175
     1
176
     1
 42
1.0
176
     1
 92
        0
176
     1
 66
   257
176
     1
 43
1.0
176
     1
 76
     1
176
     1
 77
     6
176
     1
 78
     2
176
     1
 67
     7
176
     1
 79
     5
176
     1
170
     0
176
     1
171
     0
176
     1
290
     0
176
     1
 93
        1
176
     1
 44
0.0
176
     1
173
     0
176
     1
  0
VISUALSTYLE
  5
31
102
{ACAD_REACTORS
330
2A
102
}
330
2A
100
AcDbVisualStyle
  2
3D Hidden
 70
     6
177
     2
291
     0
 71
     1
176
     1
 72
     2
176
     1
 73
     2
176
     1
 90
        0
176
     1
 40
-0.6
176
     1
 41
-30.0
176
     1
 62
     5
 63
     7
421
 16777215
176
     1
 74
     2
176
     1
 91
        2
176
     1
 64
     7
176
     1
 65
   257
176
     1
 75
     2
176
     1
175
     1
176
     1
 42
40.0
176
     1
 92
        0
176
     1
 66
   257
176
     1
 43
1.0
176
     1
 76
     1
176
     1
 77
     6
176
     1
 78
     2
176
     1
 67
     7
176
     1
 79
     3
176
     1
170
     0
176
     1
171
     0
176
     1
290
     0
176
     1
 93
        1
176
     1
 44
0.0
176
     1
173
     0
176
     1
  0
VISUALSTYLE
  5
30
102
{ACAD_REACTORS
330
2A
102
}
330
2A
100
AcDbVisualStyle
  2
3dWireframe
 70
     5
177
     2
291
     0
 71
     0
176
     1
 72
     2
176
     1
 73
     0
176
     1
 90
        0
176
     1
 40
-0.6
176
     1
 41
-30.0
176
     1
 62
     5
 63
     7
421
 16777215
176
     1
 74
     1
176
     1
 91
        4
176
     1
 64
     7
176
     1
 65
   257
176
     1
 75
     1
176
     1
175
     1
176
     1
 42
1.0
176
     1
 92
        0
176
     1
 66
   257
176
     1
 43
1.0
176
     1
 76
     1
176
     1
 77
     6
176
     1
 78
     2
176
     1
 67
     7
176
     1
 79
     5
176
     1
170
     0
176
     1
171
     0
176
     1
290
     0
176
     1
 93
        1
176
     1
 44
0.0
176
     1
173
     0
176
     1
  0
VISUALSTYLE
  5
32
102
{ACAD_REACTORS
330
2A
102
}
330
2A
100
AcDbVisualStyle
  2
Basic
 70
     7
177
     2
291
     1
 71
     1
176
     1
 72
     0
176
     1
 73
     1
176
     1
 90
        0
176
     1
 40
-0.6
176
     1
 41
-30.0
176
     1
 62
     5
 63
     7
421
 16777215
176
     1
 74
     0
176
     1
 91
        4
176
     1
 64
     7
176
     1
 65
   257
176
     1
 75
     1
176
     1
175
     1
176
     1
 42
1.0
176
     1
 92
        8
176
     1
 66
     7
176
     1
 43
1.0
176
     1
 76
     1
176
     1
 77
     6
176
     1
 78
     2
176
     1
 67
     7
176
     1
 79
     5
176
     1
170
     0
176
     1
171
     0
176
     1
290
     0
176
     1
 93
        1
176
     1
 44
0.0
176
     1
173
     0
176
     1
  0
VISUALSTYLE
  5
36
102
{ACAD_REACTORS
330
2A
102
}
330
2A
100
AcDbVisualStyle
  2
Brighten
 70
    12
177
     2
291
     1
 71
     2
176
     1
 72
     2
176
     1
 73
     0
176
     1
 90
        0
176
     1
 40
-0.6
176
     1
 41
-30.0
176
     1
 62
     5
 63
     7
421
 16777215
176
     1
 74
     1
176
     1
 91
        4
176
     1
 64
     7
176
     1
 65
   257
176
     1
 75
     1
176
     1
175
     1
176
     1
 42
1.0
176
     1
 92
        8
176
     1
 66
     7
176
     1
 43
1.0
176
     1
 76
     1
176
     1
 77
     6
176
     1
 78
     2
176
     1
 67
     7
176
     1
 79
     5
176
     1
170
     0
176
     1
171
     0
176
     1
290
     0
176
     1
 93
        1
176
     1
 44
50.0
176
     1
173
     0
176
     1
  0
VISUALSTYLE
  5
3A
102
{ACAD_REACTORS
330
2A
102
}
330
2A
100
AcDbVisualStyle
  2
ColorChange
 70
    16
177
     2
291
     1
 71
     2
176
     1
 72
     2
176
     1
 73
     3
176
     1
 90
        0
176
     1
 40
-0.6
176
     1
 41
-30.0
176
     1
 62
     5
 63
     8
421
  8421504
176
     1
 74
     1
176
     1
 91
        4
176
     1
 64
     7
176
     1
 65
   257
176
     1
 75
     1
176
     1
175
     1
176
     1
 42
1.0
176
     1
 92
        8
176
     1
 66
     8
424
  8421504
176
     1
 43
1.0
176
     1
 76
     1
176
     1
 77
     6
176
     1
 78
     2
176
     1
 67
     7
176
     1
 79
     5
176
     1
170
     0
176
     1
171
     0
176
     1
290
     0
176
     1
 93
        1
176
     1
 44
0.0
176
     1
173
     0
176
     1
  0
VISUALSTYLE
  5
34
102
{ACAD_REACTORS
330
2A
102
}
330
2A
100
AcDbVisualStyle
  2
Conceptual
 70
     9
177
     2
291
     0
 71
     3
176
     1
 72
     2
176
     1
 73
     0
176
     1
 90
        0
176
     1
 40
-0.6
176
     1
 41
-30.0
176
     1
 62
     5
 63
     7
421
 16777215
176
     1
 74
     2
176
     1
 91
        2
176
     1
 64
     7
176
     1
 65
   257
176
     1
 75
     1
176
     1
175
     1
176
     1
 42
40.0
176
     1
 92
        8
176
     1
 66
     7
176
     1
 43
1.0
176
     1
 76
     1
176
     1
 77
     6
176
     1
 78
     2
176
     1
 67
     7
176
     1
 79
     3
176
     1
170
     0
176
     1
171
     0
176
     1
290
     0
176
     1
 93
        1
176
     1
 44
0.0
176
     1
173
     0
176
     1
  0
VISUALSTYLE
  5
35
102
{ACAD_REACTORS
330
2A
102
}
330
2A
100
AcDbVisualStyle
  2
Dim
 70
    11
177
     2
291
     1
 71
     2
176
     1
 72
     2
176
     1
 73
     0
176
     1
 90
        0
176
     1
 40
-0.6
176
     1
 41
-30.0
176
     1
 62
     5
 63
     7
421
 16777215
176
     1
 74
     1
176
     1
 91
        4
176
     1
 64
     7
176
     1
 65
   257
176
     1
 75
     1
176
     1
175
     1
176
     1
 42
1.0
176
     1
 92
        8
176
     1
 66
     7
176
     1
 43
1.0
176
     1
 76
     1
176
     1
 77
     6
176
     1
 78
     2
176
     1
 67
     7
176
     1
 79
     5
176
     1
170
     0
176
     1
171
     0
176
     1
290
     0
176
     1
 93
        1
176
     1
 44
-50.0
176
     1
173
     0
176
     1
  0
VISUALSTYLE
  5
39
102
{ACAD_REACTORS
330
2A
102
}
330
2A
100
AcDbVisualStyle
  2
Facepattern
 70
    15
177
     2
291
     1
 71
     2
176
     1
 72
     2
176
     1
 73
     0
176
     1
 90
        0
176
     1
 40
-0.6
176
     1
 41
-30.0
176
     1
 62
     5
 63
     7
421
 16777215
176
     1
 74
     1
176
     1
 91
        4
176
     1
 64
     7
176
     1
 65
   257
176
     1
 75
     1
176
     1
175
     1
176
     1
 42
1.0
176
     1
 92
        8
176
     1
 66
     7
176
     1
 43
1.0
176
     1
 76
     1
176
     1
 77
     6
176
     1
 78
     2
176
     1
 67
     7
176
     1
 79
     5
176
     1
170
     0
176
     1
171
     0
176
     1
290
     0
176
     1
 93
        1
176
     1
 44
0.0
176
     1
173
     0
176
     1
  0
VISUALSTYLE
  5
2B
102
{ACAD_REACTORS
330
2A
102
}
330
2A
100
AcDbVisualStyle
  2
Flat
 70
     0
177
     2
291
     1
 71
     2
176
     1
 72
     1
176
     1
 73
     1
176
     1
 90
        2
176
     1
 40
-0.6
176
     1
 41
30.0
176
     1
 62
     5
 63
     7
421
 16777215
176
     1
 74
     0
176
     1
 91
        4
176
     1
 64
     7
176
     1
 65
   257
176
     1
 75
     1
176
     1
175
     1
176
     1
 42
1.0
176
     1
 92
        8
176
     1
 66
     7
176
     1
 43
1.0
176
     1
 76
     1
176
     1
 77
     6
176
     1
 78
     2
176
     1
 67
     7
176
     1
 79
     5
176
     1
170
     0
176
     1
171
     0
176
     1
290
     0
176
     1
 93
       13
176
     1
 44
0.0
176
     1
173
     0
176
     1
  0
VISUALSTYLE
  5
2C
102
{ACAD_REACTORS
330
2A
102
}
330
2A
100
AcDbVisualStyle
  2
FlatWithEdges
 70
     1
177
     2
291
     1
 71
     2
176
     1
 72
     1
176
     1
 73
     1
176
     1
 90
        2
176
     1
 40
-0.6
176
     1
 41
30.0
176
     1
 62
     5
 63
     7
421
 16777215
176
     1
 74
     1
176
     1
 91
        4
176
     1
 64
     7
176
     1
 65
   257
176
     1
 75
     1
176
     1
175
     1
176
     1
 42
1.0
176
     1
 92
        0
176
     1
 66
   257
176
     1
 43
1.0
176
     1
 76
     1
176
     1
 77
     6
176
     1
 78
     2
176
     1
 67
     7
176
     1
 79
     5
176
     1
170
     0
176
     1
171
     0
176
     1
290
     0
176
     1
 93
       13
176
     1
 44
0.0
176
     1
173
     0
176
     1
  0
VISUALSTYLE
  5
2D
102
{ACAD_REACTORS
330
2A
102
}
330
2A
100
AcDbVisualStyle
  2
Gouraud
 70
     2
177
     2
291
     1
 71
     2
176
     1
 72
     2
176
     1
 73
     1
176
     1
 90
        2
176
     1
 40
-0.6
176
     1
 41
30.0
176
     1
 62
     5
 63
     7
421
 16777215
176
     1
 74
     0
176
     1
 91
        4
176
     1
 64
     7
176
     1
 65
   257
176
     1
 75
     1
176
     1
175
     1
176
     1
 42
1.0
176
     1
 92
        0
176
     1
 66
     7
176
     1
 43
1.0
176
     1
 76
     1
176
     1
 77
     6
176
     1
 78
     2
176
     1
 67
     7
176
     1
 79
     5
176
     1
170
     0
176
     1
171
     0
176
     1
290
     0
176
     1
 93
       13
176
     1
 44
0.0
176
     1
173
     0
176
     1
  0
VISUALSTYLE
  5
2E
102
{ACAD_REACTORS
330
2A
102
}
330
2A
100
AcDbVisualStyle
  2
GouraudWithEdges
 70
     3
177
     2
291
     1
 71
     2
176
     1
 72
     2
176
     1
 73
     1
176
     1
 90
        2
176
     1
 40
-0.6
176
     1
 41
30.0
176
     1
 62
     5
 63
     7
421
 16777215
176
     1
 74
     1
176
     1
 91
        4
176
     1
 64
     7
176
     1
 65
   257
176
     1
 75
     1
176
     1
175
     1
176
     1
 42
1.0
176
     1
 92
        0
176
     1
 66
   257
176
     1
 43
1.0
176
     1
 76
     1
176
     1
 77
     6
176
     1
 78
     2
176
     1
 67
     7
176
     1
 79
     5
176
     1
170
     0
176
     1
171
     0
176
     1
290
     0
176
     1
 93
       13
176
     1
 44
0.0
176
     1
173
     0
176
     1
  0
VISUALSTYLE
  5
38
102
{ACAD_REACTORS
330
2A
102
}
330
2A
100
AcDbVisualStyle
  2
Linepattern
 70
    14
177
     2
291
     1
 71
     2
176
     1
 72
     2
176
     1
 73
     0
176
     1
 90
        0
176
     1
 40
-0.6
176
     1
 41
-30.0
176
     1
 62
     5
 63
     7
421
 16777215
176
     1
 74
     1
176
     1
 91
        4
176
     1
 64
     7
176
     1
 65
   257
176
     1
 75
     7
176
     1
175
     7
176
     1
 42
1.0
176
     1
 92
        8
176
     1
 66
     7
176
     1
 43
1.0
176
     1
 76
     1
176
     1
 77
     6
176
     1
 78
     2
176
     1
 67
     7
176
     1
 79
     5
176
     1
170
     0
176
     1
171
     0
176
     1
290
     0
176
     1
 93
        1
176
     1
 44
0.0
176
     1
173
     0
176
     1
  0
VISUALSTYLE
  5
33
102
{ACAD_REACTORS
330
2A
102
}
330
2A
100
AcDbVisualStyle
  2
Realistic
 70
     8
177
     2
291
     0
 71
     2
176
     1
 72
     2
176
     1
 73
     0
176
     1
 90
        0
176
     1
 40
-0.6
176
     1
 41
-30.0
176
     1
 62
     5
 63
     7
421
 16777215
176
     1
 74
     1
176
     1
 91
        0
176
     1
 64
     7
176
     1
 65
   257
176
     1
 75
     1
176
     1
175
     1
176
     1
 42
1.0
176
     1
 92
        8
176
     1
 66
     8
424
  7895160
176
     1
 43
1.0
176
     1
 76
     1
176
     1
 77
     6
176
     1
 78
     2
176
     1
 67
     7
176
     1
 79
     5
176
     1
170
     0
176
     1
171
     0
176
     1
290
     0
176
     1
 93
       13
176
     1
 44
0.0
176
     1
173
     0
176
     1
  0
VISUALSTYLE
  5
37
102
{ACAD_REACTORS
330
2A
102
}
330
2A
100
AcDbVisualStyle
  2
Thicken
 70
    13
177
     2
291
     1
 71
     2
176
     1
 72
     2
176
     1
 73
     0
176
     1
 90
        0
176
     1
 40
-0.6
176
     1
 41
-30.0
176
     1
 62
     5
 63
     7
421
 16777215
176
     1
 74
     1
176
     1
 91
        4
176
     1
 64
     7
176
     1
 65
   257
176
     1
 75
     1
176
     1
175
     1
176
     1
 42
1.0
176
     1
 92
       12
176
     1
 66
     7
176
     1
 43
1.0
176
     1
 76
     1
176
     1
 77
     6
176
     1
 78
     2
176
     1
 67
     7
176
     1
 79
     5
176
     1
170
     0
176
     1
171
     0
176
     1
290
     0
176
     1
 93
        1
176
     1
 44
0.0
176
     1
173
     0
176
     1
  0
ENDSEC
  0
EOF
