  0
SECTION
  2
HEADER
  9
$ACADVER
  1
AC1024
  9
$ACADMAINTVER
 70
     6
  9
$DWGCODEPAGE
  3
ANSI_1252
  9
$INSBASE
 10
0.0
 20
0.0
 30
0.0
  9
$EXTMIN
 10
1.000000000000000E+20
 20
1.000000000000000E+20
 30
1.000000000000000E+20
  9
$EXTMAX
 10
-1.000000000000000E+20
 20
-1.000000000000000E+20
 30
-1.000000000000000E+20
  9
$LIMMIN
 10
0.0
 20
0.0
  9
$LIMMAX
 10
12.0
 20
9.0
  9
$ORTHOMODE
 70
     0
  9
$REGENMODE
 70
     1
  9
$FILLMODE
 70
     1
  9
$QTEXTMODE
 70
     0
  9
$MIRRTEXT
 70
     1
  9
$LTSCALE
 40
1.0
  9
$ATTMODE
 70
     1
  9
$TEXTSIZE
 40
0.2
  9
$TRACEWID
 40
0.05
  9
$TEXTSTYLE
  7
Standard
  9
$CLAYER
  8
0
  9
$CELTYPE
  6
ByLayer
  9
$CECOLOR
 62
   256
  9
$CELTSCALE
 40
1.0
  9
$DISPSILH
 70
     0
  9
$DIMSCALE
 40
1.0
  9
$DIMASZ
 40
0.18
  9
$DIMEXO
 40
0.0625
  9
$DIMDLI
 40
0.38
  9
$DIMRND
 40
0.0
  9
$DIMDLE
 40
0.0
  9
$DIMEXE
 40
0.18
  9
$DIMTP
 40
0.0
  9
$DIMTM
 40
0.0
  9
$DIMTXT
 40
0.18
  9
$DIMCEN
 40
0.09
  9
$DIMTSZ
 40
0.0
  9
$DIMTOL
 70
     0
  9
$DIMLIM
 70
     0
  9
$DIMTIH
 70
     1
  9
$DIMTOH
 70
     1
  9
$DIMSE1
 70
     0
  9
$DIMSE2
 70
     0
  9
$DIMTAD
 70
     0
  9
$DIMZIN
 70
     0
  9
$DIMBLK
  1

  9
$DIMASO
 70
     1
  9
$DIMSHO
 70
     1
  9
$DIMPOST
  1

  9
$DIMAPOST
  1

  9
$DIMALT
 70
     0
  9
$DIMALTD
 70
     2
  9
$DIMALTF
 40
25.4
  9
$DIMLFAC
 40
1.0
  9
$DIMTOFL
 70
     0
  9
$DIMTVP
 40
0.0
  9
$DIMTIX
 70
     0
  9
$DIMSOXD
 70
     0
  9
$DIMSAH
 70
     0
  9
$DIMBLK1
  1

  9
$DIMBLK2
  1

  9
$DIMSTYLE
  2
Standard
  9
$DIMCLRD
 70
     0
  9
$DIMCLRE
 70
     0
  9
$DIMCLRT
 70
     0
  9
$DIMTFAC
 40
1.0
  9
$DIMGAP
 40
0.09
  9
$DIMJUST
 70
     0
  9
$DIMSD1
 70
     0
  9
$DIMSD2
 70
     0
  9
$DIMTOLJ
 70
     1
  9
$DIMTZIN
 70
     0
  9
$DIMALTZ
 70
     0
  9
$DIMALTTZ
 70
     0
  9
$DIMUPT
 70
     0
  9
$DIMDEC
 70
     4
  9
$DIMTDEC
 70
     4
  9
$DIMALTU
 70
     2
  9
$DIMALTTD
 70
     2
  9
$DIMTXSTY
  7
Standard
  9
$DIMAUNIT
 70
     0
  9
$DIMADEC
 70
     0
  9
$DIMALTRND
 40
0.0
  9
$DIMAZIN
 70
     0
  9
$DIMDSEP
 70
    46
  9
$DIMATFIT
 70
     3
  9
$DIMFRAC
 70
     0
  9
$DIMLDRBLK
  1

  9
$DIMLUNIT
 70
     2
  9
$DIMLWD
 70
    -2
  9
$DIMLWE
 70
    -2
  9
$DIMTMOVE
 70
     0
  9
$DIMFXL
 40
1.0
  9
$DIMFXLON
 70
     0
  9
$DIMJOGANG
 40
0.7853981633974483
  9
$DIMTFILL
 70
     0
  9
$DIMTFILLCLR
 70
     0
  9
$DIMARCSYM
 70
     0
  9
$DIMLTYPE
  6

  9
$DIMLTEX1
  6

  9
$DIMLTEX2
  6

  9
$DIMTXTDIRECTION
 70
     0
  9
$LUNITS
 70
     2
  9
$LUPREC
 70
     4
  9
$SKETCHINC
 40
0.1
  9
$FILLETRAD
 40
0.5
  9
$AUNITS
 70
     0
  9
$AUPREC
 70
     0
  9
$MENU
  1
.
  9
$ELEVATION
 40
0.0
  9
$PELEVATION
 40
0.0
  9
$THICKNESS
 40
0.0
  9
$LIMCHECK
 70
     0
  9
$CHAMFERA
 40
0.5
  9
$CHAMFERB
 40
0.5
  9
$CHAMFERC
 40
1.0
  9
$CHAMFERD
 40
0.0
  9
$SKPOLY
 70
     0
  9
$TDCREATE
 40
2459967.780956933
  9
$TDUCREATE
 40
2459967.739290266
  9
$TDUPDATE
 40
2459967.780956956
  9
$TDUUPDATE
 40
2459967.73929029
  9
$TDINDWG
 40
0.0000000116
  9
$TDUSRTIMER
 40
0.0000000116
  9
$USRTIMER
 70
     1
  9
$ANGBASE
 50
0.0
  9
$ANGDIR
 70
     0
  9
$PDMODE
 70
     0
  9
$PDSIZE
 40
0.0
  9
$PLINEWID
 40
0.0
  9
$SPLFRAME
 70
     0
  9
$SPLINETYPE
 70
     6
  9
$SPLINESEGS
 70
     8
  9
$HANDSEED
  5
56
  9
$SURFTAB1
 70
     6
  9
$SURFTAB2
 70
     6
  9
$SURFTYPE
 70
     6
  9
$SURFU
 70
     6
  9
$SURFV
 70
     6
  9
$UCSBASE
  2

  9
$UCSNAME
  2

  9
$UCSORG
 10
0.0
 20
0.0
 30
0.0
  9
$UCSXDIR
 10
1.0
 20
0.0
 30
0.0
  9
$UCSYDIR
 10
0.0
 20
1.0
 30
0.0
  9
$UCSORTHOREF
  2

  9
$UCSORTHOVIEW
 70
     0
  9
$UCSORGTOP
 10
0.0
 20
0.0
 30
0.0
  9
$UCSORGBOTTOM
 10
0.0
 20
0.0
 30
0.0
  9
$UCSORGLEFT
 10
0.0
 20
0.0
 30
0.0
  9
$UCSORGRIGHT
 10
0.0
 20
0.0
 30
0.0
  9
$UCSORGFRONT
 10
0.0
 20
0.0
 30
0.0
  9
$UCSORGBACK
 10
0.0
 20
0.0
 30
0.0
  9
$PUCSBASE
  2

  9
$PUCSNAME
  2

  9
$PUCSORG
 10
0.0
 20
0.0
 30
0.0
  9
$PUCSXDIR
 10
1.0
 20
0.0
 30
0.0
  9
$PUCSYDIR
 10
0.0
 20
1.0
 30
0.0
  9
$PUCSORTHOREF
  2

  9
$PUCSORTHOVIEW
 70
     0
  9
$PUCSORGTOP
 10
0.0
 20
0.0
 30
0.0
  9
$PUCSORGBOTTOM
 10
0.0
 20
0.0
 30
0.0
  9
$PUCSORGLEFT
 10
0.0
 20
0.0
 30
0.0
  9
$PUCSORGRIGHT
 10
0.0
 20
0.0
 30
0.0
  9
$PUCSORGFRONT
 10
0.0
 20
0.0
 30
0.0
  9
$PUCSORGBACK
 10
0.0
 20
0.0
 30
0.0
  9
$USERI1
 70
     0
  9
$USERI2
 70
     0
  9
$USERI3
 70
     0
  9
$USERI4
 70
     0
  9
$USERI5
 70
     0
  9
$USERR1
 40
0.0
  9
$USERR2
 40
0.0
  9
$USERR3
 40
0.0
  9
$USERR4
 40
0.0
  9
$USERR5
 40
0.0
  9
$WORLDVIEW
 70
     1
  9
$SHADEDGE
 70
     3
  9
$SHADEDIF
 70
    70
  9
$TILEMODE
 70
     1
  9
$MAXACTVP
 70
    64
  9
$PINSBASE
 10
0.0
 20
0.0
 30
0.0
  9
$PLIMCHECK
 70
     0
  9
$PEXTMIN
 10
1.000000000000000E+20
 20
1.000000000000000E+20
 30
1.000000000000000E+20
  9
$PEXTMAX
 10
-1.000000000000000E+20
 20
-1.000000000000000E+20
 30
-1.000000000000000E+20
  9
$PLIMMIN
 10
0.0
 20
0.0
  9
$PLIMMAX
 10
12.0
 20
9.0
  9
$UNITMODE
 70
     0
  9
$VISRETAIN
 70
     1
  9
$PLINEGEN
 70
     0
  9
$PSLTSCALE
 70
     1
  9
$TREEDEPTH
 70
  3020
  9
$CMLSTYLE
  2
Standard
  9
$CMLJUST
 70
     0
  9
$CMLSCALE
 40
1.0
  9
$PROXYGRAPHICS
 70
     1
  9
$MEASUREMENT
 70
     0
  9
$CELWEIGHT
370
    -1
  9
$ENDCAPS
280
     0
  9
$JOINSTYLE
280
     0
  9
$LWDISPLAY
290
     1
  9
$INSUNITS
 70
     1
  9
$HYPERLINKBASE
  1

  9
$STYLESHEET
  1

  9
$XEDIT
290
     1
  9
$CEPSNTYPE
380
     0
  9
$PSTYLEMODE
290
     1
  9
$FINGERPRINTGUID
  2
{54687F4D-2586-4F29-9CDD-08E0A3FAD333}
  9
$VERSIONGUID
  2
{FAEB1C32-E019-11D5-929B-00C0DF256EC4}
  9
$EXTNAMES
290
     1
  9
$PSVPSCALE
 40
0.0
  9
$OLESTARTUP
290
     0
  9
$SORTENTS
280
   127
  9
$INDEXCTL
280
     0
  9
$HIDETEXT
280
     1
  9
$XCLIPFRAME
280
     2
  9
$HALOGAP
280
     0
  9
$OBSCOLOR
 70
   257
  9
$OBSLTYPE
280
     0
  9
$INTERSECTIONDISPLAY
280
     0
  9
$INTERSECTIONCOLOR
 70
   257
  9
$DIMASSOC
280
     2
  9
$PROJECTNAME
  1

  9
$CAMERADISPLAY
290
     0
  9
$LENSLENGTH
 40
50.0
  9
$CAMERAHEIGHT
 40
0.0
  9
$STEPSPERSEC
 40
2.0
  9
$STEPSIZE
 40
6.0
  9
$3DDWFPREC
 40
2.0
  9
$PSOLWIDTH
 40
0.25
  9
$PSOLHEIGHT
 40
4.0
  9
$LOFTANG1
 40
1.570796326794897
  9
$LOFTANG2
 40
1.570796326794897
  9
$LOFTMAG1
 40
0.0
  9
$LOFTMAG2
 40
0.0
  9
$LOFTPARAM
 70
     7
  9
$LOFTNORMALS
280
     1
  9
$LATITUDE
 40
37.795
  9
$LONGITUDE
 40
-122.394
  9
$NORTHDIRECTION
 40
0.0
  9
$TIMEZONE
 70
 -8000
  9
$LIGHTGLYPHDISPLAY
280
     1
  9
$TILEMODELIGHTSYNCH
280
     1
  9
$CMATERIAL
347
3C
  9
$SOLIDHIST
280
     1
  9
$SHOWHIST
280
     1
  9
$DWFFRAME
280
     2
  9
$DGNFRAME
280
     2
  9
$REALWORLDSCALE
290
     1
  9
$INTERFERECOLOR
 62
   256
  9
$CSHADOW
280
     0
  9
$SHADOWPLANELOCATION
 40
0.0
  0
ENDSEC
  0
SECTION
  2
CLASSES
  0
CLASS
  1
ACDBDICTIONARYWDFLT
  2
AcDbDictionaryWithDefault
  3
ObjectDBX Classes
 90
        0
 91
        4
280
     0
281
     0
  0
CLASS
  1
VISUALSTYLE
  2
AcDbVisualStyle
  3
ObjectDBX Classes
 90
     4095
 91
        4
280
     0
281
     0
  0
CLASS
  1
MATERIAL
  2
AcDbMaterial
  3
ObjectDBX Classes
 90
     1153
 91
        4
280
     0
281
     0
  0
CLASS
  1
SUN
  2
AcDbSun
  3
SCENEOE
 90
     1024
 91
        4
280
     0
281
     0
  0
ENDSEC
  0
SECTION
  2
TABLES
  0
TABLE
  2
VPORT
  5
8
330
0
100
AcDbSymbolTable
 70
     1
  0
VPORT
  5
29
330
8
100
AcDbSymbolTableRecord
100
AcDbViewportTableRecord
  2
*Active
 70
     0
 10
0.0
 20
0.0
 11
1.0
 21
1.0
 12
0.0
 22
0.0
 13
0.0
 23
0.0
 14
0.5
 24
0.5
 15
0.5
 25
0.5
 16
0.0
 26
0.0
 36
1.0
 17
10.99961110836131
 27
-10.99961110836131
 37
0.0
 40
21.99922221672262
 41
1.0
 42
50.0
 43
0.0
 44
0.0
 50
0.0
 51
0.0
 71
     0
 72
   100
 73
     1
 74
     3
 75
     0
 76
     0
 77
     0
 78
     0
281
     0
 65
     1
110
0.0
120
0.0
130
0.0
111
1.0
121
0.0
131
0.0
112
0.0
122
1.0
132
0.0
 79
     0
146
0.0
 60
     3
 61
     5
292
     1
282
     1
141
0.0
142
0.0
 63
   250
361
3F
  0
ENDTAB
  0
TABLE
  2
LTYPE
  5
5
330
0
100
AcDbSymbolTable
 70
     1
  0
LTYPE
  5
14
330
5
100
AcDbSymbolTableRecord
100
AcDbLinetypeTableRecord
  2
ByBlock
 70
     0
  3

 72
    65
 73
     0
 40
0.0
  0
LTYPE
  5
15
330
5
100
AcDbSymbolTableRecord
100
AcDbLinetypeTableRecord
  2
ByLayer
 70
     0
  3

 72
    65
 73
     0
 40
0.0
  0
LTYPE
  5
16
330
5
100
AcDbSymbolTableRecord
100
AcDbLinetypeTableRecord
  2
Continuous
 70
     0
  3
Solid line
 72
    65
 73
     0
 40
0.0
  0
ENDTAB
  0
TABLE
  2
LAYER
  5
2
330
0
100
AcDbSymbolTable
 70
     5
  0
LAYER
  5
10
330
2
100
AcDbSymbolTableRecord
100
AcDbLayerTableRecord
  2
0
 70
     0
 62
     7
  6
Continuous
370
    -3
390
F
347
3E
  0
LAYER
  5
40
330
2
100
AcDbSymbolTableRecord
100
AcDbLayerTableRecord
  2
Big Ridges
 70
     5
 62
     7
  6
Continuous
370
    -3
390
F
347
3E
  0
LAYER
  5
41
330
2
100
AcDbSymbolTableRecord
100
AcDbLayerTableRecord
  2
Small Ridges
 70
     0
 62
     7
  6
Continuous
370
    -3
390
F
347
3E
  0
LAYER
  5
42
330
2
100
AcDbSymbolTableRecord
100
AcDbLayerTableRecord
  2
Numbers
 70
     0
 62
     7
  6
Continuous
370
    -3
390
F
347
3E
  0
LAYER
  5
43
330
2
100
AcDbSymbolTableRecord
100
AcDbLayerTableRecord
  2
Icons
 70
     0
 62
     7
  6
Continuous
370
    -3
390
F
347
3E
  0
ENDTAB
  0
TABLE
  2
STYLE
  5
3
330
0
100
AcDbSymbolTable
 70
     1
  0
STYLE
  5
11
330
3
100
AcDbSymbolTableRecord
100
AcDbTextStyleTableRecord
  2
Standard
 70
     0
 40
0.0
 41
1.0
 50
0.0
 71
     0
 42
0.2
  3
txt
  4

  0
ENDTAB
  0
TABLE
  2
VIEW
  5
6
330
0
100
AcDbSymbolTable
 70
     0
  0
ENDTAB
  0
TABLE
  2
UCS
  5
7
330
0
100
AcDbSymbolTable
 70
     0
  0
ENDTAB
  0
TABLE
  2
APPID
  5
9
330
0
100
AcDbSymbolTable
 70
     1
  0
APPID
  5
12
330
9
100
AcDbSymbolTableRecord
100
AcDbRegAppTableRecord
  2
ACAD
 70
     0
  0
ENDTAB
  0
TABLE
  2
DIMSTYLE
  5
A
330
0
100
AcDbSymbolTable
 70
     1
100
AcDbDimStyleTable
  0
DIMSTYLE
105
27
330
A
100
AcDbSymbolTableRecord
100
AcDbDimStyleTableRecord
  2
Standard
 70
     0
178
     0
340
11
  0
ENDTAB
  0
TABLE
  2
BLOCK_RECORD
  5
1
330
0
100
AcDbSymbolTable
 70
     3
  0
BLOCK_RECORD
  5
1F
330
1
100
AcDbSymbolTableRecord
100
AcDbBlockTableRecord
  2
*Model_Space
340
22
 70
     0
280
     1
281
     0
  0
BLOCK_RECORD
  5
1B
330
1
100
AcDbSymbolTableRecord
100
AcDbBlockTableRecord
  2
*Paper_Space
340
1E
 70
     0
280
     1
281
     0
  0
BLOCK_RECORD
  5
23
330
1
100
AcDbSymbolTableRecord
100
AcDbBlockTableRecord
  2
*Paper_Space0
340
26
 70
     0
280
     1
281
     0
  0
BLOCK_RECORD
  5
44
330
1
100
AcDbSymbolTableRecord
100
AcDbBlockTableRecord
  2
block 2
340
0
102
{BLKREFS
331
45
102
}
 70
     0
280
     1
281
     0
  0
BLOCK_RECORD
  5
48
330
1
100
AcDbSymbolTableRecord
100
AcDbBlockTableRecord
  2
block 3
340
0
102
{BLKREFS
331
49
102
}
 70
     0
280
     1
281
     0
  0
ENDTAB
  0
ENDSEC
  0
SECTION
  2
BLOCKS
  0
BLOCK
  5
20
330
1F
100
AcDbEntity
  8
0
100
AcDbBlockBegin
  2
*Model_Space
 70
     0
 10
0.0
 20
0.0
 30
0.0
  3
*Model_Space
  1

  0
ENDBLK
  5
21
330
1F
100
AcDbEntity
  8
0
100
AcDbBlockEnd
  0
BLOCK
  5
1C
330
1B
100
AcDbEntity
 67
     1
  8
0
100
AcDbBlockBegin
  2
*Paper_Space
 70
     0
 10
0.0
 20
0.0
 30
0.0
  3
*Paper_Space
  1

  0
ENDBLK
  5
1D
330
1B
100
AcDbEntity
 67
     1
  8
0
100
AcDbBlockEnd
  0
BLOCK
  5
24
330
23
100
AcDbEntity
  8
0
100
AcDbBlockBegin
  2
*Paper_Space0
 70
     0
 10
0.0
 20
0.0
 30
0.0
  3
*Paper_Space0
  1

  0
ENDBLK
  5
25
330
23
100
AcDbEntity
  8
0
100
AcDbBlockEnd
  0
BLOCK
  5
46
330
44
100
AcDbEntity
  8
0
100
AcDbBlockBegin
  2
block 2
 70
     0
 10
0.0
 20
0.0
 30
0.0
  3
block 2
  1

  0
INSERT
  5
49
330
44
100
AcDbEntity
  8
Icons
100
AcDbBlockReference
  2
block 3
 10
0.0
 20
0.0
 30
0.0
  0
ENDBLK
  5
47
330
44
100
AcDbEntity
  8
0
100
AcDbBlockEnd
  0
BLOCK
  5
4A
330
48
100
AcDbEntity
  8
0
100
AcDbBlockBegin
  2
block 3
 70
     0
 10
0.0
 20
0.0
 30
0.0
  3
block 3
  1

  0
SPLINE
  5
4C
330
48
100
AcDbEntity
  8
Icons
370
     0
100
AcDbSpline
210
0.0
220
0.0
230
1.0
 70
    11
 71
     3
 72
   125
 73
   121
 74
     0
 42
0.0000000001
 43
0.0000000001
 12
1.0
 22
0.0
 32
0.0
 13
1.0
 23
0.0
 33
0.0
 40
0.0
 40
0.0
 40
0.0
 40
0.0
 40
1.0
 40
1.0
 40
1.0
 40
2.0
 40
2.0
 40
2.0
 40
3.0
 40
3.0
 40
3.0
 40
4.0
 40
4.0
 40
4.0
 40
5.0
 40
5.0
 40
5.0
 40
6.0
 40
6.0
 40
6.0
 40
7.0
 40
7.0
 40
7.0
 40
8.0
 40
8.0
 40
8.0
 40
9.0
 40
9.0
 40
9.0
 40
10.0
 40
10.0
 40
10.0
 40
11.0
 40
11.0
 40
11.0
 40
12.0
 40
12.0
 40
12.0
 40
13.0
 40
13.0
 40
13.0
 40
14.0
 40
14.0
 40
14.0
 40
15.0
 40
15.0
 40
15.0
 40
16.0
 40
16.0
 40
16.0
 40
17.0
 40
17.0
 40
17.0
 40
18.0
 40
18.0
 40
18.0
 40
19.0
 40
19.0
 40
19.0
 40
20.0
 40
20.0
 40
20.0
 40
21.0
 40
21.0
 40
21.0
 40
22.0
 40
22.0
 40
22.0
 40
23.0
 40
23.0
 40
23.0
 40
24.0
 40
24.0
 40
24.0
 40
25.0
 40
25.0
 40
25.0
 40
26.0
 40
26.0
 40
26.0
 40
27.0
 40
27.0
 40
27.0
 40
28.0
 40
28.0
 40
28.0
 40
29.0
 40
29.0
 40
29.0
 40
30.0
 40
30.0
 40
30.0
 40
31.0
 40
31.0
 40
31.0
 40
32.0
 40
32.0
 40
32.0
 40
33.0
 40
33.0
 40
33.0
 40
34.0
 40
34.0
 40
34.0
 40
35.0
 40
35.0
 40
35.0
 40
36.0
 40
36.0
 40
36.0
 40
37.0
 40
37.0
 40
37.0
 40
38.0
 40
38.0
 40
38.0
 40
39.0
 40
39.0
 40
39.0
 40
40.0
 40
40.0
 40
40.0
 40
40.0
 10
9.964122157391067
 20
-13.14961110782412
 30
0.0
 10
9.767074047982215
 20
-13.14950272998354
 30
0.0
 10
9.570897296407546
 20
-13.14055072038473
 30
0.0
 10
9.397343335194813
 20
-13.04234103366833
 30
0.0
 10
9.115628831365635
 20
-12.8829256119744
 30
0.0
 10
8.924701360481428
 20
-12.65866642796352
 30
0.0
 10
8.886181202758513
 20
-12.31762535252545
 30
0.0
 10
8.811499875509066
 20
-11.65642862298281
 30
0.0
 10
9.024742957829485
 20
-11.09302483123504
 30
0.0
 10
9.442872143337611
 20
-10.59414039080127
 30
0.0
 10
9.715852079641877
 20
-10.26843882585776
 30
0.0
 10
10.04854415978219
 20
-10.01626425578622
 30
0.0
 10
10.41978074653239
 20
-9.812955664313211
 30
0.0
 10
10.48370084064346
 20
-9.777949621932164
 30
0.0
 10
10.54328741068999
 20
-9.797069351490036
 30
0.0
 10
10.55811393273891
 20
-9.861961811584118
 30
0.0
 10
10.5636809411285
 20
-9.88632746211863
 30
0.0
 10
10.55462734536756
 20
-9.931055719282856
 30
0.0
 10
10.53757546500045
 20
-9.940775911013239
 30
0.0
 10
10.43489728768157
 20
-9.999306013872957
 30
0.0
 10
10.42511828290976
 20
-10.09995492451132
 30
0.0
 10
10.41572987187378
 20
-10.19809293734879
 30
0.0
 10
10.4096753077061
 20
-10.26138328395725
 30
0.0
 10
10.41096673804957
 20
-10.32848159435777
 30
0.0
 10
10.42545642177097
 20
-10.38998847522804
 30
0.0
 10
10.45606073429827
 20
-10.51989998073261
 30
0.0
 10
10.57671099209913
 20
-10.55253905108231
 30
0.0
 10
10.66731125389951
 20
-10.45490029882871
 30
0.0
 10
10.7111544253681
 20
-10.40765102859864
 30
0.0
 10
10.74254382697006
 20
-10.34685366132335
 30
0.0
 10
10.77133100437656
 20
-10.28814914239278
 30
0.0
 10
10.80443566592847
 20
-10.22064029673301
 30
0.0
 10
10.82514435912734
 20
-10.1471281857491
 30
0.0
 10
10.85701654788077
 20
-10.07892456588268
 30
0.0
 10
10.93822810963837
 20
-9.90513954311467
 30
0.0
 10
11.08777580123489
 20
-9.810326851421044
 30
0.0
 10
11.26135317206173
 20
-9.753549507244784
 30
0.0
 10
11.47058338421889
 20
-9.685110273953732
 30
0.0
 10
11.6635459380606
 20
-9.591509969032254
 30
0.0
 10
11.8282686948403
 20
-9.443116501433124
 30
0.0
 10
11.87351080747027
 20
-9.402359352838667
 30
0.0
 10
11.9125060213911
 20
-9.400777758890072
 30
0.0
 10
11.95260582225999
 20
-9.428116285832145
 30
0.0
 10
11.9918903327639
 20
-9.45489919571466
 30
0.0
 10
12.00171803531091
 20
-9.493008384666995
 30
0.0
 10
11.9837342500222
 20
-9.549710081110835
 30
0.0
 10
11.978506970034
 20
-9.566189581977579
 30
0.0
 10
11.96856048537368
 20
-9.582477398572108
 30
0.0
 10
11.9684200276929
 20
-9.598918461431527
 30
0.0
 10
11.96826165154183
 20
-9.617398761732522
 30
0.0
 10
11.97117571490924
 20
-9.644204141953724
 30
0.0
 10
11.98301404314801
 20
-9.652204016101038
 30
0.0
 10
11.99538327830013
 20
-9.660562765403544
 30
0.0
 10
12.02477014642249
 20
-9.657561421749723
 30
0.0
 10
12.03833009277961
 20
-9.647833932577438
 30
0.0
 10
12.08557705094783
 20
-9.613940641608394
 30
0.0
 10
12.12916748529463
 20
-9.574954675928884
 30
0.0
 10
12.17419226422918
 20
-9.537958888654916
 30
0.0
 10
12.44463543655367
 20
-9.315741904412858
 30
0.0
 10
12.71456995554845
 20
-9.092896473200264
 30
0.0
 10
12.9865627864833
 20
-8.872592827473548
 30
0.0
 10
13.00761698823739
 20
-8.855539827202044
 30
0.0
 10
13.04531658120461
 20
-8.845742253693574
 30
0.0
 10
13.07152841212013
 20
-8.851060480752642
 30
0.0
 10
13.12997383576082
 20
-8.86291884082914
 30
0.0
 10
13.1440013963723
 20
-8.911684606051033
 30
0.0
 10
13.10821907964882
 20
-8.962897579030171
 30
0.0
 10
13.04413974236496
 20
-9.054609689093516
 30
0.0
 10
12.97827693934195
 20
-9.145073503193306
 30
0.0
 10
12.91349300159266
 20
-9.236295962175896
 30
0.0
 10
12.62053527224357
 20
-9.648811645199729
 30
0.0
 10
12.32640879626602
 20
-10.06050842526336
 30
0.0
 10
12.03583624642474
 20
-10.47469789565174
 30
0.0
 10
11.97367013927902
 20
-10.56331065236735
 30
0.0
 10
11.92197506554115
 20
-10.65968933159825
 30
0.0
 10
11.87057188945182
 20
-10.75524217168948
 30
0.0
 10
11.84736429226496
 20
-10.79838262124122
 30
0.0
 10
11.82159290889188
 20
-10.85126826168052
 30
0.0
 10
11.86640208817699
 20
-10.89541012247708
 30
0.0
 10
11.9110286146736
 20
-10.9393717870512
 30
0.0
 10
11.96391555564755
 20
-10.91585263970112
 30
0.0
 10
12.01225293939265
 20
-10.89640199647024
 30
0.0
 10
12.03837517796119
 20
-10.88589050200292
 30
0.0
 10
12.06319341435525
 20
-10.8714064539289
 30
0.0
 10
12.08713769184774
 20
-10.85638355123388
 30
0.0
 10
12.12411100878206
 20
-10.83318635832006
 30
0.0
 10
12.16094646910426
 20
-10.82503735626491
 30
0.0
 10
12.19474388181163
 20
-10.8584564580568
 30
0.0
 10
12.22797917478746
 20
-10.89131965378135
 30
0.0
 10
12.22760606600898
 20
-10.92820583493251
 30
0.0
 10
12.20702612568416
 20
-10.97064775317882
 30
0.0
 10
12.08759201175423
 20
-11.2169585040814
 30
0.0
 10
11.92094244147946
 20
-11.41589975760271
 30
0.0
 10
11.67225258022939
 20
-11.54391595143782
 30
0.0
 10
11.51386573649028
 20
-11.62544701106851
 30
0.0
 10
11.40712021108136
 20
-11.75986934678587
 30
0.0
 10
11.34666069365887
 20
-11.92823764510193
 30
0.0
 10
11.33625526497157
 20
-11.95721470048383
 30
0.0
 10
11.3314057178817
 20
-11.98966793896404
 30
0.0
 10
11.33124098356478
 20
-12.02055417837978
 30
0.0
 10
11.33080429312145
 20
-12.10240199031005
 30
0.0
 10
11.3806370020537
 20
-12.13967067298553
 30
0.0
 10
11.45903232950753
 20
-12.11419060924674
 30
0.0
 10
11.49737496432846
 20
-12.1017288916712
 30
0.0
 10
11.53331623521727
 20
-12.08031082938155
 30
0.0
 10
11.56834279713503
 20
-12.05956644374823
 30
0.0
 10
11.62672781819251
 20
-12.02498813257761
 30
0.0
 10
11.65990357560652
 20
-12.02387487540281
 30
0.0
 10
11.70107010343042
 20
-12.06011584714551
 30
0.0
 10
11.73769718929298
 20
-12.09236013315054
 30
0.0
 10
11.74067570134856
 20
-12.12696243194952
 30
0.0
 10
11.71242434398466
 20
-12.18880456160521
 30
0.0
 10
11.6117895947162
 20
-12.40909624964283
 30
0.0
 10
11.44987830361364
 20
-12.57712612008991
 30
0.0
 10
11.25413751996608
 20
-12.71297673123695
 30
0.0
 10
11.00696668252343
 20
-12.88452035576698
 30
0.0
 10
10.74410316733468
 20
-13.02810452058166
 30
0.0
 10
10.44619546076501
 20
-13.08807677123415
 30
0.0
 10
10.28779445565503
 20
-13.11996442189213
 30
0.0
 10
10.12495703978373
 20
-13.12981380000919
 30
0.0
 10
9.964122157391067
 20
-13.14961110782412
 30
0.0
  0
HATCH
  5
4D
330
48
100
AcDbEntity
  8
Icons
 62
     7
420
 16777215
100
AcDbHatch
 10
0.0
 20
0.0
 30
0.0
210
0.0
220
0.0
230
1.0
  2
SOLID
 70
     1
 71
     0
 91
        1
 92
        1
 93
        1
 72
     4
 94
        3
 73
     0
 74
     1
 95
      125
 96
      121
 40
0.0
 40
0.0
 40
0.0
 40
0.0
 40
1.0
 40
1.0
 40
1.0
 40
2.0
 40
2.0
 40
2.0
 40
3.0
 40
3.0
 40
3.0
 40
4.0
 40
4.0
 40
4.0
 40
5.0
 40
5.0
 40
5.0
 40
6.0
 40
6.0
 40
6.0
 40
7.0
 40
7.0
 40
7.0
 40
8.0
 40
8.0
 40
8.0
 40
9.0
 40
9.0
 40
9.0
 40
10.0
 40
10.0
 40
10.0
 40
11.0
 40
11.0
 40
11.0
 40
12.0
 40
12.0
 40
12.0
 40
13.0
 40
13.0
 40
13.0
 40
14.0
 40
14.0
 40
14.0
 40
15.0
 40
15.0
 40
15.0
 40
16.0
 40
16.0
 40
16.0
 40
17.0
 40
17.0
 40
17.0
 40
18.0
 40
18.0
 40
18.0
 40
19.0
 40
19.0
 40
19.0
 40
20.0
 40
20.0
 40
20.0
 40
21.0
 40
21.0
 40
21.0
 40
22.0
 40
22.0
 40
22.0
 40
23.0
 40
23.0
 40
23.0
 40
24.0
 40
24.0
 40
24.0
 40
25.0
 40
25.0
 40
25.0
 40
26.0
 40
26.0
 40
26.0
 40
27.0
 40
27.0
 40
27.0
 40
28.0
 40
28.0
 40
28.0
 40
29.0
 40
29.0
 40
29.0
 40
30.0
 40
30.0
 40
30.0
 40
31.0
 40
31.0
 40
31.0
 40
32.0
 40
32.0
 40
32.0
 40
33.0
 40
33.0
 40
33.0
 40
34.0
 40
34.0
 40
34.0
 40
35.0
 40
35.0
 40
35.0
 40
36.0
 40
36.0
 40
36.0
 40
37.0
 40
37.0
 40
37.0
 40
38.0
 40
38.0
 40
38.0
 40
39.0
 40
39.0
 40
39.0
 40
40.0
 40
40.0
 40
40.0
 40
40.0
 10
9.964122157391067
 20
-13.14961110782412
 10
9.767074047982215
 20
-13.14950272998354
 10
9.570897296407546
 20
-13.14055072038473
 10
9.397343335194813
 20
-13.04234103366833
 10
9.115628831365635
 20
-12.8829256119744
 10
8.924701360481428
 20
-12.65866642796352
 10
8.886181202758513
 20
-12.31762535252545
 10
8.811499875509066
 20
-11.65642862298281
 10
9.024742957829485
 20
-11.09302483123504
 10
9.442872143337611
 20
-10.59414039080127
 10
9.715852079641877
 20
-10.26843882585776
 10
10.04854415978219
 20
-10.01626425578622
 10
10.41978074653239
 20
-9.812955664313211
 10
10.48370084064346
 20
-9.777949621932164
 10
10.54328741068999
 20
-9.797069351490036
 10
10.55811393273891
 20
-9.861961811584118
 10
10.5636809411285
 20
-9.88632746211863
 10
10.55462734536756
 20
-9.931055719282856
 10
10.53757546500045
 20
-9.940775911013239
 10
10.43489728768157
 20
-9.999306013872957
 10
10.42511828290976
 20
-10.09995492451132
 10
10.41572987187378
 20
-10.19809293734879
 10
10.4096753077061
 20
-10.26138328395725
 10
10.41096673804957
 20
-10.32848159435777
 10
10.42545642177097
 20
-10.38998847522804
 10
10.45606073429827
 20
-10.51989998073261
 10
10.57671099209913
 20
-10.55253905108231
 10
10.66731125389951
 20
-10.45490029882871
 10
10.7111544253681
 20
-10.40765102859864
 10
10.74254382697006
 20
-10.34685366132335
 10
10.77133100437656
 20
-10.28814914239278
 10
10.80443566592847
 20
-10.22064029673301
 10
10.82514435912734
 20
-10.1471281857491
 10
10.85701654788077
 20
-10.07892456588268
 10
10.93822810963837
 20
-9.90513954311467
 10
11.08777580123489
 20
-9.810326851421044
 10
11.26135317206173
 20
-9.753549507244784
 10
11.47058338421889
 20
-9.685110273953732
 10
11.6635459380606
 20
-9.591509969032254
 10
11.8282686948403
 20
-9.443116501433124
 10
11.87351080747027
 20
-9.402359352838667
 10
11.9125060213911
 20
-9.400777758890072
 10
11.95260582225999
 20
-9.428116285832145
 10
11.9918903327639
 20
-9.45489919571466
 10
12.00171803531091
 20
-9.493008384666995
 10
11.9837342500222
 20
-9.549710081110835
 10
11.978506970034
 20
-9.566189581977579
 10
11.96856048537368
 20
-9.582477398572108
 10
11.9684200276929
 20
-9.598918461431527
 10
11.96826165154183
 20
-9.617398761732522
 10
11.97117571490924
 20
-9.644204141953724
 10
11.98301404314801
 20
-9.652204016101038
 10
11.99538327830013
 20
-9.660562765403544
 10
12.02477014642249
 20
-9.657561421749723
 10
12.03833009277961
 20
-9.647833932577438
 10
12.08557705094783
 20
-9.613940641608394
 10
12.12916748529463
 20
-9.574954675928884
 10
12.17419226422918
 20
-9.537958888654916
 10
12.44463543655367
 20
-9.315741904412858
 10
12.71456995554845
 20
-9.092896473200264
 10
12.9865627864833
 20
-8.872592827473548
 10
13.00761698823739
 20
-8.855539827202044
 10
13.04531658120461
 20
-8.845742253693574
 10
13.07152841212013
 20
-8.851060480752642
 10
13.12997383576082
 20
-8.86291884082914
 10
13.1440013963723
 20
-8.911684606051033
 10
13.10821907964882
 20
-8.962897579030171
 10
13.04413974236496
 20
-9.054609689093516
 10
12.97827693934195
 20
-9.145073503193306
 10
12.91349300159266
 20
-9.236295962175896
 10
12.62053527224357
 20
-9.648811645199729
 10
12.32640879626602
 20
-10.06050842526336
 10
12.03583624642474
 20
-10.47469789565174
 10
11.97367013927902
 20
-10.56331065236735
 10
11.92197506554115
 20
-10.65968933159825
 10
11.87057188945182
 20
-10.75524217168948
 10
11.84736429226496
 20
-10.79838262124122
 10
11.82159290889188
 20
-10.85126826168052
 10
11.86640208817699
 20
-10.89541012247708
 10
11.9110286146736
 20
-10.9393717870512
 10
11.96391555564755
 20
-10.91585263970112
 10
12.01225293939265
 20
-10.89640199647024
 10
12.03837517796119
 20
-10.88589050200292
 10
12.06319341435525
 20
-10.8714064539289
 10
12.08713769184774
 20
-10.85638355123388
 10
12.12411100878206
 20
-10.83318635832006
 10
12.16094646910426
 20
-10.82503735626491
 10
12.19474388181163
 20
-10.8584564580568
 10
12.22797917478746
 20
-10.89131965378135
 10
12.22760606600898
 20
-10.92820583493251
 10
12.20702612568416
 20
-10.97064775317882
 10
12.08759201175423
 20
-11.2169585040814
 10
11.92094244147946
 20
-11.41589975760271
 10
11.67225258022939
 20
-11.54391595143782
 10
11.51386573649028
 20
-11.62544701106851
 10
11.40712021108136
 20
-11.75986934678587
 10
11.34666069365887
 20
-11.92823764510193
 10
11.33625526497157
 20
-11.95721470048383
 10
11.3314057178817
 20
-11.98966793896404
 10
11.33124098356478
 20
-12.02055417837978
 10
11.33080429312145
 20
-12.10240199031005
 10
11.3806370020537
 20
-12.13967067298553
 10
11.45903232950753
 20
-12.11419060924674
 10
11.49737496432846
 20
-12.1017288916712
 10
11.53331623521727
 20
-12.08031082938155
 10
11.56834279713503
 20
-12.05956644374823
 10
11.62672781819251
 20
-12.02498813257761
 10
11.65990357560652
 20
-12.02387487540281
 10
11.70107010343042
 20
-12.06011584714551
 10
11.73769718929298
 20
-12.09236013315054
 10
11.74067570134856
 20
-12.12696243194952
 10
11.71242434398466
 20
-12.18880456160521
 10
11.6117895947162
 20
-12.40909624964283
 10
11.44987830361364
 20
-12.57712612008991
 10
11.25413751996608
 20
-12.71297673123695
 10
11.00696668252343
 20
-12.88452035576698
 10
10.74410316733468
 20
-13.02810452058166
 10
10.44619546076501
 20
-13.08807677123415
 10
10.28779445565503
 20
-13.11996442189213
 10
10.12495703978373
 20
-13.12981380000919
 10
9.964122157391067
 20
-13.14961110782412
 97
        0
 97
        0
 75
     2
 76
     1
 98
        0
  0
SPLINE
  5
4E
330
48
100
AcDbEntity
  8
Icons
370
     0
100
AcDbSpline
210
0.0
220
0.0
230
1.0
 70
    11
 71
     3
 72
    29
 73
    25
 74
     0
 42
0.0000000001
 43
0.0000000001
 12
1.0
 22
0.0
 32
0.0
 13
1.0
 23
0.0
 33
0.0
 40
0.0
 40
0.0
 40
0.0
 40
0.0
 40
1.0
 40
1.0
 40
1.0
 40
2.0
 40
2.0
 40
2.0
 40
3.0
 40
3.0
 40
3.0
 40
4.0
 40
4.0
 40
4.0
 40
5.0
 40
5.0
 40
5.0
 40
6.0
 40
6.0
 40
6.0
 40
7.0
 40
7.0
 40
7.0
 40
8.0
 40
8.0
 40
8.0
 40
8.0
 10
10.7654901613094
 20
-9.468873651184516
 30
0.0
 10
10.78167949857199
 20
-9.441265046664299
 30
0.0
 10
10.7936449901443
 20
-9.409805343970488
 30
0.0
 10
10.8147392194462
 20
-9.386668770395547
 30
0.0
 10
10.95883073705786
 20
-9.228626857195461
 30
0.0
 10
11.13383551629138
 20
-9.111345632934237
 30
0.0
 10
11.32137339797159
 20
-9.011870851690313
 30
0.0
 10
11.34388997804867
 20
-8.999927360820262
 30
0.0
 10
11.37249103457758
 20
-8.994390842729091
 30
0.0
 10
11.39819652422428
 20
-8.994613631441956
 30
0.0
 10
11.44656251972017
 20
-8.995032873053985
 30
0.0
 10
11.47697218564575
 20
-9.044316792729582
 30
0.0
 10
11.4572485747619
 20
-9.088313752353516
 30
0.0
 10
11.44713966784556
 20
-9.11086371280512
 30
0.0
 10
11.43339793572454
 20
-9.133710592412971
 30
0.0
 10
11.41575633540263
 20
-9.150653408547726
 30
0.0
 10
11.27588129379045
 20
-9.284989114244405
 30
0.0
 10
11.13481207288258
 20
-9.41808425493013
 30
0.0
 10
10.99377955593798
 20
-9.551210752937585
 30
0.0
 10
10.95643602030065
 20
-9.58646093446579
 30
0.0
 10
10.91438007166839
 20
-9.607670839049542
 30
0.0
 10
10.86089907562723
 20
-9.59064619764582
 30
0.0
 10
10.81092793206669
 20
-9.574739076278805
 30
0.0
 10
10.77333700594653
 20
-9.524902827003762
 30
0.0
 10
10.7654901613094
 20
-9.468873651184516
 30
0.0
  0
HATCH
  5
4F
330
48
100
AcDbEntity
  8
Icons
 62
     7
420
 16777215
100
AcDbHatch
 10
0.0
 20
0.0
 30
0.0
210
0.0
220
0.0
230
1.0
  2
SOLID
 70
     1
 71
     0
 91
        1
 92
        1
 93
        1
 72
     4
 94
        3
 73
     0
 74
     1
 95
       29
 96
       25
 40
0.0
 40
0.0
 40
0.0
 40
0.0
 40
1.0
 40
1.0
 40
1.0
 40
2.0
 40
2.0
 40
2.0
 40
3.0
 40
3.0
 40
3.0
 40
4.0
 40
4.0
 40
4.0
 40
5.0
 40
5.0
 40
5.0
 40
6.0
 40
6.0
 40
6.0
 40
7.0
 40
7.0
 40
7.0
 40
8.0
 40
8.0
 40
8.0
 40
8.0
 10
10.7654901613094
 20
-9.468873651184516
 10
10.78167949857199
 20
-9.441265046664299
 10
10.7936449901443
 20
-9.409805343970488
 10
10.8147392194462
 20
-9.386668770395547
 10
10.95883073705786
 20
-9.228626857195461
 10
11.13383551629138
 20
-9.111345632934237
 10
11.32137339797159
 20
-9.011870851690313
 10
11.34388997804867
 20
-8.999927360820262
 10
11.37249103457758
 20
-8.994390842729091
 10
11.39819652422428
 20
-8.994613631441956
 10
11.44656251972017
 20
-8.995032873053985
 10
11.47697218564575
 20
-9.044316792729582
 10
11.4572485747619
 20
-9.088313752353516
 10
11.44713966784556
 20
-9.11086371280512
 10
11.43339793572454
 20
-9.133710592412971
 10
11.41575633540263
 20
-9.150653408547726
 10
11.27588129379045
 20
-9.284989114244405
 10
11.13481207288258
 20
-9.41808425493013
 10
10.99377955593798
 20
-9.551210752937585
 10
10.95643602030065
 20
-9.58646093446579
 10
10.91438007166839
 20
-9.607670839049542
 10
10.86089907562723
 20
-9.59064619764582
 10
10.81092793206669
 20
-9.574739076278805
 10
10.77333700594653
 20
-9.524902827003762
 10
10.7654901613094
 20
-9.468873651184516
 97
        0
 97
        0
 75
     2
 76
     1
 98
        0
  0
SPLINE
  5
50
330
48
100
AcDbEntity
  8
Icons
370
     0
100
AcDbSpline
210
0.0
220
0.0
230
1.0
 70
    11
 71
     3
 72
    32
 73
    28
 74
     0
 42
0.0000000001
 43
0.0000000001
 12
1.0
 22
0.0
 32
0.0
 13
1.0
 23
0.0
 33
0.0
 40
0.0
 40
0.0
 40
0.0
 40
0.0
 40
1.0
 40
1.0
 40
1.0
 40
2.0
 40
2.0
 40
2.0
 40
3.0
 40
3.0
 40
3.0
 40
4.0
 40
4.0
 40
4.0
 40
5.0
 40
5.0
 40
5.0
 40
6.0
 40
6.0
 40
6.0
 40
7.0
 40
7.0
 40
7.0
 40
8.0
 40
8.0
 40
8.0
 40
9.0
 40
9.0
 40
9.0
 40
9.0
 10
12.43698453905098
 20
-10.43259874038714
 30
0.0
 10
12.44179564813416
 20
-10.42150171657386
 30
0.0
 10
12.44628306873189
 20
-10.39397620173153
 30
0.0
 10
12.46215883277782
 20
-10.37727748861981
 30
0.0
 10
12.57867252517448
 20
-10.25472295991498
 30
0.0
 10
12.70364055612852
 20
-10.14264827934766
 30
0.0
 10
12.86359931206102
 20
-10.07805956621434
 30
0.0
 10
12.87377815881126
 20
-10.07394973401042
 30
0.0
 10
12.8844668149223
 20
-10.06690719745193
 30
0.0
 10
12.89450925009799
 20
-10.0675564529663
 30
0.0
 10
12.91359588828815
 20
-10.068790370803
 30
0.0
 10
12.93759449920385
 20
-10.06903342617214
 30
0.0
 10
12.94964322495665
 20
-10.08029258323335
 30
0.0
 10
12.95920157244655
 20
-10.08922450680647
 30
0.0
 10
12.96115699769113
 20
-10.11779348349519
 30
0.0
 10
12.95410868097913
 20
-10.13107338151246
 30
0.0
 10
12.91670994489752
 20
-10.2015386301474
 30
0.0
 10
12.88191690109821
 20
-10.27492545634828
 30
0.0
 10
12.83374771976072
 20
-10.33773402733022
 30
0.0
 10
12.77756984954434
 20
-10.41098588699253
 30
0.0
 10
12.71021576744042
 20
-10.47607660628227
 30
0.0
 10
12.64438157616756
 20
-10.54135070087671
 30
0.0
 10
12.60813598030308
 20
-10.57728821466739
 30
0.0
 10
12.56112225124618
 20
-10.58585165358477
 30
0.0
 10
12.51360709404809
 20
-10.56170030216569
 30
0.0
 10
12.46713265312288
 20
-10.53807826811883
 30
0.0
 10
12.43798219319668
 20
-10.50114237766432
 30
0.0
 10
12.43698453905098
 20
-10.43259874038714
 30
0.0
  0
HATCH
  5
51
330
48
100
AcDbEntity
  8
Icons
 62
     7
420
 16777215
100
AcDbHatch
 10
0.0
 20
0.0
 30
0.0
210
0.0
220
0.0
230
1.0
  2
SOLID
 70
     1
 71
     0
 91
        1
 92
        1
 93
        1
 72
     4
 94
        3
 73
     0
 74
     1
 95
       32
 96
       28
 40
0.0
 40
0.0
 40
0.0
 40
0.0
 40
1.0
 40
1.0
 40
1.0
 40
2.0
 40
2.0
 40
2.0
 40
3.0
 40
3.0
 40
3.0
 40
4.0
 40
4.0
 40
4.0
 40
5.0
 40
5.0
 40
5.0
 40
6.0
 40
6.0
 40
6.0
 40
7.0
 40
7.0
 40
7.0
 40
8.0
 40
8.0
 40
8.0
 40
9.0
 40
9.0
 40
9.0
 40
9.0
 10
12.43698453905098
 20
-10.43259874038714
 10
12.44179564813416
 20
-10.42150171657386
 10
12.44628306873189
 20
-10.39397620173153
 10
12.46215883277782
 20
-10.37727748861981
 10
12.57867252517448
 20
-10.25472295991498
 10
12.70364055612852
 20
-10.14264827934766
 10
12.86359931206102
 20
-10.07805956621434
 10
12.87377815881126
 20
-10.07394973401042
 10
12.8844668149223
 20
-10.06690719745193
 10
12.89450925009799
 20
-10.0675564529663
 10
12.91359588828815
 20
-10.068790370803
 10
12.93759449920385
 20
-10.06903342617214
 10
12.94964322495665
 20
-10.08029258323335
 10
12.95920157244655
 20
-10.08922450680647
 10
12.96115699769113
 20
-10.11779348349519
 10
12.95410868097913
 20
-10.13107338151246
 10
12.91670994489752
 20
-10.2015386301474
 10
12.88191690109821
 20
-10.27492545634828
 10
12.83374771976072
 20
-10.33773402733022
 10
12.77756984954434
 20
-10.41098588699253
 10
12.71021576744042
 20
-10.47607660628227
 10
12.64438157616756
 20
-10.54135070087671
 10
12.60813598030308
 20
-10.57728821466739
 10
12.56112225124618
 20
-10.58585165358477
 10
12.51360709404809
 20
-10.56170030216569
 10
12.46713265312288
 20
-10.53807826811883
 10
12.43798219319668
 20
-10.50114237766432
 10
12.43698453905098
 20
-10.43259874038714
 97
        0
 97
        0
 75
     2
 76
     1
 98
        0
  0
SPLINE
  5
52
330
48
100
AcDbEntity
  8
Icons
370
     0
100
AcDbSpline
210
0.0
220
0.0
230
1.0
 70
    11
 71
     3
 72
    26
 73
    22
 74
     0
 42
0.0000000001
 43
0.0000000001
 12
1.0
 22
0.0
 32
0.0
 13
1.0
 23
0.0
 33
0.0
 40
0.0
 40
0.0
 40
0.0
 40
0.0
 40
1.0
 40
1.0
 40
1.0
 40
2.0
 40
2.0
 40
2.0
 40
3.0
 40
3.0
 40
3.0
 40
4.0
 40
4.0
 40
4.0
 40
5.0
 40
5.0
 40
5.0
 40
6.0
 40
6.0
 40
6.0
 40
7.0
 40
7.0
 40
7.0
 40
7.0
 10
12.10059215043943
 20
-9.268812204307018
 30
0.0
 10
12.07659036044144
 20
-9.248737304717006
 30
0.0
 10
12.0470838431831
 20
-9.232586766720015
 30
0.0
 10
12.03020955797072
 20
-9.20782712661108
 30
0.0
 10
12.00818313473752
 20
-9.175508493408605
 30
0.0
 10
12.01176509460775
 20
-9.133385242137157
 30
0.0
 10
12.04065111260446
 20
-9.107624732673868
 30
0.0
 10
12.09414525849088
 20
-9.05991919173661
 30
0.0
 10
12.15193203386976
 20
-9.016460075207753
 30
0.0
 10
12.21122800679983
 20
-8.976073470447242
 30
0.0
 10
12.23973542487489
 20
-8.956657255243817
 30
0.0
 10
12.28157591836096
 20
-8.954855365273824
 30
0.0
 10
12.30031574746317
 20
-8.986759055851586
 30
0.0
 10
12.31329883470395
 20
-9.008862282847012
 30
0.0
 10
12.3151649566074
 20
-9.05179742864453
 30
0.0
 10
12.30183159218734
 20
-9.072326359132623
 30
0.0
 10
12.26453747684721
 20
-9.129746889664222
 30
0.0
 10
12.21843498866875
 20
-9.181880171136708
 30
0.0
 10
12.17214435656055
 20
-9.232766818439204
 30
0.0
 10
12.15774831129365
 20
-9.24859251192286
 30
0.0
 10
12.13164399119476
 20
-9.253767553791143
 30
0.0
 10
12.10059215043943
 20
-9.268812204307018
 30
0.0
  0
HATCH
  5
53
330
48
100
AcDbEntity
  8
Icons
 62
     7
420
 16777215
100
AcDbHatch
 10
0.0
 20
0.0
 30
0.0
210
0.0
220
0.0
230
1.0
  2
SOLID
 70
     1
 71
     0
 91
        1
 92
        1
 93
        1
 72
     4
 94
        3
 73
     0
 74
     1
 95
       26
 96
       22
 40
0.0
 40
0.0
 40
0.0
 40
0.0
 40
1.0
 40
1.0
 40
1.0
 40
2.0
 40
2.0
 40
2.0
 40
3.0
 40
3.0
 40
3.0
 40
4.0
 40
4.0
 40
4.0
 40
5.0
 40
5.0
 40
5.0
 40
6.0
 40
6.0
 40
6.0
 40
7.0
 40
7.0
 40
7.0
 40
7.0
 10
12.10059215043943
 20
-9.268812204307018
 10
12.07659036044144
 20
-9.248737304717006
 10
12.0470838431831
 20
-9.232586766720015
 10
12.03020955797072
 20
-9.20782712661108
 10
12.00818313473752
 20
-9.175508493408605
 10
12.01176509460775
 20
-9.133385242137157
 10
12.04065111260446
 20
-9.107624732673868
 10
12.09414525849088
 20
-9.05991919173661
 10
12.15193203386976
 20
-9.016460075207753
 10
12.21122800679983
 20
-8.976073470447242
 10
12.23973542487489
 20
-8.956657255243817
 10
12.28157591836096
 20
-8.954855365273824
 10
12.30031574746317
 20
-8.986759055851586
 10
12.31329883470395
 20
-9.008862282847012
 10
12.3151649566074
 20
-9.05179742864453
 10
12.30183159218734
 20
-9.072326359132623
 10
12.26453747684721
 20
-9.129746889664222
 10
12.21843498866875
 20
-9.181880171136708
 10
12.17214435656055
 20
-9.232766818439204
 10
12.15774831129365
 20
-9.24859251192286
 10
12.13164399119476
 20
-9.253767553791143
 10
12.10059215043943
 20
-9.268812204307018
 97
        0
 97
        0
 75
     2
 76
     1
 98
        0
  0
ENDBLK
  5
4B
330
48
100
AcDbEntity
  8
0
100
AcDbBlockEnd
  0
ENDSEC
  0
SECTION
  2
ENTITIES
  0
INSERT
  5
45
330
1F
100
AcDbEntity
  8
Icons
100
AcDbBlockReference
  2
block 2
 10
0.0
 20
0.0
 30
0.0
  0
ENDSEC
  0
SECTION
  2
OBJECTS
  0
DICTIONARY
  5
C
330
0
100
AcDbDictionary
281
     1
  3
ACAD_GROUP
350
D
  3
ACAD_LAYOUT
350
1A
  3
ACAD_MATERIAL
350
3B
  3
ACAD_MLEADERSTYLE
350
55
  3
ACAD_MLINESTYLE
350
17
  3
ACAD_PLOTSETTINGS
350
19
  3
ACAD_PLOTSTYLENAME
350
E
  3
ACAD_TABLESTYLE
350
54
  3
ACAD_VISUALSTYLE
350
2A
  0
SUN
  5
3F
330
29
100
AcDbSun
 90
        1
290
     0
 63
     7
421
 16777215
 40
1.0
291
     1
 91
  2455826
 92
 54000000
292
     0
 70
     2
 71
   256
280
     1
  0
DICTIONARY
  5
D
102
{ACAD_REACTORS
330
C
102
}
330
C
100
AcDbDictionary
281
     1
  0
DICTIONARY
  5
1A
102
{ACAD_REACTORS
330
C
102
}
330
C
100
AcDbDictionary
281
     1
  3
Layout1
350
1E
  3
Layout2
350
26
  3
Model
350
22
  0
DICTIONARY
  5
3B
102
{ACAD_REACTORS
330
C
102
}
330
C
100
AcDbDictionary
281
     1
  3
ByBlock
350
3D
  3
ByLayer
350
3C
  3
Global
350
3E
  0
DICTIONARY
  5
55
102
{ACAD_REACTORS
330
C
102
}
330
C
100
AcDbDictionary
281
     1
  0
DICTIONARY
  5
17
102
{ACAD_REACTORS
330
C
102
}
330
C
100
AcDbDictionary
281
     1
  3
Standard
350
18
  0
DICTIONARY
  5
19
102
{ACAD_REACTORS
330
C
102
}
330
C
100
AcDbDictionary
281
     1
  0
ACDBDICTIONARYWDFLT
  5
E
102
{ACAD_REACTORS
330
C
102
}
330
C
100
AcDbDictionary
281
     1
  3
Normal
350
F
100
AcDbDictionaryWithDefault
340
F
  0
DICTIONARY
  5
54
102
{ACAD_REACTORS
330
C
102
}
330
C
100
AcDbDictionary
281
     1
  0
DICTIONARY
  5
2A
102
{ACAD_REACTORS
330
C
102
}
330
C
100
AcDbDictionary
281
     1
  3
2dWireframe
350
2F
  3
3D Hidden
350
31
  3
3dWireframe
350
30
  3
Basic
350
32
  3
Brighten
350
36
  3
ColorChange
350
3A
  3
Conceptual
350
34
  3
Dim
350
35
  3
Facepattern
350
39
  3
Flat
350
2B
  3
FlatWithEdges
350
2C
  3
Gouraud
350
2D
  3
GouraudWithEdges
350
2E
  3
Linepattern
350
38
  3
Realistic
350
33
  3
Thicken
350
37
  0
LAYOUT
  5
1E
102
{ACAD_REACTORS
330
1A
102
}
330
1A
100
AcDbPlotSettings
  1

  2
none_device
  4

  6

 40
0.0
 41
0.0
 42
0.0
 43
0.0
 44
0.0
 45
0.0
 46
0.0
 47
0.0
 48
0.0
 49
0.0
140
0.0
141
0.0
142
1.0
143
1.0
 70
   688
 72
     0
 73
     0
 74
     5
  7

 75
    16
 76
     0
 77
     2
 78
   300
147
1.0
148
0.0
149
0.0
100
AcDbLayout
  1
Layout1
 70
     1
 71
     1
 10
0.0
 20
0.0
 11
12.0
 21
9.0
 12
0.0
 22
0.0
 32
0.0
 14
1.000000000000000E+20
 24
1.000000000000000E+20
 34
1.000000000000000E+20
 15
-1.000000000000000E+20
 25
-1.000000000000000E+20
 35
-1.000000000000000E+20
146
0.0
 13
0.0
 23
0.0
 33
0.0
 16
1.0
 26
0.0
 36
0.0
 17
0.0
 27
1.0
 37
0.0
 76
     0
330
1B
  0
LAYOUT
  5
26
102
{ACAD_REACTORS
330
1A
102
}
330
1A
100
AcDbPlotSettings
  1

  2
none_device
  4

  6

 40
0.0
 41
0.0
 42
0.0
 43
0.0
 44
0.0
 45
0.0
 46
0.0
 47
0.0
 48
0.0
 49
0.0
140
0.0
141
0.0
142
1.0
143
1.0
 70
   688
 72
     0
 73
     0
 74
     5
  7

 75
    16
 76
     0
 77
     2
 78
   300
147
1.0
148
0.0
149
0.0
100
AcDbLayout
  1
Layout2
 70
     1
 71
     2
 10
0.0
 20
0.0
 11
0.0
 21
0.0
 12
0.0
 22
0.0
 32
0.0
 14
0.0
 24
0.0
 34
0.0
 15
0.0
 25
0.0
 35
0.0
146
0.0
 13
0.0
 23
0.0
 33
0.0
 16
1.0
 26
0.0
 36
0.0
 17
0.0
 27
1.0
 37
0.0
 76
     0
330
23
  0
LAYOUT
  5
22
102
{ACAD_REACTORS
330
1A
102
}
330
1A
100
AcDbPlotSettings
  1

  2
none_device
  4

  6

 40
0.0
 41
0.0
 42
0.0
 43
0.0
 44
0.0
 45
0.0
 46
0.0
 47
0.0
 48
0.0
 49
0.0
140
0.0
141
0.0
142
1.0
143
1.0
 70
  1712
 72
     0
 73
     0
 74
     0
  7

 75
     0
 76
     0
 77
     2
 78
   300
147
1.0
148
0.0
149
0.0
100
AcDbLayout
  1
Model
 70
     1
 71
     0
 10
0.0
 20
0.0
 11
12.0
 21
9.0
 12
0.0
 22
0.0
 32
0.0
 14
1.000000000000000E+20
 24
1.000000000000000E+20
 34
1.000000000000000E+20
 15
-1.000000000000000E+20
 25
-1.000000000000000E+20
 35
-1.000000000000000E+20
146
0.0
 13
0.0
 23
0.0
 33
0.0
 16
1.0
 26
0.0
 36
0.0
 17
0.0
 27
1.0
 37
0.0
 76
     0
330
1F
331
29
  0
MATERIAL
  5
3D
102
{ACAD_REACTORS
330
3B
102
}
330
3B
100
AcDbMaterial
  1
ByBlock
 72
     1
 94
      127
  0
MATERIAL
  5
3C
102
{ACAD_REACTORS
330
3B
102
}
330
3B
100
AcDbMaterial
  1
ByLayer
 72
     1
 94
      127
  0
MATERIAL
  5
3E
102
{ACAD_REACTORS
330
3B
102
}
330
3B
100
AcDbMaterial
  1
Global
 72
     1
 94
      127
  0
MLINESTYLE
  5
18
102
{ACAD_REACTORS
330
17
102
}
330
17
100
AcDbMlineStyle
  2
Standard
 70
     0
  3

 62
   256
 51
90.0
 52
90.0
 71
     2
 49
0.5
 62
   256
  6
BYLAYER
 49
-0.5
 62
   256
  6
BYLAYER
  0
ACDBPLACEHOLDER
  5
F
102
{ACAD_REACTORS
330
E
102
}
330
E
  0
VISUALSTYLE
  5
2F
102
{ACAD_REACTORS
330
2A
102
}
330
2A
100
AcDbVisualStyle
  2
2dWireframe
 70
     4
177
     2
291
     0
 71
     0
176
     1
 72
     2
176
     1
 73
     0
176
     1
 90
        0
176
     1
 40
-0.6
176
     1
 41
-30.0
176
     1
 62
     5
 63
     7
421
 16777215
176
     1
 74
     1
176
     1
 91
        4
176
     1
 64
     7
176
     1
 65
   257
176
     1
 75
     1
176
     1
175
     1
176
     1
 42
1.0
176
     1
 92
        0
176
     1
 66
   257
176
     1
 43
1.0
176
     1
 76
     1
176
     1
 77
     6
176
     1
 78
     2
176
     1
 67
     7
176
     1
 79
     5
176
     1
170
     0
176
     1
171
     0
176
     1
290
     0
176
     1
 93
        1
176
     1
 44
0.0
176
     1
173
     0
176
     1
  0
VISUALSTYLE
  5
31
102
{ACAD_REACTORS
330
2A
102
}
330
2A
100
AcDbVisualStyle
  2
3D Hidden
 70
     6
177
     2
291
     0
 71
     1
176
     1
 72
     2
176
     1
 73
     2
176
     1
 90
        0
176
     1
 40
-0.6
176
     1
 41
-30.0
176
     1
 62
     5
 63
     7
421
 16777215
176
     1
 74
     2
176
     1
 91
        2
176
     1
 64
     7
176
     1
 65
   257
176
     1
 75
     2
176
     1
175
     1
176
     1
 42
40.0
176
     1
 92
        0
176
     1
 66
   257
176
     1
 43
1.0
176
     1
 76
     1
176
     1
 77
     6
176
     1
 78
     2
176
     1
 67
     7
176
     1
 79
     3
176
     1
170
     0
176
     1
171
     0
176
     1
290
     0
176
     1
 93
        1
176
     1
 44
0.0
176
     1
173
     0
176
     1
  0
VISUALSTYLE
  5
30
102
{ACAD_REACTORS
330
2A
102
}
330
2A
100
AcDbVisualStyle
  2
3dWireframe
 70
     5
177
     2
291
     0
 71
     0
176
     1
 72
     2
176
     1
 73
     0
176
     1
 90
        0
176
     1
 40
-0.6
176
     1
 41
-30.0
176
     1
 62
     5
 63
     7
421
 16777215
176
     1
 74
     1
176
     1
 91
        4
176
     1
 64
     7
176
     1
 65
   257
176
     1
 75
     1
176
     1
175
     1
176
     1
 42
1.0
176
     1
 92
        0
176
     1
 66
   257
176
     1
 43
1.0
176
     1
 76
     1
176
     1
 77
     6
176
     1
 78
     2
176
     1
 67
     7
176
     1
 79
     5
176
     1
170
     0
176
     1
171
     0
176
     1
290
     0
176
     1
 93
        1
176
     1
 44
0.0
176
     1
173
     0
176
     1
  0
VISUALSTYLE
  5
32
102
{ACAD_REACTORS
330
2A
102
}
330
2A
100
AcDbVisualStyle
  2
Basic
 70
     7
177
     2
291
     1
 71
     1
176
     1
 72
     0
176
     1
 73
     1
176
     1
 90
        0
176
     1
 40
-0.6
176
     1
 41
-30.0
176
     1
 62
     5
 63
     7
421
 16777215
176
     1
 74
     0
176
     1
 91
        4
176
     1
 64
     7
176
     1
 65
   257
176
     1
 75
     1
176
     1
175
     1
176
     1
 42
1.0
176
     1
 92
        8
176
     1
 66
     7
176
     1
 43
1.0
176
     1
 76
     1
176
     1
 77
     6
176
     1
 78
     2
176
     1
 67
     7
176
     1
 79
     5
176
     1
170
     0
176
     1
171
     0
176
     1
290
     0
176
     1
 93
        1
176
     1
 44
0.0
176
     1
173
     0
176
     1
  0
VISUALSTYLE
  5
36
102
{ACAD_REACTORS
330
2A
102
}
330
2A
100
AcDbVisualStyle
  2
Brighten
 70
    12
177
     2
291
     1
 71
     2
176
     1
 72
     2
176
     1
 73
     0
176
     1
 90
        0
176
     1
 40
-0.6
176
     1
 41
-30.0
176
     1
 62
     5
 63
     7
421
 16777215
176
     1
 74
     1
176
     1
 91
        4
176
     1
 64
     7
176
     1
 65
   257
176
     1
 75
     1
176
     1
175
     1
176
     1
 42
1.0
176
     1
 92
        8
176
     1
 66
     7
176
     1
 43
1.0
176
     1
 76
     1
176
     1
 77
     6
176
     1
 78
     2
176
     1
 67
     7
176
     1
 79
     5
176
     1
170
     0
176
     1
171
     0
176
     1
290
     0
176
     1
 93
        1
176
     1
 44
50.0
176
     1
173
     0
176
     1
  0
VISUALSTYLE
  5
3A
102
{ACAD_REACTORS
330
2A
102
}
330
2A
100
AcDbVisualStyle
  2
ColorChange
 70
    16
177
     2
291
     1
 71
     2
176
     1
 72
     2
176
     1
 73
     3
176
     1
 90
        0
176
     1
 40
-0.6
176
     1
 41
-30.0
176
     1
 62
     5
 63
     8
421
  8421504
176
     1
 74
     1
176
     1
 91
        4
176
     1
 64
     7
176
     1
 65
   257
176
     1
 75
     1
176
     1
175
     1
176
     1
 42
1.0
176
     1
 92
        8
176
     1
 66
     8
424
  8421504
176
     1
 43
1.0
176
     1
 76
     1
176
     1
 77
     6
176
     1
 78
     2
176
     1
 67
     7
176
     1
 79
     5
176
     1
170
     0
176
     1
171
     0
176
     1
290
     0
176
     1
 93
        1
176
     1
 44
0.0
176
     1
173
     0
176
     1
  0
VISUALSTYLE
  5
34
102
{ACAD_REACTORS
330
2A
102
}
330
2A
100
AcDbVisualStyle
  2
Conceptual
 70
     9
177
     2
291
     0
 71
     3
176
     1
 72
     2
176
     1
 73
     0
176
     1
 90
        0
176
     1
 40
-0.6
176
     1
 41
-30.0
176
     1
 62
     5
 63
     7
421
 16777215
176
     1
 74
     2
176
     1
 91
        2
176
     1
 64
     7
176
     1
 65
   257
176
     1
 75
     1
176
     1
175
     1
176
     1
 42
40.0
176
     1
 92
        8
176
     1
 66
     7
176
     1
 43
1.0
176
     1
 76
     1
176
     1
 77
     6
176
     1
 78
     2
176
     1
 67
     7
176
     1
 79
     3
176
     1
170
     0
176
     1
171
     0
176
     1
290
     0
176
     1
 93
        1
176
     1
 44
0.0
176
     1
173
     0
176
     1
  0
VISUALSTYLE
  5
35
102
{ACAD_REACTORS
330
2A
102
}
330
2A
100
AcDbVisualStyle
  2
Dim
 70
    11
177
     2
291
     1
 71
     2
176
     1
 72
     2
176
     1
 73
     0
176
     1
 90
        0
176
     1
 40
-0.6
176
     1
 41
-30.0
176
     1
 62
     5
 63
     7
421
 16777215
176
     1
 74
     1
176
     1
 91
        4
176
     1
 64
     7
176
     1
 65
   257
176
     1
 75
     1
176
     1
175
     1
176
     1
 42
1.0
176
     1
 92
        8
176
     1
 66
     7
176
     1
 43
1.0
176
     1
 76
     1
176
     1
 77
     6
176
     1
 78
     2
176
     1
 67
     7
176
     1
 79
     5
176
     1
170
     0
176
     1
171
     0
176
     1
290
     0
176
     1
 93
        1
176
     1
 44
-50.0
176
     1
173
     0
176
     1
  0
VISUALSTYLE
  5
39
102
{ACAD_REACTORS
330
2A
102
}
330
2A
100
AcDbVisualStyle
  2
Facepattern
 70
    15
177
     2
291
     1
 71
     2
176
     1
 72
     2
176
     1
 73
     0
176
     1
 90
        0
176
     1
 40
-0.6
176
     1
 41
-30.0
176
     1
 62
     5
 63
     7
421
 16777215
176
     1
 74
     1
176
     1
 91
        4
176
     1
 64
     7
176
     1
 65
   257
176
     1
 75
     1
176
     1
175
     1
176
     1
 42
1.0
176
     1
 92
        8
176
     1
 66
     7
176
     1
 43
1.0
176
     1
 76
     1
176
     1
 77
     6
176
     1
 78
     2
176
     1
 67
     7
176
     1
 79
     5
176
     1
170
     0
176
     1
171
     0
176
     1
290
     0
176
     1
 93
        1
176
     1
 44
0.0
176
     1
173
     0
176
     1
  0
VISUALSTYLE
  5
2B
102
{ACAD_REACTORS
330
2A
102
}
330
2A
100
AcDbVisualStyle
  2
Flat
 70
     0
177
     2
291
     1
 71
     2
176
     1
 72
     1
176
     1
 73
     1
176
     1
 90
        2
176
     1
 40
-0.6
176
     1
 41
30.0
176
     1
 62
     5
 63
     7
421
 16777215
176
     1
 74
     0
176
     1
 91
        4
176
     1
 64
     7
176
     1
 65
   257
176
     1
 75
     1
176
     1
175
     1
176
     1
 42
1.0
176
     1
 92
        8
176
     1
 66
     7
176
     1
 43
1.0
176
     1
 76
     1
176
     1
 77
     6
176
     1
 78
     2
176
     1
 67
     7
176
     1
 79
     5
176
     1
170
     0
176
     1
171
     0
176
     1
290
     0
176
     1
 93
       13
176
     1
 44
0.0
176
     1
173
     0
176
     1
  0
VISUALSTYLE
  5
2C
102
{ACAD_REACTORS
330
2A
102
}
330
2A
100
AcDbVisualStyle
  2
FlatWithEdges
 70
     1
177
     2
291
     1
 71
     2
176
     1
 72
     1
176
     1
 73
     1
176
     1
 90
        2
176
     1
 40
-0.6
176
     1
 41
30.0
176
     1
 62
     5
 63
     7
421
 16777215
176
     1
 74
     1
176
     1
 91
        4
176
     1
 64
     7
176
     1
 65
   257
176
     1
 75
     1
176
     1
175
     1
176
     1
 42
1.0
176
     1
 92
        0
176
     1
 66
   257
176
     1
 43
1.0
176
     1
 76
     1
176
     1
 77
     6
176
     1
 78
     2
176
     1
 67
     7
176
     1
 79
     5
176
     1
170
     0
176
     1
171
     0
176
     1
290
     0
176
     1
 93
       13
176
     1
 44
0.0
176
     1
173
     0
176
     1
  0
VISUALSTYLE
  5
2D
102
{ACAD_REACTORS
330
2A
102
}
330
2A
100
AcDbVisualStyle
  2
Gouraud
 70
     2
177
     2
291
     1
 71
     2
176
     1
 72
     2
176
     1
 73
     1
176
     1
 90
        2
176
     1
 40
-0.6
176
     1
 41
30.0
176
     1
 62
     5
 63
     7
421
 16777215
176
     1
 74
     0
176
     1
 91
        4
176
     1
 64
     7
176
     1
 65
   257
176
     1
 75
     1
176
     1
175
     1
176
     1
 42
1.0
176
     1
 92
        0
176
     1
 66
     7
176
     1
 43
1.0
176
     1
 76
     1
176
     1
 77
     6
176
     1
 78
     2
176
     1
 67
     7
176
     1
 79
     5
176
     1
170
     0
176
     1
171
     0
176
     1
290
     0
176
     1
 93
       13
176
     1
 44
0.0
176
     1
173
     0
176
     1
  0
VISUALSTYLE
  5
2E
102
{ACAD_REACTORS
330
2A
102
}
330
2A
100
AcDbVisualStyle
  2
GouraudWithEdges
 70
     3
177
     2
291
     1
 71
     2
176
     1
 72
     2
176
     1
 73
     1
176
     1
 90
        2
176
     1
 40
-0.6
176
     1
 41
30.0
176
     1
 62
     5
 63
     7
421
 16777215
176
     1
 74
     1
176
     1
 91
        4
176
     1
 64
     7
176
     1
 65
   257
176
     1
 75
     1
176
     1
175
     1
176
     1
 42
1.0
176
     1
 92
        0
176
     1
 66
   257
176
     1
 43
1.0
176
     1
 76
     1
176
     1
 77
     6
176
     1
 78
     2
176
     1
 67
     7
176
     1
 79
     5
176
     1
170
     0
176
     1
171
     0
176
     1
290
     0
176
     1
 93
       13
176
     1
 44
0.0
176
     1
173
     0
176
     1
  0
VISUALSTYLE
  5
38
102
{ACAD_REACTORS
330
2A
102
}
330
2A
100
AcDbVisualStyle
  2
Linepattern
 70
    14
177
     2
291
     1
 71
     2
176
     1
 72
     2
176
     1
 73
     0
176
     1
 90
        0
176
     1
 40
-0.6
176
     1
 41
-30.0
176
     1
 62
     5
 63
     7
421
 16777215
176
     1
 74
     1
176
     1
 91
        4
176
     1
 64
     7
176
     1
 65
   257
176
     1
 75
     7
176
     1
175
     7
176
     1
 42
1.0
176
     1
 92
        8
176
     1
 66
     7
176
     1
 43
1.0
176
     1
 76
     1
176
     1
 77
     6
176
     1
 78
     2
176
     1
 67
     7
176
     1
 79
     5
176
     1
170
     0
176
     1
171
     0
176
     1
290
     0
176
     1
 93
        1
176
     1
 44
0.0
176
     1
173
     0
176
     1
  0
VISUALSTYLE
  5
33
102
{ACAD_REACTORS
330
2A
102
}
330
2A
100
AcDbVisualStyle
  2
Realistic
 70
     8
177
     2
291
     0
 71
     2
176
     1
 72
     2
176
     1
 73
     0
176
     1
 90
        0
176
     1
 40
-0.6
176
     1
 41
-30.0
176
     1
 62
     5
 63
     7
421
 16777215
176
     1
 74
     1
176
     1
 91
        0
176
     1
 64
     7
176
     1
 65
   257
176
     1
 75
     1
176
     1
175
     1
176
     1
 42
1.0
176
     1
 92
        8
176
     1
 66
     8
424
  7895160
176
     1
 43
1.0
176
     1
 76
     1
176
     1
 77
     6
176
     1
 78
     2
176
     1
 67
     7
176
     1
 79
     5
176
     1
170
     0
176
     1
171
     0
176
     1
290
     0
176
     1
 93
       13
176
     1
 44
0.0
176
     1
173
     0
176
     1
  0
VISUALSTYLE
  5
37
102
{ACAD_REACTORS
330
2A
102
}
330
2A
100
AcDbVisualStyle
  2
Thicken
 70
    13
177
     2
291
     1
 71
     2
176
     1
 72
     2
176
     1
 73
     0
176
     1
 90
        0
176
     1
 40
-0.6
176
     1
 41
-30.0
176
     1
 62
     5
 63
     7
421
 16777215
176
     1
 74
     1
176
     1
 91
        4
176
     1
 64
     7
176
     1
 65
   257
176
     1
 75
     1
176
     1
175
     1
176
     1
 42
1.0
176
     1
 92
       12
176
     1
 66
     7
176
     1
 43
1.0
176
     1
 76
     1
176
     1
 77
     6
176
     1
 78
     2
176
     1
 67
     7
176
     1
 79
     5
176
     1
170
     0
176
     1
171
     0
176
     1
290
     0
176
     1
 93
        1
176
     1
 44
0.0
176
     1
173
     0
176
     1
  0
ENDSEC
  0
EOF
