  0
SECTION
  2
HEADER
  9
$ACADVER
  1
AC1024
  9
$ACADMAINTVER
 70
     6
  9
$DWGCODEPAGE
  3
ANSI_1252
  9
$INSBASE
 10
0.0
 20
0.0
 30
0.0
  9
$EXTMIN
 10
1.000000000000000E+20
 20
1.000000000000000E+20
 30
1.000000000000000E+20
  9
$EXTMAX
 10
-1.000000000000000E+20
 20
-1.000000000000000E+20
 30
-1.000000000000000E+20
  9
$LIMMIN
 10
0.0
 20
0.0
  9
$LIMMAX
 10
12.0
 20
9.0
  9
$ORTHOMODE
 70
     0
  9
$REGENMODE
 70
     1
  9
$FILLMODE
 70
     1
  9
$QTEXTMODE
 70
     0
  9
$MIRRTEXT
 70
     1
  9
$LTSCALE
 40
1.0
  9
$ATTMODE
 70
     1
  9
$TEXTSIZE
 40
0.2
  9
$TRACEWID
 40
0.05
  9
$TEXTSTYLE
  7
Standard
  9
$CLAYER
  8
0
  9
$CELTYPE
  6
ByLayer
  9
$CECOLOR
 62
   256
  9
$CELTSCALE
 40
1.0
  9
$DISPSILH
 70
     0
  9
$DIMSCALE
 40
1.0
  9
$DIMASZ
 40
0.18
  9
$DIMEXO
 40
0.0625
  9
$DIMDLI
 40
0.38
  9
$DIMRND
 40
0.0
  9
$DIMDLE
 40
0.0
  9
$DIMEXE
 40
0.18
  9
$DIMTP
 40
0.0
  9
$DIMTM
 40
0.0
  9
$DIMTXT
 40
0.18
  9
$DIMCEN
 40
0.09
  9
$DIMTSZ
 40
0.0
  9
$DIMTOL
 70
     0
  9
$DIMLIM
 70
     0
  9
$DIMTIH
 70
     1
  9
$DIMTOH
 70
     1
  9
$DIMSE1
 70
     0
  9
$DIMSE2
 70
     0
  9
$DIMTAD
 70
     0
  9
$DIMZIN
 70
     0
  9
$DIMBLK
  1

  9
$DIMASO
 70
     1
  9
$DIMSHO
 70
     1
  9
$DIMPOST
  1

  9
$DIMAPOST
  1

  9
$DIMALT
 70
     0
  9
$DIMALTD
 70
     2
  9
$DIMALTF
 40
25.4
  9
$DIMLFAC
 40
1.0
  9
$DIMTOFL
 70
     0
  9
$DIMTVP
 40
0.0
  9
$DIMTIX
 70
     0
  9
$DIMSOXD
 70
     0
  9
$DIMSAH
 70
     0
  9
$DIMBLK1
  1

  9
$DIMBLK2
  1

  9
$DIMSTYLE
  2
Standard
  9
$DIMCLRD
 70
     0
  9
$DIMCLRE
 70
     0
  9
$DIMCLRT
 70
     0
  9
$DIMTFAC
 40
1.0
  9
$DIMGAP
 40
0.09
  9
$DIMJUST
 70
     0
  9
$DIMSD1
 70
     0
  9
$DIMSD2
 70
     0
  9
$DIMTOLJ
 70
     1
  9
$DIMTZIN
 70
     0
  9
$DIMALTZ
 70
     0
  9
$DIMALTTZ
 70
     0
  9
$DIMUPT
 70
     0
  9
$DIMDEC
 70
     4
  9
$DIMTDEC
 70
     4
  9
$DIMALTU
 70
     2
  9
$DIMALTTD
 70
     2
  9
$DIMTXSTY
  7
Standard
  9
$DIMAUNIT
 70
     0
  9
$DIMADEC
 70
     0
  9
$DIMALTRND
 40
0.0
  9
$DIMAZIN
 70
     0
  9
$DIMDSEP
 70
    46
  9
$DIMATFIT
 70
     3
  9
$DIMFRAC
 70
     0
  9
$DIMLDRBLK
  1

  9
$DIMLUNIT
 70
     2
  9
$DIMLWD
 70
    -2
  9
$DIMLWE
 70
    -2
  9
$DIMTMOVE
 70
     0
  9
$DIMFXL
 40
1.0
  9
$DIMFXLON
 70
     0
  9
$DIMJOGANG
 40
0.7853981633974483
  9
$DIMTFILL
 70
     0
  9
$DIMTFILLCLR
 70
     0
  9
$DIMARCSYM
 70
     0
  9
$DIMLTYPE
  6

  9
$DIMLTEX1
  6

  9
$DIMLTEX2
  6

  9
$DIMTXTDIRECTION
 70
     0
  9
$LUNITS
 70
     2
  9
$LUPREC
 70
     4
  9
$SKETCHINC
 40
0.1
  9
$FILLETRAD
 40
0.5
  9
$AUNITS
 70
     0
  9
$AUPREC
 70
     0
  9
$MENU
  1
.
  9
$ELEVATION
 40
0.0
  9
$PELEVATION
 40
0.0
  9
$THICKNESS
 40
0.0
  9
$LIMCHECK
 70
     0
  9
$CHAMFERA
 40
0.5
  9
$CHAMFERB
 40
0.5
  9
$CHAMFERC
 40
1.0
  9
$CHAMFERD
 40
0.0
  9
$SKPOLY
 70
     0
  9
$TDCREATE
 40
2459964.582022477
  9
$TDUCREATE
 40
2459964.54035581
  9
$TDUPDATE
 40
2459964.582022558
  9
$TDUUPDATE
 40
2459964.540355891
  9
$TDINDWG
 40
0.0000000116
  9
$TDUSRTIMER
 40
0.0000000116
  9
$USRTIMER
 70
     1
  9
$ANGBASE
 50
0.0
  9
$ANGDIR
 70
     0
  9
$PDMODE
 70
     0
  9
$PDSIZE
 40
0.0
  9
$PLINEWID
 40
0.0
  9
$SPLFRAME
 70
     0
  9
$SPLINETYPE
 70
     6
  9
$SPLINESEGS
 70
     8
  9
$HANDSEED
  5
C1
  9
$SURFTAB1
 70
     6
  9
$SURFTAB2
 70
     6
  9
$SURFTYPE
 70
     6
  9
$SURFU
 70
     6
  9
$SURFV
 70
     6
  9
$UCSBASE
  2

  9
$UCSNAME
  2

  9
$UCSORG
 10
0.0
 20
0.0
 30
0.0
  9
$UCSXDIR
 10
1.0
 20
0.0
 30
0.0
  9
$UCSYDIR
 10
0.0
 20
1.0
 30
0.0
  9
$UCSORTHOREF
  2

  9
$UCSORTHOVIEW
 70
     0
  9
$UCSORGTOP
 10
0.0
 20
0.0
 30
0.0
  9
$UCSORGBOTTOM
 10
0.0
 20
0.0
 30
0.0
  9
$UCSORGLEFT
 10
0.0
 20
0.0
 30
0.0
  9
$UCSORGRIGHT
 10
0.0
 20
0.0
 30
0.0
  9
$UCSORGFRONT
 10
0.0
 20
0.0
 30
0.0
  9
$UCSORGBACK
 10
0.0
 20
0.0
 30
0.0
  9
$PUCSBASE
  2

  9
$PUCSNAME
  2

  9
$PUCSORG
 10
0.0
 20
0.0
 30
0.0
  9
$PUCSXDIR
 10
1.0
 20
0.0
 30
0.0
  9
$PUCSYDIR
 10
0.0
 20
1.0
 30
0.0
  9
$PUCSORTHOREF
  2

  9
$PUCSORTHOVIEW
 70
     0
  9
$PUCSORGTOP
 10
0.0
 20
0.0
 30
0.0
  9
$PUCSORGBOTTOM
 10
0.0
 20
0.0
 30
0.0
  9
$PUCSORGLEFT
 10
0.0
 20
0.0
 30
0.0
  9
$PUCSORGRIGHT
 10
0.0
 20
0.0
 30
0.0
  9
$PUCSORGFRONT
 10
0.0
 20
0.0
 30
0.0
  9
$PUCSORGBACK
 10
0.0
 20
0.0
 30
0.0
  9
$USERI1
 70
     0
  9
$USERI2
 70
     0
  9
$USERI3
 70
     0
  9
$USERI4
 70
     0
  9
$USERI5
 70
     0
  9
$USERR1
 40
0.0
  9
$USERR2
 40
0.0
  9
$USERR3
 40
0.0
  9
$USERR4
 40
0.0
  9
$USERR5
 40
0.0
  9
$WORLDVIEW
 70
     1
  9
$SHADEDGE
 70
     3
  9
$SHADEDIF
 70
    70
  9
$TILEMODE
 70
     1
  9
$MAXACTVP
 70
    64
  9
$PINSBASE
 10
0.0
 20
0.0
 30
0.0
  9
$PLIMCHECK
 70
     0
  9
$PEXTMIN
 10
1.000000000000000E+20
 20
1.000000000000000E+20
 30
1.000000000000000E+20
  9
$PEXTMAX
 10
-1.000000000000000E+20
 20
-1.000000000000000E+20
 30
-1.000000000000000E+20
  9
$PLIMMIN
 10
0.0
 20
0.0
  9
$PLIMMAX
 10
12.0
 20
9.0
  9
$UNITMODE
 70
     0
  9
$VISRETAIN
 70
     1
  9
$PLINEGEN
 70
     0
  9
$PSLTSCALE
 70
     1
  9
$TREEDEPTH
 70
  3020
  9
$CMLSTYLE
  2
Standard
  9
$CMLJUST
 70
     0
  9
$CMLSCALE
 40
1.0
  9
$PROXYGRAPHICS
 70
     1
  9
$MEASUREMENT
 70
     0
  9
$CELWEIGHT
370
    -1
  9
$ENDCAPS
280
     0
  9
$JOINSTYLE
280
     0
  9
$LWDISPLAY
290
     1
  9
$INSUNITS
 70
     1
  9
$HYPERLINKBASE
  1

  9
$STYLESHEET
  1

  9
$XEDIT
290
     1
  9
$CEPSNTYPE
380
     0
  9
$PSTYLEMODE
290
     1
  9
$FINGERPRINTGUID
  2
{F21987D5-9A54-4CCE-9B6A-841537C3880F}
  9
$VERSIONGUID
  2
{FAEB1C32-E019-11D5-929B-00C0DF256EC4}
  9
$EXTNAMES
290
     1
  9
$PSVPSCALE
 40
0.0
  9
$OLESTARTUP
290
     0
  9
$SORTENTS
280
   127
  9
$INDEXCTL
280
     0
  9
$HIDETEXT
280
     1
  9
$XCLIPFRAME
280
     2
  9
$HALOGAP
280
     0
  9
$OBSCOLOR
 70
   257
  9
$OBSLTYPE
280
     0
  9
$INTERSECTIONDISPLAY
280
     0
  9
$INTERSECTIONCOLOR
 70
   257
  9
$DIMASSOC
280
     2
  9
$PROJECTNAME
  1

  9
$CAMERADISPLAY
290
     0
  9
$LENSLENGTH
 40
50.0
  9
$CAMERAHEIGHT
 40
0.0
  9
$STEPSPERSEC
 40
2.0
  9
$STEPSIZE
 40
6.0
  9
$3DDWFPREC
 40
2.0
  9
$PSOLWIDTH
 40
0.25
  9
$PSOLHEIGHT
 40
4.0
  9
$LOFTANG1
 40
1.570796326794897
  9
$LOFTANG2
 40
1.570796326794897
  9
$LOFTMAG1
 40
0.0
  9
$LOFTMAG2
 40
0.0
  9
$LOFTPARAM
 70
     7
  9
$LOFTNORMALS
280
     1
  9
$LATITUDE
 40
37.795
  9
$LONGITUDE
 40
-122.394
  9
$NORTHDIRECTION
 40
0.0
  9
$TIMEZONE
 70
 -8000
  9
$LIGHTGLYPHDISPLAY
280
     1
  9
$TILEMODELIGHTSYNCH
280
     1
  9
$CMATERIAL
347
3C
  9
$SOLIDHIST
280
     1
  9
$SHOWHIST
280
     1
  9
$DWFFRAME
280
     2
  9
$DGNFRAME
280
     2
  9
$REALWORLDSCALE
290
     1
  9
$INTERFERECOLOR
 62
   256
  9
$CSHADOW
280
     0
  9
$SHADOWPLANELOCATION
 40
0.0
  0
ENDSEC
  0
SECTION
  2
CLASSES
  0
CLASS
  1
ACDBDICTIONARYWDFLT
  2
AcDbDictionaryWithDefault
  3
ObjectDBX Classes
 90
        0
 91
        4
280
     0
281
     0
  0
CLASS
  1
VISUALSTYLE
  2
AcDbVisualStyle
  3
ObjectDBX Classes
 90
     4095
 91
        4
280
     0
281
     0
  0
CLASS
  1
MATERIAL
  2
AcDbMaterial
  3
ObjectDBX Classes
 90
     1153
 91
        4
280
     0
281
     0
  0
CLASS
  1
SUN
  2
AcDbSun
  3
SCENEOE
 90
     1024
 91
        4
280
     0
281
     0
  0
ENDSEC
  0
SECTION
  2
TABLES
  0
TABLE
  2
VPORT
  5
8
330
0
100
AcDbSymbolTable
 70
     1
  0
VPORT
  5
29
330
8
100
AcDbSymbolTableRecord
100
AcDbViewportTableRecord
  2
*Active
 70
     0
 10
0.0
 20
0.0
 11
1.0
 21
1.0
 12
0.0
 22
0.0
 13
0.0
 23
0.0
 14
0.5
 24
0.5
 15
0.5
 25
0.5
 16
0.0
 26
0.0
 36
1.0
 17
12.50068055243053
 27
-12.50068055243053
 37
0.0
 40
25.00136110486105
 41
1.0
 42
50.0
 43
0.0
 44
0.0
 50
0.0
 51
0.0
 71
     0
 72
   100
 73
     1
 74
     3
 75
     0
 76
     0
 77
     0
 78
     0
281
     0
 65
     1
110
0.0
120
0.0
130
0.0
111
1.0
121
0.0
131
0.0
112
0.0
122
1.0
132
0.0
 79
     0
146
0.0
 60
     3
 61
     5
292
     1
282
     1
141
0.0
142
0.0
 63
   250
361
3F
  0
ENDTAB
  0
TABLE
  2
LTYPE
  5
5
330
0
100
AcDbSymbolTable
 70
     1
  0
LTYPE
  5
14
330
5
100
AcDbSymbolTableRecord
100
AcDbLinetypeTableRecord
  2
ByBlock
 70
     0
  3

 72
    65
 73
     0
 40
0.0
  0
LTYPE
  5
15
330
5
100
AcDbSymbolTableRecord
100
AcDbLinetypeTableRecord
  2
ByLayer
 70
     0
  3

 72
    65
 73
     0
 40
0.0
  0
LTYPE
  5
16
330
5
100
AcDbSymbolTableRecord
100
AcDbLinetypeTableRecord
  2
Continuous
 70
     0
  3
Solid line
 72
    65
 73
     0
 40
0.0
  0
ENDTAB
  0
TABLE
  2
LAYER
  5
2
330
0
100
AcDbSymbolTable
 70
     3
  0
LAYER
  5
10
330
2
100
AcDbSymbolTableRecord
100
AcDbLayerTableRecord
  2
0
 70
     0
 62
     7
  6
Continuous
370
    -3
390
F
347
3E
  0
LAYER
  5
40
330
2
100
AcDbSymbolTableRecord
100
AcDbLayerTableRecord
  2
Dial
 70
     0
 62
     7
  6
Continuous
370
    -3
390
F
347
3E
  0
LAYER
  5
B4
330
2
100
AcDbSymbolTableRecord
100
AcDbLayerTableRecord
  2
Icons
 70
     0
 62
     7
  6
Continuous
370
    -3
390
F
347
3E
  0
ENDTAB
  0
TABLE
  2
STYLE
  5
3
330
0
100
AcDbSymbolTable
 70
     1
  0
STYLE
  5
11
330
3
100
AcDbSymbolTableRecord
100
AcDbTextStyleTableRecord
  2
Standard
 70
     0
 40
0.0
 41
1.0
 50
0.0
 71
     0
 42
0.2
  3
txt
  4

  0
ENDTAB
  0
TABLE
  2
VIEW
  5
6
330
0
100
AcDbSymbolTable
 70
     0
  0
ENDTAB
  0
TABLE
  2
UCS
  5
7
330
0
100
AcDbSymbolTable
 70
     0
  0
ENDTAB
  0
TABLE
  2
APPID
  5
9
330
0
100
AcDbSymbolTable
 70
     1
  0
APPID
  5
12
330
9
100
AcDbSymbolTableRecord
100
AcDbRegAppTableRecord
  2
ACAD
 70
     0
  0
ENDTAB
  0
TABLE
  2
DIMSTYLE
  5
A
330
0
100
AcDbSymbolTable
 70
     1
100
AcDbDimStyleTable
  0
DIMSTYLE
105
27
330
A
100
AcDbSymbolTableRecord
100
AcDbDimStyleTableRecord
  2
Standard
 70
     0
178
     0
340
11
  0
ENDTAB
  0
TABLE
  2
BLOCK_RECORD
  5
1
330
0
100
AcDbSymbolTable
 70
     3
  0
BLOCK_RECORD
  5
1F
330
1
100
AcDbSymbolTableRecord
100
AcDbBlockTableRecord
  2
*Model_Space
340
22
 70
     0
280
     1
281
     0
  0
BLOCK_RECORD
  5
1B
330
1
100
AcDbSymbolTableRecord
100
AcDbBlockTableRecord
  2
*Paper_Space
340
1E
 70
     0
280
     1
281
     0
  0
BLOCK_RECORD
  5
23
330
1
100
AcDbSymbolTableRecord
100
AcDbBlockTableRecord
  2
*Paper_Space0
340
26
 70
     0
280
     1
281
     0
  0
BLOCK_RECORD
  5
42
330
1
100
AcDbSymbolTableRecord
100
AcDbBlockTableRecord
  2
block 2
340
0
102
{BLKREFS
331
43
102
}
 70
     0
280
     1
281
     0
  0
BLOCK_RECORD
  5
6F
330
1
100
AcDbSymbolTableRecord
100
AcDbBlockTableRecord
  2
block 3
340
0
102
{BLKREFS
331
70
102
}
 70
     0
280
     1
281
     0
  0
ENDTAB
  0
ENDSEC
  0
SECTION
  2
BLOCKS
  0
BLOCK
  5
20
330
1F
100
AcDbEntity
  8
0
100
AcDbBlockBegin
  2
*Model_Space
 70
     0
 10
0.0
 20
0.0
 30
0.0
  3
*Model_Space
  1

  0
ENDBLK
  5
21
330
1F
100
AcDbEntity
  8
0
100
AcDbBlockEnd
  0
BLOCK
  5
1C
330
1B
100
AcDbEntity
 67
     1
  8
0
100
AcDbBlockBegin
  2
*Paper_Space
 70
     0
 10
0.0
 20
0.0
 30
0.0
  3
*Paper_Space
  1

  0
ENDBLK
  5
1D
330
1B
100
AcDbEntity
 67
     1
  8
0
100
AcDbBlockEnd
  0
BLOCK
  5
24
330
23
100
AcDbEntity
  8
0
100
AcDbBlockBegin
  2
*Paper_Space0
 70
     0
 10
0.0
 20
0.0
 30
0.0
  3
*Paper_Space0
  1

  0
ENDBLK
  5
25
330
23
100
AcDbEntity
  8
0
100
AcDbBlockEnd
  0
BLOCK
  5
44
330
42
100
AcDbEntity
  8
0
100
AcDbBlockBegin
  2
block 2
 70
     0
 10
0.0
 20
0.0
 30
0.0
  3
block 2
  1

  0
POLYLINE
  5
46
330
42
100
AcDbEntity
  8
Dial
 62
   250
420
  2301728
370
     9
100
AcDb2dPolyline
 66
     1
 10
0.0
 20
0.0
 30
0.0
  0
VERTEX
  5
47
330
46
100
AcDbEntity
  8
Dial
 62
   250
420
  2301728
370
     9
100
AcDbVertex
100
AcDb2dVertex
 10
15.85553819964145
 20
-2.272607775642283
 30
0.0
  0
VERTEX
  5
48
330
46
100
AcDbEntity
  8
Dial
 62
   250
420
  2301728
370
     9
100
AcDbVertex
100
AcDb2dVertex
 10
13.74411756246795
 20
-8.703407864040232
 30
0.0
  0
SEQEND
  5
49
330
46
100
AcDbEntity
  8
Dial
 62
   250
420
  2301728
370
     9
  0
POLYLINE
  5
4A
330
42
100
AcDbEntity
  8
Dial
 62
   250
420
  2301728
370
     9
100
AcDb2dPolyline
 66
     1
 10
0.0
 20
0.0
 30
0.0
  0
VERTEX
  5
4B
330
4A
100
AcDbEntity
  8
Dial
 62
   250
420
  2301728
370
     9
100
AcDbVertex
100
AcDb2dVertex
 10
11.26935494184159
 20
-8.699381063734336
 30
0.0
  0
VERTEX
  5
4C
330
4A
100
AcDbEntity
  8
Dial
 62
   250
420
  2301728
370
     9
100
AcDbVertex
100
AcDb2dVertex
 10
9.186194236713588
 20
-2.260527374724913
 30
0.0
  0
SEQEND
  5
4D
330
4A
100
AcDbEntity
  8
Dial
 62
   250
420
  2301728
370
     9
  0
POLYLINE
  5
4E
330
42
100
AcDbEntity
  8
Dial
 62
   250
420
  2301728
370
     9
100
AcDb2dPolyline
 66
     1
 10
0.0
 20
0.0
 30
0.0
  0
VERTEX
  5
4F
330
4E
100
AcDbEntity
  8
Dial
 62
   250
420
  2301728
370
     9
100
AcDbVertex
100
AcDb2dVertex
 10
9.266936899702825
 20
-10.14902917383051
 30
0.0
  0
VERTEX
  5
50
330
4E
100
AcDbEntity
  8
Dial
 62
   250
420
  2301728
370
     9
100
AcDbVertex
100
AcDb2dVertex
 10
3.784510082719149
 20
-6.158470070760701
 30
0.0
  0
SEQEND
  5
51
330
4E
100
AcDbEntity
  8
Dial
 62
   250
420
  2301728
370
     9
  0
POLYLINE
  5
52
330
42
100
AcDbEntity
  8
Dial
 62
   250
420
  2301728
370
     9
100
AcDb2dPolyline
 66
     1
 10
0.0
 20
0.0
 30
0.0
  0
VERTEX
  5
53
330
52
100
AcDbEntity
  8
Dial
 62
   250
420
  2301728
370
     9
100
AcDbVertex
100
AcDb2dVertex
 10
8.49584446815364
 20
-12.49262695181873
 30
0.0
  0
VERTEX
  5
54
330
52
100
AcDbEntity
  8
Dial
 62
   250
420
  2301728
370
     9
100
AcDbVertex
100
AcDb2dVertex
 10
1.713460777039628
 20
-12.48054655090169
 30
0.0
  0
SEQEND
  5
55
330
52
100
AcDbEntity
  8
Dial
 62
   250
420
  2301728
370
     9
  0
POLYLINE
  5
56
330
42
100
AcDbEntity
  8
Dial
 62
   250
420
  2301728
370
     9
100
AcDb2dPolyline
 66
     1
 10
0.0
 20
0.0
 30
0.0
  0
VERTEX
  5
57
330
56
100
AcDbEntity
  8
Dial
 62
   250
420
  2301728
370
     9
100
AcDbVertex
100
AcDb2dVertex
 10
9.258862633404158
 20
-14.84025153011254
 30
0.0
  0
VERTEX
  5
58
330
56
100
AcDbEntity
  8
Dial
 62
   250
420
  2301728
370
     9
100
AcDbVertex
100
AcDb2dVertex
 10
3.760287283821865
 20
-18.80664983134825
 30
0.0
  0
SEQEND
  5
59
330
56
100
AcDbEntity
  8
Dial
 62
   250
420
  2301728
370
     9
  0
POLYLINE
  5
5A
330
42
100
AcDbEntity
  8
Dial
 62
   250
420
  2301728
370
     9
100
AcDb2dPolyline
 66
     1
 10
0.0
 20
0.0
 30
0.0
  0
VERTEX
  5
5B
330
5A
100
AcDbEntity
  8
Dial
 62
   250
420
  2301728
370
     9
100
AcDbVertex
100
AcDb2dVertex
 10
11.25724354239311
 20
-16.29795324082146
 30
0.0
  0
VERTEX
  5
5C
330
5A
100
AcDbEntity
  8
Dial
 62
   250
420
  2301728
370
     9
100
AcDbVertex
100
AcDb2dVertex
 10
9.145822905218647
 20
-22.72875332921781
 30
0.0
  0
SEQEND
  5
5D
330
5A
100
AcDbEntity
  8
Dial
 62
   250
420
  2301728
370
     9
  0
POLYLINE
  5
5E
330
42
100
AcDbEntity
  8
Dial
 62
   250
420
  2301728
370
     9
100
AcDb2dPolyline
 66
     1
 10
0.0
 20
0.0
 30
0.0
  0
VERTEX
  5
5F
330
5E
100
AcDbEntity
  8
Dial
 62
   250
420
  2301728
370
     9
100
AcDbVertex
100
AcDb2dVertex
 10
15.81516686814779
 20
-22.74083373013678
 30
0.0
  0
VERTEX
  5
60
330
5E
100
AcDbEntity
  8
Dial
 62
   250
420
  2301728
370
     9
100
AcDbVertex
100
AcDb2dVertex
 10
13.73200616301978
 20
-16.30198004112672
 30
0.0
  0
SEQEND
  5
61
330
5E
100
AcDbEntity
  8
Dial
 62
   250
420
  2301728
370
     9
  0
POLYLINE
  5
62
330
42
100
AcDbEntity
  8
Dial
 62
   250
420
  2301728
370
     9
100
AcDb2dPolyline
 66
     1
 10
0.0
 20
0.0
 30
0.0
  0
VERTEX
  5
63
330
62
100
AcDbEntity
  8
Dial
 62
   250
420
  2301728
370
     9
100
AcDbVertex
100
AcDb2dVertex
 10
21.21685102214255
 20
-18.84289103410067
 30
0.0
  0
VERTEX
  5
64
330
62
100
AcDbEntity
  8
Dial
 62
   250
420
  2301728
370
     9
100
AcDbVertex
100
AcDb2dVertex
 10
15.73442420515791
 20
-14.85233193103087
 30
0.0
  0
SEQEND
  5
65
330
62
100
AcDbEntity
  8
Dial
 62
   250
420
  2301728
370
     9
  0
POLYLINE
  5
66
330
42
100
AcDbEntity
  8
Dial
 62
   250
420
  2301728
370
     9
100
AcDb2dPolyline
 66
     1
 10
0.0
 20
0.0
 30
0.0
  0
VERTEX
  5
67
330
66
100
AcDbEntity
  8
Dial
 62
   250
420
  2301728
370
     9
100
AcDbVertex
100
AcDb2dVertex
 10
23.28790032782111
 20
-12.52081455395937
 30
0.0
  0
VERTEX
  5
68
330
66
100
AcDbEntity
  8
Dial
 62
   250
420
  2301728
370
     9
100
AcDbVertex
100
AcDb2dVertex
 10
16.50551663670709
 20
-12.50873415304232
 30
0.0
  0
SEQEND
  5
69
330
66
100
AcDbEntity
  8
Dial
 62
   250
420
  2301728
370
     9
  0
POLYLINE
  5
6A
330
42
100
AcDbEntity
  8
Dial
 62
   250
420
  2301728
370
     9
100
AcDb2dPolyline
 66
     1
 10
0.0
 20
0.0
 30
0.0
  0
VERTEX
  5
6B
330
6A
100
AcDbEntity
  8
Dial
 62
   250
420
  2301728
370
     9
100
AcDbVertex
100
AcDb2dVertex
 10
21.24107382103823
 20
-6.19471127351345
 30
0.0
  0
VERTEX
  5
6C
330
6A
100
AcDbEntity
  8
Dial
 62
   250
420
  2301728
370
     9
100
AcDbVertex
100
AcDb2dVertex
 10
15.7424984714569
 20
-10.16110957474755
 30
0.0
  0
SEQEND
  5
6D
330
6A
100
AcDbEntity
  8
Dial
 62
   250
420
  2301728
370
     9
  0
SPLINE
  5
6E
330
42
100
AcDbEntity
  8
Dial
 62
   250
420
  2301728
370
     9
100
AcDbSpline
210
0.0
220
0.0
230
1.0
 70
    11
 71
     3
 72
    41
 73
    37
 74
     0
 42
0.0000000001
 43
0.0000000001
 12
1.0
 22
0.0
 32
0.0
 13
1.0
 23
0.0
 33
0.0
 40
0.0
 40
0.0
 40
0.0
 40
0.0
 40
1.0
 40
1.0
 40
1.0
 40
2.0
 40
2.0
 40
2.0
 40
3.0
 40
3.0
 40
3.0
 40
4.0
 40
4.0
 40
4.0
 40
5.0
 40
5.0
 40
5.0
 40
6.0
 40
6.0
 40
6.0
 40
7.0
 40
7.0
 40
7.0
 40
8.0
 40
8.0
 40
8.0
 40
9.0
 40
9.0
 40
9.0
 40
10.0
 40
10.0
 40
10.0
 40
11.0
 40
11.0
 40
11.0
 40
12.0
 40
12.0
 40
12.0
 40
12.0
 10
16.50550678042546
 20
-12.5087390685699
 30
0.0
 10
16.50550678042546
 20
-12.91542525424173
 30
0.0
 10
16.44092349194438
 20
-13.33422821573606
 30
0.0
 10
16.30769119861413
 20
-13.74093897904612
 30
0.0
 10
16.17448354598924
 20
-14.15165589744571
 30
0.0
 10
15.98068439913526
 20
-14.52213922148134
 30
0.0
 10
15.73442519078646
 20
-14.85231521823671
 30
0.0
 10
15.2378656984274
 20
-15.54090691848198
 30
0.0
 10
14.52732632160739
 20
-16.04425695671008
 30
0.0
 10
13.73199827799396
 20
-16.30197807491594
 30
0.0
 10
12.95283453703079
 20
-16.55163772766563
 30
0.0
 10
12.09292320493628
 20
-16.57176681366689
 30
0.0
 10
11.25723368611083
 20
-16.29794734218785
 30
0.0
 10
10.41752773232835
 20
-16.02412787070882
 30
0.0
 10
9.735251244439159
 20
-15.50064874647946
 30
0.0
 10
9.258872489686114
 20
-14.84024759769099
 30
0.0
 10
8.76632943228345
 20
-14.16374809562998
 30
0.0
 10
8.491807335004145
 20
-13.34226510355369
 30
0.0
 10
8.495848410666229
 20
-12.49261613765786
 30
0.0
 10
8.495848410666229
 20
-12.08590537434781
 30
0.0
 10
8.56043169914763
 20
-11.66712699049203
 30
0.0
 10
8.693663992477562
 20
-11.26041622718197
 30
0.0
 10
8.826896285807818
 20
-10.8496747311435
 30
0.0
 10
9.020670791956746
 20
-10.47921598474675
 30
0.0
 10
9.266930000305232
 20
-10.14901541035283
 30
0.0
 10
9.763514133369979
 20
-9.460448287745786
 30
0.0
 10
10.47402886948494
 20
-8.957098249518006
 30
0.0
 10
11.26935691309772
 20
-8.699377131312142
 30
0.0
 10
12.04852065406122
 20
-8.449717478562459
 30
0.0
 10
12.9084319861554
 20
-8.429588392560877
 30
0.0
 10
13.7441215049815
 20
-8.703407864040232
 30
0.0
 10
14.58385209946903
 20
-8.977227335519588
 30
0.0
 10
15.2661285873579
 20
-9.500706459748628
 30
0.0
 10
15.74250734211127
 20
-10.16110760853678
 30
0.0
 10
16.23502575880824
 20
-10.8376071105981
 30
0.0
 10
16.50954785608754
 20
-11.65906552503617
 30
0.0
 10
16.50550678042546
 20
-12.5087390685699
 30
0.0
  0
ENDBLK
  5
45
330
42
100
AcDbEntity
  8
0
100
AcDbBlockEnd
  0
BLOCK
  5
71
330
6F
100
AcDbEntity
  8
0
100
AcDbBlockBegin
  2
block 3
 70
     0
 10
0.0
 20
0.0
 30
0.0
  3
block 3
  1

  0
SPLINE
  5
73
330
6F
100
AcDbEntity
  8
Dial
370
     0
100
AcDbSpline
210
0.0
220
0.0
230
1.0
 70
    11
 71
     3
 72
    23
 73
    19
 74
     0
 42
0.0000000001
 43
0.0000000001
 12
1.0
 22
0.0
 32
0.0
 13
1.0
 23
0.0
 33
0.0
 40
0.0
 40
0.0
 40
0.0
 40
0.0
 40
1.0
 40
1.0
 40
1.0
 40
2.0
 40
2.0
 40
2.0
 40
3.0
 40
3.0
 40
3.0
 40
4.0
 40
4.0
 40
4.0
 40
5.0
 40
5.0
 40
5.0
 40
6.0
 40
6.0
 40
6.0
 40
6.0
 10
13.37868380741922
 20
-6.615616860325263
 30
0.0
 10
13.37696125967659
 20
-7.217819551146935
 30
0.0
 10
13.07861599065396
 20
-7.517887367912195
 30
0.0
 10
12.48226996215721
 20
-7.515820310621045
 30
0.0
 10
11.88764648140309
 20
-7.513925508104158
 30
0.0
 10
11.59102376012308
 20
-7.21196288882201
 30
0.0
 10
11.59240179831718
 20
-6.609587943226075
 30
0.0
 10
11.59240179831718
 20
-6.609587943226075
 30
0.0
 10
11.5996364988362
 20
-3.618211533383642
 30
0.0
 10
11.5996364988362
 20
-3.618211533383642
 30
0.0
 10
11.6010145370303
 20
-3.014114040045083
 30
0.0
 10
11.89901529650441
 20
-2.713012694634247
 30
0.0
 10
12.49363877725854
 20
-2.715079751925397
 30
0.0
 10
13.08964029620676
 20
-2.717146809216547
 30
0.0
 10
13.38729654613234
 20
-3.019626192821482
 30
0.0
 10
13.38557399838972
 20
-3.623895940934304
 30
0.0
 10
13.38557399838972
 20
-3.623895940934304
 30
0.0
 10
13.37868380741922
 20
-6.615616860325263
 30
0.0
 10
13.37868380741922
 20
-6.615616860325263
 30
0.0
  0
SPLINE
  5
74
330
6F
100
AcDbEntity
  8
Dial
370
     0
100
AcDbSpline
210
0.0
220
0.0
230
1.0
 70
    11
 71
     3
 72
    26
 73
    22
 74
     0
 42
0.0000000001
 43
0.0000000001
 12
1.0
 22
0.0
 32
0.0
 13
1.0
 23
0.0
 33
0.0
 40
0.0
 40
0.0
 40
0.0
 40
0.0
 40
1.0
 40
1.0
 40
1.0
 40
2.0
 40
2.0
 40
2.0
 40
3.0
 40
3.0
 40
3.0
 40
4.0
 40
4.0
 40
4.0
 40
5.0
 40
5.0
 40
5.0
 40
6.0
 40
6.0
 40
6.0
 40
7.0
 40
7.0
 40
7.0
 40
7.0
 10
12.92427571291477
 20
-3.622173393191679
 30
0.0
 10
12.92530924156034
 20
-3.320383028683793
 30
0.0
 10
12.78199326937395
 20
-3.168626572558538
 30
0.0
 10
12.49501681545263
 20
-3.167765298687225
 30
0.0
 10
12.49501681545263
 20
-3.167765298687225
 30
0.0
 10
12.49036593654755
 20
-3.167765298687225
 30
0.0
 10
12.49036593654755
 20
-3.167765298687225
 30
0.0
 10
12.2049397755946
 20
-3.167076279590176
 30
0.0
 10
12.0616238034082
 20
-3.317454697521331
 30
0.0
 10
12.06110703908542
 20
-3.619417316803479
 30
0.0
 10
12.06110703908542
 20
-3.619417316803479
 30
0.0
 10
12.05387233856639
 20
-6.610793726645913
 30
0.0
 10
12.05387233856639
 20
-6.610793726645913
 30
0.0
 10
12.05301106469508
 20
-6.912928600702323
 30
0.0
 10
12.19615478210721
 20
-7.064512802053317
 30
0.0
 10
12.48330349080279
 20
-7.065374075924629
 30
0.0
 10
12.7716579829182
 20
-7.066235349795941
 30
0.0
 10
12.91669650284721
 20
-6.915856931864786
 30
0.0
 10
12.91738552194427
 20
-6.613894312582638
 30
0.0
 10
12.91738552194427
 20
-6.613894312582638
 30
0.0
 10
12.92427571291477
 20
-3.622173393191679
 30
0.0
 10
12.92427571291477
 20
-3.622173393191679
 30
0.0
  0
HATCH
  5
75
330
6F
100
AcDbEntity
  8
Dial
 62
   250
420
  2301728
100
AcDbHatch
 10
0.0
 20
0.0
 30
0.0
210
0.0
220
0.0
230
1.0
  2
SOLID
 70
     1
 71
     0
 91
        2
 92
        1
 93
        1
 72
     4
 94
        3
 73
     0
 74
     1
 95
       23
 96
       19
 40
0.0
 40
0.0
 40
0.0
 40
0.0
 40
1.0
 40
1.0
 40
1.0
 40
2.0
 40
2.0
 40
2.0
 40
3.0
 40
3.0
 40
3.0
 40
4.0
 40
4.0
 40
4.0
 40
5.0
 40
5.0
 40
5.0
 40
6.0
 40
6.0
 40
6.0
 40
6.0
 10
13.37868380741922
 20
-6.615616860325263
 10
13.37696125967659
 20
-7.217819551146935
 10
13.07861599065396
 20
-7.517887367912195
 10
12.48226996215721
 20
-7.515820310621045
 10
11.88764648140309
 20
-7.513925508104158
 10
11.59102376012308
 20
-7.21196288882201
 10
11.59240179831718
 20
-6.609587943226075
 10
11.59240179831718
 20
-6.609587943226075
 10
11.5996364988362
 20
-3.618211533383642
 10
11.5996364988362
 20
-3.618211533383642
 10
11.6010145370303
 20
-3.014114040045083
 10
11.89901529650441
 20
-2.713012694634247
 10
12.49363877725854
 20
-2.715079751925397
 10
13.08964029620676
 20
-2.717146809216547
 10
13.38729654613234
 20
-3.019626192821482
 10
13.38557399838972
 20
-3.623895940934304
 10
13.38557399838972
 20
-3.623895940934304
 10
13.37868380741922
 20
-6.615616860325263
 10
13.37868380741922
 20
-6.615616860325263
 97
        0
 97
        0
 92
        1
 93
        1
 72
     4
 94
        3
 73
     0
 74
     1
 95
       26
 96
       22
 40
0.0
 40
0.0
 40
0.0
 40
0.0
 40
1.0
 40
1.0
 40
1.0
 40
2.0
 40
2.0
 40
2.0
 40
3.0
 40
3.0
 40
3.0
 40
4.0
 40
4.0
 40
4.0
 40
5.0
 40
5.0
 40
5.0
 40
6.0
 40
6.0
 40
6.0
 40
7.0
 40
7.0
 40
7.0
 40
7.0
 10
12.92427571291477
 20
-3.622173393191679
 10
12.92530924156034
 20
-3.320383028683793
 10
12.78199326937395
 20
-3.168626572558538
 10
12.49501681545263
 20
-3.167765298687225
 10
12.49501681545263
 20
-3.167765298687225
 10
12.49036593654755
 20
-3.167765298687225
 10
12.49036593654755
 20
-3.167765298687225
 10
12.2049397755946
 20
-3.167076279590176
 10
12.0616238034082
 20
-3.317454697521331
 10
12.06110703908542
 20
-3.619417316803479
 10
12.06110703908542
 20
-3.619417316803479
 10
12.05387233856639
 20
-6.610793726645913
 10
12.05387233856639
 20
-6.610793726645913
 10
12.05301106469508
 20
-6.912928600702323
 10
12.19615478210721
 20
-7.064512802053317
 10
12.48330349080279
 20
-7.065374075924629
 10
12.7716579829182
 20
-7.066235349795941
 10
12.91669650284721
 20
-6.915856931864786
 10
12.91738552194427
 20
-6.613894312582638
 10
12.91738552194427
 20
-6.613894312582638
 10
12.92427571291477
 20
-3.622173393191679
 10
12.92427571291477
 20
-3.622173393191679
 97
        0
 97
        0
 75
     2
 76
     1
 98
        0
  0
POLYLINE
  5
76
330
6F
100
AcDbEntity
  8
Dial
370
     0
100
AcDb2dPolyline
 66
     1
 10
0.0
 20
0.0
 30
0.0
  0
VERTEX
  5
77
330
76
100
AcDbEntity
  8
Dial
370
     0
100
AcDbVertex
100
AcDb2dVertex
 10
18.43057182698958
 20
-4.818310545670423
 30
0.0
  0
VERTEX
  5
78
330
76
100
AcDbEntity
  8
Dial
370
     0
100
AcDbVertex
100
AcDb2dVertex
 10
15.95802679722577
 20
-8.205183917219538
 30
0.0
  0
VERTEX
  5
79
330
76
100
AcDbEntity
  8
Dial
370
     0
100
AcDbVertex
100
AcDb2dVertex
 10
16.49305012608507
 20
-8.595685490472606
 30
0.0
  0
VERTEX
  5
7A
330
76
100
AcDbEntity
  8
Dial
370
     0
100
AcDbVertex
100
AcDb2dVertex
 10
16.22915581191494
 20
-8.957765025972364
 30
0.0
  0
VERTEX
  5
7B
330
76
100
AcDbEntity
  8
Dial
370
     0
100
AcDbVertex
100
AcDb2dVertex
 10
14.78566080359525
 20
-7.904254826582965
 30
0.0
  0
VERTEX
  5
7C
330
76
100
AcDbEntity
  8
Dial
370
     0
100
AcDbVertex
100
AcDb2dVertex
 10
15.04989962731391
 20
-7.542347545857469
 30
0.0
  0
VERTEX
  5
7D
330
76
100
AcDbEntity
  8
Dial
370
     0
100
AcDbVertex
100
AcDb2dVertex
 10
15.58733452301289
 20
-7.934571666853163
 30
0.0
  0
VERTEX
  5
7E
330
76
100
AcDbEntity
  8
Dial
370
     0
100
AcDbVertex
100
AcDb2dVertex
 10
17.79564072905804
 20
-4.909261066481018
 30
0.0
  0
VERTEX
  5
7F
330
76
100
AcDbEntity
  8
Dial
370
     0
100
AcDbVertex
100
AcDb2dVertex
 10
17.25820583335906
 20
-4.517381455033849
 30
0.0
  0
VERTEX
  5
80
330
76
100
AcDbEntity
  8
Dial
370
     0
100
AcDbVertex
100
AcDb2dVertex
 10
17.52244465707772
 20
-4.155474174308354
 30
0.0
  0
VERTEX
  5
81
330
76
100
AcDbEntity
  8
Dial
370
     0
100
AcDbVertex
100
AcDb2dVertex
 10
18.43057182698958
 20
-4.818310545670423
 30
0.0
  0
SEQEND
  5
82
330
76
100
AcDbEntity
  8
Dial
370
     0
  0
HATCH
  5
83
330
6F
100
AcDbEntity
  8
Dial
 62
   250
420
  2301728
100
AcDbHatch
 10
0.0
 20
0.0
 30
0.0
210
0.0
220
0.0
230
1.0
  2
SOLID
 70
     1
 71
     0
 91
        1
 92
        1
 93
       10
 72
     1
 10
18.43057182698958
 20
-4.818310545670423
 11
15.95802679722577
 21
-8.205183917219538
 72
     1
 10
15.95802679722577
 20
-8.205183917219538
 11
16.49305012608507
 21
-8.595685490472606
 72
     1
 10
16.49305012608507
 20
-8.595685490472606
 11
16.22915581191494
 21
-8.957765025972364
 72
     1
 10
16.22915581191494
 20
-8.957765025972364
 11
14.78566080359525
 21
-7.904254826582965
 72
     1
 10
14.78566080359525
 20
-7.904254826582965
 11
15.04989962731391
 21
-7.542347545857469
 72
     1
 10
15.04989962731391
 20
-7.542347545857469
 11
15.58733452301289
 21
-7.934571666853163
 72
     1
 10
15.58733452301289
 20
-7.934571666853163
 11
17.79564072905804
 21
-4.909261066481018
 72
     1
 10
17.79564072905804
 20
-4.909261066481018
 11
17.25820583335906
 21
-4.517381455033849
 72
     1
 10
17.25820583335906
 20
-4.517381455033849
 11
17.52244465707772
 21
-4.155474174308354
 72
     1
 10
17.52244465707772
 20
-4.155474174308354
 11
18.43057182698958
 21
-4.818310545670423
 97
        0
 75
     2
 76
     1
 98
        0
  0
SPLINE
  5
84
330
6F
100
AcDbEntity
  8
Dial
370
     0
100
AcDbSpline
210
0.0
220
0.0
230
1.0
 70
    11
 71
     3
 72
    62
 73
    58
 74
     0
 42
0.0000000001
 43
0.0000000001
 12
1.0
 22
0.0
 32
0.0
 13
1.0
 23
0.0
 33
0.0
 40
0.0
 40
0.0
 40
0.0
 40
0.0
 40
1.0
 40
1.0
 40
1.0
 40
2.0
 40
2.0
 40
2.0
 40
3.0
 40
3.0
 40
3.0
 40
4.0
 40
4.0
 40
4.0
 40
5.0
 40
5.0
 40
5.0
 40
6.0
 40
6.0
 40
6.0
 40
7.0
 40
7.0
 40
7.0
 40
8.0
 40
8.0
 40
8.0
 40
9.0
 40
9.0
 40
9.0
 40
10.0
 40
10.0
 40
10.0
 40
11.0
 40
11.0
 40
11.0
 40
12.0
 40
12.0
 40
12.0
 40
13.0
 40
13.0
 40
13.0
 40
14.0
 40
14.0
 40
14.0
 40
15.0
 40
15.0
 40
15.0
 40
16.0
 40
16.0
 40
16.0
 40
17.0
 40
17.0
 40
17.0
 40
18.0
 40
18.0
 40
18.0
 40
19.0
 40
19.0
 40
19.0
 40
19.0
 10
17.98649901894088
 20
-9.898620602994095
 30
0.0
 10
18.36787108915803
 20
-9.779592553978713
 30
0.0
 10
18.75785589808832
 20
-9.870370820015047
 30
0.0
 10
19.15679795528025
 20
-10.17026638200604
 30
0.0
 10
19.62016329804635
 20
-10.52442219788973
 30
0.0
 10
19.97707519031823
 20
-10.66360405549382
 30
0.0
 10
20.22684461299885
 20
-10.58763970004406
 30
0.0
 10
20.22684461299885
 20
-10.58763970004406
 30
0.0
 10
21.14358452162383
 20
-10.30169677476833
 30
0.0
 10
21.14358452162383
 20
-10.30169677476833
 30
0.0
 10
21.43331705193334
 20
-10.21091850873199
 30
0.0
 10
21.53563638784526
 20
-10.02970648620785
 30
0.0
 10
21.45019801981106
 20
-9.757371688098852
 30
0.0
 10
21.45019801981106
 20
-9.757371688098852
 30
0.0
 10
21.44881998161696
 20
-9.752720809193764
 30
0.0
 10
21.44881998161696
 20
-9.752720809193764
 30
0.0
 10
21.36338161358277
 20
-9.479007972890665
 30
0.0
 10
21.17527940008813
 20
-9.387196178208757
 30
0.0
 10
20.88589137932714
 20
-9.477629934696566
 30
0.0
 10
20.88589137932714
 20
-9.477629934696566
 30
0.0
 10
20.37911783344689
 20
-9.635759817469532
 30
0.0
 10
20.37911783344689
 20
-9.635759817469532
 30
0.0
 10
20.37911783344689
 20
-9.635759817469532
 30
0.0
 10
20.24096950448837
 20
-9.19530435968034
 30
0.0
 10
20.24096950448837
 20
-9.19530435968034
 30
0.0
 10
20.24096950448837
 20
-9.19530435968034
 30
0.0
 10
20.74774305036862
 20
-9.037518986455899
 30
0.0
 10
20.74774305036862
 20
-9.037518986455899
 30
0.0
 10
21.32583007279354
 20
-8.857340492577332
 30
0.0
 10
21.70375704752545
 20
-9.050610349299848
 30
0.0
 10
21.88152397456434
 20
-9.618017575720495
 30
0.0
 10
22.05929090160323
 20
-10.18663058556098
 30
0.0
 10
21.85913085391022
 20
-10.5612847195819
 30
0.0
 10
21.28138834103382
 20
-10.74180772300899
 30
0.0
 10
21.28138834103382
 20
-10.74180772300899
 30
0.0
 10
20.34880099317669
 20
-11.03257378196408
 30
0.0
 10
20.34880099317669
 20
-11.03257378196408
 30
0.0
 10
19.95984971289198
 20
-11.15384114304487
 30
0.0
 10
19.56504177028235
 20
-11.06392415087985
 30
0.0
 10
19.16437716534779
 20
-10.76265055069475
 30
0.0
 10
18.69894476529054
 20
-10.40866698958533
 30
0.0
 10
18.33376464385406
 20
-10.27344699178928
 30
0.0
 10
18.0681477819413
 20
-10.35630153820954
 30
0.0
 10
18.0681477819413
 20
-10.35630153820954
 30
0.0
 10
17.66920572474936
 20
-10.48066948522706
 30
0.0
 10
17.66920572474936
 20
-10.48066948522706
 30
0.0
 10
17.66920572474936
 20
-10.48066948522706
 30
0.0
 10
18.06470268645605
 20
-11.74519178308801
 30
0.0
 10
18.06470268645605
 20
-11.74519178308801
 30
0.0
 10
18.06470268645605
 20
-11.74519178308801
 30
0.0
 10
17.63475476989687
 20
-11.87937825223849
 30
0.0
 10
17.63475476989687
 20
-11.87937825223849
 30
0.0
 10
17.63475476989687
 20
-11.87937825223849
 30
0.0
 10
17.10145398878019
 20
-10.17457275136261
 30
0.0
 10
17.10145398878019
 20
-10.17457275136261
 30
0.0
 10
17.10145398878019
 20
-10.17457275136261
 30
0.0
 10
17.98649901894088
 20
-9.898620602994095
 30
0.0
 10
17.98649901894088
 20
-9.898620602994095
 30
0.0
  0
HATCH
  5
85
330
6F
100
AcDbEntity
  8
Dial
 62
   250
420
  2301728
100
AcDbHatch
 10
0.0
 20
0.0
 30
0.0
210
0.0
220
0.0
230
1.0
  2
SOLID
 70
     1
 71
     0
 91
        1
 92
        1
 93
        1
 72
     4
 94
        3
 73
     0
 74
     1
 95
       62
 96
       58
 40
0.0
 40
0.0
 40
0.0
 40
0.0
 40
1.0
 40
1.0
 40
1.0
 40
2.0
 40
2.0
 40
2.0
 40
3.0
 40
3.0
 40
3.0
 40
4.0
 40
4.0
 40
4.0
 40
5.0
 40
5.0
 40
5.0
 40
6.0
 40
6.0
 40
6.0
 40
7.0
 40
7.0
 40
7.0
 40
8.0
 40
8.0
 40
8.0
 40
9.0
 40
9.0
 40
9.0
 40
10.0
 40
10.0
 40
10.0
 40
11.0
 40
11.0
 40
11.0
 40
12.0
 40
12.0
 40
12.0
 40
13.0
 40
13.0
 40
13.0
 40
14.0
 40
14.0
 40
14.0
 40
15.0
 40
15.0
 40
15.0
 40
16.0
 40
16.0
 40
16.0
 40
17.0
 40
17.0
 40
17.0
 40
18.0
 40
18.0
 40
18.0
 40
19.0
 40
19.0
 40
19.0
 40
19.0
 10
17.98649901894088
 20
-9.898620602994095
 10
18.36787108915803
 20
-9.779592553978713
 10
18.75785589808832
 20
-9.870370820015047
 10
19.15679795528025
 20
-10.17026638200604
 10
19.62016329804635
 20
-10.52442219788973
 10
19.97707519031823
 20
-10.66360405549382
 10
20.22684461299885
 20
-10.58763970004406
 10
20.22684461299885
 20
-10.58763970004406
 10
21.14358452162383
 20
-10.30169677476833
 10
21.14358452162383
 20
-10.30169677476833
 10
21.43331705193334
 20
-10.21091850873199
 10
21.53563638784526
 20
-10.02970648620785
 10
21.45019801981106
 20
-9.757371688098852
 10
21.45019801981106
 20
-9.757371688098852
 10
21.44881998161696
 20
-9.752720809193764
 10
21.44881998161696
 20
-9.752720809193764
 10
21.36338161358277
 20
-9.479007972890665
 10
21.17527940008813
 20
-9.387196178208757
 10
20.88589137932714
 20
-9.477629934696566
 10
20.88589137932714
 20
-9.477629934696566
 10
20.37911783344689
 20
-9.635759817469532
 10
20.37911783344689
 20
-9.635759817469532
 10
20.37911783344689
 20
-9.635759817469532
 10
20.24096950448837
 20
-9.19530435968034
 10
20.24096950448837
 20
-9.19530435968034
 10
20.24096950448837
 20
-9.19530435968034
 10
20.74774305036862
 20
-9.037518986455899
 10
20.74774305036862
 20
-9.037518986455899
 10
21.32583007279354
 20
-8.857340492577332
 10
21.70375704752545
 20
-9.050610349299848
 10
21.88152397456434
 20
-9.618017575720495
 10
22.05929090160323
 20
-10.18663058556098
 10
21.85913085391022
 20
-10.5612847195819
 10
21.28138834103382
 20
-10.74180772300899
 10
21.28138834103382
 20
-10.74180772300899
 10
20.34880099317669
 20
-11.03257378196408
 10
20.34880099317669
 20
-11.03257378196408
 10
19.95984971289198
 20
-11.15384114304487
 10
19.56504177028235
 20
-11.06392415087985
 10
19.16437716534779
 20
-10.76265055069475
 10
18.69894476529054
 20
-10.40866698958533
 10
18.33376464385406
 20
-10.27344699178928
 10
18.0681477819413
 20
-10.35630153820954
 10
18.0681477819413
 20
-10.35630153820954
 10
17.66920572474936
 20
-10.48066948522706
 10
17.66920572474936
 20
-10.48066948522706
 10
17.66920572474936
 20
-10.48066948522706
 10
18.06470268645605
 20
-11.74519178308801
 10
18.06470268645605
 20
-11.74519178308801
 10
18.06470268645605
 20
-11.74519178308801
 10
17.63475476989687
 20
-11.87937825223849
 10
17.63475476989687
 20
-11.87937825223849
 10
17.63475476989687
 20
-11.87937825223849
 10
17.10145398878019
 20
-10.17457275136261
 10
17.10145398878019
 20
-10.17457275136261
 10
17.10145398878019
 20
-10.17457275136261
 10
17.98649901894088
 20
-9.898620602994095
 10
17.98649901894088
 20
-9.898620602994095
 97
        0
 97
        0
 75
     2
 76
     1
 98
        0
  0
SPLINE
  5
86
330
6F
100
AcDbEntity
  8
Dial
370
     0
100
AcDbSpline
210
0.0
220
0.0
230
1.0
 70
    11
 71
     3
 72
    80
 73
    76
 74
     0
 42
0.0000000001
 43
0.0000000001
 12
1.0
 22
0.0
 32
0.0
 13
1.0
 23
0.0
 33
0.0
 40
0.0
 40
0.0
 40
0.0
 40
0.0
 40
1.0
 40
1.0
 40
1.0
 40
2.0
 40
2.0
 40
2.0
 40
3.0
 40
3.0
 40
3.0
 40
4.0
 40
4.0
 40
4.0
 40
5.0
 40
5.0
 40
5.0
 40
6.0
 40
6.0
 40
6.0
 40
7.0
 40
7.0
 40
7.0
 40
8.0
 40
8.0
 40
8.0
 40
9.0
 40
9.0
 40
9.0
 40
10.0
 40
10.0
 40
10.0
 40
11.0
 40
11.0
 40
11.0
 40
12.0
 40
12.0
 40
12.0
 40
13.0
 40
13.0
 40
13.0
 40
14.0
 40
14.0
 40
14.0
 40
15.0
 40
15.0
 40
15.0
 40
16.0
 40
16.0
 40
16.0
 40
17.0
 40
17.0
 40
17.0
 40
18.0
 40
18.0
 40
18.0
 40
19.0
 40
19.0
 40
19.0
 40
20.0
 40
20.0
 40
20.0
 40
21.0
 40
21.0
 40
21.0
 40
22.0
 40
22.0
 40
22.0
 40
23.0
 40
23.0
 40
23.0
 40
24.0
 40
24.0
 40
24.0
 40
25.0
 40
25.0
 40
25.0
 40
25.0
 10
19.75831162700487
 20
-15.01923827749519
 30
0.0
 10
19.70353460878939
 20
-15.326885304328
 30
0.0
 10
19.82032334573936
 20
-15.52738986156954
 30
0.0
 10
20.10936685695183
 20
-15.62109645876834
 30
0.0
 10
20.10936685695183
 20
-15.62109645876834
 30
0.0
 10
20.81285535503984
 20
-15.86156412363878
 30
0.0
 10
20.81285535503984
 20
-15.86156412363878
 30
0.0
 10
21.09879828031558
 20
-15.95906032587135
 30
0.0
 10
21.28793402245579
 20
-15.87224391964305
 30
0.0
 10
21.38060709100901
 20
-15.60077039540536
 30
0.0
 10
21.47362466911076
 20
-15.32791883297358
 30
0.0
 10
21.37750650507229
 20
-15.14257269586714
 30
0.0
 10
21.09156357979655
 20
-15.04473198408604
 30
0.0
 10
21.09156357979655
 20
-15.04473198408604
 30
0.0
 10
20.58444552436778
 20
-14.87144368117797
 30
0.0
 10
20.58444552436778
 20
-14.87144368117797
 30
0.0
 10
20.58444552436778
 20
-14.87144368117797
 30
0.0
 10
20.73327364933057
 20
-14.43529459274534
 30
0.0
 10
20.73327364933057
 20
-14.43529459274534
 30
0.0
 10
20.73327364933057
 20
-14.43529459274534
 30
0.0
 10
21.24004719521082
 20
-14.60823838610489
 30
0.0
 10
21.24004719521082
 20
-14.60823838610489
 30
0.0
 10
21.81055500756819
 20
-14.80323079057003
 30
0.0
 10
22.00072427835399
 20
-15.18253580349603
 30
0.0
 10
21.80952147892262
 20
-15.74718695352848
 30
0.0
 10
21.61797416994273
 20
-16.30977104626978
 30
0.0
 10
21.23625759017705
 20
-16.4933946356336
 30
0.0
 10
20.66437173962558
 20
-16.29805772161993
 30
0.0
 10
20.66437173962558
 20
-16.29805772161993
 30
0.0
 10
19.93814561133491
 20
-16.05001084668194
 30
0.0
 10
19.93814561133491
 20
-16.05001084668194
 30
0.0
 10
19.64462347599162
 20
-15.94941405851265
 30
0.0
 10
19.46926811579241
 20
-15.70171169312318
 30
0.0
 10
19.41139051164021
 20
-15.30552571231945
 30
0.0
 10
19.12510307681595
 20
-15.58388942752764
 30
0.0
 10
18.85225151438416
 20
-15.67931857246906
 30
0.0
 10
18.59318033389337
 20
-15.59077961849814
 30
0.0
 10
18.59318033389337
 20
-15.59077961849814
 30
0.0
 10
17.83146972210463
 20
-15.33067490936178
 30
0.0
 10
17.83146972210463
 20
-15.33067490936178
 30
0.0
 10
17.25958387155316
 20
-15.13499348579959
 30
0.0
 10
17.06975911031589
 20
-14.7560329824221
 30
0.0
 10
17.26130641929579
 20
-14.19379339922933
 30
0.0
 10
17.45526529511535
 20
-13.63052028739098
 30
0.0
 10
17.83698187488103
 20
-13.44620767893012
 30
0.0
 10
18.40748968723841
 20
-13.64085557384673
 30
0.0
 10
18.40748968723841
 20
-13.64085557384673
 30
0.0
 10
18.91495225221571
 20
-13.8141438767548
 30
0.0
 10
18.91495225221571
 20
-13.8141438767548
 30
0.0
 10
18.91495225221571
 20
-13.8141438767548
 30
0.0
 10
18.76612412725292
 20
-14.25063747473595
 30
0.0
 10
18.76612412725292
 20
-14.25063747473595
 30
0.0
 10
18.76612412725292
 20
-14.25063747473595
 30
0.0
 10
18.25866156227561
 20
-14.07769368137641
 30
0.0
 10
18.25866156227561
 20
-14.07769368137641
 30
0.0
 10
17.9730631465484
 20
-13.97985296959532
 30
0.0
 10
17.78323838531114
 20
-14.06770290446919
 30
0.0
 10
17.69022080720939
 20
-14.34055446690097
 30
0.0
 10
17.59754773865617
 20
-14.61202799113866
 30
0.0
 10
17.69435492179169
 20
-14.79634059959953
 30
0.0
 10
17.98029784706743
 20
-14.8938368018321
 30
0.0
 10
17.98029784706743
 20
-14.8938368018321
 30
0.0
 10
18.74200845885617
 20
-15.15428602051698
 30
0.0
 10
18.74200845885617
 20
-15.15428602051698
 30
0.0
 10
19.01899413587025
 20
-15.2538492800407
 30
0.0
 10
19.21570908807802
 20
-15.15773111600224
 30
0.0
 10
19.33180880593094
 20
-14.86593152840157
 30
0.0
 10
19.33180880593094
 20
-14.86593152840157
 30
0.0
 10
19.40346679202413
 20
-14.65543619425281
 30
0.0
 10
19.40346679202413
 20
-14.65543619425281
 30
0.0
 10
19.40346679202413
 20
-14.65543619425281
 30
0.0
 10
19.83238117993774
 20
-14.80219726192445
 30
0.0
 10
19.83238117993774
 20
-14.80219726192445
 30
0.0
 10
19.83238117993774
 20
-14.80219726192445
 30
0.0
 10
19.75831162700487
 20
-15.01923827749519
 30
0.0
 10
19.75831162700487
 20
-15.01923827749519
 30
0.0
  0
HATCH
  5
87
330
6F
100
AcDbEntity
  8
Dial
 62
   250
420
  2301728
100
AcDbHatch
 10
0.0
 20
0.0
 30
0.0
210
0.0
220
0.0
230
1.0
  2
SOLID
 70
     1
 71
     0
 91
        1
 92
        1
 93
        1
 72
     4
 94
        3
 73
     0
 74
     1
 95
       80
 96
       76
 40
0.0
 40
0.0
 40
0.0
 40
0.0
 40
1.0
 40
1.0
 40
1.0
 40
2.0
 40
2.0
 40
2.0
 40
3.0
 40
3.0
 40
3.0
 40
4.0
 40
4.0
 40
4.0
 40
5.0
 40
5.0
 40
5.0
 40
6.0
 40
6.0
 40
6.0
 40
7.0
 40
7.0
 40
7.0
 40
8.0
 40
8.0
 40
8.0
 40
9.0
 40
9.0
 40
9.0
 40
10.0
 40
10.0
 40
10.0
 40
11.0
 40
11.0
 40
11.0
 40
12.0
 40
12.0
 40
12.0
 40
13.0
 40
13.0
 40
13.0
 40
14.0
 40
14.0
 40
14.0
 40
15.0
 40
15.0
 40
15.0
 40
16.0
 40
16.0
 40
16.0
 40
17.0
 40
17.0
 40
17.0
 40
18.0
 40
18.0
 40
18.0
 40
19.0
 40
19.0
 40
19.0
 40
20.0
 40
20.0
 40
20.0
 40
21.0
 40
21.0
 40
21.0
 40
22.0
 40
22.0
 40
22.0
 40
23.0
 40
23.0
 40
23.0
 40
24.0
 40
24.0
 40
24.0
 40
25.0
 40
25.0
 40
25.0
 40
25.0
 10
19.75831162700487
 20
-15.01923827749519
 10
19.70353460878939
 20
-15.326885304328
 10
19.82032334573936
 20
-15.52738986156954
 10
20.10936685695183
 20
-15.62109645876834
 10
20.10936685695183
 20
-15.62109645876834
 10
20.81285535503984
 20
-15.86156412363878
 10
20.81285535503984
 20
-15.86156412363878
 10
21.09879828031558
 20
-15.95906032587135
 10
21.28793402245579
 20
-15.87224391964305
 10
21.38060709100901
 20
-15.60077039540536
 10
21.47362466911076
 20
-15.32791883297358
 10
21.37750650507229
 20
-15.14257269586714
 10
21.09156357979655
 20
-15.04473198408604
 10
21.09156357979655
 20
-15.04473198408604
 10
20.58444552436778
 20
-14.87144368117797
 10
20.58444552436778
 20
-14.87144368117797
 10
20.58444552436778
 20
-14.87144368117797
 10
20.73327364933057
 20
-14.43529459274534
 10
20.73327364933057
 20
-14.43529459274534
 10
20.73327364933057
 20
-14.43529459274534
 10
21.24004719521082
 20
-14.60823838610489
 10
21.24004719521082
 20
-14.60823838610489
 10
21.81055500756819
 20
-14.80323079057003
 10
22.00072427835399
 20
-15.18253580349603
 10
21.80952147892262
 20
-15.74718695352848
 10
21.61797416994273
 20
-16.30977104626978
 10
21.23625759017705
 20
-16.4933946356336
 10
20.66437173962558
 20
-16.29805772161993
 10
20.66437173962558
 20
-16.29805772161993
 10
19.93814561133491
 20
-16.05001084668194
 10
19.93814561133491
 20
-16.05001084668194
 10
19.64462347599162
 20
-15.94941405851265
 10
19.46926811579241
 20
-15.70171169312318
 10
19.41139051164021
 20
-15.30552571231945
 10
19.12510307681595
 20
-15.58388942752764
 10
18.85225151438416
 20
-15.67931857246906
 10
18.59318033389337
 20
-15.59077961849814
 10
18.59318033389337
 20
-15.59077961849814
 10
17.83146972210463
 20
-15.33067490936178
 10
17.83146972210463
 20
-15.33067490936178
 10
17.25958387155316
 20
-15.13499348579959
 10
17.06975911031589
 20
-14.7560329824221
 10
17.26130641929579
 20
-14.19379339922933
 10
17.45526529511535
 20
-13.63052028739098
 10
17.83698187488103
 20
-13.44620767893012
 10
18.40748968723841
 20
-13.64085557384673
 10
18.40748968723841
 20
-13.64085557384673
 10
18.91495225221571
 20
-13.8141438767548
 10
18.91495225221571
 20
-13.8141438767548
 10
18.91495225221571
 20
-13.8141438767548
 10
18.76612412725292
 20
-14.25063747473595
 10
18.76612412725292
 20
-14.25063747473595
 10
18.76612412725292
 20
-14.25063747473595
 10
18.25866156227561
 20
-14.07769368137641
 10
18.25866156227561
 20
-14.07769368137641
 10
17.9730631465484
 20
-13.97985296959532
 10
17.78323838531114
 20
-14.06770290446919
 10
17.69022080720939
 20
-14.34055446690097
 10
17.59754773865617
 20
-14.61202799113866
 10
17.69435492179169
 20
-14.79634059959953
 10
17.98029784706743
 20
-14.8938368018321
 10
17.98029784706743
 20
-14.8938368018321
 10
18.74200845885617
 20
-15.15428602051698
 10
18.74200845885617
 20
-15.15428602051698
 10
19.01899413587025
 20
-15.2538492800407
 10
19.21570908807802
 20
-15.15773111600224
 10
19.33180880593094
 20
-14.86593152840157
 10
19.33180880593094
 20
-14.86593152840157
 10
19.40346679202413
 20
-14.65543619425281
 10
19.40346679202413
 20
-14.65543619425281
 10
19.40346679202413
 20
-14.65543619425281
 10
19.83238117993774
 20
-14.80219726192445
 10
19.83238117993774
 20
-14.80219726192445
 10
19.83238117993774
 20
-14.80219726192445
 10
19.75831162700487
 20
-15.01923827749519
 10
19.75831162700487
 20
-15.01923827749519
 97
        0
 97
        0
 75
     2
 76
     1
 98
        0
  0
POLYLINE
  5
88
330
6F
100
AcDbEntity
  8
Dial
370
     0
100
AcDb2dPolyline
 66
     1
 10
0.0
 20
0.0
 30
0.0
  0
VERTEX
  5
89
330
88
100
AcDbEntity
  8
Dial
370
     0
100
AcDbVertex
100
AcDb2dVertex
 10
17.40117729599693
 20
-21.05160047216766
 30
0.0
  0
VERTEX
  5
8A
330
88
100
AcDbEntity
  8
Dial
370
     0
100
AcDbVertex
100
AcDb2dVertex
 10
15.68655327298809
 20
-18.59283582434485
 30
0.0
  0
VERTEX
  5
8B
330
88
100
AcDbEntity
  8
Dial
370
     0
100
AcDbVertex
100
AcDb2dVertex
 10
15.46331108554389
 20
-18.74820963072962
 30
0.0
  0
VERTEX
  5
8C
330
88
100
AcDbEntity
  8
Dial
370
     0
100
AcDbVertex
100
AcDb2dVertex
 10
15.20699598144131
 20
-18.37958441380788
 30
0.0
  0
VERTEX
  5
8D
330
88
100
AcDbEntity
  8
Dial
370
     0
100
AcDbVertex
100
AcDb2dVertex
 10
15.4302381688855
 20
-18.22455511697164
 30
0.0
  0
VERTEX
  5
8E
330
88
100
AcDbEntity
  8
Dial
370
     0
100
AcDbVertex
100
AcDb2dVertex
 10
14.74397514822373
 20
-17.24098035593281
 30
0.0
  0
VERTEX
  5
8F
330
88
100
AcDbEntity
  8
Dial
370
     0
100
AcDbVertex
100
AcDb2dVertex
 10
15.12259114205269
 20
-16.9774305513112
 30
0.0
  0
VERTEX
  5
90
330
88
100
AcDbEntity
  8
Dial
370
     0
100
AcDbVertex
100
AcDb2dVertex
 10
15.80850965316593
 20
-17.96100531235003
 30
0.0
  0
VERTEX
  5
91
330
88
100
AcDbEntity
  8
Dial
370
     0
100
AcDbVertex
100
AcDb2dVertex
 10
16.98604329002432
 20
-17.14107258686057
 30
0.0
  0
VERTEX
  5
92
330
88
100
AcDbEntity
  8
Dial
370
     0
100
AcDbVertex
100
AcDb2dVertex
 10
17.25648328561644
 20
-17.52830131940265
 30
0.0
  0
VERTEX
  5
93
330
88
100
AcDbEntity
  8
Dial
370
     0
100
AcDbVertex
100
AcDb2dVertex
 10
17.97340765609693
 20
-20.65300292452425
 30
0.0
  0
VERTEX
  5
94
330
88
100
AcDbEntity
  8
Dial
370
     0
100
AcDbVertex
100
AcDb2dVertex
 10
17.40117729599693
 20
-21.05160047216766
 30
0.0
  0
SEQEND
  5
95
330
88
100
AcDbEntity
  8
Dial
370
     0
  0
POLYLINE
  5
96
330
6F
100
AcDbEntity
  8
Dial
370
     0
100
AcDb2dPolyline
 66
     1
 10
0.0
 20
0.0
 30
0.0
  0
VERTEX
  5
97
330
96
100
AcDbEntity
  8
Dial
370
     0
100
AcDbVertex
100
AcDb2dVertex
 10
16.92058647580458
 20
-17.73328450077501
 30
0.0
  0
VERTEX
  5
98
330
96
100
AcDbEntity
  8
Dial
370
     0
100
AcDbVertex
100
AcDb2dVertex
 10
16.06482475726852
 20
-18.32859700062619
 30
0.0
  0
VERTEX
  5
99
330
96
100
AcDbEntity
  8
Dial
370
     0
100
AcDbVertex
100
AcDb2dVertex
 10
17.574465598905
 20
-20.49349500355718
 30
0.0
  0
VERTEX
  5
9A
330
96
100
AcDbEntity
  8
Dial
370
     0
100
AcDbVertex
100
AcDb2dVertex
 10
16.92058647580458
 20
-17.73328450077501
 30
0.0
  0
SEQEND
  5
9B
330
96
100
AcDbEntity
  8
Dial
370
     0
  0
HATCH
  5
9C
330
6F
100
AcDbEntity
  8
Dial
 62
   250
420
  2301728
100
AcDbHatch
 10
0.0
 20
0.0
 30
0.0
210
0.0
220
0.0
230
1.0
  2
SOLID
 70
     1
 71
     0
 91
        2
 92
        1
 93
       11
 72
     1
 10
17.40117729599693
 20
-21.05160047216766
 11
15.68655327298809
 21
-18.59283582434485
 72
     1
 10
15.68655327298809
 20
-18.59283582434485
 11
15.46331108554389
 21
-18.74820963072962
 72
     1
 10
15.46331108554389
 20
-18.74820963072962
 11
15.20699598144131
 21
-18.37958441380788
 72
     1
 10
15.20699598144131
 20
-18.37958441380788
 11
15.4302381688855
 21
-18.22455511697164
 72
     1
 10
15.4302381688855
 20
-18.22455511697164
 11
14.74397514822373
 21
-17.24098035593281
 72
     1
 10
14.74397514822373
 20
-17.24098035593281
 11
15.12259114205269
 21
-16.9774305513112
 72
     1
 10
15.12259114205269
 20
-16.9774305513112
 11
15.80850965316593
 21
-17.96100531235003
 72
     1
 10
15.80850965316593
 20
-17.96100531235003
 11
16.98604329002432
 21
-17.14107258686057
 72
     1
 10
16.98604329002432
 20
-17.14107258686057
 11
17.25648328561644
 21
-17.52830131940265
 72
     1
 10
17.25648328561644
 20
-17.52830131940265
 11
17.97340765609693
 21
-20.65300292452425
 72
     1
 10
17.97340765609693
 20
-20.65300292452425
 11
17.40117729599693
 21
-21.05160047216766
 97
        0
 92
        1
 93
        3
 72
     1
 10
16.92058647580458
 20
-17.73328450077501
 11
16.06482475726852
 21
-18.32859700062619
 72
     1
 10
16.06482475726852
 20
-18.32859700062619
 11
17.574465598905
 21
-20.49349500355718
 72
     1
 10
17.574465598905
 20
-20.49349500355718
 11
16.92058647580458
 21
-17.73328450077501
 97
        0
 75
     2
 76
     1
 98
        0
  0
SPLINE
  5
9D
330
6F
100
AcDbEntity
  8
Dial
370
     0
100
AcDbSpline
210
0.0
220
0.0
230
1.0
 70
    11
 71
     3
 72
    77
 73
    73
 74
     0
 42
0.0000000001
 43
0.0000000001
 12
1.0
 22
0.0
 32
0.0
 13
1.0
 23
0.0
 33
0.0
 40
0.0
 40
0.0
 40
0.0
 40
0.0
 40
1.0
 40
1.0
 40
1.0
 40
2.0
 40
2.0
 40
2.0
 40
3.0
 40
3.0
 40
3.0
 40
4.0
 40
4.0
 40
4.0
 40
5.0
 40
5.0
 40
5.0
 40
6.0
 40
6.0
 40
6.0
 40
7.0
 40
7.0
 40
7.0
 40
8.0
 40
8.0
 40
8.0
 40
9.0
 40
9.0
 40
9.0
 40
10.0
 40
10.0
 40
10.0
 40
11.0
 40
11.0
 40
11.0
 40
12.0
 40
12.0
 40
12.0
 40
13.0
 40
13.0
 40
13.0
 40
14.0
 40
14.0
 40
14.0
 40
15.0
 40
15.0
 40
15.0
 40
16.0
 40
16.0
 40
16.0
 40
17.0
 40
17.0
 40
17.0
 40
18.0
 40
18.0
 40
18.0
 40
19.0
 40
19.0
 40
19.0
 40
20.0
 40
20.0
 40
20.0
 40
21.0
 40
21.0
 40
21.0
 40
22.0
 40
22.0
 40
22.0
 40
23.0
 40
23.0
 40
23.0
 40
24.0
 40
24.0
 40
24.0
 40
24.0
 10
11.855434838616
 20
-19.90128308964274
 30
0.0
 10
11.85009494061387
 20
-20.12762586302365
 30
0.0
 10
11.90831705431459
 20
-20.26818575882184
 30
0.0
 10
12.02992892494391
 20
-20.32296277703731
 30
0.0
 10
12.08160535722265
 20
-20.35086805046784
 30
0.0
 10
12.16153157248045
 20
-20.36671548969999
 30
0.0
 10
12.27022433504008
 20
-20.36947156608819
 30
0.0
 10
12.29571804163093
 20
-20.36981607563671
 30
0.0
 10
12.32000596480194
 20
-20.36947156608819
 30
0.0
 10
12.34377712365017
 20
-20.36878254699114
 30
0.0
 10
12.55375569347614
 20
-20.36430392286031
 30
0.0
 10
12.67502305455694
 20
-20.26646321107922
 30
0.0
 10
12.70792371644107
 20
-20.07560492119638
 30
0.0
 10
12.70792371644107
 20
-20.07560492119638
 30
0.0
 10
12.7124023405719
 20
-19.98844400541956
 30
0.0
 10
12.7124023405719
 20
-19.98844400541956
 30
0.0
 10
12.7124023405719
 20
-19.98844400541956
 30
0.0
 10
13.17370062604685
 20
-19.99981282052088
 30
0.0
 10
13.17370062604685
 20
-19.99981282052088
 30
0.0
 10
13.17370062604685
 20
-19.99981282052088
 30
0.0
 10
13.02314995334144
 20
-22.36314832340227
 30
0.0
 10
13.02314995334144
 20
-22.36314832340227
 30
0.0
 10
13.02314995334144
 20
-22.36314832340227
 30
0.0
 10
11.33677571331164
 20
-22.32180717757927
 30
0.0
 10
11.33677571331164
 20
-22.32180717757927
 30
0.0
 10
11.33677571331164
 20
-22.32180717757927
 30
0.0
 10
11.34745550931591
 20
-21.87118868810859
 30
0.0
 10
11.34745550931591
 20
-21.87118868810859
 30
0.0
 10
11.34745550931591
 20
-21.87118868810859
 30
0.0
 10
12.58906792219996
 20
-21.90185003792732
 30
0.0
 10
12.58906792219996
 20
-21.90185003792732
 30
0.0
 10
12.58906792219996
 20
-21.90185003792732
 30
0.0
 10
12.68725314352958
 20
-20.45008680044304
 30
0.0
 10
12.68725314352958
 20
-20.45008680044304
 30
0.0
 10
12.47055663750736
 20
-20.67780761201805
 30
0.0
 10
12.25954453903581
 20
-20.79390732987097
 30
0.0
 10
12.05438910288918
 20
-20.79804144445327
 30
0.0
 10
12.03544107772031
 20
-20.79804144445327
 30
0.0
 10
12.01184217364634
 20
-20.79459634896802
 30
0.0
 10
11.9835923906673
 20
-20.78942870574014
 30
0.0
 10
11.77275254697001
 20
-20.76703558508602
 30
0.0
 10
11.61548393806835
 20
-20.6812527075033
 30
0.0
 10
11.51161430918807
 20
-20.53242458254051
 30
0.0
 10
11.42617594115387
 20
-20.40771212597446
 30
0.0
 10
11.38707410739629
 20
-20.19342718679192
 30
0.0
 10
11.39430880791531
 20
-19.88991427454141
 30
0.0
 10
11.39430880791531
 20
-19.88991427454141
 30
0.0
 10
11.42703721502519
 20
-18.50085177488868
 30
0.0
 10
11.42703721502519
 20
-18.50085177488868
 30
0.0
 10
11.44133436128897
 20
-17.89864908406701
 30
0.0
 10
11.74639756650785
 20
-17.60478243917519
 30
0.0
 10
12.34239908545607
 20
-17.61925184021324
 30
0.0
 10
12.93702256621019
 20
-17.63406575079982
 30
0.0
 10
13.22709960606823
 20
-17.94205728718115
 30
0.0
 10
13.21263020503018
 20
-18.54460448755135
 30
0.0
 10
13.21263020503018
 20
-18.54460448755135
 30
0.0
 10
13.2019504090259
 20
-19.00211316799253
 30
0.0
 10
13.2019504090259
 20
-19.00211316799253
 30
0.0
 10
13.2019504090259
 20
-19.00211316799253
 30
0.0
 10
12.74065212355095
 20
-18.99074435289121
 30
0.0
 10
12.74065212355095
 20
-18.99074435289121
 30
0.0
 10
12.74065212355095
 20
-18.99074435289121
 30
0.0
 10
12.75167642910375
 20
-18.53323567245003
 30
0.0
 10
12.75167642910375
 20
-18.53323567245003
 30
0.0
 10
12.75856662007425
 20
-18.23144530794214
 30
0.0
 10
12.61886799814737
 20
-18.07710503020295
 30
0.0
 10
12.33171928945179
 20
-18.0695258201354
 30
0.0
 10
12.04336479733638
 20
-18.0626356291649
 30
0.0
 10
11.89557020101916
 20
-18.21008571593359
 30
0.0
 10
11.88833550050014
 20
-18.51222058999
 30
0.0
 10
11.88833550050014
 20
-18.51222058999
 30
0.0
 10
11.855434838616
 20
-19.90128308964274
 30
0.0
 10
11.855434838616
 20
-19.90128308964274
 30
0.0
  0
HATCH
  5
9E
330
6F
100
AcDbEntity
  8
Dial
 62
   250
420
  2301728
100
AcDbHatch
 10
0.0
 20
0.0
 30
0.0
210
0.0
220
0.0
230
1.0
  2
SOLID
 70
     1
 71
     0
 91
        1
 92
        1
 93
        1
 72
     4
 94
        3
 73
     0
 74
     1
 95
       77
 96
       73
 40
0.0
 40
0.0
 40
0.0
 40
0.0
 40
1.0
 40
1.0
 40
1.0
 40
2.0
 40
2.0
 40
2.0
 40
3.0
 40
3.0
 40
3.0
 40
4.0
 40
4.0
 40
4.0
 40
5.0
 40
5.0
 40
5.0
 40
6.0
 40
6.0
 40
6.0
 40
7.0
 40
7.0
 40
7.0
 40
8.0
 40
8.0
 40
8.0
 40
9.0
 40
9.0
 40
9.0
 40
10.0
 40
10.0
 40
10.0
 40
11.0
 40
11.0
 40
11.0
 40
12.0
 40
12.0
 40
12.0
 40
13.0
 40
13.0
 40
13.0
 40
14.0
 40
14.0
 40
14.0
 40
15.0
 40
15.0
 40
15.0
 40
16.0
 40
16.0
 40
16.0
 40
17.0
 40
17.0
 40
17.0
 40
18.0
 40
18.0
 40
18.0
 40
19.0
 40
19.0
 40
19.0
 40
20.0
 40
20.0
 40
20.0
 40
21.0
 40
21.0
 40
21.0
 40
22.0
 40
22.0
 40
22.0
 40
23.0
 40
23.0
 40
23.0
 40
24.0
 40
24.0
 40
24.0
 40
24.0
 10
11.855434838616
 20
-19.90128308964274
 10
11.85009494061387
 20
-20.12762586302365
 10
11.90831705431459
 20
-20.26818575882184
 10
12.02992892494391
 20
-20.32296277703731
 10
12.08160535722265
 20
-20.35086805046784
 10
12.16153157248045
 20
-20.36671548969999
 10
12.27022433504008
 20
-20.36947156608819
 10
12.29571804163093
 20
-20.36981607563671
 10
12.32000596480194
 20
-20.36947156608819
 10
12.34377712365017
 20
-20.36878254699114
 10
12.55375569347614
 20
-20.36430392286031
 10
12.67502305455694
 20
-20.26646321107922
 10
12.70792371644107
 20
-20.07560492119638
 10
12.70792371644107
 20
-20.07560492119638
 10
12.7124023405719
 20
-19.98844400541956
 10
12.7124023405719
 20
-19.98844400541956
 10
12.7124023405719
 20
-19.98844400541956
 10
13.17370062604685
 20
-19.99981282052088
 10
13.17370062604685
 20
-19.99981282052088
 10
13.17370062604685
 20
-19.99981282052088
 10
13.02314995334144
 20
-22.36314832340227
 10
13.02314995334144
 20
-22.36314832340227
 10
13.02314995334144
 20
-22.36314832340227
 10
11.33677571331164
 20
-22.32180717757927
 10
11.33677571331164
 20
-22.32180717757927
 10
11.33677571331164
 20
-22.32180717757927
 10
11.34745550931591
 20
-21.87118868810859
 10
11.34745550931591
 20
-21.87118868810859
 10
11.34745550931591
 20
-21.87118868810859
 10
12.58906792219996
 20
-21.90185003792732
 10
12.58906792219996
 20
-21.90185003792732
 10
12.58906792219996
 20
-21.90185003792732
 10
12.68725314352958
 20
-20.45008680044304
 10
12.68725314352958
 20
-20.45008680044304
 10
12.47055663750736
 20
-20.67780761201805
 10
12.25954453903581
 20
-20.79390732987097
 10
12.05438910288918
 20
-20.79804144445327
 10
12.03544107772031
 20
-20.79804144445327
 10
12.01184217364634
 20
-20.79459634896802
 10
11.9835923906673
 20
-20.78942870574014
 10
11.77275254697001
 20
-20.76703558508602
 10
11.61548393806835
 20
-20.6812527075033
 10
11.51161430918807
 20
-20.53242458254051
 10
11.42617594115387
 20
-20.40771212597446
 10
11.38707410739629
 20
-20.19342718679192
 10
11.39430880791531
 20
-19.88991427454141
 10
11.39430880791531
 20
-19.88991427454141
 10
11.42703721502519
 20
-18.50085177488868
 10
11.42703721502519
 20
-18.50085177488868
 10
11.44133436128897
 20
-17.89864908406701
 10
11.74639756650785
 20
-17.60478243917519
 10
12.34239908545607
 20
-17.61925184021324
 10
12.93702256621019
 20
-17.63406575079982
 10
13.22709960606823
 20
-17.94205728718115
 10
13.21263020503018
 20
-18.54460448755135
 10
13.21263020503018
 20
-18.54460448755135
 10
13.2019504090259
 20
-19.00211316799253
 10
13.2019504090259
 20
-19.00211316799253
 10
13.2019504090259
 20
-19.00211316799253
 10
12.74065212355095
 20
-18.99074435289121
 10
12.74065212355095
 20
-18.99074435289121
 10
12.74065212355095
 20
-18.99074435289121
 10
12.75167642910375
 20
-18.53323567245003
 10
12.75167642910375
 20
-18.53323567245003
 10
12.75856662007425
 20
-18.23144530794214
 10
12.61886799814737
 20
-18.07710503020295
 10
12.33171928945179
 20
-18.0695258201354
 10
12.04336479733638
 20
-18.0626356291649
 10
11.89557020101916
 20
-18.21008571593359
 10
11.88833550050014
 20
-18.51222058999
 10
11.88833550050014
 20
-18.51222058999
 10
11.855434838616
 20
-19.90128308964274
 10
11.855434838616
 20
-19.90128308964274
 97
        0
 97
        0
 75
     2
 76
     1
 98
        0
  0
SPLINE
  5
9F
330
6F
100
AcDbEntity
  8
Dial
370
     0
100
AcDbSpline
210
0.0
220
0.0
230
1.0
 70
    11
 71
     3
 72
    56
 73
    52
 74
     0
 42
0.0000000001
 43
0.0000000001
 12
1.0
 22
0.0
 32
0.0
 13
1.0
 23
0.0
 33
0.0
 40
0.0
 40
0.0
 40
0.0
 40
0.0
 40
1.0
 40
1.0
 40
1.0
 40
2.0
 40
2.0
 40
2.0
 40
3.0
 40
3.0
 40
3.0
 40
4.0
 40
4.0
 40
4.0
 40
5.0
 40
5.0
 40
5.0
 40
6.0
 40
6.0
 40
6.0
 40
7.0
 40
7.0
 40
7.0
 40
8.0
 40
8.0
 40
8.0
 40
9.0
 40
9.0
 40
9.0
 40
10.0
 40
10.0
 40
10.0
 40
11.0
 40
11.0
 40
11.0
 40
12.0
 40
12.0
 40
12.0
 40
13.0
 40
13.0
 40
13.0
 40
14.0
 40
14.0
 40
14.0
 40
15.0
 40
15.0
 40
15.0
 40
16.0
 40
16.0
 40
16.0
 40
17.0
 40
17.0
 40
17.0
 40
17.0
 10
8.11130506524648
 20
-16.73661837689223
 30
0.0
 10
8.47837998919985
 20
-16.25947265218513
 30
0.0
 10
8.898337128851805
 20
-16.20262857667851
 30
0.0
 10
9.371004229428083
 20
-16.56608615037237
 30
0.0
 10
9.842465546584522
 20
-16.92851019542065
 30
0.0
 10
9.894658743186058
 20
-17.34881184462113
 30
0.0
 10
9.527411564458426
 20
-17.82595756932824
 30
0.0
 10
9.527411564458426
 20
-17.82595756932824
 30
0.0
 10
7.703750269341424
 20
-20.19618326318012
 30
0.0
 10
7.703750269341424
 20
-20.19618326318012
 30
0.0
 10
7.335469561968217
 20
-20.67470702608133
 30
0.0
 10
6.915856931864786
 20
-20.73292913978205
 30
0.0
 10
6.444395614708346
 20
-20.37016058518524
 30
0.0
 10
5.971728514132068
 20
-20.00670301149138
 30
0.0
 10
5.919363062756271
 20
-19.58536783364532
 30
0.0
 10
6.287643770129479
 20
-19.10684407074412
 30
0.0
 10
6.287643770129479
 20
-19.10684407074412
 30
0.0
 10
6.6126885291628
 20
-18.68447536425249
 30
0.0
 10
6.6126885291628
 20
-18.68447536425249
 30
0.0
 10
6.6126885291628
 20
-18.68447536425249
 30
0.0
 10
6.97838541492207
 20
-18.9659396653974
 30
0.0
 10
6.97838541492207
 20
-18.9659396653974
 30
0.0
 10
6.97838541492207
 20
-18.9659396653974
 30
0.0
 10
6.653512910663011
 20
-19.38830837188904
 30
0.0
 10
6.653512910663011
 20
-19.38830837188904
 30
0.0
 10
6.469200302202145
 20
-19.62808701766242
 30
0.0
 10
6.491076658533481
 20
-19.83479274677741
 30
0.0
 10
6.718625215334233
 20
-20.00980359742811
 30
0.0
 10
6.718625215334233
 20
-20.00980359742811
 30
0.0
 10
6.722414820368008
 20
-20.01255967381631
 30
0.0
 10
6.722414820368008
 20
-20.01255967381631
 30
0.0
 10
6.948757593748922
 20
-20.18688150536995
 30
0.0
 10
7.153740775121287
 20
-20.1544976078086
 30
0.0
 10
7.338053383582154
 20
-19.91506347158374
 30
0.0
 10
7.338053383582154
 20
-19.91506347158374
 30
0.0
 10
8.23102213335891
 20
-18.75372178350602
 30
0.0
 10
8.23102213335891
 20
-18.75372178350602
 30
0.0
 10
7.902015514517552
 20
-18.77818196145129
 30
0.0
 10
7.673261174296963
 20
-18.74166394930764
 30
0.0
 10
7.545792641342719
 20
-18.64382323752654
 30
0.0
 10
7.52098795384892
 20
-18.62418619326062
 30
0.0
 10
7.496183266355121
 20
-18.60351562034912
 30
0.0
 10
7.47189534318411
 20
-18.58077799014647
 30
0.0
 10
7.329268390094766
 20
-18.44504122802763
 30
0.0
 10
7.251064722579596
 20
-18.30000270809861
 30
0.0
 10
7.237112085864333
 20
-18.14428439216532
 30
0.0
 10
7.221609156180709
 20
-17.98374294255268
 30
0.0
 10
7.315315753379505
 20
-17.77083604156424
 30
0.0
 10
7.518748641783508
 20
-17.5069417273941
 30
0.0
 10
7.518748641783508
 20
-17.5069417273941
 30
0.0
 10
8.11130506524648
 20
-16.73661837689223
 30
0.0
 10
8.11130506524648
 20
-16.73661837689223
 30
0.0
  0
SPLINE
  5
A0
330
6F
100
AcDbEntity
  8
Dial
370
     0
100
AcDbSpline
210
0.0
220
0.0
230
1.0
 70
    11
 71
     3
 72
    29
 73
    25
 74
     0
 42
0.0000000001
 43
0.0000000001
 12
1.0
 22
0.0
 32
0.0
 13
1.0
 23
0.0
 33
0.0
 40
0.0
 40
0.0
 40
0.0
 40
0.0
 40
1.0
 40
1.0
 40
1.0
 40
2.0
 40
2.0
 40
2.0
 40
3.0
 40
3.0
 40
3.0
 40
4.0
 40
4.0
 40
4.0
 40
5.0
 40
5.0
 40
5.0
 40
6.0
 40
6.0
 40
6.0
 40
7.0
 40
7.0
 40
7.0
 40
8.0
 40
8.0
 40
8.0
 40
8.0
 10
9.161714678699155
 20
-17.54483777773185
 30
0.0
 10
9.345682777611497
 20
-17.30540364150698
 30
0.0
 10
9.32380642128016
 20
-17.09800889329494
 30
0.0
 10
9.096257864479409
 20
-16.92299804264425
 30
0.0
 10
8.867503524258819
 20
-16.74695366334798
 30
0.0
 10
8.660970049918092
 20
-16.77864854181228
 30
0.0
 10
8.47700195100575
 20
-17.01808267803715
 30
0.0
 10
8.47700195100575
 20
-17.01808267803715
 30
0.0
 10
7.884445527542778
 20
-17.78840602853901
 30
0.0
 10
7.884445527542778
 20
-17.78840602853901
 30
0.0
 10
7.745435924712947
 20
-17.9689290319661
 30
0.0
 10
7.708745657795036
 20
-18.11741264738037
 30
0.0
 10
7.774891491111833
 20
-18.23351236523329
 30
0.0
 10
7.802969019316619
 20
-18.28484428796351
 30
0.0
 10
7.859468585274716
 20
-18.34341091121276
 30
0.0
 10
7.94473469853465
 20
-18.40886772543251
 30
0.0
 10
7.964543997574837
 20
-18.42402614556761
 30
0.0
 10
7.984353296615023
 20
-18.43815103705713
 30
0.0
 10
8.00416259565521
 20
-18.45124239990108
 30
0.0
 10
8.202427840831337
 20
-18.5921468052478
 30
0.0
 10
8.390702309100242
 20
-18.5466715448425
 30
0.0
 10
8.568986000461921
 20
-18.31481661868519
 30
0.0
 10
8.568986000461921
 20
-18.31481661868519
 30
0.0
 10
9.161714678699155
 20
-17.54483777773185
 30
0.0
 10
9.161714678699155
 20
-17.54483777773185
 30
0.0
  0
HATCH
  5
A1
330
6F
100
AcDbEntity
  8
Dial
 62
   250
420
  2301728
100
AcDbHatch
 10
0.0
 20
0.0
 30
0.0
210
0.0
220
0.0
230
1.0
  2
SOLID
 70
     1
 71
     0
 91
        2
 92
        1
 93
        1
 72
     4
 94
        3
 73
     0
 74
     1
 95
       56
 96
       52
 40
0.0
 40
0.0
 40
0.0
 40
0.0
 40
1.0
 40
1.0
 40
1.0
 40
2.0
 40
2.0
 40
2.0
 40
3.0
 40
3.0
 40
3.0
 40
4.0
 40
4.0
 40
4.0
 40
5.0
 40
5.0
 40
5.0
 40
6.0
 40
6.0
 40
6.0
 40
7.0
 40
7.0
 40
7.0
 40
8.0
 40
8.0
 40
8.0
 40
9.0
 40
9.0
 40
9.0
 40
10.0
 40
10.0
 40
10.0
 40
11.0
 40
11.0
 40
11.0
 40
12.0
 40
12.0
 40
12.0
 40
13.0
 40
13.0
 40
13.0
 40
14.0
 40
14.0
 40
14.0
 40
15.0
 40
15.0
 40
15.0
 40
16.0
 40
16.0
 40
16.0
 40
17.0
 40
17.0
 40
17.0
 40
17.0
 10
8.11130506524648
 20
-16.73661837689223
 10
8.47837998919985
 20
-16.25947265218513
 10
8.898337128851805
 20
-16.20262857667851
 10
9.371004229428083
 20
-16.56608615037237
 10
9.842465546584522
 20
-16.92851019542065
 10
9.894658743186058
 20
-17.34881184462113
 10
9.527411564458426
 20
-17.82595756932824
 10
9.527411564458426
 20
-17.82595756932824
 10
7.703750269341424
 20
-20.19618326318012
 10
7.703750269341424
 20
-20.19618326318012
 10
7.335469561968217
 20
-20.67470702608133
 10
6.915856931864786
 20
-20.73292913978205
 10
6.444395614708346
 20
-20.37016058518524
 10
5.971728514132068
 20
-20.00670301149138
 10
5.919363062756271
 20
-19.58536783364532
 10
6.287643770129479
 20
-19.10684407074412
 10
6.287643770129479
 20
-19.10684407074412
 10
6.6126885291628
 20
-18.68447536425249
 10
6.6126885291628
 20
-18.68447536425249
 10
6.6126885291628
 20
-18.68447536425249
 10
6.97838541492207
 20
-18.9659396653974
 10
6.97838541492207
 20
-18.9659396653974
 10
6.97838541492207
 20
-18.9659396653974
 10
6.653512910663011
 20
-19.38830837188904
 10
6.653512910663011
 20
-19.38830837188904
 10
6.469200302202145
 20
-19.62808701766242
 10
6.491076658533481
 20
-19.83479274677741
 10
6.718625215334233
 20
-20.00980359742811
 10
6.718625215334233
 20
-20.00980359742811
 10
6.722414820368008
 20
-20.01255967381631
 10
6.722414820368008
 20
-20.01255967381631
 10
6.948757593748922
 20
-20.18688150536995
 10
7.153740775121287
 20
-20.1544976078086
 10
7.338053383582154
 20
-19.91506347158374
 10
7.338053383582154
 20
-19.91506347158374
 10
8.23102213335891
 20
-18.75372178350602
 10
8.23102213335891
 20
-18.75372178350602
 10
7.902015514517552
 20
-18.77818196145129
 10
7.673261174296963
 20
-18.74166394930764
 10
7.545792641342719
 20
-18.64382323752654
 10
7.52098795384892
 20
-18.62418619326062
 10
7.496183266355121
 20
-18.60351562034912
 10
7.47189534318411
 20
-18.58077799014647
 10
7.329268390094766
 20
-18.44504122802763
 10
7.251064722579596
 20
-18.30000270809861
 10
7.237112085864333
 20
-18.14428439216532
 10
7.221609156180709
 20
-17.98374294255268
 10
7.315315753379505
 20
-17.77083604156424
 10
7.518748641783508
 20
-17.5069417273941
 10
7.518748641783508
 20
-17.5069417273941
 10
8.11130506524648
 20
-16.73661837689223
 10
8.11130506524648
 20
-16.73661837689223
 97
        0
 97
        0
 92
        1
 93
        1
 72
     4
 94
        3
 73
     0
 74
     1
 95
       29
 96
       25
 40
0.0
 40
0.0
 40
0.0
 40
0.0
 40
1.0
 40
1.0
 40
1.0
 40
2.0
 40
2.0
 40
2.0
 40
3.0
 40
3.0
 40
3.0
 40
4.0
 40
4.0
 40
4.0
 40
5.0
 40
5.0
 40
5.0
 40
6.0
 40
6.0
 40
6.0
 40
7.0
 40
7.0
 40
7.0
 40
8.0
 40
8.0
 40
8.0
 40
8.0
 10
9.161714678699155
 20
-17.54483777773185
 10
9.345682777611497
 20
-17.30540364150698
 10
9.32380642128016
 20
-17.09800889329494
 10
9.096257864479409
 20
-16.92299804264425
 10
8.867503524258819
 20
-16.74695366334798
 10
8.660970049918092
 20
-16.77864854181228
 10
8.47700195100575
 20
-17.01808267803715
 10
8.47700195100575
 20
-17.01808267803715
 10
7.884445527542778
 20
-17.78840602853901
 10
7.884445527542778
 20
-17.78840602853901
 10
7.745435924712947
 20
-17.9689290319661
 10
7.708745657795036
 20
-18.11741264738037
 10
7.774891491111833
 20
-18.23351236523329
 10
7.802969019316619
 20
-18.28484428796351
 10
7.859468585274716
 20
-18.34341091121276
 10
7.94473469853465
 20
-18.40886772543251
 10
7.964543997574837
 20
-18.42402614556761
 10
7.984353296615023
 20
-18.43815103705713
 10
8.00416259565521
 20
-18.45124239990108
 10
8.202427840831337
 20
-18.5921468052478
 10
8.390702309100242
 20
-18.5466715448425
 10
8.568986000461921
 20
-18.31481661868519
 10
8.568986000461921
 20
-18.31481661868519
 10
9.161714678699155
 20
-17.54483777773185
 10
9.161714678699155
 20
-17.54483777773185
 97
        0
 97
        0
 75
     2
 76
     1
 98
        0
  0
POLYLINE
  5
A2
330
6F
100
AcDbEntity
  8
Dial
370
     0
100
AcDb2dPolyline
 66
     1
 10
0.0
 20
0.0
 30
0.0
  0
VERTEX
  5
A3
330
A2
100
AcDbEntity
  8
Dial
370
     0
100
AcDbVertex
100
AcDb2dVertex
 10
3.740340168335749
 20
-16.01349283453829
 30
0.0
  0
VERTEX
  5
A4
330
A2
100
AcDbEntity
  8
Dial
370
     0
100
AcDbVertex
100
AcDb2dVertex
 10
3.309014213582469
 20
-16.13613823381319
 30
0.0
  0
VERTEX
  5
A5
330
A2
100
AcDbEntity
  8
Dial
370
     0
100
AcDbVertex
100
AcDb2dVertex
 10
2.803446451122055
 20
-14.36191405890952
 30
0.0
  0
VERTEX
  5
A6
330
A2
100
AcDbEntity
  8
Dial
370
     0
100
AcDbVertex
100
AcDb2dVertex
 10
3.155190700166064
 20
-14.26200628983728
 30
0.0
  0
VERTEX
  5
A7
330
A2
100
AcDbEntity
  8
Dial
370
     0
100
AcDbVertex
100
AcDb2dVertex
 10
7.534596081015657
 20
-14.02119411541831
 30
0.0
  0
VERTEX
  5
A8
330
A2
100
AcDbEntity
  8
Dial
370
     0
100
AcDbVertex
100
AcDb2dVertex
 10
7.664303926035314
 20
-14.47629122901982
 30
0.0
  0
VERTEX
  5
A9
330
A2
100
AcDbEntity
  8
Dial
370
     0
100
AcDbVertex
100
AcDb2dVertex
 10
3.370164658445653
 20
-14.71434732705058
 30
0.0
  0
VERTEX
  5
AA
330
A2
100
AcDbEntity
  8
Dial
370
     0
100
AcDbVertex
100
AcDb2dVertex
 10
3.740340168335749
 20
-16.01349283453829
 30
0.0
  0
SEQEND
  5
AB
330
A2
100
AcDbEntity
  8
Dial
370
     0
  0
HATCH
  5
AC
330
6F
100
AcDbEntity
  8
Dial
 62
   250
420
  2301728
100
AcDbHatch
 10
0.0
 20
0.0
 30
0.0
210
0.0
220
0.0
230
1.0
  2
SOLID
 70
     1
 71
     0
 91
        1
 92
        1
 93
        7
 72
     1
 10
3.740340168335749
 20
-16.01349283453829
 11
3.309014213582469
 21
-16.13613823381319
 72
     1
 10
3.309014213582469
 20
-16.13613823381319
 11
2.803446451122055
 21
-14.36191405890952
 72
     1
 10
2.803446451122055
 20
-14.36191405890952
 11
3.155190700166064
 21
-14.26200628983728
 72
     1
 10
3.155190700166064
 20
-14.26200628983728
 11
7.534596081015657
 21
-14.02119411541831
 72
     1
 10
7.534596081015657
 20
-14.02119411541831
 11
7.664303926035314
 21
-14.47629122901982
 72
     1
 10
7.664303926035314
 20
-14.47629122901982
 11
3.370164658445653
 21
-14.71434732705058
 72
     1
 10
3.370164658445653
 20
-14.71434732705058
 11
3.740340168335749
 21
-16.01349283453829
 97
        0
 75
     2
 76
     1
 98
        0
  0
SPLINE
  5
AD
330
6F
100
AcDbEntity
  8
Dial
370
     0
100
AcDbSpline
210
0.0
220
0.0
230
1.0
 70
    11
 71
     3
 72
    41
 73
    37
 74
     0
 42
0.0000000001
 43
0.0000000001
 12
1.0
 22
0.0
 32
0.0
 13
1.0
 23
0.0
 33
0.0
 40
0.0
 40
0.0
 40
0.0
 40
0.0
 40
1.0
 40
1.0
 40
1.0
 40
2.0
 40
2.0
 40
2.0
 40
3.0
 40
3.0
 40
3.0
 40
4.0
 40
4.0
 40
4.0
 40
5.0
 40
5.0
 40
5.0
 40
6.0
 40
6.0
 40
6.0
 40
7.0
 40
7.0
 40
7.0
 40
8.0
 40
8.0
 40
8.0
 40
9.0
 40
9.0
 40
9.0
 40
10.0
 40
10.0
 40
10.0
 40
11.0
 40
11.0
 40
11.0
 40
12.0
 40
12.0
 40
12.0
 40
12.0
 10
3.747574868854773
 20
-10.31168755167555
 30
0.0
 10
3.182234699725275
 20
-10.10239800094662
 30
0.0
 10
3.002228460620971
 20
-9.718097599567004
 30
0.0
 10
3.207556151541861
 20
-9.158441837988168
 30
0.0
 10
3.413745116334064
 20
-8.601369898023268
 30
0.0
 10
3.800112575004833
 20
-8.427392576018152
 30
0.0
 10
4.366830782328432
 20
-8.637543400618393
 30
0.0
 10
4.366830782328432
 20
-8.637543400618393
 30
0.0
 10
5.139393444895707
 20
-8.923830835442654
 30
0.0
 10
5.139393444895707
 20
-8.923830835442654
 30
0.0
 10
5.394675020352721
 20
-9.018398706512762
 30
0.0
 10
5.546259221703713
 20
-9.264723033708124
 30
0.0
 10
5.593973794174423
 20
-9.662114797931695
 30
0.0
 10
5.886979165194922
 20
-9.390985783242531
 30
0.0
 10
6.162070039692122
 20
-9.302791338820136
 30
0.0
 10
6.418901908117497
 20
-9.39770371943877
 30
0.0
 10
6.418901908117497
 20
-9.39770371943877
 30
0.0
 10
7.173722328935736
 20
-9.677445472841056
 30
0.0
 10
7.173722328935736
 20
-9.677445472841056
 30
0.0
 10
7.740440536259334
 20
-9.887596297441295
 30
0.0
 10
7.920619030137901
 20
-10.27086317017534
 30
0.0
 10
7.714602320119961
 20
-10.82827961968876
 30
0.0
 10
7.506346298036608
 20
-11.38638508829924
 30
0.0
 10
7.119634329817314
 20
-11.56087917462714
 30
0.0
 10
6.554294160687816
 20
-11.35193413344674
 30
0.0
 10
6.554294160687816
 20
-11.35193413344674
 30
0.0
 10
5.799473739869576
 20
-11.07219238004445
 30
0.0
 10
5.799473739869576
 20
-11.07219238004445
 30
0.0
 10
5.542814126218463
 20
-10.9769354898773
 30
0.0
 10
5.391229924867471
 20
-10.73130018177898
 30
0.0
 10
5.34420437149381
 20
-10.33614772962082
 30
0.0
 10
5.050165471827737
 20
-10.6053819417931
 30
0.0
 10
4.775419106879062
 20
-10.69254285756992
 30
0.0
 10
4.519965276647786
 20
-10.59797498649981
 30
0.0
 10
4.519965276647786
 20
-10.59797498649981
 30
0.0
 10
3.747574868854773
 20
-10.31168755167555
 30
0.0
 10
3.747574868854773
 20
-10.31168755167555
 30
0.0
  0
SPLINE
  5
AE
330
6F
100
AcDbEntity
  8
Dial
370
     0
100
AcDbSpline
210
0.0
220
0.0
230
1.0
 70
    11
 71
     3
 72
    29
 73
    25
 74
     0
 42
0.0000000001
 43
0.0000000001
 12
1.0
 22
0.0
 32
0.0
 13
1.0
 23
0.0
 33
0.0
 40
0.0
 40
0.0
 40
0.0
 40
0.0
 40
1.0
 40
1.0
 40
1.0
 40
2.0
 40
2.0
 40
2.0
 40
3.0
 40
3.0
 40
3.0
 40
4.0
 40
4.0
 40
4.0
 40
5.0
 40
5.0
 40
5.0
 40
6.0
 40
6.0
 40
6.0
 40
7.0
 40
7.0
 40
7.0
 40
8.0
 40
8.0
 40
8.0
 40
8.0
 10
4.679989961937641
 20
-10.1654432483267
 30
0.0
 10
4.958870441468616
 20
-10.2737915013378
 30
0.0
 10
5.145422361994894
 20
-10.21367458512019
 30
0.0
 10
5.240162487839265
 20
-9.98457573535108
 30
0.0
 10
5.250670029069277
 20
-9.96183810514843
 30
0.0
 10
5.260488551202239
 20
-9.93703341765463
 30
0.0
 10
5.270479328109464
 20
-9.910161672869682
 30
0.0
 10
5.306480575930324
 20
-9.812837725411374
 30
0.0
 10
5.324050562905099
 20
-9.733772784024891
 30
0.0
 10
5.323017034259523
 20
-9.672794593935969
 30
0.0
 10
5.312681747803774
 20
-9.537574596139912
 30
0.0
 10
5.198132322919217
 20
-9.431982419517006
 30
0.0
 10
4.979368759605853
 20
-9.356534828390034
 30
0.0
 10
4.979368759605853
 20
-9.356534828390034
 30
0.0
 10
4.206806097038577
 20
-9.069902884017248
 30
0.0
 10
4.206806097038577
 20
-9.069902884017248
 30
0.0
 10
3.923446993376777
 20
-8.964999726491389
 30
0.0
 10
3.732071939171149
 20
-9.047165253814597
 30
0.0
 10
3.632508679647429
 20
-9.316054956438348
 30
0.0
 10
3.532256401026658
 20
-9.58649495203046
 30
0.0
 10
3.624240450482829
 20
-9.774424910750838
 30
0.0
 10
3.907427299370366
 20
-9.879155813502434
 30
0.0
 10
3.907427299370366
 20
-9.879155813502434
 30
0.0
 10
4.679989961937641
 20
-10.1654432483267
 30
0.0
 10
4.679989961937641
 20
-10.1654432483267
 30
0.0
  0
SPLINE
  5
AF
330
6F
100
AcDbEntity
  8
Dial
370
     0
100
AcDbSpline
210
0.0
220
0.0
230
1.0
 70
    11
 71
     3
 72
    23
 73
    19
 74
     0
 42
0.0000000001
 43
0.0000000001
 12
1.0
 22
0.0
 32
0.0
 13
1.0
 23
0.0
 33
0.0
 40
0.0
 40
0.0
 40
0.0
 40
0.0
 40
1.0
 40
1.0
 40
1.0
 40
2.0
 40
2.0
 40
2.0
 40
3.0
 40
3.0
 40
3.0
 40
4.0
 40
4.0
 40
4.0
 40
5.0
 40
5.0
 40
5.0
 40
6.0
 40
6.0
 40
6.0
 40
6.0
 10
6.714491100751933
 20
-10.91923014049936
 30
0.0
 10
6.99767794963947
 20
-11.02396104325095
 30
0.0
 10
7.189225258619361
 20
-10.9411064968307
 30
0.0
 10
7.289649792014393
 20
-10.67066650123858
 30
0.0
 10
7.389040796763851
 20
-10.40177679861483
 30
0.0
 10
7.297229002081943
 20
-10.21470811376577
 30
0.0
 10
7.013869898420144
 20
-10.10980495623991
 30
0.0
 10
7.013869898420144
 20
-10.10980495623991
 30
0.0
 10
6.263355846958467
 20
-9.831785750580249
 30
0.0
 10
6.263355846958467
 20
-9.831785750580249
 30
0.0
 10
5.974312335746006
 20
-9.719820147309628
 30
0.0
 10
5.778803166958077
 20
-9.801296655535788
 30
0.0
 10
5.677172850143207
 20
-10.0758707657102
 30
0.0
 10
5.576059297651124
 20
-10.34941134723904
 30
0.0
 10
5.671488442592545
 20
-10.53768581550794
 30
0.0
 10
5.963977049290256
 20
-10.6412109348397
 30
0.0
 10
5.963977049290256
 20
-10.6412109348397
 30
0.0
 10
6.714491100751933
 20
-10.91923014049936
 30
0.0
 10
6.714491100751933
 20
-10.91923014049936
 30
0.0
  0
HATCH
  5
B0
330
6F
100
AcDbEntity
  8
Dial
 62
   250
420
  2301728
100
AcDbHatch
 10
0.0
 20
0.0
 30
0.0
210
0.0
220
0.0
230
1.0
  2
SOLID
 70
     1
 71
     0
 91
        3
 92
        1
 93
        1
 72
     4
 94
        3
 73
     0
 74
     1
 95
       41
 96
       37
 40
0.0
 40
0.0
 40
0.0
 40
0.0
 40
1.0
 40
1.0
 40
1.0
 40
2.0
 40
2.0
 40
2.0
 40
3.0
 40
3.0
 40
3.0
 40
4.0
 40
4.0
 40
4.0
 40
5.0
 40
5.0
 40
5.0
 40
6.0
 40
6.0
 40
6.0
 40
7.0
 40
7.0
 40
7.0
 40
8.0
 40
8.0
 40
8.0
 40
9.0
 40
9.0
 40
9.0
 40
10.0
 40
10.0
 40
10.0
 40
11.0
 40
11.0
 40
11.0
 40
12.0
 40
12.0
 40
12.0
 40
12.0
 10
3.747574868854773
 20
-10.31168755167555
 10
3.182234699725275
 20
-10.10239800094662
 10
3.002228460620971
 20
-9.718097599567004
 10
3.207556151541861
 20
-9.158441837988168
 10
3.413745116334064
 20
-8.601369898023268
 10
3.800112575004833
 20
-8.427392576018152
 10
4.366830782328432
 20
-8.637543400618393
 10
4.366830782328432
 20
-8.637543400618393
 10
5.139393444895707
 20
-8.923830835442654
 10
5.139393444895707
 20
-8.923830835442654
 10
5.394675020352721
 20
-9.018398706512762
 10
5.546259221703713
 20
-9.264723033708124
 10
5.593973794174423
 20
-9.662114797931695
 10
5.886979165194922
 20
-9.390985783242531
 10
6.162070039692122
 20
-9.302791338820136
 10
6.418901908117497
 20
-9.39770371943877
 10
6.418901908117497
 20
-9.39770371943877
 10
7.173722328935736
 20
-9.677445472841056
 10
7.173722328935736
 20
-9.677445472841056
 10
7.740440536259334
 20
-9.887596297441295
 10
7.920619030137901
 20
-10.27086317017534
 10
7.714602320119961
 20
-10.82827961968876
 10
7.506346298036608
 20
-11.38638508829924
 10
7.119634329817314
 20
-11.56087917462714
 10
6.554294160687816
 20
-11.35193413344674
 10
6.554294160687816
 20
-11.35193413344674
 10
5.799473739869576
 20
-11.07219238004445
 10
5.799473739869576
 20
-11.07219238004445
 10
5.542814126218463
 20
-10.9769354898773
 10
5.391229924867471
 20
-10.73130018177898
 10
5.34420437149381
 20
-10.33614772962082
 10
5.050165471827737
 20
-10.6053819417931
 10
4.775419106879062
 20
-10.69254285756992
 10
4.519965276647786
 20
-10.59797498649981
 10
4.519965276647786
 20
-10.59797498649981
 10
3.747574868854773
 20
-10.31168755167555
 10
3.747574868854773
 20
-10.31168755167555
 97
        0
 97
        0
 92
        1
 93
        1
 72
     4
 94
        3
 73
     0
 74
     1
 95
       29
 96
       25
 40
0.0
 40
0.0
 40
0.0
 40
0.0
 40
1.0
 40
1.0
 40
1.0
 40
2.0
 40
2.0
 40
2.0
 40
3.0
 40
3.0
 40
3.0
 40
4.0
 40
4.0
 40
4.0
 40
5.0
 40
5.0
 40
5.0
 40
6.0
 40
6.0
 40
6.0
 40
7.0
 40
7.0
 40
7.0
 40
8.0
 40
8.0
 40
8.0
 40
8.0
 10
4.679989961937641
 20
-10.1654432483267
 10
4.958870441468616
 20
-10.2737915013378
 10
5.145422361994894
 20
-10.21367458512019
 10
5.240162487839265
 20
-9.98457573535108
 10
5.250670029069277
 20
-9.96183810514843
 10
5.260488551202239
 20
-9.93703341765463
 10
5.270479328109464
 20
-9.910161672869682
 10
5.306480575930324
 20
-9.812837725411374
 10
5.324050562905099
 20
-9.733772784024891
 10
5.323017034259523
 20
-9.672794593935969
 10
5.312681747803774
 20
-9.537574596139912
 10
5.198132322919217
 20
-9.431982419517006
 10
4.979368759605853
 20
-9.356534828390034
 10
4.979368759605853
 20
-9.356534828390034
 10
4.206806097038577
 20
-9.069902884017248
 10
4.206806097038577
 20
-9.069902884017248
 10
3.923446993376777
 20
-8.964999726491389
 10
3.732071939171149
 20
-9.047165253814597
 10
3.632508679647429
 20
-9.316054956438348
 10
3.532256401026658
 20
-9.58649495203046
 10
3.624240450482829
 20
-9.774424910750838
 10
3.907427299370366
 20
-9.879155813502434
 10
3.907427299370366
 20
-9.879155813502434
 10
4.679989961937641
 20
-10.1654432483267
 10
4.679989961937641
 20
-10.1654432483267
 97
        0
 97
        0
 92
        1
 93
        1
 72
     4
 94
        3
 73
     0
 74
     1
 95
       23
 96
       19
 40
0.0
 40
0.0
 40
0.0
 40
0.0
 40
1.0
 40
1.0
 40
1.0
 40
2.0
 40
2.0
 40
2.0
 40
3.0
 40
3.0
 40
3.0
 40
4.0
 40
4.0
 40
4.0
 40
5.0
 40
5.0
 40
5.0
 40
6.0
 40
6.0
 40
6.0
 40
6.0
 10
6.714491100751933
 20
-10.91923014049936
 10
6.99767794963947
 20
-11.02396104325095
 10
7.189225258619361
 20
-10.9411064968307
 10
7.289649792014393
 20
-10.67066650123858
 10
7.389040796763851
 20
-10.40177679861483
 10
7.297229002081943
 20
-10.21470811376577
 10
7.013869898420144
 20
-10.10980495623991
 10
7.013869898420144
 20
-10.10980495623991
 10
6.263355846958467
 20
-9.831785750580249
 10
6.263355846958467
 20
-9.831785750580249
 10
5.974312335746006
 20
-9.719820147309628
 10
5.778803166958077
 20
-9.801296655535788
 10
5.677172850143207
 20
-10.0758707657102
 10
5.576059297651124
 20
-10.34941134723904
 10
5.671488442592545
 20
-10.53768581550794
 10
5.963977049290256
 20
-10.6412109348397
 10
5.963977049290256
 20
-10.6412109348397
 10
6.714491100751933
 20
-10.91923014049936
 10
6.714491100751933
 20
-10.91923014049936
 97
        0
 97
        0
 75
     2
 76
     1
 98
        0
  0
SPLINE
  5
B1
330
6F
100
AcDbEntity
  8
Dial
370
     0
100
AcDbSpline
210
0.0
220
0.0
230
1.0
 70
    11
 71
     3
 72
    56
 73
    52
 74
     0
 42
0.0000000001
 43
0.0000000001
 12
1.0
 22
0.0
 32
0.0
 13
1.0
 23
0.0
 33
0.0
 40
0.0
 40
0.0
 40
0.0
 40
0.0
 40
1.0
 40
1.0
 40
1.0
 40
2.0
 40
2.0
 40
2.0
 40
3.0
 40
3.0
 40
3.0
 40
4.0
 40
4.0
 40
4.0
 40
5.0
 40
5.0
 40
5.0
 40
6.0
 40
6.0
 40
6.0
 40
7.0
 40
7.0
 40
7.0
 40
8.0
 40
8.0
 40
8.0
 40
9.0
 40
9.0
 40
9.0
 40
10.0
 40
10.0
 40
10.0
 40
11.0
 40
11.0
 40
11.0
 40
12.0
 40
12.0
 40
12.0
 40
13.0
 40
13.0
 40
13.0
 40
14.0
 40
14.0
 40
14.0
 40
15.0
 40
15.0
 40
15.0
 40
16.0
 40
16.0
 40
16.0
 40
17.0
 40
17.0
 40
17.0
 40
17.0
 10
6.770818411935768
 20
-5.60069173037066
 30
0.0
 10
6.438022188060634
 20
-5.098396808621234
 30
0.0
 10
6.519670951061054
 20
-4.682229274003054
 30
0.0
 10
7.015592446162769
 20
-4.352016871741857
 30
0.0
 10
7.51134168649022
 20
-4.02456054586886
 30
0.0
 10
7.925958928140038
 20
-4.112410480742731
 30
0.0
 10
8.259616425886485
 20
-4.615911185911995
 30
0.0
 10
8.259616425886485
 20
-4.615911185911995
 30
0.0
 10
9.91274549448362
 20
-7.111538355426977
 30
0.0
 10
9.91274549448362
 20
-7.111538355426977
 30
0.0
 10
10.24571397313302
 20
-7.613488767627878
 30
0.0
 10
10.16354844580981
 20
-8.029484047471795
 30
0.0
 10
9.666593422062519
 20
-8.358490666313156
 30
0.0
 10
9.170844181735067
 20
-8.685946992186153
 30
0.0
 10
8.756743704408036
 20
-8.598786076409331
 30
0.0
 10
8.423602970984378
 20
-8.096318899885643
 30
0.0
 10
8.423602970984378
 20
-8.096318899885643
 30
0.0
 10
8.128013778349942
 20
-7.649490015448739
 30
0.0
 10
8.128013778349942
 20
-7.649490015448739
 30
0.0
 10
8.128013778349942
 20
-7.649490015448739
 30
0.0
 10
8.512486434503824
 20
-7.395069713863038
 30
0.0
 10
8.512486434503824
 20
-7.395069713863038
 30
0.0
 10
8.512486434503824
 20
-7.395069713863038
 30
0.0
 10
8.808247881912521
 20
-7.84172634352568
 30
0.0
 10
8.808247881912521
 20
-7.84172634352568
 30
0.0
 10
8.974301484301565
 20
-8.092357040077605
 30
0.0
 10
9.177389863157043
 20
-8.139382593451266
 30
0.0
 10
9.417513018478955
 20
-7.982458494098136
 30
0.0
 10
9.417513018478955
 20
-7.982458494098136
 30
0.0
 10
9.421474878286993
 20
-7.979530162935673
 30
0.0
 10
9.421474878286993
 20
-7.979530162935673
 30
0.0
 10
9.659358721543494
 20
-7.822089299259756
 30
0.0
 10
9.694843205041568
 20
-7.617622882210178
 30
0.0
 10
9.528272838329737
 20
-7.365614147464153
 30
0.0
 10
9.528272838329737
 20
-7.365614147464153
 30
0.0
 10
8.717297361101926
 20
-6.141571721554885
 30
0.0
 10
8.717297361101926
 20
-6.141571721554885
 30
0.0
 10
8.633409286036093
 20
-6.463171385102958
 30
0.0
 10
8.523166230508098
 20
-6.669188095120898
 30
0.0
 10
8.386395939743679
 20
-6.759449596834443
 30
0.0
 10
8.362797035669718
 20
-6.775469290840856
 30
0.0
 10
8.33747558385313
 20
-6.789938691878905
 30
0.0
 10
8.310776093842446
 20
-6.803891328594166
 30
0.0
 10
8.136454262288803
 20
-6.895014104179024
 30
0.0
 10
7.972812226739436
 20
-6.921885848963973
 30
0.0
 10
7.820022241968606
 20
-6.8850233272718
 30
0.0
 10
7.662064613969901
 20
-6.846438257837002
 30
0.0
 10
7.491360132675771
 20
-6.688480629838296
 30
0.0
 10
7.307908798086218
 20
-6.411839462372735
 30
0.0
 10
7.307908798086218
 20
-6.411839462372735
 30
0.0
 10
6.770818411935768
 20
-5.60069173037066
 30
0.0
 10
6.770818411935768
 20
-5.60069173037066
 30
0.0
  0
SPLINE
  5
B2
330
6F
100
AcDbEntity
  8
Dial
370
     0
100
AcDbSpline
210
0.0
220
0.0
230
1.0
 70
    11
 71
     3
 72
    29
 73
    25
 74
     0
 42
0.0000000001
 43
0.0000000001
 12
1.0
 22
0.0
 32
0.0
 13
1.0
 23
0.0
 33
0.0
 40
0.0
 40
0.0
 40
0.0
 40
0.0
 40
1.0
 40
1.0
 40
1.0
 40
2.0
 40
2.0
 40
2.0
 40
3.0
 40
3.0
 40
3.0
 40
4.0
 40
4.0
 40
4.0
 40
5.0
 40
5.0
 40
5.0
 40
6.0
 40
6.0
 40
6.0
 40
7.0
 40
7.0
 40
7.0
 40
8.0
 40
8.0
 40
8.0
 40
8.0
 10
7.875143769732603
 20
-4.870331487497695
 30
0.0
 10
7.708401148246511
 20
-4.618667262300194
 30
0.0
 10
7.505485024165296
 20
-4.571641708926534
 30
0.0
 10
7.266050887940432
 20
-4.729771591699501
 30
0.0
 10
7.025410968295731
 20
-4.889279512666569
 30
0.0
 10
6.988376191829295
 20
-5.094434948813197
 30
0.0
 10
7.155463322863913
 20
-5.346788193107748
 30
0.0
 10
7.155463322863913
 20
-5.346788193107748
 30
0.0
 10
7.692553709014362
 20
-6.157074651238509
 30
0.0
 10
7.692553709014362
 20
-6.157074651238509
 30
0.0
 10
7.817610675128931
 20
-6.346038138604463
 30
0.0
 10
7.945595972405963
 20
-6.429581704121771
 30
0.0
 10
8.076337346071194
 20
-6.407016328693385
 30
0.0
 10
8.134559459771916
 20
-6.395130749269273
 30
0.0
 10
8.206389700639376
 20
-6.3610243039653
 30
0.0
 10
8.29165581389931
 20
-6.304524738007203
 30
0.0
 10
8.314221189327695
 20
-6.289538572646365
 30
0.0
 10
8.334719507464932
 20
-6.275241426382578
 30
0.0
 10
8.353667532633805
 20
-6.260427515796004
 30
0.0
 10
8.554516599423872
 20
-6.118489581803711
 30
0.0
 10
8.573981388915533
 20
-5.925047470306933
 30
0.0
 10
8.412234155883054
 20
-5.681306964725507
 30
0.0
 10
8.412234155883054
 20
-5.681306964725507
 30
0.0
 10
7.875143769732603
 20
-4.870331487497695
 30
0.0
 10
7.875143769732603
 20
-4.870331487497695
 30
0.0
  0
HATCH
  5
B3
330
6F
100
AcDbEntity
  8
Dial
 62
   250
420
  2301728
100
AcDbHatch
 10
0.0
 20
0.0
 30
0.0
210
0.0
220
0.0
230
1.0
  2
SOLID
 70
     1
 71
     0
 91
        2
 92
        1
 93
        1
 72
     4
 94
        3
 73
     0
 74
     1
 95
       56
 96
       52
 40
0.0
 40
0.0
 40
0.0
 40
0.0
 40
1.0
 40
1.0
 40
1.0
 40
2.0
 40
2.0
 40
2.0
 40
3.0
 40
3.0
 40
3.0
 40
4.0
 40
4.0
 40
4.0
 40
5.0
 40
5.0
 40
5.0
 40
6.0
 40
6.0
 40
6.0
 40
7.0
 40
7.0
 40
7.0
 40
8.0
 40
8.0
 40
8.0
 40
9.0
 40
9.0
 40
9.0
 40
10.0
 40
10.0
 40
10.0
 40
11.0
 40
11.0
 40
11.0
 40
12.0
 40
12.0
 40
12.0
 40
13.0
 40
13.0
 40
13.0
 40
14.0
 40
14.0
 40
14.0
 40
15.0
 40
15.0
 40
15.0
 40
16.0
 40
16.0
 40
16.0
 40
17.0
 40
17.0
 40
17.0
 40
17.0
 10
6.770818411935768
 20
-5.60069173037066
 10
6.438022188060634
 20
-5.098396808621234
 10
6.519670951061054
 20
-4.682229274003054
 10
7.015592446162769
 20
-4.352016871741857
 10
7.51134168649022
 20
-4.02456054586886
 10
7.925958928140038
 20
-4.112410480742731
 10
8.259616425886485
 20
-4.615911185911995
 10
8.259616425886485
 20
-4.615911185911995
 10
9.91274549448362
 20
-7.111538355426977
 10
9.91274549448362
 20
-7.111538355426977
 10
10.24571397313302
 20
-7.613488767627878
 10
10.16354844580981
 20
-8.029484047471795
 10
9.666593422062519
 20
-8.358490666313156
 10
9.170844181735067
 20
-8.685946992186153
 10
8.756743704408036
 20
-8.598786076409331
 10
8.423602970984378
 20
-8.096318899885643
 10
8.423602970984378
 20
-8.096318899885643
 10
8.128013778349942
 20
-7.649490015448739
 10
8.128013778349942
 20
-7.649490015448739
 10
8.128013778349942
 20
-7.649490015448739
 10
8.512486434503824
 20
-7.395069713863038
 10
8.512486434503824
 20
-7.395069713863038
 10
8.512486434503824
 20
-7.395069713863038
 10
8.808247881912521
 20
-7.84172634352568
 10
8.808247881912521
 20
-7.84172634352568
 10
8.974301484301565
 20
-8.092357040077605
 10
9.177389863157043
 20
-8.139382593451266
 10
9.417513018478955
 20
-7.982458494098136
 10
9.417513018478955
 20
-7.982458494098136
 10
9.421474878286993
 20
-7.979530162935673
 10
9.421474878286993
 20
-7.979530162935673
 10
9.659358721543494
 20
-7.822089299259756
 10
9.694843205041568
 20
-7.617622882210178
 10
9.528272838329737
 20
-7.365614147464153
 10
9.528272838329737
 20
-7.365614147464153
 10
8.717297361101926
 20
-6.141571721554885
 10
8.717297361101926
 20
-6.141571721554885
 10
8.633409286036093
 20
-6.463171385102958
 10
8.523166230508098
 20
-6.669188095120898
 10
8.386395939743679
 20
-6.759449596834443
 10
8.362797035669718
 20
-6.775469290840856
 10
8.33747558385313
 20
-6.789938691878905
 10
8.310776093842446
 20
-6.803891328594166
 10
8.136454262288803
 20
-6.895014104179024
 10
7.972812226739436
 20
-6.921885848963973
 10
7.820022241968606
 20
-6.8850233272718
 10
7.662064613969901
 20
-6.846438257837002
 10
7.491360132675771
 20
-6.688480629838296
 10
7.307908798086218
 20
-6.411839462372735
 10
7.307908798086218
 20
-6.411839462372735
 10
6.770818411935768
 20
-5.60069173037066
 10
6.770818411935768
 20
-5.60069173037066
 97
        0
 97
        0
 92
        1
 93
        1
 72
     4
 94
        3
 73
     0
 74
     1
 95
       29
 96
       25
 40
0.0
 40
0.0
 40
0.0
 40
0.0
 40
1.0
 40
1.0
 40
1.0
 40
2.0
 40
2.0
 40
2.0
 40
3.0
 40
3.0
 40
3.0
 40
4.0
 40
4.0
 40
4.0
 40
5.0
 40
5.0
 40
5.0
 40
6.0
 40
6.0
 40
6.0
 40
7.0
 40
7.0
 40
7.0
 40
8.0
 40
8.0
 40
8.0
 40
8.0
 10
7.875143769732603
 20
-4.870331487497695
 10
7.708401148246511
 20
-4.618667262300194
 10
7.505485024165296
 20
-4.571641708926534
 10
7.266050887940432
 20
-4.729771591699501
 10
7.025410968295731
 20
-4.889279512666569
 10
6.988376191829295
 20
-5.094434948813197
 10
7.155463322863913
 20
-5.346788193107748
 10
7.155463322863913
 20
-5.346788193107748
 10
7.692553709014362
 20
-6.157074651238509
 10
7.692553709014362
 20
-6.157074651238509
 10
7.817610675128931
 20
-6.346038138604463
 10
7.945595972405963
 20
-6.429581704121771
 10
8.076337346071194
 20
-6.407016328693385
 10
8.134559459771916
 20
-6.395130749269273
 10
8.206389700639376
 20
-6.3610243039653
 10
8.29165581389931
 20
-6.304524738007203
 10
8.314221189327695
 20
-6.289538572646365
 10
8.334719507464932
 20
-6.275241426382578
 10
8.353667532633805
 20
-6.260427515796004
 10
8.554516599423872
 20
-6.118489581803711
 10
8.573981388915533
 20
-5.925047470306933
 10
8.412234155883054
 20
-5.681306964725507
 10
8.412234155883054
 20
-5.681306964725507
 10
7.875143769732603
 20
-4.870331487497695
 10
7.875143769732603
 20
-4.870331487497695
 97
        0
 97
        0
 75
     2
 76
     1
 98
        0
  0
ENDBLK
  5
72
330
6F
100
AcDbEntity
  8
0
100
AcDbBlockEnd
  0
ENDSEC
  0
SECTION
  2
ENTITIES
  0
SPLINE
  5
41
330
1F
100
AcDbEntity
  8
Dial
 62
   250
420
  2301728
370
     9
100
AcDbSpline
210
0.0
220
0.0
230
1.0
 70
    11
 71
     3
 72
   101
 73
    97
 74
     0
 42
0.0000000001
 43
0.0000000001
 12
1.0
 22
0.0
 32
0.0
 13
1.0
 23
0.0
 33
0.0
 40
0.0
 40
0.0
 40
0.0
 40
0.0
 40
1.0
 40
1.0
 40
1.0
 40
2.0
 40
2.0
 40
2.0
 40
3.0
 40
3.0
 40
3.0
 40
4.0
 40
4.0
 40
4.0
 40
5.0
 40
5.0
 40
5.0
 40
6.0
 40
6.0
 40
6.0
 40
7.0
 40
7.0
 40
7.0
 40
8.0
 40
8.0
 40
8.0
 40
9.0
 40
9.0
 40
9.0
 40
10.0
 40
10.0
 40
10.0
 40
11.0
 40
11.0
 40
11.0
 40
12.0
 40
12.0
 40
12.0
 40
13.0
 40
13.0
 40
13.0
 40
14.0
 40
14.0
 40
14.0
 40
15.0
 40
15.0
 40
15.0
 40
16.0
 40
16.0
 40
16.0
 40
17.0
 40
17.0
 40
17.0
 40
18.0
 40
18.0
 40
18.0
 40
19.0
 40
19.0
 40
19.0
 40
20.0
 40
20.0
 40
20.0
 40
21.0
 40
21.0
 40
21.0
 40
22.0
 40
22.0
 40
22.0
 40
23.0
 40
23.0
 40
23.0
 40
24.0
 40
24.0
 40
24.0
 40
25.0
 40
25.0
 40
25.0
 40
26.0
 40
26.0
 40
26.0
 40
27.0
 40
27.0
 40
27.0
 40
28.0
 40
28.0
 40
28.0
 40
29.0
 40
29.0
 40
29.0
 40
30.0
 40
30.0
 40
30.0
 40
31.0
 40
31.0
 40
31.0
 40
32.0
 40
32.0
 40
32.0
 40
32.0
 10
23.37873673533451
 20
-16.05001859794111
 30
0.0
 10
23.17414178471153
 20
-16.67385914458048
 30
0.0
 10
22.9195917040762
 20
-17.26867740742658
 30
0.0
 10
22.62017603718669
 20
-17.8319189674025
 30
0.0
 10
22.29039418145987
 20
-17.76245889096938
 30
0.0
 10
21.69908059357424
 20
-18.17961968098068
 30
0.0
 10
21.21386264618451
 20
-18.84323654193013
 30
0.0
 10
20.73118225305388
 20
-19.5119222787951
 30
0.0
 10
20.51418939153583
 20
-20.19949462574604
 30
0.0
 10
20.68305136862308
 20
-20.48760903562642
 30
0.0
 10
19.76650969812452
 20
-21.41723180032828
 30
0.0
 10
18.70478654667506
 20
-22.18084207954683
 30
0.0
 10
17.5461839881323
 20
-22.74760172304326
 30
0.0
 10
17.31370490337838
 20
-22.49805115793029
 30
0.0
 10
16.59490426076139
 20
-22.48805391466164
 30
0.0
 10
15.8149989982468
 20
-22.74200183493273
 30
0.0
 10
15.02741213769383
 20
-22.9934433751262
 30
0.0
 10
14.44770018965034
 20
-23.42708647177906
 30
0.0
 10
14.41125424201958
 20
-23.75837256721459
 30
0.0
 10
13.15111254700742
 20
-23.97426931445847
 30
0.0
 10
11.8463680605886
 20
-23.97644512554499
 30
0.0
 10
10.54158515636987
 20
-23.74561675821913
 30
0.0
 10
10.50269261244662
 20
-23.41092765013698
 30
0.0
 10
9.925776083413657
 20
-22.98118987254488
 30
0.0
 10
9.146843306730286
 20
-22.72703681948133
 30
0.0
 10
8.36793394955281
 20
-22.47289140781936
 30
0.0
 10
7.647925063456825
 20
-22.47946358791954
 30
0.0
 10
7.4182192906101
 20
-22.72651344869047
 30
0.0
 10
6.228918461044239
 20
-22.14356299643856
 30
0.0
 10
5.177707461329074
 20
-21.37267735876984
 30
0.0
 10
4.289109461190963
 20
-20.4556819158361
 30
0.0
 10
4.456002058434558
 20
-20.16695843331595
 30
0.0
 10
4.245305671749518
 20
-19.47541799628753
 30
0.0
 10
3.75896507227566
 20
-18.80831471603123
 30
0.0
 10
3.280329490346734
 20
-18.14372545725606
 30
0.0
 10
2.694546539303573
 20
-17.72805836435674
 30
0.0
 10
2.359149437376067
 20
-17.79232019733925
 30
0.0
 10
1.760352249607408
 20
-16.65214969689908
 30
0.0
 10
1.356342185137145
 20
-15.41029458968696
 30
0.0
 10
1.167811035412721
 20
-14.12010459822963
 30
0.0
 10
1.474739746572309
 20
-13.98723292515126
 30
0.0
 10
1.707095804166826
 20
-13.30467333835814
 30
0.0
 10
1.713962089544407
 20
-12.48073722328735
 30
0.0
 10
1.715731170154479
 20
-11.65937888686016
 30
0.0
 10
1.485910031159287
 20
-10.97429523615926
 30
0.0
 10
1.178728156872527
 20
-10.83592444256065
 30
0.0
 10
1.270928032780244
 20
-10.20507175169141
 30
0.0
 10
1.418052838410419
 20
-9.575202374762217
 30
0.0
 10
1.622647789033078
 20
-8.951361828123165
 30
0.0
 10
1.827242739656057
 20
-8.327521281484113
 30
0.0
 10
2.081769400784534
 20
-7.732695377235163
 30
0.0
 10
2.381185067674362
 20
-7.169453817259554
 30
0.0
 10
2.710966923400859
 20
-7.23891389369332
 30
0.0
 10
3.302280511287135
 20
-6.82175310368074
 30
0.0
 10
3.787521878182436
 20
-6.158143884135106
 30
0.0
 10
4.270178851807173
 20
-5.489450505866637
 30
0.0
 10
4.487171713325221
 20
-4.801878158916983
 30
0.0
 10
4.318309736238295
 20
-4.51376374903532
 30
0.0
 10
5.23485140673621
 20
-3.584140984334423
 30
0.0
 10
6.296574558185991
 20
-2.820530705115227
 30
0.0
 10
7.455177116728755
 20
-2.253771061618481
 30
0.0
 10
7.687656201482992
 20
-2.503321626732403
 30
0.0
 10
8.406480263606207
 20
-2.513326511403597
 30
0.0
 10
9.186362106614572
 20
-2.259370949728685
 30
0.0
 10
9.973948967168191
 20
-2.007929409535539
 30
0.0
 10
10.5536609152104
 20
-1.574286312882994
 30
0.0
 10
10.59011452385176
 20
-1.242976857882685
 30
0.0
 10
11.85024855785396
 20
-1.027103470203264
 30
0.0
 10
13.15500070528275
 20
-1.02490429955228
 30
0.0
 10
14.45977594849151
 20
-1.255756026442604
 30
0.0
 10
14.49869191192065
 20
-1.590452775928255
 30
0.0
 10
15.07561610196455
 20
-2.020167193954925
 30
0.0
 10
15.85452545914106
 20
-2.274312605615935
 30
0.0
 10
16.63345823582475
 20
-2.528465658680123
 30
0.0
 10
17.35345946091012
 20
-2.521916838145697
 30
0.0
 10
17.58314181425095
 20
-2.274859335972231
 30
0.0
 10
18.77245030482775
 20
-2.857786428658712
 30
0.0
 10
19.82365364353166
 20
-3.62869542589254
 30
0.0
 10
20.7122593046807
 20
-4.54566750926117
 30
0.0
 10
20.54535904642649
 20
-4.834414351346751
 30
0.0
 10
20.75605543311153
 20
-5.525954788375175
 30
0.0
 10
21.24239603258571
 20
-6.193058068630827
 30
0.0
 10
21.72105503402021
 20
-6.857654968808209
 30
0.0
 10
22.30681456555716
 20
-7.273314420304672
 30
0.0
 10
22.64221166748499
 20
-7.209052587322809
 30
0.0
 10
23.24100885525365
 20
-8.349223087763294
 30
0.0
 10
23.64501891972391
 20
-9.591078194975097
 30
0.0
 10
23.83355006944833
 20
-10.8812681864321
 30
0.0
 10
23.52662135828842
 20
-11.01413985951112
 30
0.0
 10
23.29426530069359
 20
-11.6966994463036
 30
0.0
 10
23.28742243482254
 20
-12.52064320277789
 30
0.0
 10
23.28562993470657
 20
-13.3419938978019
 30
0.0
 10
23.51545107370177
 20
-14.02707754850312
 30
0.0
 10
23.82263294798789
 20
-14.16544834210108
 30
0.0
 10
23.73043307208081
 20
-14.79630103297065
 30
0.0
 10
23.58333168595749
 20
-15.42617805130302
 30
0.0
 10
23.37873673533451
 20
-16.05001859794111
 30
0.0
  0
INSERT
  5
43
330
1F
100
AcDbEntity
  8
Dial
100
AcDbBlockReference
  2
block 2
 10
0.0
 20
0.0
 30
0.0
  0
INSERT
  5
70
330
1F
100
AcDbEntity
  8
Dial
100
AcDbBlockReference
  2
block 3
 10
0.0
 20
0.0
 30
0.0
  0
SPLINE
  5
B5
330
1F
100
AcDbEntity
  8
Icons
370
     0
100
AcDbSpline
210
0.0
220
0.0
230
1.0
 70
    11
 71
     3
 72
   254
 73
   250
 74
     0
 42
0.0000000001
 43
0.0000000001
 12
1.0
 22
0.0
 32
0.0
 13
1.0
 23
0.0
 33
0.0
 40
0.0
 40
0.0
 40
0.0
 40
0.0
 40
1.0
 40
1.0
 40
1.0
 40
2.0
 40
2.0
 40
2.0
 40
3.0
 40
3.0
 40
3.0
 40
4.0
 40
4.0
 40
4.0
 40
5.0
 40
5.0
 40
5.0
 40
6.0
 40
6.0
 40
6.0
 40
7.0
 40
7.0
 40
7.0
 40
8.0
 40
8.0
 40
8.0
 40
9.0
 40
9.0
 40
9.0
 40
10.0
 40
10.0
 40
10.0
 40
11.0
 40
11.0
 40
11.0
 40
12.0
 40
12.0
 40
12.0
 40
13.0
 40
13.0
 40
13.0
 40
14.0
 40
14.0
 40
14.0
 40
15.0
 40
15.0
 40
15.0
 40
16.0
 40
16.0
 40
16.0
 40
17.0
 40
17.0
 40
17.0
 40
18.0
 40
18.0
 40
18.0
 40
19.0
 40
19.0
 40
19.0
 40
20.0
 40
20.0
 40
20.0
 40
21.0
 40
21.0
 40
21.0
 40
22.0
 40
22.0
 40
22.0
 40
23.0
 40
23.0
 40
23.0
 40
24.0
 40
24.0
 40
24.0
 40
25.0
 40
25.0
 40
25.0
 40
26.0
 40
26.0
 40
26.0
 40
27.0
 40
27.0
 40
27.0
 40
28.0
 40
28.0
 40
28.0
 40
29.0
 40
29.0
 40
29.0
 40
30.0
 40
30.0
 40
30.0
 40
31.0
 40
31.0
 40
31.0
 40
32.0
 40
32.0
 40
32.0
 40
33.0
 40
33.0
 40
33.0
 40
34.0
 40
34.0
 40
34.0
 40
35.0
 40
35.0
 40
35.0
 40
36.0
 40
36.0
 40
36.0
 40
37.0
 40
37.0
 40
37.0
 40
38.0
 40
38.0
 40
38.0
 40
39.0
 40
39.0
 40
39.0
 40
40.0
 40
40.0
 40
40.0
 40
41.0
 40
41.0
 40
41.0
 40
42.0
 40
42.0
 40
42.0
 40
43.0
 40
43.0
 40
43.0
 40
44.0
 40
44.0
 40
44.0
 40
45.0
 40
45.0
 40
45.0
 40
46.0
 40
46.0
 40
46.0
 40
47.0
 40
47.0
 40
47.0
 40
48.0
 40
48.0
 40
48.0
 40
49.0
 40
49.0
 40
49.0
 40
50.0
 40
50.0
 40
50.0
 40
51.0
 40
51.0
 40
51.0
 40
52.0
 40
52.0
 40
52.0
 40
53.0
 40
53.0
 40
53.0
 40
54.0
 40
54.0
 40
54.0
 40
55.0
 40
55.0
 40
55.0
 40
56.0
 40
56.0
 40
56.0
 40
57.0
 40
57.0
 40
57.0
 40
58.0
 40
58.0
 40
58.0
 40
59.0
 40
59.0
 40
59.0
 40
60.0
 40
60.0
 40
60.0
 40
61.0
 40
61.0
 40
61.0
 40
62.0
 40
62.0
 40
62.0
 40
63.0
 40
63.0
 40
63.0
 40
64.0
 40
64.0
 40
64.0
 40
65.0
 40
65.0
 40
65.0
 40
66.0
 40
66.0
 40
66.0
 40
67.0
 40
67.0
 40
67.0
 40
68.0
 40
68.0
 40
68.0
 40
69.0
 40
69.0
 40
69.0
 40
70.0
 40
70.0
 40
70.0
 40
71.0
 40
71.0
 40
71.0
 40
72.0
 40
72.0
 40
72.0
 40
73.0
 40
73.0
 40
73.0
 40
74.0
 40
74.0
 40
74.0
 40
75.0
 40
75.0
 40
75.0
 40
76.0
 40
76.0
 40
76.0
 40
77.0
 40
77.0
 40
77.0
 40
78.0
 40
78.0
 40
78.0
 40
79.0
 40
79.0
 40
79.0
 40
80.0
 40
80.0
 40
80.0
 40
81.0
 40
81.0
 40
81.0
 40
82.0
 40
82.0
 40
82.0
 40
83.0
 40
83.0
 40
83.0
 40
83.0
 10
13.52586584933265
 20
-14.93261139705765
 30
0.0
 10
13.59995739773088
 20
-15.07952814602419
 30
0.0
 10
13.67192539566561
 20
-15.22223481735889
 30
0.0
 10
13.74675400988107
 20
-15.37061285314145
 30
0.0
 10
12.91388361507453
 20
-15.37061285314145
 30
0.0
 10
12.08962075874419
 20
-15.37061285314145
 30
0.0
 10
11.25482968602195
 20
-15.37061285314145
 30
0.0
 10
11.32939347033605
 20
-15.22245469040051
 30
0.0
 10
11.40175550191806
 20
-15.07867056560314
 30
0.0
 10
11.47195544858509
 20
-14.93918340984572
 30
0.0
 10
11.30611337307184
 20
-14.88881434931658
 30
0.0
 10
11.1405519945859
 20
-14.84662139253406
 30
0.0
 10
10.98088770931778
 20
-14.78828778994918
 30
0.0
 10
10.68405211322309
 20
-14.67983900086445
 30
0.0
 10
10.41847494573645
 20
-14.52205629237933
 30
0.0
 10
10.22818880587374
 20
-14.26013687539916
 30
0.0
 10
10.05482684564218
 20
-14.02151266723194
 30
0.0
 10
9.990481302066419
 20
-13.75100120111308
 30
0.0
 10
10.00780291544496
 20
-13.46068038281173
 30
0.0
 10
10.03578138227913
 20
-12.99174029628181
 30
0.0
 10
10.21159802479856
 20
-12.57320478242051
 30
0.0
 10
10.46225121509675
 20
-12.18362073027449
 30
0.0
 10
10.69559790356611
 20
-11.82093599144798
 30
0.0
 10
10.91562527248807
 20
-11.45179370981997
 30
0.0
 10
11.05629301803356
 20
-11.04161563829605
 30
0.0
 10
11.09279232083146
 20
-10.93518612998571
 30
0.0
 10
11.11632251423704
 20
-10.82430891492961
 30
0.0
 10
11.14843455648611
 20
-10.70578676708596
 30
0.0
 10
11.01868830540483
 20
-10.70578676708596
 30
0.0
 10
10.90178554896252
 20
-10.70578884492413
 30
0.0
 10
10.78488279251957
 20
-10.70578487814248
 30
0.0
 10
10.7663178764238
 20
-10.70578431145934
 30
0.0
 10
10.74774521565815
 20
-10.7054099228256
 30
0.0
 10
10.72918955538569
 20
-10.70581585681846
 30
0.0
 10
10.69326449146086
 20
-10.70660127959266
 30
0.0
 10
10.66758619132373
 20
-10.69360988066486
 30
0.0
 10
10.66700288552109
 20
-10.65410186840238
 30
0.0
 10
10.66639559013387
 20
-10.61295066404866
 30
0.0
 10
10.6956388936442
 20
-10.60253993995147
 30
0.0
 10
10.72948630843493
 20
-10.60232195585268
 30
0.0
 10
10.84293475360364
 20
-10.60159112355029
 30
0.0
 10
10.95638962118061
 20
-10.60188787659953
 30
0.0
 10
11.06984203313064
 20
-10.60179852956447
 30
0.0
 10
11.09197516380344
 20
-10.60178115128285
 30
0.0
 10
11.11410829447687
 20
-10.60179588504284
 30
0.0
 10
11.14023880772661
 20
-10.60179588504284
 30
0.0
 10
11.14307713447313
 20
-10.4515931296826
 30
0.0
 10
11.1012449659287
 20
-10.33301204679673
 30
0.0
 10
10.98001180614224
 20
-10.24644289214587
 30
0.0
 10
10.899884516061
 20
-10.18922584415989
 30
0.0
 10
10.81885525538115
 20
-10.13042397244272
 30
0.0
 10
10.75030700105178
 20
-10.06049338914184
 30
0.0
 10
10.64242489506623
 20
-9.950435408951929
 30
0.0
 10
10.63694148051051
 20
-9.825042039644355
 30
0.0
 10
10.72236083515426
 20
-9.735383328740292
 30
0.0
 10
10.83431361473116
 20
-9.617874410276718
 30
0.0
 10
10.99765491773116
 20
-9.59578699204022
 30
0.0
 10
11.11135874808291
 20
-9.687237932689985
 30
0.0
 10
11.24866795179716
 20
-9.7976742682956
 30
0.0
 10
11.32153093123878
 20
-9.951387247662865
 30
0.0
 10
11.37066008914727
 20
-10.11410501036029
 30
0.0
 10
11.41331810386053
 20
-10.25539157384887
 30
0.0
 10
11.44120571250492
 20
-10.4013906739849
 30
0.0
 10
11.47015301854321
 20
-10.5463988342757
 30
0.0
 10
11.47812284964095
 20
-10.58632316972127
 30
0.0
 10
11.48753545590712
 20
-10.60340262052173
 30
0.0
 10
11.53058599311327
 20
-10.60261020865581
 30
0.0
 10
11.65803377754692
 20
-10.60026489620561
 30
0.0
 10
11.78555183068523
 20
-10.60177132877544
 30
0.0
 10
11.92982859199081
 20
-10.60177132877544
 30
0.0
 10
11.91737403085151
 20
-10.54455654752265
 30
0.0
 10
11.90347518338841
 20
-10.49717844038804
 30
0.0
 10
11.8980913161636
 20
-10.44885151685193
 30
0.0
 10
11.89549590757268
 20
-10.42555347462263
 30
0.0
 10
11.90160890705014
 20
-10.39104738517636
 30
0.0
 10
11.91722442651326
 20
-10.3788993995934
 30
0.0
 10
11.93220337196196
 20
-10.36724631724991
 30
0.0
 10
11.97259087639318
 20
-10.36875784996766
 30
0.0
 10
11.98705111791283
 20
-10.38138657171293
 30
0.0
 10
12.00168023099519
 20
-10.39416263106357
 30
0.0
 10
12.00434024145939
 20
-10.4284411027977
 30
0.0
 10
12.00137006644596
 20
-10.45192520597823
 30
0.0
 10
11.99544747248885
 20
-10.49875136377494
 30
0.0
 10
11.98207866261692
 20
-10.54463569426186
 30
0.0
 10
11.97030752129527
 20
-10.59755142863555
 30
0.0
 10
12.02264637227426
 20
-10.59755142863555
 30
0.0
 10
12.06058996139564
 20
-10.59755142863555
 30
0.0
 10
12.11443278931881
 20
-10.59755142863555
 30
0.0
 10
12.10189927033404
 20
-10.54314531771301
 30
0.0
 10
12.0873502484628
 20
-10.49588035830334
 30
0.0
 10
12.08148394502723
 20
-10.44756117943646
 30
0.0
 10
12.07871022015398
 20
-10.42471365027036
 30
0.0
 10
12.08569553381538
 20
-10.39244671464075
 30
0.0
 10
12.10103337855998
 20
-10.37821900208647
 30
0.0
 10
12.11348680633236
 20
-10.36666754491174
 30
0.0
 10
12.15339300791878
 20
-10.36645768327094
 30
0.0
 10
12.16594541633989
 20
-10.37788711468489
 30
0.0
 10
12.18163989364784
 20
-10.39217716238022
 30
0.0
 10
12.18956098999921
 20
-10.42438384070696
 30
0.0
 10
12.18704907271693
 20
-10.44734735101402
 30
0.0
 10
12.18173736314122
 20
-10.49589943663438
 30
0.0
 10
12.16747054945264
 20
-10.54347172717758
 30
0.0
 10
12.15543571159462
 20
-10.59797341864906
 30
0.0
 10
12.20678475609529
 20
-10.59797341864906
 30
0.0
 10
12.24272115368193
 20
-10.59797341864906
 30
0.0
 10
12.29618505950657
 20
-10.59797341864906
 30
0.0
 10
12.28420122312779
 20
-10.54339616943125
 30
0.0
 10
12.27036093291815
 20
-10.49610514259947
 30
0.0
 10
12.26473868100349
 20
-10.44785661022505
 30
0.0
 10
12.26208471515846
 20
-10.4250818053899
 30
0.0
 10
12.26825853862226
 20
-10.39307648845784
 30
0.0
 10
12.28329830805728
 20
-10.37898100195954
 30
0.0
 10
12.29580802635184
 20
-10.367256139757
 30
0.0
 10
12.33506858699395
 20
-10.36629976758064
 30
0.0
 10
12.34808907565426
 20
-10.37742149007262
 30
0.0
 10
12.3641296074416
 20
-10.39112275402863
 30
0.0
 10
12.37345494451025
 20
-10.42313090437638
 30
0.0
 10
12.37113683284845
 20
-10.44573532649314
 30
0.0
 10
12.3661141316521
 20
-10.49470165745842
 30
0.0
 10
12.35183220641445
 20
-10.54271841644531
 30
0.0
 10
12.33991599421901
 20
-10.59767798786079
 30
0.0
 10
12.38887401383223
 20
-10.59767798786079
 30
0.0
 10
12.42299022530661
 20
-10.59767798786079
 30
0.0
 10
12.47296411882123
 20
-10.59767798786079
 30
0.0
 10
12.4651389808082
 20
-10.54840508133887
 30
0.0
 10
12.45511813468258
 20
-10.50241742563345
 30
0.0
 10
12.45153443076773
 20
-10.45593354442822
 30
0.0
 10
12.44957521840151
 20
-10.43052460765692
 30
0.0
 10
12.45033117365509
 20
-10.3966054130065
 30
0.0
 10
12.46512198031534
 20
-10.38084142257205
 30
0.0
 10
12.47688858817349
 20
-10.36830053670745
 30
0.0
 10
12.52160819599796
 20
-10.367466756975
 30
0.0
 10
12.53395508734868
 20
-10.37955637419856
 30
0.0
 10
12.54930766585327
 20
-10.39458953233063
 30
0.0
 10
12.5522003941769
 20
-10.42874975619253
 30
0.0
 10
12.55011915605087
 20
-10.45378846000611
 30
0.0
 10
12.54634655776941
 20
-10.49916844253522
 30
0.0
 10
12.53491202620754
 20
-10.54391147326211
 30
0.0
 10
12.52533168174397
 20
-10.59626770252273
 30
0.0
 10
12.57322244818844
 20
-10.59626770252273
 30
0.0
 10
12.60860160739519
 20
-10.59626770252273
 30
0.0
 10
12.65996576344494
 20
-10.59626770252273
 30
0.0
 10
12.64899402307933
 20
-10.54424109393081
 30
0.0
 10
12.63534300502537
 20
-10.49668467051484
 30
0.0
 10
12.63032710402571
 20
-10.4482343989573
 30
0.0
 10
12.62793985702649
 20
-10.42517134131966
 30
0.0
 10
12.63487945825095
 20
-10.39096956069749
 30
0.0
 10
12.65062455924906
 20
-10.37910340550875
 30
0.0
 10
12.66594615907799
 20
-10.36755610401038
 30
0.0
 10
12.7056619551431
 20
-10.36898924556675
 30
0.0
 10
12.72037682626826
 20
-10.38151294204347
 30
0.0
 10
12.73490204744931
 20
-10.39387475604888
 30
0.0
 10
12.73757263599844
 20
-10.4279987121925
 30
0.0
 10
12.73473884271702
 20
-10.45127182036595
 30
0.0
 10
12.72906030028146
 20
-10.49790568369723
 30
0.0
 10
12.71607834607135
 20
-10.54365004345925
 30
0.0
 10
12.70451801086079
 20
-10.59713340540305
 30
0.0
 10
12.75584854371453
 20
-10.59713340540305
 30
0.0
 10
12.79175169589262
 20
-10.59713340540305
 30
0.0
 10
12.84423108427997
 20
-10.59713340540305
 30
0.0
 10
12.83341461508559
 20
-10.54546947399431
 30
0.0
 10
12.82015196384688
 20
-10.49820810357753
 30
0.0
 10
12.81488558891646
 20
-10.45007177445744
 30
0.0
 10
12.81231549217205
 20
-10.42657614872105
 30
0.0
 10
12.81709754194568
 20
-10.39217187333823
 30
0.0
 10
12.83239836339351
 20
-10.37971920114241
 30
0.0
 10
12.84716574715359
 20
-10.36770060820006
 30
0.0
 10
12.88758574141584
 20
-10.3681643438695
 30
0.0
 10
12.90230476821607
 20
-10.38044398882563
 30
0.0
 10
12.91722024515808
 20
-10.3928872163028
 30
0.0
 10
12.92101022172148
 20
-10.42733607075595
 30
0.0
 10
12.91806989201648
 20
-10.4506856811473
 30
0.0
 10
12.91217638779252
 20
-10.49748482704968
 30
0.0
 10
12.89837236530212
 20
-10.54328793295954
 30
0.0
 10
12.88612558796417
 20
-10.59699381246659
 30
0.0
 10
12.93828310035205
 20
-10.59699381246659
 30
0.0
 10
12.97607519619235
 20
-10.59699381246659
 30
0.0
 10
13.03012240781996
 20
-10.59699381246659
 30
0.0
 10
13.01812610441117
 20
-10.54404691052254
 30
0.0
 10
13.0039261593297
 20
-10.49694194464167
 30
0.0
 10
12.99808101206303
 20
-10.44882186043628
 30
0.0
 10
12.99527857524603
 20
-10.42575105812941
 30
0.0
 10
13.0012793714711
 20
-10.39355873577454
 30
0.0
 10
13.01633916370873
 20
-10.37890903320579
 30
0.0
 10
13.02846618201654
 20
-10.36711201335544
 30
0.0
 10
13.06839996218076
 20
-10.36609897286941
 30
0.0
 10
13.08115902103726
 20
-10.37726149654447
 30
0.0
 10
13.09709754986772
 20
-10.39120435639445
 30
0.0
 10
13.10595027323206
 20
-10.42341783491885
 30
0.0
 10
13.10345611202178
 20
-10.44616336112679
 30
0.0
 10
13.09810171231695
 20
-10.49499009915593
 30
0.0
 10
13.0835088669532
 20
-10.54280360780402
 30
0.0
 10
13.07037504167357
 20
-10.60139580677606
 30
0.0
 10
13.22143839976622
 20
-10.60139580677606
 30
0.0
 10
13.35701090867815
 20
-10.6027858804165
 30
0.0
 10
13.49244590249083
 20
-10.59911188499437
 30
0.0
 10
13.50512184782807
 20
-10.59876809724786
 30
0.0
 10
13.5248658425572
 20
-10.56771707465334
 30
0.0
 10
13.52792139782468
 20
-10.54876228058568
 30
0.0
 10
13.56076559463776
 20
-10.34500230558345
 30
0.0
 10
13.59902879302701
 20
-10.14173496708878
 30
0.0
 10
13.6940071470704
 20
-9.957076179288974
 30
0.0
 10
13.74126700633214
 20
-9.865193237223268
 30
0.0
 10
13.80222435166326
 20
-9.775276685509882
 30
0.0
 10
13.87521200138505
 20
-9.702834940505207
 30
0.0
 10
14.00073797453801
 20
-9.578248527929805
 30
0.0
 10
14.23715022967664
 20
-9.629121180838906
 30
0.0
 10
14.31625163445469
 20
-9.788328341740554
 30
0.0
 10
14.35376907788654
 20
-9.863840564667399
 30
0.0
 10
14.3385268136912
 20
-9.937126667488808
 30
0.0
 10
14.29454313831672
 20
-10.00522856443036
 30
0.0
 10
14.22913506393041
 20
-10.10650408995962
 30
0.0
 10
14.13444496268951
 20
-10.17599511607035
 30
0.0
 10
14.03436986085815
 20
-10.23881401537897
 30
0.0
 10
13.90361075818427
 20
-10.32089409541785
 30
0.0
 10
13.85878612509157
 20
-10.44386168327472
 30
0.0
 10
13.86015825376756
 20
-10.60179834067041
 30
0.0
 10
13.92239630290015
 20
-10.60179834067041
 30
0.0
 10
13.98112620586421
 20
-10.6017947516772
 30
0.0
 10
14.03985648661704
 20
-10.60179928514199
 30
0.0
 10
14.11824235953712
 20
-10.60180532976149
 30
0.0
 10
14.19663163255474
 20
-10.60136709483199
 30
0.0
 10
14.2750122164322
 20
-10.60202331385996
 30
0.0
 10
14.31237249975061
 20
-10.60233593403612
 30
0.0
 10
14.35587789458972
 20
-10.59989315209254
 30
0.0
 10
14.35639395399842
 20
-10.65356748624048
 30
0.0
 10
14.35690699109704
 20
-10.70692598900814
 30
0.0
 10
14.3153751645957
 20
-10.70597471698034
 30
0.0
 10
14.27671226572651
 20
-10.70589368129702
 30
0.0
 10
14.14079974695725
 20
-10.70560826190958
 30
0.0
 10
14.00488609481916
 20
-10.70578280030431
 30
0.0
 10
13.86412125756969
 20
-10.70578280030431
 30
0.0
 10
13.88444478021515
 20
-10.88557226913296
 30
0.0
 10
13.94135525264352
 20
-11.04960246988633
 30
0.0
 10
14.00758426194512
 20
-11.21093790361192
 30
0.0
 10
14.14740311620909
 20
-11.55154126882143
 30
0.0
 10
14.33276024647996
 20
-11.86725855686504
 30
0.0
 10
14.53354211290515
 20
-12.1747060495569
 30
0.0
 10
14.74860741572238
 20
-12.50402637648562
 30
0.0
 10
14.90578641781509
 20
-12.85859583555314
 30
0.0
 10
14.97064972084832
 20
-13.247927902614
 30
0.0
 10
15.05455130926043
 20
-13.75153388322524
 30
0.0
 10
14.93945041617718
 20
-14.19010693366143
 30
0.0
 10
14.5217702160063
 20
-14.51787568226684
 30
0.0
 10
14.3062100099483
 20
-14.68703360948415
 30
0.0
 10
14.05741535131883
 20
-14.78934484282272
 30
0.0
 10
13.79623413352216
 20
-14.8637503336584
 30
0.0
 10
13.70930985746331
 20
-14.88851438506385
 30
0.0
 10
13.62103234216513
 20
-14.90852660979318
 30
0.0
 10
13.52586584933265
 20
-14.93261139705765
 30
0.0
  0
SPLINE
  5
B6
330
1F
100
AcDbEntity
  8
Icons
370
     0
100
AcDbSpline
210
0.0
220
0.0
230
1.0
 70
    11
 71
     3
 72
    26
 73
    22
 74
     0
 42
0.0000000001
 43
0.0000000001
 12
1.0
 22
0.0
 32
0.0
 13
1.0
 23
0.0
 33
0.0
 40
0.0
 40
0.0
 40
0.0
 40
0.0
 40
1.0
 40
1.0
 40
1.0
 40
2.0
 40
2.0
 40
2.0
 40
3.0
 40
3.0
 40
3.0
 40
4.0
 40
4.0
 40
4.0
 40
5.0
 40
5.0
 40
5.0
 40
6.0
 40
6.0
 40
6.0
 40
7.0
 40
7.0
 40
7.0
 40
7.0
 10
11.49745089897607
 20
-10.70918932130408
 30
0.0
 10
11.49642746930046
 20
-10.72044005864759
 30
0.0
 10
11.49464279532865
 20
-10.72838155559033
 30
0.0
 10
11.49514978780745
 20
-10.73617420377234
 30
0.0
 10
11.51483144739618
 20
-11.03871610977508
 30
0.0
 10
11.45910118696681
 20
-11.33057868389201
 30
0.0
 10
11.37162798388013
 20
-11.61817677879839
 30
0.0
 10
11.26637415410464
 20
-11.96423239099294
 30
0.0
 10
11.15163669378144
 20
-12.30785655490604
 30
0.0
 10
11.06051896279326
 20
-12.65761714119869
 30
0.0
 10
10.98568562621928
 20
-12.94486918162536
 30
0.0
 10
10.94722578879419
 20
-13.23937136561608
 30
0.0
 10
11.00152649666039
 20
-13.5386691997751
 30
0.0
 10
11.08109371494574
 20
-13.97723016097101
 30
0.0
 10
11.47411677792287
 20
-14.31815842448973
 30
0.0
 10
11.91519003418948
 20
-14.32506138020619
 30
0.0
 10
11.91519003418948
 20
-13.11986394475857
 30
0.0
 10
11.91519003418948
 20
-11.91468879884452
 30
0.0
 10
11.91519003418948
 20
-10.70918932130408
 30
0.0
 10
11.77362617377146
 20
-10.70918932130408
 30
0.0
 10
11.63636910490176
 20
-10.70918932130408
 30
0.0
 10
11.49745089897607
 20
-10.70918932130408
 30
0.0
  0
SPLINE
  5
B7
330
1F
100
AcDbEntity
  8
Icons
370
     0
100
AcDbSpline
210
0.0
220
0.0
230
1.0
 70
    11
 71
     3
 72
    29
 73
    25
 74
     0
 42
0.0000000001
 43
0.0000000001
 12
1.0
 22
0.0
 32
0.0
 13
1.0
 23
0.0
 33
0.0
 40
0.0
 40
0.0
 40
0.0
 40
0.0
 40
1.0
 40
1.0
 40
1.0
 40
2.0
 40
2.0
 40
2.0
 40
3.0
 40
3.0
 40
3.0
 40
4.0
 40
4.0
 40
4.0
 40
5.0
 40
5.0
 40
5.0
 40
6.0
 40
6.0
 40
6.0
 40
7.0
 40
7.0
 40
7.0
 40
8.0
 40
8.0
 40
8.0
 40
8.0
 10
13.08651190958705
 20
-10.70946491818411
 30
0.0
 10
13.08651190958705
 20
-11.9182906366182
 30
0.0
 10
13.08651190958705
 20
-13.12299316882762
 30
0.0
 10
13.08651190958705
 20
-14.32921705626251
 30
0.0
 10
13.10983054130114
 20
-14.326580090911
 30
0.0
 10
13.12819258484911
 20
-14.32432620333467
 30
0.0
 10
13.14659240726913
 20
-14.32245010448899
 30
0.0
 10
13.54150214717527
 20
-14.28218235908502
 30
0.0
 10
13.86630978769586
 20
-14.01010760319165
 30
0.0
 10
13.97657951847197
 20
-13.62865960918412
 30
0.0
 10
14.05205490699642
 20
-13.36757246078328
 30
0.0
 10
14.02388055670458
 20
-13.10625788356243
 30
0.0
 10
13.98061808001946
 20
-12.84485377041343
 30
0.0
 10
13.92464527922389
 20
-12.50665351933069
 30
0.0
 10
13.8166728817301
 20
-12.18285419693599
 30
0.0
 10
13.70759998565999
 20
-11.85924868016144
 30
0.0
 10
13.61818797079846
 20
-11.59397336587229
 30
0.0
 10
13.53177219837441
 20
-11.32724469832945
 30
0.0
 10
13.51181210848932
 20
-11.04567157812646
 30
0.0
 10
13.5039903705748
 20
-10.93533327869703
 30
0.0
 10
13.51053140468528
 20
-10.82397683863398
 30
0.0
 10
13.51053140468528
 20
-10.70946491818411
 30
0.0
 10
13.36521270205843
 20
-10.70946491818411
 30
0.0
 10
13.22792616566682
 20
-10.70946491818411
 30
0.0
 10
13.08651190958705
 20
-10.70946491818411
 30
0.0
  0
SPLINE
  5
B8
330
1F
100
AcDbEntity
  8
Icons
370
     0
100
AcDbSpline
210
0.0
220
0.0
230
1.0
 70
    11
 71
     3
 72
    17
 73
    13
 74
     0
 42
0.0000000001
 43
0.0000000001
 12
1.0
 22
0.0
 32
0.0
 13
1.0
 23
0.0
 33
0.0
 40
0.0
 40
0.0
 40
0.0
 40
0.0
 40
1.0
 40
1.0
 40
1.0
 40
2.0
 40
2.0
 40
2.0
 40
3.0
 40
3.0
 40
3.0
 40
4.0
 40
4.0
 40
4.0
 40
4.0
 10
12.09977269755983
 20
-14.32416148744607
 30
0.0
 10
12.09977269755983
 20
-13.11239997277433
 30
0.0
 10
12.09977269755983
 20
-11.91065288181674
 30
0.0
 10
12.09977269755983
 20
-10.70933080318401
 30
0.0
 10
12.05895035829762
 20
-10.70933080318401
 30
0.0
 10
12.02269888490758
 20
-10.70933080318401
 30
0.0
 10
11.98512099527912
 20
-10.70933080318401
 30
0.0
 10
11.98512099527912
 20
-11.91857171143523
 30
0.0
 10
11.98512099527912
 20
-13.124267072434
 30
0.0
 10
11.98512099527912
 20
-14.33512113857108
 30
0.0
 10
12.0259796022593
 20
-14.33121555865709
 30
0.0
 10
12.06230738897286
 20
-14.32774292462933
 30
0.0
 10
12.09977269755983
 20
-14.32416148744607
 30
0.0
  0
SPLINE
  5
B9
330
1F
100
AcDbEntity
  8
Icons
370
     0
100
AcDbSpline
210
0.0
220
0.0
230
1.0
 70
    11
 71
     3
 72
    17
 73
    13
 74
     0
 42
0.0000000001
 43
0.0000000001
 12
1.0
 22
0.0
 32
0.0
 13
1.0
 23
0.0
 33
0.0
 40
0.0
 40
0.0
 40
0.0
 40
0.0
 40
1.0
 40
1.0
 40
1.0
 40
2.0
 40
2.0
 40
2.0
 40
3.0
 40
3.0
 40
3.0
 40
4.0
 40
4.0
 40
4.0
 40
4.0
 10
13.01566103293403
 20
-14.33546794862799
 30
0.0
 10
13.01566103293403
 20
-13.12016239785691
 30
0.0
 10
13.01566103293403
 20
-11.91453541661901
 30
0.0
 10
13.01566103293403
 20
-10.70931229153643
 30
0.0
 10
12.97482207096771
 20
-10.70931229153643
 30
0.0
 10
12.93853961890136
 20
-10.70931229153643
 30
0.0
 10
12.89968895903441
 20
-10.70931229153643
 30
0.0
 10
12.89968895903441
 20
-11.91481913595703
 30
0.0
 10
12.89968895903441
 20
-13.11680310044847
 30
0.0
 10
12.89968895903441
 20
-14.3236635618978
 30
0.0
 10
12.93824909936632
 20
-14.32758803124845
 30
0.0
 10
12.97467019989691
 20
-14.33129564986884
 30
0.0
 10
13.01566103293403
 20
-14.33546794862799
 30
0.0
  0
SPLINE
  5
BA
330
1F
100
AcDbEntity
  8
Icons
370
     0
100
AcDbSpline
210
0.0
220
0.0
230
1.0
 70
    11
 71
     3
 72
    17
 73
    13
 74
     0
 42
0.0000000001
 43
0.0000000001
 12
1.0
 22
0.0
 32
0.0
 13
1.0
 23
0.0
 33
0.0
 40
0.0
 40
0.0
 40
0.0
 40
0.0
 40
1.0
 40
1.0
 40
1.0
 40
2.0
 40
2.0
 40
2.0
 40
3.0
 40
3.0
 40
3.0
 40
4.0
 40
4.0
 40
4.0
 40
4.0
 10
12.16853553588884
 20
-10.70786347174752
 30
0.0
 10
12.16853553588884
 20
-11.91144208247853
 30
0.0
 10
12.16853553588884
 20
-13.10935839568836
 30
0.0
 10
12.16853553588884
 20
-14.31401408209617
 30
0.0
 10
12.20957925934836
 20
-14.30592411418146
 30
0.0
 10
12.24654173113255
 20
-14.29863808069046
 30
0.0
 10
12.28261488824027
 20
-14.29152809674697
 30
0.0
 10
12.28261488824027
 20
-13.09287131762107
 30
0.0
 10
12.28261488824027
 20
-11.90140008018402
 30
0.0
 10
12.28261488824027
 20
-10.70786347174752
 30
0.0
 10
12.24369962649876
 20
-10.70786347174752
 30
0.0
 10
12.2090310878974
 20
-10.70786347174752
 30
0.0
 10
12.16853553588884
 20
-10.70786347174752
 30
0.0
  0
SPLINE
  5
BB
330
1F
100
AcDbEntity
  8
Icons
370
     0
100
AcDbSpline
210
0.0
220
0.0
230
1.0
 70
    11
 71
     3
 72
    17
 73
    13
 74
     0
 42
0.0000000001
 43
0.0000000001
 12
1.0
 22
0.0
 32
0.0
 13
1.0
 23
0.0
 33
0.0
 40
0.0
 40
0.0
 40
0.0
 40
0.0
 40
1.0
 40
1.0
 40
1.0
 40
2.0
 40
2.0
 40
2.0
 40
3.0
 40
3.0
 40
3.0
 40
4.0
 40
4.0
 40
4.0
 40
4.0
 10
12.83114070470505
 20
-14.31349726710996
 30
0.0
 10
12.83114070470505
 20
-13.10777130522525
 30
0.0
 10
12.83114070470505
 20
-11.90836952671818
 30
0.0
 10
12.83114070470505
 20
-10.71028396415592
 30
0.0
 10
12.79076000046987
 20
-10.71028396415592
 30
0.0
 10
12.75484022558767
 20
-10.71028396415592
 30
0.0
 10
12.71823023069048
 20
-10.71028396415592
 30
0.0
 10
12.71823023069048
 20
-11.90648398315513
 30
0.0
 10
12.71823023069048
 20
-13.09806326817049
 30
0.0
 10
12.71823023069048
 20
-14.29241287795738
 30
0.0
 10
12.7572690293478
 20
-14.29970268933661
 30
0.0
 10
12.79293795251208
 20
-14.30636386026664
 30
0.0
 10
12.83114070470505
 20
-14.31349726710996
 30
0.0
  0
SPLINE
  5
BC
330
1F
100
AcDbEntity
  8
Icons
370
     0
100
AcDbSpline
210
0.0
220
0.0
230
1.0
 70
    11
 71
     3
 72
    20
 73
    16
 74
     0
 42
0.0000000001
 43
0.0000000001
 12
1.0
 22
0.0
 32
0.0
 13
1.0
 23
0.0
 33
0.0
 40
0.0
 40
0.0
 40
0.0
 40
0.0
 40
1.0
 40
1.0
 40
1.0
 40
2.0
 40
2.0
 40
2.0
 40
3.0
 40
3.0
 40
3.0
 40
4.0
 40
4.0
 40
4.0
 40
5.0
 40
5.0
 40
5.0
 40
5.0
 10
12.35277932276622
 20
-10.7075729522128
 30
0.0
 10
12.35277932276622
 20
-11.8969512400723
 30
0.0
 10
12.35277932276622
 20
-13.08025392953761
 30
0.0
 10
12.35277932276622
 20
-14.26412632441184
 30
0.0
 10
12.46079969942886
 20
-14.24052586230288
 30
0.0
 10
12.46783714793481
 20
-14.2324147382196
 30
0.0
 10
12.46783752572389
 20
-14.13359276161289
 30
0.0
 10
12.46784168139895
 20
-13.01754893353241
 30
0.0
 10
12.4678397924558
 20
-11.90150510545161
 30
0.0
 10
12.4678397924558
 20
-10.78546127737144
 30
0.0
 10
12.4678397924558
 20
-10.75985759050874
 30
0.0
 10
12.46783941466704
 20
-10.73425390364572
 30
0.0
 10
12.46783941466704
 20
-10.7075729522128
 30
0.0
 10
12.42440995536301
 20
-10.7075729522128
 30
0.0
 10
12.39184532221258
 20
-10.7075729522128
 30
0.0
 10
12.35277932276622
 20
-10.7075729522128
 30
0.0
  0
SPLINE
  5
BD
330
1F
100
AcDbEntity
  8
Icons
370
     0
100
AcDbSpline
210
0.0
220
0.0
230
1.0
 70
    11
 71
     3
 72
    20
 73
    16
 74
     0
 42
0.0000000001
 43
0.0000000001
 12
1.0
 22
0.0
 32
0.0
 13
1.0
 23
0.0
 33
0.0
 40
0.0
 40
0.0
 40
0.0
 40
0.0
 40
1.0
 40
1.0
 40
1.0
 40
2.0
 40
2.0
 40
2.0
 40
3.0
 40
3.0
 40
3.0
 40
4.0
 40
4.0
 40
4.0
 40
5.0
 40
5.0
 40
5.0
 40
5.0
 10
12.64652252919329
 20
-14.26303527055385
 30
0.0
 10
12.64652252919329
 20
-13.07834345191936
 30
0.0
 10
12.64652252919329
 20
-11.89390021826961
 30
0.0
 10
12.64652252919329
 20
-10.70923125585278
 30
0.0
 10
12.60776480535299
 20
-10.70923125585278
 30
0.0
 10
12.57363688242773
 20
-10.70923125585278
 30
0.0
 10
12.53336347019334
 20
-10.70923125585278
 30
0.0
 10
12.53336347019334
 20
-10.73889088254653
 30
0.0
 10
12.53336347019334
 20
-10.76518157821912
 30
0.0
 10
12.53336347019334
 20
-10.79147208499734
 30
0.0
 10
12.53336347019334
 20
-11.90525390304254
 30
0.0
 10
12.53336158125019
 20
-13.0190359099834
 30
0.0
 10
12.53336573692622
 20
-14.13281753913358
 30
0.0
 10
12.5333661147153
 20
-14.23259834354358
 30
0.0
 10
12.5409453122633
 20
-14.24137664252756
 30
0.0
 10
12.64652252919329
 20
-14.26303527055385
 30
0.0
  0
HATCH
  5
BE
330
1F
100
AcDbEntity
  8
Icons
 62
     7
420
 16777215
100
AcDbHatch
 10
0.0
 20
0.0
 30
0.0
210
0.0
220
0.0
230
1.0
  2
SOLID
 70
     1
 71
     0
 91
        9
 92
        1
 93
        1
 72
     4
 94
        3
 73
     0
 74
     1
 95
      254
 96
      250
 40
0.0
 40
0.0
 40
0.0
 40
0.0
 40
1.0
 40
1.0
 40
1.0
 40
2.0
 40
2.0
 40
2.0
 40
3.0
 40
3.0
 40
3.0
 40
4.0
 40
4.0
 40
4.0
 40
5.0
 40
5.0
 40
5.0
 40
6.0
 40
6.0
 40
6.0
 40
7.0
 40
7.0
 40
7.0
 40
8.0
 40
8.0
 40
8.0
 40
9.0
 40
9.0
 40
9.0
 40
10.0
 40
10.0
 40
10.0
 40
11.0
 40
11.0
 40
11.0
 40
12.0
 40
12.0
 40
12.0
 40
13.0
 40
13.0
 40
13.0
 40
14.0
 40
14.0
 40
14.0
 40
15.0
 40
15.0
 40
15.0
 40
16.0
 40
16.0
 40
16.0
 40
17.0
 40
17.0
 40
17.0
 40
18.0
 40
18.0
 40
18.0
 40
19.0
 40
19.0
 40
19.0
 40
20.0
 40
20.0
 40
20.0
 40
21.0
 40
21.0
 40
21.0
 40
22.0
 40
22.0
 40
22.0
 40
23.0
 40
23.0
 40
23.0
 40
24.0
 40
24.0
 40
24.0
 40
25.0
 40
25.0
 40
25.0
 40
26.0
 40
26.0
 40
26.0
 40
27.0
 40
27.0
 40
27.0
 40
28.0
 40
28.0
 40
28.0
 40
29.0
 40
29.0
 40
29.0
 40
30.0
 40
30.0
 40
30.0
 40
31.0
 40
31.0
 40
31.0
 40
32.0
 40
32.0
 40
32.0
 40
33.0
 40
33.0
 40
33.0
 40
34.0
 40
34.0
 40
34.0
 40
35.0
 40
35.0
 40
35.0
 40
36.0
 40
36.0
 40
36.0
 40
37.0
 40
37.0
 40
37.0
 40
38.0
 40
38.0
 40
38.0
 40
39.0
 40
39.0
 40
39.0
 40
40.0
 40
40.0
 40
40.0
 40
41.0
 40
41.0
 40
41.0
 40
42.0
 40
42.0
 40
42.0
 40
43.0
 40
43.0
 40
43.0
 40
44.0
 40
44.0
 40
44.0
 40
45.0
 40
45.0
 40
45.0
 40
46.0
 40
46.0
 40
46.0
 40
47.0
 40
47.0
 40
47.0
 40
48.0
 40
48.0
 40
48.0
 40
49.0
 40
49.0
 40
49.0
 40
50.0
 40
50.0
 40
50.0
 40
51.0
 40
51.0
 40
51.0
 40
52.0
 40
52.0
 40
52.0
 40
53.0
 40
53.0
 40
53.0
 40
54.0
 40
54.0
 40
54.0
 40
55.0
 40
55.0
 40
55.0
 40
56.0
 40
56.0
 40
56.0
 40
57.0
 40
57.0
 40
57.0
 40
58.0
 40
58.0
 40
58.0
 40
59.0
 40
59.0
 40
59.0
 40
60.0
 40
60.0
 40
60.0
 40
61.0
 40
61.0
 40
61.0
 40
62.0
 40
62.0
 40
62.0
 40
63.0
 40
63.0
 40
63.0
 40
64.0
 40
64.0
 40
64.0
 40
65.0
 40
65.0
 40
65.0
 40
66.0
 40
66.0
 40
66.0
 40
67.0
 40
67.0
 40
67.0
 40
68.0
 40
68.0
 40
68.0
 40
69.0
 40
69.0
 40
69.0
 40
70.0
 40
70.0
 40
70.0
 40
71.0
 40
71.0
 40
71.0
 40
72.0
 40
72.0
 40
72.0
 40
73.0
 40
73.0
 40
73.0
 40
74.0
 40
74.0
 40
74.0
 40
75.0
 40
75.0
 40
75.0
 40
76.0
 40
76.0
 40
76.0
 40
77.0
 40
77.0
 40
77.0
 40
78.0
 40
78.0
 40
78.0
 40
79.0
 40
79.0
 40
79.0
 40
80.0
 40
80.0
 40
80.0
 40
81.0
 40
81.0
 40
81.0
 40
82.0
 40
82.0
 40
82.0
 40
83.0
 40
83.0
 40
83.0
 40
83.0
 10
13.52586584933265
 20
-14.93261139705765
 10
13.59995739773088
 20
-15.07952814602419
 10
13.67192539566561
 20
-15.22223481735889
 10
13.74675400988107
 20
-15.37061285314145
 10
12.91388361507453
 20
-15.37061285314145
 10
12.08962075874419
 20
-15.37061285314145
 10
11.25482968602195
 20
-15.37061285314145
 10
11.32939347033605
 20
-15.22245469040051
 10
11.40175550191806
 20
-15.07867056560314
 10
11.47195544858509
 20
-14.93918340984572
 10
11.30611337307184
 20
-14.88881434931658
 10
11.1405519945859
 20
-14.84662139253406
 10
10.98088770931778
 20
-14.78828778994918
 10
10.68405211322309
 20
-14.67983900086445
 10
10.41847494573645
 20
-14.52205629237933
 10
10.22818880587374
 20
-14.26013687539916
 10
10.05482684564218
 20
-14.02151266723194
 10
9.990481302066419
 20
-13.75100120111308
 10
10.00780291544496
 20
-13.46068038281173
 10
10.03578138227913
 20
-12.99174029628181
 10
10.21159802479856
 20
-12.57320478242051
 10
10.46225121509675
 20
-12.18362073027449
 10
10.69559790356611
 20
-11.82093599144798
 10
10.91562527248807
 20
-11.45179370981997
 10
11.05629301803356
 20
-11.04161563829605
 10
11.09279232083146
 20
-10.93518612998571
 10
11.11632251423704
 20
-10.82430891492961
 10
11.14843455648611
 20
-10.70578676708596
 10
11.01868830540483
 20
-10.70578676708596
 10
10.90178554896252
 20
-10.70578884492413
 10
10.78488279251957
 20
-10.70578487814248
 10
10.7663178764238
 20
-10.70578431145934
 10
10.74774521565815
 20
-10.7054099228256
 10
10.72918955538569
 20
-10.70581585681846
 10
10.69326449146086
 20
-10.70660127959266
 10
10.66758619132373
 20
-10.69360988066486
 10
10.66700288552109
 20
-10.65410186840238
 10
10.66639559013387
 20
-10.61295066404866
 10
10.6956388936442
 20
-10.60253993995147
 10
10.72948630843493
 20
-10.60232195585268
 10
10.84293475360364
 20
-10.60159112355029
 10
10.95638962118061
 20
-10.60188787659953
 10
11.06984203313064
 20
-10.60179852956447
 10
11.09197516380344
 20
-10.60178115128285
 10
11.11410829447687
 20
-10.60179588504284
 10
11.14023880772661
 20
-10.60179588504284
 10
11.14307713447313
 20
-10.4515931296826
 10
11.1012449659287
 20
-10.33301204679673
 10
10.98001180614224
 20
-10.24644289214587
 10
10.899884516061
 20
-10.18922584415989
 10
10.81885525538115
 20
-10.13042397244272
 10
10.75030700105178
 20
-10.06049338914184
 10
10.64242489506623
 20
-9.950435408951929
 10
10.63694148051051
 20
-9.825042039644355
 10
10.72236083515426
 20
-9.735383328740292
 10
10.83431361473116
 20
-9.617874410276718
 10
10.99765491773116
 20
-9.59578699204022
 10
11.11135874808291
 20
-9.687237932689985
 10
11.24866795179716
 20
-9.7976742682956
 10
11.32153093123878
 20
-9.951387247662865
 10
11.37066008914727
 20
-10.11410501036029
 10
11.41331810386053
 20
-10.25539157384887
 10
11.44120571250492
 20
-10.4013906739849
 10
11.47015301854321
 20
-10.5463988342757
 10
11.47812284964095
 20
-10.58632316972127
 10
11.48753545590712
 20
-10.60340262052173
 10
11.53058599311327
 20
-10.60261020865581
 10
11.65803377754692
 20
-10.60026489620561
 10
11.78555183068523
 20
-10.60177132877544
 10
11.92982859199081
 20
-10.60177132877544
 10
11.91737403085151
 20
-10.54455654752265
 10
11.90347518338841
 20
-10.49717844038804
 10
11.8980913161636
 20
-10.44885151685193
 10
11.89549590757268
 20
-10.42555347462263
 10
11.90160890705014
 20
-10.39104738517636
 10
11.91722442651326
 20
-10.3788993995934
 10
11.93220337196196
 20
-10.36724631724991
 10
11.97259087639318
 20
-10.36875784996766
 10
11.98705111791283
 20
-10.38138657171293
 10
12.00168023099519
 20
-10.39416263106357
 10
12.00434024145939
 20
-10.4284411027977
 10
12.00137006644596
 20
-10.45192520597823
 10
11.99544747248885
 20
-10.49875136377494
 10
11.98207866261692
 20
-10.54463569426186
 10
11.97030752129527
 20
-10.59755142863555
 10
12.02264637227426
 20
-10.59755142863555
 10
12.06058996139564
 20
-10.59755142863555
 10
12.11443278931881
 20
-10.59755142863555
 10
12.10189927033404
 20
-10.54314531771301
 10
12.0873502484628
 20
-10.49588035830334
 10
12.08148394502723
 20
-10.44756117943646
 10
12.07871022015398
 20
-10.42471365027036
 10
12.08569553381538
 20
-10.39244671464075
 10
12.10103337855998
 20
-10.37821900208647
 10
12.11348680633236
 20
-10.36666754491174
 10
12.15339300791878
 20
-10.36645768327094
 10
12.16594541633989
 20
-10.37788711468489
 10
12.18163989364784
 20
-10.39217716238022
 10
12.18956098999921
 20
-10.42438384070696
 10
12.18704907271693
 20
-10.44734735101402
 10
12.18173736314122
 20
-10.49589943663438
 10
12.16747054945264
 20
-10.54347172717758
 10
12.15543571159462
 20
-10.59797341864906
 10
12.20678475609529
 20
-10.59797341864906
 10
12.24272115368193
 20
-10.59797341864906
 10
12.29618505950657
 20
-10.59797341864906
 10
12.28420122312779
 20
-10.54339616943125
 10
12.27036093291815
 20
-10.49610514259947
 10
12.26473868100349
 20
-10.44785661022505
 10
12.26208471515846
 20
-10.4250818053899
 10
12.26825853862226
 20
-10.39307648845784
 10
12.28329830805728
 20
-10.37898100195954
 10
12.29580802635184
 20
-10.367256139757
 10
12.33506858699395
 20
-10.36629976758064
 10
12.34808907565426
 20
-10.37742149007262
 10
12.3641296074416
 20
-10.39112275402863
 10
12.37345494451025
 20
-10.42313090437638
 10
12.37113683284845
 20
-10.44573532649314
 10
12.3661141316521
 20
-10.49470165745842
 10
12.35183220641445
 20
-10.54271841644531
 10
12.33991599421901
 20
-10.59767798786079
 10
12.38887401383223
 20
-10.59767798786079
 10
12.42299022530661
 20
-10.59767798786079
 10
12.47296411882123
 20
-10.59767798786079
 10
12.4651389808082
 20
-10.54840508133887
 10
12.45511813468258
 20
-10.50241742563345
 10
12.45153443076773
 20
-10.45593354442822
 10
12.44957521840151
 20
-10.43052460765692
 10
12.45033117365509
 20
-10.3966054130065
 10
12.46512198031534
 20
-10.38084142257205
 10
12.47688858817349
 20
-10.36830053670745
 10
12.52160819599796
 20
-10.367466756975
 10
12.53395508734868
 20
-10.37955637419856
 10
12.54930766585327
 20
-10.39458953233063
 10
12.5522003941769
 20
-10.42874975619253
 10
12.55011915605087
 20
-10.45378846000611
 10
12.54634655776941
 20
-10.49916844253522
 10
12.53491202620754
 20
-10.54391147326211
 10
12.52533168174397
 20
-10.59626770252273
 10
12.57322244818844
 20
-10.59626770252273
 10
12.60860160739519
 20
-10.59626770252273
 10
12.65996576344494
 20
-10.59626770252273
 10
12.64899402307933
 20
-10.54424109393081
 10
12.63534300502537
 20
-10.49668467051484
 10
12.63032710402571
 20
-10.4482343989573
 10
12.62793985702649
 20
-10.42517134131966
 10
12.63487945825095
 20
-10.39096956069749
 10
12.65062455924906
 20
-10.37910340550875
 10
12.66594615907799
 20
-10.36755610401038
 10
12.7056619551431
 20
-10.36898924556675
 10
12.72037682626826
 20
-10.38151294204347
 10
12.73490204744931
 20
-10.39387475604888
 10
12.73757263599844
 20
-10.4279987121925
 10
12.73473884271702
 20
-10.45127182036595
 10
12.72906030028146
 20
-10.49790568369723
 10
12.71607834607135
 20
-10.54365004345925
 10
12.70451801086079
 20
-10.59713340540305
 10
12.75584854371453
 20
-10.59713340540305
 10
12.79175169589262
 20
-10.59713340540305
 10
12.84423108427997
 20
-10.59713340540305
 10
12.83341461508559
 20
-10.54546947399431
 10
12.82015196384688
 20
-10.49820810357753
 10
12.81488558891646
 20
-10.45007177445744
 10
12.81231549217205
 20
-10.42657614872105
 10
12.81709754194568
 20
-10.39217187333823
 10
12.83239836339351
 20
-10.37971920114241
 10
12.84716574715359
 20
-10.36770060820006
 10
12.88758574141584
 20
-10.3681643438695
 10
12.90230476821607
 20
-10.38044398882563
 10
12.91722024515808
 20
-10.3928872163028
 10
12.92101022172148
 20
-10.42733607075595
 10
12.91806989201648
 20
-10.4506856811473
 10
12.91217638779252
 20
-10.49748482704968
 10
12.89837236530212
 20
-10.54328793295954
 10
12.88612558796417
 20
-10.59699381246659
 10
12.93828310035205
 20
-10.59699381246659
 10
12.97607519619235
 20
-10.59699381246659
 10
13.03012240781996
 20
-10.59699381246659
 10
13.01812610441117
 20
-10.54404691052254
 10
13.0039261593297
 20
-10.49694194464167
 10
12.99808101206303
 20
-10.44882186043628
 10
12.99527857524603
 20
-10.42575105812941
 10
13.0012793714711
 20
-10.39355873577454
 10
13.01633916370873
 20
-10.37890903320579
 10
13.02846618201654
 20
-10.36711201335544
 10
13.06839996218076
 20
-10.36609897286941
 10
13.08115902103726
 20
-10.37726149654447
 10
13.09709754986772
 20
-10.39120435639445
 10
13.10595027323206
 20
-10.42341783491885
 10
13.10345611202178
 20
-10.44616336112679
 10
13.09810171231695
 20
-10.49499009915593
 10
13.0835088669532
 20
-10.54280360780402
 10
13.07037504167357
 20
-10.60139580677606
 10
13.22143839976622
 20
-10.60139580677606
 10
13.35701090867815
 20
-10.6027858804165
 10
13.49244590249083
 20
-10.59911188499437
 10
13.50512184782807
 20
-10.59876809724786
 10
13.5248658425572
 20
-10.56771707465334
 10
13.52792139782468
 20
-10.54876228058568
 10
13.56076559463776
 20
-10.34500230558345
 10
13.59902879302701
 20
-10.14173496708878
 10
13.6940071470704
 20
-9.957076179288974
 10
13.74126700633214
 20
-9.865193237223268
 10
13.80222435166326
 20
-9.775276685509882
 10
13.87521200138505
 20
-9.702834940505207
 10
14.00073797453801
 20
-9.578248527929805
 10
14.23715022967664
 20
-9.629121180838906
 10
14.31625163445469
 20
-9.788328341740554
 10
14.35376907788654
 20
-9.863840564667399
 10
14.3385268136912
 20
-9.937126667488808
 10
14.29454313831672
 20
-10.00522856443036
 10
14.22913506393041
 20
-10.10650408995962
 10
14.13444496268951
 20
-10.17599511607035
 10
14.03436986085815
 20
-10.23881401537897
 10
13.90361075818427
 20
-10.32089409541785
 10
13.85878612509157
 20
-10.44386168327472
 10
13.86015825376756
 20
-10.60179834067041
 10
13.92239630290015
 20
-10.60179834067041
 10
13.98112620586421
 20
-10.6017947516772
 10
14.03985648661704
 20
-10.60179928514199
 10
14.11824235953712
 20
-10.60180532976149
 10
14.19663163255474
 20
-10.60136709483199
 10
14.2750122164322
 20
-10.60202331385996
 10
14.31237249975061
 20
-10.60233593403612
 10
14.35587789458972
 20
-10.59989315209254
 10
14.35639395399842
 20
-10.65356748624048
 10
14.35690699109704
 20
-10.70692598900814
 10
14.3153751645957
 20
-10.70597471698034
 10
14.27671226572651
 20
-10.70589368129702
 10
14.14079974695725
 20
-10.70560826190958
 10
14.00488609481916
 20
-10.70578280030431
 10
13.86412125756969
 20
-10.70578280030431
 10
13.88444478021515
 20
-10.88557226913296
 10
13.94135525264352
 20
-11.04960246988633
 10
14.00758426194512
 20
-11.21093790361192
 10
14.14740311620909
 20
-11.55154126882143
 10
14.33276024647996
 20
-11.86725855686504
 10
14.53354211290515
 20
-12.1747060495569
 10
14.74860741572238
 20
-12.50402637648562
 10
14.90578641781509
 20
-12.85859583555314
 10
14.97064972084832
 20
-13.247927902614
 10
15.05455130926043
 20
-13.75153388322524
 10
14.93945041617718
 20
-14.19010693366143
 10
14.5217702160063
 20
-14.51787568226684
 10
14.3062100099483
 20
-14.68703360948415
 10
14.05741535131883
 20
-14.78934484282272
 10
13.79623413352216
 20
-14.8637503336584
 10
13.70930985746331
 20
-14.88851438506385
 10
13.62103234216513
 20
-14.90852660979318
 10
13.52586584933265
 20
-14.93261139705765
 97
        0
 97
        0
 92
        1
 93
        1
 72
     4
 94
        3
 73
     0
 74
     1
 95
       26
 96
       22
 40
0.0
 40
0.0
 40
0.0
 40
0.0
 40
1.0
 40
1.0
 40
1.0
 40
2.0
 40
2.0
 40
2.0
 40
3.0
 40
3.0
 40
3.0
 40
4.0
 40
4.0
 40
4.0
 40
5.0
 40
5.0
 40
5.0
 40
6.0
 40
6.0
 40
6.0
 40
7.0
 40
7.0
 40
7.0
 40
7.0
 10
11.49745089897607
 20
-10.70918932130408
 10
11.49642746930046
 20
-10.72044005864759
 10
11.49464279532865
 20
-10.72838155559033
 10
11.49514978780745
 20
-10.73617420377234
 10
11.51483144739618
 20
-11.03871610977508
 10
11.45910118696681
 20
-11.33057868389201
 10
11.37162798388013
 20
-11.61817677879839
 10
11.26637415410464
 20
-11.96423239099294
 10
11.15163669378144
 20
-12.30785655490604
 10
11.06051896279326
 20
-12.65761714119869
 10
10.98568562621928
 20
-12.94486918162536
 10
10.94722578879419
 20
-13.23937136561608
 10
11.00152649666039
 20
-13.5386691997751
 10
11.08109371494574
 20
-13.97723016097101
 10
11.47411677792287
 20
-14.31815842448973
 10
11.91519003418948
 20
-14.32506138020619
 10
11.91519003418948
 20
-13.11986394475857
 10
11.91519003418948
 20
-11.91468879884452
 10
11.91519003418948
 20
-10.70918932130408
 10
11.77362617377146
 20
-10.70918932130408
 10
11.63636910490176
 20
-10.70918932130408
 10
11.49745089897607
 20
-10.70918932130408
 97
        0
 97
        0
 92
        1
 93
        1
 72
     4
 94
        3
 73
     0
 74
     1
 95
       29
 96
       25
 40
0.0
 40
0.0
 40
0.0
 40
0.0
 40
1.0
 40
1.0
 40
1.0
 40
2.0
 40
2.0
 40
2.0
 40
3.0
 40
3.0
 40
3.0
 40
4.0
 40
4.0
 40
4.0
 40
5.0
 40
5.0
 40
5.0
 40
6.0
 40
6.0
 40
6.0
 40
7.0
 40
7.0
 40
7.0
 40
8.0
 40
8.0
 40
8.0
 40
8.0
 10
13.08651190958705
 20
-10.70946491818411
 10
13.08651190958705
 20
-11.9182906366182
 10
13.08651190958705
 20
-13.12299316882762
 10
13.08651190958705
 20
-14.32921705626251
 10
13.10983054130114
 20
-14.326580090911
 10
13.12819258484911
 20
-14.32432620333467
 10
13.14659240726913
 20
-14.32245010448899
 10
13.54150214717527
 20
-14.28218235908502
 10
13.86630978769586
 20
-14.01010760319165
 10
13.97657951847197
 20
-13.62865960918412
 10
14.05205490699642
 20
-13.36757246078328
 10
14.02388055670458
 20
-13.10625788356243
 10
13.98061808001946
 20
-12.84485377041343
 10
13.92464527922389
 20
-12.50665351933069
 10
13.8166728817301
 20
-12.18285419693599
 10
13.70759998565999
 20
-11.85924868016144
 10
13.61818797079846
 20
-11.59397336587229
 10
13.53177219837441
 20
-11.32724469832945
 10
13.51181210848932
 20
-11.04567157812646
 10
13.5039903705748
 20
-10.93533327869703
 10
13.51053140468528
 20
-10.82397683863398
 10
13.51053140468528
 20
-10.70946491818411
 10
13.36521270205843
 20
-10.70946491818411
 10
13.22792616566682
 20
-10.70946491818411
 10
13.08651190958705
 20
-10.70946491818411
 97
        0
 97
        0
 92
        1
 93
        1
 72
     4
 94
        3
 73
     0
 74
     1
 95
       17
 96
       13
 40
0.0
 40
0.0
 40
0.0
 40
0.0
 40
1.0
 40
1.0
 40
1.0
 40
2.0
 40
2.0
 40
2.0
 40
3.0
 40
3.0
 40
3.0
 40
4.0
 40
4.0
 40
4.0
 40
4.0
 10
12.09977269755983
 20
-14.32416148744607
 10
12.09977269755983
 20
-13.11239997277433
 10
12.09977269755983
 20
-11.91065288181674
 10
12.09977269755983
 20
-10.70933080318401
 10
12.05895035829762
 20
-10.70933080318401
 10
12.02269888490758
 20
-10.70933080318401
 10
11.98512099527912
 20
-10.70933080318401
 10
11.98512099527912
 20
-11.91857171143523
 10
11.98512099527912
 20
-13.124267072434
 10
11.98512099527912
 20
-14.33512113857108
 10
12.0259796022593
 20
-14.33121555865709
 10
12.06230738897286
 20
-14.32774292462933
 10
12.09977269755983
 20
-14.32416148744607
 97
        0
 97
        0
 92
        1
 93
        1
 72
     4
 94
        3
 73
     0
 74
     1
 95
       17
 96
       13
 40
0.0
 40
0.0
 40
0.0
 40
0.0
 40
1.0
 40
1.0
 40
1.0
 40
2.0
 40
2.0
 40
2.0
 40
3.0
 40
3.0
 40
3.0
 40
4.0
 40
4.0
 40
4.0
 40
4.0
 10
13.01566103293403
 20
-14.33546794862799
 10
13.01566103293403
 20
-13.12016239785691
 10
13.01566103293403
 20
-11.91453541661901
 10
13.01566103293403
 20
-10.70931229153643
 10
12.97482207096771
 20
-10.70931229153643
 10
12.93853961890136
 20
-10.70931229153643
 10
12.89968895903441
 20
-10.70931229153643
 10
12.89968895903441
 20
-11.91481913595703
 10
12.89968895903441
 20
-13.11680310044847
 10
12.89968895903441
 20
-14.3236635618978
 10
12.93824909936632
 20
-14.32758803124845
 10
12.97467019989691
 20
-14.33129564986884
 10
13.01566103293403
 20
-14.33546794862799
 97
        0
 97
        0
 92
        1
 93
        1
 72
     4
 94
        3
 73
     0
 74
     1
 95
       17
 96
       13
 40
0.0
 40
0.0
 40
0.0
 40
0.0
 40
1.0
 40
1.0
 40
1.0
 40
2.0
 40
2.0
 40
2.0
 40
3.0
 40
3.0
 40
3.0
 40
4.0
 40
4.0
 40
4.0
 40
4.0
 10
12.16853553588884
 20
-10.70786347174752
 10
12.16853553588884
 20
-11.91144208247853
 10
12.16853553588884
 20
-13.10935839568836
 10
12.16853553588884
 20
-14.31401408209617
 10
12.20957925934836
 20
-14.30592411418146
 10
12.24654173113255
 20
-14.29863808069046
 10
12.28261488824027
 20
-14.29152809674697
 10
12.28261488824027
 20
-13.09287131762107
 10
12.28261488824027
 20
-11.90140008018402
 10
12.28261488824027
 20
-10.70786347174752
 10
12.24369962649876
 20
-10.70786347174752
 10
12.2090310878974
 20
-10.70786347174752
 10
12.16853553588884
 20
-10.70786347174752
 97
        0
 97
        0
 92
        1
 93
        1
 72
     4
 94
        3
 73
     0
 74
     1
 95
       17
 96
       13
 40
0.0
 40
0.0
 40
0.0
 40
0.0
 40
1.0
 40
1.0
 40
1.0
 40
2.0
 40
2.0
 40
2.0
 40
3.0
 40
3.0
 40
3.0
 40
4.0
 40
4.0
 40
4.0
 40
4.0
 10
12.83114070470505
 20
-14.31349726710996
 10
12.83114070470505
 20
-13.10777130522525
 10
12.83114070470505
 20
-11.90836952671818
 10
12.83114070470505
 20
-10.71028396415592
 10
12.79076000046987
 20
-10.71028396415592
 10
12.75484022558767
 20
-10.71028396415592
 10
12.71823023069048
 20
-10.71028396415592
 10
12.71823023069048
 20
-11.90648398315513
 10
12.71823023069048
 20
-13.09806326817049
 10
12.71823023069048
 20
-14.29241287795738
 10
12.7572690293478
 20
-14.29970268933661
 10
12.79293795251208
 20
-14.30636386026664
 10
12.83114070470505
 20
-14.31349726710996
 97
        0
 97
        0
 92
        1
 93
        1
 72
     4
 94
        3
 73
     0
 74
     1
 95
       20
 96
       16
 40
0.0
 40
0.0
 40
0.0
 40
0.0
 40
1.0
 40
1.0
 40
1.0
 40
2.0
 40
2.0
 40
2.0
 40
3.0
 40
3.0
 40
3.0
 40
4.0
 40
4.0
 40
4.0
 40
5.0
 40
5.0
 40
5.0
 40
5.0
 10
12.35277932276622
 20
-10.7075729522128
 10
12.35277932276622
 20
-11.8969512400723
 10
12.35277932276622
 20
-13.08025392953761
 10
12.35277932276622
 20
-14.26412632441184
 10
12.46079969942886
 20
-14.24052586230288
 10
12.46783714793481
 20
-14.2324147382196
 10
12.46783752572389
 20
-14.13359276161289
 10
12.46784168139895
 20
-13.01754893353241
 10
12.4678397924558
 20
-11.90150510545161
 10
12.4678397924558
 20
-10.78546127737144
 10
12.4678397924558
 20
-10.75985759050874
 10
12.46783941466704
 20
-10.73425390364572
 10
12.46783941466704
 20
-10.7075729522128
 10
12.42440995536301
 20
-10.7075729522128
 10
12.39184532221258
 20
-10.7075729522128
 10
12.35277932276622
 20
-10.7075729522128
 97
        0
 97
        0
 92
        1
 93
        1
 72
     4
 94
        3
 73
     0
 74
     1
 95
       20
 96
       16
 40
0.0
 40
0.0
 40
0.0
 40
0.0
 40
1.0
 40
1.0
 40
1.0
 40
2.0
 40
2.0
 40
2.0
 40
3.0
 40
3.0
 40
3.0
 40
4.0
 40
4.0
 40
4.0
 40
5.0
 40
5.0
 40
5.0
 40
5.0
 10
12.64652252919329
 20
-14.26303527055385
 10
12.64652252919329
 20
-13.07834345191936
 10
12.64652252919329
 20
-11.89390021826961
 10
12.64652252919329
 20
-10.70923125585278
 10
12.60776480535299
 20
-10.70923125585278
 10
12.57363688242773
 20
-10.70923125585278
 10
12.53336347019334
 20
-10.70923125585278
 10
12.53336347019334
 20
-10.73889088254653
 10
12.53336347019334
 20
-10.76518157821912
 10
12.53336347019334
 20
-10.79147208499734
 10
12.53336347019334
 20
-11.90525390304254
 10
12.53336158125019
 20
-13.0190359099834
 10
12.53336573692622
 20
-14.13281753913358
 10
12.5333661147153
 20
-14.23259834354358
 10
12.5409453122633
 20
-14.24137664252756
 10
12.64652252919329
 20
-14.26303527055385
 97
        0
 97
        0
 75
     2
 76
     1
 98
        0
  0
ENDSEC
  0
SECTION
  2
OBJECTS
  0
DICTIONARY
  5
C
330
0
100
AcDbDictionary
281
     1
  3
ACAD_GROUP
350
D
  3
ACAD_LAYOUT
350
1A
  3
ACAD_MATERIAL
350
3B
  3
ACAD_MLEADERSTYLE
350
C0
  3
ACAD_MLINESTYLE
350
17
  3
ACAD_PLOTSETTINGS
350
19
  3
ACAD_PLOTSTYLENAME
350
E
  3
ACAD_TABLESTYLE
350
BF
  3
ACAD_VISUALSTYLE
350
2A
  0
SUN
  5
3F
330
29
100
AcDbSun
 90
        1
290
     0
 63
     7
421
 16777215
 40
1.0
291
     1
 91
  2455826
 92
 54000000
292
     0
 70
     2
 71
   256
280
     1
  0
DICTIONARY
  5
D
102
{ACAD_REACTORS
330
C
102
}
330
C
100
AcDbDictionary
281
     1
  0
DICTIONARY
  5
1A
102
{ACAD_REACTORS
330
C
102
}
330
C
100
AcDbDictionary
281
     1
  3
Layout1
350
1E
  3
Layout2
350
26
  3
Model
350
22
  0
DICTIONARY
  5
3B
102
{ACAD_REACTORS
330
C
102
}
330
C
100
AcDbDictionary
281
     1
  3
ByBlock
350
3D
  3
ByLayer
350
3C
  3
Global
350
3E
  0
DICTIONARY
  5
C0
102
{ACAD_REACTORS
330
C
102
}
330
C
100
AcDbDictionary
281
     1
  0
DICTIONARY
  5
17
102
{ACAD_REACTORS
330
C
102
}
330
C
100
AcDbDictionary
281
     1
  3
Standard
350
18
  0
DICTIONARY
  5
19
102
{ACAD_REACTORS
330
C
102
}
330
C
100
AcDbDictionary
281
     1
  0
ACDBDICTIONARYWDFLT
  5
E
102
{ACAD_REACTORS
330
C
102
}
330
C
100
AcDbDictionary
281
     1
  3
Normal
350
F
100
AcDbDictionaryWithDefault
340
F
  0
DICTIONARY
  5
BF
102
{ACAD_REACTORS
330
C
102
}
330
C
100
AcDbDictionary
281
     1
  0
DICTIONARY
  5
2A
102
{ACAD_REACTORS
330
C
102
}
330
C
100
AcDbDictionary
281
     1
  3
2dWireframe
350
2F
  3
3D Hidden
350
31
  3
3dWireframe
350
30
  3
Basic
350
32
  3
Brighten
350
36
  3
ColorChange
350
3A
  3
Conceptual
350
34
  3
Dim
350
35
  3
Facepattern
350
39
  3
Flat
350
2B
  3
FlatWithEdges
350
2C
  3
Gouraud
350
2D
  3
GouraudWithEdges
350
2E
  3
Linepattern
350
38
  3
Realistic
350
33
  3
Thicken
350
37
  0
LAYOUT
  5
1E
102
{ACAD_REACTORS
330
1A
102
}
330
1A
100
AcDbPlotSettings
  1

  2
none_device
  4

  6

 40
0.0
 41
0.0
 42
0.0
 43
0.0
 44
0.0
 45
0.0
 46
0.0
 47
0.0
 48
0.0
 49
0.0
140
0.0
141
0.0
142
1.0
143
1.0
 70
   688
 72
     0
 73
     0
 74
     5
  7

 75
    16
 76
     0
 77
     2
 78
   300
147
1.0
148
0.0
149
0.0
100
AcDbLayout
  1
Layout1
 70
     1
 71
     1
 10
0.0
 20
0.0
 11
12.0
 21
9.0
 12
0.0
 22
0.0
 32
0.0
 14
1.000000000000000E+20
 24
1.000000000000000E+20
 34
1.000000000000000E+20
 15
-1.000000000000000E+20
 25
-1.000000000000000E+20
 35
-1.000000000000000E+20
146
0.0
 13
0.0
 23
0.0
 33
0.0
 16
1.0
 26
0.0
 36
0.0
 17
0.0
 27
1.0
 37
0.0
 76
     0
330
1B
  0
LAYOUT
  5
26
102
{ACAD_REACTORS
330
1A
102
}
330
1A
100
AcDbPlotSettings
  1

  2
none_device
  4

  6

 40
0.0
 41
0.0
 42
0.0
 43
0.0
 44
0.0
 45
0.0
 46
0.0
 47
0.0
 48
0.0
 49
0.0
140
0.0
141
0.0
142
1.0
143
1.0
 70
   688
 72
     0
 73
     0
 74
     5
  7

 75
    16
 76
     0
 77
     2
 78
   300
147
1.0
148
0.0
149
0.0
100
AcDbLayout
  1
Layout2
 70
     1
 71
     2
 10
0.0
 20
0.0
 11
0.0
 21
0.0
 12
0.0
 22
0.0
 32
0.0
 14
0.0
 24
0.0
 34
0.0
 15
0.0
 25
0.0
 35
0.0
146
0.0
 13
0.0
 23
0.0
 33
0.0
 16
1.0
 26
0.0
 36
0.0
 17
0.0
 27
1.0
 37
0.0
 76
     0
330
23
  0
LAYOUT
  5
22
102
{ACAD_REACTORS
330
1A
102
}
330
1A
100
AcDbPlotSettings
  1

  2
none_device
  4

  6

 40
0.0
 41
0.0
 42
0.0
 43
0.0
 44
0.0
 45
0.0
 46
0.0
 47
0.0
 48
0.0
 49
0.0
140
0.0
141
0.0
142
1.0
143
1.0
 70
  1712
 72
     0
 73
     0
 74
     0
  7

 75
     0
 76
     0
 77
     2
 78
   300
147
1.0
148
0.0
149
0.0
100
AcDbLayout
  1
Model
 70
     1
 71
     0
 10
0.0
 20
0.0
 11
12.0
 21
9.0
 12
0.0
 22
0.0
 32
0.0
 14
1.000000000000000E+20
 24
1.000000000000000E+20
 34
1.000000000000000E+20
 15
-1.000000000000000E+20
 25
-1.000000000000000E+20
 35
-1.000000000000000E+20
146
0.0
 13
0.0
 23
0.0
 33
0.0
 16
1.0
 26
0.0
 36
0.0
 17
0.0
 27
1.0
 37
0.0
 76
     0
330
1F
331
29
  0
MATERIAL
  5
3D
102
{ACAD_REACTORS
330
3B
102
}
330
3B
100
AcDbMaterial
  1
ByBlock
 72
     1
 94
      127
  0
MATERIAL
  5
3C
102
{ACAD_REACTORS
330
3B
102
}
330
3B
100
AcDbMaterial
  1
ByLayer
 72
     1
 94
      127
  0
MATERIAL
  5
3E
102
{ACAD_REACTORS
330
3B
102
}
330
3B
100
AcDbMaterial
  1
Global
 72
     1
 94
      127
  0
MLINESTYLE
  5
18
102
{ACAD_REACTORS
330
17
102
}
330
17
100
AcDbMlineStyle
  2
Standard
 70
     0
  3

 62
   256
 51
90.0
 52
90.0
 71
     2
 49
0.5
 62
   256
  6
BYLAYER
 49
-0.5
 62
   256
  6
BYLAYER
  0
ACDBPLACEHOLDER
  5
F
102
{ACAD_REACTORS
330
E
102
}
330
E
  0
VISUALSTYLE
  5
2F
102
{ACAD_REACTORS
330
2A
102
}
330
2A
100
AcDbVisualStyle
  2
2dWireframe
 70
     4
177
     2
291
     0
 71
     0
176
     1
 72
     2
176
     1
 73
     0
176
     1
 90
        0
176
     1
 40
-0.6
176
     1
 41
-30.0
176
     1
 62
     5
 63
     7
421
 16777215
176
     1
 74
     1
176
     1
 91
        4
176
     1
 64
     7
176
     1
 65
   257
176
     1
 75
     1
176
     1
175
     1
176
     1
 42
1.0
176
     1
 92
        0
176
     1
 66
   257
176
     1
 43
1.0
176
     1
 76
     1
176
     1
 77
     6
176
     1
 78
     2
176
     1
 67
     7
176
     1
 79
     5
176
     1
170
     0
176
     1
171
     0
176
     1
290
     0
176
     1
 93
        1
176
     1
 44
0.0
176
     1
173
     0
176
     1
  0
VISUALSTYLE
  5
31
102
{ACAD_REACTORS
330
2A
102
}
330
2A
100
AcDbVisualStyle
  2
3D Hidden
 70
     6
177
     2
291
     0
 71
     1
176
     1
 72
     2
176
     1
 73
     2
176
     1
 90
        0
176
     1
 40
-0.6
176
     1
 41
-30.0
176
     1
 62
     5
 63
     7
421
 16777215
176
     1
 74
     2
176
     1
 91
        2
176
     1
 64
     7
176
     1
 65
   257
176
     1
 75
     2
176
     1
175
     1
176
     1
 42
40.0
176
     1
 92
        0
176
     1
 66
   257
176
     1
 43
1.0
176
     1
 76
     1
176
     1
 77
     6
176
     1
 78
     2
176
     1
 67
     7
176
     1
 79
     3
176
     1
170
     0
176
     1
171
     0
176
     1
290
     0
176
     1
 93
        1
176
     1
 44
0.0
176
     1
173
     0
176
     1
  0
VISUALSTYLE
  5
30
102
{ACAD_REACTORS
330
2A
102
}
330
2A
100
AcDbVisualStyle
  2
3dWireframe
 70
     5
177
     2
291
     0
 71
     0
176
     1
 72
     2
176
     1
 73
     0
176
     1
 90
        0
176
     1
 40
-0.6
176
     1
 41
-30.0
176
     1
 62
     5
 63
     7
421
 16777215
176
     1
 74
     1
176
     1
 91
        4
176
     1
 64
     7
176
     1
 65
   257
176
     1
 75
     1
176
     1
175
     1
176
     1
 42
1.0
176
     1
 92
        0
176
     1
 66
   257
176
     1
 43
1.0
176
     1
 76
     1
176
     1
 77
     6
176
     1
 78
     2
176
     1
 67
     7
176
     1
 79
     5
176
     1
170
     0
176
     1
171
     0
176
     1
290
     0
176
     1
 93
        1
176
     1
 44
0.0
176
     1
173
     0
176
     1
  0
VISUALSTYLE
  5
32
102
{ACAD_REACTORS
330
2A
102
}
330
2A
100
AcDbVisualStyle
  2
Basic
 70
     7
177
     2
291
     1
 71
     1
176
     1
 72
     0
176
     1
 73
     1
176
     1
 90
        0
176
     1
 40
-0.6
176
     1
 41
-30.0
176
     1
 62
     5
 63
     7
421
 16777215
176
     1
 74
     0
176
     1
 91
        4
176
     1
 64
     7
176
     1
 65
   257
176
     1
 75
     1
176
     1
175
     1
176
     1
 42
1.0
176
     1
 92
        8
176
     1
 66
     7
176
     1
 43
1.0
176
     1
 76
     1
176
     1
 77
     6
176
     1
 78
     2
176
     1
 67
     7
176
     1
 79
     5
176
     1
170
     0
176
     1
171
     0
176
     1
290
     0
176
     1
 93
        1
176
     1
 44
0.0
176
     1
173
     0
176
     1
  0
VISUALSTYLE
  5
36
102
{ACAD_REACTORS
330
2A
102
}
330
2A
100
AcDbVisualStyle
  2
Brighten
 70
    12
177
     2
291
     1
 71
     2
176
     1
 72
     2
176
     1
 73
     0
176
     1
 90
        0
176
     1
 40
-0.6
176
     1
 41
-30.0
176
     1
 62
     5
 63
     7
421
 16777215
176
     1
 74
     1
176
     1
 91
        4
176
     1
 64
     7
176
     1
 65
   257
176
     1
 75
     1
176
     1
175
     1
176
     1
 42
1.0
176
     1
 92
        8
176
     1
 66
     7
176
     1
 43
1.0
176
     1
 76
     1
176
     1
 77
     6
176
     1
 78
     2
176
     1
 67
     7
176
     1
 79
     5
176
     1
170
     0
176
     1
171
     0
176
     1
290
     0
176
     1
 93
        1
176
     1
 44
50.0
176
     1
173
     0
176
     1
  0
VISUALSTYLE
  5
3A
102
{ACAD_REACTORS
330
2A
102
}
330
2A
100
AcDbVisualStyle
  2
ColorChange
 70
    16
177
     2
291
     1
 71
     2
176
     1
 72
     2
176
     1
 73
     3
176
     1
 90
        0
176
     1
 40
-0.6
176
     1
 41
-30.0
176
     1
 62
     5
 63
     8
421
  8421504
176
     1
 74
     1
176
     1
 91
        4
176
     1
 64
     7
176
     1
 65
   257
176
     1
 75
     1
176
     1
175
     1
176
     1
 42
1.0
176
     1
 92
        8
176
     1
 66
     8
424
  8421504
176
     1
 43
1.0
176
     1
 76
     1
176
     1
 77
     6
176
     1
 78
     2
176
     1
 67
     7
176
     1
 79
     5
176
     1
170
     0
176
     1
171
     0
176
     1
290
     0
176
     1
 93
        1
176
     1
 44
0.0
176
     1
173
     0
176
     1
  0
VISUALSTYLE
  5
34
102
{ACAD_REACTORS
330
2A
102
}
330
2A
100
AcDbVisualStyle
  2
Conceptual
 70
     9
177
     2
291
     0
 71
     3
176
     1
 72
     2
176
     1
 73
     0
176
     1
 90
        0
176
     1
 40
-0.6
176
     1
 41
-30.0
176
     1
 62
     5
 63
     7
421
 16777215
176
     1
 74
     2
176
     1
 91
        2
176
     1
 64
     7
176
     1
 65
   257
176
     1
 75
     1
176
     1
175
     1
176
     1
 42
40.0
176
     1
 92
        8
176
     1
 66
     7
176
     1
 43
1.0
176
     1
 76
     1
176
     1
 77
     6
176
     1
 78
     2
176
     1
 67
     7
176
     1
 79
     3
176
     1
170
     0
176
     1
171
     0
176
     1
290
     0
176
     1
 93
        1
176
     1
 44
0.0
176
     1
173
     0
176
     1
  0
VISUALSTYLE
  5
35
102
{ACAD_REACTORS
330
2A
102
}
330
2A
100
AcDbVisualStyle
  2
Dim
 70
    11
177
     2
291
     1
 71
     2
176
     1
 72
     2
176
     1
 73
     0
176
     1
 90
        0
176
     1
 40
-0.6
176
     1
 41
-30.0
176
     1
 62
     5
 63
     7
421
 16777215
176
     1
 74
     1
176
     1
 91
        4
176
     1
 64
     7
176
     1
 65
   257
176
     1
 75
     1
176
     1
175
     1
176
     1
 42
1.0
176
     1
 92
        8
176
     1
 66
     7
176
     1
 43
1.0
176
     1
 76
     1
176
     1
 77
     6
176
     1
 78
     2
176
     1
 67
     7
176
     1
 79
     5
176
     1
170
     0
176
     1
171
     0
176
     1
290
     0
176
     1
 93
        1
176
     1
 44
-50.0
176
     1
173
     0
176
     1
  0
VISUALSTYLE
  5
39
102
{ACAD_REACTORS
330
2A
102
}
330
2A
100
AcDbVisualStyle
  2
Facepattern
 70
    15
177
     2
291
     1
 71
     2
176
     1
 72
     2
176
     1
 73
     0
176
     1
 90
        0
176
     1
 40
-0.6
176
     1
 41
-30.0
176
     1
 62
     5
 63
     7
421
 16777215
176
     1
 74
     1
176
     1
 91
        4
176
     1
 64
     7
176
     1
 65
   257
176
     1
 75
     1
176
     1
175
     1
176
     1
 42
1.0
176
     1
 92
        8
176
     1
 66
     7
176
     1
 43
1.0
176
     1
 76
     1
176
     1
 77
     6
176
     1
 78
     2
176
     1
 67
     7
176
     1
 79
     5
176
     1
170
     0
176
     1
171
     0
176
     1
290
     0
176
     1
 93
        1
176
     1
 44
0.0
176
     1
173
     0
176
     1
  0
VISUALSTYLE
  5
2B
102
{ACAD_REACTORS
330
2A
102
}
330
2A
100
AcDbVisualStyle
  2
Flat
 70
     0
177
     2
291
     1
 71
     2
176
     1
 72
     1
176
     1
 73
     1
176
     1
 90
        2
176
     1
 40
-0.6
176
     1
 41
30.0
176
     1
 62
     5
 63
     7
421
 16777215
176
     1
 74
     0
176
     1
 91
        4
176
     1
 64
     7
176
     1
 65
   257
176
     1
 75
     1
176
     1
175
     1
176
     1
 42
1.0
176
     1
 92
        8
176
     1
 66
     7
176
     1
 43
1.0
176
     1
 76
     1
176
     1
 77
     6
176
     1
 78
     2
176
     1
 67
     7
176
     1
 79
     5
176
     1
170
     0
176
     1
171
     0
176
     1
290
     0
176
     1
 93
       13
176
     1
 44
0.0
176
     1
173
     0
176
     1
  0
VISUALSTYLE
  5
2C
102
{ACAD_REACTORS
330
2A
102
}
330
2A
100
AcDbVisualStyle
  2
FlatWithEdges
 70
     1
177
     2
291
     1
 71
     2
176
     1
 72
     1
176
     1
 73
     1
176
     1
 90
        2
176
     1
 40
-0.6
176
     1
 41
30.0
176
     1
 62
     5
 63
     7
421
 16777215
176
     1
 74
     1
176
     1
 91
        4
176
     1
 64
     7
176
     1
 65
   257
176
     1
 75
     1
176
     1
175
     1
176
     1
 42
1.0
176
     1
 92
        0
176
     1
 66
   257
176
     1
 43
1.0
176
     1
 76
     1
176
     1
 77
     6
176
     1
 78
     2
176
     1
 67
     7
176
     1
 79
     5
176
     1
170
     0
176
     1
171
     0
176
     1
290
     0
176
     1
 93
       13
176
     1
 44
0.0
176
     1
173
     0
176
     1
  0
VISUALSTYLE
  5
2D
102
{ACAD_REACTORS
330
2A
102
}
330
2A
100
AcDbVisualStyle
  2
Gouraud
 70
     2
177
     2
291
     1
 71
     2
176
     1
 72
     2
176
     1
 73
     1
176
     1
 90
        2
176
     1
 40
-0.6
176
     1
 41
30.0
176
     1
 62
     5
 63
     7
421
 16777215
176
     1
 74
     0
176
     1
 91
        4
176
     1
 64
     7
176
     1
 65
   257
176
     1
 75
     1
176
     1
175
     1
176
     1
 42
1.0
176
     1
 92
        0
176
     1
 66
     7
176
     1
 43
1.0
176
     1
 76
     1
176
     1
 77
     6
176
     1
 78
     2
176
     1
 67
     7
176
     1
 79
     5
176
     1
170
     0
176
     1
171
     0
176
     1
290
     0
176
     1
 93
       13
176
     1
 44
0.0
176
     1
173
     0
176
     1
  0
VISUALSTYLE
  5
2E
102
{ACAD_REACTORS
330
2A
102
}
330
2A
100
AcDbVisualStyle
  2
GouraudWithEdges
 70
     3
177
     2
291
     1
 71
     2
176
     1
 72
     2
176
     1
 73
     1
176
     1
 90
        2
176
     1
 40
-0.6
176
     1
 41
30.0
176
     1
 62
     5
 63
     7
421
 16777215
176
     1
 74
     1
176
     1
 91
        4
176
     1
 64
     7
176
     1
 65
   257
176
     1
 75
     1
176
     1
175
     1
176
     1
 42
1.0
176
     1
 92
        0
176
     1
 66
   257
176
     1
 43
1.0
176
     1
 76
     1
176
     1
 77
     6
176
     1
 78
     2
176
     1
 67
     7
176
     1
 79
     5
176
     1
170
     0
176
     1
171
     0
176
     1
290
     0
176
     1
 93
       13
176
     1
 44
0.0
176
     1
173
     0
176
     1
  0
VISUALSTYLE
  5
38
102
{ACAD_REACTORS
330
2A
102
}
330
2A
100
AcDbVisualStyle
  2
Linepattern
 70
    14
177
     2
291
     1
 71
     2
176
     1
 72
     2
176
     1
 73
     0
176
     1
 90
        0
176
     1
 40
-0.6
176
     1
 41
-30.0
176
     1
 62
     5
 63
     7
421
 16777215
176
     1
 74
     1
176
     1
 91
        4
176
     1
 64
     7
176
     1
 65
   257
176
     1
 75
     7
176
     1
175
     7
176
     1
 42
1.0
176
     1
 92
        8
176
     1
 66
     7
176
     1
 43
1.0
176
     1
 76
     1
176
     1
 77
     6
176
     1
 78
     2
176
     1
 67
     7
176
     1
 79
     5
176
     1
170
     0
176
     1
171
     0
176
     1
290
     0
176
     1
 93
        1
176
     1
 44
0.0
176
     1
173
     0
176
     1
  0
VISUALSTYLE
  5
33
102
{ACAD_REACTORS
330
2A
102
}
330
2A
100
AcDbVisualStyle
  2
Realistic
 70
     8
177
     2
291
     0
 71
     2
176
     1
 72
     2
176
     1
 73
     0
176
     1
 90
        0
176
     1
 40
-0.6
176
     1
 41
-30.0
176
     1
 62
     5
 63
     7
421
 16777215
176
     1
 74
     1
176
     1
 91
        0
176
     1
 64
     7
176
     1
 65
   257
176
     1
 75
     1
176
     1
175
     1
176
     1
 42
1.0
176
     1
 92
        8
176
     1
 66
     8
424
  7895160
176
     1
 43
1.0
176
     1
 76
     1
176
     1
 77
     6
176
     1
 78
     2
176
     1
 67
     7
176
     1
 79
     5
176
     1
170
     0
176
     1
171
     0
176
     1
290
     0
176
     1
 93
       13
176
     1
 44
0.0
176
     1
173
     0
176
     1
  0
VISUALSTYLE
  5
37
102
{ACAD_REACTORS
330
2A
102
}
330
2A
100
AcDbVisualStyle
  2
Thicken
 70
    13
177
     2
291
     1
 71
     2
176
     1
 72
     2
176
     1
 73
     0
176
     1
 90
        0
176
     1
 40
-0.6
176
     1
 41
-30.0
176
     1
 62
     5
 63
     7
421
 16777215
176
     1
 74
     1
176
     1
 91
        4
176
     1
 64
     7
176
     1
 65
   257
176
     1
 75
     1
176
     1
175
     1
176
     1
 42
1.0
176
     1
 92
       12
176
     1
 66
     7
176
     1
 43
1.0
176
     1
 76
     1
176
     1
 77
     6
176
     1
 78
     2
176
     1
 67
     7
176
     1
 79
     5
176
     1
170
     0
176
     1
171
     0
176
     1
290
     0
176
     1
 93
        1
176
     1
 44
0.0
176
     1
173
     0
176
     1
  0
ENDSEC
  0
EOF
