  0
SECTION
  2
HEADER
  9
$ACADVER
  1
AC1024
  9
$ACADMAINTVER
 70
     6
  9
$DWGCODEPAGE
  3
ANSI_1252
  9
$INSBASE
 10
0.0
 20
0.0
 30
0.0
  9
$EXTMIN
 10
1.000000000000000E+20
 20
1.000000000000000E+20
 30
1.000000000000000E+20
  9
$EXTMAX
 10
-1.000000000000000E+20
 20
-1.000000000000000E+20
 30
-1.000000000000000E+20
  9
$LIMMIN
 10
0.0
 20
0.0
  9
$LIMMAX
 10
12.0
 20
9.0
  9
$ORTHOMODE
 70
     0
  9
$REGENMODE
 70
     1
  9
$FILLMODE
 70
     1
  9
$QTEXTMODE
 70
     0
  9
$MIRRTEXT
 70
     1
  9
$LTSCALE
 40
1.0
  9
$ATTMODE
 70
     1
  9
$TEXTSIZE
 40
0.2
  9
$TRACEWID
 40
0.05
  9
$TEXTSTYLE
  7
Standard
  9
$CLAYER
  8
0
  9
$CELTYPE
  6
ByLayer
  9
$CECOLOR
 62
   256
  9
$CELTSCALE
 40
1.0
  9
$DISPSILH
 70
     0
  9
$DIMSCALE
 40
1.0
  9
$DIMASZ
 40
0.18
  9
$DIMEXO
 40
0.0625
  9
$DIMDLI
 40
0.38
  9
$DIMRND
 40
0.0
  9
$DIMDLE
 40
0.0
  9
$DIMEXE
 40
0.18
  9
$DIMTP
 40
0.0
  9
$DIMTM
 40
0.0
  9
$DIMTXT
 40
0.18
  9
$DIMCEN
 40
0.09
  9
$DIMTSZ
 40
0.0
  9
$DIMTOL
 70
     0
  9
$DIMLIM
 70
     0
  9
$DIMTIH
 70
     1
  9
$DIMTOH
 70
     1
  9
$DIMSE1
 70
     0
  9
$DIMSE2
 70
     0
  9
$DIMTAD
 70
     0
  9
$DIMZIN
 70
     0
  9
$DIMBLK
  1

  9
$DIMASO
 70
     1
  9
$DIMSHO
 70
     1
  9
$DIMPOST
  1

  9
$DIMAPOST
  1

  9
$DIMALT
 70
     0
  9
$DIMALTD
 70
     2
  9
$DIMALTF
 40
25.4
  9
$DIMLFAC
 40
1.0
  9
$DIMTOFL
 70
     0
  9
$DIMTVP
 40
0.0
  9
$DIMTIX
 70
     0
  9
$DIMSOXD
 70
     0
  9
$DIMSAH
 70
     0
  9
$DIMBLK1
  1

  9
$DIMBLK2
  1

  9
$DIMSTYLE
  2
Standard
  9
$DIMCLRD
 70
     0
  9
$DIMCLRE
 70
     0
  9
$DIMCLRT
 70
     0
  9
$DIMTFAC
 40
1.0
  9
$DIMGAP
 40
0.09
  9
$DIMJUST
 70
     0
  9
$DIMSD1
 70
     0
  9
$DIMSD2
 70
     0
  9
$DIMTOLJ
 70
     1
  9
$DIMTZIN
 70
     0
  9
$DIMALTZ
 70
     0
  9
$DIMALTTZ
 70
     0
  9
$DIMUPT
 70
     0
  9
$DIMDEC
 70
     4
  9
$DIMTDEC
 70
     4
  9
$DIMALTU
 70
     2
  9
$DIMALTTD
 70
     2
  9
$DIMTXSTY
  7
Standard
  9
$DIMAUNIT
 70
     0
  9
$DIMADEC
 70
     0
  9
$DIMALTRND
 40
0.0
  9
$DIMAZIN
 70
     0
  9
$DIMDSEP
 70
    46
  9
$DIMATFIT
 70
     3
  9
$DIMFRAC
 70
     0
  9
$DIMLDRBLK
  1

  9
$DIMLUNIT
 70
     2
  9
$DIMLWD
 70
    -2
  9
$DIMLWE
 70
    -2
  9
$DIMTMOVE
 70
     0
  9
$DIMFXL
 40
1.0
  9
$DIMFXLON
 70
     0
  9
$DIMJOGANG
 40
0.7853981633974483
  9
$DIMTFILL
 70
     0
  9
$DIMTFILLCLR
 70
     0
  9
$DIMARCSYM
 70
     0
  9
$DIMLTYPE
  6

  9
$DIMLTEX1
  6

  9
$DIMLTEX2
  6

  9
$DIMTXTDIRECTION
 70
     0
  9
$LUNITS
 70
     2
  9
$LUPREC
 70
     4
  9
$SKETCHINC
 40
0.1
  9
$FILLETRAD
 40
0.5
  9
$AUNITS
 70
     0
  9
$AUPREC
 70
     0
  9
$MENU
  1
.
  9
$ELEVATION
 40
0.0
  9
$PELEVATION
 40
0.0
  9
$THICKNESS
 40
0.0
  9
$LIMCHECK
 70
     0
  9
$CHAMFERA
 40
0.5
  9
$CHAMFERB
 40
0.5
  9
$CHAMFERC
 40
1.0
  9
$CHAMFERD
 40
0.0
  9
$SKPOLY
 70
     0
  9
$TDCREATE
 40
2460004.381561759
  9
$TDUCREATE
 40
2460004.339895092
  9
$TDUPDATE
 40
2460004.381561898
  9
$TDUUPDATE
 40
2460004.339895232
  9
$TDINDWG
 40
0.0000000116
  9
$TDUSRTIMER
 40
0.0000000116
  9
$USRTIMER
 70
     1
  9
$ANGBASE
 50
0.0
  9
$ANGDIR
 70
     0
  9
$PDMODE
 70
     0
  9
$PDSIZE
 40
0.0
  9
$PLINEWID
 40
0.0
  9
$SPLFRAME
 70
     0
  9
$SPLINETYPE
 70
     6
  9
$SPLINESEGS
 70
     8
  9
$HANDSEED
  5
123
  9
$SURFTAB1
 70
     6
  9
$SURFTAB2
 70
     6
  9
$SURFTYPE
 70
     6
  9
$SURFU
 70
     6
  9
$SURFV
 70
     6
  9
$UCSBASE
  2

  9
$UCSNAME
  2

  9
$UCSORG
 10
0.0
 20
0.0
 30
0.0
  9
$UCSXDIR
 10
1.0
 20
0.0
 30
0.0
  9
$UCSYDIR
 10
0.0
 20
1.0
 30
0.0
  9
$UCSORTHOREF
  2

  9
$UCSORTHOVIEW
 70
     0
  9
$UCSORGTOP
 10
0.0
 20
0.0
 30
0.0
  9
$UCSORGBOTTOM
 10
0.0
 20
0.0
 30
0.0
  9
$UCSORGLEFT
 10
0.0
 20
0.0
 30
0.0
  9
$UCSORGRIGHT
 10
0.0
 20
0.0
 30
0.0
  9
$UCSORGFRONT
 10
0.0
 20
0.0
 30
0.0
  9
$UCSORGBACK
 10
0.0
 20
0.0
 30
0.0
  9
$PUCSBASE
  2

  9
$PUCSNAME
  2

  9
$PUCSORG
 10
0.0
 20
0.0
 30
0.0
  9
$PUCSXDIR
 10
1.0
 20
0.0
 30
0.0
  9
$PUCSYDIR
 10
0.0
 20
1.0
 30
0.0
  9
$PUCSORTHOREF
  2

  9
$PUCSORTHOVIEW
 70
     0
  9
$PUCSORGTOP
 10
0.0
 20
0.0
 30
0.0
  9
$PUCSORGBOTTOM
 10
0.0
 20
0.0
 30
0.0
  9
$PUCSORGLEFT
 10
0.0
 20
0.0
 30
0.0
  9
$PUCSORGRIGHT
 10
0.0
 20
0.0
 30
0.0
  9
$PUCSORGFRONT
 10
0.0
 20
0.0
 30
0.0
  9
$PUCSORGBACK
 10
0.0
 20
0.0
 30
0.0
  9
$USERI1
 70
     0
  9
$USERI2
 70
     0
  9
$USERI3
 70
     0
  9
$USERI4
 70
     0
  9
$USERI5
 70
     0
  9
$USERR1
 40
0.0
  9
$USERR2
 40
0.0
  9
$USERR3
 40
0.0
  9
$USERR4
 40
0.0
  9
$USERR5
 40
0.0
  9
$WORLDVIEW
 70
     1
  9
$SHADEDGE
 70
     3
  9
$SHADEDIF
 70
    70
  9
$TILEMODE
 70
     1
  9
$MAXACTVP
 70
    64
  9
$PINSBASE
 10
0.0
 20
0.0
 30
0.0
  9
$PLIMCHECK
 70
     0
  9
$PEXTMIN
 10
1.000000000000000E+20
 20
1.000000000000000E+20
 30
1.000000000000000E+20
  9
$PEXTMAX
 10
-1.000000000000000E+20
 20
-1.000000000000000E+20
 30
-1.000000000000000E+20
  9
$PLIMMIN
 10
0.0
 20
0.0
  9
$PLIMMAX
 10
12.0
 20
9.0
  9
$UNITMODE
 70
     0
  9
$VISRETAIN
 70
     1
  9
$PLINEGEN
 70
     0
  9
$PSLTSCALE
 70
     1
  9
$TREEDEPTH
 70
  3020
  9
$CMLSTYLE
  2
Standard
  9
$CMLJUST
 70
     0
  9
$CMLSCALE
 40
1.0
  9
$PROXYGRAPHICS
 70
     1
  9
$MEASUREMENT
 70
     0
  9
$CELWEIGHT
370
    -1
  9
$ENDCAPS
280
     0
  9
$JOINSTYLE
280
     0
  9
$LWDISPLAY
290
     1
  9
$INSUNITS
 70
     1
  9
$HYPERLINKBASE
  1

  9
$STYLESHEET
  1

  9
$XEDIT
290
     1
  9
$CEPSNTYPE
380
     0
  9
$PSTYLEMODE
290
     1
  9
$FINGERPRINTGUID
  2
{2521D656-AF43-45BA-AC9D-8ECEDF64A2C9}
  9
$VERSIONGUID
  2
{FAEB1C32-E019-11D5-929B-00C0DF256EC4}
  9
$EXTNAMES
290
     1
  9
$PSVPSCALE
 40
0.0
  9
$OLESTARTUP
290
     0
  9
$SORTENTS
280
   127
  9
$INDEXCTL
280
     0
  9
$HIDETEXT
280
     1
  9
$XCLIPFRAME
280
     2
  9
$HALOGAP
280
     0
  9
$OBSCOLOR
 70
   257
  9
$OBSLTYPE
280
     0
  9
$INTERSECTIONDISPLAY
280
     0
  9
$INTERSECTIONCOLOR
 70
   257
  9
$DIMASSOC
280
     2
  9
$PROJECTNAME
  1

  9
$CAMERADISPLAY
290
     0
  9
$LENSLENGTH
 40
50.0
  9
$CAMERAHEIGHT
 40
0.0
  9
$STEPSPERSEC
 40
2.0
  9
$STEPSIZE
 40
6.0
  9
$3DDWFPREC
 40
2.0
  9
$PSOLWIDTH
 40
0.25
  9
$PSOLHEIGHT
 40
4.0
  9
$LOFTANG1
 40
1.570796326794897
  9
$LOFTANG2
 40
1.570796326794897
  9
$LOFTMAG1
 40
0.0
  9
$LOFTMAG2
 40
0.0
  9
$LOFTPARAM
 70
     7
  9
$LOFTNORMALS
280
     1
  9
$LATITUDE
 40
37.795
  9
$LONGITUDE
 40
-122.394
  9
$NORTHDIRECTION
 40
0.0
  9
$TIMEZONE
 70
 -8000
  9
$LIGHTGLYPHDISPLAY
280
     1
  9
$TILEMODELIGHTSYNCH
280
     1
  9
$CMATERIAL
347
3C
  9
$SOLIDHIST
280
     1
  9
$SHOWHIST
280
     1
  9
$DWFFRAME
280
     2
  9
$DGNFRAME
280
     2
  9
$REALWORLDSCALE
290
     1
  9
$INTERFERECOLOR
 62
   256
  9
$CSHADOW
280
     0
  9
$SHADOWPLANELOCATION
 40
0.0
  0
ENDSEC
  0
SECTION
  2
CLASSES
  0
CLASS
  1
ACDBDICTIONARYWDFLT
  2
AcDbDictionaryWithDefault
  3
ObjectDBX Classes
 90
        0
 91
        4
280
     0
281
     0
  0
CLASS
  1
VISUALSTYLE
  2
AcDbVisualStyle
  3
ObjectDBX Classes
 90
     4095
 91
        4
280
     0
281
     0
  0
CLASS
  1
MATERIAL
  2
AcDbMaterial
  3
ObjectDBX Classes
 90
     1153
 91
        4
280
     0
281
     0
  0
CLASS
  1
SUN
  2
AcDbSun
  3
SCENEOE
 90
     1024
 91
        4
280
     0
281
     0
  0
ENDSEC
  0
SECTION
  2
TABLES
  0
TABLE
  2
VPORT
  5
8
330
0
100
AcDbSymbolTable
 70
     1
  0
VPORT
  5
29
330
8
100
AcDbSymbolTableRecord
100
AcDbViewportTableRecord
  2
*Active
 70
     0
 10
0.0
 20
0.0
 11
1.0
 21
1.0
 12
0.0
 22
0.0
 13
0.0
 23
0.0
 14
0.5
 24
0.5
 15
0.5
 25
0.5
 16
0.0
 26
0.0
 36
1.0
 17
46.49963887726413
 27
-24.99959721597225
 37
0.0
 40
49.9991944319445
 41
1.860015522472318
 42
50.0
 43
0.0
 44
0.0
 50
0.0
 51
0.0
 71
     0
 72
   100
 73
     1
 74
     3
 75
     0
 76
     0
 77
     0
 78
     0
281
     0
 65
     1
110
0.0
120
0.0
130
0.0
111
1.0
121
0.0
131
0.0
112
0.0
122
1.0
132
0.0
 79
     0
146
0.0
 60
     3
 61
     5
292
     1
282
     1
141
0.0
142
0.0
 63
   250
361
3F
  0
ENDTAB
  0
TABLE
  2
LTYPE
  5
5
330
0
100
AcDbSymbolTable
 70
     1
  0
LTYPE
  5
14
330
5
100
AcDbSymbolTableRecord
100
AcDbLinetypeTableRecord
  2
ByBlock
 70
     0
  3

 72
    65
 73
     0
 40
0.0
  0
LTYPE
  5
15
330
5
100
AcDbSymbolTableRecord
100
AcDbLinetypeTableRecord
  2
ByLayer
 70
     0
  3

 72
    65
 73
     0
 40
0.0
  0
LTYPE
  5
16
330
5
100
AcDbSymbolTableRecord
100
AcDbLinetypeTableRecord
  2
Continuous
 70
     0
  3
Solid line
 72
    65
 73
     0
 40
0.0
  0
ENDTAB
  0
TABLE
  2
LAYER
  5
2
330
0
100
AcDbSymbolTable
 70
     6
  0
LAYER
  5
10
330
2
100
AcDbSymbolTableRecord
100
AcDbLayerTableRecord
  2
0
 70
     0
 62
     7
  6
Continuous
370
    -3
390
F
347
3E
  0
LAYER
  5
40
330
2
100
AcDbSymbolTableRecord
100
AcDbLayerTableRecord
  2
With Dials 3
 70
     1
 62
     7
  6
Continuous
370
    -3
390
F
347
3E
  0
LAYER
  5
41
330
2
100
AcDbSymbolTableRecord
100
AcDbLayerTableRecord
  2
With Dials 2
 70
     1
 62
     7
  6
Continuous
370
    -3
390
F
347
3E
  0
LAYER
  5
42
330
2
100
AcDbSymbolTableRecord
100
AcDbLayerTableRecord
  2
Guides
 70
     1
 62
     7
  6
Continuous
370
    -3
390
F
347
3E
  0
LAYER
  5
43
330
2
100
AcDbSymbolTableRecord
100
AcDbLayerTableRecord
  2
With Dials
 70
     0
 62
     7
  6
Continuous
370
    -3
390
F
347
3E
  0
LAYER
  5
120
330
2
100
AcDbSymbolTableRecord
100
AcDbLayerTableRecord
  2
Original
 70
     5
 62
     7
  6
Continuous
370
    -3
390
F
347
3E
  0
ENDTAB
  0
TABLE
  2
STYLE
  5
3
330
0
100
AcDbSymbolTable
 70
     1
  0
STYLE
  5
11
330
3
100
AcDbSymbolTableRecord
100
AcDbTextStyleTableRecord
  2
Standard
 70
     0
 40
0.0
 41
1.0
 50
0.0
 71
     0
 42
0.2
  3
txt
  4

  0
ENDTAB
  0
TABLE
  2
VIEW
  5
6
330
0
100
AcDbSymbolTable
 70
     0
  0
ENDTAB
  0
TABLE
  2
UCS
  5
7
330
0
100
AcDbSymbolTable
 70
     0
  0
ENDTAB
  0
TABLE
  2
APPID
  5
9
330
0
100
AcDbSymbolTable
 70
     1
  0
APPID
  5
12
330
9
100
AcDbSymbolTableRecord
100
AcDbRegAppTableRecord
  2
ACAD
 70
     0
  0
ENDTAB
  0
TABLE
  2
DIMSTYLE
  5
A
330
0
100
AcDbSymbolTable
 70
     1
100
AcDbDimStyleTable
  0
DIMSTYLE
105
27
330
A
100
AcDbSymbolTableRecord
100
AcDbDimStyleTableRecord
  2
Standard
 70
     0
178
     0
340
11
  0
ENDTAB
  0
TABLE
  2
BLOCK_RECORD
  5
1
330
0
100
AcDbSymbolTable
 70
     4
  0
BLOCK_RECORD
  5
1F
330
1
100
AcDbSymbolTableRecord
100
AcDbBlockTableRecord
  2
*Model_Space
340
22
 70
     0
280
     1
281
     0
  0
BLOCK_RECORD
  5
1B
330
1
100
AcDbSymbolTableRecord
100
AcDbBlockTableRecord
  2
*Paper_Space
340
1E
 70
     0
280
     1
281
     0
  0
BLOCK_RECORD
  5
23
330
1
100
AcDbSymbolTableRecord
100
AcDbBlockTableRecord
  2
*Paper_Space0
340
26
 70
     0
280
     1
281
     0
  0
BLOCK_RECORD
  5
44
330
1
100
AcDbSymbolTableRecord
100
AcDbBlockTableRecord
  2
block 2
340
0
102
{BLKREFS
331
45
102
}
 70
     0
280
     1
281
     0
  0
BLOCK_RECORD
  5
48
330
1
100
AcDbSymbolTableRecord
100
AcDbBlockTableRecord
  2
block 3
340
0
102
{BLKREFS
331
49
102
}
 70
     0
280
     1
281
     0
  0
BLOCK_RECORD
  5
4C
330
1
100
AcDbSymbolTableRecord
100
AcDbBlockTableRecord
  2
block 4
340
0
102
{BLKREFS
331
4D
102
}
 70
     0
280
     1
281
     0
  0
ENDTAB
  0
ENDSEC
  0
SECTION
  2
BLOCKS
  0
BLOCK
  5
20
330
1F
100
AcDbEntity
  8
0
100
AcDbBlockBegin
  2
*Model_Space
 70
     0
 10
0.0
 20
0.0
 30
0.0
  3
*Model_Space
  1

  0
ENDBLK
  5
21
330
1F
100
AcDbEntity
  8
0
100
AcDbBlockEnd
  0
BLOCK
  5
1C
330
1B
100
AcDbEntity
 67
     1
  8
0
100
AcDbBlockBegin
  2
*Paper_Space
 70
     0
 10
0.0
 20
0.0
 30
0.0
  3
*Paper_Space
  1

  0
ENDBLK
  5
1D
330
1B
100
AcDbEntity
 67
     1
  8
0
100
AcDbBlockEnd
  0
BLOCK
  5
24
330
23
100
AcDbEntity
  8
0
100
AcDbBlockBegin
  2
*Paper_Space0
 70
     0
 10
0.0
 20
0.0
 30
0.0
  3
*Paper_Space0
  1

  0
ENDBLK
  5
25
330
23
100
AcDbEntity
  8
0
100
AcDbBlockEnd
  0
BLOCK
  5
46
330
44
100
AcDbEntity
  8
0
100
AcDbBlockBegin
  2
block 2
 70
     0
 10
0.0
 20
0.0
 30
0.0
  3
block 2
  1

  0
INSERT
  5
49
330
44
100
AcDbEntity
  8
With Dials
100
AcDbBlockReference
  2
block 3
 10
0.0
 20
0.0
 30
0.0
  0
ENDBLK
  5
47
330
44
100
AcDbEntity
  8
0
100
AcDbBlockEnd
  0
BLOCK
  5
4A
330
48
100
AcDbEntity
  8
0
100
AcDbBlockBegin
  2
block 3
 70
     0
 10
0.0
 20
0.0
 30
0.0
  3
block 3
  1

  0
INSERT
  5
4D
330
48
100
AcDbEntity
  8
With Dials
100
AcDbBlockReference
  2
block 4
 10
0.0
 20
0.0
 30
0.0
  0
ENDBLK
  5
4B
330
48
100
AcDbEntity
  8
0
100
AcDbBlockEnd
  0
BLOCK
  5
4E
330
4C
100
AcDbEntity
  8
0
100
AcDbBlockBegin
  2
block 4
 70
     0
 10
0.0
 20
0.0
 30
0.0
  3
block 4
  1

  0
SPLINE
  5
50
330
4C
100
AcDbEntity
  8
With Dials
370
     0
100
AcDbSpline
210
0.0
220
0.0
230
1.0
 70
    11
 71
     3
 72
    56
 73
    52
 74
     0
 42
0.0000000001
 43
0.0000000001
 12
1.0
 22
0.0
 32
0.0
 13
1.0
 23
0.0
 33
0.0
 40
0.0
 40
0.0
 40
0.0
 40
0.0
 40
1.0
 40
1.0
 40
1.0
 40
2.0
 40
2.0
 40
2.0
 40
3.0
 40
3.0
 40
3.0
 40
4.0
 40
4.0
 40
4.0
 40
5.0
 40
5.0
 40
5.0
 40
6.0
 40
6.0
 40
6.0
 40
7.0
 40
7.0
 40
7.0
 40
8.0
 40
8.0
 40
8.0
 40
9.0
 40
9.0
 40
9.0
 40
10.0
 40
10.0
 40
10.0
 40
11.0
 40
11.0
 40
11.0
 40
12.0
 40
12.0
 40
12.0
 40
13.0
 40
13.0
 40
13.0
 40
14.0
 40
14.0
 40
14.0
 40
15.0
 40
15.0
 40
15.0
 40
16.0
 40
16.0
 40
16.0
 40
17.0
 40
17.0
 40
17.0
 40
17.0
 10
5.489931910519878
 20
-42.78670788860888
 30
0.0
 10
5.489931910519878
 20
-43.17359211160244
 30
0.0
 10
5.272890894949138
 20
-43.36789549697053
 30
0.0
 10
4.838808863807659
 20
-43.3689290256161
 30
0.0
 10
4.405932616086017
 20
-43.3689290256161
 30
0.0
 10
4.189408364838065
 20
-43.17497014979654
 30
0.0
 10
4.189408364838065
 20
-42.78670788860888
 30
0.0
 10
4.189408364838065
 20
-42.78670788860888
 30
0.0
 10
4.189408364838065
 20
-40.86434460783947
 30
0.0
 10
4.189408364838065
 20
-40.86434460783947
 30
0.0
 10
4.189408364838065
 20
-40.47746038484591
 30
0.0
 10
4.405932616086017
 20
-40.28384601857487
 30
0.0
 10
4.838808863807659
 20
-40.28384601857487
 30
0.0
 10
5.272890894949138
 20
-40.28384601857487
 30
0.0
 10
5.489931910519878
 20
-40.47746038484591
 30
0.0
 10
5.489931910519878
 20
-40.86434460783947
 30
0.0
 10
5.489931910519878
 20
-40.86434460783947
 30
0.0
 10
5.489931910519878
 20
-41.20885415636445
 30
0.0
 10
5.489931910519878
 20
-41.20885415636445
 30
0.0
 10
5.489931910519878
 20
-41.20885415636445
 30
0.0
 10
5.154035100708019
 20
-41.20885415636445
 30
0.0
 10
5.154035100708019
 20
-41.20885415636445
 30
0.0
 10
5.154035100708019
 20
-41.20885415636445
 30
0.0
 10
5.154035100708019
 20
-40.86434460783947
 30
0.0
 10
5.154035100708019
 20
-40.86434460783947
 30
0.0
 10
5.154035100708019
 20
-40.67141926066548
 30
0.0
 10
5.049476452730687
 20
-40.57426756798144
 30
0.0
 10
4.840531411550284
 20
-40.57323403933586
 30
0.0
 10
4.840531411550284
 20
-40.57323403933586
 30
0.0
 10
4.837086316065034
 20
-40.57323403933586
 30
0.0
 10
4.837086316065034
 20
-40.57323403933586
 30
0.0
 10
4.629174803530207
 20
-40.57323403933586
 30
0.0
 10
4.525305174649924
 20
-40.6703857320199
 30
0.0
 10
4.525305174649924
 20
-40.86434460783947
 30
0.0
 10
4.525305174649924
 20
-40.86434460783947
 30
0.0
 10
4.525305174649924
 20
-42.78670788860888
 30
0.0
 10
4.525305174649924
 20
-42.78670788860888
 30
0.0
 10
4.525305174649924
 20
-42.98066676442845
 30
0.0
 10
4.629863822627256
 20
-43.07781845711249
 30
0.0
 10
4.838808863807659
 20
-43.07781845711249
 30
0.0
 10
5.0489596884079
 20
-43.07781845711249
 30
0.0
 10
5.154035100708019
 20
-42.98066676442845
 30
0.0
 10
5.154035100708019
 20
-42.78670788860888
 30
0.0
 10
5.154035100708019
 20
-42.78670788860888
 30
0.0
 10
5.154035100708019
 20
-42.4421983400839
 30
0.0
 10
5.154035100708019
 20
-42.4421983400839
 30
0.0
 10
5.154035100708019
 20
-42.4421983400839
 30
0.0
 10
5.489931910519878
 20
-42.4421983400839
 30
0.0
 10
5.489931910519878
 20
-42.4421983400839
 30
0.0
 10
5.489931910519878
 20
-42.4421983400839
 30
0.0
 10
5.489931910519878
 20
-42.78670788860888
 30
0.0
 10
5.489931910519878
 20
-42.78670788860888
 30
0.0
  0
HATCH
  5
51
330
4C
100
AcDbEntity
  8
With Dials
 62
   250
420
  2301728
100
AcDbHatch
 10
0.0
 20
0.0
 30
0.0
210
0.0
220
0.0
230
1.0
  2
SOLID
 70
     1
 71
     0
 91
        1
 92
        1
 93
        1
 72
     4
 94
        3
 73
     0
 74
     1
 95
       56
 96
       52
 40
0.0
 40
0.0
 40
0.0
 40
0.0
 40
1.0
 40
1.0
 40
1.0
 40
2.0
 40
2.0
 40
2.0
 40
3.0
 40
3.0
 40
3.0
 40
4.0
 40
4.0
 40
4.0
 40
5.0
 40
5.0
 40
5.0
 40
6.0
 40
6.0
 40
6.0
 40
7.0
 40
7.0
 40
7.0
 40
8.0
 40
8.0
 40
8.0
 40
9.0
 40
9.0
 40
9.0
 40
10.0
 40
10.0
 40
10.0
 40
11.0
 40
11.0
 40
11.0
 40
12.0
 40
12.0
 40
12.0
 40
13.0
 40
13.0
 40
13.0
 40
14.0
 40
14.0
 40
14.0
 40
15.0
 40
15.0
 40
15.0
 40
16.0
 40
16.0
 40
16.0
 40
17.0
 40
17.0
 40
17.0
 40
17.0
 10
5.489931910519878
 20
-42.78670788860888
 10
5.489931910519878
 20
-43.17359211160244
 10
5.272890894949138
 20
-43.36789549697053
 10
4.838808863807659
 20
-43.3689290256161
 10
4.405932616086017
 20
-43.3689290256161
 10
4.189408364838065
 20
-43.17497014979654
 10
4.189408364838065
 20
-42.78670788860888
 10
4.189408364838065
 20
-42.78670788860888
 10
4.189408364838065
 20
-40.86434460783947
 10
4.189408364838065
 20
-40.86434460783947
 10
4.189408364838065
 20
-40.47746038484591
 10
4.405932616086017
 20
-40.28384601857487
 10
4.838808863807659
 20
-40.28384601857487
 10
5.272890894949138
 20
-40.28384601857487
 10
5.489931910519878
 20
-40.47746038484591
 10
5.489931910519878
 20
-40.86434460783947
 10
5.489931910519878
 20
-40.86434460783947
 10
5.489931910519878
 20
-41.20885415636445
 10
5.489931910519878
 20
-41.20885415636445
 10
5.489931910519878
 20
-41.20885415636445
 10
5.154035100708019
 20
-41.20885415636445
 10
5.154035100708019
 20
-41.20885415636445
 10
5.154035100708019
 20
-41.20885415636445
 10
5.154035100708019
 20
-40.86434460783947
 10
5.154035100708019
 20
-40.86434460783947
 10
5.154035100708019
 20
-40.67141926066548
 10
5.049476452730687
 20
-40.57426756798144
 10
4.840531411550284
 20
-40.57323403933586
 10
4.840531411550284
 20
-40.57323403933586
 10
4.837086316065034
 20
-40.57323403933586
 10
4.837086316065034
 20
-40.57323403933586
 10
4.629174803530207
 20
-40.57323403933586
 10
4.525305174649924
 20
-40.6703857320199
 10
4.525305174649924
 20
-40.86434460783947
 10
4.525305174649924
 20
-40.86434460783947
 10
4.525305174649924
 20
-42.78670788860888
 10
4.525305174649924
 20
-42.78670788860888
 10
4.525305174649924
 20
-42.98066676442845
 10
4.629863822627256
 20
-43.07781845711249
 10
4.838808863807659
 20
-43.07781845711249
 10
5.0489596884079
 20
-43.07781845711249
 10
5.154035100708019
 20
-42.98066676442845
 10
5.154035100708019
 20
-42.78670788860888
 10
5.154035100708019
 20
-42.78670788860888
 10
5.154035100708019
 20
-42.4421983400839
 10
5.154035100708019
 20
-42.4421983400839
 10
5.154035100708019
 20
-42.4421983400839
 10
5.489931910519878
 20
-42.4421983400839
 10
5.489931910519878
 20
-42.4421983400839
 10
5.489931910519878
 20
-42.4421983400839
 10
5.489931910519878
 20
-42.78670788860888
 10
5.489931910519878
 20
-42.78670788860888
 97
        0
 97
        0
 75
     2
 76
     1
 98
        0
  0
SPLINE
  5
52
330
4C
100
AcDbEntity
  8
With Dials
370
     0
100
AcDbSpline
210
0.0
220
0.0
230
1.0
 70
    11
 71
     3
 72
    23
 73
    19
 74
     0
 42
0.0000000001
 43
0.0000000001
 12
1.0
 22
0.0
 32
0.0
 13
1.0
 23
0.0
 33
0.0
 40
0.0
 40
0.0
 40
0.0
 40
0.0
 40
1.0
 40
1.0
 40
1.0
 40
2.0
 40
2.0
 40
2.0
 40
3.0
 40
3.0
 40
3.0
 40
4.0
 40
4.0
 40
4.0
 40
5.0
 40
5.0
 40
5.0
 40
6.0
 40
6.0
 40
6.0
 40
6.0
 10
7.240384926575321
 20
-42.78670788860888
 30
0.0
 10
7.240384926575321
 20
-43.17359211160244
 30
0.0
 10
7.023343911004581
 20
-43.36789549697053
 30
0.0
 10
6.589261879863101
 20
-43.3689290256161
 30
0.0
 10
6.156385632141459
 20
-43.3689290256161
 30
0.0
 10
5.939861380893507
 20
-43.17497014979654
 30
0.0
 10
5.939861380893507
 20
-42.78670788860888
 30
0.0
 10
5.939861380893507
 20
-42.78670788860888
 30
0.0
 10
5.939861380893507
 20
-40.86434460783947
 30
0.0
 10
5.939861380893507
 20
-40.86434460783947
 30
0.0
 10
5.939861380893507
 20
-40.47746038484591
 30
0.0
 10
6.156385632141459
 20
-40.28384601857487
 30
0.0
 10
6.589261879863101
 20
-40.28384601857487
 30
0.0
 10
7.023343911004581
 20
-40.28384601857487
 30
0.0
 10
7.240384926575321
 20
-40.47746038484591
 30
0.0
 10
7.240384926575321
 20
-40.86434460783947
 30
0.0
 10
7.240384926575321
 20
-40.86434460783947
 30
0.0
 10
7.240384926575321
 20
-42.78670788860888
 30
0.0
 10
7.240384926575321
 20
-42.78670788860888
 30
0.0
  0
SPLINE
  5
53
330
4C
100
AcDbEntity
  8
With Dials
370
     0
100
AcDbSpline
210
0.0
220
0.0
230
1.0
 70
    11
 71
     3
 72
    26
 73
    22
 74
     0
 42
0.0000000001
 43
0.0000000001
 12
1.0
 22
0.0
 32
0.0
 13
1.0
 23
0.0
 33
0.0
 40
0.0
 40
0.0
 40
0.0
 40
0.0
 40
1.0
 40
1.0
 40
1.0
 40
2.0
 40
2.0
 40
2.0
 40
3.0
 40
3.0
 40
3.0
 40
4.0
 40
4.0
 40
4.0
 40
5.0
 40
5.0
 40
5.0
 40
6.0
 40
6.0
 40
6.0
 40
7.0
 40
7.0
 40
7.0
 40
7.0
 10
6.904488116763462
 20
-40.86434460783947
 30
0.0
 10
6.904488116763462
 20
-40.67141926066548
 30
0.0
 10
6.799929468786129
 20
-40.57426756798144
 30
0.0
 10
6.590984427605727
 20
-40.57323403933586
 30
0.0
 10
6.590984427605727
 20
-40.57323403933586
 30
0.0
 10
6.587539332120476
 20
-40.57323403933586
 30
0.0
 10
6.587539332120476
 20
-40.57323403933586
 30
0.0
 10
6.379627819585649
 20
-40.57323403933586
 30
0.0
 10
6.275758190705366
 20
-40.6703857320199
 30
0.0
 10
6.275758190705366
 20
-40.86434460783947
 30
0.0
 10
6.275758190705366
 20
-40.86434460783947
 30
0.0
 10
6.275758190705366
 20
-42.78670788860888
 30
0.0
 10
6.275758190705366
 20
-42.78670788860888
 30
0.0
 10
6.275758190705366
 20
-42.98066676442845
 30
0.0
 10
6.380316838682699
 20
-43.07781845711249
 30
0.0
 10
6.589261879863101
 20
-43.07781845711249
 30
0.0
 10
6.799412704463341
 20
-43.07781845711249
 30
0.0
 10
6.904488116763462
 20
-42.98066676442845
 30
0.0
 10
6.904488116763462
 20
-42.78670788860888
 30
0.0
 10
6.904488116763462
 20
-42.78670788860888
 30
0.0
 10
6.904488116763462
 20
-40.86434460783947
 30
0.0
 10
6.904488116763462
 20
-40.86434460783947
 30
0.0
  0
HATCH
  5
54
330
4C
100
AcDbEntity
  8
With Dials
 62
   250
420
  2301728
100
AcDbHatch
 10
0.0
 20
0.0
 30
0.0
210
0.0
220
0.0
230
1.0
  2
SOLID
 70
     1
 71
     0
 91
        2
 92
        1
 93
        1
 72
     4
 94
        3
 73
     0
 74
     1
 95
       23
 96
       19
 40
0.0
 40
0.0
 40
0.0
 40
0.0
 40
1.0
 40
1.0
 40
1.0
 40
2.0
 40
2.0
 40
2.0
 40
3.0
 40
3.0
 40
3.0
 40
4.0
 40
4.0
 40
4.0
 40
5.0
 40
5.0
 40
5.0
 40
6.0
 40
6.0
 40
6.0
 40
6.0
 10
7.240384926575321
 20
-42.78670788860888
 10
7.240384926575321
 20
-43.17359211160244
 10
7.023343911004581
 20
-43.36789549697053
 10
6.589261879863101
 20
-43.3689290256161
 10
6.156385632141459
 20
-43.3689290256161
 10
5.939861380893507
 20
-43.17497014979654
 10
5.939861380893507
 20
-42.78670788860888
 10
5.939861380893507
 20
-42.78670788860888
 10
5.939861380893507
 20
-40.86434460783947
 10
5.939861380893507
 20
-40.86434460783947
 10
5.939861380893507
 20
-40.47746038484591
 10
6.156385632141459
 20
-40.28384601857487
 10
6.589261879863101
 20
-40.28384601857487
 10
7.023343911004581
 20
-40.28384601857487
 10
7.240384926575321
 20
-40.47746038484591
 10
7.240384926575321
 20
-40.86434460783947
 10
7.240384926575321
 20
-40.86434460783947
 10
7.240384926575321
 20
-42.78670788860888
 10
7.240384926575321
 20
-42.78670788860888
 97
        0
 97
        0
 92
        1
 93
        1
 72
     4
 94
        3
 73
     0
 74
     1
 95
       26
 96
       22
 40
0.0
 40
0.0
 40
0.0
 40
0.0
 40
1.0
 40
1.0
 40
1.0
 40
2.0
 40
2.0
 40
2.0
 40
3.0
 40
3.0
 40
3.0
 40
4.0
 40
4.0
 40
4.0
 40
5.0
 40
5.0
 40
5.0
 40
6.0
 40
6.0
 40
6.0
 40
7.0
 40
7.0
 40
7.0
 40
7.0
 10
6.904488116763462
 20
-40.86434460783947
 10
6.904488116763462
 20
-40.67141926066548
 10
6.799929468786129
 20
-40.57426756798144
 10
6.590984427605727
 20
-40.57323403933586
 10
6.590984427605727
 20
-40.57323403933586
 10
6.587539332120476
 20
-40.57323403933586
 10
6.587539332120476
 20
-40.57323403933586
 10
6.379627819585649
 20
-40.57323403933586
 10
6.275758190705366
 20
-40.6703857320199
 10
6.275758190705366
 20
-40.86434460783947
 10
6.275758190705366
 20
-40.86434460783947
 10
6.275758190705366
 20
-42.78670788860888
 10
6.275758190705366
 20
-42.78670788860888
 10
6.275758190705366
 20
-42.98066676442845
 10
6.380316838682699
 20
-43.07781845711249
 10
6.589261879863101
 20
-43.07781845711249
 10
6.799412704463341
 20
-43.07781845711249
 10
6.904488116763462
 20
-42.98066676442845
 10
6.904488116763462
 20
-42.78670788860888
 10
6.904488116763462
 20
-42.78670788860888
 10
6.904488116763462
 20
-40.86434460783947
 10
6.904488116763462
 20
-40.86434460783947
 97
        0
 97
        0
 75
     2
 76
     1
 98
        0
  0
POLYLINE
  5
55
330
4C
100
AcDbEntity
  8
With Dials
370
     0
100
AcDb2dPolyline
 66
     1
 10
0.0
 20
0.0
 30
0.0
  0
VERTEX
  5
56
330
55
100
AcDbEntity
  8
With Dials
370
     0
100
AcDbVertex
100
AcDb2dVertex
 10
7.741990829227697
 20
-40.3269097121405
 30
0.0
  0
VERTEX
  5
57
330
55
100
AcDbEntity
  8
With Dials
370
     0
100
AcDbVertex
100
AcDb2dVertex
 10
8.095113116465805
 20
-40.3269097121405
 30
0.0
  0
VERTEX
  5
58
330
55
100
AcDbEntity
  8
With Dials
370
     0
100
AcDbVertex
100
AcDb2dVertex
 10
8.7445136154354
 20
-42.74881183827113
 30
0.0
  0
VERTEX
  5
59
330
55
100
AcDbEntity
  8
With Dials
370
     0
100
AcDbVertex
100
AcDb2dVertex
 10
8.7445136154354
 20
-40.33379990311099
 30
0.0
  0
VERTEX
  5
5A
330
55
100
AcDbEntity
  8
With Dials
370
     0
100
AcDbVertex
100
AcDb2dVertex
 10
9.04251437490951
 20
-40.32863225988312
 30
0.0
  0
VERTEX
  5
5B
330
55
100
AcDbEntity
  8
With Dials
370
     0
100
AcDbVertex
100
AcDb2dVertex
 10
9.04251437490951
 20
-43.31036240236686
 30
0.0
  0
VERTEX
  5
5C
330
55
100
AcDbEntity
  8
With Dials
370
     0
100
AcDbVertex
100
AcDb2dVertex
 10
8.689392087671402
 20
-43.31036240236686
 30
0.0
  0
VERTEX
  5
5D
330
55
100
AcDbEntity
  8
With Dials
370
     0
100
AcDbVertex
100
AcDb2dVertex
 10
8.058939613870683
 20
-40.94013670851497
 30
0.0
  0
VERTEX
  5
5E
330
55
100
AcDbEntity
  8
With Dials
370
     0
100
AcDbVertex
100
AcDb2dVertex
 10
8.058939613870683
 20
-43.31036240236686
 30
0.0
  0
VERTEX
  5
5F
330
55
100
AcDbEntity
  8
With Dials
370
     0
100
AcDbVertex
100
AcDb2dVertex
 10
7.741990829227697
 20
-43.31036240236686
 30
0.0
  0
VERTEX
  5
60
330
55
100
AcDbEntity
  8
With Dials
370
     0
100
AcDbVertex
100
AcDb2dVertex
 10
7.741990829227697
 20
-40.3269097121405
 30
0.0
  0
SEQEND
  5
61
330
55
100
AcDbEntity
  8
With Dials
370
     0
  0
HATCH
  5
62
330
4C
100
AcDbEntity
  8
With Dials
 62
   250
420
  2301728
100
AcDbHatch
 10
0.0
 20
0.0
 30
0.0
210
0.0
220
0.0
230
1.0
  2
SOLID
 70
     1
 71
     0
 91
        1
 92
        1
 93
       10
 72
     1
 10
7.741990829227697
 20
-40.3269097121405
 11
8.095113116465805
 21
-40.3269097121405
 72
     1
 10
8.095113116465805
 20
-40.3269097121405
 11
8.7445136154354
 21
-42.74881183827113
 72
     1
 10
8.7445136154354
 20
-42.74881183827113
 11
8.7445136154354
 21
-40.33379990311099
 72
     1
 10
8.7445136154354
 20
-40.33379990311099
 11
9.04251437490951
 21
-40.32863225988312
 72
     1
 10
9.04251437490951
 20
-40.32863225988312
 11
9.04251437490951
 21
-43.31036240236686
 72
     1
 10
9.04251437490951
 20
-43.31036240236686
 11
8.689392087671402
 21
-43.31036240236686
 72
     1
 10
8.689392087671402
 20
-43.31036240236686
 11
8.058939613870683
 21
-40.94013670851497
 72
     1
 10
8.058939613870683
 20
-40.94013670851497
 11
8.058939613870683
 21
-43.31036240236686
 72
     1
 10
8.058939613870683
 20
-43.31036240236686
 11
7.741990829227697
 21
-43.31036240236686
 72
     1
 10
7.741990829227697
 20
-43.31036240236686
 11
7.741990829227697
 21
-40.3269097121405
 97
        0
 75
     2
 76
     1
 98
        0
  0
SPLINE
  5
63
330
4C
100
AcDbEntity
  8
With Dials
370
     0
100
AcDbSpline
210
0.0
220
0.0
230
1.0
 70
    11
 71
     3
 72
    56
 73
    52
 74
     0
 42
0.0000000001
 43
0.0000000001
 12
1.0
 22
0.0
 32
0.0
 13
1.0
 23
0.0
 33
0.0
 40
0.0
 40
0.0
 40
0.0
 40
0.0
 40
1.0
 40
1.0
 40
1.0
 40
2.0
 40
2.0
 40
2.0
 40
3.0
 40
3.0
 40
3.0
 40
4.0
 40
4.0
 40
4.0
 40
5.0
 40
5.0
 40
5.0
 40
6.0
 40
6.0
 40
6.0
 40
7.0
 40
7.0
 40
7.0
 40
8.0
 40
8.0
 40
8.0
 40
9.0
 40
9.0
 40
9.0
 40
10.0
 40
10.0
 40
10.0
 40
11.0
 40
11.0
 40
11.0
 40
12.0
 40
12.0
 40
12.0
 40
13.0
 40
13.0
 40
13.0
 40
14.0
 40
14.0
 40
14.0
 40
15.0
 40
15.0
 40
15.0
 40
16.0
 40
16.0
 40
16.0
 40
17.0
 40
17.0
 40
17.0
 40
17.0
 10
10.8446438232437
 20
-42.78670788860888
 30
0.0
 10
10.8446438232437
 20
-43.17359211160244
 30
0.0
 10
10.62760280767296
 20
-43.36789549697053
 30
0.0
 10
10.19352077653148
 20
-43.3689290256161
 30
0.0
 10
9.76064452880984
 20
-43.3689290256161
 30
0.0
 10
9.544120277561888
 20
-43.17497014979654
 30
0.0
 10
9.544120277561888
 20
-42.78670788860888
 30
0.0
 10
9.544120277561888
 20
-42.78670788860888
 30
0.0
 10
9.544120277561888
 20
-40.86434460783947
 30
0.0
 10
9.544120277561888
 20
-40.86434460783947
 30
0.0
 10
9.544120277561888
 20
-40.47746038484591
 30
0.0
 10
9.76064452880984
 20
-40.28384601857487
 30
0.0
 10
10.19352077653148
 20
-40.28384601857487
 30
0.0
 10
10.62760280767296
 20
-40.28384601857487
 30
0.0
 10
10.8446438232437
 20
-40.47746038484591
 30
0.0
 10
10.8446438232437
 20
-40.86434460783947
 30
0.0
 10
10.8446438232437
 20
-40.86434460783947
 30
0.0
 10
10.8446438232437
 20
-41.20885415636445
 30
0.0
 10
10.8446438232437
 20
-41.20885415636445
 30
0.0
 10
10.8446438232437
 20
-41.20885415636445
 30
0.0
 10
10.50874701343184
 20
-41.20885415636445
 30
0.0
 10
10.50874701343184
 20
-41.20885415636445
 30
0.0
 10
10.50874701343184
 20
-41.20885415636445
 30
0.0
 10
10.50874701343184
 20
-40.86434460783947
 30
0.0
 10
10.50874701343184
 20
-40.86434460783947
 30
0.0
 10
10.50874701343184
 20
-40.67141926066548
 30
0.0
 10
10.40418836545451
 20
-40.57426756798144
 30
0.0
 10
10.19524332427411
 20
-40.57323403933586
 30
0.0
 10
10.19524332427411
 20
-40.57323403933586
 30
0.0
 10
10.19179822878886
 20
-40.57323403933586
 30
0.0
 10
10.19179822878886
 20
-40.57323403933586
 30
0.0
 10
9.983886716254029
 20
-40.57323403933586
 30
0.0
 10
9.880017087373746
 20
-40.6703857320199
 30
0.0
 10
9.880017087373746
 20
-40.86434460783947
 30
0.0
 10
9.880017087373746
 20
-40.86434460783947
 30
0.0
 10
9.880017087373746
 20
-42.78670788860888
 30
0.0
 10
9.880017087373746
 20
-42.78670788860888
 30
0.0
 10
9.880017087373746
 20
-42.98066676442845
 30
0.0
 10
9.98457573535108
 20
-43.07781845711249
 30
0.0
 10
10.19352077653148
 20
-43.07781845711249
 30
0.0
 10
10.40367160113172
 20
-43.07781845711249
 30
0.0
 10
10.50874701343184
 20
-42.98066676442845
 30
0.0
 10
10.50874701343184
 20
-42.78670788860888
 30
0.0
 10
10.50874701343184
 20
-42.78670788860888
 30
0.0
 10
10.50874701343184
 20
-42.4421983400839
 30
0.0
 10
10.50874701343184
 20
-42.4421983400839
 30
0.0
 10
10.50874701343184
 20
-42.4421983400839
 30
0.0
 10
10.8446438232437
 20
-42.4421983400839
 30
0.0
 10
10.8446438232437
 20
-42.4421983400839
 30
0.0
 10
10.8446438232437
 20
-42.4421983400839
 30
0.0
 10
10.8446438232437
 20
-42.78670788860888
 30
0.0
 10
10.8446438232437
 20
-42.78670788860888
 30
0.0
  0
HATCH
  5
64
330
4C
100
AcDbEntity
  8
With Dials
 62
   250
420
  2301728
100
AcDbHatch
 10
0.0
 20
0.0
 30
0.0
210
0.0
220
0.0
230
1.0
  2
SOLID
 70
     1
 71
     0
 91
        1
 92
        1
 93
        1
 72
     4
 94
        3
 73
     0
 74
     1
 95
       56
 96
       52
 40
0.0
 40
0.0
 40
0.0
 40
0.0
 40
1.0
 40
1.0
 40
1.0
 40
2.0
 40
2.0
 40
2.0
 40
3.0
 40
3.0
 40
3.0
 40
4.0
 40
4.0
 40
4.0
 40
5.0
 40
5.0
 40
5.0
 40
6.0
 40
6.0
 40
6.0
 40
7.0
 40
7.0
 40
7.0
 40
8.0
 40
8.0
 40
8.0
 40
9.0
 40
9.0
 40
9.0
 40
10.0
 40
10.0
 40
10.0
 40
11.0
 40
11.0
 40
11.0
 40
12.0
 40
12.0
 40
12.0
 40
13.0
 40
13.0
 40
13.0
 40
14.0
 40
14.0
 40
14.0
 40
15.0
 40
15.0
 40
15.0
 40
16.0
 40
16.0
 40
16.0
 40
17.0
 40
17.0
 40
17.0
 40
17.0
 10
10.8446438232437
 20
-42.78670788860888
 10
10.8446438232437
 20
-43.17359211160244
 10
10.62760280767296
 20
-43.36789549697053
 10
10.19352077653148
 20
-43.3689290256161
 10
9.76064452880984
 20
-43.3689290256161
 10
9.544120277561888
 20
-43.17497014979654
 10
9.544120277561888
 20
-42.78670788860888
 10
9.544120277561888
 20
-42.78670788860888
 10
9.544120277561888
 20
-40.86434460783947
 10
9.544120277561888
 20
-40.86434460783947
 10
9.544120277561888
 20
-40.47746038484591
 10
9.76064452880984
 20
-40.28384601857487
 10
10.19352077653148
 20
-40.28384601857487
 10
10.62760280767296
 20
-40.28384601857487
 10
10.8446438232437
 20
-40.47746038484591
 10
10.8446438232437
 20
-40.86434460783947
 10
10.8446438232437
 20
-40.86434460783947
 10
10.8446438232437
 20
-41.20885415636445
 10
10.8446438232437
 20
-41.20885415636445
 10
10.8446438232437
 20
-41.20885415636445
 10
10.50874701343184
 20
-41.20885415636445
 10
10.50874701343184
 20
-41.20885415636445
 10
10.50874701343184
 20
-41.20885415636445
 10
10.50874701343184
 20
-40.86434460783947
 10
10.50874701343184
 20
-40.86434460783947
 10
10.50874701343184
 20
-40.67141926066548
 10
10.40418836545451
 20
-40.57426756798144
 10
10.19524332427411
 20
-40.57323403933586
 10
10.19524332427411
 20
-40.57323403933586
 10
10.19179822878886
 20
-40.57323403933586
 10
10.19179822878886
 20
-40.57323403933586
 10
9.983886716254029
 20
-40.57323403933586
 10
9.880017087373746
 20
-40.6703857320199
 10
9.880017087373746
 20
-40.86434460783947
 10
9.880017087373746
 20
-40.86434460783947
 10
9.880017087373746
 20
-42.78670788860888
 10
9.880017087373746
 20
-42.78670788860888
 10
9.880017087373746
 20
-42.98066676442845
 10
9.98457573535108
 20
-43.07781845711249
 10
10.19352077653148
 20
-43.07781845711249
 10
10.40367160113172
 20
-43.07781845711249
 10
10.50874701343184
 20
-42.98066676442845
 10
10.50874701343184
 20
-42.78670788860888
 10
10.50874701343184
 20
-42.78670788860888
 10
10.50874701343184
 20
-42.4421983400839
 10
10.50874701343184
 20
-42.4421983400839
 10
10.50874701343184
 20
-42.4421983400839
 10
10.8446438232437
 20
-42.4421983400839
 10
10.8446438232437
 20
-42.4421983400839
 10
10.8446438232437
 20
-42.4421983400839
 10
10.8446438232437
 20
-42.78670788860888
 10
10.8446438232437
 20
-42.78670788860888
 97
        0
 97
        0
 75
     2
 76
     1
 98
        0
  0
POLYLINE
  5
65
330
4C
100
AcDbEntity
  8
With Dials
370
     0
100
AcDb2dPolyline
 66
     1
 10
0.0
 20
0.0
 30
0.0
  0
VERTEX
  5
66
330
65
100
AcDbEntity
  8
With Dials
370
     0
100
AcDbVertex
100
AcDb2dVertex
 10
12.3711656327579
 20
-41.67394204687319
 30
0.0
  0
VERTEX
  5
67
330
65
100
AcDbEntity
  8
With Dials
370
     0
100
AcDbVertex
100
AcDb2dVertex
 10
12.3711656327579
 20
-41.96333006763417
 30
0.0
  0
VERTEX
  5
68
330
65
100
AcDbEntity
  8
With Dials
370
     0
100
AcDbVertex
100
AcDb2dVertex
 10
11.66492105828169
 20
-41.96333006763417
 30
0.0
  0
VERTEX
  5
69
330
65
100
AcDbEntity
  8
With Dials
370
     0
100
AcDbVertex
100
AcDb2dVertex
 10
11.66492105828169
 20
-43.02097438160587
 30
0.0
  0
VERTEX
  5
6A
330
65
100
AcDbEntity
  8
With Dials
370
     0
100
AcDbVertex
100
AcDb2dVertex
 10
12.48485378377115
 20
-43.02097438160587
 30
0.0
  0
VERTEX
  5
6B
330
65
100
AcDbEntity
  8
With Dials
370
     0
100
AcDbVertex
100
AcDb2dVertex
 10
12.48485378377115
 20
-43.31036240236686
 30
0.0
  0
VERTEX
  5
6C
330
65
100
AcDbEntity
  8
With Dials
370
     0
100
AcDbVertex
100
AcDb2dVertex
 10
11.32902424846983
 20
-43.31036240236686
 30
0.0
  0
VERTEX
  5
6D
330
65
100
AcDbEntity
  8
With Dials
370
     0
100
AcDbVertex
100
AcDb2dVertex
 10
11.32902424846983
 20
-40.3269097121405
 30
0.0
  0
VERTEX
  5
6E
330
65
100
AcDbEntity
  8
With Dials
370
     0
100
AcDbVertex
100
AcDb2dVertex
 10
12.48485378377115
 20
-40.3269097121405
 30
0.0
  0
VERTEX
  5
6F
330
65
100
AcDbEntity
  8
With Dials
370
     0
100
AcDbVertex
100
AcDb2dVertex
 10
12.48485378377115
 20
-40.61629773290149
 30
0.0
  0
VERTEX
  5
70
330
65
100
AcDbEntity
  8
With Dials
370
     0
100
AcDbVertex
100
AcDb2dVertex
 10
11.66492105828169
 20
-40.61629773290149
 30
0.0
  0
VERTEX
  5
71
330
65
100
AcDbEntity
  8
With Dials
370
     0
100
AcDbVertex
100
AcDb2dVertex
 10
11.66492105828169
 20
-41.67394204687319
 30
0.0
  0
VERTEX
  5
72
330
65
100
AcDbEntity
  8
With Dials
370
     0
100
AcDbVertex
100
AcDb2dVertex
 10
12.3711656327579
 20
-41.67394204687319
 30
0.0
  0
SEQEND
  5
73
330
65
100
AcDbEntity
  8
With Dials
370
     0
  0
HATCH
  5
74
330
4C
100
AcDbEntity
  8
With Dials
 62
   250
420
  2301728
100
AcDbHatch
 10
0.0
 20
0.0
 30
0.0
210
0.0
220
0.0
230
1.0
  2
SOLID
 70
     1
 71
     0
 91
        1
 92
        1
 93
       12
 72
     1
 10
12.3711656327579
 20
-41.67394204687319
 11
12.3711656327579
 21
-41.96333006763417
 72
     1
 10
12.3711656327579
 20
-41.96333006763417
 11
11.66492105828169
 21
-41.96333006763417
 72
     1
 10
11.66492105828169
 20
-41.96333006763417
 11
11.66492105828169
 21
-43.02097438160587
 72
     1
 10
11.66492105828169
 20
-43.02097438160587
 11
12.48485378377115
 21
-43.02097438160587
 72
     1
 10
12.48485378377115
 20
-43.02097438160587
 11
12.48485378377115
 21
-43.31036240236686
 72
     1
 10
12.48485378377115
 20
-43.31036240236686
 11
11.32902424846983
 21
-43.31036240236686
 72
     1
 10
11.32902424846983
 20
-43.31036240236686
 11
11.32902424846983
 21
-40.3269097121405
 72
     1
 10
11.32902424846983
 20
-40.3269097121405
 11
12.48485378377115
 21
-40.3269097121405
 72
     1
 10
12.48485378377115
 20
-40.3269097121405
 11
12.48485378377115
 21
-40.61629773290149
 72
     1
 10
12.48485378377115
 20
-40.61629773290149
 11
11.66492105828169
 21
-40.61629773290149
 72
     1
 10
11.66492105828169
 20
-40.61629773290149
 11
11.66492105828169
 21
-41.67394204687319
 72
     1
 10
11.66492105828169
 20
-41.67394204687319
 11
12.3711656327579
 21
-41.67394204687319
 97
        0
 75
     2
 76
     1
 98
        0
  0
POLYLINE
  5
75
330
4C
100
AcDbEntity
  8
With Dials
370
     0
100
AcDb2dPolyline
 66
     1
 10
0.0
 20
0.0
 30
0.0
  0
VERTEX
  5
76
330
75
100
AcDbEntity
  8
With Dials
370
     0
100
AcDbVertex
100
AcDb2dVertex
 10
12.93478325414478
 20
-40.3269097121405
 30
0.0
  0
VERTEX
  5
77
330
75
100
AcDbEntity
  8
With Dials
370
     0
100
AcDbVertex
100
AcDb2dVertex
 10
13.28790554138289
 20
-40.3269097121405
 30
0.0
  0
VERTEX
  5
78
330
75
100
AcDbEntity
  8
With Dials
370
     0
100
AcDbVertex
100
AcDb2dVertex
 10
13.93730604035248
 20
-42.74881183827113
 30
0.0
  0
VERTEX
  5
79
330
75
100
AcDbEntity
  8
With Dials
370
     0
100
AcDbVertex
100
AcDb2dVertex
 10
13.93730604035248
 20
-40.33379990311099
 30
0.0
  0
VERTEX
  5
7A
330
75
100
AcDbEntity
  8
With Dials
370
     0
100
AcDbVertex
100
AcDb2dVertex
 10
14.23530679982659
 20
-40.32863225988312
 30
0.0
  0
VERTEX
  5
7B
330
75
100
AcDbEntity
  8
With Dials
370
     0
100
AcDbVertex
100
AcDb2dVertex
 10
14.23530679982659
 20
-43.31036240236686
 30
0.0
  0
VERTEX
  5
7C
330
75
100
AcDbEntity
  8
With Dials
370
     0
100
AcDbVertex
100
AcDb2dVertex
 10
13.88218451258848
 20
-43.31036240236686
 30
0.0
  0
VERTEX
  5
7D
330
75
100
AcDbEntity
  8
With Dials
370
     0
100
AcDbVertex
100
AcDb2dVertex
 10
13.25173203878776
 20
-40.94013670851497
 30
0.0
  0
VERTEX
  5
7E
330
75
100
AcDbEntity
  8
With Dials
370
     0
100
AcDbVertex
100
AcDb2dVertex
 10
13.25173203878776
 20
-43.31036240236686
 30
0.0
  0
VERTEX
  5
7F
330
75
100
AcDbEntity
  8
With Dials
370
     0
100
AcDbVertex
100
AcDb2dVertex
 10
12.93478325414478
 20
-43.31036240236686
 30
0.0
  0
VERTEX
  5
80
330
75
100
AcDbEntity
  8
With Dials
370
     0
100
AcDbVertex
100
AcDb2dVertex
 10
12.93478325414478
 20
-40.3269097121405
 30
0.0
  0
SEQEND
  5
81
330
75
100
AcDbEntity
  8
With Dials
370
     0
  0
HATCH
  5
82
330
4C
100
AcDbEntity
  8
With Dials
 62
   250
420
  2301728
100
AcDbHatch
 10
0.0
 20
0.0
 30
0.0
210
0.0
220
0.0
230
1.0
  2
SOLID
 70
     1
 71
     0
 91
        1
 92
        1
 93
       10
 72
     1
 10
12.93478325414478
 20
-40.3269097121405
 11
13.28790554138289
 21
-40.3269097121405
 72
     1
 10
13.28790554138289
 20
-40.3269097121405
 11
13.93730604035248
 21
-42.74881183827113
 72
     1
 10
13.93730604035248
 20
-42.74881183827113
 11
13.93730604035248
 21
-40.33379990311099
 72
     1
 10
13.93730604035248
 20
-40.33379990311099
 11
14.23530679982659
 21
-40.32863225988312
 72
     1
 10
14.23530679982659
 20
-40.32863225988312
 11
14.23530679982659
 21
-43.31036240236686
 72
     1
 10
14.23530679982659
 20
-43.31036240236686
 11
13.88218451258848
 21
-43.31036240236686
 72
     1
 10
13.88218451258848
 20
-43.31036240236686
 11
13.25173203878776
 21
-40.94013670851497
 72
     1
 10
13.25173203878776
 20
-40.94013670851497
 11
13.25173203878776
 21
-43.31036240236686
 72
     1
 10
13.25173203878776
 20
-43.31036240236686
 11
12.93478325414478
 21
-43.31036240236686
 72
     1
 10
12.93478325414478
 20
-43.31036240236686
 11
12.93478325414478
 21
-40.3269097121405
 97
        0
 75
     2
 76
     1
 98
        0
  0
POLYLINE
  5
83
330
4C
100
AcDbEntity
  8
With Dials
370
     0
100
AcDb2dPolyline
 66
     1
 10
0.0
 20
0.0
 30
0.0
  0
VERTEX
  5
84
330
83
100
AcDbEntity
  8
With Dials
370
     0
100
AcDbVertex
100
AcDb2dVertex
 10
15.93408338360329
 20
-40.3269097121405
 30
0.0
  0
VERTEX
  5
85
330
83
100
AcDbEntity
  8
With Dials
370
     0
100
AcDbVertex
100
AcDb2dVertex
 10
15.93408338360329
 20
-40.61629773290149
 30
0.0
  0
VERTEX
  5
86
330
83
100
AcDbEntity
  8
With Dials
370
     0
100
AcDbVertex
100
AcDb2dVertex
 10
15.45177001566831
 20
-40.61629773290149
 30
0.0
  0
VERTEX
  5
87
330
83
100
AcDbEntity
  8
With Dials
370
     0
100
AcDbVertex
100
AcDb2dVertex
 10
15.45177001566831
 20
-43.31036240236686
 30
0.0
  0
VERTEX
  5
88
330
83
100
AcDbEntity
  8
With Dials
370
     0
100
AcDbVertex
100
AcDb2dVertex
 10
15.11759575359907
 20
-43.31036240236686
 30
0.0
  0
VERTEX
  5
89
330
83
100
AcDbEntity
  8
With Dials
370
     0
100
AcDbVertex
100
AcDb2dVertex
 10
15.11759575359907
 20
-40.61629773290149
 30
0.0
  0
VERTEX
  5
8A
330
83
100
AcDbEntity
  8
With Dials
370
     0
100
AcDbVertex
100
AcDb2dVertex
 10
14.63355983792147
 20
-40.61629773290149
 30
0.0
  0
VERTEX
  5
8B
330
83
100
AcDbEntity
  8
With Dials
370
     0
100
AcDbVertex
100
AcDb2dVertex
 10
14.63355983792147
 20
-40.3269097121405
 30
0.0
  0
VERTEX
  5
8C
330
83
100
AcDbEntity
  8
With Dials
370
     0
100
AcDbVertex
100
AcDb2dVertex
 10
15.93408338360329
 20
-40.3269097121405
 30
0.0
  0
SEQEND
  5
8D
330
83
100
AcDbEntity
  8
With Dials
370
     0
  0
HATCH
  5
8E
330
4C
100
AcDbEntity
  8
With Dials
 62
   250
420
  2301728
100
AcDbHatch
 10
0.0
 20
0.0
 30
0.0
210
0.0
220
0.0
230
1.0
  2
SOLID
 70
     1
 71
     0
 91
        1
 92
        1
 93
        8
 72
     1
 10
15.93408338360329
 20
-40.3269097121405
 11
15.93408338360329
 21
-40.61629773290149
 72
     1
 10
15.93408338360329
 20
-40.61629773290149
 11
15.45177001566831
 21
-40.61629773290149
 72
     1
 10
15.45177001566831
 20
-40.61629773290149
 11
15.45177001566831
 21
-43.31036240236686
 72
     1
 10
15.45177001566831
 20
-43.31036240236686
 11
15.11759575359907
 21
-43.31036240236686
 72
     1
 10
15.11759575359907
 20
-43.31036240236686
 11
15.11759575359907
 21
-40.61629773290149
 72
     1
 10
15.11759575359907
 20
-40.61629773290149
 11
14.63355983792147
 21
-40.61629773290149
 72
     1
 10
14.63355983792147
 20
-40.61629773290149
 11
14.63355983792147
 21
-40.3269097121405
 72
     1
 10
14.63355983792147
 20
-40.3269097121405
 11
15.93408338360329
 21
-40.3269097121405
 97
        0
 75
     2
 76
     1
 98
        0
  0
SPLINE
  5
8F
330
4C
100
AcDbEntity
  8
With Dials
370
     0
100
AcDbSpline
210
0.0
220
0.0
230
1.0
 70
    11
 71
     3
 72
    38
 73
    34
 74
     0
 42
0.0000000001
 43
0.0000000001
 12
1.0
 22
0.0
 32
0.0
 13
1.0
 23
0.0
 33
0.0
 40
0.0
 40
0.0
 40
0.0
 40
0.0
 40
1.0
 40
1.0
 40
1.0
 40
2.0
 40
2.0
 40
2.0
 40
3.0
 40
3.0
 40
3.0
 40
4.0
 40
4.0
 40
4.0
 40
5.0
 40
5.0
 40
5.0
 40
6.0
 40
6.0
 40
6.0
 40
7.0
 40
7.0
 40
7.0
 40
8.0
 40
8.0
 40
8.0
 40
9.0
 40
9.0
 40
9.0
 40
10.0
 40
10.0
 40
10.0
 40
11.0
 40
11.0
 40
11.0
 40
11.0
 10
16.33233642169817
 20
-40.3269097121405
 30
0.0
 10
16.33233642169817
 20
-40.3269097121405
 30
0.0
 10
16.99379475486614
 20
-40.3269097121405
 30
0.0
 10
16.99379475486614
 20
-40.3269097121405
 30
0.0
 10
17.38998073566987
 20
-40.32794324078607
 30
0.0
 10
17.58807372607173
 20
-40.52224662615416
 30
0.0
 10
17.58807372607173
 20
-40.90913084914772
 30
0.0
 10
17.58807372607173
 20
-40.90913084914772
 30
0.0
 10
17.58807372607173
 20
-41.38110893062694
 30
0.0
 10
17.58807372607173
 20
-41.38110893062694
 30
0.0
 10
17.58807372607173
 20
-41.62123208594886
 30
0.0
 10
17.44510226343386
 20
-41.78763019788643
 30
0.0
 10
17.15915933815813
 20
-41.88064777598817
 30
0.0
 10
17.15915933815813
 20
-41.88064777598817
 30
0.0
 10
17.72587754548173
 20
-43.31036240236686
 30
0.0
 10
17.72587754548173
 20
-43.31036240236686
 30
0.0
 10
17.72587754548173
 20
-43.31036240236686
 30
0.0
 10
17.35380723307474
 20
-43.31036240236686
 30
0.0
 10
17.35380723307474
 20
-43.31036240236686
 30
0.0
 10
17.35380723307474
 20
-43.31036240236686
 30
0.0
 10
16.88527424708077
 20
-41.92026637406855
 30
0.0
 10
16.88527424708077
 20
-41.92026637406855
 30
0.0
 10
16.88527424708077
 20
-41.92026637406855
 30
0.0
 10
16.66823323151003
 20
-41.9306016605243
 30
0.0
 10
16.66823323151003
 20
-41.9306016605243
 30
0.0
 10
16.66823323151003
 20
-41.9306016605243
 30
0.0
 10
16.66823323151003
 20
-43.31036240236686
 30
0.0
 10
16.66823323151003
 20
-43.31036240236686
 30
0.0
 10
16.66823323151003
 20
-43.31036240236686
 30
0.0
 10
16.33233642169817
 20
-43.31036240236686
 30
0.0
 10
16.33233642169817
 20
-43.31036240236686
 30
0.0
 10
16.33233642169817
 20
-43.31036240236686
 30
0.0
 10
16.33233642169817
 20
-40.3269097121405
 30
0.0
 10
16.33233642169817
 20
-40.3269097121405
 30
0.0
  0
SPLINE
  5
90
330
4C
100
AcDbEntity
  8
With Dials
370
     0
100
AcDbSpline
210
0.0
220
0.0
230
1.0
 70
    11
 71
     3
 72
    26
 73
    22
 74
     0
 42
0.0000000001
 43
0.0000000001
 12
1.0
 22
0.0
 32
0.0
 13
1.0
 23
0.0
 33
0.0
 40
0.0
 40
0.0
 40
0.0
 40
0.0
 40
1.0
 40
1.0
 40
1.0
 40
2.0
 40
2.0
 40
2.0
 40
3.0
 40
3.0
 40
3.0
 40
4.0
 40
4.0
 40
4.0
 40
5.0
 40
5.0
 40
5.0
 40
6.0
 40
6.0
 40
6.0
 40
7.0
 40
7.0
 40
7.0
 40
7.0
 10
16.66823323151003
 20
-40.61629773290149
 30
0.0
 10
16.66823323151003
 20
-40.61629773290149
 30
0.0
 10
16.66823323151003
 20
-41.67394204687319
 30
0.0
 10
16.66823323151003
 20
-41.67394204687319
 30
0.0
 10
16.66823323151003
 20
-41.67394204687319
 30
0.0
 10
16.87493896062502
 20
-41.67394204687319
 30
0.0
 10
16.87493896062502
 20
-41.67394204687319
 30
0.0
 10
16.95762125227101
 20
-41.67394204687319
 30
0.0
 10
17.01791042326288
 20
-41.66808538454826
 30
0.0
 10
17.05580647360063
 20
-41.65671656944694
 30
0.0
 10
17.18672010204013
 20
-41.60848523265344
 30
0.0
 10
17.25217691625987
 20
-41.51650118319726
 30
0.0
 10
17.25217691625987
 20
-41.38110893062694
 30
0.0
 10
17.25217691625987
 20
-41.38110893062694
 30
0.0
 10
17.25217691625987
 20
-40.90913084914772
 30
0.0
 10
17.25217691625987
 20
-40.90913084914772
 30
0.0
 10
17.25217691625987
 20
-40.71379393513406
 30
0.0
 10
17.14830728737959
 20
-40.61629773290149
 30
0.0
 10
16.94039577484476
 20
-40.61629773290149
 30
0.0
 10
16.94039577484476
 20
-40.61629773290149
 30
0.0
 10
16.66823323151003
 20
-40.61629773290149
 30
0.0
 10
16.66823323151003
 20
-40.61629773290149
 30
0.0
  0
HATCH
  5
91
330
4C
100
AcDbEntity
  8
With Dials
 62
   250
420
  2301728
100
AcDbHatch
 10
0.0
 20
0.0
 30
0.0
210
0.0
220
0.0
230
1.0
  2
SOLID
 70
     1
 71
     0
 91
        2
 92
        1
 93
        1
 72
     4
 94
        3
 73
     0
 74
     1
 95
       38
 96
       34
 40
0.0
 40
0.0
 40
0.0
 40
0.0
 40
1.0
 40
1.0
 40
1.0
 40
2.0
 40
2.0
 40
2.0
 40
3.0
 40
3.0
 40
3.0
 40
4.0
 40
4.0
 40
4.0
 40
5.0
 40
5.0
 40
5.0
 40
6.0
 40
6.0
 40
6.0
 40
7.0
 40
7.0
 40
7.0
 40
8.0
 40
8.0
 40
8.0
 40
9.0
 40
9.0
 40
9.0
 40
10.0
 40
10.0
 40
10.0
 40
11.0
 40
11.0
 40
11.0
 40
11.0
 10
16.33233642169817
 20
-40.3269097121405
 10
16.33233642169817
 20
-40.3269097121405
 10
16.99379475486614
 20
-40.3269097121405
 10
16.99379475486614
 20
-40.3269097121405
 10
17.38998073566987
 20
-40.32794324078607
 10
17.58807372607173
 20
-40.52224662615416
 10
17.58807372607173
 20
-40.90913084914772
 10
17.58807372607173
 20
-40.90913084914772
 10
17.58807372607173
 20
-41.38110893062694
 10
17.58807372607173
 20
-41.38110893062694
 10
17.58807372607173
 20
-41.62123208594886
 10
17.44510226343386
 20
-41.78763019788643
 10
17.15915933815813
 20
-41.88064777598817
 10
17.15915933815813
 20
-41.88064777598817
 10
17.72587754548173
 20
-43.31036240236686
 10
17.72587754548173
 20
-43.31036240236686
 10
17.72587754548173
 20
-43.31036240236686
 10
17.35380723307474
 20
-43.31036240236686
 10
17.35380723307474
 20
-43.31036240236686
 10
17.35380723307474
 20
-43.31036240236686
 10
16.88527424708077
 20
-41.92026637406855
 10
16.88527424708077
 20
-41.92026637406855
 10
16.88527424708077
 20
-41.92026637406855
 10
16.66823323151003
 20
-41.9306016605243
 10
16.66823323151003
 20
-41.9306016605243
 10
16.66823323151003
 20
-41.9306016605243
 10
16.66823323151003
 20
-43.31036240236686
 10
16.66823323151003
 20
-43.31036240236686
 10
16.66823323151003
 20
-43.31036240236686
 10
16.33233642169817
 20
-43.31036240236686
 10
16.33233642169817
 20
-43.31036240236686
 10
16.33233642169817
 20
-43.31036240236686
 10
16.33233642169817
 20
-40.3269097121405
 10
16.33233642169817
 20
-40.3269097121405
 97
        0
 97
        0
 92
        1
 93
        1
 72
     4
 94
        3
 73
     0
 74
     1
 95
       26
 96
       22
 40
0.0
 40
0.0
 40
0.0
 40
0.0
 40
1.0
 40
1.0
 40
1.0
 40
2.0
 40
2.0
 40
2.0
 40
3.0
 40
3.0
 40
3.0
 40
4.0
 40
4.0
 40
4.0
 40
5.0
 40
5.0
 40
5.0
 40
6.0
 40
6.0
 40
6.0
 40
7.0
 40
7.0
 40
7.0
 40
7.0
 10
16.66823323151003
 20
-40.61629773290149
 10
16.66823323151003
 20
-40.61629773290149
 10
16.66823323151003
 20
-41.67394204687319
 10
16.66823323151003
 20
-41.67394204687319
 10
16.66823323151003
 20
-41.67394204687319
 10
16.87493896062502
 20
-41.67394204687319
 10
16.87493896062502
 20
-41.67394204687319
 10
16.95762125227101
 20
-41.67394204687319
 10
17.01791042326288
 20
-41.66808538454826
 10
17.05580647360063
 20
-41.65671656944694
 10
17.18672010204013
 20
-41.60848523265344
 10
17.25217691625987
 20
-41.51650118319726
 10
17.25217691625987
 20
-41.38110893062694
 10
17.25217691625987
 20
-41.38110893062694
 10
17.25217691625987
 20
-40.90913084914772
 10
17.25217691625987
 20
-40.90913084914772
 10
17.25217691625987
 20
-40.71379393513406
 10
17.14830728737959
 20
-40.61629773290149
 10
16.94039577484476
 20
-40.61629773290149
 10
16.94039577484476
 20
-40.61629773290149
 10
16.66823323151003
 20
-40.61629773290149
 10
16.66823323151003
 20
-40.61629773290149
 97
        0
 97
        0
 75
     2
 76
     1
 98
        0
  0
POLYLINE
  5
92
330
4C
100
AcDbEntity
  8
With Dials
370
     0
100
AcDb2dPolyline
 66
     1
 10
0.0
 20
0.0
 30
0.0
  0
VERTEX
  5
93
330
92
100
AcDbEntity
  8
With Dials
370
     0
100
AcDbVertex
100
AcDb2dVertex
 10
19.34197183761242
 20
-42.28544649550503
 30
0.0
  0
VERTEX
  5
94
330
92
100
AcDbEntity
  8
With Dials
370
     0
100
AcDbVertex
100
AcDb2dVertex
 10
19.49872368219129
 20
-43.31036240236686
 30
0.0
  0
VERTEX
  5
95
330
92
100
AcDbEntity
  8
With Dials
370
     0
100
AcDbVertex
100
AcDb2dVertex
 10
19.15765922915156
 20
-43.31036240236686
 30
0.0
  0
VERTEX
  5
96
330
92
100
AcDbEntity
  8
With Dials
370
     0
100
AcDbVertex
100
AcDb2dVertex
 10
19.05775146007931
 20
-42.64373642597101
 30
0.0
  0
VERTEX
  5
97
330
92
100
AcDbEntity
  8
With Dials
370
     0
100
AcDbVertex
100
AcDb2dVertex
 10
18.37562255399985
 20
-42.64373642597101
 30
0.0
  0
VERTEX
  5
98
330
92
100
AcDbEntity
  8
With Dials
370
     0
100
AcDbVertex
100
AcDb2dVertex
 10
18.27399223718497
 20
-43.31036240236686
 30
0.0
  0
VERTEX
  5
99
330
92
100
AcDbEntity
  8
With Dials
370
     0
100
AcDbVertex
100
AcDb2dVertex
 10
17.93465033188787
 20
-43.31036240236686
 30
0.0
  0
VERTEX
  5
9A
330
92
100
AcDbEntity
  8
With Dials
370
     0
100
AcDbVertex
100
AcDb2dVertex
 10
18.08795708098148
 20
-42.29233668647553
 30
0.0
  0
VERTEX
  5
9B
330
92
100
AcDbEntity
  8
With Dials
370
     0
100
AcDbVertex
100
AcDb2dVertex
 10
18.43935682047697
 20
-40.3269097121405
 30
0.0
  0
VERTEX
  5
9C
330
92
100
AcDbEntity
  8
With Dials
370
     0
100
AcDbVertex
100
AcDb2dVertex
 10
18.99229464585957
 20
-40.3269097121405
 30
0.0
  0
VERTEX
  5
9D
330
92
100
AcDbEntity
  8
With Dials
370
     0
100
AcDbVertex
100
AcDb2dVertex
 10
19.34197183761242
 20
-42.28544649550503
 30
0.0
  0
SEQEND
  5
9E
330
92
100
AcDbEntity
  8
With Dials
370
     0
  0
POLYLINE
  5
9F
330
4C
100
AcDbEntity
  8
With Dials
370
     0
100
AcDb2dPolyline
 66
     1
 10
0.0
 20
0.0
 30
0.0
  0
VERTEX
  5
A0
330
9F
100
AcDbEntity
  8
With Dials
370
     0
100
AcDbVertex
100
AcDb2dVertex
 10
19.01296521877106
 20
-42.35434840521003
 30
0.0
  0
VERTEX
  5
A1
330
9F
100
AcDbEntity
  8
With Dials
370
     0
100
AcDbVertex
100
AcDb2dVertex
 10
18.71496445929695
 20
-40.58012423030636
 30
0.0
  0
VERTEX
  5
A2
330
9F
100
AcDbEntity
  8
With Dials
370
     0
100
AcDbVertex
100
AcDb2dVertex
 10
18.41524115208022
 20
-42.35434840521003
 30
0.0
  0
VERTEX
  5
A3
330
9F
100
AcDbEntity
  8
With Dials
370
     0
100
AcDbVertex
100
AcDb2dVertex
 10
19.01296521877106
 20
-42.35434840521003
 30
0.0
  0
SEQEND
  5
A4
330
9F
100
AcDbEntity
  8
With Dials
370
     0
  0
HATCH
  5
A5
330
4C
100
AcDbEntity
  8
With Dials
 62
   250
420
  2301728
100
AcDbHatch
 10
0.0
 20
0.0
 30
0.0
210
0.0
220
0.0
230
1.0
  2
SOLID
 70
     1
 71
     0
 91
        2
 92
        1
 93
       10
 72
     1
 10
19.34197183761242
 20
-42.28544649550503
 11
19.49872368219129
 21
-43.31036240236686
 72
     1
 10
19.49872368219129
 20
-43.31036240236686
 11
19.15765922915156
 21
-43.31036240236686
 72
     1
 10
19.15765922915156
 20
-43.31036240236686
 11
19.05775146007931
 21
-42.64373642597101
 72
     1
 10
19.05775146007931
 20
-42.64373642597101
 11
18.37562255399985
 21
-42.64373642597101
 72
     1
 10
18.37562255399985
 20
-42.64373642597101
 11
18.27399223718497
 21
-43.31036240236686
 72
     1
 10
18.27399223718497
 20
-43.31036240236686
 11
17.93465033188787
 21
-43.31036240236686
 72
     1
 10
17.93465033188787
 20
-43.31036240236686
 11
18.08795708098148
 21
-42.29233668647553
 72
     1
 10
18.08795708098148
 20
-42.29233668647553
 11
18.43935682047697
 21
-40.3269097121405
 72
     1
 10
18.43935682047697
 20
-40.3269097121405
 11
18.99229464585957
 21
-40.3269097121405
 72
     1
 10
18.99229464585957
 20
-40.3269097121405
 11
19.34197183761242
 21
-42.28544649550503
 97
        0
 92
        1
 93
        3
 72
     1
 10
19.01296521877106
 20
-42.35434840521003
 11
18.71496445929695
 21
-40.58012423030636
 72
     1
 10
18.71496445929695
 20
-40.58012423030636
 11
18.41524115208022
 21
-42.35434840521003
 72
     1
 10
18.41524115208022
 20
-42.35434840521003
 11
19.01296521877106
 21
-42.35434840521003
 97
        0
 75
     2
 76
     1
 98
        0
  0
POLYLINE
  5
A6
330
4C
100
AcDbEntity
  8
With Dials
370
     0
100
AcDb2dPolyline
 66
     1
 10
0.0
 20
0.0
 30
0.0
  0
VERTEX
  5
A7
330
A6
100
AcDbEntity
  8
With Dials
370
     0
100
AcDbVertex
100
AcDb2dVertex
 10
19.88836398157305
 20
-40.3269097121405
 30
0.0
  0
VERTEX
  5
A8
330
A6
100
AcDbEntity
  8
With Dials
370
     0
100
AcDbVertex
100
AcDb2dVertex
 10
20.22426079138491
 20
-40.3269097121405
 30
0.0
  0
VERTEX
  5
A9
330
A6
100
AcDbEntity
  8
With Dials
370
     0
100
AcDbVertex
100
AcDb2dVertex
 10
20.22426079138491
 20
-43.31036240236686
 30
0.0
  0
VERTEX
  5
AA
330
A6
100
AcDbEntity
  8
With Dials
370
     0
100
AcDbVertex
100
AcDb2dVertex
 10
19.88836398157305
 20
-43.31036240236686
 30
0.0
  0
VERTEX
  5
AB
330
A6
100
AcDbEntity
  8
With Dials
370
     0
100
AcDbVertex
100
AcDb2dVertex
 10
19.88836398157305
 20
-40.3269097121405
 30
0.0
  0
SEQEND
  5
AC
330
A6
100
AcDbEntity
  8
With Dials
370
     0
  0
HATCH
  5
AD
330
4C
100
AcDbEntity
  8
With Dials
 62
   250
420
  2301728
100
AcDbHatch
 10
0.0
 20
0.0
 30
0.0
210
0.0
220
0.0
230
1.0
  2
SOLID
 70
     1
 71
     0
 91
        1
 92
        1
 93
        4
 72
     1
 10
19.88836398157305
 20
-40.3269097121405
 11
20.22426079138491
 21
-40.3269097121405
 72
     1
 10
20.22426079138491
 20
-40.3269097121405
 11
20.22426079138491
 21
-43.31036240236686
 72
     1
 10
20.22426079138491
 20
-43.31036240236686
 11
19.88836398157305
 21
-43.31036240236686
 72
     1
 10
19.88836398157305
 20
-43.31036240236686
 11
19.88836398157305
 21
-40.3269097121405
 97
        0
 75
     2
 76
     1
 98
        0
  0
POLYLINE
  5
AE
330
4C
100
AcDbEntity
  8
With Dials
370
     0
100
AcDb2dPolyline
 66
     1
 10
0.0
 20
0.0
 30
0.0
  0
VERTEX
  5
AF
330
AE
100
AcDbEntity
  8
With Dials
370
     0
100
AcDbVertex
100
AcDb2dVertex
 10
21.93165011387473
 20
-40.3269097121405
 30
0.0
  0
VERTEX
  5
B0
330
AE
100
AcDbEntity
  8
With Dials
370
     0
100
AcDbVertex
100
AcDb2dVertex
 10
21.93165011387473
 20
-40.61629773290149
 30
0.0
  0
VERTEX
  5
B1
330
AE
100
AcDbEntity
  8
With Dials
370
     0
100
AcDbVertex
100
AcDb2dVertex
 10
21.44933674593975
 20
-40.61629773290149
 30
0.0
  0
VERTEX
  5
B2
330
AE
100
AcDbEntity
  8
With Dials
370
     0
100
AcDbVertex
100
AcDb2dVertex
 10
21.44933674593975
 20
-43.31036240236686
 30
0.0
  0
VERTEX
  5
B3
330
AE
100
AcDbEntity
  8
With Dials
370
     0
100
AcDbVertex
100
AcDb2dVertex
 10
21.11516248387052
 20
-43.31036240236686
 30
0.0
  0
VERTEX
  5
B4
330
AE
100
AcDbEntity
  8
With Dials
370
     0
100
AcDbVertex
100
AcDb2dVertex
 10
21.11516248387052
 20
-40.61629773290149
 30
0.0
  0
VERTEX
  5
B5
330
AE
100
AcDbEntity
  8
With Dials
370
     0
100
AcDbVertex
100
AcDb2dVertex
 10
20.63112656819292
 20
-40.61629773290149
 30
0.0
  0
VERTEX
  5
B6
330
AE
100
AcDbEntity
  8
With Dials
370
     0
100
AcDbVertex
100
AcDb2dVertex
 10
20.63112656819292
 20
-40.3269097121405
 30
0.0
  0
VERTEX
  5
B7
330
AE
100
AcDbEntity
  8
With Dials
370
     0
100
AcDbVertex
100
AcDb2dVertex
 10
21.93165011387473
 20
-40.3269097121405
 30
0.0
  0
SEQEND
  5
B8
330
AE
100
AcDbEntity
  8
With Dials
370
     0
  0
HATCH
  5
B9
330
4C
100
AcDbEntity
  8
With Dials
 62
   250
420
  2301728
100
AcDbHatch
 10
0.0
 20
0.0
 30
0.0
210
0.0
220
0.0
230
1.0
  2
SOLID
 70
     1
 71
     0
 91
        1
 92
        1
 93
        8
 72
     1
 10
21.93165011387473
 20
-40.3269097121405
 11
21.93165011387473
 21
-40.61629773290149
 72
     1
 10
21.93165011387473
 20
-40.61629773290149
 11
21.44933674593975
 21
-40.61629773290149
 72
     1
 10
21.44933674593975
 20
-40.61629773290149
 11
21.44933674593975
 21
-43.31036240236686
 72
     1
 10
21.44933674593975
 20
-43.31036240236686
 11
21.11516248387052
 21
-43.31036240236686
 72
     1
 10
21.11516248387052
 20
-43.31036240236686
 11
21.11516248387052
 21
-40.61629773290149
 72
     1
 10
21.11516248387052
 20
-40.61629773290149
 11
20.63112656819292
 21
-40.61629773290149
 72
     1
 10
20.63112656819292
 20
-40.61629773290149
 11
20.63112656819292
 21
-40.3269097121405
 72
     1
 10
20.63112656819292
 20
-40.3269097121405
 11
21.93165011387473
 21
-40.3269097121405
 97
        0
 75
     2
 76
     1
 98
        0
  0
POLYLINE
  5
BA
330
4C
100
AcDbEntity
  8
With Dials
370
     0
100
AcDb2dPolyline
 66
     1
 10
0.0
 20
0.0
 30
0.0
  0
VERTEX
  5
BB
330
BA
100
AcDbEntity
  8
With Dials
370
     0
100
AcDbVertex
100
AcDb2dVertex
 10
22.33851589068273
 20
-40.3269097121405
 30
0.0
  0
VERTEX
  5
BC
330
BA
100
AcDbEntity
  8
With Dials
370
     0
100
AcDbVertex
100
AcDb2dVertex
 10
22.67441270049459
 20
-40.3269097121405
 30
0.0
  0
VERTEX
  5
BD
330
BA
100
AcDbEntity
  8
With Dials
370
     0
100
AcDbVertex
100
AcDb2dVertex
 10
22.67441270049459
 20
-43.31036240236686
 30
0.0
  0
VERTEX
  5
BE
330
BA
100
AcDbEntity
  8
With Dials
370
     0
100
AcDbVertex
100
AcDb2dVertex
 10
22.33851589068273
 20
-43.31036240236686
 30
0.0
  0
VERTEX
  5
BF
330
BA
100
AcDbEntity
  8
With Dials
370
     0
100
AcDbVertex
100
AcDb2dVertex
 10
22.33851589068273
 20
-40.3269097121405
 30
0.0
  0
SEQEND
  5
C0
330
BA
100
AcDbEntity
  8
With Dials
370
     0
  0
HATCH
  5
C1
330
4C
100
AcDbEntity
  8
With Dials
 62
   250
420
  2301728
100
AcDbHatch
 10
0.0
 20
0.0
 30
0.0
210
0.0
220
0.0
230
1.0
  2
SOLID
 70
     1
 71
     0
 91
        1
 92
        1
 93
        4
 72
     1
 10
22.33851589068273
 20
-40.3269097121405
 11
22.67441270049459
 21
-40.3269097121405
 72
     1
 10
22.67441270049459
 20
-40.3269097121405
 11
22.67441270049459
 21
-43.31036240236686
 72
     1
 10
22.67441270049459
 20
-43.31036240236686
 11
22.33851589068273
 21
-43.31036240236686
 72
     1
 10
22.33851589068273
 20
-43.31036240236686
 11
22.33851589068273
 21
-40.3269097121405
 97
        0
 75
     2
 76
     1
 98
        0
  0
POLYLINE
  5
C2
330
4C
100
AcDbEntity
  8
With Dials
370
     0
100
AcDb2dPolyline
 66
     1
 10
0.0
 20
0.0
 30
0.0
  0
VERTEX
  5
C3
330
C2
100
AcDbEntity
  8
With Dials
370
     0
100
AcDbVertex
100
AcDb2dVertex
 10
23.21908229671259
 20
-40.3269097121405
 30
0.0
  0
VERTEX
  5
C4
330
C2
100
AcDbEntity
  8
With Dials
370
     0
100
AcDbVertex
100
AcDb2dVertex
 10
23.5722045839507
 20
-40.3269097121405
 30
0.0
  0
VERTEX
  5
C5
330
C2
100
AcDbEntity
  8
With Dials
370
     0
100
AcDbVertex
100
AcDb2dVertex
 10
24.22160508292029
 20
-42.74881183827113
 30
0.0
  0
VERTEX
  5
C6
330
C2
100
AcDbEntity
  8
With Dials
370
     0
100
AcDbVertex
100
AcDb2dVertex
 10
24.22160508292029
 20
-40.33379990311099
 30
0.0
  0
VERTEX
  5
C7
330
C2
100
AcDbEntity
  8
With Dials
370
     0
100
AcDbVertex
100
AcDb2dVertex
 10
24.51960584239441
 20
-40.32863225988312
 30
0.0
  0
VERTEX
  5
C8
330
C2
100
AcDbEntity
  8
With Dials
370
     0
100
AcDbVertex
100
AcDb2dVertex
 10
24.51960584239441
 20
-43.31036240236686
 30
0.0
  0
VERTEX
  5
C9
330
C2
100
AcDbEntity
  8
With Dials
370
     0
100
AcDbVertex
100
AcDb2dVertex
 10
24.1664835551563
 20
-43.31036240236686
 30
0.0
  0
VERTEX
  5
CA
330
C2
100
AcDbEntity
  8
With Dials
370
     0
100
AcDbVertex
100
AcDb2dVertex
 10
23.53603108135558
 20
-40.94013670851497
 30
0.0
  0
VERTEX
  5
CB
330
C2
100
AcDbEntity
  8
With Dials
370
     0
100
AcDbVertex
100
AcDb2dVertex
 10
23.53603108135558
 20
-43.31036240236686
 30
0.0
  0
VERTEX
  5
CC
330
C2
100
AcDbEntity
  8
With Dials
370
     0
100
AcDbVertex
100
AcDb2dVertex
 10
23.21908229671259
 20
-43.31036240236686
 30
0.0
  0
VERTEX
  5
CD
330
C2
100
AcDbEntity
  8
With Dials
370
     0
100
AcDbVertex
100
AcDb2dVertex
 10
23.21908229671259
 20
-40.3269097121405
 30
0.0
  0
SEQEND
  5
CE
330
C2
100
AcDbEntity
  8
With Dials
370
     0
  0
HATCH
  5
CF
330
4C
100
AcDbEntity
  8
With Dials
 62
   250
420
  2301728
100
AcDbHatch
 10
0.0
 20
0.0
 30
0.0
210
0.0
220
0.0
230
1.0
  2
SOLID
 70
     1
 71
     0
 91
        1
 92
        1
 93
       10
 72
     1
 10
23.21908229671259
 20
-40.3269097121405
 11
23.5722045839507
 21
-40.3269097121405
 72
     1
 10
23.5722045839507
 20
-40.3269097121405
 11
24.22160508292029
 21
-42.74881183827113
 72
     1
 10
24.22160508292029
 20
-42.74881183827113
 11
24.22160508292029
 21
-40.33379990311099
 72
     1
 10
24.22160508292029
 20
-40.33379990311099
 11
24.51960584239441
 21
-40.32863225988312
 72
     1
 10
24.51960584239441
 20
-40.32863225988312
 11
24.51960584239441
 21
-43.31036240236686
 72
     1
 10
24.51960584239441
 20
-43.31036240236686
 11
24.1664835551563
 21
-43.31036240236686
 72
     1
 10
24.1664835551563
 20
-43.31036240236686
 11
23.53603108135558
 21
-40.94013670851497
 72
     1
 10
23.53603108135558
 20
-40.94013670851497
 11
23.53603108135558
 21
-43.31036240236686
 72
     1
 10
23.53603108135558
 20
-43.31036240236686
 11
23.21908229671259
 21
-43.31036240236686
 72
     1
 10
23.21908229671259
 20
-43.31036240236686
 11
23.21908229671259
 21
-40.3269097121405
 97
        0
 75
     2
 76
     1
 98
        0
  0
SPLINE
  5
D0
330
4C
100
AcDbEntity
  8
With Dials
370
     0
100
AcDbSpline
210
0.0
220
0.0
230
1.0
 70
    11
 71
     3
 72
    62
 73
    58
 74
     0
 42
0.0000000001
 43
0.0000000001
 12
1.0
 22
0.0
 32
0.0
 13
1.0
 23
0.0
 33
0.0
 40
0.0
 40
0.0
 40
0.0
 40
0.0
 40
1.0
 40
1.0
 40
1.0
 40
2.0
 40
2.0
 40
2.0
 40
3.0
 40
3.0
 40
3.0
 40
4.0
 40
4.0
 40
4.0
 40
5.0
 40
5.0
 40
5.0
 40
6.0
 40
6.0
 40
6.0
 40
7.0
 40
7.0
 40
7.0
 40
8.0
 40
8.0
 40
8.0
 40
9.0
 40
9.0
 40
9.0
 40
10.0
 40
10.0
 40
10.0
 40
11.0
 40
11.0
 40
11.0
 40
12.0
 40
12.0
 40
12.0
 40
13.0
 40
13.0
 40
13.0
 40
14.0
 40
14.0
 40
14.0
 40
15.0
 40
15.0
 40
15.0
 40
16.0
 40
16.0
 40
16.0
 40
17.0
 40
17.0
 40
17.0
 40
18.0
 40
18.0
 40
18.0
 40
19.0
 40
19.0
 40
19.0
 40
19.0
 10
26.32173529072859
 20
-42.78670788860888
 30
0.0
 10
26.32173529072859
 20
-43.17359211160244
 30
0.0
 10
26.10469427515785
 20
-43.36789549697053
 30
0.0
 10
25.67061224401638
 20
-43.3689290256161
 30
0.0
 10
25.23773599629473
 20
-43.3689290256161
 30
0.0
 10
25.02121174504678
 20
-43.17497014979654
 30
0.0
 10
25.02121174504678
 20
-42.78670788860888
 30
0.0
 10
25.02121174504678
 20
-42.78670788860888
 30
0.0
 10
25.02121174504678
 20
-40.86434460783947
 30
0.0
 10
25.02121174504678
 20
-40.86434460783947
 30
0.0
 10
25.02121174504678
 20
-40.47746038484591
 30
0.0
 10
25.23773599629473
 20
-40.28384601857487
 30
0.0
 10
25.67061224401638
 20
-40.28384601857487
 30
0.0
 10
26.10469427515785
 20
-40.28384601857487
 30
0.0
 10
26.32173529072859
 20
-40.47746038484591
 30
0.0
 10
26.32173529072859
 20
-40.86434460783947
 30
0.0
 10
26.32173529072859
 20
-40.86434460783947
 30
0.0
 10
26.32173529072859
 20
-41.20885415636445
 30
0.0
 10
26.32173529072859
 20
-41.20885415636445
 30
0.0
 10
26.32173529072859
 20
-41.20885415636445
 30
0.0
 10
25.98583848091674
 20
-41.20885415636445
 30
0.0
 10
25.98583848091674
 20
-41.20885415636445
 30
0.0
 10
25.98583848091674
 20
-41.20885415636445
 30
0.0
 10
25.98583848091674
 20
-40.86434460783947
 30
0.0
 10
25.98583848091674
 20
-40.86434460783947
 30
0.0
 10
25.98583848091674
 20
-40.67141926066548
 30
0.0
 10
25.8812798329394
 20
-40.57426756798144
 30
0.0
 10
25.672334791759
 20
-40.57323403933586
 30
0.0
 10
25.672334791759
 20
-40.57323403933586
 30
0.0
 10
25.66888969627375
 20
-40.57323403933586
 30
0.0
 10
25.66888969627375
 20
-40.57323403933586
 30
0.0
 10
25.46097818373892
 20
-40.57323403933586
 30
0.0
 10
25.35710855485864
 20
-40.6703857320199
 30
0.0
 10
25.35710855485864
 20
-40.86434460783947
 30
0.0
 10
25.35710855485864
 20
-40.86434460783947
 30
0.0
 10
25.35710855485864
 20
-42.78670788860888
 30
0.0
 10
25.35710855485864
 20
-42.78670788860888
 30
0.0
 10
25.35710855485864
 20
-42.98066676442845
 30
0.0
 10
25.46166720283597
 20
-43.07781845711249
 30
0.0
 10
25.67061224401638
 20
-43.07781845711249
 30
0.0
 10
25.88076306861662
 20
-43.07781845711249
 30
0.0
 10
25.98583848091674
 20
-42.98066676442845
 30
0.0
 10
25.98583848091674
 20
-42.78670788860888
 30
0.0
 10
25.98583848091674
 20
-42.78670788860888
 30
0.0
 10
25.98583848091674
 20
-41.97194280634729
 30
0.0
 10
25.98583848091674
 20
-41.97194280634729
 30
0.0
 10
25.98583848091674
 20
-41.97194280634729
 30
0.0
 10
25.72573377178037
 20
-41.97194280634729
 30
0.0
 10
25.72573377178037
 20
-41.97194280634729
 30
0.0
 10
25.72573377178037
 20
-41.97194280634729
 30
0.0
 10
25.72573377178037
 20
-41.68083223784368
 30
0.0
 10
25.72573377178037
 20
-41.68083223784368
 30
0.0
 10
25.72573377178037
 20
-41.68083223784368
 30
0.0
 10
26.32173529072859
 20
-41.68083223784368
 30
0.0
 10
26.32173529072859
 20
-41.68083223784368
 30
0.0
 10
26.32173529072859
 20
-41.68083223784368
 30
0.0
 10
26.32173529072859
 20
-42.78670788860888
 30
0.0
 10
26.32173529072859
 20
-42.78670788860888
 30
0.0
  0
HATCH
  5
D1
330
4C
100
AcDbEntity
  8
With Dials
 62
   250
420
  2301728
100
AcDbHatch
 10
0.0
 20
0.0
 30
0.0
210
0.0
220
0.0
230
1.0
  2
SOLID
 70
     1
 71
     0
 91
        1
 92
        1
 93
        1
 72
     4
 94
        3
 73
     0
 74
     1
 95
       62
 96
       58
 40
0.0
 40
0.0
 40
0.0
 40
0.0
 40
1.0
 40
1.0
 40
1.0
 40
2.0
 40
2.0
 40
2.0
 40
3.0
 40
3.0
 40
3.0
 40
4.0
 40
4.0
 40
4.0
 40
5.0
 40
5.0
 40
5.0
 40
6.0
 40
6.0
 40
6.0
 40
7.0
 40
7.0
 40
7.0
 40
8.0
 40
8.0
 40
8.0
 40
9.0
 40
9.0
 40
9.0
 40
10.0
 40
10.0
 40
10.0
 40
11.0
 40
11.0
 40
11.0
 40
12.0
 40
12.0
 40
12.0
 40
13.0
 40
13.0
 40
13.0
 40
14.0
 40
14.0
 40
14.0
 40
15.0
 40
15.0
 40
15.0
 40
16.0
 40
16.0
 40
16.0
 40
17.0
 40
17.0
 40
17.0
 40
18.0
 40
18.0
 40
18.0
 40
19.0
 40
19.0
 40
19.0
 40
19.0
 10
26.32173529072859
 20
-42.78670788860888
 10
26.32173529072859
 20
-43.17359211160244
 10
26.10469427515785
 20
-43.36789549697053
 10
25.67061224401638
 20
-43.3689290256161
 10
25.23773599629473
 20
-43.3689290256161
 10
25.02121174504678
 20
-43.17497014979654
 10
25.02121174504678
 20
-42.78670788860888
 10
25.02121174504678
 20
-42.78670788860888
 10
25.02121174504678
 20
-40.86434460783947
 10
25.02121174504678
 20
-40.86434460783947
 10
25.02121174504678
 20
-40.47746038484591
 10
25.23773599629473
 20
-40.28384601857487
 10
25.67061224401638
 20
-40.28384601857487
 10
26.10469427515785
 20
-40.28384601857487
 10
26.32173529072859
 20
-40.47746038484591
 10
26.32173529072859
 20
-40.86434460783947
 10
26.32173529072859
 20
-40.86434460783947
 10
26.32173529072859
 20
-41.20885415636445
 10
26.32173529072859
 20
-41.20885415636445
 10
26.32173529072859
 20
-41.20885415636445
 10
25.98583848091674
 20
-41.20885415636445
 10
25.98583848091674
 20
-41.20885415636445
 10
25.98583848091674
 20
-41.20885415636445
 10
25.98583848091674
 20
-40.86434460783947
 10
25.98583848091674
 20
-40.86434460783947
 10
25.98583848091674
 20
-40.67141926066548
 10
25.8812798329394
 20
-40.57426756798144
 10
25.672334791759
 20
-40.57323403933586
 10
25.672334791759
 20
-40.57323403933586
 10
25.66888969627375
 20
-40.57323403933586
 10
25.66888969627375
 20
-40.57323403933586
 10
25.46097818373892
 20
-40.57323403933586
 10
25.35710855485864
 20
-40.6703857320199
 10
25.35710855485864
 20
-40.86434460783947
 10
25.35710855485864
 20
-40.86434460783947
 10
25.35710855485864
 20
-42.78670788860888
 10
25.35710855485864
 20
-42.78670788860888
 10
25.35710855485864
 20
-42.98066676442845
 10
25.46166720283597
 20
-43.07781845711249
 10
25.67061224401638
 20
-43.07781845711249
 10
25.88076306861662
 20
-43.07781845711249
 10
25.98583848091674
 20
-42.98066676442845
 10
25.98583848091674
 20
-42.78670788860888
 10
25.98583848091674
 20
-42.78670788860888
 10
25.98583848091674
 20
-41.97194280634729
 10
25.98583848091674
 20
-41.97194280634729
 10
25.98583848091674
 20
-41.97194280634729
 10
25.72573377178037
 20
-41.97194280634729
 10
25.72573377178037
 20
-41.97194280634729
 10
25.72573377178037
 20
-41.97194280634729
 10
25.72573377178037
 20
-41.68083223784368
 10
25.72573377178037
 20
-41.68083223784368
 10
25.72573377178037
 20
-41.68083223784368
 10
26.32173529072859
 20
-41.68083223784368
 10
26.32173529072859
 20
-41.68083223784368
 10
26.32173529072859
 20
-41.68083223784368
 10
26.32173529072859
 20
-42.78670788860888
 10
26.32173529072859
 20
-42.78670788860888
 97
        0
 97
        0
 75
     2
 76
     1
 98
        0
  0
SPLINE
  5
D2
330
4C
100
AcDbEntity
  8
With Dials
370
     0
100
AcDbSpline
210
0.0
220
0.0
230
1.0
 70
    11
 71
     3
 72
    23
 73
    19
 74
     0
 42
0.0000000001
 43
0.0000000001
 12
1.0
 22
0.0
 32
0.0
 13
1.0
 23
0.0
 33
0.0
 40
0.0
 40
0.0
 40
0.0
 40
0.0
 40
1.0
 40
1.0
 40
1.0
 40
2.0
 40
2.0
 40
2.0
 40
3.0
 40
3.0
 40
3.0
 40
4.0
 40
4.0
 40
4.0
 40
5.0
 40
5.0
 40
5.0
 40
6.0
 40
6.0
 40
6.0
 40
6.0
 10
28.87179496891052
 20
-42.78670788860888
 30
0.0
 10
28.87179496891052
 20
-43.17359211160244
 30
0.0
 10
28.65475395333979
 20
-43.36789549697053
 30
0.0
 10
28.22067192219831
 20
-43.3689290256161
 30
0.0
 10
27.78779567447666
 20
-43.3689290256161
 30
0.0
 10
27.57127142322871
 20
-43.17497014979654
 30
0.0
 10
27.57127142322871
 20
-42.78670788860888
 30
0.0
 10
27.57127142322871
 20
-42.78670788860888
 30
0.0
 10
27.57127142322871
 20
-40.86434460783947
 30
0.0
 10
27.57127142322871
 20
-40.86434460783947
 30
0.0
 10
27.57127142322871
 20
-40.47746038484591
 30
0.0
 10
27.78779567447666
 20
-40.28384601857487
 30
0.0
 10
28.22067192219831
 20
-40.28384601857487
 30
0.0
 10
28.65475395333979
 20
-40.28384601857487
 30
0.0
 10
28.87179496891052
 20
-40.47746038484591
 30
0.0
 10
28.87179496891052
 20
-40.86434460783947
 30
0.0
 10
28.87179496891052
 20
-40.86434460783947
 30
0.0
 10
28.87179496891052
 20
-42.78670788860888
 30
0.0
 10
28.87179496891052
 20
-42.78670788860888
 30
0.0
  0
SPLINE
  5
D3
330
4C
100
AcDbEntity
  8
With Dials
370
     0
100
AcDbSpline
210
0.0
220
0.0
230
1.0
 70
    11
 71
     3
 72
    26
 73
    22
 74
     0
 42
0.0000000001
 43
0.0000000001
 12
1.0
 22
0.0
 32
0.0
 13
1.0
 23
0.0
 33
0.0
 40
0.0
 40
0.0
 40
0.0
 40
0.0
 40
1.0
 40
1.0
 40
1.0
 40
2.0
 40
2.0
 40
2.0
 40
3.0
 40
3.0
 40
3.0
 40
4.0
 40
4.0
 40
4.0
 40
5.0
 40
5.0
 40
5.0
 40
6.0
 40
6.0
 40
6.0
 40
7.0
 40
7.0
 40
7.0
 40
7.0
 10
28.53589815909866
 20
-40.86434460783947
 30
0.0
 10
28.53589815909866
 20
-40.67141926066548
 30
0.0
 10
28.43133951112133
 20
-40.57426756798144
 30
0.0
 10
28.22239446994093
 20
-40.57323403933586
 30
0.0
 10
28.22239446994093
 20
-40.57323403933586
 30
0.0
 10
28.21894937445568
 20
-40.57323403933586
 30
0.0
 10
28.21894937445568
 20
-40.57323403933586
 30
0.0
 10
28.01103786192085
 20
-40.57323403933586
 30
0.0
 10
27.90716823304057
 20
-40.6703857320199
 30
0.0
 10
27.90716823304057
 20
-40.86434460783947
 30
0.0
 10
27.90716823304057
 20
-40.86434460783947
 30
0.0
 10
27.90716823304057
 20
-42.78670788860888
 30
0.0
 10
27.90716823304057
 20
-42.78670788860888
 30
0.0
 10
27.90716823304057
 20
-42.98066676442845
 30
0.0
 10
28.0117268810179
 20
-43.07781845711249
 30
0.0
 10
28.22067192219831
 20
-43.07781845711249
 30
0.0
 10
28.43082274679854
 20
-43.07781845711249
 30
0.0
 10
28.53589815909866
 20
-42.98066676442845
 30
0.0
 10
28.53589815909866
 20
-42.78670788860888
 30
0.0
 10
28.53589815909866
 20
-42.78670788860888
 30
0.0
 10
28.53589815909866
 20
-40.86434460783947
 30
0.0
 10
28.53589815909866
 20
-40.86434460783947
 30
0.0
  0
HATCH
  5
D4
330
4C
100
AcDbEntity
  8
With Dials
 62
   250
420
  2301728
100
AcDbHatch
 10
0.0
 20
0.0
 30
0.0
210
0.0
220
0.0
230
1.0
  2
SOLID
 70
     1
 71
     0
 91
        2
 92
        1
 93
        1
 72
     4
 94
        3
 73
     0
 74
     1
 95
       23
 96
       19
 40
0.0
 40
0.0
 40
0.0
 40
0.0
 40
1.0
 40
1.0
 40
1.0
 40
2.0
 40
2.0
 40
2.0
 40
3.0
 40
3.0
 40
3.0
 40
4.0
 40
4.0
 40
4.0
 40
5.0
 40
5.0
 40
5.0
 40
6.0
 40
6.0
 40
6.0
 40
6.0
 10
28.87179496891052
 20
-42.78670788860888
 10
28.87179496891052
 20
-43.17359211160244
 10
28.65475395333979
 20
-43.36789549697053
 10
28.22067192219831
 20
-43.3689290256161
 10
27.78779567447666
 20
-43.3689290256161
 10
27.57127142322871
 20
-43.17497014979654
 10
27.57127142322871
 20
-42.78670788860888
 10
27.57127142322871
 20
-42.78670788860888
 10
27.57127142322871
 20
-40.86434460783947
 10
27.57127142322871
 20
-40.86434460783947
 10
27.57127142322871
 20
-40.47746038484591
 10
27.78779567447666
 20
-40.28384601857487
 10
28.22067192219831
 20
-40.28384601857487
 10
28.65475395333979
 20
-40.28384601857487
 10
28.87179496891052
 20
-40.47746038484591
 10
28.87179496891052
 20
-40.86434460783947
 10
28.87179496891052
 20
-40.86434460783947
 10
28.87179496891052
 20
-42.78670788860888
 10
28.87179496891052
 20
-42.78670788860888
 97
        0
 97
        0
 92
        1
 93
        1
 72
     4
 94
        3
 73
     0
 74
     1
 95
       26
 96
       22
 40
0.0
 40
0.0
 40
0.0
 40
0.0
 40
1.0
 40
1.0
 40
1.0
 40
2.0
 40
2.0
 40
2.0
 40
3.0
 40
3.0
 40
3.0
 40
4.0
 40
4.0
 40
4.0
 40
5.0
 40
5.0
 40
5.0
 40
6.0
 40
6.0
 40
6.0
 40
7.0
 40
7.0
 40
7.0
 40
7.0
 10
28.53589815909866
 20
-40.86434460783947
 10
28.53589815909866
 20
-40.67141926066548
 10
28.43133951112133
 20
-40.57426756798144
 10
28.22239446994093
 20
-40.57323403933586
 10
28.22239446994093
 20
-40.57323403933586
 10
28.21894937445568
 20
-40.57323403933586
 10
28.21894937445568
 20
-40.57323403933586
 10
28.01103786192085
 20
-40.57323403933586
 10
27.90716823304057
 20
-40.6703857320199
 10
27.90716823304057
 20
-40.86434460783947
 10
27.90716823304057
 20
-40.86434460783947
 10
27.90716823304057
 20
-42.78670788860888
 10
27.90716823304057
 20
-42.78670788860888
 10
27.90716823304057
 20
-42.98066676442845
 10
28.0117268810179
 20
-43.07781845711249
 10
28.22067192219831
 20
-43.07781845711249
 10
28.43082274679854
 20
-43.07781845711249
 10
28.53589815909866
 20
-42.98066676442845
 10
28.53589815909866
 20
-42.78670788860888
 10
28.53589815909866
 20
-42.78670788860888
 10
28.53589815909866
 20
-40.86434460783947
 10
28.53589815909866
 20
-40.86434460783947
 97
        0
 97
        0
 75
     2
 76
     1
 98
        0
  0
POLYLINE
  5
D5
330
4C
100
AcDbEntity
  8
With Dials
370
     0
100
AcDb2dPolyline
 66
     1
 10
0.0
 20
0.0
 30
0.0
  0
VERTEX
  5
D6
330
D5
100
AcDbEntity
  8
With Dials
370
     0
100
AcDbVertex
100
AcDb2dVertex
 10
29.3734008715629
 20
-40.3269097121405
 30
0.0
  0
VERTEX
  5
D7
330
D5
100
AcDbEntity
  8
With Dials
370
     0
100
AcDbVertex
100
AcDb2dVertex
 10
29.72652315880101
 20
-40.3269097121405
 30
0.0
  0
VERTEX
  5
D8
330
D5
100
AcDbEntity
  8
With Dials
370
     0
100
AcDbVertex
100
AcDb2dVertex
 10
30.3759236577706
 20
-42.74881183827113
 30
0.0
  0
VERTEX
  5
D9
330
D5
100
AcDbEntity
  8
With Dials
370
     0
100
AcDbVertex
100
AcDb2dVertex
 10
30.3759236577706
 20
-40.33379990311099
 30
0.0
  0
VERTEX
  5
DA
330
D5
100
AcDbEntity
  8
With Dials
370
     0
100
AcDbVertex
100
AcDb2dVertex
 10
30.67392441724471
 20
-40.32863225988312
 30
0.0
  0
VERTEX
  5
DB
330
D5
100
AcDbEntity
  8
With Dials
370
     0
100
AcDbVertex
100
AcDb2dVertex
 10
30.67392441724471
 20
-43.31036240236686
 30
0.0
  0
VERTEX
  5
DC
330
D5
100
AcDbEntity
  8
With Dials
370
     0
100
AcDbVertex
100
AcDb2dVertex
 10
30.32080213000661
 20
-43.31036240236686
 30
0.0
  0
VERTEX
  5
DD
330
D5
100
AcDbEntity
  8
With Dials
370
     0
100
AcDbVertex
100
AcDb2dVertex
 10
29.69034965620589
 20
-40.94013670851497
 30
0.0
  0
VERTEX
  5
DE
330
D5
100
AcDbEntity
  8
With Dials
370
     0
100
AcDbVertex
100
AcDb2dVertex
 10
29.69034965620589
 20
-43.31036240236686
 30
0.0
  0
VERTEX
  5
DF
330
D5
100
AcDbEntity
  8
With Dials
370
     0
100
AcDbVertex
100
AcDb2dVertex
 10
29.3734008715629
 20
-43.31036240236686
 30
0.0
  0
VERTEX
  5
E0
330
D5
100
AcDbEntity
  8
With Dials
370
     0
100
AcDbVertex
100
AcDb2dVertex
 10
29.3734008715629
 20
-40.3269097121405
 30
0.0
  0
SEQEND
  5
E1
330
D5
100
AcDbEntity
  8
With Dials
370
     0
  0
HATCH
  5
E2
330
4C
100
AcDbEntity
  8
With Dials
 62
   250
420
  2301728
100
AcDbHatch
 10
0.0
 20
0.0
 30
0.0
210
0.0
220
0.0
230
1.0
  2
SOLID
 70
     1
 71
     0
 91
        1
 92
        1
 93
       10
 72
     1
 10
29.3734008715629
 20
-40.3269097121405
 11
29.72652315880101
 21
-40.3269097121405
 72
     1
 10
29.72652315880101
 20
-40.3269097121405
 11
30.3759236577706
 21
-42.74881183827113
 72
     1
 10
30.3759236577706
 20
-42.74881183827113
 11
30.3759236577706
 21
-40.33379990311099
 72
     1
 10
30.3759236577706
 20
-40.33379990311099
 11
30.67392441724471
 21
-40.32863225988312
 72
     1
 10
30.67392441724471
 20
-40.32863225988312
 11
30.67392441724471
 21
-43.31036240236686
 72
     1
 10
30.67392441724471
 20
-43.31036240236686
 11
30.32080213000661
 21
-43.31036240236686
 72
     1
 10
30.32080213000661
 20
-43.31036240236686
 11
29.69034965620589
 21
-40.94013670851497
 72
     1
 10
29.69034965620589
 20
-40.94013670851497
 11
29.69034965620589
 21
-43.31036240236686
 72
     1
 10
29.69034965620589
 20
-43.31036240236686
 11
29.3734008715629
 21
-43.31036240236686
 72
     1
 10
29.3734008715629
 20
-43.31036240236686
 11
29.3734008715629
 21
-40.3269097121405
 97
        0
 75
     2
 76
     1
 98
        0
  0
POLYLINE
  5
E3
330
4C
100
AcDbEntity
  8
With Dials
370
     0
100
AcDb2dPolyline
 66
     1
 10
0.0
 20
0.0
 30
0.0
  0
VERTEX
  5
E4
330
E3
100
AcDbEntity
  8
With Dials
370
     0
100
AcDbVertex
100
AcDb2dVertex
 10
34.02703585303838
 20
-42.28544649550503
 30
0.0
  0
VERTEX
  5
E5
330
E3
100
AcDbEntity
  8
With Dials
370
     0
100
AcDbVertex
100
AcDb2dVertex
 10
34.18378769761725
 20
-43.31036240236686
 30
0.0
  0
VERTEX
  5
E6
330
E3
100
AcDbEntity
  8
With Dials
370
     0
100
AcDbVertex
100
AcDb2dVertex
 10
33.84272324457751
 20
-43.31036240236686
 30
0.0
  0
VERTEX
  5
E7
330
E3
100
AcDbEntity
  8
With Dials
370
     0
100
AcDbVertex
100
AcDb2dVertex
 10
33.74281547550527
 20
-42.64373642597101
 30
0.0
  0
VERTEX
  5
E8
330
E3
100
AcDbEntity
  8
With Dials
370
     0
100
AcDbVertex
100
AcDb2dVertex
 10
33.0606865694258
 20
-42.64373642597101
 30
0.0
  0
VERTEX
  5
E9
330
E3
100
AcDbEntity
  8
With Dials
370
     0
100
AcDbVertex
100
AcDb2dVertex
 10
32.95905625261094
 20
-43.31036240236686
 30
0.0
  0
VERTEX
  5
EA
330
E3
100
AcDbEntity
  8
With Dials
370
     0
100
AcDbVertex
100
AcDb2dVertex
 10
32.61971434731382
 20
-43.31036240236686
 30
0.0
  0
VERTEX
  5
EB
330
E3
100
AcDbEntity
  8
With Dials
370
     0
100
AcDbVertex
100
AcDb2dVertex
 10
32.77302109640744
 20
-42.29233668647553
 30
0.0
  0
VERTEX
  5
EC
330
E3
100
AcDbEntity
  8
With Dials
370
     0
100
AcDbVertex
100
AcDb2dVertex
 10
33.12442083590292
 20
-40.3269097121405
 30
0.0
  0
VERTEX
  5
ED
330
E3
100
AcDbEntity
  8
With Dials
370
     0
100
AcDbVertex
100
AcDb2dVertex
 10
33.67735866128552
 20
-40.3269097121405
 30
0.0
  0
VERTEX
  5
EE
330
E3
100
AcDbEntity
  8
With Dials
370
     0
100
AcDbVertex
100
AcDb2dVertex
 10
34.02703585303838
 20
-42.28544649550503
 30
0.0
  0
SEQEND
  5
EF
330
E3
100
AcDbEntity
  8
With Dials
370
     0
  0
POLYLINE
  5
F0
330
4C
100
AcDbEntity
  8
With Dials
370
     0
100
AcDb2dPolyline
 66
     1
 10
0.0
 20
0.0
 30
0.0
  0
VERTEX
  5
F1
330
F0
100
AcDbEntity
  8
With Dials
370
     0
100
AcDbVertex
100
AcDb2dVertex
 10
33.69802923419702
 20
-42.35434840521003
 30
0.0
  0
VERTEX
  5
F2
330
F0
100
AcDbEntity
  8
With Dials
370
     0
100
AcDbVertex
100
AcDb2dVertex
 10
33.40002847472291
 20
-40.58012423030636
 30
0.0
  0
VERTEX
  5
F3
330
F0
100
AcDbEntity
  8
With Dials
370
     0
100
AcDbVertex
100
AcDb2dVertex
 10
33.10030516750618
 20
-42.35434840521003
 30
0.0
  0
VERTEX
  5
F4
330
F0
100
AcDbEntity
  8
With Dials
370
     0
100
AcDbVertex
100
AcDb2dVertex
 10
33.69802923419702
 20
-42.35434840521003
 30
0.0
  0
SEQEND
  5
F5
330
F0
100
AcDbEntity
  8
With Dials
370
     0
  0
HATCH
  5
F6
330
4C
100
AcDbEntity
  8
With Dials
 62
   250
420
  2301728
100
AcDbHatch
 10
0.0
 20
0.0
 30
0.0
210
0.0
220
0.0
230
1.0
  2
SOLID
 70
     1
 71
     0
 91
        2
 92
        1
 93
       10
 72
     1
 10
34.02703585303838
 20
-42.28544649550503
 11
34.18378769761725
 21
-43.31036240236686
 72
     1
 10
34.18378769761725
 20
-43.31036240236686
 11
33.84272324457751
 21
-43.31036240236686
 72
     1
 10
33.84272324457751
 20
-43.31036240236686
 11
33.74281547550527
 21
-42.64373642597101
 72
     1
 10
33.74281547550527
 20
-42.64373642597101
 11
33.0606865694258
 21
-42.64373642597101
 72
     1
 10
33.0606865694258
 20
-42.64373642597101
 11
32.95905625261094
 21
-43.31036240236686
 72
     1
 10
32.95905625261094
 20
-43.31036240236686
 11
32.61971434731382
 21
-43.31036240236686
 72
     1
 10
32.61971434731382
 20
-43.31036240236686
 11
32.77302109640744
 21
-42.29233668647553
 72
     1
 10
32.77302109640744
 20
-42.29233668647553
 11
33.12442083590292
 21
-40.3269097121405
 72
     1
 10
33.12442083590292
 20
-40.3269097121405
 11
33.67735866128552
 21
-40.3269097121405
 72
     1
 10
33.67735866128552
 20
-40.3269097121405
 11
34.02703585303838
 21
-42.28544649550503
 97
        0
 92
        1
 93
        3
 72
     1
 10
33.69802923419702
 20
-42.35434840521003
 11
33.40002847472291
 21
-40.58012423030636
 72
     1
 10
33.40002847472291
 20
-40.58012423030636
 11
33.10030516750618
 21
-42.35434840521003
 72
     1
 10
33.10030516750618
 20
-42.35434840521003
 11
33.69802923419702
 21
-42.35434840521003
 97
        0
 75
     2
 76
     1
 98
        0
  0
SPLINE
  5
F7
330
4C
100
AcDbEntity
  8
With Dials
370
     0
100
AcDbSpline
210
0.0
220
0.0
230
1.0
 70
    11
 71
     3
 72
    74
 73
    70
 74
     0
 42
0.0000000001
 43
0.0000000001
 12
1.0
 22
0.0
 32
0.0
 13
1.0
 23
0.0
 33
0.0
 40
0.0
 40
0.0
 40
0.0
 40
0.0
 40
1.0
 40
1.0
 40
1.0
 40
2.0
 40
2.0
 40
2.0
 40
3.0
 40
3.0
 40
3.0
 40
4.0
 40
4.0
 40
4.0
 40
5.0
 40
5.0
 40
5.0
 40
6.0
 40
6.0
 40
6.0
 40
7.0
 40
7.0
 40
7.0
 40
8.0
 40
8.0
 40
8.0
 40
9.0
 40
9.0
 40
9.0
 40
10.0
 40
10.0
 40
10.0
 40
11.0
 40
11.0
 40
11.0
 40
12.0
 40
12.0
 40
12.0
 40
13.0
 40
13.0
 40
13.0
 40
14.0
 40
14.0
 40
14.0
 40
15.0
 40
15.0
 40
15.0
 40
16.0
 40
16.0
 40
16.0
 40
17.0
 40
17.0
 40
17.0
 40
18.0
 40
18.0
 40
18.0
 40
19.0
 40
19.0
 40
19.0
 40
20.0
 40
20.0
 40
20.0
 40
21.0
 40
21.0
 40
21.0
 40
22.0
 40
22.0
 40
22.0
 40
23.0
 40
23.0
 40
23.0
 40
23.0
 10
35.31274548813362
 20
-40.86434460783947
 30
0.0
 10
35.31274548813362
 20
-40.47746038484591
 30
0.0
 10
35.52926973938158
 20
-40.28384601857487
 30
0.0
 10
35.96214598710321
 20
-40.28384601857487
 30
0.0
 10
36.39622801824469
 20
-40.28384601857487
 30
0.0
 10
36.61326903381543
 20
-40.47746038484591
 30
0.0
 10
36.61326903381543
 20
-40.86434460783947
 30
0.0
 10
36.61326903381543
 20
-40.86434460783947
 30
0.0
 10
36.61326903381543
 20
-41.20885415636445
 30
0.0
 10
36.61326903381543
 20
-41.20885415636445
 30
0.0
 10
36.61326903381543
 20
-41.20885415636445
 30
0.0
 10
36.27737222400358
 20
-41.20885415636445
 30
0.0
 10
36.27737222400358
 20
-41.20885415636445
 30
0.0
 10
36.27737222400358
 20
-41.20885415636445
 30
0.0
 10
36.27737222400358
 20
-40.86434460783947
 30
0.0
 10
36.27737222400358
 20
-40.86434460783947
 30
0.0
 10
36.27737222400358
 20
-40.67141926066548
 30
0.0
 10
36.17281357602624
 20
-40.57426756798144
 30
0.0
 10
35.96386853484584
 20
-40.57323403933586
 30
0.0
 10
35.96386853484584
 20
-40.57323403933586
 30
0.0
 10
35.96042343936059
 20
-40.57323403933586
 30
0.0
 10
35.96042343936059
 20
-40.57323403933586
 30
0.0
 10
35.75251192682576
 20
-40.57323403933586
 30
0.0
 10
35.64864229794548
 20
-40.6703857320199
 30
0.0
 10
35.64864229794548
 20
-40.86434460783947
 30
0.0
 10
35.64864229794548
 20
-40.86434460783947
 30
0.0
 10
35.64864229794548
 20
-41.15028753311521
 30
0.0
 10
35.64864229794548
 20
-41.15028753311521
 30
0.0
 10
35.64864229794548
 20
-41.3156521164072
 30
0.0
 10
35.82210285562781
 20
-41.50788844448414
 30
0.0
 10
36.16885171621821
 20
-41.72734102689456
 30
0.0
 10
36.46512992794969
 20
-41.91337618309804
 30
0.0
 10
36.61326903381543
 20
-42.13455131325109
 30
0.0
 10
36.61326903381543
 20
-42.39052190780515
 30
0.0
 10
36.61326903381543
 20
-42.39052190780515
 30
0.0
 10
36.61326903381543
 20
-42.78670788860888
 30
0.0
 10
36.61326903381543
 20
-42.78670788860888
 30
0.0
 10
36.61326903381543
 20
-43.17497014979654
 30
0.0
 10
36.39674478256748
 20
-43.3689290256161
 30
0.0
 10
35.96386853484584
 20
-43.3689290256161
 30
0.0
 10
35.52978650370436
 20
-43.36789549697053
 30
0.0
 10
35.31274548813362
 20
-43.17359211160244
 30
0.0
 10
35.31274548813362
 20
-42.78670788860888
 30
0.0
 10
35.31274548813362
 20
-42.78670788860888
 30
0.0
 10
35.31274548813362
 20
-42.4421983400839
 30
0.0
 10
35.31274548813362
 20
-42.4421983400839
 30
0.0
 10
35.31274548813362
 20
-42.4421983400839
 30
0.0
 10
35.64864229794548
 20
-42.4421983400839
 30
0.0
 10
35.64864229794548
 20
-42.4421983400839
 30
0.0
 10
35.64864229794548
 20
-42.4421983400839
 30
0.0
 10
35.64864229794548
 20
-42.78670788860888
 30
0.0
 10
35.64864229794548
 20
-42.78670788860888
 30
0.0
 10
35.64864229794548
 20
-42.98066676442845
 30
0.0
 10
35.7537177102456
 20
-43.07781845711249
 30
0.0
 10
35.96386853484584
 20
-43.07781845711249
 30
0.0
 10
36.17281357602624
 20
-43.07781845711249
 30
0.0
 10
36.27737222400358
 20
-42.98066676442845
 30
0.0
 10
36.27737222400358
 20
-42.78670788860888
 30
0.0
 10
36.27737222400358
 20
-42.78670788860888
 30
0.0
 10
36.27737222400358
 20
-42.42841795814289
 30
0.0
 10
36.27737222400358
 20
-42.42841795814289
 30
0.0
 10
36.27737222400358
 20
-42.25030652155548
 30
0.0
 10
36.10391166632125
 20
-42.05221353115361
 30
0.0
 10
35.75716280573085
 20
-41.8341389869373
 30
0.0
 10
35.46088459399937
 20
-41.64707030208823
 30
0.0
 10
35.31274548813362
 20
-41.4217610573529
 30
0.0
 10
35.31274548813362
 20
-41.15890027182833
 30
0.0
 10
35.31274548813362
 20
-41.15890027182833
 30
0.0
 10
35.31274548813362
 20
-40.86434460783947
 30
0.0
 10
35.31274548813362
 20
-40.86434460783947
 30
0.0
  0
HATCH
  5
F8
330
4C
100
AcDbEntity
  8
With Dials
 62
   250
420
  2301728
100
AcDbHatch
 10
0.0
 20
0.0
 30
0.0
210
0.0
220
0.0
230
1.0
  2
SOLID
 70
     1
 71
     0
 91
        1
 92
        1
 93
        1
 72
     4
 94
        3
 73
     0
 74
     1
 95
       74
 96
       70
 40
0.0
 40
0.0
 40
0.0
 40
0.0
 40
1.0
 40
1.0
 40
1.0
 40
2.0
 40
2.0
 40
2.0
 40
3.0
 40
3.0
 40
3.0
 40
4.0
 40
4.0
 40
4.0
 40
5.0
 40
5.0
 40
5.0
 40
6.0
 40
6.0
 40
6.0
 40
7.0
 40
7.0
 40
7.0
 40
8.0
 40
8.0
 40
8.0
 40
9.0
 40
9.0
 40
9.0
 40
10.0
 40
10.0
 40
10.0
 40
11.0
 40
11.0
 40
11.0
 40
12.0
 40
12.0
 40
12.0
 40
13.0
 40
13.0
 40
13.0
 40
14.0
 40
14.0
 40
14.0
 40
15.0
 40
15.0
 40
15.0
 40
16.0
 40
16.0
 40
16.0
 40
17.0
 40
17.0
 40
17.0
 40
18.0
 40
18.0
 40
18.0
 40
19.0
 40
19.0
 40
19.0
 40
20.0
 40
20.0
 40
20.0
 40
21.0
 40
21.0
 40
21.0
 40
22.0
 40
22.0
 40
22.0
 40
23.0
 40
23.0
 40
23.0
 40
23.0
 10
35.31274548813362
 20
-40.86434460783947
 10
35.31274548813362
 20
-40.47746038484591
 10
35.52926973938158
 20
-40.28384601857487
 10
35.96214598710321
 20
-40.28384601857487
 10
36.39622801824469
 20
-40.28384601857487
 10
36.61326903381543
 20
-40.47746038484591
 10
36.61326903381543
 20
-40.86434460783947
 10
36.61326903381543
 20
-40.86434460783947
 10
36.61326903381543
 20
-41.20885415636445
 10
36.61326903381543
 20
-41.20885415636445
 10
36.61326903381543
 20
-41.20885415636445
 10
36.27737222400358
 20
-41.20885415636445
 10
36.27737222400358
 20
-41.20885415636445
 10
36.27737222400358
 20
-41.20885415636445
 10
36.27737222400358
 20
-40.86434460783947
 10
36.27737222400358
 20
-40.86434460783947
 10
36.27737222400358
 20
-40.67141926066548
 10
36.17281357602624
 20
-40.57426756798144
 10
35.96386853484584
 20
-40.57323403933586
 10
35.96386853484584
 20
-40.57323403933586
 10
35.96042343936059
 20
-40.57323403933586
 10
35.96042343936059
 20
-40.57323403933586
 10
35.75251192682576
 20
-40.57323403933586
 10
35.64864229794548
 20
-40.6703857320199
 10
35.64864229794548
 20
-40.86434460783947
 10
35.64864229794548
 20
-40.86434460783947
 10
35.64864229794548
 20
-41.15028753311521
 10
35.64864229794548
 20
-41.15028753311521
 10
35.64864229794548
 20
-41.3156521164072
 10
35.82210285562781
 20
-41.50788844448414
 10
36.16885171621821
 20
-41.72734102689456
 10
36.46512992794969
 20
-41.91337618309804
 10
36.61326903381543
 20
-42.13455131325109
 10
36.61326903381543
 20
-42.39052190780515
 10
36.61326903381543
 20
-42.39052190780515
 10
36.61326903381543
 20
-42.78670788860888
 10
36.61326903381543
 20
-42.78670788860888
 10
36.61326903381543
 20
-43.17497014979654
 10
36.39674478256748
 20
-43.3689290256161
 10
35.96386853484584
 20
-43.3689290256161
 10
35.52978650370436
 20
-43.36789549697053
 10
35.31274548813362
 20
-43.17359211160244
 10
35.31274548813362
 20
-42.78670788860888
 10
35.31274548813362
 20
-42.78670788860888
 10
35.31274548813362
 20
-42.4421983400839
 10
35.31274548813362
 20
-42.4421983400839
 10
35.31274548813362
 20
-42.4421983400839
 10
35.64864229794548
 20
-42.4421983400839
 10
35.64864229794548
 20
-42.4421983400839
 10
35.64864229794548
 20
-42.4421983400839
 10
35.64864229794548
 20
-42.78670788860888
 10
35.64864229794548
 20
-42.78670788860888
 10
35.64864229794548
 20
-42.98066676442845
 10
35.7537177102456
 20
-43.07781845711249
 10
35.96386853484584
 20
-43.07781845711249
 10
36.17281357602624
 20
-43.07781845711249
 10
36.27737222400358
 20
-42.98066676442845
 10
36.27737222400358
 20
-42.78670788860888
 10
36.27737222400358
 20
-42.78670788860888
 10
36.27737222400358
 20
-42.42841795814289
 10
36.27737222400358
 20
-42.42841795814289
 10
36.27737222400358
 20
-42.25030652155548
 10
36.10391166632125
 20
-42.05221353115361
 10
35.75716280573085
 20
-41.8341389869373
 10
35.46088459399937
 20
-41.64707030208823
 10
35.31274548813362
 20
-41.4217610573529
 10
35.31274548813362
 20
-41.15890027182833
 10
35.31274548813362
 20
-41.15890027182833
 10
35.31274548813362
 20
-40.86434460783947
 10
35.31274548813362
 20
-40.86434460783947
 97
        0
 97
        0
 75
     2
 76
     1
 98
        0
  0
SPLINE
  5
F9
330
4C
100
AcDbEntity
  8
With Dials
370
     0
100
AcDbSpline
210
0.0
220
0.0
230
1.0
 70
    11
 71
     3
 72
    32
 73
    28
 74
     0
 42
0.0000000001
 43
0.0000000001
 12
1.0
 22
0.0
 32
0.0
 13
1.0
 23
0.0
 33
0.0
 40
0.0
 40
0.0
 40
0.0
 40
0.0
 40
1.0
 40
1.0
 40
1.0
 40
2.0
 40
2.0
 40
2.0
 40
3.0
 40
3.0
 40
3.0
 40
4.0
 40
4.0
 40
4.0
 40
5.0
 40
5.0
 40
5.0
 40
6.0
 40
6.0
 40
6.0
 40
7.0
 40
7.0
 40
7.0
 40
8.0
 40
8.0
 40
8.0
 40
9.0
 40
9.0
 40
9.0
 40
9.0
 10
37.11487493646781
 20
-40.3269097121405
 30
0.0
 10
37.11487493646781
 20
-40.3269097121405
 30
0.0
 10
37.77633326963578
 20
-40.3269097121405
 30
0.0
 10
37.77633326963578
 20
-40.3269097121405
 30
0.0
 10
38.17251925043951
 20
-40.32794324078607
 30
0.0
 10
38.37061224084137
 20
-40.52224662615416
 30
0.0
 10
38.37061224084137
 20
-40.90913084914772
 30
0.0
 10
38.37061224084137
 20
-40.90913084914772
 30
0.0
 10
38.37061224084137
 20
-41.38110893062694
 30
0.0
 10
38.37061224084137
 20
-41.38110893062694
 30
0.0
 10
38.37061224084137
 20
-41.66705185590268
 30
0.0
 10
38.22695175910646
 20
-41.85136446436355
 30
0.0
 10
37.93997530518514
 20
-41.93404675600954
 30
0.0
 10
37.87003986683457
 20
-41.95368380027547
 30
0.0
 10
37.76496445453446
 20
-41.96333006763417
 30
0.0
 10
37.62474906828479
 20
-41.96333006763417
 30
0.0
 10
37.62474906828479
 20
-41.96333006763417
 30
0.0
 10
37.45077174627967
 20
-41.96333006763417
 30
0.0
 10
37.45077174627967
 20
-41.96333006763417
 30
0.0
 10
37.45077174627967
 20
-41.96333006763417
 30
0.0
 10
37.45077174627967
 20
-43.31036240236686
 30
0.0
 10
37.45077174627967
 20
-43.31036240236686
 30
0.0
 10
37.45077174627967
 20
-43.31036240236686
 30
0.0
 10
37.11487493646781
 20
-43.31036240236686
 30
0.0
 10
37.11487493646781
 20
-43.31036240236686
 30
0.0
 10
37.11487493646781
 20
-43.31036240236686
 30
0.0
 10
37.11487493646781
 20
-40.3269097121405
 30
0.0
 10
37.11487493646781
 20
-40.3269097121405
 30
0.0
  0
SPLINE
  5
FA
330
4C
100
AcDbEntity
  8
With Dials
370
     0
100
AcDbSpline
210
0.0
220
0.0
230
1.0
 70
    11
 71
     3
 72
    26
 73
    22
 74
     0
 42
0.0000000001
 43
0.0000000001
 12
1.0
 22
0.0
 32
0.0
 13
1.0
 23
0.0
 33
0.0
 40
0.0
 40
0.0
 40
0.0
 40
0.0
 40
1.0
 40
1.0
 40
1.0
 40
2.0
 40
2.0
 40
2.0
 40
3.0
 40
3.0
 40
3.0
 40
4.0
 40
4.0
 40
4.0
 40
5.0
 40
5.0
 40
5.0
 40
6.0
 40
6.0
 40
6.0
 40
7.0
 40
7.0
 40
7.0
 40
7.0
 10
37.45077174627967
 20
-40.61629773290149
 30
0.0
 10
37.45077174627967
 20
-40.61629773290149
 30
0.0
 10
37.45077174627967
 20
-41.67394204687319
 30
0.0
 10
37.45077174627967
 20
-41.67394204687319
 30
0.0
 10
37.45077174627967
 20
-41.67394204687319
 30
0.0
 10
37.65747747539466
 20
-41.67394204687319
 30
0.0
 10
37.65747747539466
 20
-41.67394204687319
 30
0.0
 10
37.74015976704066
 20
-41.67394204687319
 30
0.0
 10
37.80044893803253
 20
-41.66808538454826
 30
0.0
 10
37.83834498837027
 20
-41.65671656944694
 30
0.0
 10
37.96925861680977
 20
-41.60848523265344
 30
0.0
 10
38.03471543102952
 20
-41.51650118319726
 30
0.0
 10
38.03471543102952
 20
-41.38110893062694
 30
0.0
 10
38.03471543102952
 20
-41.38110893062694
 30
0.0
 10
38.03471543102952
 20
-40.90913084914772
 30
0.0
 10
38.03471543102952
 20
-40.90913084914772
 30
0.0
 10
38.03471543102952
 20
-40.71379393513406
 30
0.0
 10
37.93067354737497
 20
-40.61629773290149
 30
0.0
 10
37.72293428961441
 20
-40.61629773290149
 30
0.0
 10
37.72293428961441
 20
-40.61629773290149
 30
0.0
 10
37.45077174627967
 20
-40.61629773290149
 30
0.0
 10
37.45077174627967
 20
-40.61629773290149
 30
0.0
  0
HATCH
  5
FB
330
4C
100
AcDbEntity
  8
With Dials
 62
   250
420
  2301728
100
AcDbHatch
 10
0.0
 20
0.0
 30
0.0
210
0.0
220
0.0
230
1.0
  2
SOLID
 70
     1
 71
     0
 91
        2
 92
        1
 93
        1
 72
     4
 94
        3
 73
     0
 74
     1
 95
       32
 96
       28
 40
0.0
 40
0.0
 40
0.0
 40
0.0
 40
1.0
 40
1.0
 40
1.0
 40
2.0
 40
2.0
 40
2.0
 40
3.0
 40
3.0
 40
3.0
 40
4.0
 40
4.0
 40
4.0
 40
5.0
 40
5.0
 40
5.0
 40
6.0
 40
6.0
 40
6.0
 40
7.0
 40
7.0
 40
7.0
 40
8.0
 40
8.0
 40
8.0
 40
9.0
 40
9.0
 40
9.0
 40
9.0
 10
37.11487493646781
 20
-40.3269097121405
 10
37.11487493646781
 20
-40.3269097121405
 10
37.77633326963578
 20
-40.3269097121405
 10
37.77633326963578
 20
-40.3269097121405
 10
38.17251925043951
 20
-40.32794324078607
 10
38.37061224084137
 20
-40.52224662615416
 10
38.37061224084137
 20
-40.90913084914772
 10
38.37061224084137
 20
-40.90913084914772
 10
38.37061224084137
 20
-41.38110893062694
 10
38.37061224084137
 20
-41.38110893062694
 10
38.37061224084137
 20
-41.66705185590268
 10
38.22695175910646
 20
-41.85136446436355
 10
37.93997530518514
 20
-41.93404675600954
 10
37.87003986683457
 20
-41.95368380027547
 10
37.76496445453446
 20
-41.96333006763417
 10
37.62474906828479
 20
-41.96333006763417
 10
37.62474906828479
 20
-41.96333006763417
 10
37.45077174627967
 20
-41.96333006763417
 10
37.45077174627967
 20
-41.96333006763417
 10
37.45077174627967
 20
-41.96333006763417
 10
37.45077174627967
 20
-43.31036240236686
 10
37.45077174627967
 20
-43.31036240236686
 10
37.45077174627967
 20
-43.31036240236686
 10
37.11487493646781
 20
-43.31036240236686
 10
37.11487493646781
 20
-43.31036240236686
 10
37.11487493646781
 20
-43.31036240236686
 10
37.11487493646781
 20
-40.3269097121405
 10
37.11487493646781
 20
-40.3269097121405
 97
        0
 97
        0
 92
        1
 93
        1
 72
     4
 94
        3
 73
     0
 74
     1
 95
       26
 96
       22
 40
0.0
 40
0.0
 40
0.0
 40
0.0
 40
1.0
 40
1.0
 40
1.0
 40
2.0
 40
2.0
 40
2.0
 40
3.0
 40
3.0
 40
3.0
 40
4.0
 40
4.0
 40
4.0
 40
5.0
 40
5.0
 40
5.0
 40
6.0
 40
6.0
 40
6.0
 40
7.0
 40
7.0
 40
7.0
 40
7.0
 10
37.45077174627967
 20
-40.61629773290149
 10
37.45077174627967
 20
-40.61629773290149
 10
37.45077174627967
 20
-41.67394204687319
 10
37.45077174627967
 20
-41.67394204687319
 10
37.45077174627967
 20
-41.67394204687319
 10
37.65747747539466
 20
-41.67394204687319
 10
37.65747747539466
 20
-41.67394204687319
 10
37.74015976704066
 20
-41.67394204687319
 10
37.80044893803253
 20
-41.66808538454826
 10
37.83834498837027
 20
-41.65671656944694
 10
37.96925861680977
 20
-41.60848523265344
 10
38.03471543102952
 20
-41.51650118319726
 10
38.03471543102952
 20
-41.38110893062694
 10
38.03471543102952
 20
-41.38110893062694
 10
38.03471543102952
 20
-40.90913084914772
 10
38.03471543102952
 20
-40.90913084914772
 10
38.03471543102952
 20
-40.71379393513406
 10
37.93067354737497
 20
-40.61629773290149
 10
37.72293428961441
 20
-40.61629773290149
 10
37.72293428961441
 20
-40.61629773290149
 10
37.45077174627967
 20
-40.61629773290149
 10
37.45077174627967
 20
-40.61629773290149
 97
        0
 97
        0
 75
     2
 76
     1
 98
        0
  0
POLYLINE
  5
FC
330
4C
100
AcDbEntity
  8
With Dials
370
     0
100
AcDb2dPolyline
 66
     1
 10
0.0
 20
0.0
 30
0.0
  0
VERTEX
  5
FD
330
FC
100
AcDbEntity
  8
With Dials
370
     0
100
AcDbVertex
100
AcDb2dVertex
 10
39.86268309550308
 20
-41.67394204687319
 30
0.0
  0
VERTEX
  5
FE
330
FC
100
AcDbEntity
  8
With Dials
370
     0
100
AcDbVertex
100
AcDb2dVertex
 10
39.86268309550308
 20
-41.96333006763417
 30
0.0
  0
VERTEX
  5
FF
330
FC
100
AcDbEntity
  8
With Dials
370
     0
100
AcDbVertex
100
AcDb2dVertex
 10
39.15643852102686
 20
-41.96333006763417
 30
0.0
  0
VERTEX
  5
100
330
FC
100
AcDbEntity
  8
With Dials
370
     0
100
AcDbVertex
100
AcDb2dVertex
 10
39.15643852102686
 20
-43.02097438160587
 30
0.0
  0
VERTEX
  5
101
330
FC
100
AcDbEntity
  8
With Dials
370
     0
100
AcDbVertex
100
AcDb2dVertex
 10
39.97637124651632
 20
-43.02097438160587
 30
0.0
  0
VERTEX
  5
102
330
FC
100
AcDbEntity
  8
With Dials
370
     0
100
AcDbVertex
100
AcDb2dVertex
 10
39.97637124651632
 20
-43.31036240236686
 30
0.0
  0
VERTEX
  5
103
330
FC
100
AcDbEntity
  8
With Dials
370
     0
100
AcDbVertex
100
AcDb2dVertex
 10
38.82054171121501
 20
-43.31036240236686
 30
0.0
  0
VERTEX
  5
104
330
FC
100
AcDbEntity
  8
With Dials
370
     0
100
AcDbVertex
100
AcDb2dVertex
 10
38.82054171121501
 20
-40.3269097121405
 30
0.0
  0
VERTEX
  5
105
330
FC
100
AcDbEntity
  8
With Dials
370
     0
100
AcDbVertex
100
AcDb2dVertex
 10
39.97637124651632
 20
-40.3269097121405
 30
0.0
  0
VERTEX
  5
106
330
FC
100
AcDbEntity
  8
With Dials
370
     0
100
AcDbVertex
100
AcDb2dVertex
 10
39.97637124651632
 20
-40.61629773290149
 30
0.0
  0
VERTEX
  5
107
330
FC
100
AcDbEntity
  8
With Dials
370
     0
100
AcDbVertex
100
AcDb2dVertex
 10
39.15643852102686
 20
-40.61629773290149
 30
0.0
  0
VERTEX
  5
108
330
FC
100
AcDbEntity
  8
With Dials
370
     0
100
AcDbVertex
100
AcDb2dVertex
 10
39.15643852102686
 20
-41.67394204687319
 30
0.0
  0
VERTEX
  5
109
330
FC
100
AcDbEntity
  8
With Dials
370
     0
100
AcDbVertex
100
AcDb2dVertex
 10
39.86268309550308
 20
-41.67394204687319
 30
0.0
  0
SEQEND
  5
10A
330
FC
100
AcDbEntity
  8
With Dials
370
     0
  0
HATCH
  5
10B
330
4C
100
AcDbEntity
  8
With Dials
 62
   250
420
  2301728
100
AcDbHatch
 10
0.0
 20
0.0
 30
0.0
210
0.0
220
0.0
230
1.0
  2
SOLID
 70
     1
 71
     0
 91
        1
 92
        1
 93
       12
 72
     1
 10
39.86268309550308
 20
-41.67394204687319
 11
39.86268309550308
 21
-41.96333006763417
 72
     1
 10
39.86268309550308
 20
-41.96333006763417
 11
39.15643852102686
 21
-41.96333006763417
 72
     1
 10
39.15643852102686
 20
-41.96333006763417
 11
39.15643852102686
 21
-43.02097438160587
 72
     1
 10
39.15643852102686
 20
-43.02097438160587
 11
39.97637124651632
 21
-43.02097438160587
 72
     1
 10
39.97637124651632
 20
-43.02097438160587
 11
39.97637124651632
 21
-43.31036240236686
 72
     1
 10
39.97637124651632
 20
-43.31036240236686
 11
38.82054171121501
 21
-43.31036240236686
 72
     1
 10
38.82054171121501
 20
-43.31036240236686
 11
38.82054171121501
 21
-40.3269097121405
 72
     1
 10
38.82054171121501
 20
-40.3269097121405
 11
39.97637124651632
 21
-40.3269097121405
 72
     1
 10
39.97637124651632
 20
-40.3269097121405
 11
39.97637124651632
 21
-40.61629773290149
 72
     1
 10
39.97637124651632
 20
-40.61629773290149
 11
39.15643852102686
 21
-40.61629773290149
 72
     1
 10
39.15643852102686
 20
-40.61629773290149
 11
39.15643852102686
 21
-41.67394204687319
 72
     1
 10
39.15643852102686
 20
-41.67394204687319
 11
39.86268309550308
 21
-41.67394204687319
 97
        0
 75
     2
 76
     1
 98
        0
  0
POLYLINE
  5
10C
330
4C
100
AcDbEntity
  8
With Dials
370
     0
100
AcDb2dPolyline
 66
     1
 10
0.0
 20
0.0
 30
0.0
  0
VERTEX
  5
10D
330
10C
100
AcDbEntity
  8
With Dials
370
     0
100
AcDbVertex
100
AcDb2dVertex
 10
40.42630071688995
 20
-43.31036240236686
 30
0.0
  0
VERTEX
  5
10E
330
10C
100
AcDbEntity
  8
With Dials
370
     0
100
AcDbVertex
100
AcDb2dVertex
 10
40.42630071688995
 20
-40.3269097121405
 30
0.0
  0
VERTEX
  5
10F
330
10C
100
AcDbEntity
  8
With Dials
370
     0
100
AcDbVertex
100
AcDb2dVertex
 10
40.76219752670181
 20
-40.3269097121405
 30
0.0
  0
VERTEX
  5
110
330
10C
100
AcDbEntity
  8
With Dials
370
     0
100
AcDbVertex
100
AcDb2dVertex
 10
40.76219752670181
 20
-43.02097438160587
 30
0.0
  0
VERTEX
  5
111
330
10C
100
AcDbEntity
  8
With Dials
370
     0
100
AcDbVertex
100
AcDb2dVertex
 10
41.58213025219128
 20
-43.02097438160587
 30
0.0
  0
VERTEX
  5
112
330
10C
100
AcDbEntity
  8
With Dials
370
     0
100
AcDbVertex
100
AcDb2dVertex
 10
41.58213025219128
 20
-43.31036240236686
 30
0.0
  0
VERTEX
  5
113
330
10C
100
AcDbEntity
  8
With Dials
370
     0
100
AcDbVertex
100
AcDb2dVertex
 10
40.42630071688995
 20
-43.31036240236686
 30
0.0
  0
SEQEND
  5
114
330
10C
100
AcDbEntity
  8
With Dials
370
     0
  0
HATCH
  5
115
330
4C
100
AcDbEntity
  8
With Dials
 62
   250
420
  2301728
100
AcDbHatch
 10
0.0
 20
0.0
 30
0.0
210
0.0
220
0.0
230
1.0
  2
SOLID
 70
     1
 71
     0
 91
        1
 92
        1
 93
        6
 72
     1
 10
40.42630071688995
 20
-43.31036240236686
 11
40.42630071688995
 21
-40.3269097121405
 72
     1
 10
40.42630071688995
 20
-40.3269097121405
 11
40.76219752670181
 21
-40.3269097121405
 72
     1
 10
40.76219752670181
 20
-40.3269097121405
 11
40.76219752670181
 21
-43.02097438160587
 72
     1
 10
40.76219752670181
 20
-43.02097438160587
 11
41.58213025219128
 21
-43.02097438160587
 72
     1
 10
41.58213025219128
 20
-43.02097438160587
 11
41.58213025219128
 21
-43.31036240236686
 72
     1
 10
41.58213025219128
 20
-43.31036240236686
 11
40.42630071688995
 21
-43.31036240236686
 97
        0
 75
     2
 76
     1
 98
        0
  0
POLYLINE
  5
116
330
4C
100
AcDbEntity
  8
With Dials
370
     0
100
AcDb2dPolyline
 66
     1
 10
0.0
 20
0.0
 30
0.0
  0
VERTEX
  5
117
330
116
100
AcDbEntity
  8
With Dials
370
     0
100
AcDbVertex
100
AcDb2dVertex
 10
41.9631578128599
 20
-43.31036240236686
 30
0.0
  0
VERTEX
  5
118
330
116
100
AcDbEntity
  8
With Dials
370
     0
100
AcDbVertex
100
AcDb2dVertex
 10
41.9631578128599
 20
-40.3269097121405
 30
0.0
  0
VERTEX
  5
119
330
116
100
AcDbEntity
  8
With Dials
370
     0
100
AcDbVertex
100
AcDb2dVertex
 10
42.29905462267177
 20
-40.3269097121405
 30
0.0
  0
VERTEX
  5
11A
330
116
100
AcDbEntity
  8
With Dials
370
     0
100
AcDbVertex
100
AcDb2dVertex
 10
42.29905462267177
 20
-43.02097438160587
 30
0.0
  0
VERTEX
  5
11B
330
116
100
AcDbEntity
  8
With Dials
370
     0
100
AcDbVertex
100
AcDb2dVertex
 10
43.11898734816123
 20
-43.02097438160587
 30
0.0
  0
VERTEX
  5
11C
330
116
100
AcDbEntity
  8
With Dials
370
     0
100
AcDbVertex
100
AcDb2dVertex
 10
43.11898734816123
 20
-43.31036240236686
 30
0.0
  0
VERTEX
  5
11D
330
116
100
AcDbEntity
  8
With Dials
370
     0
100
AcDbVertex
100
AcDb2dVertex
 10
41.9631578128599
 20
-43.31036240236686
 30
0.0
  0
SEQEND
  5
11E
330
116
100
AcDbEntity
  8
With Dials
370
     0
  0
HATCH
  5
11F
330
4C
100
AcDbEntity
  8
With Dials
 62
   250
420
  2301728
100
AcDbHatch
 10
0.0
 20
0.0
 30
0.0
210
0.0
220
0.0
230
1.0
  2
SOLID
 70
     1
 71
     0
 91
        1
 92
        1
 93
        6
 72
     1
 10
41.9631578128599
 20
-43.31036240236686
 11
41.9631578128599
 21
-40.3269097121405
 72
     1
 10
41.9631578128599
 20
-40.3269097121405
 11
42.29905462267177
 21
-40.3269097121405
 72
     1
 10
42.29905462267177
 20
-40.3269097121405
 11
42.29905462267177
 21
-43.02097438160587
 72
     1
 10
42.29905462267177
 20
-43.02097438160587
 11
43.11898734816123
 21
-43.02097438160587
 72
     1
 10
43.11898734816123
 20
-43.02097438160587
 11
43.11898734816123
 21
-43.31036240236686
 72
     1
 10
43.11898734816123
 20
-43.31036240236686
 11
41.9631578128599
 21
-43.31036240236686
 97
        0
 75
     2
 76
     1
 98
        0
  0
ENDBLK
  5
4F
330
4C
100
AcDbEntity
  8
0
100
AcDbBlockEnd
  0
ENDSEC
  0
SECTION
  2
ENTITIES
  0
INSERT
  5
45
330
1F
100
AcDbEntity
  8
With Dials
100
AcDbBlockReference
  2
block 2
 10
0.0
 20
0.0
 30
0.0
  0
ENDSEC
  0
SECTION
  2
OBJECTS
  0
DICTIONARY
  5
C
330
0
100
AcDbDictionary
281
     1
  3
ACAD_GROUP
350
D
  3
ACAD_LAYOUT
350
1A
  3
ACAD_MATERIAL
350
3B
  3
ACAD_MLEADERSTYLE
350
122
  3
ACAD_MLINESTYLE
350
17
  3
ACAD_PLOTSETTINGS
350
19
  3
ACAD_PLOTSTYLENAME
350
E
  3
ACAD_TABLESTYLE
350
121
  3
ACAD_VISUALSTYLE
350
2A
  0
SUN
  5
3F
330
29
100
AcDbSun
 90
        1
290
     0
 63
     7
421
 16777215
 40
1.0
291
     1
 91
  2455826
 92
 54000000
292
     0
 70
     2
 71
   256
280
     1
  0
DICTIONARY
  5
D
102
{ACAD_REACTORS
330
C
102
}
330
C
100
AcDbDictionary
281
     1
  0
DICTIONARY
  5
1A
102
{ACAD_REACTORS
330
C
102
}
330
C
100
AcDbDictionary
281
     1
  3
Layout1
350
1E
  3
Layout2
350
26
  3
Model
350
22
  0
DICTIONARY
  5
3B
102
{ACAD_REACTORS
330
C
102
}
330
C
100
AcDbDictionary
281
     1
  3
ByBlock
350
3D
  3
ByLayer
350
3C
  3
Global
350
3E
  0
DICTIONARY
  5
122
102
{ACAD_REACTORS
330
C
102
}
330
C
100
AcDbDictionary
281
     1
  0
DICTIONARY
  5
17
102
{ACAD_REACTORS
330
C
102
}
330
C
100
AcDbDictionary
281
     1
  3
Standard
350
18
  0
DICTIONARY
  5
19
102
{ACAD_REACTORS
330
C
102
}
330
C
100
AcDbDictionary
281
     1
  0
ACDBDICTIONARYWDFLT
  5
E
102
{ACAD_REACTORS
330
C
102
}
330
C
100
AcDbDictionary
281
     1
  3
Normal
350
F
100
AcDbDictionaryWithDefault
340
F
  0
DICTIONARY
  5
121
102
{ACAD_REACTORS
330
C
102
}
330
C
100
AcDbDictionary
281
     1
  0
DICTIONARY
  5
2A
102
{ACAD_REACTORS
330
C
102
}
330
C
100
AcDbDictionary
281
     1
  3
2dWireframe
350
2F
  3
3D Hidden
350
31
  3
3dWireframe
350
30
  3
Basic
350
32
  3
Brighten
350
36
  3
ColorChange
350
3A
  3
Conceptual
350
34
  3
Dim
350
35
  3
Facepattern
350
39
  3
Flat
350
2B
  3
FlatWithEdges
350
2C
  3
Gouraud
350
2D
  3
GouraudWithEdges
350
2E
  3
Linepattern
350
38
  3
Realistic
350
33
  3
Thicken
350
37
  0
LAYOUT
  5
1E
102
{ACAD_REACTORS
330
1A
102
}
330
1A
100
AcDbPlotSettings
  1

  2
none_device
  4

  6

 40
0.0
 41
0.0
 42
0.0
 43
0.0
 44
0.0
 45
0.0
 46
0.0
 47
0.0
 48
0.0
 49
0.0
140
0.0
141
0.0
142
1.0
143
1.0
 70
   688
 72
     0
 73
     0
 74
     5
  7

 75
    16
 76
     0
 77
     2
 78
   300
147
1.0
148
0.0
149
0.0
100
AcDbLayout
  1
Layout1
 70
     1
 71
     1
 10
0.0
 20
0.0
 11
12.0
 21
9.0
 12
0.0
 22
0.0
 32
0.0
 14
1.000000000000000E+20
 24
1.000000000000000E+20
 34
1.000000000000000E+20
 15
-1.000000000000000E+20
 25
-1.000000000000000E+20
 35
-1.000000000000000E+20
146
0.0
 13
0.0
 23
0.0
 33
0.0
 16
1.0
 26
0.0
 36
0.0
 17
0.0
 27
1.0
 37
0.0
 76
     0
330
1B
  0
LAYOUT
  5
26
102
{ACAD_REACTORS
330
1A
102
}
330
1A
100
AcDbPlotSettings
  1

  2
none_device
  4

  6

 40
0.0
 41
0.0
 42
0.0
 43
0.0
 44
0.0
 45
0.0
 46
0.0
 47
0.0
 48
0.0
 49
0.0
140
0.0
141
0.0
142
1.0
143
1.0
 70
   688
 72
     0
 73
     0
 74
     5
  7

 75
    16
 76
     0
 77
     2
 78
   300
147
1.0
148
0.0
149
0.0
100
AcDbLayout
  1
Layout2
 70
     1
 71
     2
 10
0.0
 20
0.0
 11
0.0
 21
0.0
 12
0.0
 22
0.0
 32
0.0
 14
0.0
 24
0.0
 34
0.0
 15
0.0
 25
0.0
 35
0.0
146
0.0
 13
0.0
 23
0.0
 33
0.0
 16
1.0
 26
0.0
 36
0.0
 17
0.0
 27
1.0
 37
0.0
 76
     0
330
23
  0
LAYOUT
  5
22
102
{ACAD_REACTORS
330
1A
102
}
330
1A
100
AcDbPlotSettings
  1

  2
none_device
  4

  6

 40
0.0
 41
0.0
 42
0.0
 43
0.0
 44
0.0
 45
0.0
 46
0.0
 47
0.0
 48
0.0
 49
0.0
140
0.0
141
0.0
142
1.0
143
1.0
 70
  1712
 72
     0
 73
     0
 74
     0
  7

 75
     0
 76
     0
 77
     2
 78
   300
147
1.0
148
0.0
149
0.0
100
AcDbLayout
  1
Model
 70
     1
 71
     0
 10
0.0
 20
0.0
 11
12.0
 21
9.0
 12
0.0
 22
0.0
 32
0.0
 14
1.000000000000000E+20
 24
1.000000000000000E+20
 34
1.000000000000000E+20
 15
-1.000000000000000E+20
 25
-1.000000000000000E+20
 35
-1.000000000000000E+20
146
0.0
 13
0.0
 23
0.0
 33
0.0
 16
1.0
 26
0.0
 36
0.0
 17
0.0
 27
1.0
 37
0.0
 76
     0
330
1F
331
29
  0
MATERIAL
  5
3D
102
{ACAD_REACTORS
330
3B
102
}
330
3B
100
AcDbMaterial
  1
ByBlock
 72
     1
 94
      127
  0
MATERIAL
  5
3C
102
{ACAD_REACTORS
330
3B
102
}
330
3B
100
AcDbMaterial
  1
ByLayer
 72
     1
 94
      127
  0
MATERIAL
  5
3E
102
{ACAD_REACTORS
330
3B
102
}
330
3B
100
AcDbMaterial
  1
Global
 72
     1
 94
      127
  0
MLINESTYLE
  5
18
102
{ACAD_REACTORS
330
17
102
}
330
17
100
AcDbMlineStyle
  2
Standard
 70
     0
  3

 62
   256
 51
90.0
 52
90.0
 71
     2
 49
0.5
 62
   256
  6
BYLAYER
 49
-0.5
 62
   256
  6
BYLAYER
  0
ACDBPLACEHOLDER
  5
F
102
{ACAD_REACTORS
330
E
102
}
330
E
  0
VISUALSTYLE
  5
2F
102
{ACAD_REACTORS
330
2A
102
}
330
2A
100
AcDbVisualStyle
  2
2dWireframe
 70
     4
177
     2
291
     0
 71
     0
176
     1
 72
     2
176
     1
 73
     0
176
     1
 90
        0
176
     1
 40
-0.6
176
     1
 41
-30.0
176
     1
 62
     5
 63
     7
421
 16777215
176
     1
 74
     1
176
     1
 91
        4
176
     1
 64
     7
176
     1
 65
   257
176
     1
 75
     1
176
     1
175
     1
176
     1
 42
1.0
176
     1
 92
        0
176
     1
 66
   257
176
     1
 43
1.0
176
     1
 76
     1
176
     1
 77
     6
176
     1
 78
     2
176
     1
 67
     7
176
     1
 79
     5
176
     1
170
     0
176
     1
171
     0
176
     1
290
     0
176
     1
 93
        1
176
     1
 44
0.0
176
     1
173
     0
176
     1
  0
VISUALSTYLE
  5
31
102
{ACAD_REACTORS
330
2A
102
}
330
2A
100
AcDbVisualStyle
  2
3D Hidden
 70
     6
177
     2
291
     0
 71
     1
176
     1
 72
     2
176
     1
 73
     2
176
     1
 90
        0
176
     1
 40
-0.6
176
     1
 41
-30.0
176
     1
 62
     5
 63
     7
421
 16777215
176
     1
 74
     2
176
     1
 91
        2
176
     1
 64
     7
176
     1
 65
   257
176
     1
 75
     2
176
     1
175
     1
176
     1
 42
40.0
176
     1
 92
        0
176
     1
 66
   257
176
     1
 43
1.0
176
     1
 76
     1
176
     1
 77
     6
176
     1
 78
     2
176
     1
 67
     7
176
     1
 79
     3
176
     1
170
     0
176
     1
171
     0
176
     1
290
     0
176
     1
 93
        1
176
     1
 44
0.0
176
     1
173
     0
176
     1
  0
VISUALSTYLE
  5
30
102
{ACAD_REACTORS
330
2A
102
}
330
2A
100
AcDbVisualStyle
  2
3dWireframe
 70
     5
177
     2
291
     0
 71
     0
176
     1
 72
     2
176
     1
 73
     0
176
     1
 90
        0
176
     1
 40
-0.6
176
     1
 41
-30.0
176
     1
 62
     5
 63
     7
421
 16777215
176
     1
 74
     1
176
     1
 91
        4
176
     1
 64
     7
176
     1
 65
   257
176
     1
 75
     1
176
     1
175
     1
176
     1
 42
1.0
176
     1
 92
        0
176
     1
 66
   257
176
     1
 43
1.0
176
     1
 76
     1
176
     1
 77
     6
176
     1
 78
     2
176
     1
 67
     7
176
     1
 79
     5
176
     1
170
     0
176
     1
171
     0
176
     1
290
     0
176
     1
 93
        1
176
     1
 44
0.0
176
     1
173
     0
176
     1
  0
VISUALSTYLE
  5
32
102
{ACAD_REACTORS
330
2A
102
}
330
2A
100
AcDbVisualStyle
  2
Basic
 70
     7
177
     2
291
     1
 71
     1
176
     1
 72
     0
176
     1
 73
     1
176
     1
 90
        0
176
     1
 40
-0.6
176
     1
 41
-30.0
176
     1
 62
     5
 63
     7
421
 16777215
176
     1
 74
     0
176
     1
 91
        4
176
     1
 64
     7
176
     1
 65
   257
176
     1
 75
     1
176
     1
175
     1
176
     1
 42
1.0
176
     1
 92
        8
176
     1
 66
     7
176
     1
 43
1.0
176
     1
 76
     1
176
     1
 77
     6
176
     1
 78
     2
176
     1
 67
     7
176
     1
 79
     5
176
     1
170
     0
176
     1
171
     0
176
     1
290
     0
176
     1
 93
        1
176
     1
 44
0.0
176
     1
173
     0
176
     1
  0
VISUALSTYLE
  5
36
102
{ACAD_REACTORS
330
2A
102
}
330
2A
100
AcDbVisualStyle
  2
Brighten
 70
    12
177
     2
291
     1
 71
     2
176
     1
 72
     2
176
     1
 73
     0
176
     1
 90
        0
176
     1
 40
-0.6
176
     1
 41
-30.0
176
     1
 62
     5
 63
     7
421
 16777215
176
     1
 74
     1
176
     1
 91
        4
176
     1
 64
     7
176
     1
 65
   257
176
     1
 75
     1
176
     1
175
     1
176
     1
 42
1.0
176
     1
 92
        8
176
     1
 66
     7
176
     1
 43
1.0
176
     1
 76
     1
176
     1
 77
     6
176
     1
 78
     2
176
     1
 67
     7
176
     1
 79
     5
176
     1
170
     0
176
     1
171
     0
176
     1
290
     0
176
     1
 93
        1
176
     1
 44
50.0
176
     1
173
     0
176
     1
  0
VISUALSTYLE
  5
3A
102
{ACAD_REACTORS
330
2A
102
}
330
2A
100
AcDbVisualStyle
  2
ColorChange
 70
    16
177
     2
291
     1
 71
     2
176
     1
 72
     2
176
     1
 73
     3
176
     1
 90
        0
176
     1
 40
-0.6
176
     1
 41
-30.0
176
     1
 62
     5
 63
     8
421
  8421504
176
     1
 74
     1
176
     1
 91
        4
176
     1
 64
     7
176
     1
 65
   257
176
     1
 75
     1
176
     1
175
     1
176
     1
 42
1.0
176
     1
 92
        8
176
     1
 66
     8
424
  8421504
176
     1
 43
1.0
176
     1
 76
     1
176
     1
 77
     6
176
     1
 78
     2
176
     1
 67
     7
176
     1
 79
     5
176
     1
170
     0
176
     1
171
     0
176
     1
290
     0
176
     1
 93
        1
176
     1
 44
0.0
176
     1
173
     0
176
     1
  0
VISUALSTYLE
  5
34
102
{ACAD_REACTORS
330
2A
102
}
330
2A
100
AcDbVisualStyle
  2
Conceptual
 70
     9
177
     2
291
     0
 71
     3
176
     1
 72
     2
176
     1
 73
     0
176
     1
 90
        0
176
     1
 40
-0.6
176
     1
 41
-30.0
176
     1
 62
     5
 63
     7
421
 16777215
176
     1
 74
     2
176
     1
 91
        2
176
     1
 64
     7
176
     1
 65
   257
176
     1
 75
     1
176
     1
175
     1
176
     1
 42
40.0
176
     1
 92
        8
176
     1
 66
     7
176
     1
 43
1.0
176
     1
 76
     1
176
     1
 77
     6
176
     1
 78
     2
176
     1
 67
     7
176
     1
 79
     3
176
     1
170
     0
176
     1
171
     0
176
     1
290
     0
176
     1
 93
        1
176
     1
 44
0.0
176
     1
173
     0
176
     1
  0
VISUALSTYLE
  5
35
102
{ACAD_REACTORS
330
2A
102
}
330
2A
100
AcDbVisualStyle
  2
Dim
 70
    11
177
     2
291
     1
 71
     2
176
     1
 72
     2
176
     1
 73
     0
176
     1
 90
        0
176
     1
 40
-0.6
176
     1
 41
-30.0
176
     1
 62
     5
 63
     7
421
 16777215
176
     1
 74
     1
176
     1
 91
        4
176
     1
 64
     7
176
     1
 65
   257
176
     1
 75
     1
176
     1
175
     1
176
     1
 42
1.0
176
     1
 92
        8
176
     1
 66
     7
176
     1
 43
1.0
176
     1
 76
     1
176
     1
 77
     6
176
     1
 78
     2
176
     1
 67
     7
176
     1
 79
     5
176
     1
170
     0
176
     1
171
     0
176
     1
290
     0
176
     1
 93
        1
176
     1
 44
-50.0
176
     1
173
     0
176
     1
  0
VISUALSTYLE
  5
39
102
{ACAD_REACTORS
330
2A
102
}
330
2A
100
AcDbVisualStyle
  2
Facepattern
 70
    15
177
     2
291
     1
 71
     2
176
     1
 72
     2
176
     1
 73
     0
176
     1
 90
        0
176
     1
 40
-0.6
176
     1
 41
-30.0
176
     1
 62
     5
 63
     7
421
 16777215
176
     1
 74
     1
176
     1
 91
        4
176
     1
 64
     7
176
     1
 65
   257
176
     1
 75
     1
176
     1
175
     1
176
     1
 42
1.0
176
     1
 92
        8
176
     1
 66
     7
176
     1
 43
1.0
176
     1
 76
     1
176
     1
 77
     6
176
     1
 78
     2
176
     1
 67
     7
176
     1
 79
     5
176
     1
170
     0
176
     1
171
     0
176
     1
290
     0
176
     1
 93
        1
176
     1
 44
0.0
176
     1
173
     0
176
     1
  0
VISUALSTYLE
  5
2B
102
{ACAD_REACTORS
330
2A
102
}
330
2A
100
AcDbVisualStyle
  2
Flat
 70
     0
177
     2
291
     1
 71
     2
176
     1
 72
     1
176
     1
 73
     1
176
     1
 90
        2
176
     1
 40
-0.6
176
     1
 41
30.0
176
     1
 62
     5
 63
     7
421
 16777215
176
     1
 74
     0
176
     1
 91
        4
176
     1
 64
     7
176
     1
 65
   257
176
     1
 75
     1
176
     1
175
     1
176
     1
 42
1.0
176
     1
 92
        8
176
     1
 66
     7
176
     1
 43
1.0
176
     1
 76
     1
176
     1
 77
     6
176
     1
 78
     2
176
     1
 67
     7
176
     1
 79
     5
176
     1
170
     0
176
     1
171
     0
176
     1
290
     0
176
     1
 93
       13
176
     1
 44
0.0
176
     1
173
     0
176
     1
  0
VISUALSTYLE
  5
2C
102
{ACAD_REACTORS
330
2A
102
}
330
2A
100
AcDbVisualStyle
  2
FlatWithEdges
 70
     1
177
     2
291
     1
 71
     2
176
     1
 72
     1
176
     1
 73
     1
176
     1
 90
        2
176
     1
 40
-0.6
176
     1
 41
30.0
176
     1
 62
     5
 63
     7
421
 16777215
176
     1
 74
     1
176
     1
 91
        4
176
     1
 64
     7
176
     1
 65
   257
176
     1
 75
     1
176
     1
175
     1
176
     1
 42
1.0
176
     1
 92
        0
176
     1
 66
   257
176
     1
 43
1.0
176
     1
 76
     1
176
     1
 77
     6
176
     1
 78
     2
176
     1
 67
     7
176
     1
 79
     5
176
     1
170
     0
176
     1
171
     0
176
     1
290
     0
176
     1
 93
       13
176
     1
 44
0.0
176
     1
173
     0
176
     1
  0
VISUALSTYLE
  5
2D
102
{ACAD_REACTORS
330
2A
102
}
330
2A
100
AcDbVisualStyle
  2
Gouraud
 70
     2
177
     2
291
     1
 71
     2
176
     1
 72
     2
176
     1
 73
     1
176
     1
 90
        2
176
     1
 40
-0.6
176
     1
 41
30.0
176
     1
 62
     5
 63
     7
421
 16777215
176
     1
 74
     0
176
     1
 91
        4
176
     1
 64
     7
176
     1
 65
   257
176
     1
 75
     1
176
     1
175
     1
176
     1
 42
1.0
176
     1
 92
        0
176
     1
 66
     7
176
     1
 43
1.0
176
     1
 76
     1
176
     1
 77
     6
176
     1
 78
     2
176
     1
 67
     7
176
     1
 79
     5
176
     1
170
     0
176
     1
171
     0
176
     1
290
     0
176
     1
 93
       13
176
     1
 44
0.0
176
     1
173
     0
176
     1
  0
VISUALSTYLE
  5
2E
102
{ACAD_REACTORS
330
2A
102
}
330
2A
100
AcDbVisualStyle
  2
GouraudWithEdges
 70
     3
177
     2
291
     1
 71
     2
176
     1
 72
     2
176
     1
 73
     1
176
     1
 90
        2
176
     1
 40
-0.6
176
     1
 41
30.0
176
     1
 62
     5
 63
     7
421
 16777215
176
     1
 74
     1
176
     1
 91
        4
176
     1
 64
     7
176
     1
 65
   257
176
     1
 75
     1
176
     1
175
     1
176
     1
 42
1.0
176
     1
 92
        0
176
     1
 66
   257
176
     1
 43
1.0
176
     1
 76
     1
176
     1
 77
     6
176
     1
 78
     2
176
     1
 67
     7
176
     1
 79
     5
176
     1
170
     0
176
     1
171
     0
176
     1
290
     0
176
     1
 93
       13
176
     1
 44
0.0
176
     1
173
     0
176
     1
  0
VISUALSTYLE
  5
38
102
{ACAD_REACTORS
330
2A
102
}
330
2A
100
AcDbVisualStyle
  2
Linepattern
 70
    14
177
     2
291
     1
 71
     2
176
     1
 72
     2
176
     1
 73
     0
176
     1
 90
        0
176
     1
 40
-0.6
176
     1
 41
-30.0
176
     1
 62
     5
 63
     7
421
 16777215
176
     1
 74
     1
176
     1
 91
        4
176
     1
 64
     7
176
     1
 65
   257
176
     1
 75
     7
176
     1
175
     7
176
     1
 42
1.0
176
     1
 92
        8
176
     1
 66
     7
176
     1
 43
1.0
176
     1
 76
     1
176
     1
 77
     6
176
     1
 78
     2
176
     1
 67
     7
176
     1
 79
     5
176
     1
170
     0
176
     1
171
     0
176
     1
290
     0
176
     1
 93
        1
176
     1
 44
0.0
176
     1
173
     0
176
     1
  0
VISUALSTYLE
  5
33
102
{ACAD_REACTORS
330
2A
102
}
330
2A
100
AcDbVisualStyle
  2
Realistic
 70
     8
177
     2
291
     0
 71
     2
176
     1
 72
     2
176
     1
 73
     0
176
     1
 90
        0
176
     1
 40
-0.6
176
     1
 41
-30.0
176
     1
 62
     5
 63
     7
421
 16777215
176
     1
 74
     1
176
     1
 91
        0
176
     1
 64
     7
176
     1
 65
   257
176
     1
 75
     1
176
     1
175
     1
176
     1
 42
1.0
176
     1
 92
        8
176
     1
 66
     8
424
  7895160
176
     1
 43
1.0
176
     1
 76
     1
176
     1
 77
     6
176
     1
 78
     2
176
     1
 67
     7
176
     1
 79
     5
176
     1
170
     0
176
     1
171
     0
176
     1
290
     0
176
     1
 93
       13
176
     1
 44
0.0
176
     1
173
     0
176
     1
  0
VISUALSTYLE
  5
37
102
{ACAD_REACTORS
330
2A
102
}
330
2A
100
AcDbVisualStyle
  2
Thicken
 70
    13
177
     2
291
     1
 71
     2
176
     1
 72
     2
176
     1
 73
     0
176
     1
 90
        0
176
     1
 40
-0.6
176
     1
 41
-30.0
176
     1
 62
     5
 63
     7
421
 16777215
176
     1
 74
     1
176
     1
 91
        4
176
     1
 64
     7
176
     1
 65
   257
176
     1
 75
     1
176
     1
175
     1
176
     1
 42
1.0
176
     1
 92
       12
176
     1
 66
     7
176
     1
 43
1.0
176
     1
 76
     1
176
     1
 77
     6
176
     1
 78
     2
176
     1
 67
     7
176
     1
 79
     5
176
     1
170
     0
176
     1
171
     0
176
     1
290
     0
176
     1
 93
        1
176
     1
 44
0.0
176
     1
173
     0
176
     1
  0
ENDSEC
  0
EOF
