  0
SECTION
  2
HEADER
  9
$ACADVER
  1
AC1024
  9
$ACADMAINTVER
 70
     6
  9
$DWGCODEPAGE
  3
ANSI_1252
  9
$INSBASE
 10
0.0
 20
0.0
 30
0.0
  9
$EXTMIN
 10
1.000000000000000E+20
 20
1.000000000000000E+20
 30
1.000000000000000E+20
  9
$EXTMAX
 10
-1.000000000000000E+20
 20
-1.000000000000000E+20
 30
-1.000000000000000E+20
  9
$LIMMIN
 10
0.0
 20
0.0
  9
$LIMMAX
 10
12.0
 20
9.0
  9
$ORTHOMODE
 70
     0
  9
$REGENMODE
 70
     1
  9
$FILLMODE
 70
     1
  9
$QTEXTMODE
 70
     0
  9
$MIRRTEXT
 70
     1
  9
$LTSCALE
 40
1.0
  9
$ATTMODE
 70
     1
  9
$TEXTSIZE
 40
0.2
  9
$TRACEWID
 40
0.05
  9
$TEXTSTYLE
  7
Standard
  9
$CLAYER
  8
0
  9
$CELTYPE
  6
ByLayer
  9
$CECOLOR
 62
   256
  9
$CELTSCALE
 40
1.0
  9
$DISPSILH
 70
     0
  9
$DIMSCALE
 40
1.0
  9
$DIMASZ
 40
0.18
  9
$DIMEXO
 40
0.0625
  9
$DIMDLI
 40
0.38
  9
$DIMRND
 40
0.0
  9
$DIMDLE
 40
0.0
  9
$DIMEXE
 40
0.18
  9
$DIMTP
 40
0.0
  9
$DIMTM
 40
0.0
  9
$DIMTXT
 40
0.18
  9
$DIMCEN
 40
0.09
  9
$DIMTSZ
 40
0.0
  9
$DIMTOL
 70
     0
  9
$DIMLIM
 70
     0
  9
$DIMTIH
 70
     1
  9
$DIMTOH
 70
     1
  9
$DIMSE1
 70
     0
  9
$DIMSE2
 70
     0
  9
$DIMTAD
 70
     0
  9
$DIMZIN
 70
     0
  9
$DIMBLK
  1

  9
$DIMASO
 70
     1
  9
$DIMSHO
 70
     1
  9
$DIMPOST
  1

  9
$DIMAPOST
  1

  9
$DIMALT
 70
     0
  9
$DIMALTD
 70
     2
  9
$DIMALTF
 40
25.4
  9
$DIMLFAC
 40
1.0
  9
$DIMTOFL
 70
     0
  9
$DIMTVP
 40
0.0
  9
$DIMTIX
 70
     0
  9
$DIMSOXD
 70
     0
  9
$DIMSAH
 70
     0
  9
$DIMBLK1
  1

  9
$DIMBLK2
  1

  9
$DIMSTYLE
  2
Standard
  9
$DIMCLRD
 70
     0
  9
$DIMCLRE
 70
     0
  9
$DIMCLRT
 70
     0
  9
$DIMTFAC
 40
1.0
  9
$DIMGAP
 40
0.09
  9
$DIMJUST
 70
     0
  9
$DIMSD1
 70
     0
  9
$DIMSD2
 70
     0
  9
$DIMTOLJ
 70
     1
  9
$DIMTZIN
 70
     0
  9
$DIMALTZ
 70
     0
  9
$DIMALTTZ
 70
     0
  9
$DIMUPT
 70
     0
  9
$DIMDEC
 70
     4
  9
$DIMTDEC
 70
     4
  9
$DIMALTU
 70
     2
  9
$DIMALTTD
 70
     2
  9
$DIMTXSTY
  7
Standard
  9
$DIMAUNIT
 70
     0
  9
$DIMADEC
 70
     0
  9
$DIMALTRND
 40
0.0
  9
$DIMAZIN
 70
     0
  9
$DIMDSEP
 70
    46
  9
$DIMATFIT
 70
     3
  9
$DIMFRAC
 70
     0
  9
$DIMLDRBLK
  1

  9
$DIMLUNIT
 70
     2
  9
$DIMLWD
 70
    -2
  9
$DIMLWE
 70
    -2
  9
$DIMTMOVE
 70
     0
  9
$DIMFXL
 40
1.0
  9
$DIMFXLON
 70
     0
  9
$DIMJOGANG
 40
0.7853981633974483
  9
$DIMTFILL
 70
     0
  9
$DIMTFILLCLR
 70
     0
  9
$DIMARCSYM
 70
     0
  9
$DIMLTYPE
  6

  9
$DIMLTEX1
  6

  9
$DIMLTEX2
  6

  9
$DIMTXTDIRECTION
 70
     0
  9
$LUNITS
 70
     2
  9
$LUPREC
 70
     4
  9
$SKETCHINC
 40
0.1
  9
$FILLETRAD
 40
0.5
  9
$AUNITS
 70
     0
  9
$AUPREC
 70
     0
  9
$MENU
  1
.
  9
$ELEVATION
 40
0.0
  9
$PELEVATION
 40
0.0
  9
$THICKNESS
 40
0.0
  9
$LIMCHECK
 70
     0
  9
$CHAMFERA
 40
0.5
  9
$CHAMFERB
 40
0.5
  9
$CHAMFERC
 40
1.0
  9
$CHAMFERD
 40
0.0
  9
$SKPOLY
 70
     0
  9
$TDCREATE
 40
2459960.593763195
  9
$TDUCREATE
 40
2459960.552096528
  9
$TDUPDATE
 40
2459960.593763391
  9
$TDUUPDATE
 40
2459960.552096725
  9
$TDINDWG
 40
0.0000000116
  9
$TDUSRTIMER
 40
0.0000000116
  9
$USRTIMER
 70
     1
  9
$ANGBASE
 50
0.0
  9
$ANGDIR
 70
     0
  9
$PDMODE
 70
     0
  9
$PDSIZE
 40
0.0
  9
$PLINEWID
 40
0.0
  9
$SPLFRAME
 70
     0
  9
$SPLINETYPE
 70
     6
  9
$SPLINESEGS
 70
     8
  9
$HANDSEED
  5
DB
  9
$SURFTAB1
 70
     6
  9
$SURFTAB2
 70
     6
  9
$SURFTYPE
 70
     6
  9
$SURFU
 70
     6
  9
$SURFV
 70
     6
  9
$UCSBASE
  2

  9
$UCSNAME
  2

  9
$UCSORG
 10
0.0
 20
0.0
 30
0.0
  9
$UCSXDIR
 10
1.0
 20
0.0
 30
0.0
  9
$UCSYDIR
 10
0.0
 20
1.0
 30
0.0
  9
$UCSORTHOREF
  2

  9
$UCSORTHOVIEW
 70
     0
  9
$UCSORGTOP
 10
0.0
 20
0.0
 30
0.0
  9
$UCSORGBOTTOM
 10
0.0
 20
0.0
 30
0.0
  9
$UCSORGLEFT
 10
0.0
 20
0.0
 30
0.0
  9
$UCSORGRIGHT
 10
0.0
 20
0.0
 30
0.0
  9
$UCSORGFRONT
 10
0.0
 20
0.0
 30
0.0
  9
$UCSORGBACK
 10
0.0
 20
0.0
 30
0.0
  9
$PUCSBASE
  2

  9
$PUCSNAME
  2

  9
$PUCSORG
 10
0.0
 20
0.0
 30
0.0
  9
$PUCSXDIR
 10
1.0
 20
0.0
 30
0.0
  9
$PUCSYDIR
 10
0.0
 20
1.0
 30
0.0
  9
$PUCSORTHOREF
  2

  9
$PUCSORTHOVIEW
 70
     0
  9
$PUCSORGTOP
 10
0.0
 20
0.0
 30
0.0
  9
$PUCSORGBOTTOM
 10
0.0
 20
0.0
 30
0.0
  9
$PUCSORGLEFT
 10
0.0
 20
0.0
 30
0.0
  9
$PUCSORGRIGHT
 10
0.0
 20
0.0
 30
0.0
  9
$PUCSORGFRONT
 10
0.0
 20
0.0
 30
0.0
  9
$PUCSORGBACK
 10
0.0
 20
0.0
 30
0.0
  9
$USERI1
 70
     0
  9
$USERI2
 70
     0
  9
$USERI3
 70
     0
  9
$USERI4
 70
     0
  9
$USERI5
 70
     0
  9
$USERR1
 40
0.0
  9
$USERR2
 40
0.0
  9
$USERR3
 40
0.0
  9
$USERR4
 40
0.0
  9
$USERR5
 40
0.0
  9
$WORLDVIEW
 70
     1
  9
$SHADEDGE
 70
     3
  9
$SHADEDIF
 70
    70
  9
$TILEMODE
 70
     1
  9
$MAXACTVP
 70
    64
  9
$PINSBASE
 10
0.0
 20
0.0
 30
0.0
  9
$PLIMCHECK
 70
     0
  9
$PEXTMIN
 10
1.000000000000000E+20
 20
1.000000000000000E+20
 30
1.000000000000000E+20
  9
$PEXTMAX
 10
-1.000000000000000E+20
 20
-1.000000000000000E+20
 30
-1.000000000000000E+20
  9
$PLIMMIN
 10
0.0
 20
0.0
  9
$PLIMMAX
 10
12.0
 20
9.0
  9
$UNITMODE
 70
     0
  9
$VISRETAIN
 70
     1
  9
$PLINEGEN
 70
     0
  9
$PSLTSCALE
 70
     1
  9
$TREEDEPTH
 70
  3020
  9
$CMLSTYLE
  2
Standard
  9
$CMLJUST
 70
     0
  9
$CMLSCALE
 40
1.0
  9
$PROXYGRAPHICS
 70
     1
  9
$MEASUREMENT
 70
     0
  9
$CELWEIGHT
370
    -1
  9
$ENDCAPS
280
     0
  9
$JOINSTYLE
280
     0
  9
$LWDISPLAY
290
     1
  9
$INSUNITS
 70
     1
  9
$HYPERLINKBASE
  1

  9
$STYLESHEET
  1

  9
$XEDIT
290
     1
  9
$CEPSNTYPE
380
     0
  9
$PSTYLEMODE
290
     1
  9
$FINGERPRINTGUID
  2
{17A900B8-D92F-49B8-96A3-DEEC206DE44A}
  9
$VERSIONGUID
  2
{FAEB1C32-E019-11D5-929B-00C0DF256EC4}
  9
$EXTNAMES
290
     1
  9
$PSVPSCALE
 40
0.0
  9
$OLESTARTUP
290
     0
  9
$SORTENTS
280
   127
  9
$INDEXCTL
280
     0
  9
$HIDETEXT
280
     1
  9
$XCLIPFRAME
280
     2
  9
$HALOGAP
280
     0
  9
$OBSCOLOR
 70
   257
  9
$OBSLTYPE
280
     0
  9
$INTERSECTIONDISPLAY
280
     0
  9
$INTERSECTIONCOLOR
 70
   257
  9
$DIMASSOC
280
     2
  9
$PROJECTNAME
  1

  9
$CAMERADISPLAY
290
     0
  9
$LENSLENGTH
 40
50.0
  9
$CAMERAHEIGHT
 40
0.0
  9
$STEPSPERSEC
 40
2.0
  9
$STEPSIZE
 40
6.0
  9
$3DDWFPREC
 40
2.0
  9
$PSOLWIDTH
 40
0.25
  9
$PSOLHEIGHT
 40
4.0
  9
$LOFTANG1
 40
1.570796326794897
  9
$LOFTANG2
 40
1.570796326794897
  9
$LOFTMAG1
 40
0.0
  9
$LOFTMAG2
 40
0.0
  9
$LOFTPARAM
 70
     7
  9
$LOFTNORMALS
280
     1
  9
$LATITUDE
 40
37.795
  9
$LONGITUDE
 40
-122.394
  9
$NORTHDIRECTION
 40
0.0
  9
$TIMEZONE
 70
 -8000
  9
$LIGHTGLYPHDISPLAY
280
     1
  9
$TILEMODELIGHTSYNCH
280
     1
  9
$CMATERIAL
347
3C
  9
$SOLIDHIST
280
     1
  9
$SHOWHIST
280
     1
  9
$DWFFRAME
280
     2
  9
$DGNFRAME
280
     2
  9
$REALWORLDSCALE
290
     1
  9
$INTERFERECOLOR
 62
   256
  9
$CSHADOW
280
     0
  9
$SHADOWPLANELOCATION
 40
0.0
  0
ENDSEC
  0
SECTION
  2
CLASSES
  0
CLASS
  1
ACDBDICTIONARYWDFLT
  2
AcDbDictionaryWithDefault
  3
ObjectDBX Classes
 90
        0
 91
        4
280
     0
281
     0
  0
CLASS
  1
VISUALSTYLE
  2
AcDbVisualStyle
  3
ObjectDBX Classes
 90
     4095
 91
        4
280
     0
281
     0
  0
CLASS
  1
MATERIAL
  2
AcDbMaterial
  3
ObjectDBX Classes
 90
     1153
 91
        4
280
     0
281
     0
  0
CLASS
  1
SUN
  2
AcDbSun
  3
SCENEOE
 90
     1024
 91
        4
280
     0
281
     0
  0
ENDSEC
  0
SECTION
  2
TABLES
  0
TABLE
  2
VPORT
  5
8
330
0
100
AcDbSymbolTable
 70
     1
  0
VPORT
  5
29
330
8
100
AcDbSymbolTableRecord
100
AcDbViewportTableRecord
  2
*Active
 70
     0
 10
0.0
 20
0.0
 11
1.0
 21
1.0
 12
0.0
 22
0.0
 13
0.0
 23
0.0
 14
0.5
 24
0.5
 15
0.5
 25
0.5
 16
0.0
 26
0.0
 36
1.0
 17
3.375201388045127
 27
-3.375201388045127
 37
0.0
 40
6.750402776090255
 41
1.0
 42
50.0
 43
0.0
 44
0.0
 50
0.0
 51
0.0
 71
     0
 72
   100
 73
     1
 74
     3
 75
     0
 76
     0
 77
     0
 78
     0
281
     0
 65
     1
110
0.0
120
0.0
130
0.0
111
1.0
121
0.0
131
0.0
112
0.0
122
1.0
132
0.0
 79
     0
146
0.0
 60
     3
 61
     5
292
     1
282
     1
141
0.0
142
0.0
 63
   250
361
3F
  0
ENDTAB
  0
TABLE
  2
LTYPE
  5
5
330
0
100
AcDbSymbolTable
 70
     1
  0
LTYPE
  5
14
330
5
100
AcDbSymbolTableRecord
100
AcDbLinetypeTableRecord
  2
ByBlock
 70
     0
  3

 72
    65
 73
     0
 40
0.0
  0
LTYPE
  5
15
330
5
100
AcDbSymbolTableRecord
100
AcDbLinetypeTableRecord
  2
ByLayer
 70
     0
  3

 72
    65
 73
     0
 40
0.0
  0
LTYPE
  5
16
330
5
100
AcDbSymbolTableRecord
100
AcDbLinetypeTableRecord
  2
Continuous
 70
     0
  3
Solid line
 72
    65
 73
     0
 40
0.0
  0
ENDTAB
  0
TABLE
  2
LAYER
  5
2
330
0
100
AcDbSymbolTable
 70
     2
  0
LAYER
  5
10
330
2
100
AcDbSymbolTableRecord
100
AcDbLayerTableRecord
  2
0
 70
     0
 62
     7
  6
Continuous
370
    -3
390
F
347
3E
  0
LAYER
  5
40
330
2
100
AcDbSymbolTableRecord
100
AcDbLayerTableRecord
  2
Layer 1
 70
     0
 62
     7
  6
Continuous
370
    -3
390
F
347
3E
  0
ENDTAB
  0
TABLE
  2
STYLE
  5
3
330
0
100
AcDbSymbolTable
 70
     1
  0
STYLE
  5
11
330
3
100
AcDbSymbolTableRecord
100
AcDbTextStyleTableRecord
  2
Standard
 70
     0
 40
0.0
 41
1.0
 50
0.0
 71
     0
 42
0.2
  3
txt
  4

  0
ENDTAB
  0
TABLE
  2
VIEW
  5
6
330
0
100
AcDbSymbolTable
 70
     0
  0
ENDTAB
  0
TABLE
  2
UCS
  5
7
330
0
100
AcDbSymbolTable
 70
     0
  0
ENDTAB
  0
TABLE
  2
APPID
  5
9
330
0
100
AcDbSymbolTable
 70
     1
  0
APPID
  5
12
330
9
100
AcDbSymbolTableRecord
100
AcDbRegAppTableRecord
  2
ACAD
 70
     0
  0
ENDTAB
  0
TABLE
  2
DIMSTYLE
  5
A
330
0
100
AcDbSymbolTable
 70
     1
100
AcDbDimStyleTable
  0
DIMSTYLE
105
27
330
A
100
AcDbSymbolTableRecord
100
AcDbDimStyleTableRecord
  2
Standard
 70
     0
178
     0
340
11
  0
ENDTAB
  0
TABLE
  2
BLOCK_RECORD
  5
1
330
0
100
AcDbSymbolTable
 70
     4
  0
BLOCK_RECORD
  5
1F
330
1
100
AcDbSymbolTableRecord
100
AcDbBlockTableRecord
  2
*Model_Space
340
22
 70
     0
280
     1
281
     0
  0
BLOCK_RECORD
  5
1B
330
1
100
AcDbSymbolTableRecord
100
AcDbBlockTableRecord
  2
*Paper_Space
340
1E
 70
     0
280
     1
281
     0
  0
BLOCK_RECORD
  5
23
330
1
100
AcDbSymbolTableRecord
100
AcDbBlockTableRecord
  2
*Paper_Space0
340
26
 70
     0
280
     1
281
     0
  0
BLOCK_RECORD
  5
41
330
1
100
AcDbSymbolTableRecord
100
AcDbBlockTableRecord
  2
block 2
340
0
102
{BLKREFS
331
42
102
}
 70
     0
280
     1
281
     0
  0
BLOCK_RECORD
  5
6E
330
1
100
AcDbSymbolTableRecord
100
AcDbBlockTableRecord
  2
block 3
340
0
102
{BLKREFS
331
6F
102
}
 70
     0
280
     1
281
     0
  0
BLOCK_RECORD
  5
B4
330
1
100
AcDbSymbolTableRecord
100
AcDbBlockTableRecord
  2
block 4
340
0
102
{BLKREFS
331
B5
102
}
 70
     0
280
     1
281
     0
  0
ENDTAB
  0
ENDSEC
  0
SECTION
  2
BLOCKS
  0
BLOCK
  5
20
330
1F
100
AcDbEntity
  8
0
100
AcDbBlockBegin
  2
*Model_Space
 70
     0
 10
0.0
 20
0.0
 30
0.0
  3
*Model_Space
  1

  0
ENDBLK
  5
21
330
1F
100
AcDbEntity
  8
0
100
AcDbBlockEnd
  0
BLOCK
  5
1C
330
1B
100
AcDbEntity
 67
     1
  8
0
100
AcDbBlockBegin
  2
*Paper_Space
 70
     0
 10
0.0
 20
0.0
 30
0.0
  3
*Paper_Space
  1

  0
ENDBLK
  5
1D
330
1B
100
AcDbEntity
 67
     1
  8
0
100
AcDbBlockEnd
  0
BLOCK
  5
24
330
23
100
AcDbEntity
  8
0
100
AcDbBlockBegin
  2
*Paper_Space0
 70
     0
 10
0.0
 20
0.0
 30
0.0
  3
*Paper_Space0
  1

  0
ENDBLK
  5
25
330
23
100
AcDbEntity
  8
0
100
AcDbBlockEnd
  0
BLOCK
  5
43
330
41
100
AcDbEntity
  8
0
100
AcDbBlockBegin
  2
block 2
 70
     0
 10
0.0
 20
0.0
 30
0.0
  3
block 2
  1

  0
SPLINE
  5
45
330
41
100
AcDbEntity
  8
Layer 1
 62
   250
420
  2301728
370
     5
100
AcDbSpline
210
0.0
220
0.0
230
1.0
 70
    11
 71
     3
 72
   116
 73
   112
 74
     0
 42
0.0000000001
 43
0.0000000001
 12
1.0
 22
0.0
 32
0.0
 13
1.0
 23
0.0
 33
0.0
 40
0.0
 40
0.0
 40
0.0
 40
0.0
 40
1.0
 40
1.0
 40
1.0
 40
2.0
 40
2.0
 40
2.0
 40
3.0
 40
3.0
 40
3.0
 40
4.0
 40
4.0
 40
4.0
 40
5.0
 40
5.0
 40
5.0
 40
6.0
 40
6.0
 40
6.0
 40
7.0
 40
7.0
 40
7.0
 40
8.0
 40
8.0
 40
8.0
 40
9.0
 40
9.0
 40
9.0
 40
10.0
 40
10.0
 40
10.0
 40
11.0
 40
11.0
 40
11.0
 40
12.0
 40
12.0
 40
12.0
 40
13.0
 40
13.0
 40
13.0
 40
14.0
 40
14.0
 40
14.0
 40
15.0
 40
15.0
 40
15.0
 40
16.0
 40
16.0
 40
16.0
 40
17.0
 40
17.0
 40
17.0
 40
18.0
 40
18.0
 40
18.0
 40
19.0
 40
19.0
 40
19.0
 40
20.0
 40
20.0
 40
20.0
 40
21.0
 40
21.0
 40
21.0
 40
22.0
 40
22.0
 40
22.0
 40
23.0
 40
23.0
 40
23.0
 40
24.0
 40
24.0
 40
24.0
 40
25.0
 40
25.0
 40
25.0
 40
26.0
 40
26.0
 40
26.0
 40
27.0
 40
27.0
 40
27.0
 40
28.0
 40
28.0
 40
28.0
 40
29.0
 40
29.0
 40
29.0
 40
30.0
 40
30.0
 40
30.0
 40
31.0
 40
31.0
 40
31.0
 40
32.0
 40
32.0
 40
32.0
 40
33.0
 40
33.0
 40
33.0
 40
34.0
 40
34.0
 40
34.0
 40
35.0
 40
35.0
 40
35.0
 40
36.0
 40
36.0
 40
36.0
 40
37.0
 40
37.0
 40
37.0
 40
37.0
 10
6.470773162606601
 20
-3.34314313695696
 30
0.0
 10
6.470773162606601
 20
-3.500131831850439
 30
0.0
 10
6.459307454194754
 20
-3.654472109589632
 30
0.0
 10
6.436376037371059
 20
-3.805281164456443
 30
0.0
 10
6.305849982173656
 20
-3.804398358738348
 30
0.0
 10
6.147983864523778
 20
-3.979904441865044
 30
0.0
 10
6.067723905640848
 20
-4.227735998335205
 30
0.0
 10
6.067723905640848
 20
-4.227735998335205
 30
0.0
 10
6.067723905640848
 20
-4.228613421091604
 30
0.0
 10
6.067723905640848
 20
-4.228613421091604
 30
0.0
 10
5.987469329719614
 20
-4.476439594600069
 30
0.0
 10
6.011283552261403
 20
-4.711922636940287
 30
0.0
 10
6.117995384917017
 20
-4.786885761514645
 30
0.0
 10
5.972477781397082
 20
-5.065583220347965
 30
0.0
 10
5.786383412614938
 20
-5.320461073677801
 30
0.0
 10
5.566780107277043
 20
-5.541829990451886
 30
0.0
 10
5.468885565878991
 20
-5.454518351747585
 30
0.0
 10
5.236933746411154
 20
-5.498615573958783
 30
0.0
 10
5.02173908670204
 20
-5.651190240261785
 30
0.0
 10
5.018213246791355
 20
-5.652955851697976
 30
0.0
 10
5.013804601162574
 20
-5.655598885890566
 30
0.0
 10
5.010273378290194
 20
-5.658247303044852
 30
0.0
 10
4.795078718581079
 20
-5.814353192220235
 30
0.0
 10
4.676018371795523
 20
-6.024256400582472
 30
0.0
 10
4.726289851071693
 20
-6.146842587278714
 30
0.0
 10
4.457292489214029
 20
-6.280017059630403
 30
0.0
 10
4.166251899212462
 20
-6.37615137255396
 30
0.0
 10
3.860219760888362
 20
-6.42642285183013
 30
0.0
 10
3.823179601460231
 20
-6.300305442261507
 30
0.0
 10
3.606219330314926
 20
-6.205053935056045
 30
0.0
 10
3.34604464267652
 20
-6.205053935056045
 30
0.0
 10
3.34604464267652
 20
-6.205053935056045
 30
0.0
 10
3.345161836958424
 20
-6.205053935056045
 30
0.0
 10
3.345161836958424
 20
-6.205053935056045
 30
0.0
 10
3.084109726563618
 20
-6.205053935056045
 30
0.0
 10
2.868032261136409
 20
-6.301182865017907
 30
0.0
 10
2.830992101708278
 20
-6.42642285183013
 30
0.0
 10
2.519663129075606
 20
-6.375268566835866
 30
0.0
 10
2.223331087727163
 20
-6.277374025437813
 30
0.0
 10
1.949925080240719
 20
-6.139790907457343
 30
0.0
 10
1.993144879695517
 20
-6.01631653208131
 30
0.0
 10
1.87496195566636
 20
-5.811704775065949
 30
0.0
 10
1.663293135867932
 20
-5.658247303044852
 30
0.0
 10
1.452512504749295
 20
-5.504789831023754
 30
0.0
 10
1.221443490999553
 20
-5.45540115746568
 30
0.0
 10
1.116491886818434
 20
-5.53389550491242
 30
0.0
 10
0.9004144213912255
 20
-5.314286816612829
 30
0.0
 10
0.7169684697633674
 20
-5.062051997475584
 30
0.0
 10
0.5732110947179265
 20
-4.786002955796549
 30
0.0
 10
0.6799283103352359
 20
-4.711039831222191
 30
0.0
 10
0.7046199556334249
 20
-4.476439594600069
 30
0.0
 10
0.6243653797121909
 20
-4.227735998335205
 30
0.0
 10
0.544105420829261
 20
-3.979904441865044
 30
0.0
 10
0.386239303179383
 20
-3.804398358738348
 30
0.0
 10
0.2548304422638845
 20
-3.805281164456443
 30
0.0
 10
0.2318990254401903
 20
-3.654472109589632
 30
0.0
 10
0.2204333170283432
 20
-3.500131831850439
 30
0.0
 10
0.2204333170283432
 20
-3.34314313695696
 30
0.0
 10
0.2204333170283432
 20
-3.186154442063482
 30
0.0
 10
0.2318990254401903
 20
-3.032696970042385
 30
0.0
 10
0.2548304422638845
 20
-2.881887915175573
 30
0.0
 10
0.386239303179383
 20
-2.882770720893668
 30
0.0
 10
0.5432279980728615
 20
-2.708142060523371
 30
0.0
 10
0.6243653797121909
 20
-2.460315887014907
 30
0.0
 10
0.6243653797121909
 20
-2.460315887014907
 30
0.0
 10
0.6243653797121909
 20
-2.459433081296812
 30
0.0
 10
0.6243653797121909
 20
-2.459433081296812
 30
0.0
 10
0.7046199556334249
 20
-2.210724102070252
 30
0.0
 10
0.6799283103352359
 20
-1.976129248409825
 30
0.0
 10
0.5732110947179265
 20
-1.901166123835467
 30
0.0
 10
0.7169684697633674
 20
-1.625117082156432
 30
0.0
 10
0.9004144213912255
 20
-1.372876880057492
 30
0.0
 10
1.117369309574834
 20
-1.153273574719597
 30
0.0
 10
1.223203719474048
 20
-1.230885116448241
 30
0.0
 10
1.453389927505694
 20
-1.180613637172072
 30
0.0
 10
1.663293135867932
 20
-1.02803897086907
 30
0.0
 10
1.87496195566636
 20
-0.8745814988479724
 30
0.0
 10
1.993144879695517
 20
-0.6699697418326106
 30
0.0
 10
1.949925080240719
 20
-0.5464953664565781
 30
0.0
 10
2.223331087727163
 20
-0.4097950541942038
 30
0.0
 10
2.519663129075606
 20
-0.3119005127961513
 30
0.0
 10
2.830992101708278
 20
-0.2607462278018869
 30
0.0
 10
2.868915066854504
 20
-0.3859808316524142
 30
0.0
 10
3.084109726563618
 20
-0.4821151445759718
 30
0.0
 10
3.345161836958424
 20
-0.4821151445759718
 30
0.0
 10
3.345161836958424
 20
-0.4821151445759718
 30
0.0
 10
3.34604464267652
 20
-0.4821151445759718
 30
0.0
 10
3.34604464267652
 20
-0.4821151445759718
 30
0.0
 10
3.606219330314926
 20
-0.4821151445759718
 30
0.0
 10
3.822296795742135
 20
-0.3859808316524142
 30
0.0
 10
3.860219760888362
 20
-0.2607462278018869
 30
0.0
 10
4.171543350559338
 20
-0.3119005127961513
 30
0.0
 10
4.466997969151381
 20
-0.4097950541942038
 30
0.0
 10
4.740398593676129
 20
-0.5456179437001786
 30
0.0
 10
4.696301371464932
 20
-0.6690869361145153
 30
0.0
 10
4.815367101212184
 20
-0.8745814988479724
 30
0.0
 10
5.027030538048916
 20
-1.02803897086907
 30
0.0
 10
5.238699357847344
 20
-1.181496442890167
 30
0.0
 10
5.469768371597086
 20
-1.230885116448241
 30
0.0
 10
5.573837170060109
 20
-1.152390769001502
 30
0.0
 10
5.789914635487318
 20
-1.371999457301092
 30
0.0
 10
5.974238009871576
 20
-1.624234276438337
 30
0.0
 10
6.117995384917017
 20
-1.900283318117372
 30
0.0
 10
6.011283552261403
 20
-1.976129248409825
 30
0.0
 10
5.987469329719614
 20
-2.210724102070252
 30
0.0
 10
6.067723905640848
 20
-2.459433081296812
 30
0.0
 10
6.147983864523778
 20
-2.707259254805276
 30
0.0
 10
6.305849982173656
 20
-2.882770720893668
 30
0.0
 10
6.436376037371059
 20
-2.881887915175573
 30
0.0
 10
6.459307454194754
 20
-3.032696970042385
 30
0.0
 10
6.470773162606601
 20
-3.186154442063482
 30
0.0
 10
6.470773162606601
 20
-3.34314313695696
 30
0.0
  0
POLYLINE
  5
46
330
41
100
AcDbEntity
  8
Layer 1
 62
   250
420
  2301728
370
     5
100
AcDb2dPolyline
 66
     1
 10
0.0
 20
0.0
 30
0.0
  0
VERTEX
  5
47
330
46
100
AcDbEntity
  8
Layer 1
 62
   250
420
  2301728
370
     5
100
AcDbVertex
100
AcDb2dVertex
 10
3.34529126540135
 20
-2.093084433978743
 30
0.0
  0
VERTEX
  5
48
330
46
100
AcDbEntity
  8
Layer 1
 62
   250
420
  2301728
370
     5
100
AcDbVertex
100
AcDb2dVertex
 10
3.34529126540135
 20
-0.4821151445759718
 30
0.0
  0
SEQEND
  5
49
330
46
100
AcDbEntity
  8
Layer 1
 62
   250
420
  2301728
370
     5
  0
POLYLINE
  5
4A
330
41
100
AcDbEntity
  8
Layer 1
 62
   250
420
  2301728
370
     5
100
AcDb2dPolyline
 66
     1
 10
0.0
 20
0.0
 30
0.0
  0
VERTEX
  5
4B
330
4A
100
AcDbEntity
  8
Layer 1
 62
   250
420
  2301728
370
     5
100
AcDbVertex
100
AcDb2dVertex
 10
2.615801882029441
 20
-2.33584724719712
 30
0.0
  0
VERTEX
  5
4C
330
4A
100
AcDbEntity
  8
Layer 1
 62
   250
420
  2301728
370
     5
100
AcDbVertex
100
AcDb2dVertex
 10
1.674642998606305
 20
-1.040245515048886
 30
0.0
  0
SEQEND
  5
4D
330
4A
100
AcDbEntity
  8
Layer 1
 62
   250
420
  2301728
370
     5
  0
POLYLINE
  5
4E
330
41
100
AcDbEntity
  8
Layer 1
 62
   250
420
  2301728
370
     5
100
AcDb2dPolyline
 66
     1
 10
0.0
 20
0.0
 30
0.0
  0
VERTEX
  5
4F
330
4E
100
AcDbEntity
  8
Layer 1
 62
   250
420
  2301728
370
     5
100
AcDbVertex
100
AcDb2dVertex
 10
2.157183962499588
 20
-2.957734706741879
 30
0.0
  0
VERTEX
  5
50
330
4E
100
AcDbEntity
  8
Layer 1
 62
   250
420
  2301728
370
     5
100
AcDbVertex
100
AcDb2dVertex
 10
0.6243645184383388
 20
-2.460318040199617
 30
0.0
  0
SEQEND
  5
51
330
4E
100
AcDbEntity
  8
Layer 1
 62
   250
420
  2301728
370
     5
  0
POLYLINE
  5
52
330
41
100
AcDbEntity
  8
Layer 1
 62
   250
420
  2301728
370
     5
100
AcDb2dPolyline
 66
     1
 10
0.0
 20
0.0
 30
0.0
  0
VERTEX
  5
53
330
52
100
AcDbEntity
  8
Layer 1
 62
   250
420
  2301728
370
     5
100
AcDbVertex
100
AcDb2dVertex
 10
2.158972410537668
 20
-3.724860777881574
 30
0.0
  0
VERTEX
  5
54
330
52
100
AcDbEntity
  8
Layer 1
 62
   250
420
  2301728
370
     5
100
AcDbVertex
100
AcDb2dVertex
 10
0.5946101212490121
 20
-4.232891303512014
 30
0.0
  0
SEQEND
  5
55
330
52
100
AcDbEntity
  8
Layer 1
 62
   250
420
  2301728
370
     5
  0
POLYLINE
  5
56
330
41
100
AcDbEntity
  8
Layer 1
 62
   250
420
  2301728
370
     5
100
AcDb2dPolyline
 66
     1
 10
0.0
 20
0.0
 30
0.0
  0
VERTEX
  5
57
330
56
100
AcDbEntity
  8
Layer 1
 62
   250
420
  2301728
370
     5
100
AcDbVertex
100
AcDb2dVertex
 10
2.616336013390163
 20
-4.350246113186496
 30
0.0
  0
VERTEX
  5
58
330
56
100
AcDbEntity
  8
Layer 1
 62
   250
420
  2301728
370
     5
100
AcDbVertex
100
AcDb2dVertex
 10
1.686112804064945
 20
-5.630793768331193
 30
0.0
  0
SEQEND
  5
59
330
56
100
AcDbEntity
  8
Layer 1
 62
   250
420
  2301728
370
     5
  0
POLYLINE
  5
5A
330
41
100
AcDbEntity
  8
Layer 1
 62
   250
420
  2301728
370
     5
100
AcDb2dPolyline
 66
     1
 10
0.0
 20
0.0
 30
0.0
  0
VERTEX
  5
5B
330
5A
100
AcDbEntity
  8
Layer 1
 62
   250
420
  2301728
370
     5
100
AcDbVertex
100
AcDb2dVertex
 10
3.34529126540135
 20
-6.207370098358179
 30
0.0
  0
VERTEX
  5
5C
330
5A
100
AcDbEntity
  8
Layer 1
 62
   250
420
  2301728
370
     5
100
AcDbVertex
100
AcDb2dVertex
 10
3.34529126540135
 20
-4.593396933353697
 30
0.0
  0
SEQEND
  5
5D
330
5A
100
AcDbEntity
  8
Layer 1
 62
   250
420
  2301728
370
     5
  0
POLYLINE
  5
5E
330
41
100
AcDbEntity
  8
Layer 1
 62
   250
420
  2301728
370
     5
100
AcDb2dPolyline
 66
     1
 10
0.0
 20
0.0
 30
0.0
  0
VERTEX
  5
5F
330
5E
100
AcDbEntity
  8
Layer 1
 62
   250
420
  2301728
370
     5
100
AcDbVertex
100
AcDb2dVertex
 10
4.998737167206688
 20
-5.622906190479754
 30
0.0
  0
VERTEX
  5
60
330
5E
100
AcDbEntity
  8
Layer 1
 62
   250
420
  2301728
370
     5
100
AcDbVertex
100
AcDb2dVertex
 10
4.074240552420267
 20
-4.350241780060792
 30
0.0
  0
SEQEND
  5
61
330
5E
100
AcDbEntity
  8
Layer 1
 62
   250
420
  2301728
370
     5
  0
POLYLINE
  5
62
330
41
100
AcDbEntity
  8
Layer 1
 62
   250
420
  2301728
370
     5
100
AcDb2dPolyline
 66
     1
 10
0.0
 20
0.0
 30
0.0
  0
VERTEX
  5
63
330
62
100
AcDbEntity
  8
Layer 1
 62
   250
420
  2301728
370
     5
100
AcDbVertex
100
AcDb2dVertex
 10
6.032657375497619
 20
-4.210751610510893
 30
0.0
  0
VERTEX
  5
64
330
62
100
AcDbEntity
  8
Layer 1
 62
   250
420
  2301728
370
     5
100
AcDbVertex
100
AcDb2dVertex
 10
4.53202317456094
 20
-3.723416939315469
 30
0.0
  0
SEQEND
  5
65
330
62
100
AcDbEntity
  8
Layer 1
 62
   250
420
  2301728
370
     5
  0
POLYLINE
  5
66
330
41
100
AcDbEntity
  8
Layer 1
 62
   250
420
  2301728
370
     5
100
AcDb2dPolyline
 66
     1
 10
0.0
 20
0.0
 30
0.0
  0
VERTEX
  5
67
330
66
100
AcDbEntity
  8
Layer 1
 62
   250
420
  2301728
370
     5
100
AcDbVertex
100
AcDb2dVertex
 10
6.069591073642716
 20
-2.463895615532659
 30
0.0
  0
VERTEX
  5
68
330
66
100
AcDbEntity
  8
Layer 1
 62
   250
420
  2301728
370
     5
100
AcDbVertex
100
AcDb2dVertex
 10
4.53228520821334
 20
-2.963139500543527
 30
0.0
  0
SEQEND
  5
69
330
66
100
AcDbEntity
  8
Layer 1
 62
   250
420
  2301728
370
     5
  0
POLYLINE
  5
6A
330
41
100
AcDbEntity
  8
Layer 1
 62
   250
420
  2301728
370
     5
100
AcDb2dPolyline
 66
     1
 10
0.0
 20
0.0
 30
0.0
  0
VERTEX
  5
6B
330
6A
100
AcDbEntity
  8
Layer 1
 62
   250
420
  2301728
370
     5
100
AcDbVertex
100
AcDb2dVertex
 10
5.02751491509093
 20
-1.024547105653065
 30
0.0
  0
VERTEX
  5
6C
330
6A
100
AcDbEntity
  8
Layer 1
 62
   250
420
  2301728
370
     5
100
AcDbVertex
100
AcDb2dVertex
 10
4.075144076829897
 20
-2.335583243579524
 30
0.0
  0
SEQEND
  5
6D
330
6A
100
AcDbEntity
  8
Layer 1
 62
   250
420
  2301728
370
     5
  0
INSERT
  5
6F
330
41
100
AcDbEntity
  8
Layer 1
100
AcDbBlockReference
  2
block 3
 10
0.0
 20
0.0
 30
0.0
  0
SPLINE
  5
B3
330
41
100
AcDbEntity
  8
Layer 1
 62
   250
420
  2301728
370
     5
100
AcDbSpline
210
0.0
220
0.0
230
1.0
 70
    11
 71
     3
 72
    41
 73
    37
 74
     0
 42
0.0000000001
 43
0.0000000001
 12
1.0
 22
0.0
 32
0.0
 13
1.0
 23
0.0
 33
0.0
 40
0.0
 40
0.0
 40
0.0
 40
0.0
 40
1.0
 40
1.0
 40
1.0
 40
2.0
 40
2.0
 40
2.0
 40
3.0
 40
3.0
 40
3.0
 40
4.0
 40
4.0
 40
4.0
 40
5.0
 40
5.0
 40
5.0
 40
6.0
 40
6.0
 40
6.0
 40
7.0
 40
7.0
 40
7.0
 40
8.0
 40
8.0
 40
8.0
 40
9.0
 40
9.0
 40
9.0
 40
10.0
 40
10.0
 40
10.0
 40
11.0
 40
11.0
 40
11.0
 40
12.0
 40
12.0
 40
12.0
 40
12.0
 10
4.595887626036936
 20
-3.343681871206765
 30
0.0
 10
4.595887626036936
 20
-3.478616572032949
 30
0.0
 10
4.574721820649432
 20
-3.608265204473952
 30
0.0
 10
4.534150438348919
 20
-3.729973968413794
 30
0.0
 10
4.452130250991496
 20
-3.98397439898723
 30
0.0
 10
4.290738293430931
 20
-4.201812092888933
 30
0.0
 10
4.079952279350598
 20
-4.354386759191936
 30
0.0
 10
3.873574910899046
 20
-4.505201197020443
 30
0.0
 10
3.620457286043706
 20
-4.593395641442839
 30
0.0
 10
3.345291050082766
 20
-4.593395641442839
 30
0.0
 10
3.071007619839922
 20
-4.593395641442839
 30
0.0
 10
2.817007189266487
 20
-4.504318391302347
 30
0.0
 10
2.610629820814935
 20
-4.354386759191936
 30
0.0
 10
2.399849189696297
 20
-4.200929287170839
 30
0.0
 10
2.239334654892133
 20
-3.983091593269135
 30
0.0
 10
2.157314467534709
 20
-3.729973968413794
 30
0.0
 10
2.116743085234196
 20
-3.608265204473952
 30
0.0
 10
2.095577279846692
 20
-3.478616572032949
 30
0.0
 10
2.095577279846692
 20
-3.343681871206765
 30
0.0
 10
2.095577279846692
 20
-3.208741787418885
 30
0.0
 10
2.116743085234196
 20
-3.079098537939577
 30
0.0
 10
2.157314467534709
 20
-2.957389773999735
 30
0.0
 10
2.238451849174038
 20
-2.703389343426299
 30
0.0
 10
2.399849189696297
 20
-2.4855462665629
 30
0.0
 10
2.610629820814935
 20
-2.332088794541803
 30
0.0
 10
2.817007189266487
 20
-2.182157162431391
 30
0.0
 10
3.071007619839922
 20
-2.093085295252595
 30
0.0
 10
3.345291050082766
 20
-2.093085295252595
 30
0.0
 10
3.620457286043706
 20
-2.093085295252595
 30
0.0
 10
3.873574910899046
 20
-2.181279739674991
 30
0.0
 10
4.079952279350598
 20
-2.332088794541803
 30
0.0
 10
4.290738293430931
 20
-2.484668843806501
 30
0.0
 10
4.452130250991496
 20
-2.703389343426299
 30
0.0
 10
4.534150438348919
 20
-2.957389773999735
 30
0.0
 10
4.574721820649432
 20
-3.079098537939577
 30
0.0
 10
4.595887626036936
 20
-3.208741787418885
 30
0.0
 10
4.595887626036936
 20
-3.343681871206765
 30
0.0
  0
ENDBLK
  5
44
330
41
100
AcDbEntity
  8
0
100
AcDbBlockEnd
  0
BLOCK
  5
70
330
6E
100
AcDbEntity
  8
0
100
AcDbBlockBegin
  2
block 3
 70
     0
 10
0.0
 20
0.0
 30
0.0
  3
block 3
  1

  0
SPLINE
  5
72
330
6E
100
AcDbEntity
  8
Layer 1
370
     0
100
AcDbSpline
210
0.0
220
0.0
230
1.0
 70
    11
 71
     3
 72
    23
 73
    19
 74
     0
 42
0.0000000001
 43
0.0000000001
 12
1.0
 22
0.0
 32
0.0
 13
1.0
 23
0.0
 33
0.0
 40
0.0
 40
0.0
 40
0.0
 40
0.0
 40
1.0
 40
1.0
 40
1.0
 40
2.0
 40
2.0
 40
2.0
 40
3.0
 40
3.0
 40
3.0
 40
4.0
 40
4.0
 40
4.0
 40
5.0
 40
5.0
 40
5.0
 40
6.0
 40
6.0
 40
6.0
 40
6.0
 10
2.950465900955092
 20
-1.390698920008228
 30
0.0
 10
2.990299817503293
 20
-1.519287108995178
 30
0.0
 10
2.946805487002014
 20
-1.603175184061012
 30
0.0
 10
2.819810654676992
 20
-1.642535399979991
 30
0.0
 10
2.69320339559406
 20
-1.681809488511839
 30
0.0
 10
2.609961275931711
 20
-1.63723856567142
 30
0.0
 10
2.570084295689944
 20
-1.508736504071601
 30
0.0
 10
2.570084295689944
 20
-1.508736504071601
 30
0.0
 10
2.395805527829868
 20
-0.9473581947501397
 30
0.0
 10
2.395805527829868
 20
-0.9473581947501397
 30
0.0
 10
2.35584242020097
 20
-0.8185116236017957
 30
0.0
 10
2.399164495927987
 20
-0.7344512937616997
 30
0.0
 10
2.525814818704484
 20
-0.6951341415362859
 30
0.0
 10
2.652723523642375
 20
-0.6557739256173065
 30
0.0
 10
2.736180961772552
 20
-0.7004309758448576
 30
0.0
 10
2.776187133095016
 20
-0.8292775469932014
 30
0.0
 10
2.776187133095016
 20
-0.8292775469932014
 30
0.0
 10
2.950465900955092
 20
-1.390698920008228
 30
0.0
 10
2.950465900955092
 20
-1.390698920008228
 30
0.0
  0
SPLINE
  5
73
330
6E
100
AcDbEntity
  8
Layer 1
370
     0
100
AcDbSpline
210
0.0
220
0.0
230
1.0
 70
    11
 71
     3
 72
    26
 73
    22
 74
     0
 42
0.0000000001
 43
0.0000000001
 12
1.0
 22
0.0
 32
0.0
 13
1.0
 23
0.0
 33
0.0
 40
0.0
 40
0.0
 40
0.0
 40
0.0
 40
1.0
 40
1.0
 40
1.0
 40
2.0
 40
2.0
 40
2.0
 40
3.0
 40
3.0
 40
3.0
 40
4.0
 40
4.0
 40
4.0
 40
5.0
 40
5.0
 40
5.0
 40
6.0
 40
6.0
 40
6.0
 40
7.0
 40
7.0
 40
7.0
 40
7.0
 10
2.643766275380725
 20
-0.8704033743483715
 30
0.0
 10
2.630890231004604
 20
-0.8288899737511108
 30
0.0
 10
2.605267333333058
 20
-0.814032999470971
 30
0.0
 10
2.566897582366088
 20
-0.8260047062822141
 30
0.0
 10
2.566897582366088
 20
-0.8260047062822141
 30
0.0
 10
2.56599324480121
 20
-0.8263061521371735
 30
0.0
 10
2.56599324480121
 20
-0.8263061521371735
 30
0.0
 10
2.527924939689199
 20
-0.8380625404805886
 30
0.0
 10
2.515307277474472
 20
-0.8647189667977092
 30
0.0
 10
2.528183321850593
 20
-0.9062323673949697
 30
0.0
 10
2.528183321850593
 20
-0.9062323673949697
 30
0.0
 10
2.702462089710669
 20
-1.467653740409996
 30
0.0
 10
2.702462089710669
 20
-1.467653740409996
 30
0.0
 10
2.715338134086791
 20
-1.509081013620126
 30
0.0
 10
2.740961031758336
 20
-1.5238949242067
 30
0.0
 10
2.779330782725306
 20
-1.511923217395457
 30
0.0
 10
2.818045043240801
 20
-1.499994574277779
 30
0.0
 10
2.830921087616923
 20
-1.473208956879962
 30
0.0
 10
2.818045043240801
 20
-1.431781683669832
 30
0.0
 10
2.818045043240801
 20
-1.431781683669832
 30
0.0
 10
2.643766275380725
 20
-0.8704033743483715
 30
0.0
 10
2.643766275380725
 20
-0.8704033743483715
 30
0.0
  0
HATCH
  5
74
330
6E
100
AcDbEntity
  8
Layer 1
 62
   250
420
  2301728
100
AcDbHatch
 10
0.0
 20
0.0
 30
0.0
210
0.0
220
0.0
230
1.0
  2
SOLID
 70
     1
 71
     0
 91
        2
 92
        1
 93
        1
 72
     4
 94
        3
 73
     0
 74
     1
 95
       23
 96
       19
 40
0.0
 40
0.0
 40
0.0
 40
0.0
 40
1.0
 40
1.0
 40
1.0
 40
2.0
 40
2.0
 40
2.0
 40
3.0
 40
3.0
 40
3.0
 40
4.0
 40
4.0
 40
4.0
 40
5.0
 40
5.0
 40
5.0
 40
6.0
 40
6.0
 40
6.0
 40
6.0
 10
2.950465900955092
 20
-1.390698920008228
 10
2.990299817503293
 20
-1.519287108995178
 10
2.946805487002014
 20
-1.603175184061012
 10
2.819810654676992
 20
-1.642535399979991
 10
2.69320339559406
 20
-1.681809488511839
 10
2.609961275931711
 20
-1.63723856567142
 10
2.570084295689944
 20
-1.508736504071601
 10
2.570084295689944
 20
-1.508736504071601
 10
2.395805527829868
 20
-0.9473581947501397
 10
2.395805527829868
 20
-0.9473581947501397
 10
2.35584242020097
 20
-0.8185116236017957
 10
2.399164495927987
 20
-0.7344512937616997
 10
2.525814818704484
 20
-0.6951341415362859
 10
2.652723523642375
 20
-0.6557739256173065
 10
2.736180961772552
 20
-0.7004309758448576
 10
2.776187133095016
 20
-0.8292775469932014
 10
2.776187133095016
 20
-0.8292775469932014
 10
2.950465900955092
 20
-1.390698920008228
 10
2.950465900955092
 20
-1.390698920008228
 97
        0
 97
        0
 92
        1
 93
        1
 72
     4
 94
        3
 73
     0
 74
     1
 95
       26
 96
       22
 40
0.0
 40
0.0
 40
0.0
 40
0.0
 40
1.0
 40
1.0
 40
1.0
 40
2.0
 40
2.0
 40
2.0
 40
3.0
 40
3.0
 40
3.0
 40
4.0
 40
4.0
 40
4.0
 40
5.0
 40
5.0
 40
5.0
 40
6.0
 40
6.0
 40
6.0
 40
7.0
 40
7.0
 40
7.0
 40
7.0
 10
2.643766275380725
 20
-0.8704033743483715
 10
2.630890231004604
 20
-0.8288899737511108
 10
2.605267333333058
 20
-0.814032999470971
 10
2.566897582366088
 20
-0.8260047062822141
 10
2.566897582366088
 20
-0.8260047062822141
 10
2.56599324480121
 20
-0.8263061521371735
 10
2.56599324480121
 20
-0.8263061521371735
 10
2.527924939689199
 20
-0.8380625404805886
 10
2.515307277474472
 20
-0.8647189667977092
 10
2.528183321850593
 20
-0.9062323673949697
 10
2.528183321850593
 20
-0.9062323673949697
 10
2.702462089710669
 20
-1.467653740409996
 10
2.702462089710669
 20
-1.467653740409996
 10
2.715338134086791
 20
-1.509081013620126
 10
2.740961031758336
 20
-1.5238949242067
 10
2.779330782725306
 20
-1.511923217395457
 10
2.818045043240801
 20
-1.499994574277779
 10
2.830921087616923
 20
-1.473208956879962
 10
2.818045043240801
 20
-1.431781683669832
 10
2.818045043240801
 20
-1.431781683669832
 10
2.643766275380725
 20
-0.8704033743483715
 10
2.643766275380725
 20
-0.8704033743483715
 97
        0
 97
        0
 75
     2
 76
     1
 98
        0
  0
POLYLINE
  5
75
330
6E
100
AcDbEntity
  8
Layer 1
370
     0
100
AcDb2dPolyline
 66
     1
 10
0.0
 20
0.0
 30
0.0
  0
VERTEX
  5
76
330
75
100
AcDbEntity
  8
Layer 1
370
     0
100
AcDbVertex
100
AcDb2dVertex
 10
4.282425942939811
 20
-0.746982828589296
 30
0.0
  0
VERTEX
  5
77
330
75
100
AcDbEntity
  8
Layer 1
370
     0
100
AcDbVertex
100
AcDb2dVertex
 10
4.022837998126235
 20
-1.529450140676665
 30
0.0
  0
VERTEX
  5
78
330
75
100
AcDbEntity
  8
Layer 1
370
     0
100
AcDbVertex
100
AcDb2dVertex
 10
4.146000161723917
 20
-1.570317585870441
 30
0.0
  0
VERTEX
  5
79
330
75
100
AcDbEntity
  8
Layer 1
370
     0
100
AcDbVertex
100
AcDb2dVertex
 10
4.103022595545425
 20
-1.700068494583663
 30
0.0
  0
VERTEX
  5
7A
330
75
100
AcDbEntity
  8
Layer 1
370
     0
100
AcDbVertex
100
AcDb2dVertex
 10
3.725009493426387
 20
-1.574667018920569
 30
0.0
  0
VERTEX
  5
7B
330
75
100
AcDbEntity
  8
Layer 1
370
     0
100
AcDbVertex
100
AcDb2dVertex
 10
3.76807318699201
 20
-1.444916110207347
 30
0.0
  0
VERTEX
  5
7C
330
75
100
AcDbEntity
  8
Layer 1
370
     0
100
AcDbVertex
100
AcDb2dVertex
 10
3.891235350589691
 20
-1.485783555401124
 30
0.0
  0
VERTEX
  5
7D
330
75
100
AcDbEntity
  8
Layer 1
370
     0
100
AcDbVertex
100
AcDb2dVertex
 10
4.107759601837643
 20
-0.8330671520269763
 30
0.0
  0
VERTEX
  5
7E
330
75
100
AcDbEntity
  8
Layer 1
370
     0
100
AcDbVertex
100
AcDb2dVertex
 10
3.984597438239962
 20
-0.7921135794460689
 30
0.0
  0
VERTEX
  5
7F
330
75
100
AcDbEntity
  8
Layer 1
370
     0
100
AcDbVertex
100
AcDb2dVertex
 10
4.027575004418454
 20
-0.6624487981199781
 30
0.0
  0
VERTEX
  5
80
330
75
100
AcDbEntity
  8
Layer 1
370
     0
100
AcDbVertex
100
AcDb2dVertex
 10
4.282425942939811
 20
-0.746982828589296
 30
0.0
  0
SEQEND
  5
81
330
75
100
AcDbEntity
  8
Layer 1
370
     0
  0
HATCH
  5
82
330
6E
100
AcDbEntity
  8
Layer 1
 62
   250
420
  2301728
100
AcDbHatch
 10
0.0
 20
0.0
 30
0.0
210
0.0
220
0.0
230
1.0
  2
SOLID
 70
     1
 71
     0
 91
        1
 92
        1
 93
       10
 72
     1
 10
4.282425942939811
 20
-0.746982828589296
 11
4.022837998126235
 21
-1.529450140676665
 72
     1
 10
4.022837998126235
 20
-1.529450140676665
 11
4.146000161723917
 21
-1.570317585870441
 72
     1
 10
4.146000161723917
 20
-1.570317585870441
 11
4.103022595545425
 21
-1.700068494583663
 72
     1
 10
4.103022595545425
 20
-1.700068494583663
 11
3.725009493426387
 21
-1.574667018920569
 72
     1
 10
3.725009493426387
 20
-1.574667018920569
 11
3.76807318699201
 21
-1.444916110207347
 72
     1
 10
3.76807318699201
 20
-1.444916110207347
 11
3.891235350589691
 21
-1.485783555401124
 72
     1
 10
3.891235350589691
 20
-1.485783555401124
 11
4.107759601837643
 21
-0.8330671520269763
 72
     1
 10
4.107759601837643
 20
-0.8330671520269763
 11
3.984597438239962
 21
-0.7921135794460689
 72
     1
 10
3.984597438239962
 20
-0.7921135794460689
 11
4.027575004418454
 21
-0.6624487981199781
 72
     1
 10
4.027575004418454
 20
-0.6624487981199781
 11
4.282425942939811
 21
-0.746982828589296
 97
        0
 75
     2
 76
     1
 98
        0
  0
SPLINE
  5
83
330
6E
100
AcDbEntity
  8
Layer 1
370
     0
100
AcDbSpline
210
0.0
220
0.0
230
1.0
 70
    11
 71
     3
 72
    62
 73
    58
 74
     0
 42
0.0000000001
 43
0.0000000001
 12
1.0
 22
0.0
 32
0.0
 13
1.0
 23
0.0
 33
0.0
 40
0.0
 40
0.0
 40
0.0
 40
0.0
 40
1.0
 40
1.0
 40
1.0
 40
2.0
 40
2.0
 40
2.0
 40
3.0
 40
3.0
 40
3.0
 40
4.0
 40
4.0
 40
4.0
 40
5.0
 40
5.0
 40
5.0
 40
6.0
 40
6.0
 40
6.0
 40
7.0
 40
7.0
 40
7.0
 40
8.0
 40
8.0
 40
8.0
 40
9.0
 40
9.0
 40
9.0
 40
10.0
 40
10.0
 40
10.0
 40
11.0
 40
11.0
 40
11.0
 40
12.0
 40
12.0
 40
12.0
 40
13.0
 40
13.0
 40
13.0
 40
14.0
 40
14.0
 40
14.0
 40
15.0
 40
15.0
 40
15.0
 40
16.0
 40
16.0
 40
16.0
 40
17.0
 40
17.0
 40
17.0
 40
18.0
 40
18.0
 40
18.0
 40
19.0
 40
19.0
 40
19.0
 40
19.0
 10
4.852072481425871
 20
-2.004184298544093
 30
0.0
 10
4.921921792389312
 20
-1.953283012749527
 30
0.0
 10
5.007274033036376
 20
-1.944411891875008
 30
0.0
 10
5.107870821205672
 20
-1.9777431906948
 30
0.0
 10
5.208725991536361
 20
-2.011418999063117
 30
0.0
 10
5.276680499982914
 20
-2.015639241032549
 30
0.0
 10
5.311734346545331
 20
-1.990619235070922
 30
0.0
 10
5.311734346545331
 20
-1.990619235070922
 30
0.0
 10
5.464179821767636
 20
-1.87955796936518
 30
0.0
 10
5.464179821767636
 20
-1.87955796936518
 30
0.0
 10
5.499319795717184
 20
-1.854021199080766
 30
0.0
 10
5.505176458042109
 20
-1.825125460698233
 30
0.0
 10
5.481663681355279
 20
-1.792913817911147
 30
0.0
 10
5.481663681355279
 20
-1.792913817911147
 30
0.0
 10
5.481146917032492
 20
-1.7920956077334
 30
0.0
 10
5.481146917032492
 20
-1.7920956077334
 30
0.0
 10
5.457461885571399
 20
-1.75962558278492
 30
0.0
 10
5.428092446559644
 20
-1.756137423606105
 30
0.0
 10
5.392952472610095
 20
-1.78176032127765
 30
0.0
 10
5.392952472610095
 20
-1.78176032127765
 30
0.0
 10
5.288824461568419
 20
-1.857552421953147
 30
0.0
 10
5.288824461568419
 20
-1.857552421953147
 30
0.0
 10
5.288824461568419
 20
-1.857552421953147
 30
0.0
 10
5.207261825955129
 20
-1.745543754988961
 30
0.0
 10
5.207261825955129
 20
-1.745543754988961
 30
0.0
 10
5.207261825955129
 20
-1.745543754988961
 30
0.0
 10
5.311389836996805
 20
-1.669665526926334
 30
0.0
 10
5.311389836996805
 20
-1.669665526926334
 30
0.0
 10
5.420427109104963
 20
-1.590256075991325
 30
0.0
 10
5.513961451529496
 20
-1.604122585319456
 30
0.0
 10
5.591992864270405
 20
-1.711437309684988
 30
0.0
 10
5.670282659172708
 20
-1.81875203405052
 30
0.0
 10
5.654779729489083
 20
-1.912200249087922
 30
0.0
 10
5.545828584768057
 20
-1.991566636329365
 30
0.0
 10
5.545828584768057
 20
-1.991566636329365
 30
0.0
 10
5.390627033157552
 20
-2.104651895632691
 30
0.0
 10
5.390627033157552
 20
-2.104651895632691
 30
0.0
 10
5.31931355661288
 20
-2.156586710072832
 30
0.0
 10
5.233100042094503
 20
-2.16575927680231
 30
0.0
 10
5.13198648960242
 20
-2.132384914288953
 30
0.0
 10
5.031131319271731
 20
-2.098752169614201
 30
0.0
 10
4.96188490001821
 20
-2.095694647371042
 30
0.0
 10
4.924161104454724
 20
-2.12325541125304
 30
0.0
 10
4.924161104454724
 20
-2.12325541125304
 30
0.0
 10
4.877393933242457
 20
-2.157232665476317
 30
0.0
 10
4.877393933242457
 20
-2.157232665476317
 30
0.0
 10
4.877393933242457
 20
-2.157232665476317
 30
0.0
 10
5.030183918013288
 20
-2.367082044221598
 30
0.0
 10
5.030183918013288
 20
-2.367082044221598
 30
0.0
 10
5.030183918013288
 20
-2.367082044221598
 30
0.0
 10
4.91976860771103
 20
-2.447525023802181
 30
0.0
 10
4.91976860771103
 20
-2.447525023802181
 30
0.0
 10
4.91976860771103
 20
-2.447525023802181
 30
0.0
 10
4.685329859939779
 20
-2.125580850705584
 30
0.0
 10
4.685329859939779
 20
-2.125580850705584
 30
0.0
 10
4.685329859939779
 20
-2.125580850705584
 30
0.0
 10
4.852072481425871
 20
-2.004184298544093
 30
0.0
 10
4.852072481425871
 20
-2.004184298544093
 30
0.0
  0
HATCH
  5
84
330
6E
100
AcDbEntity
  8
Layer 1
 62
   250
420
  2301728
100
AcDbHatch
 10
0.0
 20
0.0
 30
0.0
210
0.0
220
0.0
230
1.0
  2
SOLID
 70
     1
 71
     0
 91
        1
 92
        1
 93
        1
 72
     4
 94
        3
 73
     0
 74
     1
 95
       62
 96
       58
 40
0.0
 40
0.0
 40
0.0
 40
0.0
 40
1.0
 40
1.0
 40
1.0
 40
2.0
 40
2.0
 40
2.0
 40
3.0
 40
3.0
 40
3.0
 40
4.0
 40
4.0
 40
4.0
 40
5.0
 40
5.0
 40
5.0
 40
6.0
 40
6.0
 40
6.0
 40
7.0
 40
7.0
 40
7.0
 40
8.0
 40
8.0
 40
8.0
 40
9.0
 40
9.0
 40
9.0
 40
10.0
 40
10.0
 40
10.0
 40
11.0
 40
11.0
 40
11.0
 40
12.0
 40
12.0
 40
12.0
 40
13.0
 40
13.0
 40
13.0
 40
14.0
 40
14.0
 40
14.0
 40
15.0
 40
15.0
 40
15.0
 40
16.0
 40
16.0
 40
16.0
 40
17.0
 40
17.0
 40
17.0
 40
18.0
 40
18.0
 40
18.0
 40
19.0
 40
19.0
 40
19.0
 40
19.0
 10
4.852072481425871
 20
-2.004184298544093
 10
4.921921792389312
 20
-1.953283012749527
 10
5.007274033036376
 20
-1.944411891875008
 10
5.107870821205672
 20
-1.9777431906948
 10
5.208725991536361
 20
-2.011418999063117
 10
5.276680499982914
 20
-2.015639241032549
 10
5.311734346545331
 20
-1.990619235070922
 10
5.311734346545331
 20
-1.990619235070922
 10
5.464179821767636
 20
-1.87955796936518
 10
5.464179821767636
 20
-1.87955796936518
 10
5.499319795717184
 20
-1.854021199080766
 10
5.505176458042109
 20
-1.825125460698233
 10
5.481663681355279
 20
-1.792913817911147
 10
5.481663681355279
 20
-1.792913817911147
 10
5.481146917032492
 20
-1.7920956077334
 10
5.481146917032492
 20
-1.7920956077334
 10
5.457461885571399
 20
-1.75962558278492
 10
5.428092446559644
 20
-1.756137423606105
 10
5.392952472610095
 20
-1.78176032127765
 10
5.392952472610095
 20
-1.78176032127765
 10
5.288824461568419
 20
-1.857552421953147
 10
5.288824461568419
 20
-1.857552421953147
 10
5.288824461568419
 20
-1.857552421953147
 10
5.207261825955129
 20
-1.745543754988961
 10
5.207261825955129
 20
-1.745543754988961
 10
5.207261825955129
 20
-1.745543754988961
 10
5.311389836996805
 20
-1.669665526926334
 10
5.311389836996805
 20
-1.669665526926334
 10
5.420427109104963
 20
-1.590256075991325
 10
5.513961451529496
 20
-1.604122585319456
 10
5.591992864270405
 20
-1.711437309684988
 10
5.670282659172708
 20
-1.81875203405052
 10
5.654779729489083
 20
-1.912200249087922
 10
5.545828584768057
 20
-1.991566636329365
 10
5.545828584768057
 20
-1.991566636329365
 10
5.390627033157552
 20
-2.104651895632691
 10
5.390627033157552
 20
-2.104651895632691
 10
5.31931355661288
 20
-2.156586710072832
 10
5.233100042094503
 20
-2.16575927680231
 10
5.13198648960242
 20
-2.132384914288953
 10
5.031131319271731
 20
-2.098752169614201
 10
4.96188490001821
 20
-2.095694647371042
 10
4.924161104454724
 20
-2.12325541125304
 10
4.924161104454724
 20
-2.12325541125304
 10
4.877393933242457
 20
-2.157232665476317
 10
4.877393933242457
 20
-2.157232665476317
 10
4.877393933242457
 20
-2.157232665476317
 10
5.030183918013288
 20
-2.367082044221598
 10
5.030183918013288
 20
-2.367082044221598
 10
5.030183918013288
 20
-2.367082044221598
 10
4.91976860771103
 20
-2.447525023802181
 10
4.91976860771103
 20
-2.447525023802181
 10
4.91976860771103
 20
-2.447525023802181
 10
4.685329859939779
 20
-2.125580850705584
 10
4.685329859939779
 20
-2.125580850705584
 10
4.685329859939779
 20
-2.125580850705584
 10
4.852072481425871
 20
-2.004184298544093
 10
4.852072481425871
 20
-2.004184298544093
 97
        0
 97
        0
 75
     2
 76
     1
 98
        0
  0
SPLINE
  5
85
330
6E
100
AcDbEntity
  8
Layer 1
370
     0
100
AcDbSpline
210
0.0
220
0.0
230
1.0
 70
    11
 71
     3
 72
    92
 73
    88
 74
     0
 42
0.0000000001
 43
0.0000000001
 12
1.0
 22
0.0
 32
0.0
 13
1.0
 23
0.0
 33
0.0
 40
0.0
 40
0.0
 40
0.0
 40
0.0
 40
1.0
 40
1.0
 40
1.0
 40
2.0
 40
2.0
 40
2.0
 40
3.0
 40
3.0
 40
3.0
 40
4.0
 40
4.0
 40
4.0
 40
5.0
 40
5.0
 40
5.0
 40
6.0
 40
6.0
 40
6.0
 40
7.0
 40
7.0
 40
7.0
 40
8.0
 40
8.0
 40
8.0
 40
9.0
 40
9.0
 40
9.0
 40
10.0
 40
10.0
 40
10.0
 40
11.0
 40
11.0
 40
11.0
 40
12.0
 40
12.0
 40
12.0
 40
13.0
 40
13.0
 40
13.0
 40
14.0
 40
14.0
 40
14.0
 40
15.0
 40
15.0
 40
15.0
 40
16.0
 40
16.0
 40
16.0
 40
17.0
 40
17.0
 40
17.0
 40
18.0
 40
18.0
 40
18.0
 40
19.0
 40
19.0
 40
19.0
 40
20.0
 40
20.0
 40
20.0
 40
21.0
 40
21.0
 40
21.0
 40
22.0
 40
22.0
 40
22.0
 40
23.0
 40
23.0
 40
23.0
 40
24.0
 40
24.0
 40
24.0
 40
25.0
 40
25.0
 40
25.0
 40
26.0
 40
26.0
 40
26.0
 40
27.0
 40
27.0
 40
27.0
 40
28.0
 40
28.0
 40
28.0
 40
29.0
 40
29.0
 40
29.0
 40
29.0
 10
5.920224336627583
 20
-3.390533785502193
 30
0.0
 10
5.963288030193206
 20
-3.390404594421496
 30
0.0
 10
5.984906004363149
 20
-3.370121594752088
 30
0.0
 10
5.985078259137412
 20
-3.329943168655362
 30
0.0
 10
5.985078259137412
 20
-3.329943168655362
 30
0.0
 10
5.985078259137412
 20
-3.328995767396918
 30
0.0
 10
5.985078259137412
 20
-3.328995767396918
 30
0.0
 10
5.984819876976018
 20
-3.28903265976802
 30
0.0
 10
5.963029648031812
 20
-3.269309488114964
 30
0.0
 10
5.919535317530533
 20
-3.269567870276358
 30
0.0
 10
5.919535317530533
 20
-3.269567870276358
 30
0.0
 10
5.790688746382189
 20
-3.270256889373408
 30
0.0
 10
5.790688746382189
 20
-3.270256889373408
 30
0.0
 10
5.790688746382189
 20
-3.270256889373408
 30
0.0
 10
5.789913599898008
 20
-3.131634859785668
 30
0.0
 10
5.789913599898008
 20
-3.131634859785668
 30
0.0
 10
5.789913599898008
 20
-3.131634859785668
 30
0.0
 10
5.918760171046352
 20
-3.130945840688618
 30
0.0
 10
5.918760171046352
 20
-3.130945840688618
 30
0.0
 10
6.05337727713249
 20
-3.130213757898002
 30
0.0
 10
6.120987276030517
 20
-3.196144272746971
 30
0.0
 10
6.121762422514698
 20
-3.328651257848393
 30
0.0
 10
6.122537568998879
 20
-3.461718070966168
 30
0.0
 10
6.055616589197902
 20
-3.528466795992883
 30
0.0
 10
5.920999483111764
 20
-3.529241942477065
 30
0.0
 10
5.920999483111764
 20
-3.529241942477065
 30
0.0
 10
5.753998479464278
 20
-3.530189343735509
 30
0.0
 10
5.753998479464278
 20
-3.530189343735509
 30
0.0
 10
5.690953232084206
 20
-3.530533853284033
 30
0.0
 10
5.64625311816309
 20
-3.505470783628841
 30
0.0
 10
5.619812010313797
 20
-3.455000134769931
 30
0.0
 10
5.593973794174423
 20
-3.505729165790235
 30
0.0
 10
5.5495320624147
 20
-3.531308999768215
 30
0.0
 10
5.486486815034628
 20
-3.531653509316739
 30
0.0
 10
5.486486815034628
 20
-3.531653509316739
 30
0.0
 10
5.33318006594101
 20
-3.532514783188052
 30
0.0
 10
5.33318006594101
 20
-3.532514783188052
 30
0.0
 10
5.198649087242004
 20
-3.533203802285102
 30
0.0
 10
5.130952960956845
 20
-3.467230223742567
 30
0.0
 10
5.130263941859796
 20
-3.334249538011924
 30
0.0
 10
5.129488795375615
 20
-3.201742552910502
 30
0.0
 10
5.196409775176592
 20
-3.135036891577352
 30
0.0
 10
5.330940753875598
 20
-3.134261745093171
 30
0.0
 10
5.330940753875598
 20
-3.134261745093171
 30
0.0
 10
5.459787325023942
 20
-3.133572725996121
 30
0.0
 10
5.459787325023942
 20
-3.133572725996121
 30
0.0
 10
5.459787325023942
 20
-3.133572725996121
 30
0.0
 10
5.460562471508124
 20
-3.272194755583861
 30
0.0
 10
5.460562471508124
 20
-3.272194755583861
 30
0.0
 10
5.460562471508124
 20
-3.272194755583861
 30
0.0
 10
5.33171590035978
 20
-3.272883774680911
 30
0.0
 10
5.33171590035978
 20
-3.272883774680911
 30
0.0
 10
5.288307697245632
 20
-3.273056029455174
 30
0.0
 10
5.266689723075689
 20
-3.29316677435032
 30
0.0
 10
5.266861977849952
 20
-3.332957627204955
 30
0.0
 10
5.266861977849952
 20
-3.332957627204955
 30
0.0
 10
5.266948105237082
 20
-3.33399115585053
 30
0.0
 10
5.266948105237082
 20
-3.33399115585053
 30
0.0
 10
5.26746486955987
 20
-3.374126518253691
 30
0.0
 10
5.289255098504075
 20
-3.394151135761705
 30
0.0
 10
5.332404919456829
 20
-3.393849689906746
 30
0.0
 10
5.332404919456829
 20
-3.393849689906746
 30
0.0
 10
5.485711668550447
 20
-3.393074543422565
 30
0.0
 10
5.485711668550447
 20
-3.393074543422565
 30
0.0
 10
5.520679387725733
 20
-3.392816161261171
 30
0.0
 10
5.541349960637232
 20
-3.385366142274318
 30
0.0
 10
5.547809514672076
 20
-3.370638359074875
 30
0.0
 10
5.551082355383063
 20
-3.362800766845932
 30
0.0
 10
5.552632648351425
 20
-3.350699868953992
 30
0.0
 10
5.552546520964294
 20
-3.334378729092621
 30
0.0
 10
5.552546520964294
 20
-3.334378729092621
 30
0.0
 10
5.552288138802901
 20
-3.28873121391306
 30
0.0
 10
5.552288138802901
 20
-3.28873121391306
 30
0.0
 10
5.552288138802901
 20
-3.28873121391306
 30
0.0
 10
5.688886174793057
 20
-3.28804219481601
 30
0.0
 10
5.688886174793057
 20
-3.28804219481601
 30
0.0
 10
5.688886174793057
 20
-3.28804219481601
 30
0.0
 10
5.689230684341582
 20
-3.344412569693411
 30
0.0
 10
5.689230684341582
 20
-3.344412569693411
 30
0.0
 10
5.689316811728713
 20
-3.357417805150229
 30
0.0
 10
5.691297741632732
 20
-3.367236327283191
 30
0.0
 10
5.695259601440768
 20
-3.3737389450116
 30
0.0
 10
5.7022359197984
 20
-3.385753715516409
 30
0.0
 10
5.721786836677192
 20
-3.391696505228465
 30
0.0
 10
5.754170734238541
 20
-3.391481186760637
 30
0.0
 10
5.754170734238541
 20
-3.391481186760637
 30
0.0
 10
5.920224336627583
 20
-3.390533785502193
 30
0.0
 10
5.920224336627583
 20
-3.390533785502193
 30
0.0
  0
HATCH
  5
86
330
6E
100
AcDbEntity
  8
Layer 1
 62
   250
420
  2301728
100
AcDbHatch
 10
0.0
 20
0.0
 30
0.0
210
0.0
220
0.0
230
1.0
  2
SOLID
 70
     1
 71
     0
 91
        1
 92
        1
 93
        1
 72
     4
 94
        3
 73
     0
 74
     1
 95
       92
 96
       88
 40
0.0
 40
0.0
 40
0.0
 40
0.0
 40
1.0
 40
1.0
 40
1.0
 40
2.0
 40
2.0
 40
2.0
 40
3.0
 40
3.0
 40
3.0
 40
4.0
 40
4.0
 40
4.0
 40
5.0
 40
5.0
 40
5.0
 40
6.0
 40
6.0
 40
6.0
 40
7.0
 40
7.0
 40
7.0
 40
8.0
 40
8.0
 40
8.0
 40
9.0
 40
9.0
 40
9.0
 40
10.0
 40
10.0
 40
10.0
 40
11.0
 40
11.0
 40
11.0
 40
12.0
 40
12.0
 40
12.0
 40
13.0
 40
13.0
 40
13.0
 40
14.0
 40
14.0
 40
14.0
 40
15.0
 40
15.0
 40
15.0
 40
16.0
 40
16.0
 40
16.0
 40
17.0
 40
17.0
 40
17.0
 40
18.0
 40
18.0
 40
18.0
 40
19.0
 40
19.0
 40
19.0
 40
20.0
 40
20.0
 40
20.0
 40
21.0
 40
21.0
 40
21.0
 40
22.0
 40
22.0
 40
22.0
 40
23.0
 40
23.0
 40
23.0
 40
24.0
 40
24.0
 40
24.0
 40
25.0
 40
25.0
 40
25.0
 40
26.0
 40
26.0
 40
26.0
 40
27.0
 40
27.0
 40
27.0
 40
28.0
 40
28.0
 40
28.0
 40
29.0
 40
29.0
 40
29.0
 40
29.0
 10
5.920224336627583
 20
-3.390533785502193
 10
5.963288030193206
 20
-3.390404594421496
 10
5.984906004363149
 20
-3.370121594752088
 10
5.985078259137412
 20
-3.329943168655362
 10
5.985078259137412
 20
-3.329943168655362
 10
5.985078259137412
 20
-3.328995767396918
 10
5.985078259137412
 20
-3.328995767396918
 10
5.984819876976018
 20
-3.28903265976802
 10
5.963029648031812
 20
-3.269309488114964
 10
5.919535317530533
 20
-3.269567870276358
 10
5.919535317530533
 20
-3.269567870276358
 10
5.790688746382189
 20
-3.270256889373408
 10
5.790688746382189
 20
-3.270256889373408
 10
5.790688746382189
 20
-3.270256889373408
 10
5.789913599898008
 20
-3.131634859785668
 10
5.789913599898008
 20
-3.131634859785668
 10
5.789913599898008
 20
-3.131634859785668
 10
5.918760171046352
 20
-3.130945840688618
 10
5.918760171046352
 20
-3.130945840688618
 10
6.05337727713249
 20
-3.130213757898002
 10
6.120987276030517
 20
-3.196144272746971
 10
6.121762422514698
 20
-3.328651257848393
 10
6.122537568998879
 20
-3.461718070966168
 10
6.055616589197902
 20
-3.528466795992883
 10
5.920999483111764
 20
-3.529241942477065
 10
5.920999483111764
 20
-3.529241942477065
 10
5.753998479464278
 20
-3.530189343735509
 10
5.753998479464278
 20
-3.530189343735509
 10
5.690953232084206
 20
-3.530533853284033
 10
5.64625311816309
 20
-3.505470783628841
 10
5.619812010313797
 20
-3.455000134769931
 10
5.593973794174423
 20
-3.505729165790235
 10
5.5495320624147
 20
-3.531308999768215
 10
5.486486815034628
 20
-3.531653509316739
 10
5.486486815034628
 20
-3.531653509316739
 10
5.33318006594101
 20
-3.532514783188052
 10
5.33318006594101
 20
-3.532514783188052
 10
5.198649087242004
 20
-3.533203802285102
 10
5.130952960956845
 20
-3.467230223742567
 10
5.130263941859796
 20
-3.334249538011924
 10
5.129488795375615
 20
-3.201742552910502
 10
5.196409775176592
 20
-3.135036891577352
 10
5.330940753875598
 20
-3.134261745093171
 10
5.330940753875598
 20
-3.134261745093171
 10
5.459787325023942
 20
-3.133572725996121
 10
5.459787325023942
 20
-3.133572725996121
 10
5.459787325023942
 20
-3.133572725996121
 10
5.460562471508124
 20
-3.272194755583861
 10
5.460562471508124
 20
-3.272194755583861
 10
5.460562471508124
 20
-3.272194755583861
 10
5.33171590035978
 20
-3.272883774680911
 10
5.33171590035978
 20
-3.272883774680911
 10
5.288307697245632
 20
-3.273056029455174
 10
5.266689723075689
 20
-3.29316677435032
 10
5.266861977849952
 20
-3.332957627204955
 10
5.266861977849952
 20
-3.332957627204955
 10
5.266948105237082
 20
-3.33399115585053
 10
5.266948105237082
 20
-3.33399115585053
 10
5.26746486955987
 20
-3.374126518253691
 10
5.289255098504075
 20
-3.394151135761705
 10
5.332404919456829
 20
-3.393849689906746
 10
5.332404919456829
 20
-3.393849689906746
 10
5.485711668550447
 20
-3.393074543422565
 10
5.485711668550447
 20
-3.393074543422565
 10
5.520679387725733
 20
-3.392816161261171
 10
5.541349960637232
 20
-3.385366142274318
 10
5.547809514672076
 20
-3.370638359074875
 10
5.551082355383063
 20
-3.362800766845932
 10
5.552632648351425
 20
-3.350699868953992
 10
5.552546520964294
 20
-3.334378729092621
 10
5.552546520964294
 20
-3.334378729092621
 10
5.552288138802901
 20
-3.28873121391306
 10
5.552288138802901
 20
-3.28873121391306
 10
5.552288138802901
 20
-3.28873121391306
 10
5.688886174793057
 20
-3.28804219481601
 10
5.688886174793057
 20
-3.28804219481601
 10
5.688886174793057
 20
-3.28804219481601
 10
5.689230684341582
 20
-3.344412569693411
 10
5.689230684341582
 20
-3.344412569693411
 10
5.689316811728713
 20
-3.357417805150229
 10
5.691297741632732
 20
-3.367236327283191
 10
5.695259601440768
 20
-3.3737389450116
 10
5.7022359197984
 20
-3.385753715516409
 10
5.721786836677192
 20
-3.391696505228465
 10
5.754170734238541
 20
-3.391481186760637
 10
5.754170734238541
 20
-3.391481186760637
 10
5.920224336627583
 20
-3.390533785502193
 10
5.920224336627583
 20
-3.390533785502193
 97
        0
 97
        0
 75
     2
 76
     1
 98
        0
  0
POLYLINE
  5
87
330
6E
100
AcDbEntity
  8
Layer 1
370
     0
100
AcDb2dPolyline
 66
     1
 10
0.0
 20
0.0
 30
0.0
  0
VERTEX
  5
88
330
87
100
AcDbEntity
  8
Layer 1
370
     0
100
AcDbVertex
100
AcDb2dVertex
 10
5.488553872325778
 20
-5.090903725940816
 30
0.0
  0
VERTEX
  5
89
330
87
100
AcDbEntity
  8
Layer 1
370
     0
100
AcDbVertex
100
AcDb2dVertex
 10
4.975234645023552
 20
-4.72477620324589
 30
0.0
  0
VERTEX
  5
8A
330
87
100
AcDbEntity
  8
Layer 1
370
     0
100
AcDbVertex
100
AcDb2dVertex
 10
4.944228785656304
 20
-4.7683566611343
 30
0.0
  0
VERTEX
  5
8B
330
87
100
AcDbEntity
  8
Layer 1
370
     0
100
AcDbVertex
100
AcDb2dVertex
 10
4.832952201482734
 20
-4.688947210199292
 30
0.0
  0
VERTEX
  5
8C
330
87
100
AcDbEntity
  8
Layer 1
370
     0
100
AcDbVertex
100
AcDb2dVertex
 10
4.863958060849983
 20
-4.645452879698012
 30
0.0
  0
VERTEX
  5
8D
330
87
100
AcDbEntity
  8
Layer 1
370
     0
100
AcDbVertex
100
AcDb2dVertex
 10
4.706000432851278
 20
-4.532798257330342
 30
0.0
  0
VERTEX
  5
8E
330
87
100
AcDbEntity
  8
Layer 1
370
     0
100
AcDbVertex
100
AcDb2dVertex
 10
4.786529539818993
 20
-4.419885252801279
 30
0.0
  0
VERTEX
  5
8F
330
87
100
AcDbEntity
  8
Layer 1
370
     0
100
AcDbVertex
100
AcDb2dVertex
 10
4.944401040430566
 20
-4.532626002556079
 30
0.0
  0
VERTEX
  5
90
330
87
100
AcDbEntity
  8
Layer 1
370
     0
100
AcDbVertex
100
AcDb2dVertex
 10
5.107698566431409
 20
-4.303699407561228
 30
0.0
  0
VERTEX
  5
91
330
87
100
AcDbEntity
  8
Layer 1
370
     0
100
AcDbVertex
100
AcDb2dVertex
 10
5.206572806858079
 20
-4.374237737621718
 30
0.0
  0
VERTEX
  5
92
330
87
100
AcDbEntity
  8
Layer 1
370
     0
100
AcDbVertex
100
AcDb2dVertex
 10
5.591217717786224
 20
-4.946984862044504
 30
0.0
  0
VERTEX
  5
93
330
87
100
AcDbEntity
  8
Layer 1
370
     0
100
AcDbVertex
100
AcDb2dVertex
 10
5.488553872325778
 20
-5.090903725940816
 30
0.0
  0
SEQEND
  5
94
330
87
100
AcDbEntity
  8
Layer 1
370
     0
  0
POLYLINE
  5
95
330
6E
100
AcDbEntity
  8
Layer 1
370
     0
100
AcDb2dPolyline
 66
     1
 10
0.0
 20
0.0
 30
0.0
  0
VERTEX
  5
96
330
95
100
AcDbEntity
  8
Layer 1
370
     0
100
AcDbVertex
100
AcDb2dVertex
 10
5.139651827057101
 20
-4.494385442669807
 30
0.0
  0
VERTEX
  5
97
330
95
100
AcDbEntity
  8
Layer 1
370
     0
100
AcDbVertex
100
AcDb2dVertex
 10
5.055677624604137
 20
-4.611949326103957
 30
0.0
  0
VERTEX
  5
98
330
95
100
AcDbEntity
  8
Layer 1
370
     0
100
AcDbVertex
100
AcDb2dVertex
 10
5.38838772109214
 20
-4.84923027765054
 30
0.0
  0
VERTEX
  5
99
330
95
100
AcDbEntity
  8
Layer 1
370
     0
100
AcDbVertex
100
AcDb2dVertex
 10
5.139651827057101
 20
-4.494385442669807
 30
0.0
  0
SEQEND
  5
9A
330
95
100
AcDbEntity
  8
Layer 1
370
     0
  0
HATCH
  5
9B
330
6E
100
AcDbEntity
  8
Layer 1
 62
   250
420
  2301728
100
AcDbHatch
 10
0.0
 20
0.0
 30
0.0
210
0.0
220
0.0
230
1.0
  2
SOLID
 70
     1
 71
     0
 91
        2
 92
        1
 93
       11
 72
     1
 10
5.488553872325778
 20
-5.090903725940816
 11
4.975234645023552
 21
-4.72477620324589
 72
     1
 10
4.975234645023552
 20
-4.72477620324589
 11
4.944228785656304
 21
-4.7683566611343
 72
     1
 10
4.944228785656304
 20
-4.7683566611343
 11
4.832952201482734
 21
-4.688947210199292
 72
     1
 10
4.832952201482734
 20
-4.688947210199292
 11
4.863958060849983
 21
-4.645452879698012
 72
     1
 10
4.863958060849983
 20
-4.645452879698012
 11
4.706000432851278
 21
-4.532798257330342
 72
     1
 10
4.706000432851278
 20
-4.532798257330342
 11
4.786529539818993
 21
-4.419885252801279
 72
     1
 10
4.786529539818993
 20
-4.419885252801279
 11
4.944401040430566
 21
-4.532626002556079
 72
     1
 10
4.944401040430566
 20
-4.532626002556079
 11
5.107698566431409
 21
-4.303699407561228
 72
     1
 10
5.107698566431409
 20
-4.303699407561228
 11
5.206572806858079
 21
-4.374237737621718
 72
     1
 10
5.206572806858079
 20
-4.374237737621718
 11
5.591217717786224
 21
-4.946984862044504
 72
     1
 10
5.591217717786224
 20
-4.946984862044504
 11
5.488553872325778
 21
-5.090903725940816
 97
        0
 92
        1
 93
        3
 72
     1
 10
5.139651827057101
 20
-4.494385442669807
 11
5.055677624604137
 21
-4.611949326103957
 72
     1
 10
5.055677624604137
 20
-4.611949326103957
 11
5.38838772109214
 21
-4.84923027765054
 72
     1
 10
5.38838772109214
 20
-4.84923027765054
 11
5.139651827057101
 21
-4.494385442669807
 97
        0
 75
     2
 76
     1
 98
        0
  0
SPLINE
  5
9C
330
6E
100
AcDbEntity
  8
Layer 1
370
     0
100
AcDbSpline
210
0.0
220
0.0
230
1.0
 70
    11
 71
     3
 72
    80
 73
    76
 74
     0
 42
0.0000000001
 43
0.0000000001
 12
1.0
 22
0.0
 32
0.0
 13
1.0
 23
0.0
 33
0.0
 40
0.0
 40
0.0
 40
0.0
 40
0.0
 40
1.0
 40
1.0
 40
1.0
 40
2.0
 40
2.0
 40
2.0
 40
3.0
 40
3.0
 40
3.0
 40
4.0
 40
4.0
 40
4.0
 40
5.0
 40
5.0
 40
5.0
 40
6.0
 40
6.0
 40
6.0
 40
7.0
 40
7.0
 40
7.0
 40
8.0
 40
8.0
 40
8.0
 40
9.0
 40
9.0
 40
9.0
 40
10.0
 40
10.0
 40
10.0
 40
11.0
 40
11.0
 40
11.0
 40
12.0
 40
12.0
 40
12.0
 40
13.0
 40
13.0
 40
13.0
 40
14.0
 40
14.0
 40
14.0
 40
15.0
 40
15.0
 40
15.0
 40
16.0
 40
16.0
 40
16.0
 40
17.0
 40
17.0
 40
17.0
 40
18.0
 40
18.0
 40
18.0
 40
19.0
 40
19.0
 40
19.0
 40
20.0
 40
20.0
 40
20.0
 40
21.0
 40
21.0
 40
21.0
 40
22.0
 40
22.0
 40
22.0
 40
23.0
 40
23.0
 40
23.0
 40
24.0
 40
24.0
 40
24.0
 40
25.0
 40
25.0
 40
25.0
 40
25.0
 10
4.020081921738035
 20
-5.496477591941853
 30
0.0
 10
4.031020099903704
 20
-5.528689234728939
 30
0.0
 10
4.044283717521916
 20
-5.5453979478324
 30
0.0
 10
4.05978664720554
 20
-5.546603731252238
 30
0.0
 10
4.068399385918664
 20
-5.547551132510682
 30
0.0
 10
4.080887857052695
 20
-5.545139565671007
 30
0.0
 10
4.097252060607632
 20
-5.539627412894608
 30
0.0
 10
4.1013000478028
 20
-5.538249374700507
 30
0.0
 10
4.1054341623851
 20
-5.536699081732145
 30
0.0
 10
4.109654404354531
 20
-5.534890406602389
 30
0.0
 10
4.13583713004243
 20
-5.52464124753377
 30
0.0
 10
4.146603053433836
 20
-5.507674152268915
 30
0.0
 10
4.142038301915879
 20
-5.484075248194953
 30
0.0
 10
4.142038301915879
 20
-5.484075248194953
 30
0.0
 10
4.130927868975949
 20
-5.446954344341386
 30
0.0
 10
4.130927868975949
 20
-5.446954344341386
 30
0.0
 10
4.130927868975949
 20
-5.446954344341386
 30
0.0
 10
4.262186006963968
 20
-5.402340357807401
 30
0.0
 10
4.262186006963968
 20
-5.402340357807401
 30
0.0
 10
4.262186006963968
 20
-5.402340357807401
 30
0.0
 10
4.407741291215773
 20
-5.894644502649603
 30
0.0
 10
4.407741291215773
 20
-5.894644502649603
 30
0.0
 10
4.407741291215773
 20
-5.894644502649603
 30
0.0
 10
4.050226507233972
 20
-6.016170245891791
 30
0.0
 10
4.050226507233972
 20
-6.016170245891791
 30
0.0
 10
4.050226507233972
 20
-6.016170245891791
 30
0.0
 10
4.006215412409905
 20
-5.886720783033528
 30
0.0
 10
4.006215412409905
 20
-5.886720783033528
 30
0.0
 10
4.006215412409905
 20
-5.886720783033528
 30
0.0
 10
4.237639701631562
 20
-5.808000351195569
 30
0.0
 10
4.237639701631562
 20
-5.808000351195569
 30
0.0
 10
4.237639701631562
 20
-5.808000351195569
 30
0.0
 10
4.180451116576415
 20
-5.609132214309523
 30
0.0
 10
4.180451116576415
 20
-5.609132214309523
 30
0.0
 10
4.166842989409679
 20
-5.642377385742184
 30
0.0
 10
4.140918645883174
 20
-5.665545652880489
 30
0.0
 10
4.102591958609769
 20
-5.678550888337307
 30
0.0
 10
4.097338187994763
 20
-5.680273436079932
 30
0.0
 10
4.091826035218364
 20
-5.681909856435426
 30
0.0
 10
4.08605550028057
 20
-5.683115639855263
 30
0.0
 10
4.038943819519778
 20
-5.694570582343719
 30
0.0
 10
3.997861055858174
 20
-5.688111028308875
 30
0.0
 10
3.962893336682888
 20
-5.663392468202208
 30
0.0
 10
3.934385171542445
 20
-5.643410914387759
 30
0.0
 10
3.909666611435778
 20
-5.602672660274679
 30
0.0
 10
3.888823783750016
 20
-5.54117770586297
 30
0.0
 10
3.888823783750016
 20
-5.54117770586297
 30
0.0
 10
3.800973848876146
 20
-5.282881671856363
 30
0.0
 10
3.800973848876146
 20
-5.282881671856363
 30
0.0
 10
3.757651773149129
 20
-5.155413138902119
 30
0.0
 10
3.798992918972127
 20
-5.070405407803579
 30
0.0
 10
3.924738904183746
 20
-5.027513969012219
 30
0.0
 10
4.050312634621102
 20
-4.984880912382252
 30
0.0
 10
4.134717474009723
 20
-5.027341714237957
 30
0.0
 10
4.178039549736741
 20
-5.154724119805069
 30
0.0
 10
4.178039549736741
 20
-5.154724119805069
 30
0.0
 10
4.214557561880389
 20
-5.262297226331995
 30
0.0
 10
4.214557561880389
 20
-5.262297226331995
 30
0.0
 10
4.214557561880389
 20
-5.262297226331995
 30
0.0
 10
4.083299423892369
 20
-5.30682508547885
 30
0.0
 10
4.083299423892369
 20
-5.30682508547885
 30
0.0
 10
4.083299423892369
 20
-5.30682508547885
 30
0.0
 10
4.046781411748722
 20
-5.199251978951923
 30
0.0
 10
4.046781411748722
 20
-5.199251978951923
 30
0.0
 10
4.03282877503346
 20
-5.158083087903187
 30
0.0
 10
4.006990558894086
 20
-5.144044323800795
 30
0.0
 10
3.969180635943469
 20
-5.156791177096219
 30
0.0
 10
3.969180635943469
 20
-5.156791177096219
 30
0.0
 10
3.968319362072156
 20
-5.157049559257612
 30
0.0
 10
3.968319362072156
 20
-5.157049559257612
 30
0.0
 10
3.930423311734408
 20
-5.170313176875824
 30
0.0
 10
3.918365477536034
 20
-5.197357176435036
 30
0.0
 10
3.932231986864164
 20
-5.238181557935246
 30
0.0
 10
3.932231986864164
 20
-5.238181557935246
 30
0.0
 10
4.020081921738035
 20
-5.496477591941853
 30
0.0
 10
4.020081921738035
 20
-5.496477591941853
 30
0.0
  0
HATCH
  5
9D
330
6E
100
AcDbEntity
  8
Layer 1
 62
   250
420
  2301728
100
AcDbHatch
 10
0.0
 20
0.0
 30
0.0
210
0.0
220
0.0
230
1.0
  2
SOLID
 70
     1
 71
     0
 91
        1
 92
        1
 93
        1
 72
     4
 94
        3
 73
     0
 74
     1
 95
       80
 96
       76
 40
0.0
 40
0.0
 40
0.0
 40
0.0
 40
1.0
 40
1.0
 40
1.0
 40
2.0
 40
2.0
 40
2.0
 40
3.0
 40
3.0
 40
3.0
 40
4.0
 40
4.0
 40
4.0
 40
5.0
 40
5.0
 40
5.0
 40
6.0
 40
6.0
 40
6.0
 40
7.0
 40
7.0
 40
7.0
 40
8.0
 40
8.0
 40
8.0
 40
9.0
 40
9.0
 40
9.0
 40
10.0
 40
10.0
 40
10.0
 40
11.0
 40
11.0
 40
11.0
 40
12.0
 40
12.0
 40
12.0
 40
13.0
 40
13.0
 40
13.0
 40
14.0
 40
14.0
 40
14.0
 40
15.0
 40
15.0
 40
15.0
 40
16.0
 40
16.0
 40
16.0
 40
17.0
 40
17.0
 40
17.0
 40
18.0
 40
18.0
 40
18.0
 40
19.0
 40
19.0
 40
19.0
 40
20.0
 40
20.0
 40
20.0
 40
21.0
 40
21.0
 40
21.0
 40
22.0
 40
22.0
 40
22.0
 40
23.0
 40
23.0
 40
23.0
 40
24.0
 40
24.0
 40
24.0
 40
25.0
 40
25.0
 40
25.0
 40
25.0
 10
4.020081921738035
 20
-5.496477591941853
 10
4.031020099903704
 20
-5.528689234728939
 10
4.044283717521916
 20
-5.5453979478324
 10
4.05978664720554
 20
-5.546603731252238
 10
4.068399385918664
 20
-5.547551132510682
 10
4.080887857052695
 20
-5.545139565671007
 10
4.097252060607632
 20
-5.539627412894608
 10
4.1013000478028
 20
-5.538249374700507
 10
4.1054341623851
 20
-5.536699081732145
 10
4.109654404354531
 20
-5.534890406602389
 10
4.13583713004243
 20
-5.52464124753377
 10
4.146603053433836
 20
-5.507674152268915
 10
4.142038301915879
 20
-5.484075248194953
 10
4.142038301915879
 20
-5.484075248194953
 10
4.130927868975949
 20
-5.446954344341386
 10
4.130927868975949
 20
-5.446954344341386
 10
4.130927868975949
 20
-5.446954344341386
 10
4.262186006963968
 20
-5.402340357807401
 10
4.262186006963968
 20
-5.402340357807401
 10
4.262186006963968
 20
-5.402340357807401
 10
4.407741291215773
 20
-5.894644502649603
 10
4.407741291215773
 20
-5.894644502649603
 10
4.407741291215773
 20
-5.894644502649603
 10
4.050226507233972
 20
-6.016170245891791
 10
4.050226507233972
 20
-6.016170245891791
 10
4.050226507233972
 20
-6.016170245891791
 10
4.006215412409905
 20
-5.886720783033528
 10
4.006215412409905
 20
-5.886720783033528
 10
4.006215412409905
 20
-5.886720783033528
 10
4.237639701631562
 20
-5.808000351195569
 10
4.237639701631562
 20
-5.808000351195569
 10
4.237639701631562
 20
-5.808000351195569
 10
4.180451116576415
 20
-5.609132214309523
 10
4.180451116576415
 20
-5.609132214309523
 10
4.166842989409679
 20
-5.642377385742184
 10
4.140918645883174
 20
-5.665545652880489
 10
4.102591958609769
 20
-5.678550888337307
 10
4.097338187994763
 20
-5.680273436079932
 10
4.091826035218364
 20
-5.681909856435426
 10
4.08605550028057
 20
-5.683115639855263
 10
4.038943819519778
 20
-5.694570582343719
 10
3.997861055858174
 20
-5.688111028308875
 10
3.962893336682888
 20
-5.663392468202208
 10
3.934385171542445
 20
-5.643410914387759
 10
3.909666611435778
 20
-5.602672660274679
 10
3.888823783750016
 20
-5.54117770586297
 10
3.888823783750016
 20
-5.54117770586297
 10
3.800973848876146
 20
-5.282881671856363
 10
3.800973848876146
 20
-5.282881671856363
 10
3.757651773149129
 20
-5.155413138902119
 10
3.798992918972127
 20
-5.070405407803579
 10
3.924738904183746
 20
-5.027513969012219
 10
4.050312634621102
 20
-4.984880912382252
 10
4.134717474009723
 20
-5.027341714237957
 10
4.178039549736741
 20
-5.154724119805069
 10
4.178039549736741
 20
-5.154724119805069
 10
4.214557561880389
 20
-5.262297226331995
 10
4.214557561880389
 20
-5.262297226331995
 10
4.214557561880389
 20
-5.262297226331995
 10
4.083299423892369
 20
-5.30682508547885
 10
4.083299423892369
 20
-5.30682508547885
 10
4.083299423892369
 20
-5.30682508547885
 10
4.046781411748722
 20
-5.199251978951923
 10
4.046781411748722
 20
-5.199251978951923
 10
4.03282877503346
 20
-5.158083087903187
 10
4.006990558894086
 20
-5.144044323800795
 10
3.969180635943469
 20
-5.156791177096219
 10
3.969180635943469
 20
-5.156791177096219
 10
3.968319362072156
 20
-5.157049559257612
 10
3.968319362072156
 20
-5.157049559257612
 10
3.930423311734408
 20
-5.170313176875824
 10
3.918365477536034
 20
-5.197357176435036
 10
3.932231986864164
 20
-5.238181557935246
 10
3.932231986864164
 20
-5.238181557935246
 10
4.020081921738035
 20
-5.496477591941853
 10
4.020081921738035
 20
-5.496477591941853
 97
        0
 97
        0
 75
     2
 76
     1
 98
        0
  0
SPLINE
  5
9E
330
6E
100
AcDbEntity
  8
Layer 1
370
     0
100
AcDbSpline
210
0.0
220
0.0
230
1.0
 70
    11
 71
     3
 72
    56
 73
    52
 74
     0
 42
0.0000000001
 43
0.0000000001
 12
1.0
 22
0.0
 32
0.0
 13
1.0
 23
0.0
 33
0.0
 40
0.0
 40
0.0
 40
0.0
 40
0.0
 40
1.0
 40
1.0
 40
1.0
 40
2.0
 40
2.0
 40
2.0
 40
3.0
 40
3.0
 40
3.0
 40
4.0
 40
4.0
 40
4.0
 40
5.0
 40
5.0
 40
5.0
 40
6.0
 40
6.0
 40
6.0
 40
7.0
 40
7.0
 40
7.0
 40
8.0
 40
8.0
 40
8.0
 40
9.0
 40
9.0
 40
9.0
 40
10.0
 40
10.0
 40
10.0
 40
11.0
 40
11.0
 40
11.0
 40
12.0
 40
12.0
 40
12.0
 40
13.0
 40
13.0
 40
13.0
 40
14.0
 40
14.0
 40
14.0
 40
15.0
 40
15.0
 40
15.0
 40
16.0
 40
16.0
 40
16.0
 40
17.0
 40
17.0
 40
17.0
 40
17.0
 10
2.727482095672296
 20
-5.595437959755655
 30
0.0
 10
2.696045599369392
 20
-5.610165742955098
 30
0.0
 10
2.662197536226812
 20
-5.611974418084854
 30
0.0
 10
2.625937906244557
 20
-5.600863985144923
 30
0.0
 10
2.619435288516148
 20
-5.598883055240904
 30
0.0
 10
2.612803479707043
 20
-5.596557615788361
 30
0.0
 10
2.606128607204371
 20
-5.593801539400161
 30
0.0
 10
2.564959716155635
 20
-5.576489934586781
 30
0.0
 10
2.53627929624093
 20
-5.551168482770194
 30
0.0
 10
2.520130411153822
 20
-5.518009438724665
 30
0.0
 10
2.503550889131057
 20
-5.48381686603356
 30
0.0
 10
2.505704073809338
 20
-5.432484943303337
 30
0.0
 10
2.526719156269362
 20
-5.363841415759734
 30
0.0
 10
2.526719156269362
 20
-5.363841415759734
 30
0.0
 10
2.582400512049713
 20
-5.180992972880099
 30
0.0
 10
2.582400512049713
 20
-5.180992972880099
 30
0.0
 10
2.621631536887995
 20
-5.052318656506018
 30
0.0
 10
2.704787529163213
 20
-5.007274033036376
 30
0.0
 10
2.831997679956063
 20
-5.046031357245437
 30
0.0
 10
2.958820257506823
 20
-5.084788681454498
 30
0.0
 10
3.002572970169496
 20
-5.168504501746068
 30
0.0
 10
2.963341945331213
 20
-5.29717881812015
 30
0.0
 10
2.963341945331213
 20
-5.29717881812015
 30
0.0
 10
2.791948444940034
 20
-5.859418401312923
 30
0.0
 10
2.791948444940034
 20
-5.859418401312923
 30
0.0
 10
2.75263129271462
 20
-5.988523354622661
 30
0.0
 10
2.669561427826533
 20
-6.033654105479434
 30
0.0
 10
2.542695786582208
 20
-5.994896781270374
 30
0.0
 10
2.415614826870055
 20
-5.956225584448444
 30
0.0
 10
2.371689859433119
 20
-5.872337509382611
 30
0.0
 10
2.411007011658533
 20
-5.743232556072873
 30
0.0
 10
2.411007011658533
 20
-5.743232556072873
 30
0.0
 10
2.448515488754191
 20
-5.620070392475191
 30
0.0
 10
2.448515488754191
 20
-5.620070392475191
 30
0.0
 10
2.448515488754191
 20
-5.620070392475191
 30
0.0
 10
2.581151664936309
 20
-5.660550264426877
 30
0.0
 10
2.581151664936309
 20
-5.660550264426877
 30
0.0
 10
2.581151664936309
 20
-5.660550264426877
 30
0.0
 10
2.543600124147086
 20
-5.783712428024558
 30
0.0
 10
2.543600124147086
 20
-5.783712428024558
 30
0.0
 10
2.530939398238793
 20
-5.82531195600895
 30
0.0
 10
2.543815442614914
 20
-5.851839191245374
 30
0.0
 10
2.582271320969016
 20
-5.863638643282354
 30
0.0
 10
2.582271320969016
 20
-5.863638643282354
 30
0.0
 10
2.583218722227459
 20
-5.863897025443748
 30
0.0
 10
2.583218722227459
 20
-5.863897025443748
 30
0.0
 10
2.62128702733947
 20
-5.875524222706466
 30
0.0
 10
2.646737670236753
 20
-5.86053805734563
 30
0.0
 10
2.659355332451481
 20
-5.819024656748369
 30
0.0
 10
2.659355332451481
 20
-5.819024656748369
 30
0.0
 10
2.727482095672296
 20
-5.595437959755655
 30
0.0
 10
2.727482095672296
 20
-5.595437959755655
 30
0.0
  0
SPLINE
  5
9F
330
6E
100
AcDbEntity
  8
Layer 1
370
     0
100
AcDbSpline
210
0.0
220
0.0
230
1.0
 70
    11
 71
     3
 72
    29
 73
    25
 74
     0
 42
0.0000000001
 43
0.0000000001
 12
1.0
 22
0.0
 32
0.0
 13
1.0
 23
0.0
 33
0.0
 40
0.0
 40
0.0
 40
0.0
 40
0.0
 40
1.0
 40
1.0
 40
1.0
 40
2.0
 40
2.0
 40
2.0
 40
3.0
 40
3.0
 40
3.0
 40
4.0
 40
4.0
 40
4.0
 40
5.0
 40
5.0
 40
5.0
 40
6.0
 40
6.0
 40
6.0
 40
7.0
 40
7.0
 40
7.0
 40
8.0
 40
8.0
 40
8.0
 40
8.0
 10
2.65926920506435
 20
-5.404235160324289
 30
0.0
 10
2.64932149185069
 20
-5.437049694821293
 30
0.0
 10
2.650355020496265
 20
-5.458323159442712
 30
0.0
 10
2.662326727307509
 20
-5.468141681575673
 30
0.0
 10
2.668829345035918
 20
-5.473739961739204
 30
0.0
 10
2.680284287524374
 20
-5.479252114515604
 30
0.0
 10
2.696820745853573
 20
-5.484247502969216
 30
0.0
 10
2.700954860435873
 20
-5.485539413776185
 30
0.0
 10
2.705175102405303
 20
-5.486659069808891
 30
0.0
 10
2.709653726536128
 20
-5.487692598454466
 30
0.0
 10
2.740961031758336
 20
-5.495788572844803
 30
0.0
 10
2.762794324396107
 20
-5.479768878838391
 30
0.0
 10
2.775024413368744
 20
-5.439461261660968
 30
0.0
 10
2.775024413368744
 20
-5.439461261660968
 30
0.0
 10
2.830791896536226
 20
-5.256785073555595
 30
0.0
 10
2.830791896536226
 20
-5.256785073555595
 30
0.0
 10
2.843409558750953
 20
-5.215099418184073
 30
0.0
 10
2.830533514374832
 20
-5.188572182947649
 30
0.0
 10
2.792120699714296
 20
-5.176858858297799
 30
0.0
 10
2.753363375505236
 20
-5.165059406260819
 30
0.0
 10
2.727654350446559
 20
-5.179873316847393
 30
0.0
 10
2.714993624538266
 20
-5.221472844831784
 30
0.0
 10
2.714993624538266
 20
-5.221472844831784
 30
0.0
 10
2.65926920506435
 20
-5.404235160324289
 30
0.0
 10
2.65926920506435
 20
-5.404235160324289
 30
0.0
  0
HATCH
  5
A0
330
6E
100
AcDbEntity
  8
Layer 1
 62
   250
420
  2301728
100
AcDbHatch
 10
0.0
 20
0.0
 30
0.0
210
0.0
220
0.0
230
1.0
  2
SOLID
 70
     1
 71
     0
 91
        2
 92
        1
 93
        1
 72
     4
 94
        3
 73
     0
 74
     1
 95
       56
 96
       52
 40
0.0
 40
0.0
 40
0.0
 40
0.0
 40
1.0
 40
1.0
 40
1.0
 40
2.0
 40
2.0
 40
2.0
 40
3.0
 40
3.0
 40
3.0
 40
4.0
 40
4.0
 40
4.0
 40
5.0
 40
5.0
 40
5.0
 40
6.0
 40
6.0
 40
6.0
 40
7.0
 40
7.0
 40
7.0
 40
8.0
 40
8.0
 40
8.0
 40
9.0
 40
9.0
 40
9.0
 40
10.0
 40
10.0
 40
10.0
 40
11.0
 40
11.0
 40
11.0
 40
12.0
 40
12.0
 40
12.0
 40
13.0
 40
13.0
 40
13.0
 40
14.0
 40
14.0
 40
14.0
 40
15.0
 40
15.0
 40
15.0
 40
16.0
 40
16.0
 40
16.0
 40
17.0
 40
17.0
 40
17.0
 40
17.0
 10
2.727482095672296
 20
-5.595437959755655
 10
2.696045599369392
 20
-5.610165742955098
 10
2.662197536226812
 20
-5.611974418084854
 10
2.625937906244557
 20
-5.600863985144923
 10
2.619435288516148
 20
-5.598883055240904
 10
2.612803479707043
 20
-5.596557615788361
 10
2.606128607204371
 20
-5.593801539400161
 10
2.564959716155635
 20
-5.576489934586781
 10
2.53627929624093
 20
-5.551168482770194
 10
2.520130411153822
 20
-5.518009438724665
 10
2.503550889131057
 20
-5.48381686603356
 10
2.505704073809338
 20
-5.432484943303337
 10
2.526719156269362
 20
-5.363841415759734
 10
2.526719156269362
 20
-5.363841415759734
 10
2.582400512049713
 20
-5.180992972880099
 10
2.582400512049713
 20
-5.180992972880099
 10
2.621631536887995
 20
-5.052318656506018
 10
2.704787529163213
 20
-5.007274033036376
 10
2.831997679956063
 20
-5.046031357245437
 10
2.958820257506823
 20
-5.084788681454498
 10
3.002572970169496
 20
-5.168504501746068
 10
2.963341945331213
 20
-5.29717881812015
 10
2.963341945331213
 20
-5.29717881812015
 10
2.791948444940034
 20
-5.859418401312923
 10
2.791948444940034
 20
-5.859418401312923
 10
2.75263129271462
 20
-5.988523354622661
 10
2.669561427826533
 20
-6.033654105479434
 10
2.542695786582208
 20
-5.994896781270374
 10
2.415614826870055
 20
-5.956225584448444
 10
2.371689859433119
 20
-5.872337509382611
 10
2.411007011658533
 20
-5.743232556072873
 10
2.411007011658533
 20
-5.743232556072873
 10
2.448515488754191
 20
-5.620070392475191
 10
2.448515488754191
 20
-5.620070392475191
 10
2.448515488754191
 20
-5.620070392475191
 10
2.581151664936309
 20
-5.660550264426877
 10
2.581151664936309
 20
-5.660550264426877
 10
2.581151664936309
 20
-5.660550264426877
 10
2.543600124147086
 20
-5.783712428024558
 10
2.543600124147086
 20
-5.783712428024558
 10
2.530939398238793
 20
-5.82531195600895
 10
2.543815442614914
 20
-5.851839191245374
 10
2.582271320969016
 20
-5.863638643282354
 10
2.582271320969016
 20
-5.863638643282354
 10
2.583218722227459
 20
-5.863897025443748
 10
2.583218722227459
 20
-5.863897025443748
 10
2.62128702733947
 20
-5.875524222706466
 10
2.646737670236753
 20
-5.86053805734563
 10
2.659355332451481
 20
-5.819024656748369
 10
2.659355332451481
 20
-5.819024656748369
 10
2.727482095672296
 20
-5.595437959755655
 10
2.727482095672296
 20
-5.595437959755655
 97
        0
 97
        0
 92
        1
 93
        1
 72
     4
 94
        3
 73
     0
 74
     1
 95
       29
 96
       25
 40
0.0
 40
0.0
 40
0.0
 40
0.0
 40
1.0
 40
1.0
 40
1.0
 40
2.0
 40
2.0
 40
2.0
 40
3.0
 40
3.0
 40
3.0
 40
4.0
 40
4.0
 40
4.0
 40
5.0
 40
5.0
 40
5.0
 40
6.0
 40
6.0
 40
6.0
 40
7.0
 40
7.0
 40
7.0
 40
8.0
 40
8.0
 40
8.0
 40
8.0
 10
2.65926920506435
 20
-5.404235160324289
 10
2.64932149185069
 20
-5.437049694821293
 10
2.650355020496265
 20
-5.458323159442712
 10
2.662326727307509
 20
-5.468141681575673
 10
2.668829345035918
 20
-5.473739961739204
 10
2.680284287524374
 20
-5.479252114515604
 10
2.696820745853573
 20
-5.484247502969216
 10
2.700954860435873
 20
-5.485539413776185
 10
2.705175102405303
 20
-5.486659069808891
 10
2.709653726536128
 20
-5.487692598454466
 10
2.740961031758336
 20
-5.495788572844803
 10
2.762794324396107
 20
-5.479768878838391
 10
2.775024413368744
 20
-5.439461261660968
 10
2.775024413368744
 20
-5.439461261660968
 10
2.830791896536226
 20
-5.256785073555595
 10
2.830791896536226
 20
-5.256785073555595
 10
2.843409558750953
 20
-5.215099418184073
 10
2.830533514374832
 20
-5.188572182947649
 10
2.792120699714296
 20
-5.176858858297799
 10
2.753363375505236
 20
-5.165059406260819
 10
2.727654350446559
 20
-5.179873316847393
 10
2.714993624538266
 20
-5.221472844831784
 10
2.714993624538266
 20
-5.221472844831784
 10
2.65926920506435
 20
-5.404235160324289
 10
2.65926920506435
 20
-5.404235160324289
 97
        0
 97
        0
 75
     2
 76
     1
 98
        0
  0
POLYLINE
  5
A1
330
6E
100
AcDbEntity
  8
Layer 1
370
     0
100
AcDb2dPolyline
 66
     1
 10
0.0
 20
0.0
 30
0.0
  0
VERTEX
  5
A2
330
A1
100
AcDbEntity
  8
Layer 1
370
     0
100
AcDbVertex
100
AcDb2dVertex
 10
1.389837646136916
 20
-5.092712401070572
 30
0.0
  0
VERTEX
  5
A3
330
A1
100
AcDbEntity
  8
Layer 1
370
     0
100
AcDbVertex
100
AcDb2dVertex
 10
1.281187947270849
 20
-5.175653074877962
 30
0.0
  0
VERTEX
  5
A4
330
A1
100
AcDbEntity
  8
Layer 1
370
     0
100
AcDbVertex
100
AcDb2dVertex
 10
1.032365925848679
 20
-4.849833169360458
 30
0.0
  0
VERTEX
  5
A5
330
A1
100
AcDbEntity
  8
Layer 1
370
     0
100
AcDbVertex
100
AcDb2dVertex
 10
1.110612657057416
 20
-4.790060762691374
 30
0.0
  0
VERTEX
  5
A6
330
A1
100
AcDbEntity
  8
Layer 1
370
     0
100
AcDbVertex
100
AcDb2dVertex
 10
1.914051987911244
 20
-4.420746526672591
 30
0.0
  0
VERTEX
  5
A7
330
A1
100
AcDbEntity
  8
Layer 1
370
     0
100
AcDbVertex
100
AcDb2dVertex
 10
2.000265502429621
 20
-4.533659531201655
 30
0.0
  0
VERTEX
  5
A8
330
A1
100
AcDbEntity
  8
Layer 1
370
     0
100
AcDbVertex
100
AcDb2dVertex
 10
1.232569037235261
 20
-4.886781818439763
 30
0.0
  0
VERTEX
  5
A9
330
A1
100
AcDbEntity
  8
Layer 1
370
     0
100
AcDbVertex
100
AcDb2dVertex
 10
1.389837646136916
 20
-5.092712401070572
 30
0.0
  0
SEQEND
  5
AA
330
A1
100
AcDbEntity
  8
Layer 1
370
     0
  0
HATCH
  5
AB
330
6E
100
AcDbEntity
  8
Layer 1
 62
   250
420
  2301728
100
AcDbHatch
 10
0.0
 20
0.0
 30
0.0
210
0.0
220
0.0
230
1.0
  2
SOLID
 70
     1
 71
     0
 91
        1
 92
        1
 93
        7
 72
     1
 10
1.389837646136916
 20
-5.092712401070572
 11
1.281187947270849
 21
-5.175653074877962
 72
     1
 10
1.281187947270849
 20
-5.175653074877962
 11
1.032365925848679
 21
-4.849833169360458
 72
     1
 10
1.032365925848679
 20
-4.849833169360458
 11
1.110612657057416
 21
-4.790060762691374
 72
     1
 10
1.110612657057416
 20
-4.790060762691374
 11
1.914051987911244
 21
-4.420746526672591
 72
     1
 10
1.914051987911244
 20
-4.420746526672591
 11
2.000265502429621
 21
-4.533659531201655
 72
     1
 10
2.000265502429621
 20
-4.533659531201655
 11
1.232569037235261
 21
-4.886781818439763
 72
     1
 10
1.232569037235261
 20
-4.886781818439763
 11
1.389837646136916
 21
-5.092712401070572
 97
        0
 75
     2
 76
     1
 98
        0
  0
SPLINE
  5
AC
330
6E
100
AcDbEntity
  8
Layer 1
370
     0
100
AcDbSpline
210
0.0
220
0.0
230
1.0
 70
    11
 71
     3
 72
    41
 73
    37
 74
     0
 42
0.0000000001
 43
0.0000000001
 12
1.0
 22
0.0
 32
0.0
 13
1.0
 23
0.0
 33
0.0
 40
0.0
 40
0.0
 40
0.0
 40
0.0
 40
1.0
 40
1.0
 40
1.0
 40
2.0
 40
2.0
 40
2.0
 40
3.0
 40
3.0
 40
3.0
 40
4.0
 40
4.0
 40
4.0
 40
5.0
 40
5.0
 40
5.0
 40
6.0
 40
6.0
 40
6.0
 40
7.0
 40
7.0
 40
7.0
 40
8.0
 40
8.0
 40
8.0
 40
9.0
 40
9.0
 40
9.0
 40
10.0
 40
10.0
 40
10.0
 40
11.0
 40
11.0
 40
11.0
 40
12.0
 40
12.0
 40
12.0
 40
12.0
 10
0.5791205510704976
 20
-3.421324326401614
 30
0.0
 10
0.5752448186495916
 20
-3.288515895445232
 30
0.0
 10
0.6405724417886416
 20
-3.220173813756589
 30
0.0
 10
0.7750603567940821
 20
-3.216255017642117
 30
0.0
 10
0.7750603567940821
 20
-3.216255017642117
 30
0.0
 10
0.9420182967480024
 20
-3.211216565494939
 30
0.0
 10
0.9420182967480024
 20
-3.211216565494939
 30
0.0
 10
1.005020480434509
 20
-3.209494017752314
 30
0.0
 10
1.05036654975911
 20
-3.233394367681235
 30
0.0
 10
1.077927313641108
 20
-3.283219061136661
 30
0.0
 10
1.102559746360645
 20
-3.231844074712872
 30
0.0
 10
1.146355522716883
 20
-3.205230712089318
 30
0.0
 10
1.209400770096955
 20
-3.203465100653127
 30
0.0
 10
1.209400770096955
 20
-3.203465100653127
 30
0.0
 10
1.362621391803442
 20
-3.199029540215868
 30
0.0
 10
1.362621391803442
 20
-3.199029540215868
 30
0.0
 10
1.497152370502448
 20
-3.195024616714265
 30
0.0
 10
1.566355726062404
 20
-3.259490965982002
 30
0.0
 10
1.57023145848331
 20
-3.392342460631949
 30
0.0
 10
1.574064127210651
 20
-3.525280082669027
 30
0.0
 10
1.508779567765166
 20
-3.593665228051237
 30
0.0
 10
1.374334716453291
 20
-3.597627087859274
 30
0.0
 10
1.374334716453291
 20
-3.597627087859274
 30
0.0
 10
1.221027967359674
 20
-3.602019584602968
 30
0.0
 10
1.221027967359674
 20
-3.602019584602968
 30
0.0
 10
1.158068847366733
 20
-3.603914387119855
 30
0.0
 10
1.112722778042132
 20
-3.579884846110237
 30
0.0
 10
1.085162014160133
 20
-3.530017088961246
 30
0.0
 10
1.060529581440597
 20
-3.5814351390786
 30
0.0
 10
1.016690741390793
 20
-3.608048501702155
 30
0.0
 10
0.9536885577042863
 20
-3.609857176831911
 30
0.0
 10
0.9536885577042863
 20
-3.609857176831911
 30
0.0
 10
0.7866875540568004
 20
-3.614852565285523
 30
0.0
 10
0.7866875540568004
 20
-3.614852565285523
 30
0.0
 10
0.6522427027449255
 20
-3.618728297706429
 30
0.0
 10
0.5830393471849693
 20
-3.554218884745126
 30
0.0
 10
0.5791205510704976
 20
-3.421324326401614
 30
0.0
  0
SPLINE
  5
AD
330
6E
100
AcDbEntity
  8
Layer 1
370
     0
100
AcDbSpline
210
0.0
220
0.0
230
1.0
 70
    11
 71
     3
 72
    35
 73
    31
 74
     0
 42
0.0000000001
 43
0.0000000001
 12
1.0
 22
0.0
 32
0.0
 13
1.0
 23
0.0
 33
0.0
 40
0.0
 40
0.0
 40
0.0
 40
0.0
 40
1.0
 40
1.0
 40
1.0
 40
2.0
 40
2.0
 40
2.0
 40
3.0
 40
3.0
 40
3.0
 40
4.0
 40
4.0
 40
4.0
 40
5.0
 40
5.0
 40
5.0
 40
6.0
 40
6.0
 40
6.0
 40
7.0
 40
7.0
 40
7.0
 40
8.0
 40
8.0
 40
8.0
 40
9.0
 40
9.0
 40
9.0
 40
10.0
 40
10.0
 40
10.0
 40
10.0
 10
1.011092461227262
 20
-3.39548611026224
 30
0.0
 10
1.010747951678737
 20
-3.38239474741829
 30
0.0
 10
1.008465575919759
 20
-3.372705416366025
 30
0.0
 10
1.00441758872459
 20
-3.366331989718313
 30
0.0
 10
0.9971828882055654
 20
-3.354446410294201
 30
0.0
 10
0.9773735891653789
 20
-3.348891193824236
 30
0.0
 10
0.9451188826847272
 20
-3.349924722469811
 30
0.0
 10
0.9451188826847272
 20
-3.349924722469811
 30
0.0
 10
0.7791083439892508
 20
-3.354747856149161
 30
0.0
 10
0.7791083439892508
 20
-3.354747856149161
 30
0.0
 10
0.7360015867300621
 20
-3.356082830649695
 30
0.0
 10
0.7148573131893413
 20
-3.376753403561194
 30
0.0
 10
0.7157185870606537
 20
-3.416888765964354
 30
0.0
 10
0.7157185870606537
 20
-3.416888765964354
 30
0.0
 10
0.7157616507542194
 20
-3.417836167222798
 30
0.0
 10
0.7157616507542194
 20
-3.417836167222798
 30
0.0
 10
0.7172688800290161
 20
-3.458100720706656
 30
0.0
 10
0.7395758732960088
 20
-3.477479382811186
 30
0.0
 10
0.7826395668616318
 20
-3.476187472004217
 30
0.0
 10
0.7826395668616318
 20
-3.476187472004217
 30
0.0
 10
0.9486931692506739
 20
-3.471364338324868
 30
0.0
 10
0.9486931692506739
 20
-3.471364338324868
 30
0.0
 10
0.9809909394248912
 20
-3.470416937066424
 30
0.0
 10
1.000369601529421
 20
-3.463785128257318
 30
0.0
 10
1.006872219257831
 20
-3.45146891189755
 30
0.0
 10
1.010575696904474
 20
-3.444923230475575
 30
0.0
 10
1.012255180953533
 20
-3.434975517261916
 30
0.0
 10
1.011910671405009
 20
-3.421970281805098
 30
0.0
 10
1.011910671405009
 20
-3.421970281805098
 30
0.0
 10
1.011092461227262
 20
-3.39548611026224
 30
0.0
 10
1.011092461227262
 20
-3.39548611026224
 30
0.0
  0
SPLINE
  5
AE
330
6E
100
AcDbEntity
  8
Layer 1
370
     0
100
AcDbSpline
210
0.0
220
0.0
230
1.0
 70
    11
 71
     3
 72
    35
 73
    31
 74
     0
 42
0.0000000001
 43
0.0000000001
 12
1.0
 22
0.0
 32
0.0
 13
1.0
 23
0.0
 33
0.0
 40
0.0
 40
0.0
 40
0.0
 40
0.0
 40
1.0
 40
1.0
 40
1.0
 40
2.0
 40
2.0
 40
2.0
 40
3.0
 40
3.0
 40
3.0
 40
4.0
 40
4.0
 40
4.0
 40
5.0
 40
5.0
 40
5.0
 40
6.0
 40
6.0
 40
6.0
 40
7.0
 40
7.0
 40
7.0
 40
8.0
 40
8.0
 40
8.0
 40
9.0
 40
9.0
 40
9.0
 40
10.0
 40
10.0
 40
10.0
 40
10.0
 10
1.433590358799589
 20
-3.395830619810765
 30
0.0
 10
1.432126193218357
 20
-3.355695257407604
 30
0.0
 10
1.409776136257799
 20
-3.336273531609508
 30
0.0
 10
1.366712442692176
 20
-3.337522378722911
 30
0.0
 10
1.366712442692176
 20
-3.337522378722911
 30
0.0
 10
1.213448757292124
 20
-3.34195793916017
 30
0.0
 10
1.213448757292124
 20
-3.34195793916017
 30
0.0
 10
1.178481038116838
 20
-3.343077595192876
 30
0.0
 10
1.157982719979602
 20
-3.351001314808951
 30
0.0
 10
1.151910739186849
 20
-3.365901352782657
 30
0.0
 10
1.14885321694369
 20
-3.373825072398732
 30
0.0
 10
1.147604369830286
 20
-3.385882906597106
 30
0.0
 10
1.148078070459508
 20
-3.402247110152043
 30
0.0
 10
1.148078070459508
 20
-3.402247110152043
 30
0.0
 10
1.148164197846639
 20
-3.407156371218524
 30
0.0
 10
1.148164197846639
 20
-3.407156371218524
 30
0.0
 10
1.148680962169427
 20
-3.42352057477346
 30
0.0
 10
1.150661892073446
 20
-3.435535345278269
 30
0.0
 10
1.154193114945827
 20
-3.44320068273295
 30
0.0
 10
1.161083305916326
 20
-3.45775621115813
 30
0.0
 10
1.182055324682785
 20
-3.464474147354368
 30
0.0
 10
1.216979980164505
 20
-3.463440618708793
 30
0.0
 10
1.216979980164505
 20
-3.463440618708793
 30
0.0
 10
1.370286729258123
 20
-3.458961994577968
 30
0.0
 10
1.370286729258123
 20
-3.458961994577968
 30
0.0
 10
1.413350422823746
 20
-3.45775621115813
 30
0.0
 10
1.434494696364467
 20
-3.4369995108595
 30
0.0
 10
1.433590358799589
 20
-3.396778021069208
 30
0.0
 10
1.433590358799589
 20
-3.396778021069208
 30
0.0
 10
1.433590358799589
 20
-3.395830619810765
 30
0.0
 10
1.433590358799589
 20
-3.395830619810765
 30
0.0
  0
HATCH
  5
AF
330
6E
100
AcDbEntity
  8
Layer 1
 62
   250
420
  2301728
100
AcDbHatch
 10
0.0
 20
0.0
 30
0.0
210
0.0
220
0.0
230
1.0
  2
SOLID
 70
     1
 71
     0
 91
        3
 92
        1
 93
        1
 72
     4
 94
        3
 73
     0
 74
     1
 95
       41
 96
       37
 40
0.0
 40
0.0
 40
0.0
 40
0.0
 40
1.0
 40
1.0
 40
1.0
 40
2.0
 40
2.0
 40
2.0
 40
3.0
 40
3.0
 40
3.0
 40
4.0
 40
4.0
 40
4.0
 40
5.0
 40
5.0
 40
5.0
 40
6.0
 40
6.0
 40
6.0
 40
7.0
 40
7.0
 40
7.0
 40
8.0
 40
8.0
 40
8.0
 40
9.0
 40
9.0
 40
9.0
 40
10.0
 40
10.0
 40
10.0
 40
11.0
 40
11.0
 40
11.0
 40
12.0
 40
12.0
 40
12.0
 40
12.0
 10
0.5791205510704976
 20
-3.421324326401614
 10
0.5752448186495916
 20
-3.288515895445232
 10
0.6405724417886416
 20
-3.220173813756589
 10
0.7750603567940821
 20
-3.216255017642117
 10
0.7750603567940821
 20
-3.216255017642117
 10
0.9420182967480024
 20
-3.211216565494939
 10
0.9420182967480024
 20
-3.211216565494939
 10
1.005020480434509
 20
-3.209494017752314
 10
1.05036654975911
 20
-3.233394367681235
 10
1.077927313641108
 20
-3.283219061136661
 10
1.102559746360645
 20
-3.231844074712872
 10
1.146355522716883
 20
-3.205230712089318
 10
1.209400770096955
 20
-3.203465100653127
 10
1.209400770096955
 20
-3.203465100653127
 10
1.362621391803442
 20
-3.199029540215868
 10
1.362621391803442
 20
-3.199029540215868
 10
1.497152370502448
 20
-3.195024616714265
 10
1.566355726062404
 20
-3.259490965982002
 10
1.57023145848331
 20
-3.392342460631949
 10
1.574064127210651
 20
-3.525280082669027
 10
1.508779567765166
 20
-3.593665228051237
 10
1.374334716453291
 20
-3.597627087859274
 10
1.374334716453291
 20
-3.597627087859274
 10
1.221027967359674
 20
-3.602019584602968
 10
1.221027967359674
 20
-3.602019584602968
 10
1.158068847366733
 20
-3.603914387119855
 10
1.112722778042132
 20
-3.579884846110237
 10
1.085162014160133
 20
-3.530017088961246
 10
1.060529581440597
 20
-3.5814351390786
 10
1.016690741390793
 20
-3.608048501702155
 10
0.9536885577042863
 20
-3.609857176831911
 10
0.9536885577042863
 20
-3.609857176831911
 10
0.7866875540568004
 20
-3.614852565285523
 10
0.7866875540568004
 20
-3.614852565285523
 10
0.6522427027449255
 20
-3.618728297706429
 10
0.5830393471849693
 20
-3.554218884745126
 10
0.5791205510704976
 20
-3.421324326401614
 97
        0
 97
        0
 92
        1
 93
        1
 72
     4
 94
        3
 73
     0
 74
     1
 95
       35
 96
       31
 40
0.0
 40
0.0
 40
0.0
 40
0.0
 40
1.0
 40
1.0
 40
1.0
 40
2.0
 40
2.0
 40
2.0
 40
3.0
 40
3.0
 40
3.0
 40
4.0
 40
4.0
 40
4.0
 40
5.0
 40
5.0
 40
5.0
 40
6.0
 40
6.0
 40
6.0
 40
7.0
 40
7.0
 40
7.0
 40
8.0
 40
8.0
 40
8.0
 40
9.0
 40
9.0
 40
9.0
 40
10.0
 40
10.0
 40
10.0
 40
10.0
 10
1.011092461227262
 20
-3.39548611026224
 10
1.010747951678737
 20
-3.38239474741829
 10
1.008465575919759
 20
-3.372705416366025
 10
1.00441758872459
 20
-3.366331989718313
 10
0.9971828882055654
 20
-3.354446410294201
 10
0.9773735891653789
 20
-3.348891193824236
 10
0.9451188826847272
 20
-3.349924722469811
 10
0.9451188826847272
 20
-3.349924722469811
 10
0.7791083439892508
 20
-3.354747856149161
 10
0.7791083439892508
 20
-3.354747856149161
 10
0.7360015867300621
 20
-3.356082830649695
 10
0.7148573131893413
 20
-3.376753403561194
 10
0.7157185870606537
 20
-3.416888765964354
 10
0.7157185870606537
 20
-3.416888765964354
 10
0.7157616507542194
 20
-3.417836167222798
 10
0.7157616507542194
 20
-3.417836167222798
 10
0.7172688800290161
 20
-3.458100720706656
 10
0.7395758732960088
 20
-3.477479382811186
 10
0.7826395668616318
 20
-3.476187472004217
 10
0.7826395668616318
 20
-3.476187472004217
 10
0.9486931692506739
 20
-3.471364338324868
 10
0.9486931692506739
 20
-3.471364338324868
 10
0.9809909394248912
 20
-3.470416937066424
 10
1.000369601529421
 20
-3.463785128257318
 10
1.006872219257831
 20
-3.45146891189755
 10
1.010575696904474
 20
-3.444923230475575
 10
1.012255180953533
 20
-3.434975517261916
 10
1.011910671405009
 20
-3.421970281805098
 10
1.011910671405009
 20
-3.421970281805098
 10
1.011092461227262
 20
-3.39548611026224
 10
1.011092461227262
 20
-3.39548611026224
 97
        0
 97
        0
 92
        1
 93
        1
 72
     4
 94
        3
 73
     0
 74
     1
 95
       35
 96
       31
 40
0.0
 40
0.0
 40
0.0
 40
0.0
 40
1.0
 40
1.0
 40
1.0
 40
2.0
 40
2.0
 40
2.0
 40
3.0
 40
3.0
 40
3.0
 40
4.0
 40
4.0
 40
4.0
 40
5.0
 40
5.0
 40
5.0
 40
6.0
 40
6.0
 40
6.0
 40
7.0
 40
7.0
 40
7.0
 40
8.0
 40
8.0
 40
8.0
 40
9.0
 40
9.0
 40
9.0
 40
10.0
 40
10.0
 40
10.0
 40
10.0
 10
1.433590358799589
 20
-3.395830619810765
 10
1.432126193218357
 20
-3.355695257407604
 10
1.409776136257799
 20
-3.336273531609508
 10
1.366712442692176
 20
-3.337522378722911
 10
1.366712442692176
 20
-3.337522378722911
 10
1.213448757292124
 20
-3.34195793916017
 10
1.213448757292124
 20
-3.34195793916017
 10
1.178481038116838
 20
-3.343077595192876
 10
1.157982719979602
 20
-3.351001314808951
 10
1.151910739186849
 20
-3.365901352782657
 10
1.14885321694369
 20
-3.373825072398732
 10
1.147604369830286
 20
-3.385882906597106
 10
1.148078070459508
 20
-3.402247110152043
 10
1.148078070459508
 20
-3.402247110152043
 10
1.148164197846639
 20
-3.407156371218524
 10
1.148164197846639
 20
-3.407156371218524
 10
1.148680962169427
 20
-3.42352057477346
 10
1.150661892073446
 20
-3.435535345278269
 10
1.154193114945827
 20
-3.44320068273295
 10
1.161083305916326
 20
-3.45775621115813
 10
1.182055324682785
 20
-3.464474147354368
 10
1.216979980164505
 20
-3.463440618708793
 10
1.216979980164505
 20
-3.463440618708793
 10
1.370286729258123
 20
-3.458961994577968
 10
1.370286729258123
 20
-3.458961994577968
 10
1.413350422823746
 20
-3.45775621115813
 10
1.434494696364467
 20
-3.4369995108595
 10
1.433590358799589
 20
-3.396778021069208
 10
1.433590358799589
 20
-3.396778021069208
 10
1.433590358799589
 20
-3.395830619810765
 10
1.433590358799589
 20
-3.395830619810765
 97
        0
 97
        0
 75
     2
 76
     1
 98
        0
  0
SPLINE
  5
B0
330
6E
100
AcDbEntity
  8
Layer 1
370
     0
100
AcDbSpline
210
0.0
220
0.0
230
1.0
 70
    11
 71
     3
 72
    56
 73
    52
 74
     0
 42
0.0000000001
 43
0.0000000001
 12
1.0
 22
0.0
 32
0.0
 13
1.0
 23
0.0
 33
0.0
 40
0.0
 40
0.0
 40
0.0
 40
0.0
 40
1.0
 40
1.0
 40
1.0
 40
2.0
 40
2.0
 40
2.0
 40
3.0
 40
3.0
 40
3.0
 40
4.0
 40
4.0
 40
4.0
 40
5.0
 40
5.0
 40
5.0
 40
6.0
 40
6.0
 40
6.0
 40
7.0
 40
7.0
 40
7.0
 40
8.0
 40
8.0
 40
8.0
 40
9.0
 40
9.0
 40
9.0
 40
10.0
 40
10.0
 40
10.0
 40
11.0
 40
11.0
 40
11.0
 40
12.0
 40
12.0
 40
12.0
 40
13.0
 40
13.0
 40
13.0
 40
14.0
 40
14.0
 40
14.0
 40
15.0
 40
15.0
 40
15.0
 40
16.0
 40
16.0
 40
16.0
 40
17.0
 40
17.0
 40
17.0
 40
17.0
 10
1.550809732685214
 20
-2.046860418867625
 30
0.0
 10
1.55537448420317
 20
-2.081871201736477
 30
0.0
 10
1.546890936570743
 20
-2.1152886279434
 30
0.0
 10
1.525402153481497
 20
-2.146854315327002
 30
0.0
 10
1.521913994302681
 20
-2.152021958554877
 30
0.0
 10
1.517952134494644
 20
-2.157146538089186
 30
0.0
 10
1.513602701444516
 20
-2.162486436091323
 30
0.0
 10
1.48483615414268
 20
-2.196592881395296
 30
0.0
 10
1.452150810726372
 20
-2.21653137151618
 30
0.0
 10
1.415589734889158
 20
-2.222129651679711
 30
0.0
 10
1.377865939325672
 20
-2.22764180445611
 30
0.0
 10
1.329419284064347
 20
-2.21033019964273
 30
0.0
 10
1.270292832798746
 20
-2.170108709852438
 30
0.0
 10
1.270292832798746
 20
-2.170108709852438
 30
0.0
 10
1.112335204800041
 20
-2.062664794406209
 30
0.0
 10
1.112335204800041
 20
-2.062664794406209
 30
0.0
 10
1.001015556932906
 20
-1.987001884811409
 30
0.0
 10
0.9826273597803848
 20
-1.894113497790361
 30
0.0
 10
1.057084485955347
 20
-1.783956569649497
 30
0.0
 10
1.13162773951744
 20
-1.674316405831421
 30
0.0
 10
1.224645317619186
 20
-1.657478501647262
 30
0.0
 10
1.336180283954149
 20
-1.733313666016324
 30
0.0
 10
1.336180283954149
 20
-1.733313666016324
 30
0.0
 10
1.822369384310033
 20
-2.063784450438915
 30
0.0
 10
1.822369384310033
 20
-2.063784450438915
 30
0.0
 10
1.933645968483602
 20
-2.139447360033714
 30
0.0
 10
1.951861910861861
 20
-2.232249619667632
 30
0.0
 10
1.877146402525505
 20
-2.342148165647102
 30
0.0
 10
1.802646212656977
 20
-2.451788329465178
 30
0.0
 10
1.709714761942363
 20
-2.468755424730034
 30
0.0
 10
1.598438177768793
 20
-2.3931355788288
 30
0.0
 10
1.598438177768793
 20
-2.3931355788288
 30
0.0
 10
1.491467962951786
 20
-2.320444064090028
 30
0.0
 10
1.491467962951786
 20
-2.320444064090028
 30
0.0
 10
1.491467962951786
 20
-2.320444064090028
 30
0.0
 10
1.569413248305563
 20
-2.205722384431208
 30
0.0
 10
1.569413248305563
 20
-2.205722384431208
 30
0.0
 10
1.569413248305563
 20
-2.205722384431208
 30
0.0
 10
1.676383463122571
 20
-2.278543090250677
 30
0.0
 10
1.676383463122571
 20
-2.278543090250677
 30
0.0
 10
1.712040201394907
 20
-2.302701822340991
 30
0.0
 10
1.741280449325965
 20
-2.298352389290863
 30
0.0
 10
1.76414727060931
 20
-2.265322536326031
 30
0.0
 10
1.76414727060931
 20
-2.265322536326031
 30
0.0
 10
1.764707098625664
 20
-2.264547389841849
 30
0.0
 10
1.764707098625664
 20
-2.264547389841849
 30
0.0
 10
1.787143282973353
 20
-2.231560600570582
 30
0.0
 10
1.780296155696419
 20
-2.202837116962312
 30
0.0
 10
1.744424098956255
 20
-2.178463066404169
 30
0.0
 10
1.744424098956255
 20
-2.178463066404169
 30
0.0
 10
1.550809732685214
 20
-2.046860418867625
 30
0.0
 10
1.550809732685214
 20
-2.046860418867625
 30
0.0
  0
SPLINE
  5
B1
330
6E
100
AcDbEntity
  8
Layer 1
370
     0
100
AcDbSpline
210
0.0
220
0.0
230
1.0
 70
    11
 71
     3
 72
    29
 73
    25
 74
     0
 42
0.0000000001
 43
0.0000000001
 12
1.0
 22
0.0
 32
0.0
 13
1.0
 23
0.0
 33
0.0
 40
0.0
 40
0.0
 40
0.0
 40
0.0
 40
1.0
 40
1.0
 40
1.0
 40
2.0
 40
2.0
 40
2.0
 40
3.0
 40
3.0
 40
3.0
 40
4.0
 40
4.0
 40
4.0
 40
5.0
 40
5.0
 40
5.0
 40
6.0
 40
6.0
 40
6.0
 40
7.0
 40
7.0
 40
7.0
 40
8.0
 40
8.0
 40
8.0
 40
8.0
 10
1.348238118152524
 20
-2.055430093887184
 30
0.0
 10
1.37631564635731
 20
-2.074507310136755
 30
0.0
 10
1.396986219268809
 20
-2.079890271832458
 30
0.0
 10
1.41016370949989
 20
-2.071492851587162
 30
0.0
 10
1.417096964163955
 20
-2.067057291149903
 30
0.0
 10
1.425365193328554
 20
-2.057884724420425
 30
0.0
 10
1.434882269606557
 20
-2.043802896624466
 30
0.0
 10
1.437293836446232
 20
-2.040271673752085
 30
0.0
 10
1.439705403285907
 20
-2.03648206871831
 30
0.0
 10
1.442203097512713
 20
-2.032261826748879
 30
0.0
 10
1.459730020793922
 20
-2.004614935479749
 30
0.0
 10
1.451117282080797
 20
-1.979078165195335
 30
0.0
 10
1.416235690292643
 20
-1.955350070040677
 30
0.0
 10
1.416235690292643
 20
-1.955350070040677
 30
0.0
 10
1.258278062293938
 20
-1.847992281981578
 30
0.0
 10
1.258278062293938
 20
-1.847992281981578
 30
0.0
 10
1.222319878166642
 20
-1.823532104036305
 30
0.0
 10
1.19312269392915
 20
-1.827967664473564
 30
0.0
 10
1.170557318500764
 20
-1.861126708519093
 30
0.0
 10
1.147776624604549
 20
-1.894673325806714
 30
0.0
 10
1.154322306026524
 20
-1.923569064189247
 30
0.0
 10
1.190194362766688
 20
-1.947986178440955
 30
0.0
 10
1.190194362766688
 20
-1.947986178440955
 30
0.0
 10
1.348238118152524
 20
-2.055430093887184
 30
0.0
 10
1.348238118152524
 20
-2.055430093887184
 30
0.0
  0
HATCH
  5
B2
330
6E
100
AcDbEntity
  8
Layer 1
 62
   250
420
  2301728
100
AcDbHatch
 10
0.0
 20
0.0
 30
0.0
210
0.0
220
0.0
230
1.0
  2
SOLID
 70
     1
 71
     0
 91
        2
 92
        1
 93
        1
 72
     4
 94
        3
 73
     0
 74
     1
 95
       56
 96
       52
 40
0.0
 40
0.0
 40
0.0
 40
0.0
 40
1.0
 40
1.0
 40
1.0
 40
2.0
 40
2.0
 40
2.0
 40
3.0
 40
3.0
 40
3.0
 40
4.0
 40
4.0
 40
4.0
 40
5.0
 40
5.0
 40
5.0
 40
6.0
 40
6.0
 40
6.0
 40
7.0
 40
7.0
 40
7.0
 40
8.0
 40
8.0
 40
8.0
 40
9.0
 40
9.0
 40
9.0
 40
10.0
 40
10.0
 40
10.0
 40
11.0
 40
11.0
 40
11.0
 40
12.0
 40
12.0
 40
12.0
 40
13.0
 40
13.0
 40
13.0
 40
14.0
 40
14.0
 40
14.0
 40
15.0
 40
15.0
 40
15.0
 40
16.0
 40
16.0
 40
16.0
 40
17.0
 40
17.0
 40
17.0
 40
17.0
 10
1.550809732685214
 20
-2.046860418867625
 10
1.55537448420317
 20
-2.081871201736477
 10
1.546890936570743
 20
-2.1152886279434
 10
1.525402153481497
 20
-2.146854315327002
 10
1.521913994302681
 20
-2.152021958554877
 10
1.517952134494644
 20
-2.157146538089186
 10
1.513602701444516
 20
-2.162486436091323
 10
1.48483615414268
 20
-2.196592881395296
 10
1.452150810726372
 20
-2.21653137151618
 10
1.415589734889158
 20
-2.222129651679711
 10
1.377865939325672
 20
-2.22764180445611
 10
1.329419284064347
 20
-2.21033019964273
 10
1.270292832798746
 20
-2.170108709852438
 10
1.270292832798746
 20
-2.170108709852438
 10
1.112335204800041
 20
-2.062664794406209
 10
1.112335204800041
 20
-2.062664794406209
 10
1.001015556932906
 20
-1.987001884811409
 10
0.9826273597803848
 20
-1.894113497790361
 10
1.057084485955347
 20
-1.783956569649497
 10
1.13162773951744
 20
-1.674316405831421
 10
1.224645317619186
 20
-1.657478501647262
 10
1.336180283954149
 20
-1.733313666016324
 10
1.336180283954149
 20
-1.733313666016324
 10
1.822369384310033
 20
-2.063784450438915
 10
1.822369384310033
 20
-2.063784450438915
 10
1.933645968483602
 20
-2.139447360033714
 10
1.951861910861861
 20
-2.232249619667632
 10
1.877146402525505
 20
-2.342148165647102
 10
1.802646212656977
 20
-2.451788329465178
 10
1.709714761942363
 20
-2.468755424730034
 10
1.598438177768793
 20
-2.3931355788288
 10
1.598438177768793
 20
-2.3931355788288
 10
1.491467962951786
 20
-2.320444064090028
 10
1.491467962951786
 20
-2.320444064090028
 10
1.491467962951786
 20
-2.320444064090028
 10
1.569413248305563
 20
-2.205722384431208
 10
1.569413248305563
 20
-2.205722384431208
 10
1.569413248305563
 20
-2.205722384431208
 10
1.676383463122571
 20
-2.278543090250677
 10
1.676383463122571
 20
-2.278543090250677
 10
1.712040201394907
 20
-2.302701822340991
 10
1.741280449325965
 20
-2.298352389290863
 10
1.76414727060931
 20
-2.265322536326031
 10
1.76414727060931
 20
-2.265322536326031
 10
1.764707098625664
 20
-2.264547389841849
 10
1.764707098625664
 20
-2.264547389841849
 10
1.787143282973353
 20
-2.231560600570582
 10
1.780296155696419
 20
-2.202837116962312
 10
1.744424098956255
 20
-2.178463066404169
 10
1.744424098956255
 20
-2.178463066404169
 10
1.550809732685214
 20
-2.046860418867625
 10
1.550809732685214
 20
-2.046860418867625
 97
        0
 97
        0
 92
        1
 93
        1
 72
     4
 94
        3
 73
     0
 74
     1
 95
       29
 96
       25
 40
0.0
 40
0.0
 40
0.0
 40
0.0
 40
1.0
 40
1.0
 40
1.0
 40
2.0
 40
2.0
 40
2.0
 40
3.0
 40
3.0
 40
3.0
 40
4.0
 40
4.0
 40
4.0
 40
5.0
 40
5.0
 40
5.0
 40
6.0
 40
6.0
 40
6.0
 40
7.0
 40
7.0
 40
7.0
 40
8.0
 40
8.0
 40
8.0
 40
8.0
 10
1.348238118152524
 20
-2.055430093887184
 10
1.37631564635731
 20
-2.074507310136755
 10
1.396986219268809
 20
-2.079890271832458
 10
1.41016370949989
 20
-2.071492851587162
 10
1.417096964163955
 20
-2.067057291149903
 10
1.425365193328554
 20
-2.057884724420425
 10
1.434882269606557
 20
-2.043802896624466
 10
1.437293836446232
 20
-2.040271673752085
 10
1.439705403285907
 20
-2.03648206871831
 10
1.442203097512713
 20
-2.032261826748879
 10
1.459730020793922
 20
-2.004614935479749
 10
1.451117282080797
 20
-1.979078165195335
 10
1.416235690292643
 20
-1.955350070040677
 10
1.416235690292643
 20
-1.955350070040677
 10
1.258278062293938
 20
-1.847992281981578
 10
1.258278062293938
 20
-1.847992281981578
 10
1.222319878166642
 20
-1.823532104036305
 10
1.19312269392915
 20
-1.827967664473564
 10
1.170557318500764
 20
-1.861126708519093
 10
1.147776624604549
 20
-1.894673325806714
 10
1.154322306026524
 20
-1.923569064189247
 10
1.190194362766688
 20
-1.947986178440955
 10
1.190194362766688
 20
-1.947986178440955
 10
1.348238118152524
 20
-2.055430093887184
 10
1.348238118152524
 20
-2.055430093887184
 97
        0
 97
        0
 75
     2
 76
     1
 98
        0
  0
ENDBLK
  5
71
330
6E
100
AcDbEntity
  8
0
100
AcDbBlockEnd
  0
BLOCK
  5
B6
330
B4
100
AcDbEntity
  8
0
100
AcDbBlockBegin
  2
block 4
 70
     0
 10
0.0
 20
0.0
 30
0.0
  3
block 4
  1

  0
POLYLINE
  5
B8
330
B4
100
AcDbEntity
  8
Layer 1
370
     0
100
AcDb2dPolyline
 66
     1
 10
0.0
 20
0.0
 30
0.0
  0
VERTEX
  5
B9
330
B8
100
AcDbEntity
  8
Layer 1
370
     0
100
AcDbVertex
100
AcDb2dVertex
 10
3.064067924581205
 20
-2.831093342391185
 30
0.0
  0
VERTEX
  5
BA
330
B8
100
AcDbEntity
  8
Layer 1
370
     0
100
AcDbVertex
100
AcDb2dVertex
 10
2.925575086074162
 20
-2.885611978445264
 30
0.0
  0
VERTEX
  5
BB
330
B8
100
AcDbEntity
  8
Layer 1
370
     0
100
AcDbVertex
100
AcDb2dVertex
 10
2.881477863862964
 20
-2.773560247787513
 30
0.0
  0
VERTEX
  5
BC
330
B8
100
AcDbEntity
  8
Layer 1
370
     0
100
AcDbVertex
100
AcDb2dVertex
 10
3.019970702370007
 20
-2.719041611733434
 30
0.0
  0
VERTEX
  5
BD
330
B8
100
AcDbEntity
  8
Layer 1
370
     0
100
AcDbVertex
100
AcDb2dVertex
 10
2.965710448477322
 20
-2.581065537549178
 30
0.0
  0
VERTEX
  5
BE
330
B8
100
AcDbEntity
  8
Layer 1
370
     0
100
AcDbVertex
100
AcDb2dVertex
 10
3.077245414812286
 20
-2.537140570112243
 30
0.0
  0
VERTEX
  5
BF
330
B8
100
AcDbEntity
  8
Layer 1
370
     0
100
AcDbVertex
100
AcDb2dVertex
 10
3.131591796092102
 20
-2.67520277168363
 30
0.0
  0
VERTEX
  5
C0
330
B8
100
AcDbEntity
  8
Layer 1
370
     0
100
AcDbVertex
100
AcDb2dVertex
 10
3.269567870276358
 20
-2.620856390403814
 30
0.0
  0
VERTEX
  5
C1
330
B8
100
AcDbEntity
  8
Layer 1
370
     0
100
AcDbVertex
100
AcDb2dVertex
 10
3.313665092487556
 20
-2.732908121061565
 30
0.0
  0
VERTEX
  5
C2
330
B8
100
AcDbEntity
  8
Layer 1
370
     0
100
AcDbVertex
100
AcDb2dVertex
 10
3.1756890183033
 20
-2.787254502341381
 30
0.0
  0
VERTEX
  5
C3
330
B8
100
AcDbEntity
  8
Layer 1
370
     0
100
AcDbVertex
100
AcDb2dVertex
 10
3.229949272195985
 20
-2.925230576525637
 30
0.0
  0
VERTEX
  5
C4
330
B8
100
AcDbEntity
  8
Layer 1
370
     0
100
AcDbVertex
100
AcDb2dVertex
 10
3.118414305861021
 20
-2.969069416575441
 30
0.0
  0
VERTEX
  5
C5
330
B8
100
AcDbEntity
  8
Layer 1
370
     0
100
AcDbVertex
100
AcDb2dVertex
 10
3.064067924581205
 20
-2.831093342391185
 30
0.0
  0
SEQEND
  5
C6
330
B8
100
AcDbEntity
  8
Layer 1
370
     0
  0
HATCH
  5
C7
330
B4
100
AcDbEntity
  8
Layer 1
 62
   250
420
  2301728
100
AcDbHatch
 10
0.0
 20
0.0
 30
0.0
210
0.0
220
0.0
230
1.0
  2
SOLID
 70
     1
 71
     0
 91
        1
 92
        1
 93
       12
 72
     1
 10
3.064067924581205
 20
-2.831093342391185
 11
2.925575086074162
 21
-2.885611978445264
 72
     1
 10
2.925575086074162
 20
-2.885611978445264
 11
2.881477863862964
 21
-2.773560247787513
 72
     1
 10
2.881477863862964
 20
-2.773560247787513
 11
3.019970702370007
 21
-2.719041611733434
 72
     1
 10
3.019970702370007
 20
-2.719041611733434
 11
2.965710448477322
 21
-2.581065537549178
 72
     1
 10
2.965710448477322
 20
-2.581065537549178
 11
3.077245414812286
 21
-2.537140570112243
 72
     1
 10
3.077245414812286
 20
-2.537140570112243
 11
3.131591796092102
 21
-2.67520277168363
 72
     1
 10
3.131591796092102
 20
-2.67520277168363
 11
3.269567870276358
 21
-2.620856390403814
 72
     1
 10
3.269567870276358
 20
-2.620856390403814
 11
3.313665092487556
 21
-2.732908121061565
 72
     1
 10
3.313665092487556
 20
-2.732908121061565
 11
3.1756890183033
 21
-2.787254502341381
 72
     1
 10
3.1756890183033
 20
-2.787254502341381
 11
3.229949272195985
 21
-2.925230576525637
 72
     1
 10
3.229949272195985
 20
-2.925230576525637
 11
3.118414305861021
 21
-2.969069416575441
 72
     1
 10
3.118414305861021
 20
-2.969069416575441
 11
3.064067924581205
 21
-2.831093342391185
 97
        0
 75
     2
 76
     1
 98
        0
  0
POLYLINE
  5
C8
330
B4
100
AcDbEntity
  8
Layer 1
370
     0
100
AcDb2dPolyline
 66
     1
 10
0.0
 20
0.0
 30
0.0
  0
VERTEX
  5
C9
330
C8
100
AcDbEntity
  8
Layer 1
370
     0
100
AcDbVertex
100
AcDb2dVertex
 10
3.017645262917464
 20
-3.093265108818698
 30
0.0
  0
VERTEX
  5
CA
330
C8
100
AcDbEntity
  8
Layer 1
370
     0
100
AcDbVertex
100
AcDb2dVertex
 10
3.336144340528811
 20
-3.902518038303885
 30
0.0
  0
VERTEX
  5
CB
330
C8
100
AcDbEntity
  8
Layer 1
370
     0
100
AcDbVertex
100
AcDb2dVertex
 10
3.463526746095924
 20
-3.8523918989935
 30
0.0
  0
VERTEX
  5
CC
330
C8
100
AcDbEntity
  8
Layer 1
370
     0
100
AcDbVertex
100
AcDb2dVertex
 10
3.516408961794509
 20
-3.986578368143981
 30
0.0
  0
VERTEX
  5
CD
330
C8
100
AcDbEntity
  8
Layer 1
370
     0
100
AcDbVertex
100
AcDb2dVertex
 10
3.125390624218653
 20
-4.140401881560386
 30
0.0
  0
VERTEX
  5
CE
330
C8
100
AcDbEntity
  8
Layer 1
370
     0
100
AcDbVertex
100
AcDb2dVertex
 10
3.072594535907199
 20
-4.006215412409905
 30
0.0
  0
VERTEX
  5
CF
330
C8
100
AcDbEntity
  8
Layer 1
370
     0
100
AcDbVertex
100
AcDb2dVertex
 10
3.200063068861443
 20
-3.956089273099519
 30
0.0
  0
VERTEX
  5
D0
330
C8
100
AcDbEntity
  8
Layer 1
370
     0
100
AcDbVertex
100
AcDb2dVertex
 10
2.934360079561549
 20
-3.281022812764814
 30
0.0
  0
VERTEX
  5
D1
330
C8
100
AcDbEntity
  8
Layer 1
370
     0
100
AcDbVertex
100
AcDb2dVertex
 10
2.806891546607305
 20
-3.331148952075199
 30
0.0
  0
VERTEX
  5
D2
330
C8
100
AcDbEntity
  8
Layer 1
370
     0
100
AcDbVertex
100
AcDb2dVertex
 10
2.754095458295851
 20
-3.196962482924718
 30
0.0
  0
VERTEX
  5
D3
330
C8
100
AcDbEntity
  8
Layer 1
370
     0
100
AcDbVertex
100
AcDb2dVertex
 10
3.017645262917464
 20
-3.093265108818698
 30
0.0
  0
SEQEND
  5
D4
330
C8
100
AcDbEntity
  8
Layer 1
370
     0
  0
HATCH
  5
D5
330
B4
100
AcDbEntity
  8
Layer 1
 62
   250
420
  2301728
100
AcDbHatch
 10
0.0
 20
0.0
 30
0.0
210
0.0
220
0.0
230
1.0
  2
SOLID
 70
     1
 71
     0
 91
        1
 92
        1
 93
       10
 72
     1
 10
3.017645262917464
 20
-3.093265108818698
 11
3.336144340528811
 21
-3.902518038303885
 72
     1
 10
3.336144340528811
 20
-3.902518038303885
 11
3.463526746095924
 21
-3.8523918989935
 72
     1
 10
3.463526746095924
 20
-3.8523918989935
 11
3.516408961794509
 21
-3.986578368143981
 72
     1
 10
3.516408961794509
 20
-3.986578368143981
 11
3.125390624218653
 21
-4.140401881560386
 72
     1
 10
3.125390624218653
 20
-4.140401881560386
 11
3.072594535907199
 21
-4.006215412409905
 72
     1
 10
3.072594535907199
 20
-4.006215412409905
 11
3.200063068861443
 21
-3.956089273099519
 72
     1
 10
3.200063068861443
 20
-3.956089273099519
 11
2.934360079561549
 21
-3.281022812764814
 72
     1
 10
2.934360079561549
 20
-3.281022812764814
 11
2.806891546607305
 21
-3.331148952075199
 72
     1
 10
2.806891546607305
 20
-3.331148952075199
 11
2.754095458295851
 21
-3.196962482924718
 72
     1
 10
2.754095458295851
 20
-3.196962482924718
 11
3.017645262917464
 21
-3.093265108818698
 97
        0
 75
     2
 76
     1
 98
        0
  0
SPLINE
  5
D6
330
B4
100
AcDbEntity
  8
Layer 1
370
     0
100
AcDbSpline
210
0.0
220
0.0
230
1.0
 70
    11
 71
     3
 72
    23
 73
    19
 74
     0
 42
0.0000000001
 43
0.0000000001
 12
1.0
 22
0.0
 32
0.0
 13
1.0
 23
0.0
 33
0.0
 40
0.0
 40
0.0
 40
0.0
 40
0.0
 40
1.0
 40
1.0
 40
1.0
 40
2.0
 40
2.0
 40
2.0
 40
3.0
 40
3.0
 40
3.0
 40
4.0
 40
4.0
 40
4.0
 40
5.0
 40
5.0
 40
5.0
 40
6.0
 40
6.0
 40
6.0
 40
6.0
 10
3.95540025400247
 20
-3.602105711990099
 30
0.0
 10
4.007421195829743
 20
-3.73422512384943
 30
0.0
 10
3.968147107297894
 20
-3.825950791144207
 30
0.0
 10
3.837664115794056
 20
-3.877282713874429
 30
0.0
 10
3.707525633838744
 20
-3.928528509217521
 30
0.0
 10
3.616402858253886
 20
-3.888134764652967
 30
0.0
 10
3.564468043813744
 20
-3.756015352793635
 30
0.0
 10
3.564468043813744
 20
-3.756015352793635
 30
0.0
 10
3.337350123948649
 20
-3.179047986401419
 30
0.0
 10
3.337350123948649
 20
-3.179047986401419
 30
0.0
 10
3.285243054734245
 20
-3.046584064993562
 30
0.0
 10
3.324344888491831
 20
-2.954772270311654
 30
0.0
 10
3.454483370447143
 20
-2.903526474968563
 30
0.0
 10
3.584966361950981
 20
-2.85219455223834
 30
0.0
 10
3.676261392310102
 20
-2.892674424190026
 30
0.0
 10
3.728282334137374
 20
-3.025138345597882
 30
0.0
 10
3.728282334137374
 20
-3.025138345597882
 30
0.0
 10
3.95540025400247
 20
-3.602105711990099
 30
0.0
 10
3.95540025400247
 20
-3.602105711990099
 30
0.0
  0
SPLINE
  5
D7
330
B4
100
AcDbEntity
  8
Layer 1
370
     0
100
AcDbSpline
210
0.0
220
0.0
230
1.0
 70
    11
 71
     3
 72
    26
 73
    22
 74
     0
 42
0.0000000001
 43
0.0000000001
 12
1.0
 22
0.0
 32
0.0
 13
1.0
 23
0.0
 33
0.0
 40
0.0
 40
0.0
 40
0.0
 40
0.0
 40
1.0
 40
1.0
 40
1.0
 40
2.0
 40
2.0
 40
2.0
 40
3.0
 40
3.0
 40
3.0
 40
4.0
 40
4.0
 40
4.0
 40
5.0
 40
5.0
 40
5.0
 40
6.0
 40
6.0
 40
6.0
 40
7.0
 40
7.0
 40
7.0
 40
7.0
 10
3.592201062470005
 20
-3.078709580393517
 30
0.0
 10
3.575492349366544
 20
-3.03607652376355
 30
0.0
 10
3.547328693774626
 20
-3.022468396596814
 30
0.0
 10
3.507968477855647
 20
-3.037971326280438
 30
0.0
 10
3.507968477855647
 20
-3.037971326280438
 30
0.0
 10
3.507021076597203
 20
-3.038401963216094
 30
0.0
 10
3.507021076597203
 20
-3.038401963216094
 30
0.0
 10
3.467833115452486
 20
-3.053818765512587
 30
0.0
 10
3.456636555125424
 20
-3.082757567588686
 30
0.0
 10
3.473517523003149
 20
-3.125390624218653
 30
0.0
 10
3.473517523003149
 20
-3.125390624218653
 30
0.0
 10
3.700549315481113
 20
-3.702444117998
 30
0.0
 10
3.700549315481113
 20
-3.702444117998
 30
0.0
 10
3.717344155971706
 20
-3.745077174627967
 30
0.0
 10
3.745507811563623
 20
-3.758685301794704
 30
0.0
 10
3.784954154869734
 20
-3.74318237211108
 30
0.0
 10
3.824658880337238
 20
-3.727507187653193
 30
0.0
 10
3.836113822825694
 20
-3.6983100034157
 30
0.0
 10
3.819318982335101
 20
-3.655676946785734
 30
0.0
 10
3.819318982335101
 20
-3.655676946785734
 30
0.0
 10
3.592201062470005
 20
-3.078709580393517
 30
0.0
 10
3.592201062470005
 20
-3.078709580393517
 30
0.0
  0
HATCH
  5
D8
330
B4
100
AcDbEntity
  8
Layer 1
 62
   250
420
  2301728
100
AcDbHatch
 10
0.0
 20
0.0
 30
0.0
210
0.0
220
0.0
230
1.0
  2
SOLID
 70
     1
 71
     0
 91
        2
 92
        1
 93
        1
 72
     4
 94
        3
 73
     0
 74
     1
 95
       23
 96
       19
 40
0.0
 40
0.0
 40
0.0
 40
0.0
 40
1.0
 40
1.0
 40
1.0
 40
2.0
 40
2.0
 40
2.0
 40
3.0
 40
3.0
 40
3.0
 40
4.0
 40
4.0
 40
4.0
 40
5.0
 40
5.0
 40
5.0
 40
6.0
 40
6.0
 40
6.0
 40
6.0
 10
3.95540025400247
 20
-3.602105711990099
 10
4.007421195829743
 20
-3.73422512384943
 10
3.968147107297894
 20
-3.825950791144207
 10
3.837664115794056
 20
-3.877282713874429
 10
3.707525633838744
 20
-3.928528509217521
 10
3.616402858253886
 20
-3.888134764652967
 10
3.564468043813744
 20
-3.756015352793635
 10
3.564468043813744
 20
-3.756015352793635
 10
3.337350123948649
 20
-3.179047986401419
 10
3.337350123948649
 20
-3.179047986401419
 10
3.285243054734245
 20
-3.046584064993562
 10
3.324344888491831
 20
-2.954772270311654
 10
3.454483370447143
 20
-2.903526474968563
 10
3.584966361950981
 20
-2.85219455223834
 10
3.676261392310102
 20
-2.892674424190026
 10
3.728282334137374
 20
-3.025138345597882
 10
3.728282334137374
 20
-3.025138345597882
 10
3.95540025400247
 20
-3.602105711990099
 10
3.95540025400247
 20
-3.602105711990099
 97
        0
 97
        0
 92
        1
 93
        1
 72
     4
 94
        3
 73
     0
 74
     1
 95
       26
 96
       22
 40
0.0
 40
0.0
 40
0.0
 40
0.0
 40
1.0
 40
1.0
 40
1.0
 40
2.0
 40
2.0
 40
2.0
 40
3.0
 40
3.0
 40
3.0
 40
4.0
 40
4.0
 40
4.0
 40
5.0
 40
5.0
 40
5.0
 40
6.0
 40
6.0
 40
6.0
 40
7.0
 40
7.0
 40
7.0
 40
7.0
 10
3.592201062470005
 20
-3.078709580393517
 10
3.575492349366544
 20
-3.03607652376355
 10
3.547328693774626
 20
-3.022468396596814
 10
3.507968477855647
 20
-3.037971326280438
 10
3.507968477855647
 20
-3.037971326280438
 10
3.507021076597203
 20
-3.038401963216094
 10
3.507021076597203
 20
-3.038401963216094
 10
3.467833115452486
 20
-3.053818765512587
 10
3.456636555125424
 20
-3.082757567588686
 10
3.473517523003149
 20
-3.125390624218653
 10
3.473517523003149
 20
-3.125390624218653
 10
3.700549315481113
 20
-3.702444117998
 10
3.700549315481113
 20
-3.702444117998
 10
3.717344155971706
 20
-3.745077174627967
 10
3.745507811563623
 20
-3.758685301794704
 10
3.784954154869734
 20
-3.74318237211108
 10
3.824658880337238
 20
-3.727507187653193
 10
3.836113822825694
 20
-3.6983100034157
 10
3.819318982335101
 20
-3.655676946785734
 10
3.819318982335101
 20
-3.655676946785734
 10
3.592201062470005
 20
-3.078709580393517
 10
3.592201062470005
 20
-3.078709580393517
 97
        0
 97
        0
 75
     2
 76
     1
 98
        0
  0
ENDBLK
  5
B7
330
B4
100
AcDbEntity
  8
0
100
AcDbBlockEnd
  0
ENDSEC
  0
SECTION
  2
ENTITIES
  0
INSERT
  5
42
330
1F
100
AcDbEntity
  8
Layer 1
100
AcDbBlockReference
  2
block 2
 10
0.0
 20
0.0
 30
0.0
  0
INSERT
  5
B5
330
1F
100
AcDbEntity
  8
Layer 1
100
AcDbBlockReference
  2
block 4
 10
0.0
 20
0.0
 30
0.0
  0
ENDSEC
  0
SECTION
  2
OBJECTS
  0
DICTIONARY
  5
C
330
0
100
AcDbDictionary
281
     1
  3
ACAD_GROUP
350
D
  3
ACAD_LAYOUT
350
1A
  3
ACAD_MATERIAL
350
3B
  3
ACAD_MLEADERSTYLE
350
DA
  3
ACAD_MLINESTYLE
350
17
  3
ACAD_PLOTSETTINGS
350
19
  3
ACAD_PLOTSTYLENAME
350
E
  3
ACAD_TABLESTYLE
350
D9
  3
ACAD_VISUALSTYLE
350
2A
  0
SUN
  5
3F
330
29
100
AcDbSun
 90
        1
290
     0
 63
     7
421
 16777215
 40
1.0
291
     1
 91
  2455826
 92
 54000000
292
     0
 70
     2
 71
   256
280
     1
  0
DICTIONARY
  5
D
102
{ACAD_REACTORS
330
C
102
}
330
C
100
AcDbDictionary
281
     1
  0
DICTIONARY
  5
1A
102
{ACAD_REACTORS
330
C
102
}
330
C
100
AcDbDictionary
281
     1
  3
Layout1
350
1E
  3
Layout2
350
26
  3
Model
350
22
  0
DICTIONARY
  5
3B
102
{ACAD_REACTORS
330
C
102
}
330
C
100
AcDbDictionary
281
     1
  3
ByBlock
350
3D
  3
ByLayer
350
3C
  3
Global
350
3E
  0
DICTIONARY
  5
DA
102
{ACAD_REACTORS
330
C
102
}
330
C
100
AcDbDictionary
281
     1
  0
DICTIONARY
  5
17
102
{ACAD_REACTORS
330
C
102
}
330
C
100
AcDbDictionary
281
     1
  3
Standard
350
18
  0
DICTIONARY
  5
19
102
{ACAD_REACTORS
330
C
102
}
330
C
100
AcDbDictionary
281
     1
  0
ACDBDICTIONARYWDFLT
  5
E
102
{ACAD_REACTORS
330
C
102
}
330
C
100
AcDbDictionary
281
     1
  3
Normal
350
F
100
AcDbDictionaryWithDefault
340
F
  0
DICTIONARY
  5
D9
102
{ACAD_REACTORS
330
C
102
}
330
C
100
AcDbDictionary
281
     1
  0
DICTIONARY
  5
2A
102
{ACAD_REACTORS
330
C
102
}
330
C
100
AcDbDictionary
281
     1
  3
2dWireframe
350
2F
  3
3D Hidden
350
31
  3
3dWireframe
350
30
  3
Basic
350
32
  3
Brighten
350
36
  3
ColorChange
350
3A
  3
Conceptual
350
34
  3
Dim
350
35
  3
Facepattern
350
39
  3
Flat
350
2B
  3
FlatWithEdges
350
2C
  3
Gouraud
350
2D
  3
GouraudWithEdges
350
2E
  3
Linepattern
350
38
  3
Realistic
350
33
  3
Thicken
350
37
  0
LAYOUT
  5
1E
102
{ACAD_REACTORS
330
1A
102
}
330
1A
100
AcDbPlotSettings
  1

  2
none_device
  4

  6

 40
0.0
 41
0.0
 42
0.0
 43
0.0
 44
0.0
 45
0.0
 46
0.0
 47
0.0
 48
0.0
 49
0.0
140
0.0
141
0.0
142
1.0
143
1.0
 70
   688
 72
     0
 73
     0
 74
     5
  7

 75
    16
 76
     0
 77
     2
 78
   300
147
1.0
148
0.0
149
0.0
100
AcDbLayout
  1
Layout1
 70
     1
 71
     1
 10
0.0
 20
0.0
 11
12.0
 21
9.0
 12
0.0
 22
0.0
 32
0.0
 14
1.000000000000000E+20
 24
1.000000000000000E+20
 34
1.000000000000000E+20
 15
-1.000000000000000E+20
 25
-1.000000000000000E+20
 35
-1.000000000000000E+20
146
0.0
 13
0.0
 23
0.0
 33
0.0
 16
1.0
 26
0.0
 36
0.0
 17
0.0
 27
1.0
 37
0.0
 76
     0
330
1B
  0
LAYOUT
  5
26
102
{ACAD_REACTORS
330
1A
102
}
330
1A
100
AcDbPlotSettings
  1

  2
none_device
  4

  6

 40
0.0
 41
0.0
 42
0.0
 43
0.0
 44
0.0
 45
0.0
 46
0.0
 47
0.0
 48
0.0
 49
0.0
140
0.0
141
0.0
142
1.0
143
1.0
 70
   688
 72
     0
 73
     0
 74
     5
  7

 75
    16
 76
     0
 77
     2
 78
   300
147
1.0
148
0.0
149
0.0
100
AcDbLayout
  1
Layout2
 70
     1
 71
     2
 10
0.0
 20
0.0
 11
0.0
 21
0.0
 12
0.0
 22
0.0
 32
0.0
 14
0.0
 24
0.0
 34
0.0
 15
0.0
 25
0.0
 35
0.0
146
0.0
 13
0.0
 23
0.0
 33
0.0
 16
1.0
 26
0.0
 36
0.0
 17
0.0
 27
1.0
 37
0.0
 76
     0
330
23
  0
LAYOUT
  5
22
102
{ACAD_REACTORS
330
1A
102
}
330
1A
100
AcDbPlotSettings
  1

  2
none_device
  4

  6

 40
0.0
 41
0.0
 42
0.0
 43
0.0
 44
0.0
 45
0.0
 46
0.0
 47
0.0
 48
0.0
 49
0.0
140
0.0
141
0.0
142
1.0
143
1.0
 70
  1712
 72
     0
 73
     0
 74
     0
  7

 75
     0
 76
     0
 77
     2
 78
   300
147
1.0
148
0.0
149
0.0
100
AcDbLayout
  1
Model
 70
     1
 71
     0
 10
0.0
 20
0.0
 11
12.0
 21
9.0
 12
0.0
 22
0.0
 32
0.0
 14
1.000000000000000E+20
 24
1.000000000000000E+20
 34
1.000000000000000E+20
 15
-1.000000000000000E+20
 25
-1.000000000000000E+20
 35
-1.000000000000000E+20
146
0.0
 13
0.0
 23
0.0
 33
0.0
 16
1.0
 26
0.0
 36
0.0
 17
0.0
 27
1.0
 37
0.0
 76
     0
330
1F
331
29
  0
MATERIAL
  5
3D
102
{ACAD_REACTORS
330
3B
102
}
330
3B
100
AcDbMaterial
  1
ByBlock
 72
     1
 94
      127
  0
MATERIAL
  5
3C
102
{ACAD_REACTORS
330
3B
102
}
330
3B
100
AcDbMaterial
  1
ByLayer
 72
     1
 94
      127
  0
MATERIAL
  5
3E
102
{ACAD_REACTORS
330
3B
102
}
330
3B
100
AcDbMaterial
  1
Global
 72
     1
 94
      127
  0
MLINESTYLE
  5
18
102
{ACAD_REACTORS
330
17
102
}
330
17
100
AcDbMlineStyle
  2
Standard
 70
     0
  3

 62
   256
 51
90.0
 52
90.0
 71
     2
 49
0.5
 62
   256
  6
BYLAYER
 49
-0.5
 62
   256
  6
BYLAYER
  0
ACDBPLACEHOLDER
  5
F
102
{ACAD_REACTORS
330
E
102
}
330
E
  0
VISUALSTYLE
  5
2F
102
{ACAD_REACTORS
330
2A
102
}
330
2A
100
AcDbVisualStyle
  2
2dWireframe
 70
     4
177
     2
291
     0
 71
     0
176
     1
 72
     2
176
     1
 73
     0
176
     1
 90
        0
176
     1
 40
-0.6
176
     1
 41
-30.0
176
     1
 62
     5
 63
     7
421
 16777215
176
     1
 74
     1
176
     1
 91
        4
176
     1
 64
     7
176
     1
 65
   257
176
     1
 75
     1
176
     1
175
     1
176
     1
 42
1.0
176
     1
 92
        0
176
     1
 66
   257
176
     1
 43
1.0
176
     1
 76
     1
176
     1
 77
     6
176
     1
 78
     2
176
     1
 67
     7
176
     1
 79
     5
176
     1
170
     0
176
     1
171
     0
176
     1
290
     0
176
     1
 93
        1
176
     1
 44
0.0
176
     1
173
     0
176
     1
  0
VISUALSTYLE
  5
31
102
{ACAD_REACTORS
330
2A
102
}
330
2A
100
AcDbVisualStyle
  2
3D Hidden
 70
     6
177
     2
291
     0
 71
     1
176
     1
 72
     2
176
     1
 73
     2
176
     1
 90
        0
176
     1
 40
-0.6
176
     1
 41
-30.0
176
     1
 62
     5
 63
     7
421
 16777215
176
     1
 74
     2
176
     1
 91
        2
176
     1
 64
     7
176
     1
 65
   257
176
     1
 75
     2
176
     1
175
     1
176
     1
 42
40.0
176
     1
 92
        0
176
     1
 66
   257
176
     1
 43
1.0
176
     1
 76
     1
176
     1
 77
     6
176
     1
 78
     2
176
     1
 67
     7
176
     1
 79
     3
176
     1
170
     0
176
     1
171
     0
176
     1
290
     0
176
     1
 93
        1
176
     1
 44
0.0
176
     1
173
     0
176
     1
  0
VISUALSTYLE
  5
30
102
{ACAD_REACTORS
330
2A
102
}
330
2A
100
AcDbVisualStyle
  2
3dWireframe
 70
     5
177
     2
291
     0
 71
     0
176
     1
 72
     2
176
     1
 73
     0
176
     1
 90
        0
176
     1
 40
-0.6
176
     1
 41
-30.0
176
     1
 62
     5
 63
     7
421
 16777215
176
     1
 74
     1
176
     1
 91
        4
176
     1
 64
     7
176
     1
 65
   257
176
     1
 75
     1
176
     1
175
     1
176
     1
 42
1.0
176
     1
 92
        0
176
     1
 66
   257
176
     1
 43
1.0
176
     1
 76
     1
176
     1
 77
     6
176
     1
 78
     2
176
     1
 67
     7
176
     1
 79
     5
176
     1
170
     0
176
     1
171
     0
176
     1
290
     0
176
     1
 93
        1
176
     1
 44
0.0
176
     1
173
     0
176
     1
  0
VISUALSTYLE
  5
32
102
{ACAD_REACTORS
330
2A
102
}
330
2A
100
AcDbVisualStyle
  2
Basic
 70
     7
177
     2
291
     1
 71
     1
176
     1
 72
     0
176
     1
 73
     1
176
     1
 90
        0
176
     1
 40
-0.6
176
     1
 41
-30.0
176
     1
 62
     5
 63
     7
421
 16777215
176
     1
 74
     0
176
     1
 91
        4
176
     1
 64
     7
176
     1
 65
   257
176
     1
 75
     1
176
     1
175
     1
176
     1
 42
1.0
176
     1
 92
        8
176
     1
 66
     7
176
     1
 43
1.0
176
     1
 76
     1
176
     1
 77
     6
176
     1
 78
     2
176
     1
 67
     7
176
     1
 79
     5
176
     1
170
     0
176
     1
171
     0
176
     1
290
     0
176
     1
 93
        1
176
     1
 44
0.0
176
     1
173
     0
176
     1
  0
VISUALSTYLE
  5
36
102
{ACAD_REACTORS
330
2A
102
}
330
2A
100
AcDbVisualStyle
  2
Brighten
 70
    12
177
     2
291
     1
 71
     2
176
     1
 72
     2
176
     1
 73
     0
176
     1
 90
        0
176
     1
 40
-0.6
176
     1
 41
-30.0
176
     1
 62
     5
 63
     7
421
 16777215
176
     1
 74
     1
176
     1
 91
        4
176
     1
 64
     7
176
     1
 65
   257
176
     1
 75
     1
176
     1
175
     1
176
     1
 42
1.0
176
     1
 92
        8
176
     1
 66
     7
176
     1
 43
1.0
176
     1
 76
     1
176
     1
 77
     6
176
     1
 78
     2
176
     1
 67
     7
176
     1
 79
     5
176
     1
170
     0
176
     1
171
     0
176
     1
290
     0
176
     1
 93
        1
176
     1
 44
50.0
176
     1
173
     0
176
     1
  0
VISUALSTYLE
  5
3A
102
{ACAD_REACTORS
330
2A
102
}
330
2A
100
AcDbVisualStyle
  2
ColorChange
 70
    16
177
     2
291
     1
 71
     2
176
     1
 72
     2
176
     1
 73
     3
176
     1
 90
        0
176
     1
 40
-0.6
176
     1
 41
-30.0
176
     1
 62
     5
 63
     8
421
  8421504
176
     1
 74
     1
176
     1
 91
        4
176
     1
 64
     7
176
     1
 65
   257
176
     1
 75
     1
176
     1
175
     1
176
     1
 42
1.0
176
     1
 92
        8
176
     1
 66
     8
424
  8421504
176
     1
 43
1.0
176
     1
 76
     1
176
     1
 77
     6
176
     1
 78
     2
176
     1
 67
     7
176
     1
 79
     5
176
     1
170
     0
176
     1
171
     0
176
     1
290
     0
176
     1
 93
        1
176
     1
 44
0.0
176
     1
173
     0
176
     1
  0
VISUALSTYLE
  5
34
102
{ACAD_REACTORS
330
2A
102
}
330
2A
100
AcDbVisualStyle
  2
Conceptual
 70
     9
177
     2
291
     0
 71
     3
176
     1
 72
     2
176
     1
 73
     0
176
     1
 90
        0
176
     1
 40
-0.6
176
     1
 41
-30.0
176
     1
 62
     5
 63
     7
421
 16777215
176
     1
 74
     2
176
     1
 91
        2
176
     1
 64
     7
176
     1
 65
   257
176
     1
 75
     1
176
     1
175
     1
176
     1
 42
40.0
176
     1
 92
        8
176
     1
 66
     7
176
     1
 43
1.0
176
     1
 76
     1
176
     1
 77
     6
176
     1
 78
     2
176
     1
 67
     7
176
     1
 79
     3
176
     1
170
     0
176
     1
171
     0
176
     1
290
     0
176
     1
 93
        1
176
     1
 44
0.0
176
     1
173
     0
176
     1
  0
VISUALSTYLE
  5
35
102
{ACAD_REACTORS
330
2A
102
}
330
2A
100
AcDbVisualStyle
  2
Dim
 70
    11
177
     2
291
     1
 71
     2
176
     1
 72
     2
176
     1
 73
     0
176
     1
 90
        0
176
     1
 40
-0.6
176
     1
 41
-30.0
176
     1
 62
     5
 63
     7
421
 16777215
176
     1
 74
     1
176
     1
 91
        4
176
     1
 64
     7
176
     1
 65
   257
176
     1
 75
     1
176
     1
175
     1
176
     1
 42
1.0
176
     1
 92
        8
176
     1
 66
     7
176
     1
 43
1.0
176
     1
 76
     1
176
     1
 77
     6
176
     1
 78
     2
176
     1
 67
     7
176
     1
 79
     5
176
     1
170
     0
176
     1
171
     0
176
     1
290
     0
176
     1
 93
        1
176
     1
 44
-50.0
176
     1
173
     0
176
     1
  0
VISUALSTYLE
  5
39
102
{ACAD_REACTORS
330
2A
102
}
330
2A
100
AcDbVisualStyle
  2
Facepattern
 70
    15
177
     2
291
     1
 71
     2
176
     1
 72
     2
176
     1
 73
     0
176
     1
 90
        0
176
     1
 40
-0.6
176
     1
 41
-30.0
176
     1
 62
     5
 63
     7
421
 16777215
176
     1
 74
     1
176
     1
 91
        4
176
     1
 64
     7
176
     1
 65
   257
176
     1
 75
     1
176
     1
175
     1
176
     1
 42
1.0
176
     1
 92
        8
176
     1
 66
     7
176
     1
 43
1.0
176
     1
 76
     1
176
     1
 77
     6
176
     1
 78
     2
176
     1
 67
     7
176
     1
 79
     5
176
     1
170
     0
176
     1
171
     0
176
     1
290
     0
176
     1
 93
        1
176
     1
 44
0.0
176
     1
173
     0
176
     1
  0
VISUALSTYLE
  5
2B
102
{ACAD_REACTORS
330
2A
102
}
330
2A
100
AcDbVisualStyle
  2
Flat
 70
     0
177
     2
291
     1
 71
     2
176
     1
 72
     1
176
     1
 73
     1
176
     1
 90
        2
176
     1
 40
-0.6
176
     1
 41
30.0
176
     1
 62
     5
 63
     7
421
 16777215
176
     1
 74
     0
176
     1
 91
        4
176
     1
 64
     7
176
     1
 65
   257
176
     1
 75
     1
176
     1
175
     1
176
     1
 42
1.0
176
     1
 92
        8
176
     1
 66
     7
176
     1
 43
1.0
176
     1
 76
     1
176
     1
 77
     6
176
     1
 78
     2
176
     1
 67
     7
176
     1
 79
     5
176
     1
170
     0
176
     1
171
     0
176
     1
290
     0
176
     1
 93
       13
176
     1
 44
0.0
176
     1
173
     0
176
     1
  0
VISUALSTYLE
  5
2C
102
{ACAD_REACTORS
330
2A
102
}
330
2A
100
AcDbVisualStyle
  2
FlatWithEdges
 70
     1
177
     2
291
     1
 71
     2
176
     1
 72
     1
176
     1
 73
     1
176
     1
 90
        2
176
     1
 40
-0.6
176
     1
 41
30.0
176
     1
 62
     5
 63
     7
421
 16777215
176
     1
 74
     1
176
     1
 91
        4
176
     1
 64
     7
176
     1
 65
   257
176
     1
 75
     1
176
     1
175
     1
176
     1
 42
1.0
176
     1
 92
        0
176
     1
 66
   257
176
     1
 43
1.0
176
     1
 76
     1
176
     1
 77
     6
176
     1
 78
     2
176
     1
 67
     7
176
     1
 79
     5
176
     1
170
     0
176
     1
171
     0
176
     1
290
     0
176
     1
 93
       13
176
     1
 44
0.0
176
     1
173
     0
176
     1
  0
VISUALSTYLE
  5
2D
102
{ACAD_REACTORS
330
2A
102
}
330
2A
100
AcDbVisualStyle
  2
Gouraud
 70
     2
177
     2
291
     1
 71
     2
176
     1
 72
     2
176
     1
 73
     1
176
     1
 90
        2
176
     1
 40
-0.6
176
     1
 41
30.0
176
     1
 62
     5
 63
     7
421
 16777215
176
     1
 74
     0
176
     1
 91
        4
176
     1
 64
     7
176
     1
 65
   257
176
     1
 75
     1
176
     1
175
     1
176
     1
 42
1.0
176
     1
 92
        0
176
     1
 66
     7
176
     1
 43
1.0
176
     1
 76
     1
176
     1
 77
     6
176
     1
 78
     2
176
     1
 67
     7
176
     1
 79
     5
176
     1
170
     0
176
     1
171
     0
176
     1
290
     0
176
     1
 93
       13
176
     1
 44
0.0
176
     1
173
     0
176
     1
  0
VISUALSTYLE
  5
2E
102
{ACAD_REACTORS
330
2A
102
}
330
2A
100
AcDbVisualStyle
  2
GouraudWithEdges
 70
     3
177
     2
291
     1
 71
     2
176
     1
 72
     2
176
     1
 73
     1
176
     1
 90
        2
176
     1
 40
-0.6
176
     1
 41
30.0
176
     1
 62
     5
 63
     7
421
 16777215
176
     1
 74
     1
176
     1
 91
        4
176
     1
 64
     7
176
     1
 65
   257
176
     1
 75
     1
176
     1
175
     1
176
     1
 42
1.0
176
     1
 92
        0
176
     1
 66
   257
176
     1
 43
1.0
176
     1
 76
     1
176
     1
 77
     6
176
     1
 78
     2
176
     1
 67
     7
176
     1
 79
     5
176
     1
170
     0
176
     1
171
     0
176
     1
290
     0
176
     1
 93
       13
176
     1
 44
0.0
176
     1
173
     0
176
     1
  0
VISUALSTYLE
  5
38
102
{ACAD_REACTORS
330
2A
102
}
330
2A
100
AcDbVisualStyle
  2
Linepattern
 70
    14
177
     2
291
     1
 71
     2
176
     1
 72
     2
176
     1
 73
     0
176
     1
 90
        0
176
     1
 40
-0.6
176
     1
 41
-30.0
176
     1
 62
     5
 63
     7
421
 16777215
176
     1
 74
     1
176
     1
 91
        4
176
     1
 64
     7
176
     1
 65
   257
176
     1
 75
     7
176
     1
175
     7
176
     1
 42
1.0
176
     1
 92
        8
176
     1
 66
     7
176
     1
 43
1.0
176
     1
 76
     1
176
     1
 77
     6
176
     1
 78
     2
176
     1
 67
     7
176
     1
 79
     5
176
     1
170
     0
176
     1
171
     0
176
     1
290
     0
176
     1
 93
        1
176
     1
 44
0.0
176
     1
173
     0
176
     1
  0
VISUALSTYLE
  5
33
102
{ACAD_REACTORS
330
2A
102
}
330
2A
100
AcDbVisualStyle
  2
Realistic
 70
     8
177
     2
291
     0
 71
     2
176
     1
 72
     2
176
     1
 73
     0
176
     1
 90
        0
176
     1
 40
-0.6
176
     1
 41
-30.0
176
     1
 62
     5
 63
     7
421
 16777215
176
     1
 74
     1
176
     1
 91
        0
176
     1
 64
     7
176
     1
 65
   257
176
     1
 75
     1
176
     1
175
     1
176
     1
 42
1.0
176
     1
 92
        8
176
     1
 66
     8
424
  7895160
176
     1
 43
1.0
176
     1
 76
     1
176
     1
 77
     6
176
     1
 78
     2
176
     1
 67
     7
176
     1
 79
     5
176
     1
170
     0
176
     1
171
     0
176
     1
290
     0
176
     1
 93
       13
176
     1
 44
0.0
176
     1
173
     0
176
     1
  0
VISUALSTYLE
  5
37
102
{ACAD_REACTORS
330
2A
102
}
330
2A
100
AcDbVisualStyle
  2
Thicken
 70
    13
177
     2
291
     1
 71
     2
176
     1
 72
     2
176
     1
 73
     0
176
     1
 90
        0
176
     1
 40
-0.6
176
     1
 41
-30.0
176
     1
 62
     5
 63
     7
421
 16777215
176
     1
 74
     1
176
     1
 91
        4
176
     1
 64
     7
176
     1
 65
   257
176
     1
 75
     1
176
     1
175
     1
176
     1
 42
1.0
176
     1
 92
       12
176
     1
 66
     7
176
     1
 43
1.0
176
     1
 76
     1
176
     1
 77
     6
176
     1
 78
     2
176
     1
 67
     7
176
     1
 79
     5
176
     1
170
     0
176
     1
171
     0
176
     1
290
     0
176
     1
 93
        1
176
     1
 44
0.0
176
     1
173
     0
176
     1
  0
ENDSEC
  0
EOF
