  0
SECTION
  2
HEADER
  9
$ACADVER
  1
AC1024
  9
$ACADMAINTVER
 70
     6
  9
$DWGCODEPAGE
  3
ANSI_1252
  9
$INSBASE
 10
0.0
 20
0.0
 30
0.0
  9
$EXTMIN
 10
1.000000000000000E+20
 20
1.000000000000000E+20
 30
1.000000000000000E+20
  9
$EXTMAX
 10
-1.000000000000000E+20
 20
-1.000000000000000E+20
 30
-1.000000000000000E+20
  9
$LIMMIN
 10
0.0
 20
0.0
  9
$LIMMAX
 10
12.0
 20
9.0
  9
$ORTHOMODE
 70
     0
  9
$REGENMODE
 70
     1
  9
$FILLMODE
 70
     1
  9
$QTEXTMODE
 70
     0
  9
$MIRRTEXT
 70
     1
  9
$LTSCALE
 40
1.0
  9
$ATTMODE
 70
     1
  9
$TEXTSIZE
 40
0.2
  9
$TRACEWID
 40
0.05
  9
$TEXTSTYLE
  7
Standard
  9
$CLAYER
  8
0
  9
$CELTYPE
  6
ByLayer
  9
$CECOLOR
 62
   256
  9
$CELTSCALE
 40
1.0
  9
$DISPSILH
 70
     0
  9
$DIMSCALE
 40
1.0
  9
$DIMASZ
 40
0.18
  9
$DIMEXO
 40
0.0625
  9
$DIMDLI
 40
0.38
  9
$DIMRND
 40
0.0
  9
$DIMDLE
 40
0.0
  9
$DIMEXE
 40
0.18
  9
$DIMTP
 40
0.0
  9
$DIMTM
 40
0.0
  9
$DIMTXT
 40
0.18
  9
$DIMCEN
 40
0.09
  9
$DIMTSZ
 40
0.0
  9
$DIMTOL
 70
     0
  9
$DIMLIM
 70
     0
  9
$DIMTIH
 70
     1
  9
$DIMTOH
 70
     1
  9
$DIMSE1
 70
     0
  9
$DIMSE2
 70
     0
  9
$DIMTAD
 70
     0
  9
$DIMZIN
 70
     0
  9
$DIMBLK
  1

  9
$DIMASO
 70
     1
  9
$DIMSHO
 70
     1
  9
$DIMPOST
  1

  9
$DIMAPOST
  1

  9
$DIMALT
 70
     0
  9
$DIMALTD
 70
     2
  9
$DIMALTF
 40
25.4
  9
$DIMLFAC
 40
1.0
  9
$DIMTOFL
 70
     0
  9
$DIMTVP
 40
0.0
  9
$DIMTIX
 70
     0
  9
$DIMSOXD
 70
     0
  9
$DIMSAH
 70
     0
  9
$DIMBLK1
  1

  9
$DIMBLK2
  1

  9
$DIMSTYLE
  2
Standard
  9
$DIMCLRD
 70
     0
  9
$DIMCLRE
 70
     0
  9
$DIMCLRT
 70
     0
  9
$DIMTFAC
 40
1.0
  9
$DIMGAP
 40
0.09
  9
$DIMJUST
 70
     0
  9
$DIMSD1
 70
     0
  9
$DIMSD2
 70
     0
  9
$DIMTOLJ
 70
     1
  9
$DIMTZIN
 70
     0
  9
$DIMALTZ
 70
     0
  9
$DIMALTTZ
 70
     0
  9
$DIMUPT
 70
     0
  9
$DIMDEC
 70
     4
  9
$DIMTDEC
 70
     4
  9
$DIMALTU
 70
     2
  9
$DIMALTTD
 70
     2
  9
$DIMTXSTY
  7
Standard
  9
$DIMAUNIT
 70
     0
  9
$DIMADEC
 70
     0
  9
$DIMALTRND
 40
0.0
  9
$DIMAZIN
 70
     0
  9
$DIMDSEP
 70
    46
  9
$DIMATFIT
 70
     3
  9
$DIMFRAC
 70
     0
  9
$DIMLDRBLK
  1

  9
$DIMLUNIT
 70
     2
  9
$DIMLWD
 70
    -2
  9
$DIMLWE
 70
    -2
  9
$DIMTMOVE
 70
     0
  9
$DIMFXL
 40
1.0
  9
$DIMFXLON
 70
     0
  9
$DIMJOGANG
 40
0.7853981633974483
  9
$DIMTFILL
 70
     0
  9
$DIMTFILLCLR
 70
     0
  9
$DIMARCSYM
 70
     0
  9
$DIMLTYPE
  6

  9
$DIMLTEX1
  6

  9
$DIMLTEX2
  6

  9
$DIMTXTDIRECTION
 70
     0
  9
$LUNITS
 70
     2
  9
$LUPREC
 70
     4
  9
$SKETCHINC
 40
0.1
  9
$FILLETRAD
 40
0.5
  9
$AUNITS
 70
     0
  9
$AUPREC
 70
     0
  9
$MENU
  1
.
  9
$ELEVATION
 40
0.0
  9
$PELEVATION
 40
0.0
  9
$THICKNESS
 40
0.0
  9
$LIMCHECK
 70
     0
  9
$CHAMFERA
 40
0.5
  9
$CHAMFERB
 40
0.5
  9
$CHAMFERC
 40
1.0
  9
$CHAMFERD
 40
0.0
  9
$SKPOLY
 70
     0
  9
$TDCREATE
 40
2459960.537152315
  9
$TDUCREATE
 40
2459960.495485648
  9
$TDUPDATE
 40
2459960.537152512
  9
$TDUUPDATE
 40
2459960.495485845
  9
$TDINDWG
 40
0.0000000116
  9
$TDUSRTIMER
 40
0.0000000116
  9
$USRTIMER
 70
     1
  9
$ANGBASE
 50
0.0
  9
$ANGDIR
 70
     0
  9
$PDMODE
 70
     0
  9
$PDSIZE
 40
0.0
  9
$PLINEWID
 40
0.0
  9
$SPLFRAME
 70
     0
  9
$SPLINETYPE
 70
     6
  9
$SPLINESEGS
 70
     8
  9
$HANDSEED
  5
B6
  9
$SURFTAB1
 70
     6
  9
$SURFTAB2
 70
     6
  9
$SURFTYPE
 70
     6
  9
$SURFU
 70
     6
  9
$SURFV
 70
     6
  9
$UCSBASE
  2

  9
$UCSNAME
  2

  9
$UCSORG
 10
0.0
 20
0.0
 30
0.0
  9
$UCSXDIR
 10
1.0
 20
0.0
 30
0.0
  9
$UCSYDIR
 10
0.0
 20
1.0
 30
0.0
  9
$UCSORTHOREF
  2

  9
$UCSORTHOVIEW
 70
     0
  9
$UCSORGTOP
 10
0.0
 20
0.0
 30
0.0
  9
$UCSORGBOTTOM
 10
0.0
 20
0.0
 30
0.0
  9
$UCSORGLEFT
 10
0.0
 20
0.0
 30
0.0
  9
$UCSORGRIGHT
 10
0.0
 20
0.0
 30
0.0
  9
$UCSORGFRONT
 10
0.0
 20
0.0
 30
0.0
  9
$UCSORGBACK
 10
0.0
 20
0.0
 30
0.0
  9
$PUCSBASE
  2

  9
$PUCSNAME
  2

  9
$PUCSORG
 10
0.0
 20
0.0
 30
0.0
  9
$PUCSXDIR
 10
1.0
 20
0.0
 30
0.0
  9
$PUCSYDIR
 10
0.0
 20
1.0
 30
0.0
  9
$PUCSORTHOREF
  2

  9
$PUCSORTHOVIEW
 70
     0
  9
$PUCSORGTOP
 10
0.0
 20
0.0
 30
0.0
  9
$PUCSORGBOTTOM
 10
0.0
 20
0.0
 30
0.0
  9
$PUCSORGLEFT
 10
0.0
 20
0.0
 30
0.0
  9
$PUCSORGRIGHT
 10
0.0
 20
0.0
 30
0.0
  9
$PUCSORGFRONT
 10
0.0
 20
0.0
 30
0.0
  9
$PUCSORGBACK
 10
0.0
 20
0.0
 30
0.0
  9
$USERI1
 70
     0
  9
$USERI2
 70
     0
  9
$USERI3
 70
     0
  9
$USERI4
 70
     0
  9
$USERI5
 70
     0
  9
$USERR1
 40
0.0
  9
$USERR2
 40
0.0
  9
$USERR3
 40
0.0
  9
$USERR4
 40
0.0
  9
$USERR5
 40
0.0
  9
$WORLDVIEW
 70
     1
  9
$SHADEDGE
 70
     3
  9
$SHADEDIF
 70
    70
  9
$TILEMODE
 70
     1
  9
$MAXACTVP
 70
    64
  9
$PINSBASE
 10
0.0
 20
0.0
 30
0.0
  9
$PLIMCHECK
 70
     0
  9
$PEXTMIN
 10
1.000000000000000E+20
 20
1.000000000000000E+20
 30
1.000000000000000E+20
  9
$PEXTMAX
 10
-1.000000000000000E+20
 20
-1.000000000000000E+20
 30
-1.000000000000000E+20
  9
$PLIMMIN
 10
0.0
 20
0.0
  9
$PLIMMAX
 10
12.0
 20
9.0
  9
$UNITMODE
 70
     0
  9
$VISRETAIN
 70
     1
  9
$PLINEGEN
 70
     0
  9
$PSLTSCALE
 70
     1
  9
$TREEDEPTH
 70
  3020
  9
$CMLSTYLE
  2
Standard
  9
$CMLJUST
 70
     0
  9
$CMLSCALE
 40
1.0
  9
$PROXYGRAPHICS
 70
     1
  9
$MEASUREMENT
 70
     0
  9
$CELWEIGHT
370
    -1
  9
$ENDCAPS
280
     0
  9
$JOINSTYLE
280
     0
  9
$LWDISPLAY
290
     1
  9
$INSUNITS
 70
     1
  9
$HYPERLINKBASE
  1

  9
$STYLESHEET
  1

  9
$XEDIT
290
     1
  9
$CEPSNTYPE
380
     0
  9
$PSTYLEMODE
290
     1
  9
$FINGERPRINTGUID
  2
{4E86A9FE-3A11-4E80-92D4-FFFA393FDF12}
  9
$VERSIONGUID
  2
{FAEB1C32-E019-11D5-929B-00C0DF256EC4}
  9
$EXTNAMES
290
     1
  9
$PSVPSCALE
 40
0.0
  9
$OLESTARTUP
290
     0
  9
$SORTENTS
280
   127
  9
$INDEXCTL
280
     0
  9
$HIDETEXT
280
     1
  9
$XCLIPFRAME
280
     2
  9
$HALOGAP
280
     0
  9
$OBSCOLOR
 70
   257
  9
$OBSLTYPE
280
     0
  9
$INTERSECTIONDISPLAY
280
     0
  9
$INTERSECTIONCOLOR
 70
   257
  9
$DIMASSOC
280
     2
  9
$PROJECTNAME
  1

  9
$CAMERADISPLAY
290
     0
  9
$LENSLENGTH
 40
50.0
  9
$CAMERAHEIGHT
 40
0.0
  9
$STEPSPERSEC
 40
2.0
  9
$STEPSIZE
 40
6.0
  9
$3DDWFPREC
 40
2.0
  9
$PSOLWIDTH
 40
0.25
  9
$PSOLHEIGHT
 40
4.0
  9
$LOFTANG1
 40
1.570796326794897
  9
$LOFTANG2
 40
1.570796326794897
  9
$LOFTMAG1
 40
0.0
  9
$LOFTMAG2
 40
0.0
  9
$LOFTPARAM
 70
     7
  9
$LOFTNORMALS
280
     1
  9
$LATITUDE
 40
37.795
  9
$LONGITUDE
 40
-122.394
  9
$NORTHDIRECTION
 40
0.0
  9
$TIMEZONE
 70
 -8000
  9
$LIGHTGLYPHDISPLAY
280
     1
  9
$TILEMODELIGHTSYNCH
280
     1
  9
$CMATERIAL
347
3C
  9
$SOLIDHIST
280
     1
  9
$SHOWHIST
280
     1
  9
$DWFFRAME
280
     2
  9
$DGNFRAME
280
     2
  9
$REALWORLDSCALE
290
     1
  9
$INTERFERECOLOR
 62
   256
  9
$CSHADOW
280
     0
  9
$SHADOWPLANELOCATION
 40
0.0
  0
ENDSEC
  0
SECTION
  2
CLASSES
  0
CLASS
  1
ACDBDICTIONARYWDFLT
  2
AcDbDictionaryWithDefault
  3
ObjectDBX Classes
 90
        0
 91
        4
280
     0
281
     0
  0
CLASS
  1
VISUALSTYLE
  2
AcDbVisualStyle
  3
ObjectDBX Classes
 90
     4095
 91
        4
280
     0
281
     0
  0
CLASS
  1
MATERIAL
  2
AcDbMaterial
  3
ObjectDBX Classes
 90
     1153
 91
        4
280
     0
281
     0
  0
CLASS
  1
SUN
  2
AcDbSun
  3
SCENEOE
 90
     1024
 91
        4
280
     0
281
     0
  0
ENDSEC
  0
SECTION
  2
TABLES
  0
TABLE
  2
VPORT
  5
8
330
0
100
AcDbSymbolTable
 70
     1
  0
VPORT
  5
29
330
8
100
AcDbSymbolTableRecord
100
AcDbViewportTableRecord
  2
*Active
 70
     0
 10
0.0
 20
0.0
 11
1.0
 21
1.0
 12
0.0
 22
0.0
 13
0.0
 23
0.0
 14
0.5
 24
0.5
 15
0.5
 25
0.5
 16
0.0
 26
0.0
 36
1.0
 17
54.00322220872204
 27
-54.00322220872204
 37
0.0
 40
108.0064444174441
 41
1.0
 42
50.0
 43
0.0
 44
0.0
 50
0.0
 51
0.0
 71
     0
 72
   100
 73
     1
 74
     3
 75
     0
 76
     0
 77
     0
 78
     0
281
     0
 65
     1
110
0.0
120
0.0
130
0.0
111
1.0
121
0.0
131
0.0
112
0.0
122
1.0
132
0.0
 79
     0
146
0.0
 60
     3
 61
     5
292
     1
282
     1
141
0.0
142
0.0
 63
   250
361
3F
  0
ENDTAB
  0
TABLE
  2
LTYPE
  5
5
330
0
100
AcDbSymbolTable
 70
     1
  0
LTYPE
  5
14
330
5
100
AcDbSymbolTableRecord
100
AcDbLinetypeTableRecord
  2
ByBlock
 70
     0
  3

 72
    65
 73
     0
 40
0.0
  0
LTYPE
  5
15
330
5
100
AcDbSymbolTableRecord
100
AcDbLinetypeTableRecord
  2
ByLayer
 70
     0
  3

 72
    65
 73
     0
 40
0.0
  0
LTYPE
  5
16
330
5
100
AcDbSymbolTableRecord
100
AcDbLinetypeTableRecord
  2
Continuous
 70
     0
  3
Solid line
 72
    65
 73
     0
 40
0.0
  0
ENDTAB
  0
TABLE
  2
LAYER
  5
2
330
0
100
AcDbSymbolTable
 70
     2
  0
LAYER
  5
10
330
2
100
AcDbSymbolTableRecord
100
AcDbLayerTableRecord
  2
0
 70
     0
 62
     7
  6
Continuous
370
    -3
390
F
347
3E
  0
LAYER
  5
40
330
2
100
AcDbSymbolTableRecord
100
AcDbLayerTableRecord
  2
Layer 1
 70
     0
 62
     7
  6
Continuous
370
    -3
390
F
347
3E
  0
ENDTAB
  0
TABLE
  2
STYLE
  5
3
330
0
100
AcDbSymbolTable
 70
     1
  0
STYLE
  5
11
330
3
100
AcDbSymbolTableRecord
100
AcDbTextStyleTableRecord
  2
Standard
 70
     0
 40
0.0
 41
1.0
 50
0.0
 71
     0
 42
0.2
  3
txt
  4

  0
ENDTAB
  0
TABLE
  2
VIEW
  5
6
330
0
100
AcDbSymbolTable
 70
     0
  0
ENDTAB
  0
TABLE
  2
UCS
  5
7
330
0
100
AcDbSymbolTable
 70
     0
  0
ENDTAB
  0
TABLE
  2
APPID
  5
9
330
0
100
AcDbSymbolTable
 70
     1
  0
APPID
  5
12
330
9
100
AcDbSymbolTableRecord
100
AcDbRegAppTableRecord
  2
ACAD
 70
     0
  0
ENDTAB
  0
TABLE
  2
DIMSTYLE
  5
A
330
0
100
AcDbSymbolTable
 70
     1
100
AcDbDimStyleTable
  0
DIMSTYLE
105
27
330
A
100
AcDbSymbolTableRecord
100
AcDbDimStyleTableRecord
  2
Standard
 70
     0
178
     0
340
11
  0
ENDTAB
  0
TABLE
  2
BLOCK_RECORD
  5
1
330
0
100
AcDbSymbolTable
 70
     3
  0
BLOCK_RECORD
  5
1F
330
1
100
AcDbSymbolTableRecord
100
AcDbBlockTableRecord
  2
*Model_Space
340
22
 70
     0
280
     1
281
     0
  0
BLOCK_RECORD
  5
1B
330
1
100
AcDbSymbolTableRecord
100
AcDbBlockTableRecord
  2
*Paper_Space
340
1E
 70
     0
280
     1
281
     0
  0
BLOCK_RECORD
  5
23
330
1
100
AcDbSymbolTableRecord
100
AcDbBlockTableRecord
  2
*Paper_Space0
340
26
 70
     0
280
     1
281
     0
  0
BLOCK_RECORD
  5
41
330
1
100
AcDbSymbolTableRecord
100
AcDbBlockTableRecord
  2
block 2
340
0
102
{BLKREFS
331
42
102
}
 70
     0
280
     1
281
     0
  0
BLOCK_RECORD
  5
6E
330
1
100
AcDbSymbolTableRecord
100
AcDbBlockTableRecord
  2
block 3
340
0
102
{BLKREFS
331
6F
102
}
 70
     0
280
     1
281
     0
  0
ENDTAB
  0
ENDSEC
  0
SECTION
  2
BLOCKS
  0
BLOCK
  5
20
330
1F
100
AcDbEntity
  8
0
100
AcDbBlockBegin
  2
*Model_Space
 70
     0
 10
0.0
 20
0.0
 30
0.0
  3
*Model_Space
  1

  0
ENDBLK
  5
21
330
1F
100
AcDbEntity
  8
0
100
AcDbBlockEnd
  0
BLOCK
  5
1C
330
1B
100
AcDbEntity
 67
     1
  8
0
100
AcDbBlockBegin
  2
*Paper_Space
 70
     0
 10
0.0
 20
0.0
 30
0.0
  3
*Paper_Space
  1

  0
ENDBLK
  5
1D
330
1B
100
AcDbEntity
 67
     1
  8
0
100
AcDbBlockEnd
  0
BLOCK
  5
24
330
23
100
AcDbEntity
  8
0
100
AcDbBlockBegin
  2
*Paper_Space0
 70
     0
 10
0.0
 20
0.0
 30
0.0
  3
*Paper_Space0
  1

  0
ENDBLK
  5
25
330
23
100
AcDbEntity
  8
0
100
AcDbBlockEnd
  0
BLOCK
  5
43
330
41
100
AcDbEntity
  8
0
100
AcDbBlockBegin
  2
block 2
 70
     0
 10
0.0
 20
0.0
 30
0.0
  3
block 2
  1

  0
SPLINE
  5
45
330
41
100
AcDbEntity
  8
Layer 1
 62
   250
420
  2301728
370
    50
100
AcDbSpline
210
0.0
220
0.0
230
1.0
 70
    11
 71
     3
 72
   116
 73
   112
 74
     0
 42
0.0000000001
 43
0.0000000001
 12
1.0
 22
0.0
 32
0.0
 13
1.0
 23
0.0
 33
0.0
 40
0.0
 40
0.0
 40
0.0
 40
0.0
 40
1.0
 40
1.0
 40
1.0
 40
2.0
 40
2.0
 40
2.0
 40
3.0
 40
3.0
 40
3.0
 40
4.0
 40
4.0
 40
4.0
 40
5.0
 40
5.0
 40
5.0
 40
6.0
 40
6.0
 40
6.0
 40
7.0
 40
7.0
 40
7.0
 40
8.0
 40
8.0
 40
8.0
 40
9.0
 40
9.0
 40
9.0
 40
10.0
 40
10.0
 40
10.0
 40
11.0
 40
11.0
 40
11.0
 40
12.0
 40
12.0
 40
12.0
 40
13.0
 40
13.0
 40
13.0
 40
14.0
 40
14.0
 40
14.0
 40
15.0
 40
15.0
 40
15.0
 40
16.0
 40
16.0
 40
16.0
 40
17.0
 40
17.0
 40
17.0
 40
18.0
 40
18.0
 40
18.0
 40
19.0
 40
19.0
 40
19.0
 40
20.0
 40
20.0
 40
20.0
 40
21.0
 40
21.0
 40
21.0
 40
22.0
 40
22.0
 40
22.0
 40
23.0
 40
23.0
 40
23.0
 40
24.0
 40
24.0
 40
24.0
 40
25.0
 40
25.0
 40
25.0
 40
26.0
 40
26.0
 40
26.0
 40
27.0
 40
27.0
 40
27.0
 40
28.0
 40
28.0
 40
28.0
 40
29.0
 40
29.0
 40
29.0
 40
30.0
 40
30.0
 40
30.0
 40
31.0
 40
31.0
 40
31.0
 40
32.0
 40
32.0
 40
32.0
 40
33.0
 40
33.0
 40
33.0
 40
34.0
 40
34.0
 40
34.0
 40
35.0
 40
35.0
 40
35.0
 40
36.0
 40
36.0
 40
36.0
 40
37.0
 40
37.0
 40
37.0
 40
37.0
 10
103.5323706017056
 20
-53.49029019131137
 30
0.0
 10
103.5323706017056
 20
-56.00210930960703
 30
0.0
 10
103.3489192671161
 20
-58.47155375343411
 30
0.0
 10
102.9820165979369
 20
-60.8844986313031
 30
0.0
 10
100.8935997147785
 20
-60.87037373981357
 30
0.0
 10
98.36774183238045
 20
-63.67847106984071
 30
0.0
 10
97.08358249025356
 20
-67.64377597336328
 30
0.0
 10
97.08358249025356
 20
-67.64377597336328
 30
0.0
 10
97.08358249025356
 20
-67.65781473746567
 30
0.0
 10
97.08358249025356
 20
-67.65781473746567
 30
0.0
 10
95.79950927551383
 20
-71.6230335136011
 30
0.0
 10
96.18053683618245
 20
-75.39076219104459
 30
0.0
 10
97.88792615867227
 20
-76.59017218423432
 30
0.0
 10
95.55964450235331
 20
-81.04933152556744
 30
0.0
 10
92.582134601839
 20
-85.12737717884481
 30
0.0
 10
89.06848171643269
 20
-88.66927984723017
 30
0.0
 10
87.50216905406386
 20
-87.27229362796136
 30
0.0
 10
83.79093994257846
 20
-87.97784918334052
 30
0.0
 10
80.34782538723265
 20
-90.41904384418856
 30
0.0
 10
80.29141194866168
 20
-90.44729362716761
 30
0.0
 10
80.22087361860119
 20
-90.48958217424905
 30
0.0
 10
80.1643740526431
 20
-90.53195684871763
 30
0.0
 10
76.72125949729727
 20
-93.02965107552376
 30
0.0
 10
74.81629394872837
 20
-96.38810240931956
 30
0.0
 10
75.62063761714708
 20
-98.34948139645942
 30
0.0
 10
71.31667982742447
 20
-100.4802729540864
 30
0.0
 10
66.66003038739939
 20
-102.0184219608634
 30
0.0
 10
61.76351617421379
 20
-102.8227656292821
 30
0.0
 10
61.17087362336369
 20
-100.8048870761841
 30
0.0
 10
57.69950928503882
 20
-99.28086296089671
 30
0.0
 10
53.53671428282431
 20
-99.28086296089671
 30
0.0
 10
53.53671428282431
 20
-99.28086296089671
 30
0.0
 10
53.52258939133479
 20
-99.28086296089671
 30
0.0
 10
53.52258939133479
 20
-99.28086296089671
 30
0.0
 10
49.34575562501789
 20
-99.28086296089671
 30
0.0
 10
45.88851617818254
 20
-100.8189258402865
 30
0.0
 10
45.29587362733244
 20
-102.8227656292821
 30
0.0
 10
40.3146100652097
 20
-102.0042970693738
 30
0.0
 10
35.57329740363461
 20
-100.437984407005
 30
0.0
 10
31.1988012838515
 20
-98.23665451931748
 30
0.0
 10
31.89031807512827
 20
-96.26106451330097
 30
0.0
 10
29.99939129066177
 20
-92.98727640105518
 30
0.0
 10
26.61269017388691
 20
-90.53195684871763
 30
0.0
 10
23.24020007598872
 20
-88.07663729638006
 30
0.0
 10
19.54309585599285
 20
-87.28641851945088
 30
0.0
 10
17.86387018909495
 20
-88.54232807859871
 30
0.0
 10
14.40663074225961
 20
-85.02858906580526
 30
0.0
 10
11.47149551621388
 20
-80.99283195960935
 30
0.0
 10
9.171377515486824
 20
-76.57604729274479
 30
0.0
 10
10.87885296536377
 20
-75.37663729955506
 30
0.0
 10
11.2739192901348
 20
-71.6230335136011
 30
0.0
 10
9.989846075395054
 20
-67.64377597336328
 30
0.0
 10
8.705686733268177
 20
-63.67847106984071
 30
0.0
 10
6.179828850870128
 20
-60.87037373981357
 30
0.0
 10
4.077287076222152
 20
-60.8844986313031
 30
0.0
 10
3.710384407043045
 20
-58.47155375343411
 30
0.0
 10
3.52693307245349
 20
-56.00210930960703
 30
0.0
 10
3.52693307245349
 20
-53.49029019131137
 30
0.0
 10
3.52693307245349
 20
-50.97847107301571
 30
0.0
 10
3.710384407043045
 20
-48.52315152067816
 30
0.0
 10
4.077287076222152
 20
-46.11020664280917
 30
0.0
 10
6.179828850870128
 20
-46.12433153429869
 30
0.0
 10
8.691647969165784
 20
-43.33027296837394
 30
0.0
 10
9.989846075395054
 20
-39.36505419223851
 30
0.0
 10
9.989846075395054
 20
-39.36505419223851
 30
0.0
 10
9.989846075395054
 20
-39.35092930074899
 30
0.0
 10
9.989846075395054
 20
-39.35092930074899
 30
0.0
 10
11.2739192901348
 20
-35.37158563312403
 30
0.0
 10
10.87885296536377
 20
-31.6180679745572
 30
0.0
 10
9.171377515486824
 20
-30.41865798136747
 30
0.0
 10
11.47149551621388
 20
-26.00187331450292
 30
0.0
 10
14.40663074225961
 20
-21.96603008091986
 30
0.0
 10
17.87790895319734
 20
-18.45237719551356
 30
0.0
 10
19.57125951158477
 20
-19.69416186317186
 30
0.0
 10
23.25423884009111
 20
-18.88981819475315
 30
0.0
 10
26.61269017388691
 20
-16.44862353390512
 30
0.0
 10
29.99939129066177
 20
-13.99330398156756
 30
0.0
 10
31.89031807512827
 20
-10.71951586932177
 30
0.0
 10
31.1988012838515
 20
-8.74392586330525
 30
0.0
 10
35.57329740363461
 20
-6.55672086710726
 30
0.0
 10
40.3146100652097
 20
-4.990408204738421
 30
0.0
 10
45.29587362733244
 20
-4.171939644830191
 30
0.0
 10
45.90264106967206
 20
-6.175693306438627
 30
0.0
 10
49.34575562501789
 20
-7.713842313215549
 30
0.0
 10
53.52258939133479
 20
-7.713842313215549
 30
0.0
 10
53.52258939133479
 20
-7.713842313215549
 30
0.0
 10
53.53671428282431
 20
-7.713842313215549
 30
0.0
 10
53.53671428282431
 20
-7.713842313215549
 30
0.0
 10
57.69950928503882
 20
-7.713842313215549
 30
0.0
 10
61.15674873187417
 20
-6.175693306438627
 30
0.0
 10
61.76351617421379
 20
-4.171939644830191
 30
0.0
 10
66.7446936089494
 20
-4.990408204738421
 30
0.0
 10
71.47196750642209
 20
-6.55672086710726
 30
0.0
 10
75.84637749881807
 20
-8.729887099202857
 30
0.0
 10
75.14082194343891
 20
-10.70539097783224
 30
0.0
 10
77.04587361939494
 20
-13.99330398156756
 30
0.0
 10
80.43248860878266
 20
-16.44862353390512
 30
0.0
 10
83.81918972555751
 20
-18.90394308624268
 30
0.0
 10
87.51629394555337
 20
-19.69416186317186
 30
0.0
 10
89.18139472096175
 20
-18.43825230402403
 30
0.0
 10
92.6386341677971
 20
-21.95199131681747
 30
0.0
 10
95.58780815794522
 20
-25.98774842301339
 30
0.0
 10
97.88792615867227
 20
-30.40453308987795
 30
0.0
 10
96.18053683618245
 20
-31.6180679745572
 30
0.0
 10
95.79950927551383
 20
-35.37158563312403
 30
0.0
 10
97.08358249025356
 20
-39.35092930074899
 30
0.0
 10
98.36774183238045
 20
-43.31614807688442
 30
0.0
 10
100.8935997147785
 20
-46.12433153429869
 30
0.0
 10
102.9820165979369
 20
-46.11020664280917
 30
0.0
 10
103.3489192671161
 20
-48.52315152067816
 30
0.0
 10
103.5323706017056
 20
-50.97847107301571
 30
0.0
 10
103.5323706017056
 20
-53.49029019131137
 30
0.0
  0
POLYLINE
  5
46
330
41
100
AcDbEntity
  8
Layer 1
 62
   250
420
  2301728
370
    50
100
AcDb2dPolyline
 66
     1
 10
0.0
 20
0.0
 30
0.0
  0
VERTEX
  5
47
330
46
100
AcDbEntity
  8
Layer 1
 62
   250
420
  2301728
370
    50
100
AcDbVertex
100
AcDb2dVertex
 10
53.5246602464216
 20
-33.48935094365989
 30
0.0
  0
VERTEX
  5
48
330
46
100
AcDbEntity
  8
Layer 1
 62
   250
420
  2301728
370
    50
100
AcDbVertex
100
AcDb2dVertex
 10
53.5246602464216
 20
-7.713842313215549
 30
0.0
  0
SEQEND
  5
49
330
46
100
AcDbEntity
  8
Layer 1
 62
   250
420
  2301728
370
    50
  0
POLYLINE
  5
4A
330
41
100
AcDbEntity
  8
Layer 1
 62
   250
420
  2301728
370
    50
100
AcDb2dPolyline
 66
     1
 10
0.0
 20
0.0
 30
0.0
  0
VERTEX
  5
4B
330
4A
100
AcDbEntity
  8
Layer 1
 62
   250
420
  2301728
370
    50
100
AcDbVertex
100
AcDb2dVertex
 10
41.85283011247105
 20
-37.37355595515392
 30
0.0
  0
VERTEX
  5
4C
330
4A
100
AcDbEntity
  8
Layer 1
 62
   250
420
  2301728
370
    50
100
AcDbVertex
100
AcDb2dVertex
 10
26.79428797770088
 20
-16.64392824078218
 30
0.0
  0
SEQEND
  5
4D
330
4A
100
AcDbEntity
  8
Layer 1
 62
   250
420
  2301728
370
    50
  0
POLYLINE
  5
4E
330
41
100
AcDbEntity
  8
Layer 1
 62
   250
420
  2301728
370
    50
100
AcDb2dPolyline
 66
     1
 10
0.0
 20
0.0
 30
0.0
  0
VERTEX
  5
4F
330
4E
100
AcDbEntity
  8
Layer 1
 62
   250
420
  2301728
370
    50
100
AcDbVertex
100
AcDb2dVertex
 10
34.51494339999341
 20
-47.32375530787006
 30
0.0
  0
VERTEX
  5
50
330
4E
100
AcDbEntity
  8
Layer 1
 62
   250
420
  2301728
370
    50
100
AcDbVertex
100
AcDb2dVertex
 10
9.989832295013422
 20
-39.36508864319388
 30
0.0
  0
SEQEND
  5
51
330
4E
100
AcDbEntity
  8
Layer 1
 62
   250
420
  2301728
370
    50
  0
POLYLINE
  5
52
330
41
100
AcDbEntity
  8
Layer 1
 62
   250
420
  2301728
370
    50
100
AcDb2dPolyline
 66
     1
 10
0.0
 20
0.0
 30
0.0
  0
VERTEX
  5
53
330
52
100
AcDbEntity
  8
Layer 1
 62
   250
420
  2301728
370
    50
100
AcDbVertex
100
AcDb2dVertex
 10
34.54355856860268
 20
-59.59777244610519
 30
0.0
  0
VERTEX
  5
54
330
52
100
AcDbEntity
  8
Layer 1
 62
   250
420
  2301728
370
    50
100
AcDbVertex
100
AcDb2dVertex
 10
9.513761939984194
 20
-67.72626085619223
 30
0.0
  0
SEQEND
  5
55
330
52
100
AcDbEntity
  8
Layer 1
 62
   250
420
  2301728
370
    50
  0
POLYLINE
  5
56
330
41
100
AcDbEntity
  8
Layer 1
 62
   250
420
  2301728
370
    50
100
AcDb2dPolyline
 66
     1
 10
0.0
 20
0.0
 30
0.0
  0
VERTEX
  5
57
330
56
100
AcDbEntity
  8
Layer 1
 62
   250
420
  2301728
370
    50
100
AcDbVertex
100
AcDb2dVertex
 10
41.86137621424261
 20
-69.60393781098394
 30
0.0
  0
VERTEX
  5
58
330
56
100
AcDbEntity
  8
Layer 1
 62
   250
420
  2301728
370
    50
100
AcDbVertex
100
AcDb2dVertex
 10
26.97780486503912
 20
-90.09270029329909
 30
0.0
  0
SEQEND
  5
59
330
56
100
AcDbEntity
  8
Layer 1
 62
   250
420
  2301728
370
    50
  0
POLYLINE
  5
5A
330
41
100
AcDbEntity
  8
Layer 1
 62
   250
420
  2301728
370
    50
100
AcDb2dPolyline
 66
     1
 10
0.0
 20
0.0
 30
0.0
  0
VERTEX
  5
5B
330
5A
100
AcDbEntity
  8
Layer 1
 62
   250
420
  2301728
370
    50
100
AcDbVertex
100
AcDb2dVertex
 10
53.5246602464216
 20
-99.31792157373086
 30
0.0
  0
VERTEX
  5
5C
330
5A
100
AcDbEntity
  8
Layer 1
 62
   250
420
  2301728
370
    50
100
AcDbVertex
100
AcDb2dVertex
 10
53.5246602464216
 20
-73.49435093365915
 30
0.0
  0
SEQEND
  5
5D
330
5A
100
AcDbEntity
  8
Layer 1
 62
   250
420
  2301728
370
    50
  0
POLYLINE
  5
5E
330
41
100
AcDbEntity
  8
Layer 1
 62
   250
420
  2301728
370
    50
100
AcDb2dPolyline
 66
     1
 10
0.0
 20
0.0
 30
0.0
  0
VERTEX
  5
5F
330
5E
100
AcDbEntity
  8
Layer 1
 62
   250
420
  2301728
370
    50
100
AcDbVertex
100
AcDb2dVertex
 10
79.979794675307
 20
-89.96649904767607
 30
0.0
  0
VERTEX
  5
60
330
5E
100
AcDbEntity
  8
Layer 1
 62
   250
420
  2301728
370
    50
100
AcDbVertex
100
AcDb2dVertex
 10
65.18784883872426
 20
-69.60386848097266
 30
0.0
  0
SEQEND
  5
61
330
5E
100
AcDbEntity
  8
Layer 1
 62
   250
420
  2301728
370
    50
  0
POLYLINE
  5
62
330
41
100
AcDbEntity
  8
Layer 1
 62
   250
420
  2301728
370
    50
100
AcDb2dPolyline
 66
     1
 10
0.0
 20
0.0
 30
0.0
  0
VERTEX
  5
63
330
62
100
AcDbEntity
  8
Layer 1
 62
   250
420
  2301728
370
    50
100
AcDbVertex
100
AcDb2dVertex
 10
96.5225180079619
 20
-67.37202576817428
 30
0.0
  0
VERTEX
  5
64
330
62
100
AcDbEntity
  8
Layer 1
 62
   250
420
  2301728
370
    50
100
AcDbVertex
100
AcDb2dVertex
 10
72.51237079297503
 20
-59.57467102904751
 30
0.0
  0
SEQEND
  5
65
330
62
100
AcDbEntity
  8
Layer 1
 62
   250
420
  2301728
370
    50
  0
POLYLINE
  5
66
330
41
100
AcDbEntity
  8
Layer 1
 62
   250
420
  2301728
370
    50
100
AcDb2dPolyline
 66
     1
 10
0.0
 20
0.0
 30
0.0
  0
VERTEX
  5
67
330
66
100
AcDbEntity
  8
Layer 1
 62
   250
420
  2301728
370
    50
100
AcDbVertex
100
AcDb2dVertex
 10
97.11345717828345
 20
-39.42232984852254
 30
0.0
  0
VERTEX
  5
68
330
66
100
AcDbEntity
  8
Layer 1
 62
   250
420
  2301728
370
    50
100
AcDbVertex
100
AcDb2dVertex
 10
72.51656333141344
 20
-47.41023200869643
 30
0.0
  0
SEQEND
  5
69
330
66
100
AcDbEntity
  8
Layer 1
 62
   250
420
  2301728
370
    50
  0
POLYLINE
  5
6A
330
41
100
AcDbEntity
  8
Layer 1
 62
   250
420
  2301728
370
    50
100
AcDb2dPolyline
 66
     1
 10
0.0
 20
0.0
 30
0.0
  0
VERTEX
  5
6B
330
6A
100
AcDbEntity
  8
Layer 1
 62
   250
420
  2301728
370
    50
100
AcDbVertex
100
AcDb2dVertex
 10
80.44023864145488
 20
-16.39275369044904
 30
0.0
  0
VERTEX
  5
6C
330
6A
100
AcDbEntity
  8
Layer 1
 62
   250
420
  2301728
370
    50
100
AcDbVertex
100
AcDb2dVertex
 10
65.20230522927835
 20
-37.36933189727238
 30
0.0
  0
SEQEND
  5
6D
330
6A
100
AcDbEntity
  8
Layer 1
 62
   250
420
  2301728
370
    50
  0
INSERT
  5
6F
330
41
100
AcDbEntity
  8
Layer 1
100
AcDbBlockReference
  2
block 3
 10
0.0
 20
0.0
 30
0.0
  0
SPLINE
  5
B3
330
41
100
AcDbEntity
  8
Layer 1
 62
   250
420
  2301728
370
    50
100
AcDbSpline
210
0.0
220
0.0
230
1.0
 70
    11
 71
     3
 72
    41
 73
    37
 74
     0
 42
0.0000000001
 43
0.0000000001
 12
1.0
 22
0.0
 32
0.0
 13
1.0
 23
0.0
 33
0.0
 40
0.0
 40
0.0
 40
0.0
 40
0.0
 40
1.0
 40
1.0
 40
1.0
 40
2.0
 40
2.0
 40
2.0
 40
3.0
 40
3.0
 40
3.0
 40
4.0
 40
4.0
 40
4.0
 40
5.0
 40
5.0
 40
5.0
 40
6.0
 40
6.0
 40
6.0
 40
7.0
 40
7.0
 40
7.0
 40
8.0
 40
8.0
 40
8.0
 40
9.0
 40
9.0
 40
9.0
 40
10.0
 40
10.0
 40
10.0
 40
11.0
 40
11.0
 40
11.0
 40
12.0
 40
12.0
 40
12.0
 40
12.0
 10
73.53420201659098
 20
-53.49890993930823
 30
0.0
 10
73.53420201659098
 20
-55.65786515252718
 30
0.0
 10
73.19554913039092
 20
-57.73224327158324
 30
0.0
 10
72.54640701358271
 20
-59.67958349462071
 30
0.0
 10
71.23408401586393
 20
-63.74359038379568
 30
0.0
 10
68.6518126948949
 20
-67.22899348622293
 30
0.0
 10
65.27923646960957
 20
-69.67018814707097
 30
0.0
 10
61.97719857438474
 20
-72.08321915232709
 30
0.0
 10
57.92731657669929
 20
-73.49433026308542
 30
0.0
 10
53.52465680132426
 20
-73.49433026308542
 30
0.0
 10
49.13612191743876
 20
-73.49433026308542
 30
0.0
 10
45.07211502826379
 20
-72.06909426083756
 30
0.0
 10
41.77007713303895
 20
-69.67018814707097
 30
0.0
 10
38.39758703514075
 20
-67.21486859473342
 30
0.0
 10
35.82935447827413
 20
-63.72946549230615
 30
0.0
 10
34.51703148055534
 20
-59.67958349462071
 30
0.0
 10
33.86788936374713
 20
-57.73224327158324
 30
0.0
 10
33.52923647754707
 20
-55.65786515252718
 30
0.0
 10
33.52923647754707
 20
-53.49890993930823
 30
0.0
 10
33.52923647754707
 20
-51.33986859870216
 30
0.0
 10
33.86788936374713
 20
-49.26557660703323
 30
0.0
 10
34.51703148055534
 20
-47.31823638399577
 30
0.0
 10
35.8152295867846
 20
-43.25422949482079
 30
0.0
 10
38.39758703514075
 20
-39.7687402650064
 30
0.0
 10
41.77007713303895
 20
-37.31342071266884
 30
0.0
 10
45.07211502826379
 20
-34.91451459890225
 30
0.0
 10
49.13612191743876
 20
-33.48936472404152
 30
0.0
 10
53.52465680132426
 20
-33.48936472404152
 30
0.0
 10
57.92731657669929
 20
-33.48936472404152
 30
0.0
 10
61.97719857438474
 20
-34.90047583479986
 30
0.0
 10
65.27923646960957
 20
-37.31342071266884
 30
0.0
 10
68.6518126948949
 20
-39.75470150090401
 30
0.0
 10
71.23408401586393
 20
-43.25422949482079
 30
0.0
 10
72.54640701358271
 20
-47.31823638399577
 30
0.0
 10
73.19554913039092
 20
-49.26557660703323
 30
0.0
 10
73.53420201659098
 20
-51.33986859870216
 30
0.0
 10
73.53420201659098
 20
-53.49890993930823
 30
0.0
  0
ENDBLK
  5
44
330
41
100
AcDbEntity
  8
0
100
AcDbBlockEnd
  0
BLOCK
  5
70
330
6E
100
AcDbEntity
  8
0
100
AcDbBlockBegin
  2
block 3
 70
     0
 10
0.0
 20
0.0
 30
0.0
  3
block 3
  1

  0
SPLINE
  5
72
330
6E
100
AcDbEntity
  8
Layer 1
370
     0
100
AcDbSpline
210
0.0
220
0.0
230
1.0
 70
    11
 71
     3
 72
    23
 73
    19
 74
     0
 42
0.0000000001
 43
0.0000000001
 12
1.0
 22
0.0
 32
0.0
 13
1.0
 23
0.0
 33
0.0
 40
0.0
 40
0.0
 40
0.0
 40
0.0
 40
1.0
 40
1.0
 40
1.0
 40
2.0
 40
2.0
 40
2.0
 40
3.0
 40
3.0
 40
3.0
 40
4.0
 40
4.0
 40
4.0
 40
5.0
 40
5.0
 40
5.0
 40
6.0
 40
6.0
 40
6.0
 40
6.0
 10
47.20745441528148
 20
-22.25118272013165
 30
0.0
 10
47.84479708005269
 20
-24.30859374392285
 30
0.0
 10
47.14888779203223
 20
-25.65080294497619
 30
0.0
 10
45.11697047483187
 20
-26.28056639967986
 30
0.0
 10
43.09125432950496
 20
-26.90895181618943
 30
0.0
 10
41.75938041490738
 20
-26.19581705074271
 30
0.0
 10
41.12134873103911
 20
-24.13978406514561
 30
0.0
 10
41.12134873103911
 20
-24.13978406514561
 30
0.0
 10
38.33288844527789
 20
-15.15773111600224
 30
0.0
 10
38.33288844527789
 20
-15.15773111600224
 30
0.0
 10
37.69347872321552
 20
-13.09618597762873
 30
0.0
 10
38.38663193484779
 20
-11.7512207001872
 30
0.0
 10
40.41303709927174
 20
-11.12214626458058
 30
0.0
 10
42.443576378278
 20
-10.4923828098769
 30
0.0
 10
43.77889538836084
 20
-11.20689561351772
 30
0.0
 10
44.41899412952025
 20
-13.26844075189122
 30
0.0
 10
44.41899412952025
 20
-13.26844075189122
 30
0.0
 10
47.20745441528148
 20
-22.25118272013165
 30
0.0
 10
47.20745441528148
 20
-22.25118272013165
 30
0.0
  0
SPLINE
  5
73
330
6E
100
AcDbEntity
  8
Layer 1
370
     0
100
AcDbSpline
210
0.0
220
0.0
230
1.0
 70
    11
 71
     3
 72
    26
 73
    22
 74
     0
 42
0.0000000001
 43
0.0000000001
 12
1.0
 22
0.0
 32
0.0
 13
1.0
 23
0.0
 33
0.0
 40
0.0
 40
0.0
 40
0.0
 40
0.0
 40
1.0
 40
1.0
 40
1.0
 40
2.0
 40
2.0
 40
2.0
 40
3.0
 40
3.0
 40
3.0
 40
4.0
 40
4.0
 40
4.0
 40
5.0
 40
5.0
 40
5.0
 40
6.0
 40
6.0
 40
6.0
 40
7.0
 40
7.0
 40
7.0
 40
7.0
 10
42.3002604060916
 20
-13.92645398957394
 30
0.0
 10
42.09424369607366
 20
-13.26223958001777
 30
0.0
 10
41.68427733332894
 20
-13.02452799153554
 30
0.0
 10
41.07036131785741
 20
-13.21607530051543
 30
0.0
 10
41.07036131785741
 20
-13.21607530051543
 30
0.0
 10
41.05589191681936
 20
-13.22089843419478
 30
0.0
 10
41.05589191681936
 20
-13.22089843419478
 30
0.0
 10
40.44679903502719
 20
-13.40900064768942
 30
0.0
 10
40.24491643959155
 20
-13.83550346876335
 30
0.0
 10
40.45093314960949
 20
-14.49971787831952
 30
0.0
 10
40.45093314960949
 20
-14.49971787831952
 30
0.0
 10
43.23939343537071
 20
-23.48245984655994
 30
0.0
 10
43.23939343537071
 20
-23.48245984655994
 30
0.0
 10
43.44541014538865
 20
-24.14529621792201
 30
0.0
 10
43.85537650813338
 20
-24.3823187873072
 30
0.0
 10
44.4692925236049
 20
-24.19077147832731
 30
0.0
 10
45.08872069185282
 20
-23.99991318844447
 30
0.0
 10
45.29473740187076
 20
-23.57134331007939
 30
0.0
 10
45.08872069185282
 20
-22.90850693871732
 30
0.0
 10
45.08872069185282
 20
-22.90850693871732
 30
0.0
 10
42.3002604060916
 20
-13.92645398957394
 30
0.0
 10
42.3002604060916
 20
-13.92645398957394
 30
0.0
  0
HATCH
  5
74
330
6E
100
AcDbEntity
  8
Layer 1
 62
   250
420
  2301728
100
AcDbHatch
 10
0.0
 20
0.0
 30
0.0
210
0.0
220
0.0
230
1.0
  2
SOLID
 70
     1
 71
     0
 91
        2
 92
        1
 93
        1
 72
     4
 94
        3
 73
     0
 74
     1
 95
       23
 96
       19
 40
0.0
 40
0.0
 40
0.0
 40
0.0
 40
1.0
 40
1.0
 40
1.0
 40
2.0
 40
2.0
 40
2.0
 40
3.0
 40
3.0
 40
3.0
 40
4.0
 40
4.0
 40
4.0
 40
5.0
 40
5.0
 40
5.0
 40
6.0
 40
6.0
 40
6.0
 40
6.0
 10
47.20745441528148
 20
-22.25118272013165
 10
47.84479708005269
 20
-24.30859374392285
 10
47.14888779203223
 20
-25.65080294497619
 10
45.11697047483187
 20
-26.28056639967986
 10
43.09125432950496
 20
-26.90895181618943
 10
41.75938041490738
 20
-26.19581705074271
 10
41.12134873103911
 20
-24.13978406514561
 10
41.12134873103911
 20
-24.13978406514561
 10
38.33288844527789
 20
-15.15773111600224
 10
38.33288844527789
 20
-15.15773111600224
 10
37.69347872321552
 20
-13.09618597762873
 10
38.38663193484779
 20
-11.7512207001872
 10
40.41303709927174
 20
-11.12214626458058
 10
42.443576378278
 20
-10.4923828098769
 10
43.77889538836084
 20
-11.20689561351772
 10
44.41899412952025
 20
-13.26844075189122
 10
44.41899412952025
 20
-13.26844075189122
 10
47.20745441528148
 20
-22.25118272013165
 10
47.20745441528148
 20
-22.25118272013165
 97
        0
 97
        0
 92
        1
 93
        1
 72
     4
 94
        3
 73
     0
 74
     1
 95
       26
 96
       22
 40
0.0
 40
0.0
 40
0.0
 40
0.0
 40
1.0
 40
1.0
 40
1.0
 40
2.0
 40
2.0
 40
2.0
 40
3.0
 40
3.0
 40
3.0
 40
4.0
 40
4.0
 40
4.0
 40
5.0
 40
5.0
 40
5.0
 40
6.0
 40
6.0
 40
6.0
 40
7.0
 40
7.0
 40
7.0
 40
7.0
 10
42.3002604060916
 20
-13.92645398957394
 10
42.09424369607366
 20
-13.26223958001777
 10
41.68427733332894
 20
-13.02452799153554
 10
41.07036131785741
 20
-13.21607530051543
 10
41.07036131785741
 20
-13.21607530051543
 10
41.05589191681936
 20
-13.22089843419478
 10
41.05589191681936
 20
-13.22089843419478
 10
40.44679903502719
 20
-13.40900064768942
 10
40.24491643959155
 20
-13.83550346876335
 10
40.45093314960949
 20
-14.49971787831952
 10
40.45093314960949
 20
-14.49971787831952
 10
43.23939343537071
 20
-23.48245984655994
 10
43.23939343537071
 20
-23.48245984655994
 10
43.44541014538865
 20
-24.14529621792201
 10
43.85537650813338
 20
-24.3823187873072
 10
44.4692925236049
 20
-24.19077147832731
 10
45.08872069185282
 20
-23.99991318844447
 10
45.29473740187076
 20
-23.57134331007939
 10
45.08872069185282
 20
-22.90850693871732
 10
45.08872069185282
 20
-22.90850693871732
 10
42.3002604060916
 20
-13.92645398957394
 10
42.3002604060916
 20
-13.92645398957394
 97
        0
 97
        0
 75
     2
 76
     1
 98
        0
  0
POLYLINE
  5
75
330
6E
100
AcDbEntity
  8
Layer 1
370
     0
100
AcDb2dPolyline
 66
     1
 10
0.0
 20
0.0
 30
0.0
  0
VERTEX
  5
76
330
75
100
AcDbEntity
  8
Layer 1
370
     0
100
AcDbVertex
100
AcDb2dVertex
 10
68.51881508703697
 20
-11.95172525742874
 30
0.0
  0
VERTEX
  5
77
330
75
100
AcDbEntity
  8
Layer 1
370
     0
100
AcDbVertex
100
AcDb2dVertex
 10
64.36540797001976
 20
-24.47120225082665
 30
0.0
  0
VERTEX
  5
78
330
75
100
AcDbEntity
  8
Layer 1
370
     0
100
AcDbVertex
100
AcDb2dVertex
 10
66.33600258758267
 20
-25.12508137392706
 30
0.0
  0
VERTEX
  5
79
330
75
100
AcDbEntity
  8
Layer 1
370
     0
100
AcDbVertex
100
AcDb2dVertex
 10
65.6483615287268
 20
-27.20109591333862
 30
0.0
  0
VERTEX
  5
7A
330
75
100
AcDbEntity
  8
Layer 1
370
     0
100
AcDbVertex
100
AcDb2dVertex
 10
59.60015189482219
 20
-25.19467230272911
 30
0.0
  0
VERTEX
  5
7B
330
75
100
AcDbEntity
  8
Layer 1
370
     0
100
AcDbVertex
100
AcDb2dVertex
 10
60.28917099187215
 20
-23.11865776331756
 30
0.0
  0
VERTEX
  5
7C
330
75
100
AcDbEntity
  8
Layer 1
370
     0
100
AcDbVertex
100
AcDb2dVertex
 10
62.25976560943506
 20
-23.77253688641798
 30
0.0
  0
VERTEX
  5
7D
330
75
100
AcDbEntity
  8
Layer 1
370
     0
100
AcDbVertex
100
AcDb2dVertex
 10
65.7241536294023
 20
-13.32907443243162
 30
0.0
  0
VERTEX
  5
7E
330
75
100
AcDbEntity
  8
Layer 1
370
     0
100
AcDbVertex
100
AcDb2dVertex
 10
63.75355901183939
 20
-12.6738172711371
 30
0.0
  0
VERTEX
  5
7F
330
75
100
AcDbEntity
  8
Layer 1
370
     0
100
AcDbVertex
100
AcDb2dVertex
 10
64.44120007069526
 20
-10.59918076991965
 30
0.0
  0
VERTEX
  5
80
330
75
100
AcDbEntity
  8
Layer 1
370
     0
100
AcDbVertex
100
AcDb2dVertex
 10
68.51881508703697
 20
-11.95172525742874
 30
0.0
  0
SEQEND
  5
81
330
75
100
AcDbEntity
  8
Layer 1
370
     0
  0
HATCH
  5
82
330
6E
100
AcDbEntity
  8
Layer 1
 62
   250
420
  2301728
100
AcDbHatch
 10
0.0
 20
0.0
 30
0.0
210
0.0
220
0.0
230
1.0
  2
SOLID
 70
     1
 71
     0
 91
        1
 92
        1
 93
       10
 72
     1
 10
68.51881508703697
 20
-11.95172525742874
 11
64.36540797001976
 21
-24.47120225082665
 72
     1
 10
64.36540797001976
 20
-24.47120225082665
 11
66.33600258758267
 21
-25.12508137392706
 72
     1
 10
66.33600258758267
 20
-25.12508137392706
 11
65.6483615287268
 21
-27.20109591333862
 72
     1
 10
65.6483615287268
 20
-27.20109591333862
 11
59.60015189482219
 21
-25.19467230272911
 72
     1
 10
59.60015189482219
 20
-25.19467230272911
 11
60.28917099187215
 21
-23.11865776331756
 72
     1
 10
60.28917099187215
 20
-23.11865776331756
 11
62.25976560943506
 21
-23.77253688641798
 72
     1
 10
62.25976560943506
 20
-23.77253688641798
 11
65.7241536294023
 21
-13.32907443243162
 72
     1
 10
65.7241536294023
 20
-13.32907443243162
 11
63.75355901183939
 21
-12.6738172711371
 72
     1
 10
63.75355901183939
 20
-12.6738172711371
 11
64.44120007069526
 21
-10.59918076991965
 72
     1
 10
64.44120007069526
 20
-10.59918076991965
 11
68.51881508703697
 21
-11.95172525742874
 97
        0
 75
     2
 76
     1
 98
        0
  0
SPLINE
  5
83
330
6E
100
AcDbEntity
  8
Layer 1
370
     0
100
AcDbSpline
210
0.0
220
0.0
230
1.0
 70
    11
 71
     3
 72
    62
 73
    58
 74
     0
 42
0.0000000001
 43
0.0000000001
 12
1.0
 22
0.0
 32
0.0
 13
1.0
 23
0.0
 33
0.0
 40
0.0
 40
0.0
 40
0.0
 40
0.0
 40
1.0
 40
1.0
 40
1.0
 40
2.0
 40
2.0
 40
2.0
 40
3.0
 40
3.0
 40
3.0
 40
4.0
 40
4.0
 40
4.0
 40
5.0
 40
5.0
 40
5.0
 40
6.0
 40
6.0
 40
6.0
 40
7.0
 40
7.0
 40
7.0
 40
8.0
 40
8.0
 40
8.0
 40
9.0
 40
9.0
 40
9.0
 40
10.0
 40
10.0
 40
10.0
 40
11.0
 40
11.0
 40
11.0
 40
12.0
 40
12.0
 40
12.0
 40
13.0
 40
13.0
 40
13.0
 40
14.0
 40
14.0
 40
14.0
 40
15.0
 40
15.0
 40
15.0
 40
16.0
 40
16.0
 40
16.0
 40
17.0
 40
17.0
 40
17.0
 40
18.0
 40
18.0
 40
18.0
 40
19.0
 40
19.0
 40
19.0
 40
19.0
 10
77.63315970281394
 20
-32.06694877670549
 30
0.0
 10
78.75074867822899
 20
-31.25252820399243
 30
0.0
 10
80.11638452858202
 20
-31.11059027000013
 30
0.0
 10
81.72593313929075
 20
-31.64389105111681
 30
0.0
 10
83.33961586458177
 20
-32.18270398500988
 30
0.0
 10
84.42688799972662
 20
-32.25022785652078
 30
0.0
 10
84.98774954472529
 20
-31.84990776113475
 30
0.0
 10
84.98774954472529
 20
-31.84990776113475
 30
0.0
 10
87.42687714828217
 20
-30.07292750984288
 30
0.0
 10
87.42687714828217
 20
-30.07292750984288
 30
0.0
 10
87.98911673147495
 20
-29.66433918529225
 30
0.0
 10
88.08282332867374
 20
-29.20200737117172
 30
0.0
 10
87.70661890168446
 20
-28.68662108657835
 30
0.0
 10
87.70661890168446
 20
-28.68662108657835
 30
0.0
 10
87.69835067251987
 20
-28.6735297237344
 30
0.0
 10
87.69835067251987
 20
-28.6735297237344
 30
0.0
 10
87.31939016914238
 20
-28.15400932455872
 30
0.0
 10
86.8494791449543
 20
-28.09819877769768
 30
0.0
 10
86.28723956176152
 20
-28.5081651404424
 30
0.0
 10
86.28723956176152
 20
-28.5081651404424
 30
0.0
 10
84.6211913850947
 20
-29.72083875125035
 30
0.0
 10
84.6211913850947
 20
-29.72083875125035
 30
0.0
 10
84.6211913850947
 20
-29.72083875125035
 30
0.0
 10
83.31618921528207
 20
-27.92870007982338
 30
0.0
 10
83.31618921528207
 20
-27.92870007982338
 30
0.0
 10
83.31618921528207
 20
-27.92870007982338
 30
0.0
 10
84.98223739194889
 20
-26.71464843082134
 30
0.0
 10
84.98223739194889
 20
-26.71464843082134
 30
0.0
 10
86.7268337456794
 20
-25.4440972158612
 30
0.0
 10
88.22338322447193
 20
-25.66596136511129
 30
0.0
 10
89.47188582832648
 20
-27.38299695495981
 30
0.0
 10
90.72452254676332
 20
-29.10003254480833
 30
0.0
 10
90.47647567182533
 20
-30.59520398540676
 30
0.0
 10
88.73325735628892
 20
-31.86506618126985
 30
0.0
 10
88.73325735628892
 20
-31.86506618126985
 30
0.0
 10
86.25003253052083
 20
-33.67443033012306
 30
0.0
 10
86.25003253052083
 20
-33.67443033012306
 30
0.0
 10
85.10901690580609
 20
-34.50538736116532
 30
0.0
 10
83.72960067351205
 20
-34.65214842883697
 30
0.0
 10
82.11178383363873
 20
-34.11815862862324
 30
0.0
 10
80.4981011083477
 20
-33.58003471382722
 30
0.0
 10
79.39015840029136
 20
-33.53111435793667
 30
0.0
 10
78.78657767127558
 20
-33.97208658004865
 30
0.0
 10
78.78657767127558
 20
-33.97208658004865
 30
0.0
 10
78.03830293187931
 20
-34.51572264762107
 30
0.0
 10
78.03830293187931
 20
-34.51572264762107
 30
0.0
 10
78.03830293187931
 20
-34.51572264762107
 30
0.0
 10
80.4829426882126
 20
-37.87331270754557
 30
0.0
 10
80.4829426882126
 20
-37.87331270754557
 30
0.0
 10
80.4829426882126
 20
-37.87331270754557
 30
0.0
 10
78.71629772337648
 20
-39.1604003808349
 30
0.0
 10
78.71629772337648
 20
-39.1604003808349
 30
0.0
 10
78.71629772337648
 20
-39.1604003808349
 30
0.0
 10
74.96527775903647
 20
-34.00929361128934
 30
0.0
 10
74.96527775903647
 20
-34.00929361128934
 30
0.0
 10
74.96527775903647
 20
-34.00929361128934
 30
0.0
 10
77.63315970281394
 20
-32.06694877670549
 30
0.0
 10
77.63315970281394
 20
-32.06694877670549
 30
0.0
  0
HATCH
  5
84
330
6E
100
AcDbEntity
  8
Layer 1
 62
   250
420
  2301728
100
AcDbHatch
 10
0.0
 20
0.0
 30
0.0
210
0.0
220
0.0
230
1.0
  2
SOLID
 70
     1
 71
     0
 91
        1
 92
        1
 93
        1
 72
     4
 94
        3
 73
     0
 74
     1
 95
       62
 96
       58
 40
0.0
 40
0.0
 40
0.0
 40
0.0
 40
1.0
 40
1.0
 40
1.0
 40
2.0
 40
2.0
 40
2.0
 40
3.0
 40
3.0
 40
3.0
 40
4.0
 40
4.0
 40
4.0
 40
5.0
 40
5.0
 40
5.0
 40
6.0
 40
6.0
 40
6.0
 40
7.0
 40
7.0
 40
7.0
 40
8.0
 40
8.0
 40
8.0
 40
9.0
 40
9.0
 40
9.0
 40
10.0
 40
10.0
 40
10.0
 40
11.0
 40
11.0
 40
11.0
 40
12.0
 40
12.0
 40
12.0
 40
13.0
 40
13.0
 40
13.0
 40
14.0
 40
14.0
 40
14.0
 40
15.0
 40
15.0
 40
15.0
 40
16.0
 40
16.0
 40
16.0
 40
17.0
 40
17.0
 40
17.0
 40
18.0
 40
18.0
 40
18.0
 40
19.0
 40
19.0
 40
19.0
 40
19.0
 10
77.63315970281394
 20
-32.06694877670549
 10
78.75074867822899
 20
-31.25252820399243
 10
80.11638452858202
 20
-31.11059027000013
 10
81.72593313929075
 20
-31.64389105111681
 10
83.33961586458177
 20
-32.18270398500988
 10
84.42688799972662
 20
-32.25022785652078
 10
84.98774954472529
 20
-31.84990776113475
 10
84.98774954472529
 20
-31.84990776113475
 10
87.42687714828217
 20
-30.07292750984288
 10
87.42687714828217
 20
-30.07292750984288
 10
87.98911673147495
 20
-29.66433918529225
 10
88.08282332867374
 20
-29.20200737117172
 10
87.70661890168446
 20
-28.68662108657835
 10
87.70661890168446
 20
-28.68662108657835
 10
87.69835067251987
 20
-28.6735297237344
 10
87.69835067251987
 20
-28.6735297237344
 10
87.31939016914238
 20
-28.15400932455872
 10
86.8494791449543
 20
-28.09819877769768
 10
86.28723956176152
 20
-28.5081651404424
 10
86.28723956176152
 20
-28.5081651404424
 10
84.6211913850947
 20
-29.72083875125035
 10
84.6211913850947
 20
-29.72083875125035
 10
84.6211913850947
 20
-29.72083875125035
 10
83.31618921528207
 20
-27.92870007982338
 10
83.31618921528207
 20
-27.92870007982338
 10
83.31618921528207
 20
-27.92870007982338
 10
84.98223739194889
 20
-26.71464843082134
 10
84.98223739194889
 20
-26.71464843082134
 10
86.7268337456794
 20
-25.4440972158612
 10
88.22338322447193
 20
-25.66596136511129
 10
89.47188582832648
 20
-27.38299695495981
 10
90.72452254676332
 20
-29.10003254480833
 10
90.47647567182533
 20
-30.59520398540676
 10
88.73325735628892
 20
-31.86506618126985
 10
88.73325735628892
 20
-31.86506618126985
 10
86.25003253052083
 20
-33.67443033012306
 10
86.25003253052083
 20
-33.67443033012306
 10
85.10901690580609
 20
-34.50538736116532
 10
83.72960067351205
 20
-34.65214842883697
 10
82.11178383363873
 20
-34.11815862862324
 10
80.4981011083477
 20
-33.58003471382722
 10
79.39015840029136
 20
-33.53111435793667
 10
78.78657767127558
 20
-33.97208658004865
 10
78.78657767127558
 20
-33.97208658004865
 10
78.03830293187931
 20
-34.51572264762107
 10
78.03830293187931
 20
-34.51572264762107
 10
78.03830293187931
 20
-34.51572264762107
 10
80.4829426882126
 20
-37.87331270754557
 10
80.4829426882126
 20
-37.87331270754557
 10
80.4829426882126
 20
-37.87331270754557
 10
78.71629772337648
 20
-39.1604003808349
 10
78.71629772337648
 20
-39.1604003808349
 10
78.71629772337648
 20
-39.1604003808349
 10
74.96527775903647
 20
-34.00929361128934
 10
74.96527775903647
 20
-34.00929361128934
 10
74.96527775903647
 20
-34.00929361128934
 10
77.63315970281394
 20
-32.06694877670549
 10
77.63315970281394
 20
-32.06694877670549
 97
        0
 97
        0
 75
     2
 76
     1
 98
        0
  0
SPLINE
  5
85
330
6E
100
AcDbEntity
  8
Layer 1
370
     0
100
AcDbSpline
210
0.0
220
0.0
230
1.0
 70
    11
 71
     3
 72
    92
 73
    88
 74
     0
 42
0.0000000001
 43
0.0000000001
 12
1.0
 22
0.0
 32
0.0
 13
1.0
 23
0.0
 33
0.0
 40
0.0
 40
0.0
 40
0.0
 40
0.0
 40
1.0
 40
1.0
 40
1.0
 40
2.0
 40
2.0
 40
2.0
 40
3.0
 40
3.0
 40
3.0
 40
4.0
 40
4.0
 40
4.0
 40
5.0
 40
5.0
 40
5.0
 40
6.0
 40
6.0
 40
6.0
 40
7.0
 40
7.0
 40
7.0
 40
8.0
 40
8.0
 40
8.0
 40
9.0
 40
9.0
 40
9.0
 40
10.0
 40
10.0
 40
10.0
 40
11.0
 40
11.0
 40
11.0
 40
12.0
 40
12.0
 40
12.0
 40
13.0
 40
13.0
 40
13.0
 40
14.0
 40
14.0
 40
14.0
 40
15.0
 40
15.0
 40
15.0
 40
16.0
 40
16.0
 40
16.0
 40
17.0
 40
17.0
 40
17.0
 40
18.0
 40
18.0
 40
18.0
 40
19.0
 40
19.0
 40
19.0
 40
20.0
 40
20.0
 40
20.0
 40
21.0
 40
21.0
 40
21.0
 40
22.0
 40
22.0
 40
22.0
 40
23.0
 40
23.0
 40
23.0
 40
24.0
 40
24.0
 40
24.0
 40
25.0
 40
25.0
 40
25.0
 40
26.0
 40
26.0
 40
26.0
 40
27.0
 40
27.0
 40
27.0
 40
28.0
 40
28.0
 40
28.0
 40
29.0
 40
29.0
 40
29.0
 40
29.0
 10
94.72358938604133
 20
-54.24854056803509
 30
0.0
 10
95.41260848309129
 20
-54.24647351074394
 30
0.0
 10
95.75849606981038
 20
-53.9219455160334
 30
0.0
 10
95.76125214619859
 20
-53.27909069848579
 30
0.0
 10
95.76125214619859
 20
-53.27909069848579
 30
0.0
 10
95.76125214619859
 20
-53.26393227835069
 30
0.0
 10
95.76125214619859
 20
-53.26393227835069
 30
0.0
 10
95.75711803161629
 20
-52.62452255628832
 30
0.0
 10
95.40847436850899
 20
-52.30895180983943
 30
0.0
 10
94.71256508048853
 20
-52.31308592442173
 30
0.0
 10
94.71256508048853
 20
-52.31308592442173
 30
0.0
 10
92.65101994211503
 20
-52.32411022997453
 30
0.0
 10
92.65101994211503
 20
-52.32411022997453
 30
0.0
 10
92.65101994211503
 20
-52.32411022997453
 30
0.0
 10
92.63861759836813
 20
-50.10615775657069
 30
0.0
 10
92.63861759836813
 20
-50.10615775657069
 30
0.0
 10
92.63861759836813
 20
-50.10615775657069
 30
0.0
 10
94.70016273674163
 20
-50.09513345101789
 30
0.0
 10
94.70016273674163
 20
-50.09513345101789
 30
0.0
 10
96.85403643411983
 20
-50.08342012636803
 30
0.0
 10
97.93579641648827
 20
-51.13830836395154
 30
0.0
 10
97.94819876023517
 20
-53.25842012557429
 30
0.0
 10
97.96060110398207
 20
-55.38748913545869
 30
0.0
 10
96.88986542716643
 20
-56.45546873588614
 30
0.0
 10
94.73599172978822
 20
-56.46787107963303
 30
0.0
 10
94.73599172978822
 20
-56.46787107963303
 30
0.0
 10
92.06397567142845
 20
-56.48302949976814
 30
0.0
 10
92.06397567142845
 20
-56.48302949976814
 30
0.0
 10
91.0552517133473
 20
-56.48854165254453
 30
0.0
 10
90.34004989060944
 20
-56.08753253806145
 30
0.0
 10
89.91699216502076
 20
-55.28000215631889
 30
0.0
 10
89.50358070679077
 20
-56.09166665264375
 30
0.0
 10
88.7925129986352
 20
-56.50094399629143
 30
0.0
 10
87.78378904055405
 20
-56.50645614906783
 30
0.0
 10
87.78378904055405
 20
-56.50645614906783
 30
0.0
 10
85.33088105505617
 20
-56.52023653100883
 30
0.0
 10
85.33088105505617
 20
-56.52023653100883
 30
0.0
 10
83.17838539587207
 20
-56.53126083656163
 30
0.0
 10
82.09524737530953
 20
-55.47568357988108
 30
0.0
 10
82.08422306975673
 20
-53.34799260819078
 30
0.0
 10
82.07182072600983
 20
-51.22788084656803
 30
0.0
 10
83.14255640282548
 20
-50.16059026523763
 30
0.0
 10
85.29505206200957
 20
-50.14818792149073
 30
0.0
 10
85.29505206200957
 20
-50.14818792149073
 30
0.0
 10
87.35659720038308
 20
-50.13716361593794
 30
0.0
 10
87.35659720038308
 20
-50.13716361593794
 30
0.0
 10
87.35659720038308
 20
-50.13716361593794
 30
0.0
 10
87.36899954412998
 20
-52.35511608934178
 30
0.0
 10
87.36899954412998
 20
-52.35511608934178
 30
0.0
 10
87.36899954412998
 20
-52.35511608934178
 30
0.0
 10
85.30745440575647
 20
-52.36614039489458
 30
0.0
 10
85.30745440575647
 20
-52.36614039489458
 30
0.0
 10
84.6129231559301
 20
-52.36889647128278
 30
0.0
 10
84.26703556921102
 20
-52.69066838960511
 30
0.0
 10
84.26979164559923
 20
-53.32732203527928
 30
0.0
 10
84.26979164559923
 20
-53.32732203527928
 30
0.0
 10
84.27116968379332
 20
-53.34385849360848
 30
0.0
 10
84.27116968379332
 20
-53.34385849360848
 30
0.0
 10
84.27943791295792
 20
-53.98602429205905
 30
0.0
 10
84.6280815760652
 20
-54.30641817218729
 30
0.0
 10
85.31847871130927
 20
-54.30159503850793
 30
0.0
 10
85.31847871130927
 20
-54.30159503850793
 30
0.0
 10
87.77138669680716
 20
-54.28919269476103
 30
0.0
 10
87.77138669680716
 20
-54.28919269476103
 30
0.0
 10
88.33087020361172
 20
-54.28505858017873
 30
0.0
 10
88.66159937019572
 20
-54.16585827638909
 30
0.0
 10
88.76495223475321
 20
-53.930213745198
 30
0.0
 10
88.817317686129
 20
-53.80481226953491
 30
0.0
 10
88.8421223736228
 20
-53.61119790326387
 30
0.0
 10
88.84074433542871
 20
-53.35005966548193
 30
0.0
 10
88.84074433542871
 20
-53.35005966548193
 30
0.0
 10
88.83661022084641
 20
-52.61969942260897
 30
0.0
 10
88.83661022084641
 20
-52.61969942260897
 30
0.0
 10
88.83661022084641
 20
-52.61969942260897
 30
0.0
 10
91.0221787966889
 20
-52.60867511705617
 30
0.0
 10
91.0221787966889
 20
-52.60867511705617
 30
0.0
 10
91.0221787966889
 20
-52.60867511705617
 30
0.0
 10
91.02769094946531
 20
-53.51060111509457
 30
0.0
 10
91.02769094946531
 20
-53.51060111509457
 30
0.0
 10
91.0290689876594
 20
-53.71868488240366
 30
0.0
 10
91.06076386612371
 20
-53.87578123653105
 30
0.0
 10
91.1241536230523
 20
-53.9798231201856
 30
0.0
 10
91.2357747167744
 20
-54.17205944826254
 30
0.0
 10
91.54858938683508
 20
-54.26714408365544
 30
0.0
 10
92.06673174781666
 20
-54.26369898817019
 30
0.0
 10
92.06673174781666
 20
-54.26369898817019
 30
0.0
 10
94.72358938604133
 20
-54.24854056803509
 30
0.0
 10
94.72358938604133
 20
-54.24854056803509
 30
0.0
  0
HATCH
  5
86
330
6E
100
AcDbEntity
  8
Layer 1
 62
   250
420
  2301728
100
AcDbHatch
 10
0.0
 20
0.0
 30
0.0
210
0.0
220
0.0
230
1.0
  2
SOLID
 70
     1
 71
     0
 91
        1
 92
        1
 93
        1
 72
     4
 94
        3
 73
     0
 74
     1
 95
       92
 96
       88
 40
0.0
 40
0.0
 40
0.0
 40
0.0
 40
1.0
 40
1.0
 40
1.0
 40
2.0
 40
2.0
 40
2.0
 40
3.0
 40
3.0
 40
3.0
 40
4.0
 40
4.0
 40
4.0
 40
5.0
 40
5.0
 40
5.0
 40
6.0
 40
6.0
 40
6.0
 40
7.0
 40
7.0
 40
7.0
 40
8.0
 40
8.0
 40
8.0
 40
9.0
 40
9.0
 40
9.0
 40
10.0
 40
10.0
 40
10.0
 40
11.0
 40
11.0
 40
11.0
 40
12.0
 40
12.0
 40
12.0
 40
13.0
 40
13.0
 40
13.0
 40
14.0
 40
14.0
 40
14.0
 40
15.0
 40
15.0
 40
15.0
 40
16.0
 40
16.0
 40
16.0
 40
17.0
 40
17.0
 40
17.0
 40
18.0
 40
18.0
 40
18.0
 40
19.0
 40
19.0
 40
19.0
 40
20.0
 40
20.0
 40
20.0
 40
21.0
 40
21.0
 40
21.0
 40
22.0
 40
22.0
 40
22.0
 40
23.0
 40
23.0
 40
23.0
 40
24.0
 40
24.0
 40
24.0
 40
25.0
 40
25.0
 40
25.0
 40
26.0
 40
26.0
 40
26.0
 40
27.0
 40
27.0
 40
27.0
 40
28.0
 40
28.0
 40
28.0
 40
29.0
 40
29.0
 40
29.0
 40
29.0
 10
94.72358938604133
 20
-54.24854056803509
 10
95.41260848309129
 20
-54.24647351074394
 10
95.75849606981038
 20
-53.9219455160334
 10
95.76125214619859
 20
-53.27909069848579
 10
95.76125214619859
 20
-53.27909069848579
 10
95.76125214619859
 20
-53.26393227835069
 10
95.76125214619859
 20
-53.26393227835069
 10
95.75711803161629
 20
-52.62452255628832
 10
95.40847436850899
 20
-52.30895180983943
 10
94.71256508048853
 20
-52.31308592442173
 10
94.71256508048853
 20
-52.31308592442173
 10
92.65101994211503
 20
-52.32411022997453
 10
92.65101994211503
 20
-52.32411022997453
 10
92.65101994211503
 20
-52.32411022997453
 10
92.63861759836813
 20
-50.10615775657069
 10
92.63861759836813
 20
-50.10615775657069
 10
92.63861759836813
 20
-50.10615775657069
 10
94.70016273674163
 20
-50.09513345101789
 10
94.70016273674163
 20
-50.09513345101789
 10
96.85403643411983
 20
-50.08342012636803
 10
97.93579641648827
 20
-51.13830836395154
 10
97.94819876023517
 20
-53.25842012557429
 10
97.96060110398207
 20
-55.38748913545869
 10
96.88986542716643
 20
-56.45546873588614
 10
94.73599172978822
 20
-56.46787107963303
 10
94.73599172978822
 20
-56.46787107963303
 10
92.06397567142845
 20
-56.48302949976814
 10
92.06397567142845
 20
-56.48302949976814
 10
91.0552517133473
 20
-56.48854165254453
 10
90.34004989060944
 20
-56.08753253806145
 10
89.91699216502076
 20
-55.28000215631889
 10
89.50358070679077
 20
-56.09166665264375
 10
88.7925129986352
 20
-56.50094399629143
 10
87.78378904055405
 20
-56.50645614906783
 10
87.78378904055405
 20
-56.50645614906783
 10
85.33088105505617
 20
-56.52023653100883
 10
85.33088105505617
 20
-56.52023653100883
 10
83.17838539587207
 20
-56.53126083656163
 10
82.09524737530953
 20
-55.47568357988108
 10
82.08422306975673
 20
-53.34799260819078
 10
82.07182072600983
 20
-51.22788084656803
 10
83.14255640282548
 20
-50.16059026523763
 10
85.29505206200957
 20
-50.14818792149073
 10
85.29505206200957
 20
-50.14818792149073
 10
87.35659720038308
 20
-50.13716361593794
 10
87.35659720038308
 20
-50.13716361593794
 10
87.35659720038308
 20
-50.13716361593794
 10
87.36899954412998
 20
-52.35511608934178
 10
87.36899954412998
 20
-52.35511608934178
 10
87.36899954412998
 20
-52.35511608934178
 10
85.30745440575647
 20
-52.36614039489458
 10
85.30745440575647
 20
-52.36614039489458
 10
84.6129231559301
 20
-52.36889647128278
 10
84.26703556921102
 20
-52.69066838960511
 10
84.26979164559923
 20
-53.32732203527928
 10
84.26979164559923
 20
-53.32732203527928
 10
84.27116968379332
 20
-53.34385849360848
 10
84.27116968379332
 20
-53.34385849360848
 10
84.27943791295792
 20
-53.98602429205905
 10
84.6280815760652
 20
-54.30641817218729
 10
85.31847871130927
 20
-54.30159503850793
 10
85.31847871130927
 20
-54.30159503850793
 10
87.77138669680716
 20
-54.28919269476103
 10
87.77138669680716
 20
-54.28919269476103
 10
88.33087020361172
 20
-54.28505858017873
 10
88.66159937019572
 20
-54.16585827638909
 10
88.76495223475321
 20
-53.930213745198
 10
88.817317686129
 20
-53.80481226953491
 10
88.8421223736228
 20
-53.61119790326387
 10
88.84074433542871
 20
-53.35005966548193
 10
88.84074433542871
 20
-53.35005966548193
 10
88.83661022084641
 20
-52.61969942260897
 10
88.83661022084641
 20
-52.61969942260897
 10
88.83661022084641
 20
-52.61969942260897
 10
91.0221787966889
 20
-52.60867511705617
 10
91.0221787966889
 20
-52.60867511705617
 10
91.0221787966889
 20
-52.60867511705617
 10
91.02769094946531
 20
-53.51060111509457
 10
91.02769094946531
 20
-53.51060111509457
 10
91.0290689876594
 20
-53.71868488240366
 10
91.06076386612371
 20
-53.87578123653105
 10
91.1241536230523
 20
-53.9798231201856
 10
91.2357747167744
 20
-54.17205944826254
 10
91.54858938683508
 20
-54.26714408365544
 10
92.06673174781666
 20
-54.26369898817019
 10
92.06673174781666
 20
-54.26369898817019
 10
94.72358938604133
 20
-54.24854056803509
 10
94.72358938604133
 20
-54.24854056803509
 97
        0
 97
        0
 75
     2
 76
     1
 98
        0
  0
POLYLINE
  5
87
330
6E
100
AcDbEntity
  8
Layer 1
370
     0
100
AcDb2dPolyline
 66
     1
 10
0.0
 20
0.0
 30
0.0
  0
VERTEX
  5
88
330
87
100
AcDbEntity
  8
Layer 1
370
     0
100
AcDbVertex
100
AcDb2dVertex
 10
87.81686195721245
 20
-81.45445961505305
 30
0.0
  0
VERTEX
  5
89
330
87
100
AcDbEntity
  8
Layer 1
370
     0
100
AcDbVertex
100
AcDb2dVertex
 10
79.60375432037684
 20
-75.59641925193424
 30
0.0
  0
VERTEX
  5
8A
330
87
100
AcDbEntity
  8
Layer 1
370
     0
100
AcDbVertex
100
AcDb2dVertex
 10
79.10766057050087
 20
-76.2937065781488
 30
0.0
  0
VERTEX
  5
8B
330
87
100
AcDbEntity
  8
Layer 1
370
     0
100
AcDbVertex
100
AcDb2dVertex
 10
77.32723522372375
 20
-75.02315536318866
 30
0.0
  0
VERTEX
  5
8C
330
87
100
AcDbEntity
  8
Layer 1
370
     0
100
AcDbVertex
100
AcDb2dVertex
 10
77.82332897359973
 20
-74.32724607516819
 30
0.0
  0
VERTEX
  5
8D
330
87
100
AcDbEntity
  8
Layer 1
370
     0
100
AcDbVertex
100
AcDb2dVertex
 10
75.29600692562045
 20
-72.52477211728548
 30
0.0
  0
VERTEX
  5
8E
330
87
100
AcDbEntity
  8
Layer 1
370
     0
100
AcDbVertex
100
AcDb2dVertex
 10
76.58447263710389
 20
-70.71816404482047
 30
0.0
  0
VERTEX
  5
8F
330
87
100
AcDbEntity
  8
Layer 1
370
     0
100
AcDbVertex
100
AcDb2dVertex
 10
79.11041664688906
 20
-72.52201604089727
 30
0.0
  0
VERTEX
  5
90
330
87
100
AcDbEntity
  8
Layer 1
370
     0
100
AcDbVertex
100
AcDb2dVertex
 10
81.72317706290254
 20
-68.85919052097965
 30
0.0
  0
VERTEX
  5
91
330
87
100
AcDbEntity
  8
Layer 1
370
     0
100
AcDbVertex
100
AcDb2dVertex
 10
83.30516490972927
 20
-69.98780380194749
 30
0.0
  0
VERTEX
  5
92
330
87
100
AcDbEntity
  8
Layer 1
370
     0
100
AcDbVertex
100
AcDb2dVertex
 10
89.45948348457958
 20
-79.15175779271206
 30
0.0
  0
VERTEX
  5
93
330
87
100
AcDbEntity
  8
Layer 1
370
     0
100
AcDbVertex
100
AcDb2dVertex
 10
87.81686195721245
 20
-81.45445961505305
 30
0.0
  0
SEQEND
  5
94
330
87
100
AcDbEntity
  8
Layer 1
370
     0
  0
POLYLINE
  5
95
330
6E
100
AcDbEntity
  8
Layer 1
370
     0
100
AcDb2dPolyline
 66
     1
 10
0.0
 20
0.0
 30
0.0
  0
VERTEX
  5
96
330
95
100
AcDbEntity
  8
Layer 1
370
     0
100
AcDbVertex
100
AcDb2dVertex
 10
82.23442923291361
 20
-71.91016708271691
 30
0.0
  0
VERTEX
  5
97
330
95
100
AcDbEntity
  8
Layer 1
370
     0
100
AcDbVertex
100
AcDb2dVertex
 10
80.89084199366619
 20
-73.79118921766332
 30
0.0
  0
VERTEX
  5
98
330
95
100
AcDbEntity
  8
Layer 1
370
     0
100
AcDbVertex
100
AcDb2dVertex
 10
86.21420353747423
 20
-77.58768444240864
 30
0.0
  0
VERTEX
  5
99
330
95
100
AcDbEntity
  8
Layer 1
370
     0
100
AcDbVertex
100
AcDb2dVertex
 10
82.23442923291361
 20
-71.91016708271691
 30
0.0
  0
SEQEND
  5
9A
330
95
100
AcDbEntity
  8
Layer 1
370
     0
  0
HATCH
  5
9B
330
6E
100
AcDbEntity
  8
Layer 1
 62
   250
420
  2301728
100
AcDbHatch
 10
0.0
 20
0.0
 30
0.0
210
0.0
220
0.0
230
1.0
  2
SOLID
 70
     1
 71
     0
 91
        2
 92
        1
 93
       11
 72
     1
 10
87.81686195721245
 20
-81.45445961505305
 11
79.60375432037684
 21
-75.59641925193424
 72
     1
 10
79.60375432037684
 20
-75.59641925193424
 11
79.10766057050087
 21
-76.2937065781488
 72
     1
 10
79.10766057050087
 20
-76.2937065781488
 11
77.32723522372375
 21
-75.02315536318866
 72
     1
 10
77.32723522372375
 20
-75.02315536318866
 11
77.82332897359973
 21
-74.32724607516819
 72
     1
 10
77.82332897359973
 20
-74.32724607516819
 11
75.29600692562045
 21
-72.52477211728548
 72
     1
 10
75.29600692562045
 20
-72.52477211728548
 11
76.58447263710389
 21
-70.71816404482047
 72
     1
 10
76.58447263710389
 20
-70.71816404482047
 11
79.11041664688906
 21
-72.52201604089727
 72
     1
 10
79.11041664688906
 20
-72.52201604089727
 11
81.72317706290254
 21
-68.85919052097965
 72
     1
 10
81.72317706290254
 20
-68.85919052097965
 11
83.30516490972927
 21
-69.98780380194749
 72
     1
 10
83.30516490972927
 20
-69.98780380194749
 11
89.45948348457958
 21
-79.15175779271206
 72
     1
 10
89.45948348457958
 20
-79.15175779271206
 11
87.81686195721245
 21
-81.45445961505305
 97
        0
 92
        1
 93
        3
 72
     1
 10
82.23442923291361
 20
-71.91016708271691
 11
80.89084199366619
 21
-73.79118921766332
 72
     1
 10
80.89084199366619
 20
-73.79118921766332
 11
86.21420353747423
 21
-77.58768444240864
 72
     1
 10
86.21420353747423
 20
-77.58768444240864
 11
82.23442923291361
 21
-71.91016708271691
 97
        0
 75
     2
 76
     1
 98
        0
  0
SPLINE
  5
9C
330
6E
100
AcDbEntity
  8
Layer 1
370
     0
100
AcDbSpline
210
0.0
220
0.0
230
1.0
 70
    11
 71
     3
 72
    80
 73
    76
 74
     0
 42
0.0000000001
 43
0.0000000001
 12
1.0
 22
0.0
 32
0.0
 13
1.0
 23
0.0
 33
0.0
 40
0.0
 40
0.0
 40
0.0
 40
0.0
 40
1.0
 40
1.0
 40
1.0
 40
2.0
 40
2.0
 40
2.0
 40
3.0
 40
3.0
 40
3.0
 40
4.0
 40
4.0
 40
4.0
 40
5.0
 40
5.0
 40
5.0
 40
6.0
 40
6.0
 40
6.0
 40
7.0
 40
7.0
 40
7.0
 40
8.0
 40
8.0
 40
8.0
 40
9.0
 40
9.0
 40
9.0
 40
10.0
 40
10.0
 40
10.0
 40
11.0
 40
11.0
 40
11.0
 40
12.0
 40
12.0
 40
12.0
 40
13.0
 40
13.0
 40
13.0
 40
14.0
 40
14.0
 40
14.0
 40
15.0
 40
15.0
 40
15.0
 40
16.0
 40
16.0
 40
16.0
 40
17.0
 40
17.0
 40
17.0
 40
18.0
 40
18.0
 40
18.0
 40
19.0
 40
19.0
 40
19.0
 40
20.0
 40
20.0
 40
20.0
 40
21.0
 40
21.0
 40
21.0
 40
22.0
 40
22.0
 40
22.0
 40
23.0
 40
23.0
 40
23.0
 40
24.0
 40
24.0
 40
24.0
 40
25.0
 40
25.0
 40
25.0
 40
25.0
 10
64.32131074780857
 20
-87.94364147106965
 30
0.0
 10
64.49632159845926
 20
-88.45902775566303
 30
0.0
 10
64.70853948035065
 20
-88.72636716531841
 30
0.0
 10
64.95658635528864
 20
-88.74565970003582
 30
0.0
 10
65.09439017469863
 20
-88.76081812017091
 30
0.0
 10
65.29420571284312
 20
-88.72223305073611
 30
0.0
 10
65.55603296972211
 20
-88.63403860631372
 30
0.0
 10
65.6208007648448
 20
-88.61198999520812
 30
0.0
 10
65.6869465981616
 20
-88.58718530771432
 30
0.0
 10
65.7544704696725
 20
-88.55824650563822
 30
0.0
 10
66.17339408067888
 20
-88.39425996054032
 30
0.0
 10
66.34564885494137
 20
-88.12278643630265
 30
0.0
 10
66.27261283065407
 20
-87.74520397111925
 30
0.0
 10
66.27261283065407
 20
-87.74520397111925
 30
0.0
 10
66.09484590361518
 20
-87.15126950946218
 30
0.0
 10
66.09484590361518
 20
-87.15126950946218
 30
0.0
 10
66.09484590361518
 20
-87.15126950946218
 30
0.0
 10
68.19497611142349
 20
-86.43744572491842
 30
0.0
 10
68.19497611142349
 20
-86.43744572491842
 30
0.0
 10
68.19497611142349
 20
-86.43744572491842
 30
0.0
 10
70.52386065945237
 20
-94.31431204239365
 30
0.0
 10
70.52386065945237
 20
-94.31431204239365
 30
0.0
 10
70.52386065945237
 20
-94.31431204239365
 30
0.0
 10
64.80362411574355
 20
-96.25872393426866
 30
0.0
 10
64.80362411574355
 20
-96.25872393426866
 30
0.0
 10
64.80362411574355
 20
-96.25872393426866
 30
0.0
 10
64.09944659855847
 20
-94.18753252853645
 30
0.0
 10
64.09944659855847
 20
-94.18753252853645
 30
0.0
 10
64.09944659855847
 20
-94.18753252853645
 30
0.0
 10
67.802235226105
 20
-92.92800561912911
 30
0.0
 10
67.802235226105
 20
-92.92800561912911
 30
0.0
 10
67.802235226105
 20
-92.92800561912911
 30
0.0
 10
66.88721786522264
 20
-89.74611542895236
 30
0.0
 10
66.88721786522264
 20
-89.74611542895236
 30
0.0
 10
66.66948783055486
 20
-90.27803817187494
 30
0.0
 10
66.25469833413078
 20
-90.64873044608782
 30
0.0
 10
65.6414713377563
 20
-90.85681421339692
 30
0.0
 10
65.5574110079162
 20
-90.88437497727891
 30
0.0
 10
65.46921656349382
 20
-90.91055770296681
 30
0.0
 10
65.37688800448912
 20
-90.9298502376842
 30
0.0
 10
64.62310111231645
 20
-91.1131293174995
 30
0.0
 10
63.96577689373078
 20
-91.009776452942
 30
0.0
 10
63.40629338692621
 20
-90.61427949123532
 30
0.0
 10
62.95016274467913
 20
-90.29457463020414
 30
0.0
 10
62.55466578297245
 20
-89.64276256439487
 30
0.0
 10
62.22118054000026
 20
-88.65884329380752
 30
0.0
 10
62.22118054000026
 20
-88.65884329380752
 30
0.0
 10
60.81558158201833
 20
-84.52610674970181
 30
0.0
 10
60.81558158201833
 20
-84.52610674970181
 30
0.0
 10
60.12242837038606
 20
-82.48661022243391
 30
0.0
 10
60.78388670355403
 20
-81.12648652485727
 30
0.0
 10
62.79582246693994
 20
-80.4402235041955
 30
0.0
 10
64.80500215393764
 20
-79.75809459811603
 30
0.0
 10
66.15547958415557
 20
-80.4374674278073
 30
0.0
 10
66.84863279578785
 20
-82.4755859168811
 30
0.0
 10
66.84863279578785
 20
-82.4755859168811
 30
0.0
 10
67.43292099008622
 20
-84.19675562131192
 30
0.0
 10
67.43292099008622
 20
-84.19675562131192
 30
0.0
 10
67.43292099008622
 20
-84.19675562131192
 30
0.0
 10
65.33279078227791
 20
-84.9092013676616
 30
0.0
 10
65.33279078227791
 20
-84.9092013676616
 30
0.0
 10
65.33279078227791
 20
-84.9092013676616
 30
0.0
 10
64.74850258797954
 20
-83.18803166323077
 30
0.0
 10
64.74850258797954
 20
-83.18803166323077
 30
0.0
 10
64.52526040053536
 20
-82.529329406451
 30
0.0
 10
64.11184894230537
 20
-82.30470918081272
 30
0.0
 10
63.5068901750955
 20
-82.5086588335395
 30
0.0
 10
63.5068901750955
 20
-82.5086588335395
 30
0.0
 10
63.4931097931545
 20
-82.5127929481218
 30
0.0
 10
63.4931097931545
 20
-82.5127929481218
 30
0.0
 10
62.88677298775053
 20
-82.72501083001319
 30
0.0
 10
62.69384764057654
 20
-83.15771482296057
 30
0.0
 10
62.91571178982663
 20
-83.81090492696394
 30
0.0
 10
62.91571178982663
 20
-83.81090492696394
 30
0.0
 10
64.32131074780857
 20
-87.94364147106965
 30
0.0
 10
64.32131074780857
 20
-87.94364147106965
 30
0.0
  0
HATCH
  5
9D
330
6E
100
AcDbEntity
  8
Layer 1
 62
   250
420
  2301728
100
AcDbHatch
 10
0.0
 20
0.0
 30
0.0
210
0.0
220
0.0
230
1.0
  2
SOLID
 70
     1
 71
     0
 91
        1
 92
        1
 93
        1
 72
     4
 94
        3
 73
     0
 74
     1
 95
       80
 96
       76
 40
0.0
 40
0.0
 40
0.0
 40
0.0
 40
1.0
 40
1.0
 40
1.0
 40
2.0
 40
2.0
 40
2.0
 40
3.0
 40
3.0
 40
3.0
 40
4.0
 40
4.0
 40
4.0
 40
5.0
 40
5.0
 40
5.0
 40
6.0
 40
6.0
 40
6.0
 40
7.0
 40
7.0
 40
7.0
 40
8.0
 40
8.0
 40
8.0
 40
9.0
 40
9.0
 40
9.0
 40
10.0
 40
10.0
 40
10.0
 40
11.0
 40
11.0
 40
11.0
 40
12.0
 40
12.0
 40
12.0
 40
13.0
 40
13.0
 40
13.0
 40
14.0
 40
14.0
 40
14.0
 40
15.0
 40
15.0
 40
15.0
 40
16.0
 40
16.0
 40
16.0
 40
17.0
 40
17.0
 40
17.0
 40
18.0
 40
18.0
 40
18.0
 40
19.0
 40
19.0
 40
19.0
 40
20.0
 40
20.0
 40
20.0
 40
21.0
 40
21.0
 40
21.0
 40
22.0
 40
22.0
 40
22.0
 40
23.0
 40
23.0
 40
23.0
 40
24.0
 40
24.0
 40
24.0
 40
25.0
 40
25.0
 40
25.0
 40
25.0
 10
64.32131074780857
 20
-87.94364147106965
 10
64.49632159845926
 20
-88.45902775566303
 10
64.70853948035065
 20
-88.72636716531841
 10
64.95658635528864
 20
-88.74565970003582
 10
65.09439017469863
 20
-88.76081812017091
 10
65.29420571284312
 20
-88.72223305073611
 10
65.55603296972211
 20
-88.63403860631372
 10
65.6208007648448
 20
-88.61198999520812
 10
65.6869465981616
 20
-88.58718530771432
 10
65.7544704696725
 20
-88.55824650563822
 10
66.17339408067888
 20
-88.39425996054032
 10
66.34564885494137
 20
-88.12278643630265
 10
66.27261283065407
 20
-87.74520397111925
 10
66.27261283065407
 20
-87.74520397111925
 10
66.09484590361518
 20
-87.15126950946218
 10
66.09484590361518
 20
-87.15126950946218
 10
66.09484590361518
 20
-87.15126950946218
 10
68.19497611142349
 20
-86.43744572491842
 10
68.19497611142349
 20
-86.43744572491842
 10
68.19497611142349
 20
-86.43744572491842
 10
70.52386065945237
 20
-94.31431204239365
 10
70.52386065945237
 20
-94.31431204239365
 10
70.52386065945237
 20
-94.31431204239365
 10
64.80362411574355
 20
-96.25872393426866
 10
64.80362411574355
 20
-96.25872393426866
 10
64.80362411574355
 20
-96.25872393426866
 10
64.09944659855847
 20
-94.18753252853645
 10
64.09944659855847
 20
-94.18753252853645
 10
64.09944659855847
 20
-94.18753252853645
 10
67.802235226105
 20
-92.92800561912911
 10
67.802235226105
 20
-92.92800561912911
 10
67.802235226105
 20
-92.92800561912911
 10
66.88721786522264
 20
-89.74611542895236
 10
66.88721786522264
 20
-89.74611542895236
 10
66.66948783055486
 20
-90.27803817187494
 10
66.25469833413078
 20
-90.64873044608782
 10
65.6414713377563
 20
-90.85681421339692
 10
65.5574110079162
 20
-90.88437497727891
 10
65.46921656349382
 20
-90.91055770296681
 10
65.37688800448912
 20
-90.9298502376842
 10
64.62310111231645
 20
-91.1131293174995
 10
63.96577689373078
 20
-91.009776452942
 10
63.40629338692621
 20
-90.61427949123532
 10
62.95016274467913
 20
-90.29457463020414
 10
62.55466578297245
 20
-89.64276256439487
 10
62.22118054000026
 20
-88.65884329380752
 10
62.22118054000026
 20
-88.65884329380752
 10
60.81558158201833
 20
-84.52610674970181
 10
60.81558158201833
 20
-84.52610674970181
 10
60.12242837038606
 20
-82.48661022243391
 10
60.78388670355403
 20
-81.12648652485727
 10
62.79582246693994
 20
-80.4402235041955
 10
64.80500215393764
 20
-79.75809459811603
 10
66.15547958415557
 20
-80.4374674278073
 10
66.84863279578785
 20
-82.4755859168811
 10
66.84863279578785
 20
-82.4755859168811
 10
67.43292099008622
 20
-84.19675562131192
 10
67.43292099008622
 20
-84.19675562131192
 10
67.43292099008622
 20
-84.19675562131192
 10
65.33279078227791
 20
-84.9092013676616
 10
65.33279078227791
 20
-84.9092013676616
 10
65.33279078227791
 20
-84.9092013676616
 10
64.74850258797954
 20
-83.18803166323077
 10
64.74850258797954
 20
-83.18803166323077
 10
64.52526040053536
 20
-82.529329406451
 10
64.11184894230537
 20
-82.30470918081272
 10
63.5068901750955
 20
-82.5086588335395
 10
63.5068901750955
 20
-82.5086588335395
 10
63.4931097931545
 20
-82.5127929481218
 10
63.4931097931545
 20
-82.5127929481218
 10
62.88677298775053
 20
-82.72501083001319
 10
62.69384764057654
 20
-83.15771482296057
 10
62.91571178982663
 20
-83.81090492696394
 10
62.91571178982663
 20
-83.81090492696394
 10
64.32131074780857
 20
-87.94364147106965
 10
64.32131074780857
 20
-87.94364147106965
 97
        0
 97
        0
 75
     2
 76
     1
 98
        0
  0
SPLINE
  5
9E
330
6E
100
AcDbEntity
  8
Layer 1
370
     0
100
AcDbSpline
210
0.0
220
0.0
230
1.0
 70
    11
 71
     3
 72
    56
 73
    52
 74
     0
 42
0.0000000001
 43
0.0000000001
 12
1.0
 22
0.0
 32
0.0
 13
1.0
 23
0.0
 33
0.0
 40
0.0
 40
0.0
 40
0.0
 40
0.0
 40
1.0
 40
1.0
 40
1.0
 40
2.0
 40
2.0
 40
2.0
 40
3.0
 40
3.0
 40
3.0
 40
4.0
 40
4.0
 40
4.0
 40
5.0
 40
5.0
 40
5.0
 40
6.0
 40
6.0
 40
6.0
 40
7.0
 40
7.0
 40
7.0
 40
8.0
 40
8.0
 40
8.0
 40
9.0
 40
9.0
 40
9.0
 40
10.0
 40
10.0
 40
10.0
 40
11.0
 40
11.0
 40
11.0
 40
12.0
 40
12.0
 40
12.0
 40
13.0
 40
13.0
 40
13.0
 40
14.0
 40
14.0
 40
14.0
 40
15.0
 40
15.0
 40
15.0
 40
16.0
 40
16.0
 40
16.0
 40
17.0
 40
17.0
 40
17.0
 40
17.0
 10
43.63971353075674
 20
-89.52700735609048
 30
0.0
 10
43.13672958991027
 20
-89.76265188728156
 30
0.0
 10
42.59516057962899
 20
-89.79159068935766
 30
0.0
 10
42.01500649991291
 20
-89.61382376231877
 30
0.0
 10
41.91096461625837
 20
-89.58212888385447
 30
0.0
 10
41.80485567531268
 20
-89.54492185261377
 30
0.0
 10
41.69805771526993
 20
-89.50082463040258
 30
0.0
 10
41.03935545849016
 20
-89.2238389533885
 30
0.0
 10
40.58046873985489
 20
-88.8186957243231
 30
0.0
 10
40.32208657846115
 20
-88.28815101959464
 30
0.0
 10
40.05681422609691
 20
-87.74106985653695
 30
0.0
 10
40.09126518094941
 20
-86.9197590928534
 30
0.0
 10
40.42750650030979
 20
-85.82146265215574
 30
0.0
 10
40.42750650030979
 20
-85.82146265215574
 30
0.0
 10
41.3184081927954
 20
-82.89588756608158
 30
0.0
 10
41.3184081927954
 20
-82.89588756608158
 30
0.0
 10
41.94610459020792
 20
-80.83709850409629
 30
0.0
 10
43.27660046661141
 20
-80.11638452858202
 30
0.0
 10
45.31196287929701
 20
-80.73650171592699
 30
0.0
 10
47.34112412010916
 20
-81.35661890327196
 30
0.0
 10
48.04116752271193
 20
-82.69607202793709
 30
0.0
 10
47.41347112529941
 20
-84.7548610899224
 30
0.0
 10
47.41347112529941
 20
-84.7548610899224
 30
0.0
 10
44.67117511904054
 20
-93.75069442100677
 30
0.0
 10
44.67117511904054
 20
-93.75069442100677
 30
0.0
 10
44.04210068343392
 20
-95.81637367396257
 30
0.0
 10
42.71298284522453
 20
-96.53846568767095
 30
0.0
 10
40.68313258531533
 20
-95.91834850032598
 30
0.0
 10
38.64983722992088
 20
-95.2996093511751
 30
0.0
 10
37.94703775092991
 20
-93.95740015012177
 30
0.0
 10
38.57611218653653
 20
-91.89172089716597
 30
0.0
 10
38.57611218653653
 20
-91.89172089716597
 30
0.0
 10
39.17624782006705
 20
-89.92112627960306
 30
0.0
 10
39.17624782006705
 20
-89.92112627960306
 30
0.0
 10
39.17624782006705
 20
-89.92112627960306
 30
0.0
 10
41.29842663898095
 20
-90.56880423083003
 30
0.0
 10
41.29842663898095
 20
-90.56880423083003
 30
0.0
 10
41.29842663898095
 20
-90.56880423083003
 30
0.0
 10
40.69760198635338
 20
-92.53939884839293
 30
0.0
 10
40.69760198635338
 20
-92.53939884839293
 30
0.0
 10
40.49503037182069
 20
-93.2049912961432
 30
0.0
 10
40.70104708183863
 20
-93.62942705992599
 30
0.0
 10
41.31634113550425
 20
-93.81821829251767
 30
0.0
 10
41.31634113550425
 20
-93.81821829251767
 30
0.0
 10
41.33149955563935
 20
-93.82235240709997
 30
0.0
 10
41.33149955563935
 20
-93.82235240709997
 30
0.0
 10
41.94059243743152
 20
-94.00838756330346
 30
0.0
 10
42.34780272378805
 20
-93.76860891753007
 30
0.0
 10
42.54968531922369
 20
-93.10439450797391
 30
0.0
 10
42.54968531922369
 20
-93.10439450797391
 30
0.0
 10
43.63971353075674
 20
-89.52700735609048
 30
0.0
 10
43.63971353075674
 20
-89.52700735609048
 30
0.0
  0
SPLINE
  5
9F
330
6E
100
AcDbEntity
  8
Layer 1
370
     0
100
AcDbSpline
210
0.0
220
0.0
230
1.0
 70
    11
 71
     3
 72
    29
 73
    25
 74
     0
 42
0.0000000001
 43
0.0000000001
 12
1.0
 22
0.0
 32
0.0
 13
1.0
 23
0.0
 33
0.0
 40
0.0
 40
0.0
 40
0.0
 40
0.0
 40
1.0
 40
1.0
 40
1.0
 40
2.0
 40
2.0
 40
2.0
 40
3.0
 40
3.0
 40
3.0
 40
4.0
 40
4.0
 40
4.0
 40
5.0
 40
5.0
 40
5.0
 40
6.0
 40
6.0
 40
6.0
 40
7.0
 40
7.0
 40
7.0
 40
8.0
 40
8.0
 40
8.0
 40
8.0
 10
42.54830728102959
 20
-86.46776256518862
 30
0.0
 10
42.38914386961105
 20
-86.99279511714069
 30
0.0
 10
42.40568032794025
 20
-87.33317055108338
 30
0.0
 10
42.59722763692014
 20
-87.49026690521077
 30
0.0
 10
42.70126952057468
 20
-87.57983938782726
 30
0.0
 10
42.88454860038998
 20
-87.66803383224966
 30
0.0
 10
43.14913193365717
 20
-87.74796004750746
 30
0.0
 10
43.21527776697396
 20
-87.76863062041896
 30
0.0
 10
43.28280163848486
 20
-87.78654511694225
 30
0.0
 10
43.35445962457806
 20
-87.80308157527145
 30
0.0
 10
43.85537650813338
 20
-87.93261716551685
 30
0.0
 10
44.20470919033772
 20
-87.67630206141426
 30
0.0
 10
44.4003906138999
 20
-87.03138018657549
 30
0.0
 10
44.4003906138999
 20
-87.03138018657549
 30
0.0
 10
45.29267034457961
 20
-84.10856117688952
 30
0.0
 10
45.29267034457961
 20
-84.10856117688952
 30
0.0
 10
45.49455294001525
 20
-83.44159069094516
 30
0.0
 10
45.28853622999731
 20
-83.01715492716238
 30
0.0
 10
44.67393119542874
 20
-82.82974173276479
 30
0.0
 10
44.05381400808377
 20
-82.6409505001731
 30
0.0
 10
43.64246960714494
 20
-82.8779730695583
 30
0.0
 10
43.43989799261225
 20
-83.54356551730855
 30
0.0
 10
43.43989799261225
 20
-83.54356551730855
 30
0.0
 10
42.54830728102959
 20
-86.46776256518862
 30
0.0
 10
42.54830728102959
 20
-86.46776256518862
 30
0.0
  0
HATCH
  5
A0
330
6E
100
AcDbEntity
  8
Layer 1
 62
   250
420
  2301728
100
AcDbHatch
 10
0.0
 20
0.0
 30
0.0
210
0.0
220
0.0
230
1.0
  2
SOLID
 70
     1
 71
     0
 91
        2
 92
        1
 93
        1
 72
     4
 94
        3
 73
     0
 74
     1
 95
       56
 96
       52
 40
0.0
 40
0.0
 40
0.0
 40
0.0
 40
1.0
 40
1.0
 40
1.0
 40
2.0
 40
2.0
 40
2.0
 40
3.0
 40
3.0
 40
3.0
 40
4.0
 40
4.0
 40
4.0
 40
5.0
 40
5.0
 40
5.0
 40
6.0
 40
6.0
 40
6.0
 40
7.0
 40
7.0
 40
7.0
 40
8.0
 40
8.0
 40
8.0
 40
9.0
 40
9.0
 40
9.0
 40
10.0
 40
10.0
 40
10.0
 40
11.0
 40
11.0
 40
11.0
 40
12.0
 40
12.0
 40
12.0
 40
13.0
 40
13.0
 40
13.0
 40
14.0
 40
14.0
 40
14.0
 40
15.0
 40
15.0
 40
15.0
 40
16.0
 40
16.0
 40
16.0
 40
17.0
 40
17.0
 40
17.0
 40
17.0
 10
43.63971353075674
 20
-89.52700735609048
 10
43.13672958991027
 20
-89.76265188728156
 10
42.59516057962899
 20
-89.79159068935766
 10
42.01500649991291
 20
-89.61382376231877
 10
41.91096461625837
 20
-89.58212888385447
 10
41.80485567531268
 20
-89.54492185261377
 10
41.69805771526993
 20
-89.50082463040258
 10
41.03935545849016
 20
-89.2238389533885
 10
40.58046873985489
 20
-88.8186957243231
 10
40.32208657846115
 20
-88.28815101959464
 10
40.05681422609691
 20
-87.74106985653695
 10
40.09126518094941
 20
-86.9197590928534
 10
40.42750650030979
 20
-85.82146265215574
 10
40.42750650030979
 20
-85.82146265215574
 10
41.3184081927954
 20
-82.89588756608158
 10
41.3184081927954
 20
-82.89588756608158
 10
41.94610459020792
 20
-80.83709850409629
 10
43.27660046661141
 20
-80.11638452858202
 10
45.31196287929701
 20
-80.73650171592699
 10
47.34112412010916
 20
-81.35661890327196
 10
48.04116752271193
 20
-82.69607202793709
 10
47.41347112529941
 20
-84.7548610899224
 10
47.41347112529941
 20
-84.7548610899224
 10
44.67117511904054
 20
-93.75069442100677
 10
44.67117511904054
 20
-93.75069442100677
 10
44.04210068343392
 20
-95.81637367396257
 10
42.71298284522453
 20
-96.53846568767095
 10
40.68313258531533
 20
-95.91834850032598
 10
38.64983722992088
 20
-95.2996093511751
 10
37.94703775092991
 20
-93.95740015012177
 10
38.57611218653653
 20
-91.89172089716597
 10
38.57611218653653
 20
-91.89172089716597
 10
39.17624782006705
 20
-89.92112627960306
 10
39.17624782006705
 20
-89.92112627960306
 10
39.17624782006705
 20
-89.92112627960306
 10
41.29842663898095
 20
-90.56880423083003
 10
41.29842663898095
 20
-90.56880423083003
 10
41.29842663898095
 20
-90.56880423083003
 10
40.69760198635338
 20
-92.53939884839293
 10
40.69760198635338
 20
-92.53939884839293
 10
40.49503037182069
 20
-93.2049912961432
 10
40.70104708183863
 20
-93.62942705992599
 10
41.31634113550425
 20
-93.81821829251767
 10
41.31634113550425
 20
-93.81821829251767
 10
41.33149955563935
 20
-93.82235240709997
 10
41.33149955563935
 20
-93.82235240709997
 10
41.94059243743152
 20
-94.00838756330346
 10
42.34780272378805
 20
-93.76860891753007
 10
42.54968531922369
 20
-93.10439450797391
 10
42.54968531922369
 20
-93.10439450797391
 10
43.63971353075674
 20
-89.52700735609048
 10
43.63971353075674
 20
-89.52700735609048
 97
        0
 97
        0
 92
        1
 93
        1
 72
     4
 94
        3
 73
     0
 74
     1
 95
       29
 96
       25
 40
0.0
 40
0.0
 40
0.0
 40
0.0
 40
1.0
 40
1.0
 40
1.0
 40
2.0
 40
2.0
 40
2.0
 40
3.0
 40
3.0
 40
3.0
 40
4.0
 40
4.0
 40
4.0
 40
5.0
 40
5.0
 40
5.0
 40
6.0
 40
6.0
 40
6.0
 40
7.0
 40
7.0
 40
7.0
 40
8.0
 40
8.0
 40
8.0
 40
8.0
 10
42.54830728102959
 20
-86.46776256518862
 10
42.38914386961105
 20
-86.99279511714069
 10
42.40568032794025
 20
-87.33317055108338
 10
42.59722763692014
 20
-87.49026690521077
 10
42.70126952057468
 20
-87.57983938782726
 10
42.88454860038998
 20
-87.66803383224966
 10
43.14913193365717
 20
-87.74796004750746
 10
43.21527776697396
 20
-87.76863062041896
 10
43.28280163848486
 20
-87.78654511694225
 10
43.35445962457806
 20
-87.80308157527145
 10
43.85537650813338
 20
-87.93261716551685
 10
44.20470919033772
 20
-87.67630206141426
 10
44.4003906138999
 20
-87.03138018657549
 10
44.4003906138999
 20
-87.03138018657549
 10
45.29267034457961
 20
-84.10856117688952
 10
45.29267034457961
 20
-84.10856117688952
 10
45.49455294001525
 20
-83.44159069094516
 10
45.28853622999731
 20
-83.01715492716238
 10
44.67393119542874
 20
-82.82974173276479
 10
44.05381400808377
 20
-82.6409505001731
 10
43.64246960714494
 20
-82.8779730695583
 10
43.43989799261225
 20
-83.54356551730855
 10
43.43989799261225
 20
-83.54356551730855
 10
42.54830728102959
 20
-86.46776256518862
 10
42.54830728102959
 20
-86.46776256518862
 97
        0
 97
        0
 75
     2
 76
     1
 98
        0
  0
POLYLINE
  5
A1
330
6E
100
AcDbEntity
  8
Layer 1
370
     0
100
AcDb2dPolyline
 66
     1
 10
0.0
 20
0.0
 30
0.0
  0
VERTEX
  5
A2
330
A1
100
AcDbEntity
  8
Layer 1
370
     0
100
AcDbVertex
100
AcDb2dVertex
 10
22.23740233819065
 20
-81.48339841712915
 30
0.0
  0
VERTEX
  5
A3
330
A1
100
AcDbEntity
  8
Layer 1
370
     0
100
AcDbVertex
100
AcDb2dVertex
 10
20.49900715633358
 20
-82.8104491980474
 30
0.0
  0
VERTEX
  5
A4
330
A1
100
AcDbEntity
  8
Layer 1
370
     0
100
AcDbVertex
100
AcDb2dVertex
 10
16.51785481357887
 20
-77.59733070976733
 30
0.0
  0
VERTEX
  5
A5
330
A1
100
AcDbEntity
  8
Layer 1
370
     0
100
AcDbVertex
100
AcDb2dVertex
 10
17.76980251291866
 20
-76.64097220306198
 30
0.0
  0
VERTEX
  5
A6
330
A1
100
AcDbEntity
  8
Layer 1
370
     0
100
AcDbVertex
100
AcDb2dVertex
 10
30.62483180657991
 20
-70.73194442676146
 30
0.0
  0
VERTEX
  5
A7
330
A1
100
AcDbEntity
  8
Layer 1
370
     0
100
AcDbVertex
100
AcDb2dVertex
 10
32.00424803887394
 20
-72.53855249922648
 30
0.0
  0
VERTEX
  5
A8
330
A1
100
AcDbEntity
  8
Layer 1
370
     0
100
AcDbVertex
100
AcDb2dVertex
 10
19.72110459576417
 20
-78.18850909503621
 30
0.0
  0
VERTEX
  5
A9
330
A1
100
AcDbEntity
  8
Layer 1
370
     0
100
AcDbVertex
100
AcDb2dVertex
 10
22.23740233819065
 20
-81.48339841712915
 30
0.0
  0
SEQEND
  5
AA
330
A1
100
AcDbEntity
  8
Layer 1
370
     0
  0
HATCH
  5
AB
330
6E
100
AcDbEntity
  8
Layer 1
 62
   250
420
  2301728
100
AcDbHatch
 10
0.0
 20
0.0
 30
0.0
210
0.0
220
0.0
230
1.0
  2
SOLID
 70
     1
 71
     0
 91
        1
 92
        1
 93
        7
 72
     1
 10
22.23740233819065
 20
-81.48339841712915
 11
20.49900715633358
 21
-82.8104491980474
 72
     1
 10
20.49900715633358
 20
-82.8104491980474
 11
16.51785481357887
 21
-77.59733070976733
 72
     1
 10
16.51785481357887
 20
-77.59733070976733
 11
17.76980251291866
 21
-76.64097220306198
 72
     1
 10
17.76980251291866
 20
-76.64097220306198
 11
30.62483180657991
 21
-70.73194442676146
 72
     1
 10
30.62483180657991
 20
-70.73194442676146
 11
32.00424803887394
 21
-72.53855249922648
 72
     1
 10
32.00424803887394
 20
-72.53855249922648
 11
19.72110459576417
 21
-78.18850909503621
 72
     1
 10
19.72110459576417
 20
-78.18850909503621
 11
22.23740233819065
 21
-81.48339841712915
 97
        0
 75
     2
 76
     1
 98
        0
  0
SPLINE
  5
AC
330
6E
100
AcDbEntity
  8
Layer 1
370
     0
100
AcDbSpline
210
0.0
220
0.0
230
1.0
 70
    11
 71
     3
 72
    41
 73
    37
 74
     0
 42
0.0000000001
 43
0.0000000001
 12
1.0
 22
0.0
 32
0.0
 13
1.0
 23
0.0
 33
0.0
 40
0.0
 40
0.0
 40
0.0
 40
0.0
 40
1.0
 40
1.0
 40
1.0
 40
2.0
 40
2.0
 40
2.0
 40
3.0
 40
3.0
 40
3.0
 40
4.0
 40
4.0
 40
4.0
 40
5.0
 40
5.0
 40
5.0
 40
6.0
 40
6.0
 40
6.0
 40
7.0
 40
7.0
 40
7.0
 40
8.0
 40
8.0
 40
8.0
 40
9.0
 40
9.0
 40
9.0
 40
10.0
 40
10.0
 40
10.0
 40
11.0
 40
11.0
 40
11.0
 40
12.0
 40
12.0
 40
12.0
 40
12.0
 10
9.265928817127962
 20
-54.74118922242582
 30
0.0
 10
9.203917098393466
 20
-52.61625432712372
 30
0.0
 10
10.24915906861827
 20
-51.52278102010542
 30
0.0
 10
12.40096570870531
 20
-51.46008028227387
 30
0.0
 10
12.40096570870531
 20
-51.46008028227387
 30
0.0
 10
15.07229274796804
 20
-51.37946504791903
 30
0.0
 10
15.07229274796804
 20
-51.37946504791903
 30
0.0
 10
16.08032768695214
 20
-51.35190428403703
 30
0.0
 10
16.80586479614576
 20
-51.73430988289976
 30
0.0
 10
17.24683701825774
 20
-52.53150497818657
 30
0.0
 10
17.64095594177032
 20
-51.70950519540596
 30
0.0
 10
18.34168836347013
 20
-51.28369139342908
 30
0.0
 10
19.35041232155129
 20
-51.25544161045003
 30
0.0
 10
19.35041232155129
 20
-51.25544161045003
 30
0.0
 10
21.80194226885507
 20
-51.18447264345389
 30
0.0
 10
21.80194226885507
 20
-51.18447264345389
 30
0.0
 10
23.95443792803917
 20
-51.12039386742823
 30
0.0
 10
25.06169161699847
 20
-52.15185545571204
 30
0.0
 10
25.12370333573297
 20
-54.27747937011119
 30
0.0
 10
25.18502603537041
 20
-56.40448132270443
 30
0.0
 10
24.14047308424266
 20
-57.49864364881979
 30
0.0
 10
21.98935546325266
 20
-57.56203340574838
 30
0.0
 10
21.98935546325266
 20
-57.56203340574838
 30
0.0
 10
19.53644747775478
 20
-57.63231335364748
 30
0.0
 10
19.53644747775478
 20
-57.63231335364748
 30
0.0
 10
18.52910155786773
 20
-57.66263019391768
 30
0.0
 10
17.80356444867411
 20
-57.2781575377638
 30
0.0
 10
17.36259222656213
 20
-56.48027342337993
 30
0.0
 10
16.96847330304955
 20
-57.30296222525759
 30
0.0
 10
16.26705186225268
 20
-57.72877602723447
 30
0.0
 10
15.25901692326858
 20
-57.75771482931057
 30
0.0
 10
15.25901692326858
 20
-57.75771482931057
 30
0.0
 10
12.58700086490881
 20
-57.83764104456837
 30
0.0
 10
12.58700086490881
 20
-57.83764104456837
 30
0.0
 10
10.43588324391881
 20
-57.89965276330287
 30
0.0
 10
9.328629554959509
 20
-56.86750215592202
 30
0.0
 10
9.265928817127962
 20
-54.74118922242582
 30
0.0
  0
SPLINE
  5
AD
330
6E
100
AcDbEntity
  8
Layer 1
370
     0
100
AcDbSpline
210
0.0
220
0.0
230
1.0
 70
    11
 71
     3
 72
    35
 73
    31
 74
     0
 42
0.0000000001
 43
0.0000000001
 12
1.0
 22
0.0
 32
0.0
 13
1.0
 23
0.0
 33
0.0
 40
0.0
 40
0.0
 40
0.0
 40
0.0
 40
1.0
 40
1.0
 40
1.0
 40
2.0
 40
2.0
 40
2.0
 40
3.0
 40
3.0
 40
3.0
 40
4.0
 40
4.0
 40
4.0
 40
5.0
 40
5.0
 40
5.0
 40
6.0
 40
6.0
 40
6.0
 40
7.0
 40
7.0
 40
7.0
 40
8.0
 40
8.0
 40
8.0
 40
9.0
 40
9.0
 40
9.0
 40
10.0
 40
10.0
 40
10.0
 40
10.0
 10
16.17747937963619
 20
-54.32777776419584
 30
0.0
 10
16.17196722685979
 20
-54.11831595869265
 30
0.0
 10
16.13544921471614
 20
-53.9632866618564
 30
0.0
 10
16.07068141959344
 20
-53.86131183549301
 30
0.0
 10
15.95492621128905
 20
-53.67114256470722
 30
0.0
 10
15.63797742664606
 20
-53.58225910118777
 30
0.0
 10
15.12190212295564
 20
-53.59879555951697
 30
0.0
 10
15.12190212295564
 20
-53.59879555951697
 30
0.0
 10
12.46573350382801
 20
-53.67596569838657
 30
0.0
 10
12.46573350382801
 20
-53.67596569838657
 30
0.0
 10
11.77602538768099
 20
-53.69732529039511
 30
0.0
 10
11.43771701102946
 20
-54.0280544569791
 30
0.0
 10
11.45149739297046
 20
-54.67022025542967
 30
0.0
 10
11.45149739297046
 20
-54.67022025542967
 30
0.0
 10
11.45218641206751
 20
-54.68537867556477
 30
0.0
 10
11.45218641206751
 20
-54.68537867556477
 30
0.0
 10
11.47630208046426
 20
-55.32961153130649
 30
0.0
 10
11.83321397273614
 20
-55.63967012497898
 30
0.0
 10
12.52223306978611
 20
-55.61899955206747
 30
0.0
 10
12.52223306978611
 20
-55.61899955206747
 30
0.0
 10
15.17909070801078
 20
-55.54182941319788
 30
0.0
 10
15.17909070801078
 20
-55.54182941319788
 30
0.0
 10
15.69585503079826
 20
-55.52667099306278
 30
0.0
 10
16.00591362447074
 20
-55.42056205211708
 30
0.0
 10
16.10995550812529
 20
-55.22350259036079
 30
0.0
 10
16.16921115047159
 20
-55.1187716876092
 30
0.0
 10
16.19608289525653
 20
-54.95960827619066
 30
0.0
 10
16.19057074248014
 20
-54.75152450888157
 30
0.0
 10
16.19057074248014
 20
-54.75152450888157
 30
0.0
 10
16.17747937963619
 20
-54.32777776419584
 30
0.0
 10
16.17747937963619
 20
-54.32777776419584
 30
0.0
  0
SPLINE
  5
AE
330
6E
100
AcDbEntity
  8
Layer 1
370
     0
100
AcDbSpline
210
0.0
220
0.0
230
1.0
 70
    11
 71
     3
 72
    35
 73
    31
 74
     0
 42
0.0000000001
 43
0.0000000001
 12
1.0
 22
0.0
 32
0.0
 13
1.0
 23
0.0
 33
0.0
 40
0.0
 40
0.0
 40
0.0
 40
0.0
 40
1.0
 40
1.0
 40
1.0
 40
2.0
 40
2.0
 40
2.0
 40
3.0
 40
3.0
 40
3.0
 40
4.0
 40
4.0
 40
4.0
 40
5.0
 40
5.0
 40
5.0
 40
6.0
 40
6.0
 40
6.0
 40
7.0
 40
7.0
 40
7.0
 40
8.0
 40
8.0
 40
8.0
 40
9.0
 40
9.0
 40
9.0
 40
10.0
 40
10.0
 40
10.0
 40
10.0
 10
22.93744574079342
 20
-54.33328991697223
 30
0.0
 10
22.91401909149372
 20
-53.69112411852166
 30
0.0
 10
22.55641818012479
 20
-53.38037650575213
 30
0.0
 10
21.86739908307482
 20
-53.40035805956658
 30
0.0
 10
21.86739908307482
 20
-53.40035805956658
 30
0.0
 10
19.41518011667398
 20
-53.47132702656273
 30
0.0
 10
19.41518011667398
 20
-53.47132702656273
 30
0.0
 10
18.85569660986941
 20
-53.48924152308602
 30
0.0
 10
18.52772351967362
 20
-53.61602103694322
 30
0.0
 10
18.43057182698958
 20
-53.85442164452251
 30
0.0
 10
18.38165147109903
 20
-53.9812011583797
 30
0.0
 10
18.36166991728458
 20
-54.17412650555369
 30
0.0
 10
18.36924912735213
 20
-54.43595376243268
 30
0.0
 10
18.36924912735213
 20
-54.43595376243268
 30
0.0
 10
18.37062716554623
 20
-54.51450193949638
 30
0.0
 10
18.37062716554623
 20
-54.51450193949638
 30
0.0
 10
18.37889539471083
 20
-54.77632919637536
 30
0.0
 10
18.41059027317513
 20
-54.96856552445231
 30
0.0
 10
18.46708983913323
 20
-55.0912109237272
 30
0.0
 10
18.57733289466122
 20
-55.32409937853009
 30
0.0
 10
18.91288519492456
 20
-55.43158635766989
 30
0.0
 10
19.47167968263208
 20
-55.41504989934069
 30
0.0
 10
19.47167968263208
 20
-55.41504989934069
 30
0.0
 10
21.92458766812997
 20
-55.34339191324749
 30
0.0
 10
21.92458766812997
 20
-55.34339191324749
 30
0.0
 10
22.61360676517993
 20
-55.32409937853009
 30
0.0
 10
22.95191514183147
 20
-54.991992173752
 30
0.0
 10
22.93744574079342
 20
-54.34844833710734
 30
0.0
 10
22.93744574079342
 20
-54.34844833710734
 30
0.0
 10
22.93744574079342
 20
-54.33328991697223
 30
0.0
 10
22.93744574079342
 20
-54.33328991697223
 30
0.0
  0
HATCH
  5
AF
330
6E
100
AcDbEntity
  8
Layer 1
 62
   250
420
  2301728
100
AcDbHatch
 10
0.0
 20
0.0
 30
0.0
210
0.0
220
0.0
230
1.0
  2
SOLID
 70
     1
 71
     0
 91
        3
 92
        1
 93
        1
 72
     4
 94
        3
 73
     0
 74
     1
 95
       41
 96
       37
 40
0.0
 40
0.0
 40
0.0
 40
0.0
 40
1.0
 40
1.0
 40
1.0
 40
2.0
 40
2.0
 40
2.0
 40
3.0
 40
3.0
 40
3.0
 40
4.0
 40
4.0
 40
4.0
 40
5.0
 40
5.0
 40
5.0
 40
6.0
 40
6.0
 40
6.0
 40
7.0
 40
7.0
 40
7.0
 40
8.0
 40
8.0
 40
8.0
 40
9.0
 40
9.0
 40
9.0
 40
10.0
 40
10.0
 40
10.0
 40
11.0
 40
11.0
 40
11.0
 40
12.0
 40
12.0
 40
12.0
 40
12.0
 10
9.265928817127962
 20
-54.74118922242582
 10
9.203917098393466
 20
-52.61625432712372
 10
10.24915906861827
 20
-51.52278102010542
 10
12.40096570870531
 20
-51.46008028227387
 10
12.40096570870531
 20
-51.46008028227387
 10
15.07229274796804
 20
-51.37946504791903
 10
15.07229274796804
 20
-51.37946504791903
 10
16.08032768695214
 20
-51.35190428403703
 10
16.80586479614576
 20
-51.73430988289976
 10
17.24683701825774
 20
-52.53150497818657
 10
17.64095594177032
 20
-51.70950519540596
 10
18.34168836347013
 20
-51.28369139342908
 10
19.35041232155129
 20
-51.25544161045003
 10
19.35041232155129
 20
-51.25544161045003
 10
21.80194226885507
 20
-51.18447264345389
 10
21.80194226885507
 20
-51.18447264345389
 10
23.95443792803917
 20
-51.12039386742823
 10
25.06169161699847
 20
-52.15185545571204
 10
25.12370333573297
 20
-54.27747937011119
 10
25.18502603537041
 20
-56.40448132270443
 10
24.14047308424266
 20
-57.49864364881979
 10
21.98935546325266
 20
-57.56203340574838
 10
21.98935546325266
 20
-57.56203340574838
 10
19.53644747775478
 20
-57.63231335364748
 10
19.53644747775478
 20
-57.63231335364748
 10
18.52910155786773
 20
-57.66263019391768
 10
17.80356444867411
 20
-57.2781575377638
 10
17.36259222656213
 20
-56.48027342337993
 10
16.96847330304955
 20
-57.30296222525759
 10
16.26705186225268
 20
-57.72877602723447
 10
15.25901692326858
 20
-57.75771482931057
 10
15.25901692326858
 20
-57.75771482931057
 10
12.58700086490881
 20
-57.83764104456837
 10
12.58700086490881
 20
-57.83764104456837
 10
10.43588324391881
 20
-57.89965276330287
 10
9.328629554959509
 20
-56.86750215592202
 10
9.265928817127962
 20
-54.74118922242582
 97
        0
 97
        0
 92
        1
 93
        1
 72
     4
 94
        3
 73
     0
 74
     1
 95
       35
 96
       31
 40
0.0
 40
0.0
 40
0.0
 40
0.0
 40
1.0
 40
1.0
 40
1.0
 40
2.0
 40
2.0
 40
2.0
 40
3.0
 40
3.0
 40
3.0
 40
4.0
 40
4.0
 40
4.0
 40
5.0
 40
5.0
 40
5.0
 40
6.0
 40
6.0
 40
6.0
 40
7.0
 40
7.0
 40
7.0
 40
8.0
 40
8.0
 40
8.0
 40
9.0
 40
9.0
 40
9.0
 40
10.0
 40
10.0
 40
10.0
 40
10.0
 10
16.17747937963619
 20
-54.32777776419584
 10
16.17196722685979
 20
-54.11831595869265
 10
16.13544921471614
 20
-53.9632866618564
 10
16.07068141959344
 20
-53.86131183549301
 10
15.95492621128905
 20
-53.67114256470722
 10
15.63797742664606
 20
-53.58225910118777
 10
15.12190212295564
 20
-53.59879555951697
 10
15.12190212295564
 20
-53.59879555951697
 10
12.46573350382801
 20
-53.67596569838657
 10
12.46573350382801
 20
-53.67596569838657
 10
11.77602538768099
 20
-53.69732529039511
 10
11.43771701102946
 20
-54.0280544569791
 10
11.45149739297046
 20
-54.67022025542967
 10
11.45149739297046
 20
-54.67022025542967
 10
11.45218641206751
 20
-54.68537867556477
 10
11.45218641206751
 20
-54.68537867556477
 10
11.47630208046426
 20
-55.32961153130649
 10
11.83321397273614
 20
-55.63967012497898
 10
12.52223306978611
 20
-55.61899955206747
 10
12.52223306978611
 20
-55.61899955206747
 10
15.17909070801078
 20
-55.54182941319788
 10
15.17909070801078
 20
-55.54182941319788
 10
15.69585503079826
 20
-55.52667099306278
 10
16.00591362447074
 20
-55.42056205211708
 10
16.10995550812529
 20
-55.22350259036079
 10
16.16921115047159
 20
-55.1187716876092
 10
16.19608289525653
 20
-54.95960827619066
 10
16.19057074248014
 20
-54.75152450888157
 10
16.19057074248014
 20
-54.75152450888157
 10
16.17747937963619
 20
-54.32777776419584
 10
16.17747937963619
 20
-54.32777776419584
 97
        0
 97
        0
 92
        1
 93
        1
 72
     4
 94
        3
 73
     0
 74
     1
 95
       35
 96
       31
 40
0.0
 40
0.0
 40
0.0
 40
0.0
 40
1.0
 40
1.0
 40
1.0
 40
2.0
 40
2.0
 40
2.0
 40
3.0
 40
3.0
 40
3.0
 40
4.0
 40
4.0
 40
4.0
 40
5.0
 40
5.0
 40
5.0
 40
6.0
 40
6.0
 40
6.0
 40
7.0
 40
7.0
 40
7.0
 40
8.0
 40
8.0
 40
8.0
 40
9.0
 40
9.0
 40
9.0
 40
10.0
 40
10.0
 40
10.0
 40
10.0
 10
22.93744574079342
 20
-54.33328991697223
 10
22.91401909149372
 20
-53.69112411852166
 10
22.55641818012479
 20
-53.38037650575213
 10
21.86739908307482
 20
-53.40035805956658
 10
21.86739908307482
 20
-53.40035805956658
 10
19.41518011667398
 20
-53.47132702656273
 10
19.41518011667398
 20
-53.47132702656273
 10
18.85569660986941
 20
-53.48924152308602
 10
18.52772351967362
 20
-53.61602103694322
 10
18.43057182698958
 20
-53.85442164452251
 10
18.38165147109903
 20
-53.9812011583797
 10
18.36166991728458
 20
-54.17412650555369
 10
18.36924912735213
 20
-54.43595376243268
 10
18.36924912735213
 20
-54.43595376243268
 10
18.37062716554623
 20
-54.51450193949638
 10
18.37062716554623
 20
-54.51450193949638
 10
18.37889539471083
 20
-54.77632919637536
 10
18.41059027317513
 20
-54.96856552445231
 10
18.46708983913323
 20
-55.0912109237272
 10
18.57733289466122
 20
-55.32409937853009
 10
18.91288519492456
 20
-55.43158635766989
 10
19.47167968263208
 20
-55.41504989934069
 10
19.47167968263208
 20
-55.41504989934069
 10
21.92458766812997
 20
-55.34339191324749
 10
21.92458766812997
 20
-55.34339191324749
 10
22.61360676517993
 20
-55.32409937853009
 10
22.95191514183147
 20
-54.991992173752
 10
22.93744574079342
 20
-54.34844833710734
 10
22.93744574079342
 20
-54.34844833710734
 10
22.93744574079342
 20
-54.33328991697223
 10
22.93744574079342
 20
-54.33328991697223
 97
        0
 97
        0
 75
     2
 76
     1
 98
        0
  0
SPLINE
  5
B0
330
6E
100
AcDbEntity
  8
Layer 1
370
     0
100
AcDbSpline
210
0.0
220
0.0
230
1.0
 70
    11
 71
     3
 72
    56
 73
    52
 74
     0
 42
0.0000000001
 43
0.0000000001
 12
1.0
 22
0.0
 32
0.0
 13
1.0
 23
0.0
 33
0.0
 40
0.0
 40
0.0
 40
0.0
 40
0.0
 40
1.0
 40
1.0
 40
1.0
 40
2.0
 40
2.0
 40
2.0
 40
3.0
 40
3.0
 40
3.0
 40
4.0
 40
4.0
 40
4.0
 40
5.0
 40
5.0
 40
5.0
 40
6.0
 40
6.0
 40
6.0
 40
7.0
 40
7.0
 40
7.0
 40
8.0
 40
8.0
 40
8.0
 40
9.0
 40
9.0
 40
9.0
 40
10.0
 40
10.0
 40
10.0
 40
11.0
 40
11.0
 40
11.0
 40
12.0
 40
12.0
 40
12.0
 40
13.0
 40
13.0
 40
13.0
 40
14.0
 40
14.0
 40
14.0
 40
15.0
 40
15.0
 40
15.0
 40
16.0
 40
16.0
 40
16.0
 40
17.0
 40
17.0
 40
17.0
 40
17.0
 10
24.81295572296343
 20
-32.749766701882
 30
0.0
 10
24.88599174725072
 20
-33.30993922778363
 30
0.0
 10
24.75025498513188
 20
-33.8446180470944
 30
0.0
 10
24.40643445570395
 20
-34.34966904523203
 30
0.0
 10
24.3506239088429
 20
-34.43235133687803
 30
0.0
 10
24.2872341519143
 20
-34.51434460942697
 30
0.0
 10
24.21764322311226
 20
-34.59978297746117
 30
0.0
 10
23.75737846628288
 20
-35.14548610232474
 30
0.0
 10
23.23441297162195
 20
-35.46450194425888
 30
0.0
 10
22.64943575822653
 20
-35.55407442687537
 30
0.0
 10
22.04585502921076
 20
-35.64226887129777
 30
0.0
 10
21.27070854502955
 20
-35.36528319428368
 30
0.0
 10
20.32468532477994
 20
-34.72173935763901
 30
0.0
 10
20.32468532477994
 20
-34.72173935763901
 30
0.0
 10
17.79736327680066
 20
-33.00263671049935
 30
0.0
 10
17.79736327680066
 20
-33.00263671049935
 30
0.0
 10
16.01624891092649
 20
-31.79203015698255
 30
0.0
 10
15.72203775648616
 20
-30.30581596464577
 30
0.0
 10
16.91335177528555
 20
-28.54330511439195
 30
0.0
 10
18.10604383227905
 20
-26.78906249330274
 30
0.0
 10
19.59432508190698
 20
-26.5196560263562
 30
0.0
 10
21.37888454326639
 20
-27.73301865626119
 30
0.0
 10
21.37888454326639
 20
-27.73301865626119
 30
0.0
 10
29.15791014896053
 20
-33.02055120702264
 30
0.0
 10
29.15791014896053
 20
-33.02055120702264
 30
0.0
 10
30.93833549573764
 20
-34.23115776053943
 30
0.0
 10
31.22979057378977
 20
-35.71599391468212
 30
0.0
 10
30.03434244040808
 20
-37.47437065035363
 30
0.0
 10
28.84233940251164
 20
-39.22861327144285
 30
0.0
 10
27.35543619107781
 20
-39.50008679568054
 30
0.0
 10
25.57501084430069
 20
-38.29016926126079
 30
0.0
 10
25.57501084430069
 20
-38.29016926126079
 30
0.0
 10
23.86348740722858
 20
-37.12710502544045
 30
0.0
 10
23.86348740722858
 20
-37.12710502544045
 30
0.0
 10
23.86348740722858
 20
-37.12710502544045
 30
0.0
 10
25.11061197288901
 20
-35.29155815089933
 30
0.0
 10
25.11061197288901
 20
-35.29155815089933
 30
0.0
 10
25.11061197288901
 20
-35.29155815089933
 30
0.0
 10
26.82213540996113
 20
-36.45668944401083
 30
0.0
 10
26.82213540996113
 20
-36.45668944401083
 30
0.0
 10
27.39264322231851
 20
-36.84322915745586
 30
0.0
 10
27.86048718921543
 20
-36.77363822865382
 30
0.0
 10
28.22635632974897
 20
-36.24516058121649
 30
0.0
 10
28.22635632974897
 20
-36.24516058121649
 30
0.0
 10
28.23531357801062
 20
-36.23275823746959
 30
0.0
 10
28.23531357801062
 20
-36.23275823746959
 30
0.0
 10
28.59429252757365
 20
-35.70496960912931
 30
0.0
 10
28.48473849114271
 20
-35.24539387139698
 30
0.0
 10
27.91078558330008
 20
-34.85540906246671
 30
0.0
 10
27.91078558330008
 20
-34.85540906246671
 30
0.0
 10
24.81295572296343
 20
-32.749766701882
 30
0.0
 10
24.81295572296343
 20
-32.749766701882
 30
0.0
  0
SPLINE
  5
B1
330
6E
100
AcDbEntity
  8
Layer 1
370
     0
100
AcDbSpline
210
0.0
220
0.0
230
1.0
 70
    11
 71
     3
 72
    29
 73
    25
 74
     0
 42
0.0000000001
 43
0.0000000001
 12
1.0
 22
0.0
 32
0.0
 13
1.0
 23
0.0
 33
0.0
 40
0.0
 40
0.0
 40
0.0
 40
0.0
 40
1.0
 40
1.0
 40
1.0
 40
2.0
 40
2.0
 40
2.0
 40
3.0
 40
3.0
 40
3.0
 40
4.0
 40
4.0
 40
4.0
 40
5.0
 40
5.0
 40
5.0
 40
6.0
 40
6.0
 40
6.0
 40
7.0
 40
7.0
 40
7.0
 40
8.0
 40
8.0
 40
8.0
 40
8.0
 10
21.57180989044038
 20
-32.88688150219495
 30
0.0
 10
22.02105034171696
 20
-33.19211696218808
 30
0.0
 10
22.35177950830095
 20
-33.27824434931933
 30
0.0
 10
22.56261935199824
 20
-33.14388562539459
 30
0.0
 10
22.67355142662328
 20
-33.07291665839844
 30
0.0
 10
22.80584309325687
 20
-32.92615559072679
 30
0.0
 10
22.95811631370492
 20
-32.70084634599146
 30
0.0
 10
22.99670138313972
 20
-32.64434678003336
 30
0.0
 10
23.03528645257451
 20
-32.58371309949296
 30
0.0
 10
23.07524956020341
 20
-32.51618922798207
 30
0.0
 10
23.35568033270275
 20
-32.07383896767599
 30
0.0
 10
23.21787651329275
 20
-31.66525064312535
 30
0.0
 10
22.65977104468228
 20
-31.28560112065082
 30
0.0
 10
22.65977104468228
 20
-31.28560112065082
 30
0.0
 10
20.132448996703
 20
-29.56787651170525
 30
0.0
 10
20.132448996703
 20
-29.56787651170525
 30
0.0
 10
19.55711805066628
 20
-29.17651366458087
 30
0.0
 10
19.0899631028664
 20
-29.24748263157702
 30
0.0
 10
18.72891709601222
 20
-29.7780273363055
 30
0.0
 10
18.36442599367278
 20
-30.31477321290742
 30
0.0
 10
18.46915689642438
 20
-30.77710502702795
 30
0.0
 10
19.043109804267
 20
-31.16777885505528
 30
0.0
 10
19.043109804267
 20
-31.16777885505528
 30
0.0
 10
21.57180989044038
 20
-32.88688150219495
 30
0.0
 10
21.57180989044038
 20
-32.88688150219495
 30
0.0
  0
HATCH
  5
B2
330
6E
100
AcDbEntity
  8
Layer 1
 62
   250
420
  2301728
100
AcDbHatch
 10
0.0
 20
0.0
 30
0.0
210
0.0
220
0.0
230
1.0
  2
SOLID
 70
     1
 71
     0
 91
        2
 92
        1
 93
        1
 72
     4
 94
        3
 73
     0
 74
     1
 95
       56
 96
       52
 40
0.0
 40
0.0
 40
0.0
 40
0.0
 40
1.0
 40
1.0
 40
1.0
 40
2.0
 40
2.0
 40
2.0
 40
3.0
 40
3.0
 40
3.0
 40
4.0
 40
4.0
 40
4.0
 40
5.0
 40
5.0
 40
5.0
 40
6.0
 40
6.0
 40
6.0
 40
7.0
 40
7.0
 40
7.0
 40
8.0
 40
8.0
 40
8.0
 40
9.0
 40
9.0
 40
9.0
 40
10.0
 40
10.0
 40
10.0
 40
11.0
 40
11.0
 40
11.0
 40
12.0
 40
12.0
 40
12.0
 40
13.0
 40
13.0
 40
13.0
 40
14.0
 40
14.0
 40
14.0
 40
15.0
 40
15.0
 40
15.0
 40
16.0
 40
16.0
 40
16.0
 40
17.0
 40
17.0
 40
17.0
 40
17.0
 10
24.81295572296343
 20
-32.749766701882
 10
24.88599174725072
 20
-33.30993922778363
 10
24.75025498513188
 20
-33.8446180470944
 10
24.40643445570395
 20
-34.34966904523203
 10
24.3506239088429
 20
-34.43235133687803
 10
24.2872341519143
 20
-34.51434460942697
 10
24.21764322311226
 20
-34.59978297746117
 10
23.75737846628288
 20
-35.14548610232474
 10
23.23441297162195
 20
-35.46450194425888
 10
22.64943575822653
 20
-35.55407442687537
 10
22.04585502921076
 20
-35.64226887129777
 10
21.27070854502955
 20
-35.36528319428368
 10
20.32468532477994
 20
-34.72173935763901
 10
20.32468532477994
 20
-34.72173935763901
 10
17.79736327680066
 20
-33.00263671049935
 10
17.79736327680066
 20
-33.00263671049935
 10
16.01624891092649
 20
-31.79203015698255
 10
15.72203775648616
 20
-30.30581596464577
 10
16.91335177528555
 20
-28.54330511439195
 10
18.10604383227905
 20
-26.78906249330274
 10
19.59432508190698
 20
-26.5196560263562
 10
21.37888454326639
 20
-27.73301865626119
 10
21.37888454326639
 20
-27.73301865626119
 10
29.15791014896053
 20
-33.02055120702264
 10
29.15791014896053
 20
-33.02055120702264
 10
30.93833549573764
 20
-34.23115776053943
 10
31.22979057378977
 20
-35.71599391468212
 10
30.03434244040808
 20
-37.47437065035363
 10
28.84233940251164
 20
-39.22861327144285
 10
27.35543619107781
 20
-39.50008679568054
 10
25.57501084430069
 20
-38.29016926126079
 10
25.57501084430069
 20
-38.29016926126079
 10
23.86348740722858
 20
-37.12710502544045
 10
23.86348740722858
 20
-37.12710502544045
 10
23.86348740722858
 20
-37.12710502544045
 10
25.11061197288901
 20
-35.29155815089933
 10
25.11061197288901
 20
-35.29155815089933
 10
25.11061197288901
 20
-35.29155815089933
 10
26.82213540996113
 20
-36.45668944401083
 10
26.82213540996113
 20
-36.45668944401083
 10
27.39264322231851
 20
-36.84322915745586
 10
27.86048718921543
 20
-36.77363822865382
 10
28.22635632974897
 20
-36.24516058121649
 10
28.22635632974897
 20
-36.24516058121649
 10
28.23531357801062
 20
-36.23275823746959
 10
28.23531357801062
 20
-36.23275823746959
 10
28.59429252757365
 20
-35.70496960912931
 10
28.48473849114271
 20
-35.24539387139698
 10
27.91078558330008
 20
-34.85540906246671
 10
27.91078558330008
 20
-34.85540906246671
 10
24.81295572296343
 20
-32.749766701882
 10
24.81295572296343
 20
-32.749766701882
 97
        0
 97
        0
 92
        1
 93
        1
 72
     4
 94
        3
 73
     0
 74
     1
 95
       29
 96
       25
 40
0.0
 40
0.0
 40
0.0
 40
0.0
 40
1.0
 40
1.0
 40
1.0
 40
2.0
 40
2.0
 40
2.0
 40
3.0
 40
3.0
 40
3.0
 40
4.0
 40
4.0
 40
4.0
 40
5.0
 40
5.0
 40
5.0
 40
6.0
 40
6.0
 40
6.0
 40
7.0
 40
7.0
 40
7.0
 40
8.0
 40
8.0
 40
8.0
 40
8.0
 10
21.57180989044038
 20
-32.88688150219495
 10
22.02105034171696
 20
-33.19211696218808
 10
22.35177950830095
 20
-33.27824434931933
 10
22.56261935199824
 20
-33.14388562539459
 10
22.67355142662328
 20
-33.07291665839844
 10
22.80584309325687
 20
-32.92615559072679
 10
22.95811631370492
 20
-32.70084634599146
 10
22.99670138313972
 20
-32.64434678003336
 10
23.03528645257451
 20
-32.58371309949296
 10
23.07524956020341
 20
-32.51618922798207
 10
23.35568033270275
 20
-32.07383896767599
 10
23.21787651329275
 20
-31.66525064312535
 10
22.65977104468228
 20
-31.28560112065082
 10
22.65977104468228
 20
-31.28560112065082
 10
20.132448996703
 20
-29.56787651170525
 10
20.132448996703
 20
-29.56787651170525
 10
19.55711805066628
 20
-29.17651366458087
 10
19.0899631028664
 20
-29.24748263157702
 10
18.72891709601222
 20
-29.7780273363055
 10
18.36442599367278
 20
-30.31477321290742
 10
18.46915689642438
 20
-30.77710502702795
 10
19.043109804267
 20
-31.16777885505528
 10
19.043109804267
 20
-31.16777885505528
 10
21.57180989044038
 20
-32.88688150219495
 10
21.57180989044038
 20
-32.88688150219495
 97
        0
 97
        0
 75
     2
 76
     1
 98
        0
  0
ENDBLK
  5
71
330
6E
100
AcDbEntity
  8
0
100
AcDbBlockEnd
  0
ENDSEC
  0
SECTION
  2
ENTITIES
  0
INSERT
  5
42
330
1F
100
AcDbEntity
  8
Layer 1
100
AcDbBlockReference
  2
block 2
 10
0.0
 20
0.0
 30
0.0
  0
ENDSEC
  0
SECTION
  2
OBJECTS
  0
DICTIONARY
  5
C
330
0
100
AcDbDictionary
281
     1
  3
ACAD_GROUP
350
D
  3
ACAD_LAYOUT
350
1A
  3
ACAD_MATERIAL
350
3B
  3
ACAD_MLEADERSTYLE
350
B5
  3
ACAD_MLINESTYLE
350
17
  3
ACAD_PLOTSETTINGS
350
19
  3
ACAD_PLOTSTYLENAME
350
E
  3
ACAD_TABLESTYLE
350
B4
  3
ACAD_VISUALSTYLE
350
2A
  0
SUN
  5
3F
330
29
100
AcDbSun
 90
        1
290
     0
 63
     7
421
 16777215
 40
1.0
291
     1
 91
  2455826
 92
 54000000
292
     0
 70
     2
 71
   256
280
     1
  0
DICTIONARY
  5
D
102
{ACAD_REACTORS
330
C
102
}
330
C
100
AcDbDictionary
281
     1
  0
DICTIONARY
  5
1A
102
{ACAD_REACTORS
330
C
102
}
330
C
100
AcDbDictionary
281
     1
  3
Layout1
350
1E
  3
Layout2
350
26
  3
Model
350
22
  0
DICTIONARY
  5
3B
102
{ACAD_REACTORS
330
C
102
}
330
C
100
AcDbDictionary
281
     1
  3
ByBlock
350
3D
  3
ByLayer
350
3C
  3
Global
350
3E
  0
DICTIONARY
  5
B5
102
{ACAD_REACTORS
330
C
102
}
330
C
100
AcDbDictionary
281
     1
  0
DICTIONARY
  5
17
102
{ACAD_REACTORS
330
C
102
}
330
C
100
AcDbDictionary
281
     1
  3
Standard
350
18
  0
DICTIONARY
  5
19
102
{ACAD_REACTORS
330
C
102
}
330
C
100
AcDbDictionary
281
     1
  0
ACDBDICTIONARYWDFLT
  5
E
102
{ACAD_REACTORS
330
C
102
}
330
C
100
AcDbDictionary
281
     1
  3
Normal
350
F
100
AcDbDictionaryWithDefault
340
F
  0
DICTIONARY
  5
B4
102
{ACAD_REACTORS
330
C
102
}
330
C
100
AcDbDictionary
281
     1
  0
DICTIONARY
  5
2A
102
{ACAD_REACTORS
330
C
102
}
330
C
100
AcDbDictionary
281
     1
  3
2dWireframe
350
2F
  3
3D Hidden
350
31
  3
3dWireframe
350
30
  3
Basic
350
32
  3
Brighten
350
36
  3
ColorChange
350
3A
  3
Conceptual
350
34
  3
Dim
350
35
  3
Facepattern
350
39
  3
Flat
350
2B
  3
FlatWithEdges
350
2C
  3
Gouraud
350
2D
  3
GouraudWithEdges
350
2E
  3
Linepattern
350
38
  3
Realistic
350
33
  3
Thicken
350
37
  0
LAYOUT
  5
1E
102
{ACAD_REACTORS
330
1A
102
}
330
1A
100
AcDbPlotSettings
  1

  2
none_device
  4

  6

 40
0.0
 41
0.0
 42
0.0
 43
0.0
 44
0.0
 45
0.0
 46
0.0
 47
0.0
 48
0.0
 49
0.0
140
0.0
141
0.0
142
1.0
143
1.0
 70
   688
 72
     0
 73
     0
 74
     5
  7

 75
    16
 76
     0
 77
     2
 78
   300
147
1.0
148
0.0
149
0.0
100
AcDbLayout
  1
Layout1
 70
     1
 71
     1
 10
0.0
 20
0.0
 11
12.0
 21
9.0
 12
0.0
 22
0.0
 32
0.0
 14
1.000000000000000E+20
 24
1.000000000000000E+20
 34
1.000000000000000E+20
 15
-1.000000000000000E+20
 25
-1.000000000000000E+20
 35
-1.000000000000000E+20
146
0.0
 13
0.0
 23
0.0
 33
0.0
 16
1.0
 26
0.0
 36
0.0
 17
0.0
 27
1.0
 37
0.0
 76
     0
330
1B
  0
LAYOUT
  5
26
102
{ACAD_REACTORS
330
1A
102
}
330
1A
100
AcDbPlotSettings
  1

  2
none_device
  4

  6

 40
0.0
 41
0.0
 42
0.0
 43
0.0
 44
0.0
 45
0.0
 46
0.0
 47
0.0
 48
0.0
 49
0.0
140
0.0
141
0.0
142
1.0
143
1.0
 70
   688
 72
     0
 73
     0
 74
     5
  7

 75
    16
 76
     0
 77
     2
 78
   300
147
1.0
148
0.0
149
0.0
100
AcDbLayout
  1
Layout2
 70
     1
 71
     2
 10
0.0
 20
0.0
 11
0.0
 21
0.0
 12
0.0
 22
0.0
 32
0.0
 14
0.0
 24
0.0
 34
0.0
 15
0.0
 25
0.0
 35
0.0
146
0.0
 13
0.0
 23
0.0
 33
0.0
 16
1.0
 26
0.0
 36
0.0
 17
0.0
 27
1.0
 37
0.0
 76
     0
330
23
  0
LAYOUT
  5
22
102
{ACAD_REACTORS
330
1A
102
}
330
1A
100
AcDbPlotSettings
  1

  2
none_device
  4

  6

 40
0.0
 41
0.0
 42
0.0
 43
0.0
 44
0.0
 45
0.0
 46
0.0
 47
0.0
 48
0.0
 49
0.0
140
0.0
141
0.0
142
1.0
143
1.0
 70
  1712
 72
     0
 73
     0
 74
     0
  7

 75
     0
 76
     0
 77
     2
 78
   300
147
1.0
148
0.0
149
0.0
100
AcDbLayout
  1
Model
 70
     1
 71
     0
 10
0.0
 20
0.0
 11
12.0
 21
9.0
 12
0.0
 22
0.0
 32
0.0
 14
1.000000000000000E+20
 24
1.000000000000000E+20
 34
1.000000000000000E+20
 15
-1.000000000000000E+20
 25
-1.000000000000000E+20
 35
-1.000000000000000E+20
146
0.0
 13
0.0
 23
0.0
 33
0.0
 16
1.0
 26
0.0
 36
0.0
 17
0.0
 27
1.0
 37
0.0
 76
     0
330
1F
331
29
  0
MATERIAL
  5
3D
102
{ACAD_REACTORS
330
3B
102
}
330
3B
100
AcDbMaterial
  1
ByBlock
 72
     1
 94
      127
  0
MATERIAL
  5
3C
102
{ACAD_REACTORS
330
3B
102
}
330
3B
100
AcDbMaterial
  1
ByLayer
 72
     1
 94
      127
  0
MATERIAL
  5
3E
102
{ACAD_REACTORS
330
3B
102
}
330
3B
100
AcDbMaterial
  1
Global
 72
     1
 94
      127
  0
MLINESTYLE
  5
18
102
{ACAD_REACTORS
330
17
102
}
330
17
100
AcDbMlineStyle
  2
Standard
 70
     0
  3

 62
   256
 51
90.0
 52
90.0
 71
     2
 49
0.5
 62
   256
  6
BYLAYER
 49
-0.5
 62
   256
  6
BYLAYER
  0
ACDBPLACEHOLDER
  5
F
102
{ACAD_REACTORS
330
E
102
}
330
E
  0
VISUALSTYLE
  5
2F
102
{ACAD_REACTORS
330
2A
102
}
330
2A
100
AcDbVisualStyle
  2
2dWireframe
 70
     4
177
     2
291
     0
 71
     0
176
     1
 72
     2
176
     1
 73
     0
176
     1
 90
        0
176
     1
 40
-0.6
176
     1
 41
-30.0
176
     1
 62
     5
 63
     7
421
 16777215
176
     1
 74
     1
176
     1
 91
        4
176
     1
 64
     7
176
     1
 65
   257
176
     1
 75
     1
176
     1
175
     1
176
     1
 42
1.0
176
     1
 92
        0
176
     1
 66
   257
176
     1
 43
1.0
176
     1
 76
     1
176
     1
 77
     6
176
     1
 78
     2
176
     1
 67
     7
176
     1
 79
     5
176
     1
170
     0
176
     1
171
     0
176
     1
290
     0
176
     1
 93
        1
176
     1
 44
0.0
176
     1
173
     0
176
     1
  0
VISUALSTYLE
  5
31
102
{ACAD_REACTORS
330
2A
102
}
330
2A
100
AcDbVisualStyle
  2
3D Hidden
 70
     6
177
     2
291
     0
 71
     1
176
     1
 72
     2
176
     1
 73
     2
176
     1
 90
        0
176
     1
 40
-0.6
176
     1
 41
-30.0
176
     1
 62
     5
 63
     7
421
 16777215
176
     1
 74
     2
176
     1
 91
        2
176
     1
 64
     7
176
     1
 65
   257
176
     1
 75
     2
176
     1
175
     1
176
     1
 42
40.0
176
     1
 92
        0
176
     1
 66
   257
176
     1
 43
1.0
176
     1
 76
     1
176
     1
 77
     6
176
     1
 78
     2
176
     1
 67
     7
176
     1
 79
     3
176
     1
170
     0
176
     1
171
     0
176
     1
290
     0
176
     1
 93
        1
176
     1
 44
0.0
176
     1
173
     0
176
     1
  0
VISUALSTYLE
  5
30
102
{ACAD_REACTORS
330
2A
102
}
330
2A
100
AcDbVisualStyle
  2
3dWireframe
 70
     5
177
     2
291
     0
 71
     0
176
     1
 72
     2
176
     1
 73
     0
176
     1
 90
        0
176
     1
 40
-0.6
176
     1
 41
-30.0
176
     1
 62
     5
 63
     7
421
 16777215
176
     1
 74
     1
176
     1
 91
        4
176
     1
 64
     7
176
     1
 65
   257
176
     1
 75
     1
176
     1
175
     1
176
     1
 42
1.0
176
     1
 92
        0
176
     1
 66
   257
176
     1
 43
1.0
176
     1
 76
     1
176
     1
 77
     6
176
     1
 78
     2
176
     1
 67
     7
176
     1
 79
     5
176
     1
170
     0
176
     1
171
     0
176
     1
290
     0
176
     1
 93
        1
176
     1
 44
0.0
176
     1
173
     0
176
     1
  0
VISUALSTYLE
  5
32
102
{ACAD_REACTORS
330
2A
102
}
330
2A
100
AcDbVisualStyle
  2
Basic
 70
     7
177
     2
291
     1
 71
     1
176
     1
 72
     0
176
     1
 73
     1
176
     1
 90
        0
176
     1
 40
-0.6
176
     1
 41
-30.0
176
     1
 62
     5
 63
     7
421
 16777215
176
     1
 74
     0
176
     1
 91
        4
176
     1
 64
     7
176
     1
 65
   257
176
     1
 75
     1
176
     1
175
     1
176
     1
 42
1.0
176
     1
 92
        8
176
     1
 66
     7
176
     1
 43
1.0
176
     1
 76
     1
176
     1
 77
     6
176
     1
 78
     2
176
     1
 67
     7
176
     1
 79
     5
176
     1
170
     0
176
     1
171
     0
176
     1
290
     0
176
     1
 93
        1
176
     1
 44
0.0
176
     1
173
     0
176
     1
  0
VISUALSTYLE
  5
36
102
{ACAD_REACTORS
330
2A
102
}
330
2A
100
AcDbVisualStyle
  2
Brighten
 70
    12
177
     2
291
     1
 71
     2
176
     1
 72
     2
176
     1
 73
     0
176
     1
 90
        0
176
     1
 40
-0.6
176
     1
 41
-30.0
176
     1
 62
     5
 63
     7
421
 16777215
176
     1
 74
     1
176
     1
 91
        4
176
     1
 64
     7
176
     1
 65
   257
176
     1
 75
     1
176
     1
175
     1
176
     1
 42
1.0
176
     1
 92
        8
176
     1
 66
     7
176
     1
 43
1.0
176
     1
 76
     1
176
     1
 77
     6
176
     1
 78
     2
176
     1
 67
     7
176
     1
 79
     5
176
     1
170
     0
176
     1
171
     0
176
     1
290
     0
176
     1
 93
        1
176
     1
 44
50.0
176
     1
173
     0
176
     1
  0
VISUALSTYLE
  5
3A
102
{ACAD_REACTORS
330
2A
102
}
330
2A
100
AcDbVisualStyle
  2
ColorChange
 70
    16
177
     2
291
     1
 71
     2
176
     1
 72
     2
176
     1
 73
     3
176
     1
 90
        0
176
     1
 40
-0.6
176
     1
 41
-30.0
176
     1
 62
     5
 63
     8
421
  8421504
176
     1
 74
     1
176
     1
 91
        4
176
     1
 64
     7
176
     1
 65
   257
176
     1
 75
     1
176
     1
175
     1
176
     1
 42
1.0
176
     1
 92
        8
176
     1
 66
     8
424
  8421504
176
     1
 43
1.0
176
     1
 76
     1
176
     1
 77
     6
176
     1
 78
     2
176
     1
 67
     7
176
     1
 79
     5
176
     1
170
     0
176
     1
171
     0
176
     1
290
     0
176
     1
 93
        1
176
     1
 44
0.0
176
     1
173
     0
176
     1
  0
VISUALSTYLE
  5
34
102
{ACAD_REACTORS
330
2A
102
}
330
2A
100
AcDbVisualStyle
  2
Conceptual
 70
     9
177
     2
291
     0
 71
     3
176
     1
 72
     2
176
     1
 73
     0
176
     1
 90
        0
176
     1
 40
-0.6
176
     1
 41
-30.0
176
     1
 62
     5
 63
     7
421
 16777215
176
     1
 74
     2
176
     1
 91
        2
176
     1
 64
     7
176
     1
 65
   257
176
     1
 75
     1
176
     1
175
     1
176
     1
 42
40.0
176
     1
 92
        8
176
     1
 66
     7
176
     1
 43
1.0
176
     1
 76
     1
176
     1
 77
     6
176
     1
 78
     2
176
     1
 67
     7
176
     1
 79
     3
176
     1
170
     0
176
     1
171
     0
176
     1
290
     0
176
     1
 93
        1
176
     1
 44
0.0
176
     1
173
     0
176
     1
  0
VISUALSTYLE
  5
35
102
{ACAD_REACTORS
330
2A
102
}
330
2A
100
AcDbVisualStyle
  2
Dim
 70
    11
177
     2
291
     1
 71
     2
176
     1
 72
     2
176
     1
 73
     0
176
     1
 90
        0
176
     1
 40
-0.6
176
     1
 41
-30.0
176
     1
 62
     5
 63
     7
421
 16777215
176
     1
 74
     1
176
     1
 91
        4
176
     1
 64
     7
176
     1
 65
   257
176
     1
 75
     1
176
     1
175
     1
176
     1
 42
1.0
176
     1
 92
        8
176
     1
 66
     7
176
     1
 43
1.0
176
     1
 76
     1
176
     1
 77
     6
176
     1
 78
     2
176
     1
 67
     7
176
     1
 79
     5
176
     1
170
     0
176
     1
171
     0
176
     1
290
     0
176
     1
 93
        1
176
     1
 44
-50.0
176
     1
173
     0
176
     1
  0
VISUALSTYLE
  5
39
102
{ACAD_REACTORS
330
2A
102
}
330
2A
100
AcDbVisualStyle
  2
Facepattern
 70
    15
177
     2
291
     1
 71
     2
176
     1
 72
     2
176
     1
 73
     0
176
     1
 90
        0
176
     1
 40
-0.6
176
     1
 41
-30.0
176
     1
 62
     5
 63
     7
421
 16777215
176
     1
 74
     1
176
     1
 91
        4
176
     1
 64
     7
176
     1
 65
   257
176
     1
 75
     1
176
     1
175
     1
176
     1
 42
1.0
176
     1
 92
        8
176
     1
 66
     7
176
     1
 43
1.0
176
     1
 76
     1
176
     1
 77
     6
176
     1
 78
     2
176
     1
 67
     7
176
     1
 79
     5
176
     1
170
     0
176
     1
171
     0
176
     1
290
     0
176
     1
 93
        1
176
     1
 44
0.0
176
     1
173
     0
176
     1
  0
VISUALSTYLE
  5
2B
102
{ACAD_REACTORS
330
2A
102
}
330
2A
100
AcDbVisualStyle
  2
Flat
 70
     0
177
     2
291
     1
 71
     2
176
     1
 72
     1
176
     1
 73
     1
176
     1
 90
        2
176
     1
 40
-0.6
176
     1
 41
30.0
176
     1
 62
     5
 63
     7
421
 16777215
176
     1
 74
     0
176
     1
 91
        4
176
     1
 64
     7
176
     1
 65
   257
176
     1
 75
     1
176
     1
175
     1
176
     1
 42
1.0
176
     1
 92
        8
176
     1
 66
     7
176
     1
 43
1.0
176
     1
 76
     1
176
     1
 77
     6
176
     1
 78
     2
176
     1
 67
     7
176
     1
 79
     5
176
     1
170
     0
176
     1
171
     0
176
     1
290
     0
176
     1
 93
       13
176
     1
 44
0.0
176
     1
173
     0
176
     1
  0
VISUALSTYLE
  5
2C
102
{ACAD_REACTORS
330
2A
102
}
330
2A
100
AcDbVisualStyle
  2
FlatWithEdges
 70
     1
177
     2
291
     1
 71
     2
176
     1
 72
     1
176
     1
 73
     1
176
     1
 90
        2
176
     1
 40
-0.6
176
     1
 41
30.0
176
     1
 62
     5
 63
     7
421
 16777215
176
     1
 74
     1
176
     1
 91
        4
176
     1
 64
     7
176
     1
 65
   257
176
     1
 75
     1
176
     1
175
     1
176
     1
 42
1.0
176
     1
 92
        0
176
     1
 66
   257
176
     1
 43
1.0
176
     1
 76
     1
176
     1
 77
     6
176
     1
 78
     2
176
     1
 67
     7
176
     1
 79
     5
176
     1
170
     0
176
     1
171
     0
176
     1
290
     0
176
     1
 93
       13
176
     1
 44
0.0
176
     1
173
     0
176
     1
  0
VISUALSTYLE
  5
2D
102
{ACAD_REACTORS
330
2A
102
}
330
2A
100
AcDbVisualStyle
  2
Gouraud
 70
     2
177
     2
291
     1
 71
     2
176
     1
 72
     2
176
     1
 73
     1
176
     1
 90
        2
176
     1
 40
-0.6
176
     1
 41
30.0
176
     1
 62
     5
 63
     7
421
 16777215
176
     1
 74
     0
176
     1
 91
        4
176
     1
 64
     7
176
     1
 65
   257
176
     1
 75
     1
176
     1
175
     1
176
     1
 42
1.0
176
     1
 92
        0
176
     1
 66
     7
176
     1
 43
1.0
176
     1
 76
     1
176
     1
 77
     6
176
     1
 78
     2
176
     1
 67
     7
176
     1
 79
     5
176
     1
170
     0
176
     1
171
     0
176
     1
290
     0
176
     1
 93
       13
176
     1
 44
0.0
176
     1
173
     0
176
     1
  0
VISUALSTYLE
  5
2E
102
{ACAD_REACTORS
330
2A
102
}
330
2A
100
AcDbVisualStyle
  2
GouraudWithEdges
 70
     3
177
     2
291
     1
 71
     2
176
     1
 72
     2
176
     1
 73
     1
176
     1
 90
        2
176
     1
 40
-0.6
176
     1
 41
30.0
176
     1
 62
     5
 63
     7
421
 16777215
176
     1
 74
     1
176
     1
 91
        4
176
     1
 64
     7
176
     1
 65
   257
176
     1
 75
     1
176
     1
175
     1
176
     1
 42
1.0
176
     1
 92
        0
176
     1
 66
   257
176
     1
 43
1.0
176
     1
 76
     1
176
     1
 77
     6
176
     1
 78
     2
176
     1
 67
     7
176
     1
 79
     5
176
     1
170
     0
176
     1
171
     0
176
     1
290
     0
176
     1
 93
       13
176
     1
 44
0.0
176
     1
173
     0
176
     1
  0
VISUALSTYLE
  5
38
102
{ACAD_REACTORS
330
2A
102
}
330
2A
100
AcDbVisualStyle
  2
Linepattern
 70
    14
177
     2
291
     1
 71
     2
176
     1
 72
     2
176
     1
 73
     0
176
     1
 90
        0
176
     1
 40
-0.6
176
     1
 41
-30.0
176
     1
 62
     5
 63
     7
421
 16777215
176
     1
 74
     1
176
     1
 91
        4
176
     1
 64
     7
176
     1
 65
   257
176
     1
 75
     7
176
     1
175
     7
176
     1
 42
1.0
176
     1
 92
        8
176
     1
 66
     7
176
     1
 43
1.0
176
     1
 76
     1
176
     1
 77
     6
176
     1
 78
     2
176
     1
 67
     7
176
     1
 79
     5
176
     1
170
     0
176
     1
171
     0
176
     1
290
     0
176
     1
 93
        1
176
     1
 44
0.0
176
     1
173
     0
176
     1
  0
VISUALSTYLE
  5
33
102
{ACAD_REACTORS
330
2A
102
}
330
2A
100
AcDbVisualStyle
  2
Realistic
 70
     8
177
     2
291
     0
 71
     2
176
     1
 72
     2
176
     1
 73
     0
176
     1
 90
        0
176
     1
 40
-0.6
176
     1
 41
-30.0
176
     1
 62
     5
 63
     7
421
 16777215
176
     1
 74
     1
176
     1
 91
        0
176
     1
 64
     7
176
     1
 65
   257
176
     1
 75
     1
176
     1
175
     1
176
     1
 42
1.0
176
     1
 92
        8
176
     1
 66
     8
424
  7895160
176
     1
 43
1.0
176
     1
 76
     1
176
     1
 77
     6
176
     1
 78
     2
176
     1
 67
     7
176
     1
 79
     5
176
     1
170
     0
176
     1
171
     0
176
     1
290
     0
176
     1
 93
       13
176
     1
 44
0.0
176
     1
173
     0
176
     1
  0
VISUALSTYLE
  5
37
102
{ACAD_REACTORS
330
2A
102
}
330
2A
100
AcDbVisualStyle
  2
Thicken
 70
    13
177
     2
291
     1
 71
     2
176
     1
 72
     2
176
     1
 73
     0
176
     1
 90
        0
176
     1
 40
-0.6
176
     1
 41
-30.0
176
     1
 62
     5
 63
     7
421
 16777215
176
     1
 74
     1
176
     1
 91
        4
176
     1
 64
     7
176
     1
 65
   257
176
     1
 75
     1
176
     1
175
     1
176
     1
 42
1.0
176
     1
 92
       12
176
     1
 66
     7
176
     1
 43
1.0
176
     1
 76
     1
176
     1
 77
     6
176
     1
 78
     2
176
     1
 67
     7
176
     1
 79
     5
176
     1
170
     0
176
     1
171
     0
176
     1
290
     0
176
     1
 93
        1
176
     1
 44
0.0
176
     1
173
     0
176
     1
  0
ENDSEC
  0
EOF
