  0
SECTION
  2
HEADER
  9
$ACADVER
  1
AC1024
  9
$ACADMAINTVER
 70
     6
  9
$DWGCODEPAGE
  3
ANSI_1252
  9
$INSBASE
 10
0.0
 20
0.0
 30
0.0
  9
$EXTMIN
 10
1.000000000000000E+20
 20
1.000000000000000E+20
 30
1.000000000000000E+20
  9
$EXTMAX
 10
-1.000000000000000E+20
 20
-1.000000000000000E+20
 30
-1.000000000000000E+20
  9
$LIMMIN
 10
0.0
 20
0.0
  9
$LIMMAX
 10
12.0
 20
9.0
  9
$ORTHOMODE
 70
     0
  9
$REGENMODE
 70
     1
  9
$FILLMODE
 70
     1
  9
$QTEXTMODE
 70
     0
  9
$MIRRTEXT
 70
     1
  9
$LTSCALE
 40
1.0
  9
$ATTMODE
 70
     1
  9
$TEXTSIZE
 40
0.2
  9
$TRACEWID
 40
0.05
  9
$TEXTSTYLE
  7
Standard
  9
$CLAYER
  8
0
  9
$CELTYPE
  6
ByLayer
  9
$CECOLOR
 62
   256
  9
$CELTSCALE
 40
1.0
  9
$DISPSILH
 70
     0
  9
$DIMSCALE
 40
1.0
  9
$DIMASZ
 40
0.18
  9
$DIMEXO
 40
0.0625
  9
$DIMDLI
 40
0.38
  9
$DIMRND
 40
0.0
  9
$DIMDLE
 40
0.0
  9
$DIMEXE
 40
0.18
  9
$DIMTP
 40
0.0
  9
$DIMTM
 40
0.0
  9
$DIMTXT
 40
0.18
  9
$DIMCEN
 40
0.09
  9
$DIMTSZ
 40
0.0
  9
$DIMTOL
 70
     0
  9
$DIMLIM
 70
     0
  9
$DIMTIH
 70
     1
  9
$DIMTOH
 70
     1
  9
$DIMSE1
 70
     0
  9
$DIMSE2
 70
     0
  9
$DIMTAD
 70
     0
  9
$DIMZIN
 70
     0
  9
$DIMBLK
  1

  9
$DIMASO
 70
     1
  9
$DIMSHO
 70
     1
  9
$DIMPOST
  1

  9
$DIMAPOST
  1

  9
$DIMALT
 70
     0
  9
$DIMALTD
 70
     2
  9
$DIMALTF
 40
25.4
  9
$DIMLFAC
 40
1.0
  9
$DIMTOFL
 70
     0
  9
$DIMTVP
 40
0.0
  9
$DIMTIX
 70
     0
  9
$DIMSOXD
 70
     0
  9
$DIMSAH
 70
     0
  9
$DIMBLK1
  1

  9
$DIMBLK2
  1

  9
$DIMSTYLE
  2
Standard
  9
$DIMCLRD
 70
     0
  9
$DIMCLRE
 70
     0
  9
$DIMCLRT
 70
     0
  9
$DIMTFAC
 40
1.0
  9
$DIMGAP
 40
0.09
  9
$DIMJUST
 70
     0
  9
$DIMSD1
 70
     0
  9
$DIMSD2
 70
     0
  9
$DIMTOLJ
 70
     1
  9
$DIMTZIN
 70
     0
  9
$DIMALTZ
 70
     0
  9
$DIMALTTZ
 70
     0
  9
$DIMUPT
 70
     0
  9
$DIMDEC
 70
     4
  9
$DIMTDEC
 70
     4
  9
$DIMALTU
 70
     2
  9
$DIMALTTD
 70
     2
  9
$DIMTXSTY
  7
Standard
  9
$DIMAUNIT
 70
     0
  9
$DIMADEC
 70
     0
  9
$DIMALTRND
 40
0.0
  9
$DIMAZIN
 70
     0
  9
$DIMDSEP
 70
    46
  9
$DIMATFIT
 70
     3
  9
$DIMFRAC
 70
     0
  9
$DIMLDRBLK
  1

  9
$DIMLUNIT
 70
     2
  9
$DIMLWD
 70
    -2
  9
$DIMLWE
 70
    -2
  9
$DIMTMOVE
 70
     0
  9
$DIMFXL
 40
1.0
  9
$DIMFXLON
 70
     0
  9
$DIMJOGANG
 40
0.7853981633974483
  9
$DIMTFILL
 70
     0
  9
$DIMTFILLCLR
 70
     0
  9
$DIMARCSYM
 70
     0
  9
$DIMLTYPE
  6

  9
$DIMLTEX1
  6

  9
$DIMLTEX2
  6

  9
$DIMTXTDIRECTION
 70
     0
  9
$LUNITS
 70
     2
  9
$LUPREC
 70
     4
  9
$SKETCHINC
 40
0.1
  9
$FILLETRAD
 40
0.5
  9
$AUNITS
 70
     0
  9
$AUPREC
 70
     0
  9
$MENU
  1
.
  9
$ELEVATION
 40
0.0
  9
$PELEVATION
 40
0.0
  9
$THICKNESS
 40
0.0
  9
$LIMCHECK
 70
     0
  9
$CHAMFERA
 40
0.5
  9
$CHAMFERB
 40
0.5
  9
$CHAMFERC
 40
1.0
  9
$CHAMFERD
 40
0.0
  9
$SKPOLY
 70
     0
  9
$TDCREATE
 40
2460004.378489074
  9
$TDUCREATE
 40
2460004.336822407
  9
$TDUPDATE
 40
2460004.378489421
  9
$TDUUPDATE
 40
2460004.336822755
  9
$TDINDWG
 40
0.0000000116
  9
$TDUSRTIMER
 40
0.0000000116
  9
$USRTIMER
 70
     1
  9
$ANGBASE
 50
0.0
  9
$ANGDIR
 70
     0
  9
$PDMODE
 70
     0
  9
$PDSIZE
 40
0.0
  9
$PLINEWID
 40
0.0
  9
$SPLFRAME
 70
     0
  9
$SPLINETYPE
 70
     6
  9
$SPLINESEGS
 70
     8
  9
$HANDSEED
  5
AD
  9
$SURFTAB1
 70
     6
  9
$SURFTAB2
 70
     6
  9
$SURFTYPE
 70
     6
  9
$SURFU
 70
     6
  9
$SURFV
 70
     6
  9
$UCSBASE
  2

  9
$UCSNAME
  2

  9
$UCSORG
 10
0.0
 20
0.0
 30
0.0
  9
$UCSXDIR
 10
1.0
 20
0.0
 30
0.0
  9
$UCSYDIR
 10
0.0
 20
1.0
 30
0.0
  9
$UCSORTHOREF
  2

  9
$UCSORTHOVIEW
 70
     0
  9
$UCSORGTOP
 10
0.0
 20
0.0
 30
0.0
  9
$UCSORGBOTTOM
 10
0.0
 20
0.0
 30
0.0
  9
$UCSORGLEFT
 10
0.0
 20
0.0
 30
0.0
  9
$UCSORGRIGHT
 10
0.0
 20
0.0
 30
0.0
  9
$UCSORGFRONT
 10
0.0
 20
0.0
 30
0.0
  9
$UCSORGBACK
 10
0.0
 20
0.0
 30
0.0
  9
$PUCSBASE
  2

  9
$PUCSNAME
  2

  9
$PUCSORG
 10
0.0
 20
0.0
 30
0.0
  9
$PUCSXDIR
 10
1.0
 20
0.0
 30
0.0
  9
$PUCSYDIR
 10
0.0
 20
1.0
 30
0.0
  9
$PUCSORTHOREF
  2

  9
$PUCSORTHOVIEW
 70
     0
  9
$PUCSORGTOP
 10
0.0
 20
0.0
 30
0.0
  9
$PUCSORGBOTTOM
 10
0.0
 20
0.0
 30
0.0
  9
$PUCSORGLEFT
 10
0.0
 20
0.0
 30
0.0
  9
$PUCSORGRIGHT
 10
0.0
 20
0.0
 30
0.0
  9
$PUCSORGFRONT
 10
0.0
 20
0.0
 30
0.0
  9
$PUCSORGBACK
 10
0.0
 20
0.0
 30
0.0
  9
$USERI1
 70
     0
  9
$USERI2
 70
     0
  9
$USERI3
 70
     0
  9
$USERI4
 70
     0
  9
$USERI5
 70
     0
  9
$USERR1
 40
0.0
  9
$USERR2
 40
0.0
  9
$USERR3
 40
0.0
  9
$USERR4
 40
0.0
  9
$USERR5
 40
0.0
  9
$WORLDVIEW
 70
     1
  9
$SHADEDGE
 70
     3
  9
$SHADEDIF
 70
    70
  9
$TILEMODE
 70
     1
  9
$MAXACTVP
 70
    64
  9
$PINSBASE
 10
0.0
 20
0.0
 30
0.0
  9
$PLIMCHECK
 70
     0
  9
$PEXTMIN
 10
1.000000000000000E+20
 20
1.000000000000000E+20
 30
1.000000000000000E+20
  9
$PEXTMAX
 10
-1.000000000000000E+20
 20
-1.000000000000000E+20
 30
-1.000000000000000E+20
  9
$PLIMMIN
 10
0.0
 20
0.0
  9
$PLIMMAX
 10
12.0
 20
9.0
  9
$UNITMODE
 70
     0
  9
$VISRETAIN
 70
     1
  9
$PLINEGEN
 70
     0
  9
$PSLTSCALE
 70
     1
  9
$TREEDEPTH
 70
  3020
  9
$CMLSTYLE
  2
Standard
  9
$CMLJUST
 70
     0
  9
$CMLSCALE
 40
1.0
  9
$PROXYGRAPHICS
 70
     1
  9
$MEASUREMENT
 70
     0
  9
$CELWEIGHT
370
    -1
  9
$ENDCAPS
280
     0
  9
$JOINSTYLE
280
     0
  9
$LWDISPLAY
290
     1
  9
$INSUNITS
 70
     1
  9
$HYPERLINKBASE
  1

  9
$STYLESHEET
  1

  9
$XEDIT
290
     1
  9
$CEPSNTYPE
380
     0
  9
$PSTYLEMODE
290
     1
  9
$FINGERPRINTGUID
  2
{3E74DF73-1916-46AF-AB7D-02C1297EFEA9}
  9
$VERSIONGUID
  2
{FAEB1C32-E019-11D5-929B-00C0DF256EC4}
  9
$EXTNAMES
290
     1
  9
$PSVPSCALE
 40
0.0
  9
$OLESTARTUP
290
     0
  9
$SORTENTS
280
   127
  9
$INDEXCTL
280
     0
  9
$HIDETEXT
280
     1
  9
$XCLIPFRAME
280
     2
  9
$HALOGAP
280
     0
  9
$OBSCOLOR
 70
   257
  9
$OBSLTYPE
280
     0
  9
$INTERSECTIONDISPLAY
280
     0
  9
$INTERSECTIONCOLOR
 70
   257
  9
$DIMASSOC
280
     2
  9
$PROJECTNAME
  1

  9
$CAMERADISPLAY
290
     0
  9
$LENSLENGTH
 40
50.0
  9
$CAMERAHEIGHT
 40
0.0
  9
$STEPSPERSEC
 40
2.0
  9
$STEPSIZE
 40
6.0
  9
$3DDWFPREC
 40
2.0
  9
$PSOLWIDTH
 40
0.25
  9
$PSOLHEIGHT
 40
4.0
  9
$LOFTANG1
 40
1.570796326794897
  9
$LOFTANG2
 40
1.570796326794897
  9
$LOFTMAG1
 40
0.0
  9
$LOFTMAG2
 40
0.0
  9
$LOFTPARAM
 70
     7
  9
$LOFTNORMALS
280
     1
  9
$LATITUDE
 40
37.795
  9
$LONGITUDE
 40
-122.394
  9
$NORTHDIRECTION
 40
0.0
  9
$TIMEZONE
 70
 -8000
  9
$LIGHTGLYPHDISPLAY
280
     1
  9
$TILEMODELIGHTSYNCH
280
     1
  9
$CMATERIAL
347
3C
  9
$SOLIDHIST
280
     1
  9
$SHOWHIST
280
     1
  9
$DWFFRAME
280
     2
  9
$DGNFRAME
280
     2
  9
$REALWORLDSCALE
290
     1
  9
$INTERFERECOLOR
 62
   256
  9
$CSHADOW
280
     0
  9
$SHADOWPLANELOCATION
 40
0.0
  0
ENDSEC
  0
SECTION
  2
CLASSES
  0
CLASS
  1
ACDBDICTIONARYWDFLT
  2
AcDbDictionaryWithDefault
  3
ObjectDBX Classes
 90
        0
 91
        4
280
     0
281
     0
  0
CLASS
  1
VISUALSTYLE
  2
AcDbVisualStyle
  3
ObjectDBX Classes
 90
     4095
 91
        4
280
     0
281
     0
  0
CLASS
  1
MATERIAL
  2
AcDbMaterial
  3
ObjectDBX Classes
 90
     1153
 91
        4
280
     0
281
     0
  0
CLASS
  1
SUN
  2
AcDbSun
  3
SCENEOE
 90
     1024
 91
        4
280
     0
281
     0
  0
ENDSEC
  0
SECTION
  2
TABLES
  0
TABLE
  2
VPORT
  5
8
330
0
100
AcDbSymbolTable
 70
     1
  0
VPORT
  5
29
330
8
100
AcDbSymbolTableRecord
100
AcDbViewportTableRecord
  2
*Active
 70
     0
 10
0.0
 20
0.0
 11
1.0
 21
1.0
 12
0.0
 22
0.0
 13
0.0
 23
0.0
 14
0.5
 24
0.5
 15
0.5
 25
0.5
 16
0.0
 26
0.0
 36
1.0
 17
46.49963887726413
 27
-24.99959721597225
 37
0.0
 40
49.9991944319445
 41
1.860015522472318
 42
50.0
 43
0.0
 44
0.0
 50
0.0
 51
0.0
 71
     0
 72
   100
 73
     1
 74
     3
 75
     0
 76
     0
 77
     0
 78
     0
281
     0
 65
     1
110
0.0
120
0.0
130
0.0
111
1.0
121
0.0
131
0.0
112
0.0
122
1.0
132
0.0
 79
     0
146
0.0
 60
     3
 61
     5
292
     1
282
     1
141
0.0
142
0.0
 63
   250
361
3F
  0
ENDTAB
  0
TABLE
  2
LTYPE
  5
5
330
0
100
AcDbSymbolTable
 70
     1
  0
LTYPE
  5
14
330
5
100
AcDbSymbolTableRecord
100
AcDbLinetypeTableRecord
  2
ByBlock
 70
     0
  3

 72
    65
 73
     0
 40
0.0
  0
LTYPE
  5
15
330
5
100
AcDbSymbolTableRecord
100
AcDbLinetypeTableRecord
  2
ByLayer
 70
     0
  3

 72
    65
 73
     0
 40
0.0
  0
LTYPE
  5
16
330
5
100
AcDbSymbolTableRecord
100
AcDbLinetypeTableRecord
  2
Continuous
 70
     0
  3
Solid line
 72
    65
 73
     0
 40
0.0
  0
ENDTAB
  0
TABLE
  2
LAYER
  5
2
330
0
100
AcDbSymbolTable
 70
     6
  0
LAYER
  5
10
330
2
100
AcDbSymbolTableRecord
100
AcDbLayerTableRecord
  2
0
 70
     0
 62
     7
  6
Continuous
370
    -3
390
F
347
3E
  0
LAYER
  5
40
330
2
100
AcDbSymbolTableRecord
100
AcDbLayerTableRecord
  2
With Dials 3
 70
     1
 62
     7
  6
Continuous
370
    -3
390
F
347
3E
  0
LAYER
  5
41
330
2
100
AcDbSymbolTableRecord
100
AcDbLayerTableRecord
  2
With Dials 2
 70
     1
 62
     7
  6
Continuous
370
    -3
390
F
347
3E
  0
LAYER
  5
42
330
2
100
AcDbSymbolTableRecord
100
AcDbLayerTableRecord
  2
Guides
 70
     1
 62
     7
  6
Continuous
370
    -3
390
F
347
3E
  0
LAYER
  5
43
330
2
100
AcDbSymbolTableRecord
100
AcDbLayerTableRecord
  2
With Dials
 70
     0
 62
     7
  6
Continuous
370
    -3
390
F
347
3E
  0
LAYER
  5
AA
330
2
100
AcDbSymbolTableRecord
100
AcDbLayerTableRecord
  2
Original
 70
     5
 62
     7
  6
Continuous
370
    -3
390
F
347
3E
  0
ENDTAB
  0
TABLE
  2
STYLE
  5
3
330
0
100
AcDbSymbolTable
 70
     1
  0
STYLE
  5
11
330
3
100
AcDbSymbolTableRecord
100
AcDbTextStyleTableRecord
  2
Standard
 70
     0
 40
0.0
 41
1.0
 50
0.0
 71
     0
 42
0.2
  3
txt
  4

  0
ENDTAB
  0
TABLE
  2
VIEW
  5
6
330
0
100
AcDbSymbolTable
 70
     0
  0
ENDTAB
  0
TABLE
  2
UCS
  5
7
330
0
100
AcDbSymbolTable
 70
     0
  0
ENDTAB
  0
TABLE
  2
APPID
  5
9
330
0
100
AcDbSymbolTable
 70
     1
  0
APPID
  5
12
330
9
100
AcDbSymbolTableRecord
100
AcDbRegAppTableRecord
  2
ACAD
 70
     0
  0
ENDTAB
  0
TABLE
  2
DIMSTYLE
  5
A
330
0
100
AcDbSymbolTable
 70
     1
100
AcDbDimStyleTable
  0
DIMSTYLE
105
27
330
A
100
AcDbSymbolTableRecord
100
AcDbDimStyleTableRecord
  2
Standard
 70
     0
178
     0
340
11
  0
ENDTAB
  0
TABLE
  2
BLOCK_RECORD
  5
1
330
0
100
AcDbSymbolTable
 70
    11
  0
BLOCK_RECORD
  5
1F
330
1
100
AcDbSymbolTableRecord
100
AcDbBlockTableRecord
  2
*Model_Space
340
22
 70
     0
280
     1
281
     0
  0
BLOCK_RECORD
  5
1B
330
1
100
AcDbSymbolTableRecord
100
AcDbBlockTableRecord
  2
*Paper_Space
340
1E
 70
     0
280
     1
281
     0
  0
BLOCK_RECORD
  5
23
330
1
100
AcDbSymbolTableRecord
100
AcDbBlockTableRecord
  2
*Paper_Space0
340
26
 70
     0
280
     1
281
     0
  0
BLOCK_RECORD
  5
44
330
1
100
AcDbSymbolTableRecord
100
AcDbBlockTableRecord
  2
block 2
340
0
102
{BLKREFS
331
45
102
}
 70
     0
280
     1
281
     0
  0
BLOCK_RECORD
  5
48
330
1
100
AcDbSymbolTableRecord
100
AcDbBlockTableRecord
  2
block 3
340
0
102
{BLKREFS
331
49
102
}
 70
     0
280
     1
281
     0
  0
BLOCK_RECORD
  5
5A
330
1
100
AcDbSymbolTableRecord
100
AcDbBlockTableRecord
  2
block 4
340
0
102
{BLKREFS
331
5B
102
}
 70
     0
280
     1
281
     0
  0
BLOCK_RECORD
  5
60
330
1
100
AcDbSymbolTableRecord
100
AcDbBlockTableRecord
  2
block 5
340
0
102
{BLKREFS
331
61
102
}
 70
     0
280
     1
281
     0
  0
BLOCK_RECORD
  5
66
330
1
100
AcDbSymbolTableRecord
100
AcDbBlockTableRecord
  2
block 6
340
0
102
{BLKREFS
331
67
102
}
 70
     0
280
     1
281
     0
  0
BLOCK_RECORD
  5
7F
330
1
100
AcDbSymbolTableRecord
100
AcDbBlockTableRecord
  2
block 7
340
0
102
{BLKREFS
331
80
102
}
 70
     0
280
     1
281
     0
  0
BLOCK_RECORD
  5
85
330
1
100
AcDbSymbolTableRecord
100
AcDbBlockTableRecord
  2
block 8
340
0
102
{BLKREFS
331
86
102
}
 70
     0
280
     1
281
     0
  0
BLOCK_RECORD
  5
8C
330
1
100
AcDbSymbolTableRecord
100
AcDbBlockTableRecord
  2
block 9
340
0
102
{BLKREFS
331
8D
102
}
 70
     0
280
     1
281
     0
  0
BLOCK_RECORD
  5
9B
330
1
100
AcDbSymbolTableRecord
100
AcDbBlockTableRecord
  2
block 10
340
0
102
{BLKREFS
331
9C
102
}
 70
     0
280
     1
281
     0
  0
BLOCK_RECORD
  5
A3
330
1
100
AcDbSymbolTableRecord
100
AcDbBlockTableRecord
  2
block 11
340
0
102
{BLKREFS
331
A4
102
}
 70
     0
280
     1
281
     0
  0
ENDTAB
  0
ENDSEC
  0
SECTION
  2
BLOCKS
  0
BLOCK
  5
20
330
1F
100
AcDbEntity
  8
0
100
AcDbBlockBegin
  2
*Model_Space
 70
     0
 10
0.0
 20
0.0
 30
0.0
  3
*Model_Space
  1

  0
ENDBLK
  5
21
330
1F
100
AcDbEntity
  8
0
100
AcDbBlockEnd
  0
BLOCK
  5
1C
330
1B
100
AcDbEntity
 67
     1
  8
0
100
AcDbBlockBegin
  2
*Paper_Space
 70
     0
 10
0.0
 20
0.0
 30
0.0
  3
*Paper_Space
  1

  0
ENDBLK
  5
1D
330
1B
100
AcDbEntity
 67
     1
  8
0
100
AcDbBlockEnd
  0
BLOCK
  5
24
330
23
100
AcDbEntity
  8
0
100
AcDbBlockBegin
  2
*Paper_Space0
 70
     0
 10
0.0
 20
0.0
 30
0.0
  3
*Paper_Space0
  1

  0
ENDBLK
  5
25
330
23
100
AcDbEntity
  8
0
100
AcDbBlockEnd
  0
BLOCK
  5
46
330
44
100
AcDbEntity
  8
0
100
AcDbBlockBegin
  2
block 2
 70
     0
 10
0.0
 20
0.0
 30
0.0
  3
block 2
  1

  0
INSERT
  5
49
330
44
100
AcDbEntity
  8
With Dials
100
AcDbBlockReference
  2
block 3
 10
0.0
 20
0.0
 30
0.0
  0
INSERT
  5
5B
330
44
100
AcDbEntity
  8
With Dials
100
AcDbBlockReference
  2
block 4
 10
0.0
 20
0.0
 30
0.0
  0
INSERT
  5
61
330
44
100
AcDbEntity
  8
With Dials
100
AcDbBlockReference
  2
block 5
 10
0.0
 20
0.0
 30
0.0
  0
INSERT
  5
67
330
44
100
AcDbEntity
  8
With Dials
100
AcDbBlockReference
  2
block 6
 10
0.0
 20
0.0
 30
0.0
  0
INSERT
  5
80
330
44
100
AcDbEntity
  8
With Dials
100
AcDbBlockReference
  2
block 7
 10
0.0
 20
0.0
 30
0.0
  0
INSERT
  5
86
330
44
100
AcDbEntity
  8
With Dials
100
AcDbBlockReference
  2
block 8
 10
0.0
 20
0.0
 30
0.0
  0
INSERT
  5
8D
330
44
100
AcDbEntity
  8
With Dials
100
AcDbBlockReference
  2
block 9
 10
0.0
 20
0.0
 30
0.0
  0
INSERT
  5
9C
330
44
100
AcDbEntity
  8
With Dials
100
AcDbBlockReference
  2
block 10
 10
0.0
 20
0.0
 30
0.0
  0
INSERT
  5
A4
330
44
100
AcDbEntity
  8
With Dials
100
AcDbBlockReference
  2
block 11
 10
0.0
 20
0.0
 30
0.0
  0
ENDBLK
  5
47
330
44
100
AcDbEntity
  8
0
100
AcDbBlockEnd
  0
BLOCK
  5
4A
330
48
100
AcDbEntity
  8
0
100
AcDbBlockBegin
  2
block 3
 70
     0
 10
0.0
 20
0.0
 30
0.0
  3
block 3
  1

  0
POLYLINE
  5
4C
330
48
100
AcDbEntity
  8
With Dials
370
     0
100
AcDb2dPolyline
 66
     1
 10
0.0
 20
0.0
 30
0.0
  0
VERTEX
  5
4D
330
4C
100
AcDbEntity
  8
With Dials
370
     0
100
AcDbVertex
100
AcDb2dVertex
 10
5.50939670001154
 20
-3.97546793520405
 30
0.0
  0
VERTEX
  5
4E
330
4C
100
AcDbEntity
  8
With Dials
370
     0
100
AcDbVertex
100
AcDb2dVertex
 10
5.50939670001154
 20
-7.650695798868576
 30
0.0
  0
VERTEX
  5
4F
330
4C
100
AcDbEntity
  8
With Dials
370
     0
100
AcDbVertex
100
AcDb2dVertex
 10
6.088172741533513
 20
-7.650695798868576
 30
0.0
  0
VERTEX
  5
50
330
4C
100
AcDbEntity
  8
With Dials
370
     0
100
AcDbVertex
100
AcDb2dVertex
 10
6.088172741533513
 20
-8.043436684187057
 30
0.0
  0
VERTEX
  5
51
330
4C
100
AcDbEntity
  8
With Dials
370
     0
100
AcDbVertex
100
AcDb2dVertex
 10
4.527544486715336
 20
-8.043436684187057
 30
0.0
  0
VERTEX
  5
52
330
4C
100
AcDbEntity
  8
With Dials
370
     0
100
AcDbVertex
100
AcDb2dVertex
 10
4.527544486715336
 20
-7.650695798868576
 30
0.0
  0
VERTEX
  5
53
330
4C
100
AcDbEntity
  8
With Dials
370
     0
100
AcDbVertex
100
AcDb2dVertex
 10
5.108387585528459
 20
-7.650695798868576
 30
0.0
  0
VERTEX
  5
54
330
4C
100
AcDbEntity
  8
With Dials
370
     0
100
AcDbVertex
100
AcDb2dVertex
 10
5.108387585528459
 20
-4.368208820522531
 30
0.0
  0
VERTEX
  5
55
330
4C
100
AcDbEntity
  8
With Dials
370
     0
100
AcDbVertex
100
AcDb2dVertex
 10
4.527544486715336
 20
-4.368208820522531
 30
0.0
  0
VERTEX
  5
56
330
4C
100
AcDbEntity
  8
With Dials
370
     0
100
AcDbVertex
100
AcDb2dVertex
 10
4.527544486715336
 20
-3.97546793520405
 30
0.0
  0
VERTEX
  5
57
330
4C
100
AcDbEntity
  8
With Dials
370
     0
100
AcDbVertex
100
AcDb2dVertex
 10
5.50939670001154
 20
-3.97546793520405
 30
0.0
  0
SEQEND
  5
58
330
4C
100
AcDbEntity
  8
With Dials
370
     0
  0
HATCH
  5
59
330
48
100
AcDbEntity
  8
With Dials
 62
   250
420
  2301728
100
AcDbHatch
 10
0.0
 20
0.0
 30
0.0
210
0.0
220
0.0
230
1.0
  2
SOLID
 70
     1
 71
     0
 91
        1
 92
        1
 93
       10
 72
     1
 10
5.50939670001154
 20
-3.97546793520405
 11
5.50939670001154
 21
-7.650695798868576
 72
     1
 10
5.50939670001154
 20
-7.650695798868576
 11
6.088172741533513
 21
-7.650695798868576
 72
     1
 10
6.088172741533513
 20
-7.650695798868576
 11
6.088172741533513
 21
-8.043436684187057
 72
     1
 10
6.088172741533513
 20
-8.043436684187057
 11
4.527544486715336
 21
-8.043436684187057
 72
     1
 10
4.527544486715336
 20
-8.043436684187057
 11
4.527544486715336
 21
-7.650695798868576
 72
     1
 10
4.527544486715336
 20
-7.650695798868576
 11
5.108387585528459
 21
-7.650695798868576
 72
     1
 10
5.108387585528459
 20
-7.650695798868576
 11
5.108387585528459
 21
-4.368208820522531
 72
     1
 10
5.108387585528459
 20
-4.368208820522531
 11
4.527544486715336
 21
-4.368208820522531
 72
     1
 10
4.527544486715336
 20
-4.368208820522531
 11
4.527544486715336
 21
-3.97546793520405
 72
     1
 10
4.527544486715336
 20
-3.97546793520405
 11
5.50939670001154
 21
-3.97546793520405
 97
        0
 75
     2
 76
     1
 98
        0
  0
ENDBLK
  5
4B
330
48
100
AcDbEntity
  8
0
100
AcDbBlockEnd
  0
BLOCK
  5
5C
330
5A
100
AcDbEntity
  8
0
100
AcDbBlockBegin
  2
block 4
 70
     0
 10
0.0
 20
0.0
 30
0.0
  3
block 4
  1

  0
SPLINE
  5
5E
330
5A
100
AcDbEntity
  8
With Dials
370
     0
100
AcDbSpline
210
0.0
220
0.0
230
1.0
 70
    11
 71
     3
 72
    62
 73
    58
 74
     0
 42
0.0000000001
 43
0.0000000001
 12
1.0
 22
0.0
 32
0.0
 13
1.0
 23
0.0
 33
0.0
 40
0.0
 40
0.0
 40
0.0
 40
0.0
 40
1.0
 40
1.0
 40
1.0
 40
2.0
 40
2.0
 40
2.0
 40
3.0
 40
3.0
 40
3.0
 40
4.0
 40
4.0
 40
4.0
 40
5.0
 40
5.0
 40
5.0
 40
6.0
 40
6.0
 40
6.0
 40
7.0
 40
7.0
 40
7.0
 40
8.0
 40
8.0
 40
8.0
 40
9.0
 40
9.0
 40
9.0
 40
10.0
 40
10.0
 40
10.0
 40
11.0
 40
11.0
 40
11.0
 40
12.0
 40
12.0
 40
12.0
 40
13.0
 40
13.0
 40
13.0
 40
14.0
 40
14.0
 40
14.0
 40
15.0
 40
15.0
 40
15.0
 40
16.0
 40
16.0
 40
16.0
 40
17.0
 40
17.0
 40
17.0
 40
18.0
 40
18.0
 40
18.0
 40
19.0
 40
19.0
 40
19.0
 40
19.0
 10
12.09796956077759
 20
-7.283965384463731
 30
0.0
 10
12.09796956077759
 20
-6.933943683162347
 30
0.0
 10
12.27504746871943
 20
-6.631464299557412
 30
0.0
 10
12.62920328460312
 20
-6.376527233648924
 30
0.0
 10
13.0453708192213
 20
-6.081627060111538
 30
0.0
 10
13.25414360562744
 20
-5.81979980323255
 30
0.0
 10
13.25552164382154
 20
-5.591045463011961
 30
0.0
 10
13.25552164382154
 20
-5.591045463011961
 30
0.0
 10
13.25552164382154
 20
-4.749753145513951
 30
0.0
 10
13.25552164382154
 20
-4.749753145513951
 30
0.0
 10
13.25552164382154
 20
-4.483791774052663
 30
0.0
 10
13.13080918725549
 20
-4.350811088322019
 30
0.0
 10
12.8813842741234
 20
-4.350811088322019
 30
0.0
 10
12.8813842741234
 20
-4.350811088322019
 30
0.0
 10
12.8772501595411
 20
-4.350811088322019
 30
0.0
 10
12.8772501595411
 20
-4.350811088322019
 30
0.0
 10
12.62644720821492
 20
-4.350811088322019
 30
0.0
 10
12.50104573255182
 20
-4.483791774052663
 30
0.0
 10
12.50104573255182
 20
-4.749753145513951
 30
0.0
 10
12.50104573255182
 20
-4.749753145513951
 30
0.0
 10
12.50104573255182
 20
-5.214841036022679
 30
0.0
 10
12.50104573255182
 20
-5.214841036022679
 30
0.0
 10
12.50104573255182
 20
-5.214841036022679
 30
0.0
 10
12.09796956077759
 20
-5.214841036022679
 30
0.0
 10
12.09796956077759
 20
-5.214841036022679
 30
0.0
 10
12.09796956077759
 20
-5.214841036022679
 30
0.0
 10
12.09796956077759
 20
-4.749753145513951
 30
0.0
 10
12.09796956077759
 20
-4.749753145513951
 30
0.0
 10
12.09796956077759
 20
-4.219208440785476
 30
0.0
 10
12.35772976036543
 20
-3.953936088421238
 30
0.0
 10
12.8772501595411
 20
-3.953936088421238
 30
0.0
 10
13.39814859691088
 20
-3.953936088421238
 30
0.0
 10
13.65859781559577
 20
-4.219208440785476
 30
0.0
 10
13.65859781559577
 20
-4.749753145513951
 30
0.0
 10
13.65859781559577
 20
-4.749753145513951
 30
0.0
 10
13.65859781559577
 20
-5.605514864050011
 30
0.0
 10
13.65859781559577
 20
-5.605514864050011
 30
0.0
 10
13.65859781559577
 20
-5.962426756321894
 30
0.0
 10
13.48083088855688
 20
-6.269040254509129
 30
0.0
 10
13.12529703447909
 20
-6.525355358611717
 30
0.0
 10
12.70912949986091
 20
-6.821633570343203
 30
0.0
 10
12.50104573255182
 20
-7.09172905638679
 30
0.0
 10
12.50104573255182
 20
-7.335641816742479
 30
0.0
 10
12.50104573255182
 20
-7.335641816742479
 30
0.0
 10
12.50104573255182
 20
-7.701510957276011
 30
0.0
 10
12.50104573255182
 20
-7.701510957276011
 30
0.0
 10
12.50104573255182
 20
-7.701510957276011
 30
0.0
 10
13.65859781559577
 20
-7.701510957276011
 30
0.0
 10
13.65859781559577
 20
-7.701510957276011
 30
0.0
 10
13.65859781559577
 20
-7.701510957276011
 30
0.0
 10
13.65859781559577
 20
-8.096318899885643
 30
0.0
 10
13.65859781559577
 20
-8.096318899885643
 30
0.0
 10
13.65859781559577
 20
-8.096318899885643
 30
0.0
 10
12.09796956077759
 20
-8.096318899885643
 30
0.0
 10
12.09796956077759
 20
-8.096318899885643
 30
0.0
 10
12.09796956077759
 20
-8.096318899885643
 30
0.0
 10
12.09796956077759
 20
-7.283965384463731
 30
0.0
 10
12.09796956077759
 20
-7.283965384463731
 30
0.0
  0
HATCH
  5
5F
330
5A
100
AcDbEntity
  8
With Dials
 62
   250
420
  2301728
100
AcDbHatch
 10
0.0
 20
0.0
 30
0.0
210
0.0
220
0.0
230
1.0
  2
SOLID
 70
     1
 71
     0
 91
        1
 92
        1
 93
        1
 72
     4
 94
        3
 73
     0
 74
     1
 95
       62
 96
       58
 40
0.0
 40
0.0
 40
0.0
 40
0.0
 40
1.0
 40
1.0
 40
1.0
 40
2.0
 40
2.0
 40
2.0
 40
3.0
 40
3.0
 40
3.0
 40
4.0
 40
4.0
 40
4.0
 40
5.0
 40
5.0
 40
5.0
 40
6.0
 40
6.0
 40
6.0
 40
7.0
 40
7.0
 40
7.0
 40
8.0
 40
8.0
 40
8.0
 40
9.0
 40
9.0
 40
9.0
 40
10.0
 40
10.0
 40
10.0
 40
11.0
 40
11.0
 40
11.0
 40
12.0
 40
12.0
 40
12.0
 40
13.0
 40
13.0
 40
13.0
 40
14.0
 40
14.0
 40
14.0
 40
15.0
 40
15.0
 40
15.0
 40
16.0
 40
16.0
 40
16.0
 40
17.0
 40
17.0
 40
17.0
 40
18.0
 40
18.0
 40
18.0
 40
19.0
 40
19.0
 40
19.0
 40
19.0
 10
12.09796956077759
 20
-7.283965384463731
 10
12.09796956077759
 20
-6.933943683162347
 10
12.27504746871943
 20
-6.631464299557412
 10
12.62920328460312
 20
-6.376527233648924
 10
13.0453708192213
 20
-6.081627060111538
 10
13.25414360562744
 20
-5.81979980323255
 10
13.25552164382154
 20
-5.591045463011961
 10
13.25552164382154
 20
-5.591045463011961
 10
13.25552164382154
 20
-4.749753145513951
 10
13.25552164382154
 20
-4.749753145513951
 10
13.25552164382154
 20
-4.483791774052663
 10
13.13080918725549
 20
-4.350811088322019
 10
12.8813842741234
 20
-4.350811088322019
 10
12.8813842741234
 20
-4.350811088322019
 10
12.8772501595411
 20
-4.350811088322019
 10
12.8772501595411
 20
-4.350811088322019
 10
12.62644720821492
 20
-4.350811088322019
 10
12.50104573255182
 20
-4.483791774052663
 10
12.50104573255182
 20
-4.749753145513951
 10
12.50104573255182
 20
-4.749753145513951
 10
12.50104573255182
 20
-5.214841036022679
 10
12.50104573255182
 20
-5.214841036022679
 10
12.50104573255182
 20
-5.214841036022679
 10
12.09796956077759
 20
-5.214841036022679
 10
12.09796956077759
 20
-5.214841036022679
 10
12.09796956077759
 20
-5.214841036022679
 10
12.09796956077759
 20
-4.749753145513951
 10
12.09796956077759
 20
-4.749753145513951
 10
12.09796956077759
 20
-4.219208440785476
 10
12.35772976036543
 20
-3.953936088421238
 10
12.8772501595411
 20
-3.953936088421238
 10
13.39814859691088
 20
-3.953936088421238
 10
13.65859781559577
 20
-4.219208440785476
 10
13.65859781559577
 20
-4.749753145513951
 10
13.65859781559577
 20
-4.749753145513951
 10
13.65859781559577
 20
-5.605514864050011
 10
13.65859781559577
 20
-5.605514864050011
 10
13.65859781559577
 20
-5.962426756321894
 10
13.48083088855688
 20
-6.269040254509129
 10
13.12529703447909
 20
-6.525355358611717
 10
12.70912949986091
 20
-6.821633570343203
 10
12.50104573255182
 20
-7.09172905638679
 10
12.50104573255182
 20
-7.335641816742479
 10
12.50104573255182
 20
-7.335641816742479
 10
12.50104573255182
 20
-7.701510957276011
 10
12.50104573255182
 20
-7.701510957276011
 10
12.50104573255182
 20
-7.701510957276011
 10
13.65859781559577
 20
-7.701510957276011
 10
13.65859781559577
 20
-7.701510957276011
 10
13.65859781559577
 20
-7.701510957276011
 10
13.65859781559577
 20
-8.096318899885643
 10
13.65859781559577
 20
-8.096318899885643
 10
13.65859781559577
 20
-8.096318899885643
 10
12.09796956077759
 20
-8.096318899885643
 10
12.09796956077759
 20
-8.096318899885643
 10
12.09796956077759
 20
-8.096318899885643
 10
12.09796956077759
 20
-7.283965384463731
 10
12.09796956077759
 20
-7.283965384463731
 97
        0
 97
        0
 75
     2
 76
     1
 98
        0
  0
ENDBLK
  5
5D
330
5A
100
AcDbEntity
  8
0
100
AcDbBlockEnd
  0
BLOCK
  5
62
330
60
100
AcDbEntity
  8
0
100
AcDbBlockBegin
  2
block 5
 70
     0
 10
0.0
 20
0.0
 30
0.0
  3
block 5
  1

  0
SPLINE
  5
64
330
60
100
AcDbEntity
  8
With Dials
370
     0
100
AcDbSpline
210
0.0
220
0.0
230
1.0
 70
    11
 71
     3
 72
    80
 73
    76
 74
     0
 42
0.0000000001
 43
0.0000000001
 12
1.0
 22
0.0
 32
0.0
 13
1.0
 23
0.0
 33
0.0
 40
0.0
 40
0.0
 40
0.0
 40
0.0
 40
1.0
 40
1.0
 40
1.0
 40
2.0
 40
2.0
 40
2.0
 40
3.0
 40
3.0
 40
3.0
 40
4.0
 40
4.0
 40
4.0
 40
5.0
 40
5.0
 40
5.0
 40
6.0
 40
6.0
 40
6.0
 40
7.0
 40
7.0
 40
7.0
 40
8.0
 40
8.0
 40
8.0
 40
9.0
 40
9.0
 40
9.0
 40
10.0
 40
10.0
 40
10.0
 40
11.0
 40
11.0
 40
11.0
 40
12.0
 40
12.0
 40
12.0
 40
13.0
 40
13.0
 40
13.0
 40
14.0
 40
14.0
 40
14.0
 40
15.0
 40
15.0
 40
15.0
 40
16.0
 40
16.0
 40
16.0
 40
17.0
 40
17.0
 40
17.0
 40
18.0
 40
18.0
 40
18.0
 40
19.0
 40
19.0
 40
19.0
 40
20.0
 40
20.0
 40
20.0
 40
21.0
 40
21.0
 40
21.0
 40
22.0
 40
22.0
 40
22.0
 40
23.0
 40
23.0
 40
23.0
 40
24.0
 40
24.0
 40
24.0
 40
25.0
 40
25.0
 40
25.0
 40
25.0
 10
20.05476209351061
 20
-5.859935165635711
 30
0.0
 10
20.3248575795542
 20
-5.818594019812713
 30
0.0
 10
20.45783826528485
 20
-5.66494276117057
 30
0.0
 10
20.45370415070255
 20
-5.398981389709283
 30
0.0
 10
20.45370415070255
 20
-5.398981389709283
 30
0.0
 10
20.45370415070255
 20
-4.747858342997064
 30
0.0
 10
20.45370415070255
 20
-4.747858342997064
 30
0.0
 10
20.45370415070255
 20
-4.483275009729875
 30
0.0
 10
20.32830267503945
 20
-4.350983343096282
 30
0.0
 10
20.07749972371327
 20
-4.350983343096282
 30
0.0
 10
19.82531873419298
 20
-4.350983343096282
 30
0.0
 10
19.69922823943283
 20
-4.483275009729875
 30
0.0
 10
19.69922823943283
 20
-4.747858342997064
 30
0.0
 10
19.69922823943283
 20
-4.747858342997064
 30
0.0
 10
19.69922823943283
 20
-5.217080348088091
 30
0.0
 10
19.69922823943283
 20
-5.217080348088091
 30
0.0
 10
19.69922823943283
 20
-5.217080348088091
 30
0.0
 10
19.2961520676586
 20
-5.217080348088091
 30
0.0
 10
19.2961520676586
 20
-5.217080348088091
 30
0.0
 10
19.2961520676586
 20
-5.217080348088091
 30
0.0
 10
19.2961520676586
 20
-4.747858342997064
 30
0.0
 10
19.2961520676586
 20
-4.747858342997064
 30
0.0
 10
19.2961520676586
 20
-4.220069714656788
 30
0.0
 10
19.55660128634349
 20
-3.955486381389601
 30
0.0
 10
20.07749972371327
 20
-3.954108343195501
 30
0.0
 10
20.59702012288894
 20
-3.954108343195501
 30
0.0
 10
20.85678032247678
 20
-4.218691676462688
 30
0.0
 10
20.85678032247678
 20
-4.747858342997064
 30
0.0
 10
20.85678032247678
 20
-4.747858342997064
 30
0.0
 10
20.85678032247678
 20
-5.419651962620781
 30
0.0
 10
20.85678032247678
 20
-5.419651962620781
 30
0.0
 10
20.85678032247678
 20
-5.691125486858469
 30
0.0
 10
20.70106200654348
 20
-5.906788464235109
 30
0.0
 10
20.3896253746769
 20
-6.066640894750702
 30
0.0
 10
20.70106200654348
 20
-6.225115287072193
 30
0.0
 10
20.85678032247678
 20
-6.424241806119634
 30
0.0
 10
20.85678032247678
 20
-6.664020451893023
 30
0.0
 10
20.85678032247678
 20
-6.664020451893023
 30
0.0
 10
20.85678032247678
 20
-7.36888698817514
 30
0.0
 10
20.85678032247678
 20
-7.36888698817514
 30
0.0
 10
20.85678032247678
 20
-7.898053654709515
 30
0.0
 10
20.59702012288894
 20
-8.162636987976702
 30
0.0
 10
20.07749972371327
 20
-8.162636987976702
 30
0.0
 10
19.55660128634349
 20
-8.161258949782603
 30
0.0
 10
19.2961520676586
 20
-7.896675616515415
 30
0.0
 10
19.2961520676586
 20
-7.36888698817514
 30
0.0
 10
19.2961520676586
 20
-7.36888698817514
 30
0.0
 10
19.2961520676586
 20
-6.899664983084111
 30
0.0
 10
19.2961520676586
 20
-6.899664983084111
 30
0.0
 10
19.2961520676586
 20
-6.899664983084111
 30
0.0
 10
19.69922823943283
 20
-6.899664983084111
 30
0.0
 10
19.69922823943283
 20
-6.899664983084111
 30
0.0
 10
19.69922823943283
 20
-6.899664983084111
 30
0.0
 10
19.69922823943283
 20
-7.36888698817514
 30
0.0
 10
19.69922823943283
 20
-7.36888698817514
 30
0.0
 10
19.69922823943283
 20
-7.633470321442327
 30
0.0
 10
19.82531873419298
 20
-7.765761988075921
 30
0.0
 10
20.07749972371327
 20
-7.765761988075921
 30
0.0
 10
20.32830267503945
 20
-7.765761988075921
 30
0.0
 10
20.45370415070255
 20
-7.633470321442327
 30
0.0
 10
20.45370415070255
 20
-7.36888698817514
 30
0.0
 10
20.45370415070255
 20
-7.36888698817514
 30
0.0
 10
20.45370415070255
 20
-6.664020451893023
 30
0.0
 10
20.45370415070255
 20
-6.664020451893023
 30
0.0
 10
20.45783826528485
 20
-6.406327309596335
 30
0.0
 10
20.32279052226305
 20
-6.270590547477491
 30
0.0
 10
20.04856092163716
 20
-6.256810165536492
 30
0.0
 10
20.04856092163716
 20
-6.256810165536492
 30
0.0
 10
19.85425753626907
 20
-6.256810165536492
 30
0.0
 10
19.85425753626907
 20
-6.256810165536492
 30
0.0
 10
19.85425753626907
 20
-6.256810165536492
 30
0.0
 10
19.85425753626907
 20
-5.859935165635711
 30
0.0
 10
19.85425753626907
 20
-5.859935165635711
 30
0.0
 10
19.85425753626907
 20
-5.859935165635711
 30
0.0
 10
20.05476209351061
 20
-5.859935165635711
 30
0.0
 10
20.05476209351061
 20
-5.859935165635711
 30
0.0
  0
HATCH
  5
65
330
60
100
AcDbEntity
  8
With Dials
 62
   250
420
  2301728
100
AcDbHatch
 10
0.0
 20
0.0
 30
0.0
210
0.0
220
0.0
230
1.0
  2
SOLID
 70
     1
 71
     0
 91
        1
 92
        1
 93
        1
 72
     4
 94
        3
 73
     0
 74
     1
 95
       80
 96
       76
 40
0.0
 40
0.0
 40
0.0
 40
0.0
 40
1.0
 40
1.0
 40
1.0
 40
2.0
 40
2.0
 40
2.0
 40
3.0
 40
3.0
 40
3.0
 40
4.0
 40
4.0
 40
4.0
 40
5.0
 40
5.0
 40
5.0
 40
6.0
 40
6.0
 40
6.0
 40
7.0
 40
7.0
 40
7.0
 40
8.0
 40
8.0
 40
8.0
 40
9.0
 40
9.0
 40
9.0
 40
10.0
 40
10.0
 40
10.0
 40
11.0
 40
11.0
 40
11.0
 40
12.0
 40
12.0
 40
12.0
 40
13.0
 40
13.0
 40
13.0
 40
14.0
 40
14.0
 40
14.0
 40
15.0
 40
15.0
 40
15.0
 40
16.0
 40
16.0
 40
16.0
 40
17.0
 40
17.0
 40
17.0
 40
18.0
 40
18.0
 40
18.0
 40
19.0
 40
19.0
 40
19.0
 40
20.0
 40
20.0
 40
20.0
 40
21.0
 40
21.0
 40
21.0
 40
22.0
 40
22.0
 40
22.0
 40
23.0
 40
23.0
 40
23.0
 40
24.0
 40
24.0
 40
24.0
 40
25.0
 40
25.0
 40
25.0
 40
25.0
 10
20.05476209351061
 20
-5.859935165635711
 10
20.3248575795542
 20
-5.818594019812713
 10
20.45783826528485
 20
-5.66494276117057
 10
20.45370415070255
 20
-5.398981389709283
 10
20.45370415070255
 20
-5.398981389709283
 10
20.45370415070255
 20
-4.747858342997064
 10
20.45370415070255
 20
-4.747858342997064
 10
20.45370415070255
 20
-4.483275009729875
 10
20.32830267503945
 20
-4.350983343096282
 10
20.07749972371327
 20
-4.350983343096282
 10
19.82531873419298
 20
-4.350983343096282
 10
19.69922823943283
 20
-4.483275009729875
 10
19.69922823943283
 20
-4.747858342997064
 10
19.69922823943283
 20
-4.747858342997064
 10
19.69922823943283
 20
-5.217080348088091
 10
19.69922823943283
 20
-5.217080348088091
 10
19.69922823943283
 20
-5.217080348088091
 10
19.2961520676586
 20
-5.217080348088091
 10
19.2961520676586
 20
-5.217080348088091
 10
19.2961520676586
 20
-5.217080348088091
 10
19.2961520676586
 20
-4.747858342997064
 10
19.2961520676586
 20
-4.747858342997064
 10
19.2961520676586
 20
-4.220069714656788
 10
19.55660128634349
 20
-3.955486381389601
 10
20.07749972371327
 20
-3.954108343195501
 10
20.59702012288894
 20
-3.954108343195501
 10
20.85678032247678
 20
-4.218691676462688
 10
20.85678032247678
 20
-4.747858342997064
 10
20.85678032247678
 20
-4.747858342997064
 10
20.85678032247678
 20
-5.419651962620781
 10
20.85678032247678
 20
-5.419651962620781
 10
20.85678032247678
 20
-5.691125486858469
 10
20.70106200654348
 20
-5.906788464235109
 10
20.3896253746769
 20
-6.066640894750702
 10
20.70106200654348
 20
-6.225115287072193
 10
20.85678032247678
 20
-6.424241806119634
 10
20.85678032247678
 20
-6.664020451893023
 10
20.85678032247678
 20
-6.664020451893023
 10
20.85678032247678
 20
-7.36888698817514
 10
20.85678032247678
 20
-7.36888698817514
 10
20.85678032247678
 20
-7.898053654709515
 10
20.59702012288894
 20
-8.162636987976702
 10
20.07749972371327
 20
-8.162636987976702
 10
19.55660128634349
 20
-8.161258949782603
 10
19.2961520676586
 20
-7.896675616515415
 10
19.2961520676586
 20
-7.36888698817514
 10
19.2961520676586
 20
-7.36888698817514
 10
19.2961520676586
 20
-6.899664983084111
 10
19.2961520676586
 20
-6.899664983084111
 10
19.2961520676586
 20
-6.899664983084111
 10
19.69922823943283
 20
-6.899664983084111
 10
19.69922823943283
 20
-6.899664983084111
 10
19.69922823943283
 20
-6.899664983084111
 10
19.69922823943283
 20
-7.36888698817514
 10
19.69922823943283
 20
-7.36888698817514
 10
19.69922823943283
 20
-7.633470321442327
 10
19.82531873419298
 20
-7.765761988075921
 10
20.07749972371327
 20
-7.765761988075921
 10
20.32830267503945
 20
-7.765761988075921
 10
20.45370415070255
 20
-7.633470321442327
 10
20.45370415070255
 20
-7.36888698817514
 10
20.45370415070255
 20
-7.36888698817514
 10
20.45370415070255
 20
-6.664020451893023
 10
20.45370415070255
 20
-6.664020451893023
 10
20.45783826528485
 20
-6.406327309596335
 10
20.32279052226305
 20
-6.270590547477491
 10
20.04856092163716
 20
-6.256810165536492
 10
20.04856092163716
 20
-6.256810165536492
 10
19.85425753626907
 20
-6.256810165536492
 10
19.85425753626907
 20
-6.256810165536492
 10
19.85425753626907
 20
-6.256810165536492
 10
19.85425753626907
 20
-5.859935165635711
 10
19.85425753626907
 20
-5.859935165635711
 10
19.85425753626907
 20
-5.859935165635711
 10
20.05476209351061
 20
-5.859935165635711
 10
20.05476209351061
 20
-5.859935165635711
 97
        0
 97
        0
 75
     2
 76
     1
 98
        0
  0
ENDBLK
  5
63
330
60
100
AcDbEntity
  8
0
100
AcDbBlockEnd
  0
BLOCK
  5
68
330
66
100
AcDbEntity
  8
0
100
AcDbBlockBegin
  2
block 6
 70
     0
 10
0.0
 20
0.0
 30
0.0
  3
block 6
  1

  0
POLYLINE
  5
6A
330
66
100
AcDbEntity
  8
With Dials
370
     0
100
AcDb2dPolyline
 66
     1
 10
0.0
 20
0.0
 30
0.0
  0
VERTEX
  5
6B
330
6A
100
AcDbEntity
  8
With Dials
370
     0
100
AcDbVertex
100
AcDb2dVertex
 10
27.99071179855788
 20
-4.024216036320335
 30
0.0
  0
VERTEX
  5
6C
330
6A
100
AcDbEntity
  8
With Dials
370
     0
100
AcDbVertex
100
AcDb2dVertex
 10
27.99071179855788
 20
-6.649378796080711
 30
0.0
  0
VERTEX
  5
6D
330
6A
100
AcDbEntity
  8
With Dials
370
     0
100
AcDbVertex
100
AcDb2dVertex
 10
28.22842338704012
 20
-6.649378796080711
 30
0.0
  0
VERTEX
  5
6E
330
6A
100
AcDbEntity
  8
With Dials
370
     0
100
AcDbVertex
100
AcDb2dVertex
 10
28.22842338704012
 20
-7.042119681399193
 30
0.0
  0
VERTEX
  5
6F
330
6A
100
AcDbEntity
  8
With Dials
370
     0
100
AcDbVertex
100
AcDb2dVertex
 10
27.99071179855788
 20
-7.042119681399193
 30
0.0
  0
VERTEX
  5
70
330
6A
100
AcDbEntity
  8
With Dials
370
     0
100
AcDbVertex
100
AcDb2dVertex
 10
27.99071179855788
 20
-8.092184785303344
 30
0.0
  0
VERTEX
  5
71
330
6A
100
AcDbEntity
  8
With Dials
370
     0
100
AcDbVertex
100
AcDb2dVertex
 10
27.58763562678365
 20
-8.092184785303344
 30
0.0
  0
VERTEX
  5
72
330
6A
100
AcDbEntity
  8
With Dials
370
     0
100
AcDbVertex
100
AcDb2dVertex
 10
27.58763562678365
 20
-7.042119681399193
 30
0.0
  0
VERTEX
  5
73
330
6A
100
AcDbEntity
  8
With Dials
370
     0
100
AcDbVertex
100
AcDb2dVertex
 10
26.33293185105566
 20
-7.042119681399193
 30
0.0
  0
VERTEX
  5
74
330
6A
100
AcDbEntity
  8
With Dials
370
     0
100
AcDbVertex
100
AcDb2dVertex
 10
26.33293185105566
 20
-6.628708223169212
 30
0.0
  0
VERTEX
  5
75
330
6A
100
AcDbEntity
  8
With Dials
370
     0
100
AcDbVertex
100
AcDb2dVertex
 10
27.38092989766866
 20
-4.024216036320335
 30
0.0
  0
VERTEX
  5
76
330
6A
100
AcDbEntity
  8
With Dials
370
     0
100
AcDbVertex
100
AcDb2dVertex
 10
27.99071179855788
 20
-4.024216036320335
 30
0.0
  0
SEQEND
  5
77
330
6A
100
AcDbEntity
  8
With Dials
370
     0
  0
POLYLINE
  5
78
330
66
100
AcDbEntity
  8
With Dials
370
     0
100
AcDb2dPolyline
 66
     1
 10
0.0
 20
0.0
 30
0.0
  0
VERTEX
  5
79
330
78
100
AcDbEntity
  8
With Dials
370
     0
100
AcDbVertex
100
AcDb2dVertex
 10
26.67606336138654
 20
-6.649378796080711
 30
0.0
  0
VERTEX
  5
7A
330
78
100
AcDbEntity
  8
With Dials
370
     0
100
AcDbVertex
100
AcDb2dVertex
 10
27.58763562678365
 20
-6.649378796080711
 30
0.0
  0
VERTEX
  5
7B
330
78
100
AcDbEntity
  8
With Dials
370
     0
100
AcDbVertex
100
AcDb2dVertex
 10
27.58763562678365
 20
-4.33840874457512
 30
0.0
  0
VERTEX
  5
7C
330
78
100
AcDbEntity
  8
With Dials
370
     0
100
AcDbVertex
100
AcDb2dVertex
 10
26.67606336138654
 20
-6.649378796080711
 30
0.0
  0
SEQEND
  5
7D
330
78
100
AcDbEntity
  8
With Dials
370
     0
  0
HATCH
  5
7E
330
66
100
AcDbEntity
  8
With Dials
 62
   250
420
  2301728
100
AcDbHatch
 10
0.0
 20
0.0
 30
0.0
210
0.0
220
0.0
230
1.0
  2
SOLID
 70
     1
 71
     0
 91
        2
 92
        1
 93
       11
 72
     1
 10
27.99071179855788
 20
-4.024216036320335
 11
27.99071179855788
 21
-6.649378796080711
 72
     1
 10
27.99071179855788
 20
-6.649378796080711
 11
28.22842338704012
 21
-6.649378796080711
 72
     1
 10
28.22842338704012
 20
-6.649378796080711
 11
28.22842338704012
 21
-7.042119681399193
 72
     1
 10
28.22842338704012
 20
-7.042119681399193
 11
27.99071179855788
 21
-7.042119681399193
 72
     1
 10
27.99071179855788
 20
-7.042119681399193
 11
27.99071179855788
 21
-8.092184785303344
 72
     1
 10
27.99071179855788
 20
-8.092184785303344
 11
27.58763562678365
 21
-8.092184785303344
 72
     1
 10
27.58763562678365
 20
-8.092184785303344
 11
27.58763562678365
 21
-7.042119681399193
 72
     1
 10
27.58763562678365
 20
-7.042119681399193
 11
26.33293185105566
 21
-7.042119681399193
 72
     1
 10
26.33293185105566
 20
-7.042119681399193
 11
26.33293185105566
 21
-6.628708223169212
 72
     1
 10
26.33293185105566
 20
-6.628708223169212
 11
27.38092989766866
 21
-4.024216036320335
 72
     1
 10
27.38092989766866
 20
-4.024216036320335
 11
27.99071179855788
 21
-4.024216036320335
 97
        0
 92
        1
 93
        3
 72
     1
 10
26.67606336138654
 20
-6.649378796080711
 11
27.58763562678365
 21
-6.649378796080711
 72
     1
 10
27.58763562678365
 20
-6.649378796080711
 11
27.58763562678365
 21
-4.33840874457512
 72
     1
 10
27.58763562678365
 20
-4.33840874457512
 11
26.67606336138654
 21
-6.649378796080711
 97
        0
 75
     2
 76
     1
 98
        0
  0
ENDBLK
  5
69
330
66
100
AcDbEntity
  8
0
100
AcDbBlockEnd
  0
BLOCK
  5
81
330
7F
100
AcDbEntity
  8
0
100
AcDbBlockBegin
  2
block 7
 70
     0
 10
0.0
 20
0.0
 30
0.0
  3
block 7
  1

  0
SPLINE
  5
83
330
7F
100
AcDbEntity
  8
With Dials
370
     0
100
AcDbSpline
210
0.0
220
0.0
230
1.0
 70
    11
 71
     3
 72
    77
 73
    73
 74
     0
 42
0.0000000001
 43
0.0000000001
 12
1.0
 22
0.0
 32
0.0
 13
1.0
 23
0.0
 33
0.0
 40
0.0
 40
0.0
 40
0.0
 40
0.0
 40
1.0
 40
1.0
 40
1.0
 40
2.0
 40
2.0
 40
2.0
 40
3.0
 40
3.0
 40
3.0
 40
4.0
 40
4.0
 40
4.0
 40
5.0
 40
5.0
 40
5.0
 40
6.0
 40
6.0
 40
6.0
 40
7.0
 40
7.0
 40
7.0
 40
8.0
 40
8.0
 40
8.0
 40
9.0
 40
9.0
 40
9.0
 40
10.0
 40
10.0
 40
10.0
 40
11.0
 40
11.0
 40
11.0
 40
12.0
 40
12.0
 40
12.0
 40
13.0
 40
13.0
 40
13.0
 40
14.0
 40
14.0
 40
14.0
 40
15.0
 40
15.0
 40
15.0
 40
16.0
 40
16.0
 40
16.0
 40
17.0
 40
17.0
 40
17.0
 40
18.0
 40
18.0
 40
18.0
 40
19.0
 40
19.0
 40
19.0
 40
20.0
 40
20.0
 40
20.0
 40
21.0
 40
21.0
 40
21.0
 40
22.0
 40
22.0
 40
22.0
 40
23.0
 40
23.0
 40
23.0
 40
24.0
 40
24.0
 40
24.0
 40
24.0
 10
34.86832817053639
 20
-6.151217988913585
 30
0.0
 10
34.86832817053639
 20
-5.952780488963194
 30
0.0
 10
34.8145846809665
 20
-5.830824108785349
 30
0.0
 10
34.7070977018267
 20
-5.785348848380052
 30
0.0
 10
34.6616224414214
 20
-5.761922199080353
 30
0.0
 10
34.5913424935223
 20
-5.750208874430504
 30
0.0
 10
34.49625785812941
 20
-5.750208874430504
 30
0.0
 10
34.47420924702381
 20
-5.750208874430504
 30
0.0
 10
34.45284965501526
 20
-5.750897893527553
 30
0.0
 10
34.43217908210377
 20
-5.752275931721654
 30
0.0
 10
34.24890000228847
 20
-5.760544160886253
 30
0.0
 10
34.14485811863393
 20
-5.848738605308649
 30
0.0
 10
34.12005343114013
 20
-6.016859264988841
 30
0.0
 10
34.12005343114013
 20
-6.016859264988841
 30
0.0
 10
34.11798637384898
 20
-6.093340384761388
 30
0.0
 10
34.11798637384898
 20
-6.093340384761388
 30
0.0
 10
34.11798637384898
 20
-6.093340384761388
 30
0.0
 10
33.71491020207475
 20
-6.093340384761388
 30
0.0
 10
33.71491020207475
 20
-6.093340384761388
 30
0.0
 10
33.71491020207475
 20
-6.093340384761388
 30
0.0
 10
33.79759249372074
 20
-4.020081921738035
 30
0.0
 10
33.79759249372074
 20
-4.020081921738035
 30
0.0
 10
33.79759249372074
 20
-4.020081921738035
 30
0.0
 10
35.27140434231062
 20
-4.020081921738035
 30
0.0
 10
35.27140434231062
 20
-4.020081921738035
 30
0.0
 10
35.27140434231062
 20
-4.020081921738035
 30
0.0
 10
35.27140434231062
 20
-4.414889864347667
 30
0.0
 10
35.27140434231062
 20
-4.414889864347667
 30
0.0
 10
35.27140434231062
 20
-4.414889864347667
 30
0.0
 10
34.18619926445692
 20
-4.414889864347667
 30
0.0
 10
34.18619926445692
 20
-4.414889864347667
 30
0.0
 10
34.18619926445692
 20
-4.414889864347667
 30
0.0
 10
34.13038871759588
 20
-5.688197155696007
 30
0.0
 10
34.13038871759588
 20
-5.688197155696007
 30
0.0
 10
34.31504583560527
 20
-5.484247502969216
 30
0.0
 10
34.49694687722646
 20
-5.378138562023521
 30
0.0
 10
34.67609184245945
 20
-5.369870332858921
 30
0.0
 10
34.69262830078865
 20
-5.369870332858921
 30
0.0
 10
34.71329887370015
 20
-5.371937390150071
 30
0.0
 10
34.73810356119395
 20
-5.376071504732371
 30
0.0
 10
34.92276067920334
 20
-5.391229924867471
 30
0.0
 10
35.06194253680744
 20
-5.462887910960667
 30
0.0
 10
35.15564913400623
 20
-5.591045463011961
 30
0.0
 10
35.23281927287582
 20
-5.698532442151756
 30
0.0
 10
35.27140434231062
 20
-5.885256617452297
 30
0.0
 10
35.27140434231062
 20
-6.151217988913585
 30
0.0
 10
35.27140434231062
 20
-6.151217988913585
 30
0.0
 10
35.27140434231062
 20
-7.368714733400878
 30
0.0
 10
35.27140434231062
 20
-7.368714733400878
 30
0.0
 10
35.27140434231062
 20
-7.896503361741153
 30
0.0
 10
35.01095512362573
 20
-8.16039767591129
 30
0.0
 10
34.49005668625596
 20
-8.16039767591129
 30
0.0
 10
33.97053628708029
 20
-8.16039767591129
 30
0.0
 10
33.71077608749245
 20
-7.896503361741153
 30
0.0
 10
33.71077608749245
 20
-7.368714733400878
 30
0.0
 10
33.71077608749245
 20
-7.368714733400878
 30
0.0
 10
33.71077608749245
 20
-6.967705618917796
 30
0.0
 10
33.71077608749245
 20
-6.967705618917796
 30
0.0
 10
33.71077608749245
 20
-6.967705618917796
 30
0.0
 10
34.11385225926668
 20
-6.967705618917796
 30
0.0
 10
34.11385225926668
 20
-6.967705618917796
 30
0.0
 10
34.11385225926668
 20
-6.967705618917796
 30
0.0
 10
34.11385225926668
 20
-7.368714733400878
 30
0.0
 10
34.11385225926668
 20
-7.368714733400878
 30
0.0
 10
34.11385225926668
 20
-7.633298066668065
 30
0.0
 10
34.23925373492977
 20
-7.765589733301659
 30
0.0
 10
34.49005668625596
 20
-7.765589733301659
 30
0.0
 10
34.74223767577624
 20
-7.765589733301659
 30
0.0
 10
34.86832817053639
 20
-7.633298066668065
 30
0.0
 10
34.86832817053639
 20
-7.368714733400878
 30
0.0
 10
34.86832817053639
 20
-7.368714733400878
 30
0.0
 10
34.86832817053639
 20
-6.151217988913585
 30
0.0
 10
34.86832817053639
 20
-6.151217988913585
 30
0.0
  0
HATCH
  5
84
330
7F
100
AcDbEntity
  8
With Dials
 62
   250
420
  2301728
100
AcDbHatch
 10
0.0
 20
0.0
 30
0.0
210
0.0
220
0.0
230
1.0
  2
SOLID
 70
     1
 71
     0
 91
        1
 92
        1
 93
        1
 72
     4
 94
        3
 73
     0
 74
     1
 95
       77
 96
       73
 40
0.0
 40
0.0
 40
0.0
 40
0.0
 40
1.0
 40
1.0
 40
1.0
 40
2.0
 40
2.0
 40
2.0
 40
3.0
 40
3.0
 40
3.0
 40
4.0
 40
4.0
 40
4.0
 40
5.0
 40
5.0
 40
5.0
 40
6.0
 40
6.0
 40
6.0
 40
7.0
 40
7.0
 40
7.0
 40
8.0
 40
8.0
 40
8.0
 40
9.0
 40
9.0
 40
9.0
 40
10.0
 40
10.0
 40
10.0
 40
11.0
 40
11.0
 40
11.0
 40
12.0
 40
12.0
 40
12.0
 40
13.0
 40
13.0
 40
13.0
 40
14.0
 40
14.0
 40
14.0
 40
15.0
 40
15.0
 40
15.0
 40
16.0
 40
16.0
 40
16.0
 40
17.0
 40
17.0
 40
17.0
 40
18.0
 40
18.0
 40
18.0
 40
19.0
 40
19.0
 40
19.0
 40
20.0
 40
20.0
 40
20.0
 40
21.0
 40
21.0
 40
21.0
 40
22.0
 40
22.0
 40
22.0
 40
23.0
 40
23.0
 40
23.0
 40
24.0
 40
24.0
 40
24.0
 40
24.0
 10
34.86832817053639
 20
-6.151217988913585
 10
34.86832817053639
 20
-5.952780488963194
 10
34.8145846809665
 20
-5.830824108785349
 10
34.7070977018267
 20
-5.785348848380052
 10
34.6616224414214
 20
-5.761922199080353
 10
34.5913424935223
 20
-5.750208874430504
 10
34.49625785812941
 20
-5.750208874430504
 10
34.47420924702381
 20
-5.750208874430504
 10
34.45284965501526
 20
-5.750897893527553
 10
34.43217908210377
 20
-5.752275931721654
 10
34.24890000228847
 20
-5.760544160886253
 10
34.14485811863393
 20
-5.848738605308649
 10
34.12005343114013
 20
-6.016859264988841
 10
34.12005343114013
 20
-6.016859264988841
 10
34.11798637384898
 20
-6.093340384761388
 10
34.11798637384898
 20
-6.093340384761388
 10
34.11798637384898
 20
-6.093340384761388
 10
33.71491020207475
 20
-6.093340384761388
 10
33.71491020207475
 20
-6.093340384761388
 10
33.71491020207475
 20
-6.093340384761388
 10
33.79759249372074
 20
-4.020081921738035
 10
33.79759249372074
 20
-4.020081921738035
 10
33.79759249372074
 20
-4.020081921738035
 10
35.27140434231062
 20
-4.020081921738035
 10
35.27140434231062
 20
-4.020081921738035
 10
35.27140434231062
 20
-4.020081921738035
 10
35.27140434231062
 20
-4.414889864347667
 10
35.27140434231062
 20
-4.414889864347667
 10
35.27140434231062
 20
-4.414889864347667
 10
34.18619926445692
 20
-4.414889864347667
 10
34.18619926445692
 20
-4.414889864347667
 10
34.18619926445692
 20
-4.414889864347667
 10
34.13038871759588
 20
-5.688197155696007
 10
34.13038871759588
 20
-5.688197155696007
 10
34.31504583560527
 20
-5.484247502969216
 10
34.49694687722646
 20
-5.378138562023521
 10
34.67609184245945
 20
-5.369870332858921
 10
34.69262830078865
 20
-5.369870332858921
 10
34.71329887370015
 20
-5.371937390150071
 10
34.73810356119395
 20
-5.376071504732371
 10
34.92276067920334
 20
-5.391229924867471
 10
35.06194253680744
 20
-5.462887910960667
 10
35.15564913400623
 20
-5.591045463011961
 10
35.23281927287582
 20
-5.698532442151756
 10
35.27140434231062
 20
-5.885256617452297
 10
35.27140434231062
 20
-6.151217988913585
 10
35.27140434231062
 20
-6.151217988913585
 10
35.27140434231062
 20
-7.368714733400878
 10
35.27140434231062
 20
-7.368714733400878
 10
35.27140434231062
 20
-7.896503361741153
 10
35.01095512362573
 20
-8.16039767591129
 10
34.49005668625596
 20
-8.16039767591129
 10
33.97053628708029
 20
-8.16039767591129
 10
33.71077608749245
 20
-7.896503361741153
 10
33.71077608749245
 20
-7.368714733400878
 10
33.71077608749245
 20
-7.368714733400878
 10
33.71077608749245
 20
-6.967705618917796
 10
33.71077608749245
 20
-6.967705618917796
 10
33.71077608749245
 20
-6.967705618917796
 10
34.11385225926668
 20
-6.967705618917796
 10
34.11385225926668
 20
-6.967705618917796
 10
34.11385225926668
 20
-6.967705618917796
 10
34.11385225926668
 20
-7.368714733400878
 10
34.11385225926668
 20
-7.368714733400878
 10
34.11385225926668
 20
-7.633298066668065
 10
34.23925373492977
 20
-7.765589733301659
 10
34.49005668625596
 20
-7.765589733301659
 10
34.74223767577624
 20
-7.765589733301659
 10
34.86832817053639
 20
-7.633298066668065
 10
34.86832817053639
 20
-7.368714733400878
 10
34.86832817053639
 20
-7.368714733400878
 10
34.86832817053639
 20
-6.151217988913585
 10
34.86832817053639
 20
-6.151217988913585
 97
        0
 97
        0
 75
     2
 76
     1
 98
        0
  0
ENDBLK
  5
82
330
7F
100
AcDbEntity
  8
0
100
AcDbBlockEnd
  0
BLOCK
  5
87
330
85
100
AcDbEntity
  8
0
100
AcDbBlockBegin
  2
block 8
 70
     0
 10
0.0
 20
0.0
 30
0.0
  3
block 8
  1

  0
SPLINE
  5
89
330
85
100
AcDbEntity
  8
With Dials
370
     0
100
AcDbSpline
210
0.0
220
0.0
230
1.0
 70
    11
 71
     3
 72
    56
 73
    52
 74
     0
 42
0.0000000001
 43
0.0000000001
 12
1.0
 22
0.0
 32
0.0
 13
1.0
 23
0.0
 33
0.0
 40
0.0
 40
0.0
 40
0.0
 40
0.0
 40
1.0
 40
1.0
 40
1.0
 40
2.0
 40
2.0
 40
2.0
 40
3.0
 40
3.0
 40
3.0
 40
4.0
 40
4.0
 40
4.0
 40
5.0
 40
5.0
 40
5.0
 40
6.0
 40
6.0
 40
6.0
 40
7.0
 40
7.0
 40
7.0
 40
8.0
 40
8.0
 40
8.0
 40
9.0
 40
9.0
 40
9.0
 40
10.0
 40
10.0
 40
10.0
 40
11.0
 40
11.0
 40
11.0
 40
12.0
 40
12.0
 40
12.0
 40
13.0
 40
13.0
 40
13.0
 40
14.0
 40
14.0
 40
14.0
 40
15.0
 40
15.0
 40
15.0
 40
16.0
 40
16.0
 40
16.0
 40
17.0
 40
17.0
 40
17.0
 40
17.0
 10
42.46941459441737
 20
-7.368542478626614
 30
0.0
 10
42.46941459441737
 20
-7.89633110696689
 30
0.0
 10
42.20896537573248
 20
-8.160225421137028
 30
0.0
 10
41.68806693836271
 20
-8.160225421137028
 30
0.0
 10
41.16854653918703
 20
-8.160225421137028
 30
0.0
 10
40.9087863395992
 20
-7.89633110696689
 30
0.0
 10
40.9087863395992
 20
-7.368542478626614
 30
0.0
 10
40.9087863395992
 20
-7.368542478626614
 30
0.0
 10
40.9087863395992
 20
-4.747513833448538
 30
0.0
 10
40.9087863395992
 20
-4.747513833448538
 30
0.0
 10
40.9087863395992
 20
-4.218347166914163
 30
0.0
 10
41.16854653918703
 20
-3.953763833646976
 30
0.0
 10
41.68806693836271
 20
-3.953763833646976
 30
0.0
 10
42.20896537573248
 20
-3.953763833646976
 30
0.0
 10
42.46941459441737
 20
-4.218347166914163
 30
0.0
 10
42.46941459441737
 20
-4.747513833448538
 30
0.0
 10
42.46941459441737
 20
-4.747513833448538
 30
0.0
 10
42.46941459441737
 20
-5.214668781248417
 30
0.0
 10
42.46941459441737
 20
-5.214668781248417
 30
0.0
 10
42.46941459441737
 20
-5.214668781248417
 30
0.0
 10
42.06633842264314
 20
-5.214668781248417
 30
0.0
 10
42.06633842264314
 20
-5.214668781248417
 30
0.0
 10
42.06633842264314
 20
-5.214668781248417
 30
0.0
 10
42.06633842264314
 20
-4.747513833448538
 30
0.0
 10
42.06633842264314
 20
-4.747513833448538
 30
0.0
 10
42.06633842264314
 20
-4.482930500181351
 30
0.0
 10
41.94093694698005
 20
-4.350638833547757
 30
0.0
 10
41.69013399565386
 20
-4.350638833547757
 30
0.0
 10
41.69013399565386
 20
-4.350638833547757
 30
0.0
 10
41.68599988107156
 20
-4.350638833547757
 30
0.0
 10
41.68599988107156
 20
-4.350638833547757
 30
0.0
 10
41.43657496793947
 20
-4.350638833547757
 30
0.0
 10
41.31186251137343
 20
-4.482930500181351
 30
0.0
 10
41.31186251137343
 20
-4.747513833448538
 30
0.0
 10
41.31186251137343
 20
-4.747513833448538
 30
0.0
 10
41.31186251137343
 20
-6.031156411252628
 30
0.0
 10
41.31186251137343
 20
-6.031156411252628
 30
0.0
 10
41.52683646965301
 20
-5.838231064078637
 30
0.0
 10
41.70460339669191
 20
-5.741768390491641
 30
0.0
 10
41.8451632924901
 20
-5.741768390491641
 30
0.0
 10
41.8727240563721
 20
-5.741768390491641
 30
0.0
 10
41.90097383935115
 20
-5.743146428685741
 30
0.0
 10
41.92991264142724
 20
-5.745902505073941
 30
0.0
 10
42.10078937749564
 20
-5.76381700159724
 30
0.0
 10
42.23239202503218
 20
-5.823072643943537
 30
0.0
 10
42.32472058403687
 20
-5.923669432112833
 30
0.0
 10
42.42118325762387
 20
-6.027022296670328
 30
0.0
 10
42.46941459441737
 20
-6.224770777523669
 30
0.0
 10
42.46941459441737
 20
-6.516914874672855
 30
0.0
 10
42.46941459441737
 20
-6.516914874672855
 30
0.0
 10
42.46941459441737
 20
-7.368542478626614
 30
0.0
 10
42.46941459441737
 20
-7.368542478626614
 30
0.0
  0
SPLINE
  5
8A
330
85
100
AcDbEntity
  8
With Dials
370
     0
100
AcDbSpline
210
0.0
220
0.0
230
1.0
 70
    11
 71
     3
 72
    29
 73
    25
 74
     0
 42
0.0000000001
 43
0.0000000001
 12
1.0
 22
0.0
 32
0.0
 13
1.0
 23
0.0
 33
0.0
 40
0.0
 40
0.0
 40
0.0
 40
0.0
 40
1.0
 40
1.0
 40
1.0
 40
2.0
 40
2.0
 40
2.0
 40
3.0
 40
3.0
 40
3.0
 40
4.0
 40
4.0
 40
4.0
 40
5.0
 40
5.0
 40
5.0
 40
6.0
 40
6.0
 40
6.0
 40
7.0
 40
7.0
 40
7.0
 40
8.0
 40
8.0
 40
8.0
 40
8.0
 10
41.31186251137343
 20
-7.368542478626614
 30
0.0
 10
41.31186251137343
 20
-7.633125811893803
 30
0.0
 10
41.43726398703652
 20
-7.765417478527396
 30
0.0
 10
41.68806693836271
 20
-7.765417478527396
 30
0.0
 10
41.94024792788299
 20
-7.765417478527396
 30
0.0
 10
42.06633842264314
 20
-7.633125811893803
 30
0.0
 10
42.06633842264314
 20
-7.368542478626614
 30
0.0
 10
42.06633842264314
 20
-7.368542478626614
 30
0.0
 10
42.06633842264314
 20
-6.516914874672855
 30
0.0
 10
42.06633842264314
 20
-6.516914874672855
 30
0.0
 10
42.06633842264314
 20
-6.317099336528364
 30
0.0
 10
42.01259493307325
 20
-6.19445393725347
 30
0.0
 10
41.90510795393345
 20
-6.148978676848173
 30
0.0
 10
41.85825465533405
 20
-6.128308103936673
 30
0.0
 10
41.78797470743496
 20
-6.117972817480924
 30
0.0
 10
41.69426811023616
 20
-6.117972817480924
 30
0.0
 10
41.67221949913056
 20
-6.117972817480924
 30
0.0
 10
41.65085990712201
 20
-6.118661836577973
 30
0.0
 10
41.63018933421051
 20
-6.120039874772074
 30
0.0
 10
41.41797145231912
 20
-6.128308103936673
 30
0.0
 10
41.31186251137343
 20
-6.260599770570267
 30
0.0
 10
41.31186251137343
 20
-6.516914874672855
 30
0.0
 10
41.31186251137343
 20
-6.516914874672855
 30
0.0
 10
41.31186251137343
 20
-7.368542478626614
 30
0.0
 10
41.31186251137343
 20
-7.368542478626614
 30
0.0
  0
HATCH
  5
8B
330
85
100
AcDbEntity
  8
With Dials
 62
   250
420
  2301728
100
AcDbHatch
 10
0.0
 20
0.0
 30
0.0
210
0.0
220
0.0
230
1.0
  2
SOLID
 70
     1
 71
     0
 91
        2
 92
        1
 93
        1
 72
     4
 94
        3
 73
     0
 74
     1
 95
       56
 96
       52
 40
0.0
 40
0.0
 40
0.0
 40
0.0
 40
1.0
 40
1.0
 40
1.0
 40
2.0
 40
2.0
 40
2.0
 40
3.0
 40
3.0
 40
3.0
 40
4.0
 40
4.0
 40
4.0
 40
5.0
 40
5.0
 40
5.0
 40
6.0
 40
6.0
 40
6.0
 40
7.0
 40
7.0
 40
7.0
 40
8.0
 40
8.0
 40
8.0
 40
9.0
 40
9.0
 40
9.0
 40
10.0
 40
10.0
 40
10.0
 40
11.0
 40
11.0
 40
11.0
 40
12.0
 40
12.0
 40
12.0
 40
13.0
 40
13.0
 40
13.0
 40
14.0
 40
14.0
 40
14.0
 40
15.0
 40
15.0
 40
15.0
 40
16.0
 40
16.0
 40
16.0
 40
17.0
 40
17.0
 40
17.0
 40
17.0
 10
42.46941459441737
 20
-7.368542478626614
 10
42.46941459441737
 20
-7.89633110696689
 10
42.20896537573248
 20
-8.160225421137028
 10
41.68806693836271
 20
-8.160225421137028
 10
41.16854653918703
 20
-8.160225421137028
 10
40.9087863395992
 20
-7.89633110696689
 10
40.9087863395992
 20
-7.368542478626614
 10
40.9087863395992
 20
-7.368542478626614
 10
40.9087863395992
 20
-4.747513833448538
 10
40.9087863395992
 20
-4.747513833448538
 10
40.9087863395992
 20
-4.218347166914163
 10
41.16854653918703
 20
-3.953763833646976
 10
41.68806693836271
 20
-3.953763833646976
 10
42.20896537573248
 20
-3.953763833646976
 10
42.46941459441737
 20
-4.218347166914163
 10
42.46941459441737
 20
-4.747513833448538
 10
42.46941459441737
 20
-4.747513833448538
 10
42.46941459441737
 20
-5.214668781248417
 10
42.46941459441737
 20
-5.214668781248417
 10
42.46941459441737
 20
-5.214668781248417
 10
42.06633842264314
 20
-5.214668781248417
 10
42.06633842264314
 20
-5.214668781248417
 10
42.06633842264314
 20
-5.214668781248417
 10
42.06633842264314
 20
-4.747513833448538
 10
42.06633842264314
 20
-4.747513833448538
 10
42.06633842264314
 20
-4.482930500181351
 10
41.94093694698005
 20
-4.350638833547757
 10
41.69013399565386
 20
-4.350638833547757
 10
41.69013399565386
 20
-4.350638833547757
 10
41.68599988107156
 20
-4.350638833547757
 10
41.68599988107156
 20
-4.350638833547757
 10
41.43657496793947
 20
-4.350638833547757
 10
41.31186251137343
 20
-4.482930500181351
 10
41.31186251137343
 20
-4.747513833448538
 10
41.31186251137343
 20
-4.747513833448538
 10
41.31186251137343
 20
-6.031156411252628
 10
41.31186251137343
 20
-6.031156411252628
 10
41.52683646965301
 20
-5.838231064078637
 10
41.70460339669191
 20
-5.741768390491641
 10
41.8451632924901
 20
-5.741768390491641
 10
41.8727240563721
 20
-5.741768390491641
 10
41.90097383935115
 20
-5.743146428685741
 10
41.92991264142724
 20
-5.745902505073941
 10
42.10078937749564
 20
-5.76381700159724
 10
42.23239202503218
 20
-5.823072643943537
 10
42.32472058403687
 20
-5.923669432112833
 10
42.42118325762387
 20
-6.027022296670328
 10
42.46941459441737
 20
-6.224770777523669
 10
42.46941459441737
 20
-6.516914874672855
 10
42.46941459441737
 20
-6.516914874672855
 10
42.46941459441737
 20
-7.368542478626614
 10
42.46941459441737
 20
-7.368542478626614
 97
        0
 97
        0
 92
        1
 93
        1
 72
     4
 94
        3
 73
     0
 74
     1
 95
       29
 96
       25
 40
0.0
 40
0.0
 40
0.0
 40
0.0
 40
1.0
 40
1.0
 40
1.0
 40
2.0
 40
2.0
 40
2.0
 40
3.0
 40
3.0
 40
3.0
 40
4.0
 40
4.0
 40
4.0
 40
5.0
 40
5.0
 40
5.0
 40
6.0
 40
6.0
 40
6.0
 40
7.0
 40
7.0
 40
7.0
 40
8.0
 40
8.0
 40
8.0
 40
8.0
 10
41.31186251137343
 20
-7.368542478626614
 10
41.31186251137343
 20
-7.633125811893803
 10
41.43726398703652
 20
-7.765417478527396
 10
41.68806693836271
 20
-7.765417478527396
 10
41.94024792788299
 20
-7.765417478527396
 10
42.06633842264314
 20
-7.633125811893803
 10
42.06633842264314
 20
-7.368542478626614
 10
42.06633842264314
 20
-7.368542478626614
 10
42.06633842264314
 20
-6.516914874672855
 10
42.06633842264314
 20
-6.516914874672855
 10
42.06633842264314
 20
-6.317099336528364
 10
42.01259493307325
 20
-6.19445393725347
 10
41.90510795393345
 20
-6.148978676848173
 10
41.85825465533405
 20
-6.128308103936673
 10
41.78797470743496
 20
-6.117972817480924
 10
41.69426811023616
 20
-6.117972817480924
 10
41.67221949913056
 20
-6.117972817480924
 10
41.65085990712201
 20
-6.118661836577973
 10
41.63018933421051
 20
-6.120039874772074
 10
41.41797145231912
 20
-6.128308103936673
 10
41.31186251137343
 20
-6.260599770570267
 10
41.31186251137343
 20
-6.516914874672855
 10
41.31186251137343
 20
-6.516914874672855
 10
41.31186251137343
 20
-7.368542478626614
 10
41.31186251137343
 20
-7.368542478626614
 97
        0
 97
        0
 75
     2
 76
     1
 98
        0
  0
ENDBLK
  5
88
330
85
100
AcDbEntity
  8
0
100
AcDbBlockEnd
  0
BLOCK
  5
8E
330
8C
100
AcDbEntity
  8
0
100
AcDbBlockBegin
  2
block 9
 70
     0
 10
0.0
 20
0.0
 30
0.0
  3
block 9
  1

  0
POLYLINE
  5
90
330
8C
100
AcDbEntity
  8
With Dials
370
     0
100
AcDb2dPolyline
 66
     1
 10
0.0
 20
0.0
 30
0.0
  0
VERTEX
  5
91
330
90
100
AcDbEntity
  8
With Dials
370
     0
100
AcDbVertex
100
AcDb2dVertex
 10
48.08836533085986
 20
-4.417129176413079
 30
0.0
  0
VERTEX
  5
92
330
90
100
AcDbEntity
  8
With Dials
370
     0
100
AcDbVertex
100
AcDb2dVertex
 10
48.08836533085986
 20
-4.024388291094597
 30
0.0
  0
VERTEX
  5
93
330
90
100
AcDbEntity
  8
With Dials
370
     0
100
AcDbVertex
100
AcDb2dVertex
 10
49.70067001795678
 20
-4.024388291094597
 30
0.0
  0
VERTEX
  5
94
330
90
100
AcDbEntity
  8
With Dials
370
     0
100
AcDbVertex
100
AcDb2dVertex
 10
49.70067001795678
 20
-4.344782171222833
 30
0.0
  0
VERTEX
  5
95
330
90
100
AcDbEntity
  8
With Dials
370
     0
100
AcDbVertex
100
AcDb2dVertex
 10
48.85731064316762
 20
-8.092357040077605
 30
0.0
  0
VERTEX
  5
96
330
90
100
AcDbEntity
  8
With Dials
370
     0
100
AcDbVertex
100
AcDb2dVertex
 10
48.44389918493764
 20
-8.092357040077605
 30
0.0
  0
VERTEX
  5
97
330
90
100
AcDbEntity
  8
With Dials
370
     0
100
AcDbVertex
100
AcDb2dVertex
 10
49.26865504410645
 20
-4.417129176413079
 30
0.0
  0
VERTEX
  5
98
330
90
100
AcDbEntity
  8
With Dials
370
     0
100
AcDbVertex
100
AcDb2dVertex
 10
48.08836533085986
 20
-4.417129176413079
 30
0.0
  0
SEQEND
  5
99
330
90
100
AcDbEntity
  8
With Dials
370
     0
  0
HATCH
  5
9A
330
8C
100
AcDbEntity
  8
With Dials
 62
   250
420
  2301728
100
AcDbHatch
 10
0.0
 20
0.0
 30
0.0
210
0.0
220
0.0
230
1.0
  2
SOLID
 70
     1
 71
     0
 91
        1
 92
        1
 93
        7
 72
     1
 10
48.08836533085986
 20
-4.417129176413079
 11
48.08836533085986
 21
-4.024388291094597
 72
     1
 10
48.08836533085986
 20
-4.024388291094597
 11
49.70067001795678
 21
-4.024388291094597
 72
     1
 10
49.70067001795678
 20
-4.024388291094597
 11
49.70067001795678
 21
-4.344782171222833
 72
     1
 10
49.70067001795678
 20
-4.344782171222833
 11
48.85731064316762
 21
-8.092357040077605
 72
     1
 10
48.85731064316762
 20
-8.092357040077605
 11
48.44389918493764
 21
-8.092357040077605
 72
     1
 10
48.44389918493764
 20
-8.092357040077605
 11
49.26865504410645
 21
-4.417129176413079
 72
     1
 10
49.26865504410645
 20
-4.417129176413079
 11
48.08836533085986
 21
-4.417129176413079
 97
        0
 75
     2
 76
     1
 98
        0
  0
ENDBLK
  5
8F
330
8C
100
AcDbEntity
  8
0
100
AcDbBlockEnd
  0
BLOCK
  5
9D
330
9B
100
AcDbEntity
  8
0
100
AcDbBlockBegin
  2
block 10
 70
     0
 10
0.0
 20
0.0
 30
0.0
  3
block 10
  1

  0
SPLINE
  5
9F
330
9B
100
AcDbEntity
  8
With Dials
370
     0
100
AcDbSpline
210
0.0
220
0.0
230
1.0
 70
    11
 71
     3
 72
    41
 73
    37
 74
     0
 42
0.0000000001
 43
0.0000000001
 12
1.0
 22
0.0
 32
0.0
 13
1.0
 23
0.0
 33
0.0
 40
0.0
 40
0.0
 40
0.0
 40
0.0
 40
1.0
 40
1.0
 40
1.0
 40
2.0
 40
2.0
 40
2.0
 40
3.0
 40
3.0
 40
3.0
 40
4.0
 40
4.0
 40
4.0
 40
5.0
 40
5.0
 40
5.0
 40
6.0
 40
6.0
 40
6.0
 40
7.0
 40
7.0
 40
7.0
 40
8.0
 40
8.0
 40
8.0
 40
9.0
 40
9.0
 40
9.0
 40
10.0
 40
10.0
 40
10.0
 40
11.0
 40
11.0
 40
11.0
 40
12.0
 40
12.0
 40
12.0
 40
12.0
 10
55.30721841065237
 20
-4.748030597771326
 30
0.0
 10
55.30721841065237
 20
-4.220241969431051
 30
0.0
 10
55.56766762933725
 20
-3.955658636163863
 30
0.0
 10
56.08856606670703
 20
-3.954280597969763
 30
0.0
 10
56.6080864658827
 20
-3.954280597969763
 30
0.0
 10
56.86784666547054
 20
-4.21886393123695
 30
0.0
 10
56.86784666547054
 20
-4.748030597771326
 30
0.0
 10
56.86784666547054
 20
-4.748030597771326
 30
0.0
 10
56.86784666547054
 20
-5.469433592382642
 30
0.0
 10
56.86784666547054
 20
-5.469433592382642
 30
0.0
 10
56.86784666547054
 20
-5.707834199961931
 30
0.0
 10
56.71212834953725
 20
-5.906960719009371
 30
0.0
 10
56.40069171767066
 20
-6.066813149524964
 30
0.0
 10
56.71212834953725
 20
-6.225287541846456
 30
0.0
 10
56.86784666547054
 20
-6.424414060893897
 30
0.0
 10
56.86784666547054
 20
-6.664192706667285
 30
0.0
 10
56.86784666547054
 20
-6.664192706667285
 30
0.0
 10
56.86784666547054
 20
-7.369059242949402
 30
0.0
 10
56.86784666547054
 20
-7.369059242949402
 30
0.0
 10
56.86784666547054
 20
-7.898225909483777
 30
0.0
 10
56.6080864658827
 20
-8.162809242750965
 30
0.0
 10
56.08856606670703
 20
-8.162809242750965
 30
0.0
 10
55.56766762933725
 20
-8.161431204556864
 30
0.0
 10
55.30721841065237
 20
-7.896847871289677
 30
0.0
 10
55.30721841065237
 20
-7.369059242949402
 30
0.0
 10
55.30721841065237
 20
-7.369059242949402
 30
0.0
 10
55.30721841065237
 20
-6.664192706667285
 30
0.0
 10
55.30721841065237
 20
-6.664192706667285
 30
0.0
 10
55.30721841065237
 20
-6.424414060893897
 30
0.0
 10
55.46224770748861
 20
-6.225287541846456
 30
0.0
 10
55.77230630116109
 20
-6.066813149524964
 30
0.0
 10
55.46224770748861
 20
-5.906960719009371
 30
0.0
 10
55.30721841065237
 20
-5.707834199961931
 30
0.0
 10
55.30721841065237
 20
-5.469433592382642
 30
0.0
 10
55.30721841065237
 20
-5.469433592382642
 30
0.0
 10
55.30721841065237
 20
-4.748030597771326
 30
0.0
 10
55.30721841065237
 20
-4.748030597771326
 30
0.0
  0
SPLINE
  5
A0
330
9B
100
AcDbEntity
  8
With Dials
370
     0
100
AcDbSpline
210
0.0
220
0.0
230
1.0
 70
    11
 71
     3
 72
    29
 73
    25
 74
     0
 42
0.0000000001
 43
0.0000000001
 12
1.0
 22
0.0
 32
0.0
 13
1.0
 23
0.0
 33
0.0
 40
0.0
 40
0.0
 40
0.0
 40
0.0
 40
1.0
 40
1.0
 40
1.0
 40
2.0
 40
2.0
 40
2.0
 40
3.0
 40
3.0
 40
3.0
 40
4.0
 40
4.0
 40
4.0
 40
5.0
 40
5.0
 40
5.0
 40
6.0
 40
6.0
 40
6.0
 40
7.0
 40
7.0
 40
7.0
 40
8.0
 40
8.0
 40
8.0
 40
8.0
 10
55.7102945824266
 20
-5.469433592382642
 30
0.0
 10
55.7061604678443
 20
-5.73126084926163
 30
0.0
 10
55.81226940878999
 20
-5.866308592283423
 30
0.0
 10
56.02862140526368
 20
-5.874576821448023
 30
0.0
 10
56.05067001636928
 20
-5.875954859642123
 30
0.0
 10
56.07409666566897
 20
-5.876643878739173
 30
0.0
 10
56.09890135316278
 20
-5.876643878739173
 30
0.0
 10
56.18985187397337
 20
-5.876643878739173
 30
0.0
 10
56.26013182187247
 20
-5.866997611380473
 30
0.0
 10
56.30974119686007
 20
-5.847705076663074
 30
0.0
 10
56.41722817599986
 20
-5.798095701675476
 30
0.0
 10
56.46890460827861
 20
-5.672005206915332
 30
0.0
 10
56.46477049369631
 20
-5.469433592382642
 30
0.0
 10
56.46477049369631
 20
-5.469433592382642
 30
0.0
 10
56.46477049369631
 20
-4.748030597771326
 30
0.0
 10
56.46477049369631
 20
-4.748030597771326
 30
0.0
 10
56.46477049369631
 20
-4.483447264504139
 30
0.0
 10
56.33936901803322
 20
-4.351155597870545
 30
0.0
 10
56.08856606670703
 20
-4.351155597870545
 30
0.0
 10
55.83638507718674
 20
-4.351155597870545
 30
0.0
 10
55.7102945824266
 20
-4.483447264504139
 30
0.0
 10
55.7102945824266
 20
-4.748030597771326
 30
0.0
 10
55.7102945824266
 20
-4.748030597771326
 30
0.0
 10
55.7102945824266
 20
-5.469433592382642
 30
0.0
 10
55.7102945824266
 20
-5.469433592382642
 30
0.0
  0
SPLINE
  5
A1
330
9B
100
AcDbEntity
  8
With Dials
370
     0
100
AcDbSpline
210
0.0
220
0.0
230
1.0
 70
    11
 71
     3
 72
    23
 73
    19
 74
     0
 42
0.0000000001
 43
0.0000000001
 12
1.0
 22
0.0
 32
0.0
 13
1.0
 23
0.0
 33
0.0
 40
0.0
 40
0.0
 40
0.0
 40
0.0
 40
1.0
 40
1.0
 40
1.0
 40
2.0
 40
2.0
 40
2.0
 40
3.0
 40
3.0
 40
3.0
 40
4.0
 40
4.0
 40
4.0
 40
5.0
 40
5.0
 40
5.0
 40
6.0
 40
6.0
 40
6.0
 40
6.0
 10
55.7102945824266
 20
-7.369059242949402
 30
0.0
 10
55.7102945824266
 20
-7.63364257621659
 30
0.0
 10
55.83638507718674
 20
-7.765934242850183
 30
0.0
 10
56.08856606670703
 20
-7.765934242850183
 30
0.0
 10
56.33936901803322
 20
-7.765934242850183
 30
0.0
 10
56.46477049369631
 20
-7.63364257621659
 30
0.0
 10
56.46477049369631
 20
-7.369059242949402
 30
0.0
 10
56.46477049369631
 20
-7.369059242949402
 30
0.0
 10
56.46477049369631
 20
-6.668326821249585
 30
0.0
 10
56.46477049369631
 20
-6.668326821249585
 30
0.0
 10
56.46890460827861
 20
-6.396853297011898
 30
0.0
 10
56.34281411351846
 20
-6.261116534893055
 30
0.0
 10
56.08649900941588
 20
-6.261116534893055
 30
0.0
 10
55.83156194350739
 20
-6.261116534893055
 30
0.0
 10
55.7061604678443
 20
-6.396853297011898
 30
0.0
 10
55.7102945824266
 20
-6.668326821249585
 30
0.0
 10
55.7102945824266
 20
-6.668326821249585
 30
0.0
 10
55.7102945824266
 20
-7.369059242949402
 30
0.0
 10
55.7102945824266
 20
-7.369059242949402
 30
0.0
  0
HATCH
  5
A2
330
9B
100
AcDbEntity
  8
With Dials
 62
   250
420
  2301728
100
AcDbHatch
 10
0.0
 20
0.0
 30
0.0
210
0.0
220
0.0
230
1.0
  2
SOLID
 70
     1
 71
     0
 91
        3
 92
        1
 93
        1
 72
     4
 94
        3
 73
     0
 74
     1
 95
       41
 96
       37
 40
0.0
 40
0.0
 40
0.0
 40
0.0
 40
1.0
 40
1.0
 40
1.0
 40
2.0
 40
2.0
 40
2.0
 40
3.0
 40
3.0
 40
3.0
 40
4.0
 40
4.0
 40
4.0
 40
5.0
 40
5.0
 40
5.0
 40
6.0
 40
6.0
 40
6.0
 40
7.0
 40
7.0
 40
7.0
 40
8.0
 40
8.0
 40
8.0
 40
9.0
 40
9.0
 40
9.0
 40
10.0
 40
10.0
 40
10.0
 40
11.0
 40
11.0
 40
11.0
 40
12.0
 40
12.0
 40
12.0
 40
12.0
 10
55.30721841065237
 20
-4.748030597771326
 10
55.30721841065237
 20
-4.220241969431051
 10
55.56766762933725
 20
-3.955658636163863
 10
56.08856606670703
 20
-3.954280597969763
 10
56.6080864658827
 20
-3.954280597969763
 10
56.86784666547054
 20
-4.21886393123695
 10
56.86784666547054
 20
-4.748030597771326
 10
56.86784666547054
 20
-4.748030597771326
 10
56.86784666547054
 20
-5.469433592382642
 10
56.86784666547054
 20
-5.469433592382642
 10
56.86784666547054
 20
-5.707834199961931
 10
56.71212834953725
 20
-5.906960719009371
 10
56.40069171767066
 20
-6.066813149524964
 10
56.71212834953725
 20
-6.225287541846456
 10
56.86784666547054
 20
-6.424414060893897
 10
56.86784666547054
 20
-6.664192706667285
 10
56.86784666547054
 20
-6.664192706667285
 10
56.86784666547054
 20
-7.369059242949402
 10
56.86784666547054
 20
-7.369059242949402
 10
56.86784666547054
 20
-7.898225909483777
 10
56.6080864658827
 20
-8.162809242750965
 10
56.08856606670703
 20
-8.162809242750965
 10
55.56766762933725
 20
-8.161431204556864
 10
55.30721841065237
 20
-7.896847871289677
 10
55.30721841065237
 20
-7.369059242949402
 10
55.30721841065237
 20
-7.369059242949402
 10
55.30721841065237
 20
-6.664192706667285
 10
55.30721841065237
 20
-6.664192706667285
 10
55.30721841065237
 20
-6.424414060893897
 10
55.46224770748861
 20
-6.225287541846456
 10
55.77230630116109
 20
-6.066813149524964
 10
55.46224770748861
 20
-5.906960719009371
 10
55.30721841065237
 20
-5.707834199961931
 10
55.30721841065237
 20
-5.469433592382642
 10
55.30721841065237
 20
-5.469433592382642
 10
55.30721841065237
 20
-4.748030597771326
 10
55.30721841065237
 20
-4.748030597771326
 97
        0
 97
        0
 92
        1
 93
        1
 72
     4
 94
        3
 73
     0
 74
     1
 95
       29
 96
       25
 40
0.0
 40
0.0
 40
0.0
 40
0.0
 40
1.0
 40
1.0
 40
1.0
 40
2.0
 40
2.0
 40
2.0
 40
3.0
 40
3.0
 40
3.0
 40
4.0
 40
4.0
 40
4.0
 40
5.0
 40
5.0
 40
5.0
 40
6.0
 40
6.0
 40
6.0
 40
7.0
 40
7.0
 40
7.0
 40
8.0
 40
8.0
 40
8.0
 40
8.0
 10
55.7102945824266
 20
-5.469433592382642
 10
55.7061604678443
 20
-5.73126084926163
 10
55.81226940878999
 20
-5.866308592283423
 10
56.02862140526368
 20
-5.874576821448023
 10
56.05067001636928
 20
-5.875954859642123
 10
56.07409666566897
 20
-5.876643878739173
 10
56.09890135316278
 20
-5.876643878739173
 10
56.18985187397337
 20
-5.876643878739173
 10
56.26013182187247
 20
-5.866997611380473
 10
56.30974119686007
 20
-5.847705076663074
 10
56.41722817599986
 20
-5.798095701675476
 10
56.46890460827861
 20
-5.672005206915332
 10
56.46477049369631
 20
-5.469433592382642
 10
56.46477049369631
 20
-5.469433592382642
 10
56.46477049369631
 20
-4.748030597771326
 10
56.46477049369631
 20
-4.748030597771326
 10
56.46477049369631
 20
-4.483447264504139
 10
56.33936901803322
 20
-4.351155597870545
 10
56.08856606670703
 20
-4.351155597870545
 10
55.83638507718674
 20
-4.351155597870545
 10
55.7102945824266
 20
-4.483447264504139
 10
55.7102945824266
 20
-4.748030597771326
 10
55.7102945824266
 20
-4.748030597771326
 10
55.7102945824266
 20
-5.469433592382642
 10
55.7102945824266
 20
-5.469433592382642
 97
        0
 97
        0
 92
        1
 93
        1
 72
     4
 94
        3
 73
     0
 74
     1
 95
       23
 96
       19
 40
0.0
 40
0.0
 40
0.0
 40
0.0
 40
1.0
 40
1.0
 40
1.0
 40
2.0
 40
2.0
 40
2.0
 40
3.0
 40
3.0
 40
3.0
 40
4.0
 40
4.0
 40
4.0
 40
5.0
 40
5.0
 40
5.0
 40
6.0
 40
6.0
 40
6.0
 40
6.0
 10
55.7102945824266
 20
-7.369059242949402
 10
55.7102945824266
 20
-7.63364257621659
 10
55.83638507718674
 20
-7.765934242850183
 10
56.08856606670703
 20
-7.765934242850183
 10
56.33936901803322
 20
-7.765934242850183
 10
56.46477049369631
 20
-7.63364257621659
 10
56.46477049369631
 20
-7.369059242949402
 10
56.46477049369631
 20
-7.369059242949402
 10
56.46477049369631
 20
-6.668326821249585
 10
56.46477049369631
 20
-6.668326821249585
 10
56.46890460827861
 20
-6.396853297011898
 10
56.34281411351846
 20
-6.261116534893055
 10
56.08649900941588
 20
-6.261116534893055
 10
55.83156194350739
 20
-6.261116534893055
 10
55.7061604678443
 20
-6.396853297011898
 10
55.7102945824266
 20
-6.668326821249585
 10
55.7102945824266
 20
-6.668326821249585
 10
55.7102945824266
 20
-7.369059242949402
 10
55.7102945824266
 20
-7.369059242949402
 97
        0
 97
        0
 75
     2
 76
     1
 98
        0
  0
ENDBLK
  5
9E
330
9B
100
AcDbEntity
  8
0
100
AcDbBlockEnd
  0
BLOCK
  5
A5
330
A3
100
AcDbEntity
  8
0
100
AcDbBlockBegin
  2
block 11
 70
     0
 10
0.0
 20
0.0
 30
0.0
  3
block 11
  1

  0
SPLINE
  5
A7
330
A3
100
AcDbEntity
  8
With Dials
370
     0
100
AcDbSpline
210
0.0
220
0.0
230
1.0
 70
    11
 71
     3
 72
    56
 73
    52
 74
     0
 42
0.0000000001
 43
0.0000000001
 12
1.0
 22
0.0
 32
0.0
 13
1.0
 23
0.0
 33
0.0
 40
0.0
 40
0.0
 40
0.0
 40
0.0
 40
1.0
 40
1.0
 40
1.0
 40
2.0
 40
2.0
 40
2.0
 40
3.0
 40
3.0
 40
3.0
 40
4.0
 40
4.0
 40
4.0
 40
5.0
 40
5.0
 40
5.0
 40
6.0
 40
6.0
 40
6.0
 40
7.0
 40
7.0
 40
7.0
 40
8.0
 40
8.0
 40
8.0
 40
9.0
 40
9.0
 40
9.0
 40
10.0
 40
10.0
 40
10.0
 40
11.0
 40
11.0
 40
11.0
 40
12.0
 40
12.0
 40
12.0
 40
13.0
 40
13.0
 40
13.0
 40
14.0
 40
14.0
 40
14.0
 40
15.0
 40
15.0
 40
15.0
 40
16.0
 40
16.0
 40
16.0
 40
17.0
 40
17.0
 40
17.0
 40
17.0
 10
62.50505640798485
 20
-4.747686088222801
 30
0.0
 10
62.50505640798485
 20
-4.219897459882525
 30
0.0
 10
62.76550562666974
 20
-3.955314126615338
 30
0.0
 10
63.28640406403952
 20
-3.953936088421238
 30
0.0
 10
63.80592446321519
 20
-3.953936088421238
 30
0.0
 10
64.06568466280302
 20
-4.218519421688426
 30
0.0
 10
64.06568466280302
 20
-4.747686088222801
 30
0.0
 10
64.06568466280302
 20
-4.747686088222801
 30
0.0
 10
64.06568466280302
 20
-7.368714733400878
 30
0.0
 10
64.06568466280302
 20
-7.368714733400878
 30
0.0
 10
64.06568466280302
 20
-7.896503361741153
 30
0.0
 10
63.80523544411814
 20
-8.16039767591129
 30
0.0
 10
63.28433700674837
 20
-8.16039767591129
 30
0.0
 10
62.76481660757269
 20
-8.16039767591129
 30
0.0
 10
62.50505640798485
 20
-7.896503361741153
 30
0.0
 10
62.50505640798485
 20
-7.368714733400878
 30
0.0
 10
62.50505640798485
 20
-7.368714733400878
 30
0.0
 10
62.50505640798485
 20
-6.899492728309849
 30
0.0
 10
62.50505640798485
 20
-6.899492728309849
 30
0.0
 10
62.50505640798485
 20
-6.899492728309849
 30
0.0
 10
62.90813257975908
 20
-6.899492728309849
 30
0.0
 10
62.90813257975908
 20
-6.899492728309849
 30
0.0
 10
62.90813257975908
 20
-6.899492728309849
 30
0.0
 10
62.90813257975908
 20
-7.368714733400878
 30
0.0
 10
62.90813257975908
 20
-7.368714733400878
 30
0.0
 10
62.90813257975908
 20
-7.631920028473965
 30
0.0
 10
63.03353405542217
 20
-7.764211695107559
 30
0.0
 10
63.28433700674837
 20
-7.765589733301659
 30
0.0
 10
63.28433700674837
 20
-7.765589733301659
 30
0.0
 10
63.28847112133067
 20
-7.765589733301659
 30
0.0
 10
63.28847112133067
 20
-7.765589733301659
 30
0.0
 10
63.53789603446275
 20
-7.765589733301659
 30
0.0
 10
63.6626084910288
 20
-7.633298066668065
 30
0.0
 10
63.6626084910288
 20
-7.368714733400878
 30
0.0
 10
63.6626084910288
 20
-7.368714733400878
 30
0.0
 10
63.6626084910288
 20
-6.083005098305638
 30
0.0
 10
63.6626084910288
 20
-6.083005098305638
 30
0.0
 10
63.44625649455511
 20
-6.277308483673728
 30
0.0
 10
63.26642251022506
 20
-6.374460176357774
 30
0.0
 10
63.12310653803867
 20
-6.374460176357774
 30
0.0
 10
63.09830185054487
 20
-6.374460176357774
 30
0.0
 10
63.07280814395402
 20
-6.373082138163674
 30
0.0
 10
63.04662541826612
 20
-6.370326061775474
 30
0.0
 10
62.87574868219773
 20
-6.352411565252175
 30
0.0
 10
62.74345701556414
 20
-6.293155922905878
 30
0.0
 10
62.64975041836534
 20
-6.192559134736583
 30
0.0
 10
62.55328774477834
 20
-6.087828231984988
 30
0.0
 10
62.50505640798485
 20
-5.890079751131647
 30
0.0
 10
62.50505640798485
 20
-5.599313692176561
 30
0.0
 10
62.50505640798485
 20
-5.599313692176561
 30
0.0
 10
62.50505640798485
 20
-4.747686088222801
 30
0.0
 10
62.50505640798485
 20
-4.747686088222801
 30
0.0
  0
SPLINE
  5
A8
330
A3
100
AcDbEntity
  8
With Dials
370
     0
100
AcDbSpline
210
0.0
220
0.0
230
1.0
 70
    11
 71
     3
 72
    29
 73
    25
 74
     0
 42
0.0000000001
 43
0.0000000001
 12
1.0
 22
0.0
 32
0.0
 13
1.0
 23
0.0
 33
0.0
 40
0.0
 40
0.0
 40
0.0
 40
0.0
 40
1.0
 40
1.0
 40
1.0
 40
2.0
 40
2.0
 40
2.0
 40
3.0
 40
3.0
 40
3.0
 40
4.0
 40
4.0
 40
4.0
 40
5.0
 40
5.0
 40
5.0
 40
6.0
 40
6.0
 40
6.0
 40
7.0
 40
7.0
 40
7.0
 40
8.0
 40
8.0
 40
8.0
 40
8.0
 10
63.6626084910288
 20
-4.747686088222801
 30
0.0
 10
63.6626084910288
 20
-4.483102754955613
 30
0.0
 10
63.5372070153657
 20
-4.350811088322019
 30
0.0
 10
63.28640406403952
 20
-4.350811088322019
 30
0.0
 10
63.03422307451923
 20
-4.350811088322019
 30
0.0
 10
62.90813257975908
 20
-4.483102754955613
 30
0.0
 10
62.90813257975908
 20
-4.747686088222801
 30
0.0
 10
62.90813257975908
 20
-4.747686088222801
 30
0.0
 10
62.90813257975908
 20
-5.599313692176561
 30
0.0
 10
62.90813257975908
 20
-5.599313692176561
 30
0.0
 10
62.90813257975908
 20
-5.797751192126952
 30
0.0
 10
62.96118705023193
 20
-5.920396591401846
 30
0.0
 10
63.06729599117762
 20
-5.967249890001243
 30
0.0
 10
63.11552732797112
 20
-5.986542424718643
 30
0.0
 10
63.18442923767612
 20
-5.996188692077342
 30
0.0
 10
63.27400172029262
 20
-5.996188692077342
 30
0.0
 10
63.29742836959231
 20
-5.996188692077342
 30
0.0
 10
63.31947698069791
 20
-5.995499672980292
 30
0.0
 10
63.34014755360941
 20
-5.994121634786192
 30
0.0
 10
63.555121511889
 20
-5.987231443815692
 30
0.0
 10
63.6626084910288
 20
-5.855628796279149
 30
0.0
 10
63.6626084910288
 20
-5.599313692176561
 30
0.0
 10
63.6626084910288
 20
-5.599313692176561
 30
0.0
 10
63.6626084910288
 20
-4.747686088222801
 30
0.0
 10
63.6626084910288
 20
-4.747686088222801
 30
0.0
  0
HATCH
  5
A9
330
A3
100
AcDbEntity
  8
With Dials
 62
   250
420
  2301728
100
AcDbHatch
 10
0.0
 20
0.0
 30
0.0
210
0.0
220
0.0
230
1.0
  2
SOLID
 70
     1
 71
     0
 91
        2
 92
        1
 93
        1
 72
     4
 94
        3
 73
     0
 74
     1
 95
       56
 96
       52
 40
0.0
 40
0.0
 40
0.0
 40
0.0
 40
1.0
 40
1.0
 40
1.0
 40
2.0
 40
2.0
 40
2.0
 40
3.0
 40
3.0
 40
3.0
 40
4.0
 40
4.0
 40
4.0
 40
5.0
 40
5.0
 40
5.0
 40
6.0
 40
6.0
 40
6.0
 40
7.0
 40
7.0
 40
7.0
 40
8.0
 40
8.0
 40
8.0
 40
9.0
 40
9.0
 40
9.0
 40
10.0
 40
10.0
 40
10.0
 40
11.0
 40
11.0
 40
11.0
 40
12.0
 40
12.0
 40
12.0
 40
13.0
 40
13.0
 40
13.0
 40
14.0
 40
14.0
 40
14.0
 40
15.0
 40
15.0
 40
15.0
 40
16.0
 40
16.0
 40
16.0
 40
17.0
 40
17.0
 40
17.0
 40
17.0
 10
62.50505640798485
 20
-4.747686088222801
 10
62.50505640798485
 20
-4.219897459882525
 10
62.76550562666974
 20
-3.955314126615338
 10
63.28640406403952
 20
-3.953936088421238
 10
63.80592446321519
 20
-3.953936088421238
 10
64.06568466280302
 20
-4.218519421688426
 10
64.06568466280302
 20
-4.747686088222801
 10
64.06568466280302
 20
-4.747686088222801
 10
64.06568466280302
 20
-7.368714733400878
 10
64.06568466280302
 20
-7.368714733400878
 10
64.06568466280302
 20
-7.896503361741153
 10
63.80523544411814
 20
-8.16039767591129
 10
63.28433700674837
 20
-8.16039767591129
 10
62.76481660757269
 20
-8.16039767591129
 10
62.50505640798485
 20
-7.896503361741153
 10
62.50505640798485
 20
-7.368714733400878
 10
62.50505640798485
 20
-7.368714733400878
 10
62.50505640798485
 20
-6.899492728309849
 10
62.50505640798485
 20
-6.899492728309849
 10
62.50505640798485
 20
-6.899492728309849
 10
62.90813257975908
 20
-6.899492728309849
 10
62.90813257975908
 20
-6.899492728309849
 10
62.90813257975908
 20
-6.899492728309849
 10
62.90813257975908
 20
-7.368714733400878
 10
62.90813257975908
 20
-7.368714733400878
 10
62.90813257975908
 20
-7.631920028473965
 10
63.03353405542217
 20
-7.764211695107559
 10
63.28433700674837
 20
-7.765589733301659
 10
63.28433700674837
 20
-7.765589733301659
 10
63.28847112133067
 20
-7.765589733301659
 10
63.28847112133067
 20
-7.765589733301659
 10
63.53789603446275
 20
-7.765589733301659
 10
63.6626084910288
 20
-7.633298066668065
 10
63.6626084910288
 20
-7.368714733400878
 10
63.6626084910288
 20
-7.368714733400878
 10
63.6626084910288
 20
-6.083005098305638
 10
63.6626084910288
 20
-6.083005098305638
 10
63.44625649455511
 20
-6.277308483673728
 10
63.26642251022506
 20
-6.374460176357774
 10
63.12310653803867
 20
-6.374460176357774
 10
63.09830185054487
 20
-6.374460176357774
 10
63.07280814395402
 20
-6.373082138163674
 10
63.04662541826612
 20
-6.370326061775474
 10
62.87574868219773
 20
-6.352411565252175
 10
62.74345701556414
 20
-6.293155922905878
 10
62.64975041836534
 20
-6.192559134736583
 10
62.55328774477834
 20
-6.087828231984988
 10
62.50505640798485
 20
-5.890079751131647
 10
62.50505640798485
 20
-5.599313692176561
 10
62.50505640798485
 20
-5.599313692176561
 10
62.50505640798485
 20
-4.747686088222801
 10
62.50505640798485
 20
-4.747686088222801
 97
        0
 97
        0
 92
        1
 93
        1
 72
     4
 94
        3
 73
     0
 74
     1
 95
       29
 96
       25
 40
0.0
 40
0.0
 40
0.0
 40
0.0
 40
1.0
 40
1.0
 40
1.0
 40
2.0
 40
2.0
 40
2.0
 40
3.0
 40
3.0
 40
3.0
 40
4.0
 40
4.0
 40
4.0
 40
5.0
 40
5.0
 40
5.0
 40
6.0
 40
6.0
 40
6.0
 40
7.0
 40
7.0
 40
7.0
 40
8.0
 40
8.0
 40
8.0
 40
8.0
 10
63.6626084910288
 20
-4.747686088222801
 10
63.6626084910288
 20
-4.483102754955613
 10
63.5372070153657
 20
-4.350811088322019
 10
63.28640406403952
 20
-4.350811088322019
 10
63.03422307451923
 20
-4.350811088322019
 10
62.90813257975908
 20
-4.483102754955613
 10
62.90813257975908
 20
-4.747686088222801
 10
62.90813257975908
 20
-4.747686088222801
 10
62.90813257975908
 20
-5.599313692176561
 10
62.90813257975908
 20
-5.599313692176561
 10
62.90813257975908
 20
-5.797751192126952
 10
62.96118705023193
 20
-5.920396591401846
 10
63.06729599117762
 20
-5.967249890001243
 10
63.11552732797112
 20
-5.986542424718643
 10
63.18442923767612
 20
-5.996188692077342
 10
63.27400172029262
 20
-5.996188692077342
 10
63.29742836959231
 20
-5.996188692077342
 10
63.31947698069791
 20
-5.995499672980292
 10
63.34014755360941
 20
-5.994121634786192
 10
63.555121511889
 20
-5.987231443815692
 10
63.6626084910288
 20
-5.855628796279149
 10
63.6626084910288
 20
-5.599313692176561
 10
63.6626084910288
 20
-5.599313692176561
 10
63.6626084910288
 20
-4.747686088222801
 10
63.6626084910288
 20
-4.747686088222801
 97
        0
 97
        0
 75
     2
 76
     1
 98
        0
  0
ENDBLK
  5
A6
330
A3
100
AcDbEntity
  8
0
100
AcDbBlockEnd
  0
ENDSEC
  0
SECTION
  2
ENTITIES
  0
INSERT
  5
45
330
1F
100
AcDbEntity
  8
With Dials
100
AcDbBlockReference
  2
block 2
 10
0.0
 20
0.0
 30
0.0
  0
ENDSEC
  0
SECTION
  2
OBJECTS
  0
DICTIONARY
  5
C
330
0
100
AcDbDictionary
281
     1
  3
ACAD_GROUP
350
D
  3
ACAD_LAYOUT
350
1A
  3
ACAD_MATERIAL
350
3B
  3
ACAD_MLEADERSTYLE
350
AC
  3
ACAD_MLINESTYLE
350
17
  3
ACAD_PLOTSETTINGS
350
19
  3
ACAD_PLOTSTYLENAME
350
E
  3
ACAD_TABLESTYLE
350
AB
  3
ACAD_VISUALSTYLE
350
2A
  0
SUN
  5
3F
330
29
100
AcDbSun
 90
        1
290
     0
 63
     7
421
 16777215
 40
1.0
291
     1
 91
  2455826
 92
 54000000
292
     0
 70
     2
 71
   256
280
     1
  0
DICTIONARY
  5
D
102
{ACAD_REACTORS
330
C
102
}
330
C
100
AcDbDictionary
281
     1
  0
DICTIONARY
  5
1A
102
{ACAD_REACTORS
330
C
102
}
330
C
100
AcDbDictionary
281
     1
  3
Layout1
350
1E
  3
Layout2
350
26
  3
Model
350
22
  0
DICTIONARY
  5
3B
102
{ACAD_REACTORS
330
C
102
}
330
C
100
AcDbDictionary
281
     1
  3
ByBlock
350
3D
  3
ByLayer
350
3C
  3
Global
350
3E
  0
DICTIONARY
  5
AC
102
{ACAD_REACTORS
330
C
102
}
330
C
100
AcDbDictionary
281
     1
  0
DICTIONARY
  5
17
102
{ACAD_REACTORS
330
C
102
}
330
C
100
AcDbDictionary
281
     1
  3
Standard
350
18
  0
DICTIONARY
  5
19
102
{ACAD_REACTORS
330
C
102
}
330
C
100
AcDbDictionary
281
     1
  0
ACDBDICTIONARYWDFLT
  5
E
102
{ACAD_REACTORS
330
C
102
}
330
C
100
AcDbDictionary
281
     1
  3
Normal
350
F
100
AcDbDictionaryWithDefault
340
F
  0
DICTIONARY
  5
AB
102
{ACAD_REACTORS
330
C
102
}
330
C
100
AcDbDictionary
281
     1
  0
DICTIONARY
  5
2A
102
{ACAD_REACTORS
330
C
102
}
330
C
100
AcDbDictionary
281
     1
  3
2dWireframe
350
2F
  3
3D Hidden
350
31
  3
3dWireframe
350
30
  3
Basic
350
32
  3
Brighten
350
36
  3
ColorChange
350
3A
  3
Conceptual
350
34
  3
Dim
350
35
  3
Facepattern
350
39
  3
Flat
350
2B
  3
FlatWithEdges
350
2C
  3
Gouraud
350
2D
  3
GouraudWithEdges
350
2E
  3
Linepattern
350
38
  3
Realistic
350
33
  3
Thicken
350
37
  0
LAYOUT
  5
1E
102
{ACAD_REACTORS
330
1A
102
}
330
1A
100
AcDbPlotSettings
  1

  2
none_device
  4

  6

 40
0.0
 41
0.0
 42
0.0
 43
0.0
 44
0.0
 45
0.0
 46
0.0
 47
0.0
 48
0.0
 49
0.0
140
0.0
141
0.0
142
1.0
143
1.0
 70
   688
 72
     0
 73
     0
 74
     5
  7

 75
    16
 76
     0
 77
     2
 78
   300
147
1.0
148
0.0
149
0.0
100
AcDbLayout
  1
Layout1
 70
     1
 71
     1
 10
0.0
 20
0.0
 11
12.0
 21
9.0
 12
0.0
 22
0.0
 32
0.0
 14
1.000000000000000E+20
 24
1.000000000000000E+20
 34
1.000000000000000E+20
 15
-1.000000000000000E+20
 25
-1.000000000000000E+20
 35
-1.000000000000000E+20
146
0.0
 13
0.0
 23
0.0
 33
0.0
 16
1.0
 26
0.0
 36
0.0
 17
0.0
 27
1.0
 37
0.0
 76
     0
330
1B
  0
LAYOUT
  5
26
102
{ACAD_REACTORS
330
1A
102
}
330
1A
100
AcDbPlotSettings
  1

  2
none_device
  4

  6

 40
0.0
 41
0.0
 42
0.0
 43
0.0
 44
0.0
 45
0.0
 46
0.0
 47
0.0
 48
0.0
 49
0.0
140
0.0
141
0.0
142
1.0
143
1.0
 70
   688
 72
     0
 73
     0
 74
     5
  7

 75
    16
 76
     0
 77
     2
 78
   300
147
1.0
148
0.0
149
0.0
100
AcDbLayout
  1
Layout2
 70
     1
 71
     2
 10
0.0
 20
0.0
 11
0.0
 21
0.0
 12
0.0
 22
0.0
 32
0.0
 14
0.0
 24
0.0
 34
0.0
 15
0.0
 25
0.0
 35
0.0
146
0.0
 13
0.0
 23
0.0
 33
0.0
 16
1.0
 26
0.0
 36
0.0
 17
0.0
 27
1.0
 37
0.0
 76
     0
330
23
  0
LAYOUT
  5
22
102
{ACAD_REACTORS
330
1A
102
}
330
1A
100
AcDbPlotSettings
  1

  2
none_device
  4

  6

 40
0.0
 41
0.0
 42
0.0
 43
0.0
 44
0.0
 45
0.0
 46
0.0
 47
0.0
 48
0.0
 49
0.0
140
0.0
141
0.0
142
1.0
143
1.0
 70
  1712
 72
     0
 73
     0
 74
     0
  7

 75
     0
 76
     0
 77
     2
 78
   300
147
1.0
148
0.0
149
0.0
100
AcDbLayout
  1
Model
 70
     1
 71
     0
 10
0.0
 20
0.0
 11
12.0
 21
9.0
 12
0.0
 22
0.0
 32
0.0
 14
1.000000000000000E+20
 24
1.000000000000000E+20
 34
1.000000000000000E+20
 15
-1.000000000000000E+20
 25
-1.000000000000000E+20
 35
-1.000000000000000E+20
146
0.0
 13
0.0
 23
0.0
 33
0.0
 16
1.0
 26
0.0
 36
0.0
 17
0.0
 27
1.0
 37
0.0
 76
     0
330
1F
331
29
  0
MATERIAL
  5
3D
102
{ACAD_REACTORS
330
3B
102
}
330
3B
100
AcDbMaterial
  1
ByBlock
 72
     1
 94
      127
  0
MATERIAL
  5
3C
102
{ACAD_REACTORS
330
3B
102
}
330
3B
100
AcDbMaterial
  1
ByLayer
 72
     1
 94
      127
  0
MATERIAL
  5
3E
102
{ACAD_REACTORS
330
3B
102
}
330
3B
100
AcDbMaterial
  1
Global
 72
     1
 94
      127
  0
MLINESTYLE
  5
18
102
{ACAD_REACTORS
330
17
102
}
330
17
100
AcDbMlineStyle
  2
Standard
 70
     0
  3

 62
   256
 51
90.0
 52
90.0
 71
     2
 49
0.5
 62
   256
  6
BYLAYER
 49
-0.5
 62
   256
  6
BYLAYER
  0
ACDBPLACEHOLDER
  5
F
102
{ACAD_REACTORS
330
E
102
}
330
E
  0
VISUALSTYLE
  5
2F
102
{ACAD_REACTORS
330
2A
102
}
330
2A
100
AcDbVisualStyle
  2
2dWireframe
 70
     4
177
     2
291
     0
 71
     0
176
     1
 72
     2
176
     1
 73
     0
176
     1
 90
        0
176
     1
 40
-0.6
176
     1
 41
-30.0
176
     1
 62
     5
 63
     7
421
 16777215
176
     1
 74
     1
176
     1
 91
        4
176
     1
 64
     7
176
     1
 65
   257
176
     1
 75
     1
176
     1
175
     1
176
     1
 42
1.0
176
     1
 92
        0
176
     1
 66
   257
176
     1
 43
1.0
176
     1
 76
     1
176
     1
 77
     6
176
     1
 78
     2
176
     1
 67
     7
176
     1
 79
     5
176
     1
170
     0
176
     1
171
     0
176
     1
290
     0
176
     1
 93
        1
176
     1
 44
0.0
176
     1
173
     0
176
     1
  0
VISUALSTYLE
  5
31
102
{ACAD_REACTORS
330
2A
102
}
330
2A
100
AcDbVisualStyle
  2
3D Hidden
 70
     6
177
     2
291
     0
 71
     1
176
     1
 72
     2
176
     1
 73
     2
176
     1
 90
        0
176
     1
 40
-0.6
176
     1
 41
-30.0
176
     1
 62
     5
 63
     7
421
 16777215
176
     1
 74
     2
176
     1
 91
        2
176
     1
 64
     7
176
     1
 65
   257
176
     1
 75
     2
176
     1
175
     1
176
     1
 42
40.0
176
     1
 92
        0
176
     1
 66
   257
176
     1
 43
1.0
176
     1
 76
     1
176
     1
 77
     6
176
     1
 78
     2
176
     1
 67
     7
176
     1
 79
     3
176
     1
170
     0
176
     1
171
     0
176
     1
290
     0
176
     1
 93
        1
176
     1
 44
0.0
176
     1
173
     0
176
     1
  0
VISUALSTYLE
  5
30
102
{ACAD_REACTORS
330
2A
102
}
330
2A
100
AcDbVisualStyle
  2
3dWireframe
 70
     5
177
     2
291
     0
 71
     0
176
     1
 72
     2
176
     1
 73
     0
176
     1
 90
        0
176
     1
 40
-0.6
176
     1
 41
-30.0
176
     1
 62
     5
 63
     7
421
 16777215
176
     1
 74
     1
176
     1
 91
        4
176
     1
 64
     7
176
     1
 65
   257
176
     1
 75
     1
176
     1
175
     1
176
     1
 42
1.0
176
     1
 92
        0
176
     1
 66
   257
176
     1
 43
1.0
176
     1
 76
     1
176
     1
 77
     6
176
     1
 78
     2
176
     1
 67
     7
176
     1
 79
     5
176
     1
170
     0
176
     1
171
     0
176
     1
290
     0
176
     1
 93
        1
176
     1
 44
0.0
176
     1
173
     0
176
     1
  0
VISUALSTYLE
  5
32
102
{ACAD_REACTORS
330
2A
102
}
330
2A
100
AcDbVisualStyle
  2
Basic
 70
     7
177
     2
291
     1
 71
     1
176
     1
 72
     0
176
     1
 73
     1
176
     1
 90
        0
176
     1
 40
-0.6
176
     1
 41
-30.0
176
     1
 62
     5
 63
     7
421
 16777215
176
     1
 74
     0
176
     1
 91
        4
176
     1
 64
     7
176
     1
 65
   257
176
     1
 75
     1
176
     1
175
     1
176
     1
 42
1.0
176
     1
 92
        8
176
     1
 66
     7
176
     1
 43
1.0
176
     1
 76
     1
176
     1
 77
     6
176
     1
 78
     2
176
     1
 67
     7
176
     1
 79
     5
176
     1
170
     0
176
     1
171
     0
176
     1
290
     0
176
     1
 93
        1
176
     1
 44
0.0
176
     1
173
     0
176
     1
  0
VISUALSTYLE
  5
36
102
{ACAD_REACTORS
330
2A
102
}
330
2A
100
AcDbVisualStyle
  2
Brighten
 70
    12
177
     2
291
     1
 71
     2
176
     1
 72
     2
176
     1
 73
     0
176
     1
 90
        0
176
     1
 40
-0.6
176
     1
 41
-30.0
176
     1
 62
     5
 63
     7
421
 16777215
176
     1
 74
     1
176
     1
 91
        4
176
     1
 64
     7
176
     1
 65
   257
176
     1
 75
     1
176
     1
175
     1
176
     1
 42
1.0
176
     1
 92
        8
176
     1
 66
     7
176
     1
 43
1.0
176
     1
 76
     1
176
     1
 77
     6
176
     1
 78
     2
176
     1
 67
     7
176
     1
 79
     5
176
     1
170
     0
176
     1
171
     0
176
     1
290
     0
176
     1
 93
        1
176
     1
 44
50.0
176
     1
173
     0
176
     1
  0
VISUALSTYLE
  5
3A
102
{ACAD_REACTORS
330
2A
102
}
330
2A
100
AcDbVisualStyle
  2
ColorChange
 70
    16
177
     2
291
     1
 71
     2
176
     1
 72
     2
176
     1
 73
     3
176
     1
 90
        0
176
     1
 40
-0.6
176
     1
 41
-30.0
176
     1
 62
     5
 63
     8
421
  8421504
176
     1
 74
     1
176
     1
 91
        4
176
     1
 64
     7
176
     1
 65
   257
176
     1
 75
     1
176
     1
175
     1
176
     1
 42
1.0
176
     1
 92
        8
176
     1
 66
     8
424
  8421504
176
     1
 43
1.0
176
     1
 76
     1
176
     1
 77
     6
176
     1
 78
     2
176
     1
 67
     7
176
     1
 79
     5
176
     1
170
     0
176
     1
171
     0
176
     1
290
     0
176
     1
 93
        1
176
     1
 44
0.0
176
     1
173
     0
176
     1
  0
VISUALSTYLE
  5
34
102
{ACAD_REACTORS
330
2A
102
}
330
2A
100
AcDbVisualStyle
  2
Conceptual
 70
     9
177
     2
291
     0
 71
     3
176
     1
 72
     2
176
     1
 73
     0
176
     1
 90
        0
176
     1
 40
-0.6
176
     1
 41
-30.0
176
     1
 62
     5
 63
     7
421
 16777215
176
     1
 74
     2
176
     1
 91
        2
176
     1
 64
     7
176
     1
 65
   257
176
     1
 75
     1
176
     1
175
     1
176
     1
 42
40.0
176
     1
 92
        8
176
     1
 66
     7
176
     1
 43
1.0
176
     1
 76
     1
176
     1
 77
     6
176
     1
 78
     2
176
     1
 67
     7
176
     1
 79
     3
176
     1
170
     0
176
     1
171
     0
176
     1
290
     0
176
     1
 93
        1
176
     1
 44
0.0
176
     1
173
     0
176
     1
  0
VISUALSTYLE
  5
35
102
{ACAD_REACTORS
330
2A
102
}
330
2A
100
AcDbVisualStyle
  2
Dim
 70
    11
177
     2
291
     1
 71
     2
176
     1
 72
     2
176
     1
 73
     0
176
     1
 90
        0
176
     1
 40
-0.6
176
     1
 41
-30.0
176
     1
 62
     5
 63
     7
421
 16777215
176
     1
 74
     1
176
     1
 91
        4
176
     1
 64
     7
176
     1
 65
   257
176
     1
 75
     1
176
     1
175
     1
176
     1
 42
1.0
176
     1
 92
        8
176
     1
 66
     7
176
     1
 43
1.0
176
     1
 76
     1
176
     1
 77
     6
176
     1
 78
     2
176
     1
 67
     7
176
     1
 79
     5
176
     1
170
     0
176
     1
171
     0
176
     1
290
     0
176
     1
 93
        1
176
     1
 44
-50.0
176
     1
173
     0
176
     1
  0
VISUALSTYLE
  5
39
102
{ACAD_REACTORS
330
2A
102
}
330
2A
100
AcDbVisualStyle
  2
Facepattern
 70
    15
177
     2
291
     1
 71
     2
176
     1
 72
     2
176
     1
 73
     0
176
     1
 90
        0
176
     1
 40
-0.6
176
     1
 41
-30.0
176
     1
 62
     5
 63
     7
421
 16777215
176
     1
 74
     1
176
     1
 91
        4
176
     1
 64
     7
176
     1
 65
   257
176
     1
 75
     1
176
     1
175
     1
176
     1
 42
1.0
176
     1
 92
        8
176
     1
 66
     7
176
     1
 43
1.0
176
     1
 76
     1
176
     1
 77
     6
176
     1
 78
     2
176
     1
 67
     7
176
     1
 79
     5
176
     1
170
     0
176
     1
171
     0
176
     1
290
     0
176
     1
 93
        1
176
     1
 44
0.0
176
     1
173
     0
176
     1
  0
VISUALSTYLE
  5
2B
102
{ACAD_REACTORS
330
2A
102
}
330
2A
100
AcDbVisualStyle
  2
Flat
 70
     0
177
     2
291
     1
 71
     2
176
     1
 72
     1
176
     1
 73
     1
176
     1
 90
        2
176
     1
 40
-0.6
176
     1
 41
30.0
176
     1
 62
     5
 63
     7
421
 16777215
176
     1
 74
     0
176
     1
 91
        4
176
     1
 64
     7
176
     1
 65
   257
176
     1
 75
     1
176
     1
175
     1
176
     1
 42
1.0
176
     1
 92
        8
176
     1
 66
     7
176
     1
 43
1.0
176
     1
 76
     1
176
     1
 77
     6
176
     1
 78
     2
176
     1
 67
     7
176
     1
 79
     5
176
     1
170
     0
176
     1
171
     0
176
     1
290
     0
176
     1
 93
       13
176
     1
 44
0.0
176
     1
173
     0
176
     1
  0
VISUALSTYLE
  5
2C
102
{ACAD_REACTORS
330
2A
102
}
330
2A
100
AcDbVisualStyle
  2
FlatWithEdges
 70
     1
177
     2
291
     1
 71
     2
176
     1
 72
     1
176
     1
 73
     1
176
     1
 90
        2
176
     1
 40
-0.6
176
     1
 41
30.0
176
     1
 62
     5
 63
     7
421
 16777215
176
     1
 74
     1
176
     1
 91
        4
176
     1
 64
     7
176
     1
 65
   257
176
     1
 75
     1
176
     1
175
     1
176
     1
 42
1.0
176
     1
 92
        0
176
     1
 66
   257
176
     1
 43
1.0
176
     1
 76
     1
176
     1
 77
     6
176
     1
 78
     2
176
     1
 67
     7
176
     1
 79
     5
176
     1
170
     0
176
     1
171
     0
176
     1
290
     0
176
     1
 93
       13
176
     1
 44
0.0
176
     1
173
     0
176
     1
  0
VISUALSTYLE
  5
2D
102
{ACAD_REACTORS
330
2A
102
}
330
2A
100
AcDbVisualStyle
  2
Gouraud
 70
     2
177
     2
291
     1
 71
     2
176
     1
 72
     2
176
     1
 73
     1
176
     1
 90
        2
176
     1
 40
-0.6
176
     1
 41
30.0
176
     1
 62
     5
 63
     7
421
 16777215
176
     1
 74
     0
176
     1
 91
        4
176
     1
 64
     7
176
     1
 65
   257
176
     1
 75
     1
176
     1
175
     1
176
     1
 42
1.0
176
     1
 92
        0
176
     1
 66
     7
176
     1
 43
1.0
176
     1
 76
     1
176
     1
 77
     6
176
     1
 78
     2
176
     1
 67
     7
176
     1
 79
     5
176
     1
170
     0
176
     1
171
     0
176
     1
290
     0
176
     1
 93
       13
176
     1
 44
0.0
176
     1
173
     0
176
     1
  0
VISUALSTYLE
  5
2E
102
{ACAD_REACTORS
330
2A
102
}
330
2A
100
AcDbVisualStyle
  2
GouraudWithEdges
 70
     3
177
     2
291
     1
 71
     2
176
     1
 72
     2
176
     1
 73
     1
176
     1
 90
        2
176
     1
 40
-0.6
176
     1
 41
30.0
176
     1
 62
     5
 63
     7
421
 16777215
176
     1
 74
     1
176
     1
 91
        4
176
     1
 64
     7
176
     1
 65
   257
176
     1
 75
     1
176
     1
175
     1
176
     1
 42
1.0
176
     1
 92
        0
176
     1
 66
   257
176
     1
 43
1.0
176
     1
 76
     1
176
     1
 77
     6
176
     1
 78
     2
176
     1
 67
     7
176
     1
 79
     5
176
     1
170
     0
176
     1
171
     0
176
     1
290
     0
176
     1
 93
       13
176
     1
 44
0.0
176
     1
173
     0
176
     1
  0
VISUALSTYLE
  5
38
102
{ACAD_REACTORS
330
2A
102
}
330
2A
100
AcDbVisualStyle
  2
Linepattern
 70
    14
177
     2
291
     1
 71
     2
176
     1
 72
     2
176
     1
 73
     0
176
     1
 90
        0
176
     1
 40
-0.6
176
     1
 41
-30.0
176
     1
 62
     5
 63
     7
421
 16777215
176
     1
 74
     1
176
     1
 91
        4
176
     1
 64
     7
176
     1
 65
   257
176
     1
 75
     7
176
     1
175
     7
176
     1
 42
1.0
176
     1
 92
        8
176
     1
 66
     7
176
     1
 43
1.0
176
     1
 76
     1
176
     1
 77
     6
176
     1
 78
     2
176
     1
 67
     7
176
     1
 79
     5
176
     1
170
     0
176
     1
171
     0
176
     1
290
     0
176
     1
 93
        1
176
     1
 44
0.0
176
     1
173
     0
176
     1
  0
VISUALSTYLE
  5
33
102
{ACAD_REACTORS
330
2A
102
}
330
2A
100
AcDbVisualStyle
  2
Realistic
 70
     8
177
     2
291
     0
 71
     2
176
     1
 72
     2
176
     1
 73
     0
176
     1
 90
        0
176
     1
 40
-0.6
176
     1
 41
-30.0
176
     1
 62
     5
 63
     7
421
 16777215
176
     1
 74
     1
176
     1
 91
        0
176
     1
 64
     7
176
     1
 65
   257
176
     1
 75
     1
176
     1
175
     1
176
     1
 42
1.0
176
     1
 92
        8
176
     1
 66
     8
424
  7895160
176
     1
 43
1.0
176
     1
 76
     1
176
     1
 77
     6
176
     1
 78
     2
176
     1
 67
     7
176
     1
 79
     5
176
     1
170
     0
176
     1
171
     0
176
     1
290
     0
176
     1
 93
       13
176
     1
 44
0.0
176
     1
173
     0
176
     1
  0
VISUALSTYLE
  5
37
102
{ACAD_REACTORS
330
2A
102
}
330
2A
100
AcDbVisualStyle
  2
Thicken
 70
    13
177
     2
291
     1
 71
     2
176
     1
 72
     2
176
     1
 73
     0
176
     1
 90
        0
176
     1
 40
-0.6
176
     1
 41
-30.0
176
     1
 62
     5
 63
     7
421
 16777215
176
     1
 74
     1
176
     1
 91
        4
176
     1
 64
     7
176
     1
 65
   257
176
     1
 75
     1
176
     1
175
     1
176
     1
 42
1.0
176
     1
 92
       12
176
     1
 66
     7
176
     1
 43
1.0
176
     1
 76
     1
176
     1
 77
     6
176
     1
 78
     2
176
     1
 67
     7
176
     1
 79
     5
176
     1
170
     0
176
     1
171
     0
176
     1
290
     0
176
     1
 93
        1
176
     1
 44
0.0
176
     1
173
     0
176
     1
  0
ENDSEC
  0
EOF
